<?xml version="1.0" encoding="UTF-8" standalone="no"?>
<!DOCTYPE svg PUBLIC "-//W3C//DTD SVG 1.1//EN"
 "http://www.w3.org/Graphics/SVG/1.1/DTD/svg11.dtd">
<!-- Generated by graphviz version 2.38.0 (20140413.2041)
 -->
<!-- Title: controllers_diagram Pages: 1 -->
<svg width="888pt" height="932pt"
 viewBox="0.00 0.00 888.14 932.00" xmlns="http://www.w3.org/2000/svg" xmlns:xlink="http://www.w3.org/1999/xlink">
<g id="graph0" class="graph" transform="scale(1 1) rotate(0) translate(377.817 503.5)">
<title>controllers_diagram</title>
<polygon fill="white" stroke="none" points="-377.817,428.5 -377.817,-503.5 510.324,-503.5 510.324,428.5 -377.817,428.5"/>
<!-- _diagram_info -->
<g id="node1" class="node"><title>_diagram_info</title>
<text text-anchor="start" x="8.31226" y="178.9" font-family="Times,serif" font-size="13.00">Controllers diagram</text>
<text text-anchor="start" x="8.31226" y="191.9" font-family="Times,serif" font-size="13.00">Date: Mar 09 2015 &#45; 18:10</text>
<text text-anchor="start" x="8.31226" y="204.9" font-family="Times,serif" font-size="13.00">Migration version: 20150305181843</text>
<text text-anchor="start" x="8.31226" y="217.9" font-family="Times,serif" font-size="13.00">Generated by RailRoady 1.3.0</text>
<text text-anchor="start" x="8.31226" y="230.9" font-family="Times,serif" font-size="13.00">http://railroady.prestonlee.com</text>
</g>
<!-- AdminController -->
<g id="node2" class="node"><title>AdminController</title>
<path fill="none" stroke="black" d="M164.783,424C164.783,424 253.217,424 253.217,424 259.217,424 265.217,418 265.217,412 265.217,412 265.217,346 265.217,346 265.217,340 259.217,334 253.217,334 253.217,334 164.783,334 164.783,334 158.783,334 152.783,340 152.783,346 152.783,346 152.783,412 152.783,412 152.783,418 158.783,424 164.783,424"/>
<text text-anchor="middle" x="209" y="349.2" font-family="Times,serif" font-size="14.00">AdminController</text>
<polyline fill="none" stroke="black" points="152.783,356 265.217,356 "/>
<text text-anchor="start" x="160.783" y="371.2" font-family="Times,serif" font-size="14.00">home</text>
<polyline fill="none" stroke="black" points="152.783,378 265.217,378 "/>
<polyline fill="none" stroke="black" points="152.783,402 265.217,402 "/>
<text text-anchor="start" x="160.783" y="417.2" font-family="Times,serif" font-size="14.00">_layout</text>
</g>
<!-- ApplicationController -->
<g id="node3" class="node"><title>ApplicationController</title>
<path fill="none" stroke="black" d="M-310.821,322C-310.821,322 -195.179,322 -195.179,322 -189.179,322 -183.179,316 -183.179,310 -183.179,310 -183.179,242 -183.179,242 -183.179,236 -189.179,230 -195.179,230 -195.179,230 -310.821,230 -310.821,230 -316.821,230 -322.821,236 -322.821,242 -322.821,242 -322.821,310 -322.821,310 -322.821,316 -316.821,322 -310.821,322"/>
<text text-anchor="middle" x="-253" y="245.2" font-family="Times,serif" font-size="14.00">ApplicationController</text>
<polyline fill="none" stroke="black" points="-322.821,252 -183.179,252 "/>
<polyline fill="none" stroke="black" points="-322.821,276 -183.179,276 "/>
<polyline fill="none" stroke="black" points="-322.821,300 -183.179,300 "/>
<text text-anchor="start" x="-314.821" y="315.2" font-family="Times,serif" font-size="14.00">_layout</text>
</g>
<!-- BranchesController -->
<g id="node4" class="node"><title>BranchesController</title>
<path fill="none" stroke="black" d="M-361.817,-239C-361.817,-239 -260.183,-239 -260.183,-239 -254.183,-239 -248.183,-245 -248.183,-251 -248.183,-251 -248.183,-319 -248.183,-319 -248.183,-325 -254.183,-331 -260.183,-331 -260.183,-331 -361.817,-331 -361.817,-331 -367.817,-331 -373.817,-325 -373.817,-319 -373.817,-319 -373.817,-251 -373.817,-251 -373.817,-245 -367.817,-239 -361.817,-239"/>
<text text-anchor="middle" x="-311" y="-315.8" font-family="Times,serif" font-size="14.00">BranchesController</text>
<polyline fill="none" stroke="black" points="-373.817,-309 -248.183,-309 "/>
<polyline fill="none" stroke="black" points="-373.817,-285 -248.183,-285 "/>
<polyline fill="none" stroke="black" points="-373.817,-261 -248.183,-261 "/>
<text text-anchor="start" x="-365.817" y="-245.8" font-family="Times,serif" font-size="14.00">_layout</text>
</g>
<!-- BrandsController -->
<g id="node5" class="node"><title>BrandsController</title>
<path fill="none" stroke="black" d="M-259.604,16C-259.604,16 -170.396,16 -170.396,16 -164.396,16 -158.396,10 -158.396,4 -158.396,4 -158.396,-174 -158.396,-174 -158.396,-180 -164.396,-186 -170.396,-186 -170.396,-186 -259.604,-186 -259.604,-186 -265.604,-186 -271.604,-180 -271.604,-174 -271.604,-174 -271.604,4 -271.604,4 -271.604,10 -265.604,16 -259.604,16"/>
<text text-anchor="middle" x="-215" y="-170.8" font-family="Times,serif" font-size="14.00">BrandsController</text>
<polyline fill="none" stroke="black" points="-271.604,-164 -158.396,-164 "/>
<text text-anchor="start" x="-263.604" y="-148.8" font-family="Times,serif" font-size="14.00">create</text>
<text text-anchor="start" x="-263.604" y="-134.8" font-family="Times,serif" font-size="14.00">destroy</text>
<text text-anchor="start" x="-263.604" y="-120.8" font-family="Times,serif" font-size="14.00">edit</text>
<text text-anchor="start" x="-263.604" y="-106.8" font-family="Times,serif" font-size="14.00">index</text>
<text text-anchor="start" x="-263.604" y="-92.8" font-family="Times,serif" font-size="14.00">new</text>
<text text-anchor="start" x="-263.604" y="-78.8" font-family="Times,serif" font-size="14.00">show</text>
<text text-anchor="start" x="-263.604" y="-64.8" font-family="Times,serif" font-size="14.00">update</text>
<polyline fill="none" stroke="black" points="-271.604,-58 -158.396,-58 "/>
<polyline fill="none" stroke="black" points="-271.604,-34 -158.396,-34 "/>
<text text-anchor="start" x="-263.604" y="-18.8" font-family="Times,serif" font-size="14.00">_layout</text>
<text text-anchor="start" x="-263.604" y="-4.8" font-family="Times,serif" font-size="14.00">brand_params</text>
<text text-anchor="start" x="-263.604" y="9.2" font-family="Times,serif" font-size="14.00">set_brand</text>
</g>
<!-- ClientActionsController -->
<g id="node6" class="node"><title>ClientActionsController</title>
<path fill="none" stroke="black" d="M352.341,135C352.341,135 479.659,135 479.659,135 485.659,135 491.659,129 491.659,123 491.659,123 491.659,43 491.659,43 491.659,37 485.659,31 479.659,31 479.659,31 352.341,31 352.341,31 346.341,31 340.341,37 340.341,43 340.341,43 340.341,123 340.341,123 340.341,129 346.341,135 352.341,135"/>
<text text-anchor="middle" x="416" y="46.2" font-family="Times,serif" font-size="14.00">ClientActionsController</text>
<polyline fill="none" stroke="black" points="340.341,53 491.659,53 "/>
<text text-anchor="start" x="348.341" y="68.2" font-family="Times,serif" font-size="14.00">home</text>
<text text-anchor="start" x="348.341" y="82.2" font-family="Times,serif" font-size="14.00">show</text>
<polyline fill="none" stroke="black" points="340.341,89 491.659,89 "/>
<polyline fill="none" stroke="black" points="340.341,113 491.659,113 "/>
<text text-anchor="start" x="348.341" y="128.2" font-family="Times,serif" font-size="14.00">_layout</text>
</g>
<!-- GenericCarsController -->
<g id="node7" class="node"><title>GenericCarsController</title>
<path fill="none" stroke="black" d="M-107.497,135C-107.497,135 97.4971,135 97.4971,135 103.497,135 109.497,129 109.497,123 109.497,123 109.497,-111 109.497,-111 109.497,-117 103.497,-123 97.4971,-123 97.4971,-123 -107.497,-123 -107.497,-123 -113.497,-123 -119.497,-117 -119.497,-111 -119.497,-111 -119.497,123 -119.497,123 -119.497,129 -113.497,135 -107.497,135"/>
<text text-anchor="middle" x="-5" y="-107.8" font-family="Times,serif" font-size="14.00">GenericCarsController</text>
<polyline fill="none" stroke="black" points="-119.497,-101 109.497,-101 "/>
<text text-anchor="start" x="-111.497" y="-85.8" font-family="Times,serif" font-size="14.00">assignation</text>
<text text-anchor="start" x="-111.497" y="-71.8" font-family="Times,serif" font-size="14.00">create</text>
<text text-anchor="start" x="-111.497" y="-57.8" font-family="Times,serif" font-size="14.00">destroy</text>
<text text-anchor="start" x="-111.497" y="-43.8" font-family="Times,serif" font-size="14.00">edit</text>
<text text-anchor="start" x="-111.497" y="-29.8" font-family="Times,serif" font-size="14.00">index</text>
<text text-anchor="start" x="-111.497" y="-15.8" font-family="Times,serif" font-size="14.00">new</text>
<text text-anchor="start" x="-111.497" y="-1.8" font-family="Times,serif" font-size="14.00">relate_generic_family_to_generic_car</text>
<text text-anchor="start" x="-111.497" y="12.2" font-family="Times,serif" font-size="14.00">show</text>
<text text-anchor="start" x="-111.497" y="26.2" font-family="Times,serif" font-size="14.00">update</text>
<text text-anchor="start" x="-111.497" y="40.2" font-family="Times,serif" font-size="14.00">update_generation</text>
<polyline fill="none" stroke="black" points="-119.497,47 109.497,47 "/>
<polyline fill="none" stroke="black" points="-119.497,71 109.497,71 "/>
<text text-anchor="start" x="-111.497" y="86.2" font-family="Times,serif" font-size="14.00">_layout</text>
<text text-anchor="start" x="-111.497" y="100.2" font-family="Times,serif" font-size="14.00">generic_car_params</text>
<text text-anchor="start" x="-111.497" y="114.2" font-family="Times,serif" font-size="14.00">search</text>
<text text-anchor="start" x="-111.497" y="128.2" font-family="Times,serif" font-size="14.00">set_generic_car</text>
</g>
<!-- GenericFamiliesController -->
<g id="node8" class="node"><title>GenericFamiliesController</title>
<path fill="none" stroke="black" d="M147.965,135C147.965,135 290.035,135 290.035,135 296.035,135 302.035,129 302.035,123 302.035,123 302.035,-125 302.035,-125 302.035,-131 296.035,-137 290.035,-137 290.035,-137 147.965,-137 147.965,-137 141.965,-137 135.965,-131 135.965,-125 135.965,-125 135.965,123 135.965,123 135.965,129 141.965,135 147.965,135"/>
<text text-anchor="middle" x="219" y="-121.8" font-family="Times,serif" font-size="14.00">GenericFamiliesController</text>
<polyline fill="none" stroke="black" points="135.965,-115 302.035,-115 "/>
<text text-anchor="start" x="143.965" y="-99.8" font-family="Times,serif" font-size="14.00">assign</text>
<text text-anchor="start" x="143.965" y="-85.8" font-family="Times,serif" font-size="14.00">assigned_families</text>
<text text-anchor="start" x="143.965" y="-71.8" font-family="Times,serif" font-size="14.00">build_spares</text>
<text text-anchor="start" x="143.965" y="-57.8" font-family="Times,serif" font-size="14.00">count_spares</text>
<text text-anchor="start" x="143.965" y="-43.8" font-family="Times,serif" font-size="14.00">create</text>
<text text-anchor="start" x="143.965" y="-29.8" font-family="Times,serif" font-size="14.00">destroy</text>
<text text-anchor="start" x="143.965" y="-15.8" font-family="Times,serif" font-size="14.00">edit</text>
<text text-anchor="start" x="143.965" y="-1.8" font-family="Times,serif" font-size="14.00">index</text>
<text text-anchor="start" x="143.965" y="12.2" font-family="Times,serif" font-size="14.00">new</text>
<text text-anchor="start" x="143.965" y="26.2" font-family="Times,serif" font-size="14.00">not_assigned_families</text>
<text text-anchor="start" x="143.965" y="40.2" font-family="Times,serif" font-size="14.00">show</text>
<text text-anchor="start" x="143.965" y="54.2" font-family="Times,serif" font-size="14.00">update</text>
<polyline fill="none" stroke="black" points="135.965,61 302.035,61 "/>
<polyline fill="none" stroke="black" points="135.965,85 302.035,85 "/>
<text text-anchor="start" x="143.965" y="100.2" font-family="Times,serif" font-size="14.00">_layout</text>
<text text-anchor="start" x="143.965" y="114.2" font-family="Times,serif" font-size="14.00">required_params</text>
<text text-anchor="start" x="143.965" y="128.2" font-family="Times,serif" font-size="14.00">set_family</text>
</g>
<!-- GenericSparesController -->
<g id="node9" class="node"><title>GenericSparesController</title>
<path fill="none" stroke="black" d="M-38.5864,-154C-38.5864,-154 92.5864,-154 92.5864,-154 98.5864,-154 104.586,-160 104.586,-166 104.586,-166 104.586,-372 104.586,-372 104.586,-378 98.5864,-384 92.5864,-384 92.5864,-384 -38.5864,-384 -38.5864,-384 -44.5864,-384 -50.5864,-378 -50.5864,-372 -50.5864,-372 -50.5864,-166 -50.5864,-166 -50.5864,-160 -44.5864,-154 -38.5864,-154"/>
<text text-anchor="middle" x="27" y="-368.8" font-family="Times,serif" font-size="14.00">GenericSparesController</text>
<polyline fill="none" stroke="black" points="-50.5864,-362 104.586,-362 "/>
<text text-anchor="start" x="-42.5864" y="-346.8" font-family="Times,serif" font-size="14.00">create</text>
<text text-anchor="start" x="-42.5864" y="-332.8" font-family="Times,serif" font-size="14.00">destroy</text>
<text text-anchor="start" x="-42.5864" y="-318.8" font-family="Times,serif" font-size="14.00">edit</text>
<text text-anchor="start" x="-42.5864" y="-304.8" font-family="Times,serif" font-size="14.00">generic_spare_params</text>
<text text-anchor="start" x="-42.5864" y="-290.8" font-family="Times,serif" font-size="14.00">index</text>
<text text-anchor="start" x="-42.5864" y="-276.8" font-family="Times,serif" font-size="14.00">new</text>
<text text-anchor="start" x="-42.5864" y="-262.8" font-family="Times,serif" font-size="14.00">newTemplate</text>
<text text-anchor="start" x="-42.5864" y="-248.8" font-family="Times,serif" font-size="14.00">set_generic_spare</text>
<text text-anchor="start" x="-42.5864" y="-234.8" font-family="Times,serif" font-size="14.00">show</text>
<text text-anchor="start" x="-42.5864" y="-220.8" font-family="Times,serif" font-size="14.00">template</text>
<text text-anchor="start" x="-42.5864" y="-206.8" font-family="Times,serif" font-size="14.00">update</text>
<polyline fill="none" stroke="black" points="-50.5864,-200 104.586,-200 "/>
<polyline fill="none" stroke="black" points="-50.5864,-176 104.586,-176 "/>
<text text-anchor="start" x="-42.5864" y="-160.8" font-family="Times,serif" font-size="14.00">_layout</text>
</g>
<!-- InvoicesController -->
<g id="node10" class="node"><title>InvoicesController</title>
<path fill="none" stroke="black" d="M11.5137,356C11.5137,356 108.486,356 108.486,356 114.486,356 120.486,350 120.486,344 120.486,344 120.486,278 120.486,278 120.486,272 114.486,266 108.486,266 108.486,266 11.5137,266 11.5137,266 5.51367,266 -0.486328,272 -0.486328,278 -0.486328,278 -0.486328,344 -0.486328,344 -0.486328,350 5.51367,356 11.5137,356"/>
<text text-anchor="middle" x="60" y="281.2" font-family="Times,serif" font-size="14.00">InvoicesController</text>
<polyline fill="none" stroke="black" points="-0.486328,288 120.486,288 "/>
<text text-anchor="start" x="7.51367" y="303.2" font-family="Times,serif" font-size="14.00">home</text>
<polyline fill="none" stroke="black" points="-0.486328,310 120.486,310 "/>
<polyline fill="none" stroke="black" points="-0.486328,334 120.486,334 "/>
<text text-anchor="start" x="7.51367" y="349.2" font-family="Times,serif" font-size="14.00">_layout</text>
</g>
<!-- ModelAcronymsController -->
<g id="node11" class="node"><title>ModelAcronymsController</title>
<path fill="none" stroke="black" d="M181.79,-171C181.79,-171 326.21,-171 326.21,-171 332.21,-171 338.21,-177 338.21,-183 338.21,-183 338.21,-361 338.21,-361 338.21,-367 332.21,-373 326.21,-373 326.21,-373 181.79,-373 181.79,-373 175.79,-373 169.79,-367 169.79,-361 169.79,-361 169.79,-183 169.79,-183 169.79,-177 175.79,-171 181.79,-171"/>
<text text-anchor="middle" x="254" y="-357.8" font-family="Times,serif" font-size="14.00">ModelAcronymsController</text>
<polyline fill="none" stroke="black" points="169.79,-351 338.21,-351 "/>
<text text-anchor="start" x="177.79" y="-335.8" font-family="Times,serif" font-size="14.00">create</text>
<text text-anchor="start" x="177.79" y="-321.8" font-family="Times,serif" font-size="14.00">destroy</text>
<text text-anchor="start" x="177.79" y="-307.8" font-family="Times,serif" font-size="14.00">edit</text>
<text text-anchor="start" x="177.79" y="-293.8" font-family="Times,serif" font-size="14.00">index</text>
<text text-anchor="start" x="177.79" y="-279.8" font-family="Times,serif" font-size="14.00">new</text>
<text text-anchor="start" x="177.79" y="-265.8" font-family="Times,serif" font-size="14.00">show</text>
<text text-anchor="start" x="177.79" y="-251.8" font-family="Times,serif" font-size="14.00">update</text>
<polyline fill="none" stroke="black" points="169.79,-245 338.21,-245 "/>
<polyline fill="none" stroke="black" points="169.79,-221 338.21,-221 "/>
<text text-anchor="start" x="177.79" y="-205.8" font-family="Times,serif" font-size="14.00">_layout</text>
<text text-anchor="start" x="177.79" y="-191.8" font-family="Times,serif" font-size="14.00">model_acronym_params</text>
<text text-anchor="start" x="177.79" y="-177.8" font-family="Times,serif" font-size="14.00">set_model_acronym</text>
</g>
<!-- MoldSparesController -->
<g id="node12" class="node"><title>MoldSparesController</title>
<path fill="none" stroke="black" d="M-208.604,-222C-208.604,-222 -91.3965,-222 -91.3965,-222 -85.3965,-222 -79.3965,-228 -79.3965,-234 -79.3965,-234 -79.3965,-412 -79.3965,-412 -79.3965,-418 -85.3965,-424 -91.3965,-424 -91.3965,-424 -208.604,-424 -208.604,-424 -214.604,-424 -220.604,-418 -220.604,-412 -220.604,-412 -220.604,-234 -220.604,-234 -220.604,-228 -214.604,-222 -208.604,-222"/>
<text text-anchor="middle" x="-150" y="-408.8" font-family="Times,serif" font-size="14.00">MoldSparesController</text>
<polyline fill="none" stroke="black" points="-220.604,-402 -79.3965,-402 "/>
<text text-anchor="start" x="-212.604" y="-386.8" font-family="Times,serif" font-size="14.00">create</text>
<text text-anchor="start" x="-212.604" y="-372.8" font-family="Times,serif" font-size="14.00">destroy</text>
<text text-anchor="start" x="-212.604" y="-358.8" font-family="Times,serif" font-size="14.00">edit</text>
<text text-anchor="start" x="-212.604" y="-344.8" font-family="Times,serif" font-size="14.00">index</text>
<text text-anchor="start" x="-212.604" y="-330.8" font-family="Times,serif" font-size="14.00">new</text>
<text text-anchor="start" x="-212.604" y="-316.8" font-family="Times,serif" font-size="14.00">show</text>
<text text-anchor="start" x="-212.604" y="-302.8" font-family="Times,serif" font-size="14.00">update</text>
<polyline fill="none" stroke="black" points="-220.604,-296 -79.3965,-296 "/>
<polyline fill="none" stroke="black" points="-220.604,-272 -79.3965,-272 "/>
<text text-anchor="start" x="-212.604" y="-256.8" font-family="Times,serif" font-size="14.00">_layout</text>
<text text-anchor="start" x="-212.604" y="-242.8" font-family="Times,serif" font-size="14.00">mold_spare_params</text>
<text text-anchor="start" x="-212.604" y="-228.8" font-family="Times,serif" font-size="14.00">set_mold_spare</text>
</g>
<!-- PrevaluationsController -->
<g id="node13" class="node"><title>PrevaluationsController</title>
<path fill="none" stroke="black" d="M250.124,305C250.124,305 375.876,305 375.876,305 381.876,305 387.876,299 387.876,293 387.876,293 387.876,185 387.876,185 387.876,179 381.876,173 375.876,173 375.876,173 250.124,173 250.124,173 244.124,173 238.124,179 238.124,185 238.124,185 238.124,293 238.124,293 238.124,299 244.124,305 250.124,305"/>
<text text-anchor="middle" x="313" y="188.2" font-family="Times,serif" font-size="14.00">PrevaluationsController</text>
<polyline fill="none" stroke="black" points="238.124,195 387.876,195 "/>
<text text-anchor="start" x="246.124" y="210.2" font-family="Times,serif" font-size="14.00">create</text>
<text text-anchor="start" x="246.124" y="224.2" font-family="Times,serif" font-size="14.00">new</text>
<text text-anchor="start" x="246.124" y="238.2" font-family="Times,serif" font-size="14.00">pre_valuation_params</text>
<text text-anchor="start" x="246.124" y="252.2" font-family="Times,serif" font-size="14.00">show</text>
<polyline fill="none" stroke="black" points="238.124,259 387.876,259 "/>
<polyline fill="none" stroke="black" points="238.124,283 387.876,283 "/>
<text text-anchor="start" x="246.124" y="298.2" font-family="Times,serif" font-size="14.00">_layout</text>
</g>
<!-- ReportsController -->
<g id="node14" class="node"><title>ReportsController</title>
<path fill="none" stroke="black" d="M-259.548,203C-259.548,203 -166.452,203 -166.452,203 -160.452,203 -154.452,197 -154.452,191 -154.452,191 -154.452,55 -154.452,55 -154.452,49 -160.452,43 -166.452,43 -166.452,43 -259.548,43 -259.548,43 -265.548,43 -271.548,49 -271.548,55 -271.548,55 -271.548,191 -271.548,191 -271.548,197 -265.548,203 -259.548,203"/>
<text text-anchor="middle" x="-213" y="58.2" font-family="Times,serif" font-size="14.00">ReportsController</text>
<polyline fill="none" stroke="black" points="-271.548,65 -154.452,65 "/>
<text text-anchor="start" x="-263.548" y="80.2" font-family="Times,serif" font-size="14.00">cars</text>
<text text-anchor="start" x="-263.548" y="94.2" font-family="Times,serif" font-size="14.00">index</text>
<text text-anchor="start" x="-263.548" y="108.2" font-family="Times,serif" font-size="14.00">insurance</text>
<text text-anchor="start" x="-263.548" y="122.2" font-family="Times,serif" font-size="14.00">new</text>
<text text-anchor="start" x="-263.548" y="136.2" font-family="Times,serif" font-size="14.00">repair</text>
<text text-anchor="start" x="-263.548" y="150.2" font-family="Times,serif" font-size="14.00">show</text>
<polyline fill="none" stroke="black" points="-271.548,157 -154.452,157 "/>
<polyline fill="none" stroke="black" points="-271.548,181 -154.452,181 "/>
<text text-anchor="start" x="-263.548" y="196.2" font-family="Times,serif" font-size="14.00">_layout</text>
</g>
<!-- RosterController -->
<g id="node15" class="node"><title>RosterController</title>
<path fill="none" stroke="black" d="M352.031,-1C352.031,-1 469.969,-1 469.969,-1 475.969,-1 481.969,-7 481.969,-13 481.969,-13 481.969,-107 481.969,-107 481.969,-113 475.969,-119 469.969,-119 469.969,-119 352.031,-119 352.031,-119 346.031,-119 340.031,-113 340.031,-107 340.031,-107 340.031,-13 340.031,-13 340.031,-7 346.031,-1 352.031,-1"/>
<text text-anchor="middle" x="411" y="-103.8" font-family="Times,serif" font-size="14.00">RosterController</text>
<polyline fill="none" stroke="black" points="340.031,-97 481.969,-97 "/>
<text text-anchor="start" x="348.031" y="-81.8" font-family="Times,serif" font-size="14.00">attendance</text>
<text text-anchor="start" x="348.031" y="-67.8" font-family="Times,serif" font-size="14.00">employeePerformance</text>
<text text-anchor="start" x="348.031" y="-53.8" font-family="Times,serif" font-size="14.00">index</text>
<polyline fill="none" stroke="black" points="340.031,-47 481.969,-47 "/>
<polyline fill="none" stroke="black" points="340.031,-23 481.969,-23 "/>
<text text-anchor="start" x="348.031" y="-7.8" font-family="Times,serif" font-size="14.00">_layout</text>
</g>
<!-- SessionsController -->
<g id="node16" class="node"><title>SessionsController</title>
<path fill="none" stroke="black" d="M-140.89,356C-140.89,356 -43.1104,356 -43.1104,356 -37.1104,356 -31.1104,350 -31.1104,344 -31.1104,344 -31.1104,250 -31.1104,250 -31.1104,244 -37.1104,238 -43.1104,238 -43.1104,238 -140.89,238 -140.89,238 -146.89,238 -152.89,244 -152.89,250 -152.89,250 -152.89,344 -152.89,344 -152.89,350 -146.89,356 -140.89,356"/>
<text text-anchor="middle" x="-92" y="253.2" font-family="Times,serif" font-size="14.00">SessionsController</text>
<polyline fill="none" stroke="black" points="-152.89,260 -31.1104,260 "/>
<text text-anchor="start" x="-144.89" y="275.2" font-family="Times,serif" font-size="14.00">create</text>
<text text-anchor="start" x="-144.89" y="289.2" font-family="Times,serif" font-size="14.00">destroy</text>
<text text-anchor="start" x="-144.89" y="303.2" font-family="Times,serif" font-size="14.00">new</text>
<polyline fill="none" stroke="black" points="-152.89,310 -31.1104,310 "/>
<polyline fill="none" stroke="black" points="-152.89,334 -31.1104,334 "/>
<text text-anchor="start" x="-144.89" y="349.2" font-family="Times,serif" font-size="14.00">_layout</text>
</g>
<!-- SparesController -->
<g id="node17" class="node"><title>SparesController</title>
<path fill="none" stroke="black" d="M385.565,-307C385.565,-307 472.435,-307 472.435,-307 478.435,-307 484.435,-313 484.435,-319 484.435,-319 484.435,-413 484.435,-413 484.435,-419 478.435,-425 472.435,-425 472.435,-425 385.565,-425 385.565,-425 379.565,-425 373.565,-419 373.565,-413 373.565,-413 373.565,-319 373.565,-319 373.565,-313 379.565,-307 385.565,-307"/>
<text text-anchor="middle" x="429" y="-409.8" font-family="Times,serif" font-size="14.00">SparesController</text>
<polyline fill="none" stroke="black" points="373.565,-403 484.435,-403 "/>
<text text-anchor="start" x="381.565" y="-387.8" font-family="Times,serif" font-size="14.00">edit</text>
<text text-anchor="start" x="381.565" y="-373.8" font-family="Times,serif" font-size="14.00">index</text>
<text text-anchor="start" x="381.565" y="-359.8" font-family="Times,serif" font-size="14.00">new</text>
<polyline fill="none" stroke="black" points="373.565,-353 484.435,-353 "/>
<polyline fill="none" stroke="black" points="373.565,-329 484.435,-329 "/>
<text text-anchor="start" x="381.565" y="-313.8" font-family="Times,serif" font-size="14.00">_layout</text>
</g>
<!-- UsersController -->
<g id="node18" class="node"><title>UsersController</title>
<path fill="none" stroke="black" d="M-344.714,-358C-344.714,-358 -263.286,-358 -263.286,-358 -257.286,-358 -251.286,-364 -251.286,-370 -251.286,-370 -251.286,-478 -251.286,-478 -251.286,-484 -257.286,-490 -263.286,-490 -263.286,-490 -344.714,-490 -344.714,-490 -350.714,-490 -356.714,-484 -356.714,-478 -356.714,-478 -356.714,-370 -356.714,-370 -356.714,-364 -350.714,-358 -344.714,-358"/>
<text text-anchor="middle" x="-304" y="-474.8" font-family="Times,serif" font-size="14.00">UsersController</text>
<polyline fill="none" stroke="black" points="-356.714,-468 -251.286,-468 "/>
<text text-anchor="start" x="-348.714" y="-452.8" font-family="Times,serif" font-size="14.00">create</text>
<text text-anchor="start" x="-348.714" y="-438.8" font-family="Times,serif" font-size="14.00">new</text>
<text text-anchor="start" x="-348.714" y="-424.8" font-family="Times,serif" font-size="14.00">show</text>
<polyline fill="none" stroke="black" points="-356.714,-418 -251.286,-418 "/>
<polyline fill="none" stroke="black" points="-356.714,-394 -251.286,-394 "/>
<text text-anchor="start" x="-348.714" y="-378.8" font-family="Times,serif" font-size="14.00">_layout</text>
<text text-anchor="start" x="-348.714" y="-364.8" font-family="Times,serif" font-size="14.00">user_params</text>
</g>
<!-- ValuationsController -->
<g id="node19" class="node"><title>ValuationsController</title>
<path fill="none" stroke="black" d="M385.676,-154C385.676,-154 494.324,-154 494.324,-154 500.324,-154 506.324,-160 506.324,-166 506.324,-166 506.324,-260 506.324,-260 506.324,-266 500.324,-272 494.324,-272 494.324,-272 385.676,-272 385.676,-272 379.676,-272 373.676,-266 373.676,-260 373.676,-260 373.676,-166 373.676,-166 373.676,-160 379.676,-154 385.676,-154"/>
<text text-anchor="middle" x="440" y="-256.8" font-family="Times,serif" font-size="14.00">ValuationsController</text>
<polyline fill="none" stroke="black" points="373.676,-250 506.324,-250 "/>
<text text-anchor="start" x="381.676" y="-234.8" font-family="Times,serif" font-size="14.00">index</text>
<text text-anchor="start" x="381.676" y="-220.8" font-family="Times,serif" font-size="14.00">new</text>
<text text-anchor="start" x="381.676" y="-206.8" font-family="Times,serif" font-size="14.00">show</text>
<polyline fill="none" stroke="black" points="373.676,-200 506.324,-200 "/>
<polyline fill="none" stroke="black" points="373.676,-176 506.324,-176 "/>
<text text-anchor="start" x="381.676" y="-160.8" font-family="Times,serif" font-size="14.00">_layout</text>
</g>
<!-- WelcomeController -->
<g id="node20" class="node"><title>WelcomeController</title>
<path fill="none" stroke="black" d="M232.967,-409C232.967,-409 335.033,-409 335.033,-409 341.033,-409 347.033,-415 347.033,-421 347.033,-421 347.033,-487 347.033,-487 347.033,-493 341.033,-499 335.033,-499 335.033,-499 232.967,-499 232.967,-499 226.967,-499 220.967,-493 220.967,-487 220.967,-487 220.967,-421 220.967,-421 220.967,-415 226.967,-409 232.967,-409"/>
<text text-anchor="middle" x="284" y="-483.8" font-family="Times,serif" font-size="14.00">WelcomeController</text>
<polyline fill="none" stroke="black" points="220.967,-477 347.033,-477 "/>
<text text-anchor="start" x="228.967" y="-461.8" font-family="Times,serif" font-size="14.00">index</text>
<polyline fill="none" stroke="black" points="220.967,-455 347.033,-455 "/>
<polyline fill="none" stroke="black" points="220.967,-431 347.033,-431 "/>
<text text-anchor="start" x="228.967" y="-415.8" font-family="Times,serif" font-size="14.00">_layout</text>
</g>
</g>
</svg>
