<?xml version="1.0" encoding="UTF-8" standalone="no"?>
<!DOCTYPE svg PUBLIC "-//W3C//DTD SVG 1.1//EN"
 "http://www.w3.org/Graphics/SVG/1.1/DTD/svg11.dtd">
<!-- Generated by graphviz version 2.38.0 (20140413.2041)
 -->
<!-- Title: controllers_diagram Pages: 1 -->
<svg width="852pt" height="821pt"
 viewBox="0.00 0.00 852.31 821.00" xmlns="http://www.w3.org/2000/svg" xmlns:xlink="http://www.w3.org/1999/xlink">
<g id="graph0" class="graph" transform="scale(1 1) rotate(0) translate(372.486 465.5)">
<title>controllers_diagram</title>
<polygon fill="white" stroke="none" points="-372.486,355.5 -372.486,-465.5 479.821,-465.5 479.821,355.5 -372.486,355.5"/>
<!-- _diagram_info -->
<g id="node1" class="node"><title>_diagram_info</title>
<text text-anchor="start" x="120.312" y="164.9" font-family="Times,serif" font-size="13.00">Controllers diagram</text>
<text text-anchor="start" x="120.312" y="177.9" font-family="Times,serif" font-size="13.00">Date: Jan 06 2015 &#45; 12:27</text>
<text text-anchor="start" x="120.312" y="190.9" font-family="Times,serif" font-size="13.00">Migration version: 20141217154326</text>
<text text-anchor="start" x="120.312" y="203.9" font-family="Times,serif" font-size="13.00">Generated by RailRoady 1.3.0</text>
<text text-anchor="start" x="120.312" y="216.9" font-family="Times,serif" font-size="13.00">http://railroady.prestonlee.com</text>
</g>
<!-- AdminController -->
<g id="node2" class="node"><title>AdminController</title>
<path fill="none" stroke="black" d="M-340.217,-353C-340.217,-353 -251.783,-353 -251.783,-353 -245.783,-353 -239.783,-359 -239.783,-365 -239.783,-365 -239.783,-431 -239.783,-431 -239.783,-437 -245.783,-443 -251.783,-443 -251.783,-443 -340.217,-443 -340.217,-443 -346.217,-443 -352.217,-437 -352.217,-431 -352.217,-431 -352.217,-365 -352.217,-365 -352.217,-359 -346.217,-353 -340.217,-353"/>
<text text-anchor="middle" x="-296" y="-427.8" font-family="Times,serif" font-size="14.00">AdminController</text>
<polyline fill="none" stroke="black" points="-352.217,-421 -239.783,-421 "/>
<text text-anchor="start" x="-344.217" y="-405.8" font-family="Times,serif" font-size="14.00">home</text>
<polyline fill="none" stroke="black" points="-352.217,-399 -239.783,-399 "/>
<polyline fill="none" stroke="black" points="-352.217,-375 -239.783,-375 "/>
<text text-anchor="start" x="-344.217" y="-359.8" font-family="Times,serif" font-size="14.00">_layout</text>
</g>
<!-- ApplicationController -->
<g id="node3" class="node"><title>ApplicationController</title>
<path fill="none" stroke="black" d="M348.179,-337C348.179,-337 463.821,-337 463.821,-337 469.821,-337 475.821,-343 475.821,-349 475.821,-349 475.821,-417 475.821,-417 475.821,-423 469.821,-429 463.821,-429 463.821,-429 348.179,-429 348.179,-429 342.179,-429 336.179,-423 336.179,-417 336.179,-417 336.179,-349 336.179,-349 336.179,-343 342.179,-337 348.179,-337"/>
<text text-anchor="middle" x="406" y="-413.8" font-family="Times,serif" font-size="14.00">ApplicationController</text>
<polyline fill="none" stroke="black" points="336.179,-407 475.821,-407 "/>
<polyline fill="none" stroke="black" points="336.179,-383 475.821,-383 "/>
<polyline fill="none" stroke="black" points="336.179,-359 475.821,-359 "/>
<text text-anchor="start" x="344.179" y="-343.8" font-family="Times,serif" font-size="14.00">_layout</text>
</g>
<!-- BranchesController -->
<g id="node4" class="node"><title>BranchesController</title>
<path fill="none" stroke="black" d="M-3.81738,-369C-3.81738,-369 97.8174,-369 97.8174,-369 103.817,-369 109.817,-375 109.817,-381 109.817,-381 109.817,-449 109.817,-449 109.817,-455 103.817,-461 97.8174,-461 97.8174,-461 -3.81738,-461 -3.81738,-461 -9.81738,-461 -15.8174,-455 -15.8174,-449 -15.8174,-449 -15.8174,-381 -15.8174,-381 -15.8174,-375 -9.81738,-369 -3.81738,-369"/>
<text text-anchor="middle" x="47" y="-445.8" font-family="Times,serif" font-size="14.00">BranchesController</text>
<polyline fill="none" stroke="black" points="-15.8174,-439 109.817,-439 "/>
<polyline fill="none" stroke="black" points="-15.8174,-415 109.817,-415 "/>
<polyline fill="none" stroke="black" points="-15.8174,-391 109.817,-391 "/>
<text text-anchor="start" x="-7.81738" y="-375.8" font-family="Times,serif" font-size="14.00">_layout</text>
</g>
<!-- BrandsController -->
<g id="node5" class="node"><title>BrandsController</title>
<path fill="none" stroke="black" d="M-195.604,-209C-195.604,-209 -106.396,-209 -106.396,-209 -100.396,-209 -94.3965,-215 -94.3965,-221 -94.3965,-221 -94.3965,-399 -94.3965,-399 -94.3965,-405 -100.396,-411 -106.396,-411 -106.396,-411 -195.604,-411 -195.604,-411 -201.604,-411 -207.604,-405 -207.604,-399 -207.604,-399 -207.604,-221 -207.604,-221 -207.604,-215 -201.604,-209 -195.604,-209"/>
<text text-anchor="middle" x="-151" y="-395.8" font-family="Times,serif" font-size="14.00">BrandsController</text>
<polyline fill="none" stroke="black" points="-207.604,-389 -94.3965,-389 "/>
<text text-anchor="start" x="-199.604" y="-373.8" font-family="Times,serif" font-size="14.00">create</text>
<text text-anchor="start" x="-199.604" y="-359.8" font-family="Times,serif" font-size="14.00">destroy</text>
<text text-anchor="start" x="-199.604" y="-345.8" font-family="Times,serif" font-size="14.00">edit</text>
<text text-anchor="start" x="-199.604" y="-331.8" font-family="Times,serif" font-size="14.00">index</text>
<text text-anchor="start" x="-199.604" y="-317.8" font-family="Times,serif" font-size="14.00">new</text>
<text text-anchor="start" x="-199.604" y="-303.8" font-family="Times,serif" font-size="14.00">show</text>
<text text-anchor="start" x="-199.604" y="-289.8" font-family="Times,serif" font-size="14.00">update</text>
<polyline fill="none" stroke="black" points="-207.604,-283 -94.3965,-283 "/>
<polyline fill="none" stroke="black" points="-207.604,-259 -94.3965,-259 "/>
<text text-anchor="start" x="-199.604" y="-243.8" font-family="Times,serif" font-size="14.00">_layout</text>
<text text-anchor="start" x="-199.604" y="-229.8" font-family="Times,serif" font-size="14.00">brand_params</text>
<text text-anchor="start" x="-199.604" y="-215.8" font-family="Times,serif" font-size="14.00">set_brand</text>
</g>
<!-- ClientActionsController -->
<g id="node6" class="node"><title>ClientActionsController</title>
<path fill="none" stroke="black" d="M-67.6587,271C-67.6587,271 59.6587,271 59.6587,271 65.6587,271 71.6587,265 71.6587,259 71.6587,259 71.6587,179 71.6587,179 71.6587,173 65.6587,167 59.6587,167 59.6587,167 -67.6587,167 -67.6587,167 -73.6587,167 -79.6587,173 -79.6587,179 -79.6587,179 -79.6587,259 -79.6587,259 -79.6587,265 -73.6587,271 -67.6587,271"/>
<text text-anchor="middle" x="-4" y="182.2" font-family="Times,serif" font-size="14.00">ClientActionsController</text>
<polyline fill="none" stroke="black" points="-79.6587,189 71.6587,189 "/>
<text text-anchor="start" x="-71.6587" y="204.2" font-family="Times,serif" font-size="14.00">home</text>
<text text-anchor="start" x="-71.6587" y="218.2" font-family="Times,serif" font-size="14.00">show</text>
<polyline fill="none" stroke="black" points="-79.6587,225 71.6587,225 "/>
<polyline fill="none" stroke="black" points="-79.6587,249 71.6587,249 "/>
<text text-anchor="start" x="-71.6587" y="264.2" font-family="Times,serif" font-size="14.00">_layout</text>
</g>
<!-- FamiliesController -->
<g id="node7" class="node"><title>FamiliesController</title>
<path fill="none" stroke="black" d="M156.117,-145C156.117,-145 253.883,-145 253.883,-145 259.883,-145 265.883,-151 265.883,-157 265.883,-157 265.883,-335 265.883,-335 265.883,-341 259.883,-347 253.883,-347 253.883,-347 156.117,-347 156.117,-347 150.117,-347 144.117,-341 144.117,-335 144.117,-335 144.117,-157 144.117,-157 144.117,-151 150.117,-145 156.117,-145"/>
<text text-anchor="middle" x="205" y="-331.8" font-family="Times,serif" font-size="14.00">FamiliesController</text>
<polyline fill="none" stroke="black" points="144.117,-325 265.883,-325 "/>
<text text-anchor="start" x="152.117" y="-309.8" font-family="Times,serif" font-size="14.00">create</text>
<text text-anchor="start" x="152.117" y="-295.8" font-family="Times,serif" font-size="14.00">destroy</text>
<text text-anchor="start" x="152.117" y="-281.8" font-family="Times,serif" font-size="14.00">edit</text>
<text text-anchor="start" x="152.117" y="-267.8" font-family="Times,serif" font-size="14.00">index</text>
<text text-anchor="start" x="152.117" y="-253.8" font-family="Times,serif" font-size="14.00">new</text>
<text text-anchor="start" x="152.117" y="-239.8" font-family="Times,serif" font-size="14.00">show</text>
<text text-anchor="start" x="152.117" y="-225.8" font-family="Times,serif" font-size="14.00">update</text>
<polyline fill="none" stroke="black" points="144.117,-219 265.883,-219 "/>
<polyline fill="none" stroke="black" points="144.117,-195 265.883,-195 "/>
<text text-anchor="start" x="152.117" y="-179.8" font-family="Times,serif" font-size="14.00">_layout</text>
<text text-anchor="start" x="152.117" y="-165.8" font-family="Times,serif" font-size="14.00">family_params</text>
<text text-anchor="start" x="152.117" y="-151.8" font-family="Times,serif" font-size="14.00">set_family</text>
</g>
<!-- GenericCarsController -->
<g id="node8" class="node"><title>GenericCarsController</title>
<path fill="none" stroke="black" d="M124.245,111C124.245,111 243.755,111 243.755,111 249.755,111 255.755,105 255.755,99 255.755,99 255.755,-107 255.755,-107 255.755,-113 249.755,-119 243.755,-119 243.755,-119 124.245,-119 124.245,-119 118.245,-119 112.245,-113 112.245,-107 112.245,-107 112.245,99 112.245,99 112.245,105 118.245,111 124.245,111"/>
<text text-anchor="middle" x="184" y="-103.8" font-family="Times,serif" font-size="14.00">GenericCarsController</text>
<polyline fill="none" stroke="black" points="112.245,-97 255.755,-97 "/>
<text text-anchor="start" x="120.245" y="-81.8" font-family="Times,serif" font-size="14.00">create</text>
<text text-anchor="start" x="120.245" y="-67.8" font-family="Times,serif" font-size="14.00">destroy</text>
<text text-anchor="start" x="120.245" y="-53.8" font-family="Times,serif" font-size="14.00">edit</text>
<text text-anchor="start" x="120.245" y="-39.8" font-family="Times,serif" font-size="14.00">generic_car_params</text>
<text text-anchor="start" x="120.245" y="-25.8" font-family="Times,serif" font-size="14.00">index</text>
<text text-anchor="start" x="120.245" y="-11.8" font-family="Times,serif" font-size="14.00">new</text>
<text text-anchor="start" x="120.245" y="2.2" font-family="Times,serif" font-size="14.00">search</text>
<text text-anchor="start" x="120.245" y="16.2" font-family="Times,serif" font-size="14.00">set_generic_car</text>
<text text-anchor="start" x="120.245" y="30.2" font-family="Times,serif" font-size="14.00">show</text>
<text text-anchor="start" x="120.245" y="44.2" font-family="Times,serif" font-size="14.00">update</text>
<text text-anchor="start" x="120.245" y="58.2" font-family="Times,serif" font-size="14.00">update_generation</text>
<polyline fill="none" stroke="black" points="112.245,65 255.755,65 "/>
<polyline fill="none" stroke="black" points="112.245,89 255.755,89 "/>
<text text-anchor="start" x="120.245" y="104.2" font-family="Times,serif" font-size="14.00">_layout</text>
</g>
<!-- GenericSparesController -->
<g id="node9" class="node"><title>GenericSparesController</title>
<path fill="none" stroke="black" d="M-67.5864,127C-67.5864,127 63.5864,127 63.5864,127 69.5864,127 75.5864,121 75.5864,115 75.5864,115 75.5864,-91 75.5864,-91 75.5864,-97 69.5864,-103 63.5864,-103 63.5864,-103 -67.5864,-103 -67.5864,-103 -73.5864,-103 -79.5864,-97 -79.5864,-91 -79.5864,-91 -79.5864,115 -79.5864,115 -79.5864,121 -73.5864,127 -67.5864,127"/>
<text text-anchor="middle" x="-2" y="-87.8" font-family="Times,serif" font-size="14.00">GenericSparesController</text>
<polyline fill="none" stroke="black" points="-79.5864,-81 75.5864,-81 "/>
<text text-anchor="start" x="-71.5864" y="-65.8" font-family="Times,serif" font-size="14.00">create</text>
<text text-anchor="start" x="-71.5864" y="-51.8" font-family="Times,serif" font-size="14.00">destroy</text>
<text text-anchor="start" x="-71.5864" y="-37.8" font-family="Times,serif" font-size="14.00">edit</text>
<text text-anchor="start" x="-71.5864" y="-23.8" font-family="Times,serif" font-size="14.00">generic_spare_params</text>
<text text-anchor="start" x="-71.5864" y="-9.8" font-family="Times,serif" font-size="14.00">index</text>
<text text-anchor="start" x="-71.5864" y="4.2" font-family="Times,serif" font-size="14.00">new</text>
<text text-anchor="start" x="-71.5864" y="18.2" font-family="Times,serif" font-size="14.00">newTemplate</text>
<text text-anchor="start" x="-71.5864" y="32.2" font-family="Times,serif" font-size="14.00">set_generic_spare</text>
<text text-anchor="start" x="-71.5864" y="46.2" font-family="Times,serif" font-size="14.00">show</text>
<text text-anchor="start" x="-71.5864" y="60.2" font-family="Times,serif" font-size="14.00">template</text>
<text text-anchor="start" x="-71.5864" y="74.2" font-family="Times,serif" font-size="14.00">update</text>
<polyline fill="none" stroke="black" points="-79.5864,81 75.5864,81 "/>
<polyline fill="none" stroke="black" points="-79.5864,105 75.5864,105 "/>
<text text-anchor="start" x="-71.5864" y="120.2" font-family="Times,serif" font-size="14.00">_layout</text>
</g>
<!-- InvoicesController -->
<g id="node10" class="node"><title>InvoicesController</title>
<path fill="none" stroke="black" d="M-356.486,-225C-356.486,-225 -259.514,-225 -259.514,-225 -253.514,-225 -247.514,-231 -247.514,-237 -247.514,-237 -247.514,-303 -247.514,-303 -247.514,-309 -253.514,-315 -259.514,-315 -259.514,-315 -356.486,-315 -356.486,-315 -362.486,-315 -368.486,-309 -368.486,-303 -368.486,-303 -368.486,-237 -368.486,-237 -368.486,-231 -362.486,-225 -356.486,-225"/>
<text text-anchor="middle" x="-308" y="-299.8" font-family="Times,serif" font-size="14.00">InvoicesController</text>
<polyline fill="none" stroke="black" points="-368.486,-293 -247.514,-293 "/>
<text text-anchor="start" x="-360.486" y="-277.8" font-family="Times,serif" font-size="14.00">home</text>
<polyline fill="none" stroke="black" points="-368.486,-271 -247.514,-271 "/>
<polyline fill="none" stroke="black" points="-368.486,-247 -247.514,-247 "/>
<text text-anchor="start" x="-360.486" y="-231.8" font-family="Times,serif" font-size="14.00">_layout</text>
</g>
<!-- MoldSparesController -->
<g id="node11" class="node"><title>MoldSparesController</title>
<path fill="none" stroke="black" d="M-51.6035,-129C-51.6035,-129 65.6035,-129 65.6035,-129 71.6035,-129 77.6035,-135 77.6035,-141 77.6035,-141 77.6035,-319 77.6035,-319 77.6035,-325 71.6035,-331 65.6035,-331 65.6035,-331 -51.6035,-331 -51.6035,-331 -57.6035,-331 -63.6035,-325 -63.6035,-319 -63.6035,-319 -63.6035,-141 -63.6035,-141 -63.6035,-135 -57.6035,-129 -51.6035,-129"/>
<text text-anchor="middle" x="7" y="-315.8" font-family="Times,serif" font-size="14.00">MoldSparesController</text>
<polyline fill="none" stroke="black" points="-63.6035,-309 77.6035,-309 "/>
<text text-anchor="start" x="-55.6035" y="-293.8" font-family="Times,serif" font-size="14.00">create</text>
<text text-anchor="start" x="-55.6035" y="-279.8" font-family="Times,serif" font-size="14.00">destroy</text>
<text text-anchor="start" x="-55.6035" y="-265.8" font-family="Times,serif" font-size="14.00">edit</text>
<text text-anchor="start" x="-55.6035" y="-251.8" font-family="Times,serif" font-size="14.00">index</text>
<text text-anchor="start" x="-55.6035" y="-237.8" font-family="Times,serif" font-size="14.00">new</text>
<text text-anchor="start" x="-55.6035" y="-223.8" font-family="Times,serif" font-size="14.00">show</text>
<text text-anchor="start" x="-55.6035" y="-209.8" font-family="Times,serif" font-size="14.00">update</text>
<polyline fill="none" stroke="black" points="-63.6035,-203 77.6035,-203 "/>
<polyline fill="none" stroke="black" points="-63.6035,-179 77.6035,-179 "/>
<text text-anchor="start" x="-55.6035" y="-163.8" font-family="Times,serif" font-size="14.00">_layout</text>
<text text-anchor="start" x="-55.6035" y="-149.8" font-family="Times,serif" font-size="14.00">mold_spare_params</text>
<text text-anchor="start" x="-55.6035" y="-135.8" font-family="Times,serif" font-size="14.00">set_mold_spare</text>
</g>
<!-- PrevaluationsController -->
<g id="node12" class="node"><title>PrevaluationsController</title>
<path fill="none" stroke="black" d="M-243.876,-49C-243.876,-49 -118.124,-49 -118.124,-49 -112.124,-49 -106.124,-55 -106.124,-61 -106.124,-61 -106.124,-169 -106.124,-169 -106.124,-175 -112.124,-181 -118.124,-181 -118.124,-181 -243.876,-181 -243.876,-181 -249.876,-181 -255.876,-175 -255.876,-169 -255.876,-169 -255.876,-61 -255.876,-61 -255.876,-55 -249.876,-49 -243.876,-49"/>
<text text-anchor="middle" x="-181" y="-165.8" font-family="Times,serif" font-size="14.00">PrevaluationsController</text>
<polyline fill="none" stroke="black" points="-255.876,-159 -106.124,-159 "/>
<text text-anchor="start" x="-247.876" y="-143.8" font-family="Times,serif" font-size="14.00">create</text>
<text text-anchor="start" x="-247.876" y="-129.8" font-family="Times,serif" font-size="14.00">new</text>
<text text-anchor="start" x="-247.876" y="-115.8" font-family="Times,serif" font-size="14.00">pre_valuation_params</text>
<text text-anchor="start" x="-247.876" y="-101.8" font-family="Times,serif" font-size="14.00">show</text>
<polyline fill="none" stroke="black" points="-255.876,-95 -106.124,-95 "/>
<polyline fill="none" stroke="black" points="-255.876,-71 -106.124,-71 "/>
<text text-anchor="start" x="-247.876" y="-55.8" font-family="Times,serif" font-size="14.00">_layout</text>
</g>
<!-- ReportsController -->
<g id="node13" class="node"><title>ReportsController</title>
<path fill="none" stroke="black" d="M-211.548,143C-211.548,143 -118.452,143 -118.452,143 -112.452,143 -106.452,137 -106.452,131 -106.452,131 -106.452,-5 -106.452,-5 -106.452,-11 -112.452,-17 -118.452,-17 -118.452,-17 -211.548,-17 -211.548,-17 -217.548,-17 -223.548,-11 -223.548,-5 -223.548,-5 -223.548,131 -223.548,131 -223.548,137 -217.548,143 -211.548,143"/>
<text text-anchor="middle" x="-165" y="-1.8" font-family="Times,serif" font-size="14.00">ReportsController</text>
<polyline fill="none" stroke="black" points="-223.548,5 -106.452,5 "/>
<text text-anchor="start" x="-215.548" y="20.2" font-family="Times,serif" font-size="14.00">cars</text>
<text text-anchor="start" x="-215.548" y="34.2" font-family="Times,serif" font-size="14.00">index</text>
<text text-anchor="start" x="-215.548" y="48.2" font-family="Times,serif" font-size="14.00">insurance</text>
<text text-anchor="start" x="-215.548" y="62.2" font-family="Times,serif" font-size="14.00">new</text>
<text text-anchor="start" x="-215.548" y="76.2" font-family="Times,serif" font-size="14.00">repair</text>
<text text-anchor="start" x="-215.548" y="90.2" font-family="Times,serif" font-size="14.00">show</text>
<polyline fill="none" stroke="black" points="-223.548,97 -106.452,97 "/>
<polyline fill="none" stroke="black" points="-223.548,121 -106.452,121 "/>
<text text-anchor="start" x="-215.548" y="136.2" font-family="Times,serif" font-size="14.00">_layout</text>
</g>
<!-- RosterController -->
<g id="node14" class="node"><title>RosterController</title>
<path fill="none" stroke="black" d="M300.031,111C300.031,111 417.969,111 417.969,111 423.969,111 429.969,105 429.969,99 429.969,99 429.969,5 429.969,5 429.969,-1 423.969,-7 417.969,-7 417.969,-7 300.031,-7 300.031,-7 294.031,-7 288.031,-1 288.031,5 288.031,5 288.031,99 288.031,99 288.031,105 294.031,111 300.031,111"/>
<text text-anchor="middle" x="359" y="8.2" font-family="Times,serif" font-size="14.00">RosterController</text>
<polyline fill="none" stroke="black" points="288.031,15 429.969,15 "/>
<text text-anchor="start" x="296.031" y="30.2" font-family="Times,serif" font-size="14.00">attendance</text>
<text text-anchor="start" x="296.031" y="44.2" font-family="Times,serif" font-size="14.00">employeePerformance</text>
<text text-anchor="start" x="296.031" y="58.2" font-family="Times,serif" font-size="14.00">index</text>
<polyline fill="none" stroke="black" points="288.031,65 429.969,65 "/>
<polyline fill="none" stroke="black" points="288.031,89 429.969,89 "/>
<text text-anchor="start" x="296.031" y="104.2" font-family="Times,serif" font-size="14.00">_layout</text>
</g>
<!-- SessionsController -->
<g id="node15" class="node"><title>SessionsController</title>
<path fill="none" stroke="black" d="M316.11,-33C316.11,-33 413.89,-33 413.89,-33 419.89,-33 425.89,-39 425.89,-45 425.89,-45 425.89,-139 425.89,-139 425.89,-145 419.89,-151 413.89,-151 413.89,-151 316.11,-151 316.11,-151 310.11,-151 304.11,-145 304.11,-139 304.11,-139 304.11,-45 304.11,-45 304.11,-39 310.11,-33 316.11,-33"/>
<text text-anchor="middle" x="365" y="-135.8" font-family="Times,serif" font-size="14.00">SessionsController</text>
<polyline fill="none" stroke="black" points="304.11,-129 425.89,-129 "/>
<text text-anchor="start" x="312.11" y="-113.8" font-family="Times,serif" font-size="14.00">create</text>
<text text-anchor="start" x="312.11" y="-99.8" font-family="Times,serif" font-size="14.00">destroy</text>
<text text-anchor="start" x="312.11" y="-85.8" font-family="Times,serif" font-size="14.00">new</text>
<polyline fill="none" stroke="black" points="304.11,-79 425.89,-79 "/>
<polyline fill="none" stroke="black" points="304.11,-55 425.89,-55 "/>
<text text-anchor="start" x="312.11" y="-39.8" font-family="Times,serif" font-size="14.00">_layout</text>
</g>
<!-- SparesController -->
<g id="node16" class="node"><title>SparesController</title>
<path fill="none" stroke="black" d="M363.565,351C363.565,351 450.435,351 450.435,351 456.435,351 462.435,345 462.435,339 462.435,339 462.435,245 462.435,245 462.435,239 456.435,233 450.435,233 450.435,233 363.565,233 363.565,233 357.565,233 351.565,239 351.565,245 351.565,245 351.565,339 351.565,339 351.565,345 357.565,351 363.565,351"/>
<text text-anchor="middle" x="407" y="248.2" font-family="Times,serif" font-size="14.00">SparesController</text>
<polyline fill="none" stroke="black" points="351.565,255 462.435,255 "/>
<text text-anchor="start" x="359.565" y="270.2" font-family="Times,serif" font-size="14.00">edit</text>
<text text-anchor="start" x="359.565" y="284.2" font-family="Times,serif" font-size="14.00">index</text>
<text text-anchor="start" x="359.565" y="298.2" font-family="Times,serif" font-size="14.00">new</text>
<polyline fill="none" stroke="black" points="351.565,305 462.435,305 "/>
<polyline fill="none" stroke="black" points="351.565,329 462.435,329 "/>
<text text-anchor="start" x="359.565" y="344.2" font-family="Times,serif" font-size="14.00">_layout</text>
</g>
<!-- UsersController -->
<g id="node17" class="node"><title>UsersController</title>
<path fill="none" stroke="black" d="M316.286,-177C316.286,-177 397.714,-177 397.714,-177 403.714,-177 409.714,-183 409.714,-189 409.714,-189 409.714,-297 409.714,-297 409.714,-303 403.714,-309 397.714,-309 397.714,-309 316.286,-309 316.286,-309 310.286,-309 304.286,-303 304.286,-297 304.286,-297 304.286,-189 304.286,-189 304.286,-183 310.286,-177 316.286,-177"/>
<text text-anchor="middle" x="357" y="-293.8" font-family="Times,serif" font-size="14.00">UsersController</text>
<polyline fill="none" stroke="black" points="304.286,-287 409.714,-287 "/>
<text text-anchor="start" x="312.286" y="-271.8" font-family="Times,serif" font-size="14.00">create</text>
<text text-anchor="start" x="312.286" y="-257.8" font-family="Times,serif" font-size="14.00">new</text>
<text text-anchor="start" x="312.286" y="-243.8" font-family="Times,serif" font-size="14.00">show</text>
<polyline fill="none" stroke="black" points="304.286,-237 409.714,-237 "/>
<polyline fill="none" stroke="black" points="304.286,-213 409.714,-213 "/>
<text text-anchor="start" x="312.286" y="-197.8" font-family="Times,serif" font-size="14.00">_layout</text>
<text text-anchor="start" x="312.286" y="-183.8" font-family="Times,serif" font-size="14.00">user_params</text>
</g>
<!-- ValuationsController -->
<g id="node18" class="node"><title>ValuationsController</title>
<path fill="none" stroke="black" d="M-276.324,287C-276.324,287 -167.676,287 -167.676,287 -161.676,287 -155.676,281 -155.676,275 -155.676,275 -155.676,181 -155.676,181 -155.676,175 -161.676,169 -167.676,169 -167.676,169 -276.324,169 -276.324,169 -282.324,169 -288.324,175 -288.324,181 -288.324,181 -288.324,275 -288.324,275 -288.324,281 -282.324,287 -276.324,287"/>
<text text-anchor="middle" x="-222" y="184.2" font-family="Times,serif" font-size="14.00">ValuationsController</text>
<polyline fill="none" stroke="black" points="-288.324,191 -155.676,191 "/>
<text text-anchor="start" x="-280.324" y="206.2" font-family="Times,serif" font-size="14.00">index</text>
<text text-anchor="start" x="-280.324" y="220.2" font-family="Times,serif" font-size="14.00">new</text>
<text text-anchor="start" x="-280.324" y="234.2" font-family="Times,serif" font-size="14.00">show</text>
<polyline fill="none" stroke="black" points="-288.324,241 -155.676,241 "/>
<polyline fill="none" stroke="black" points="-288.324,265 -155.676,265 "/>
<text text-anchor="start" x="-280.324" y="280.2" font-family="Times,serif" font-size="14.00">_layout</text>
</g>
<!-- WelcomeController -->
<g id="node19" class="node"><title>WelcomeController</title>
<path fill="none" stroke="black" d="M107.967,351C107.967,351 210.033,351 210.033,351 216.033,351 222.033,345 222.033,339 222.033,339 222.033,273 222.033,273 222.033,267 216.033,261 210.033,261 210.033,261 107.967,261 107.967,261 101.967,261 95.9673,267 95.9673,273 95.9673,273 95.9673,339 95.9673,339 95.9673,345 101.967,351 107.967,351"/>
<text text-anchor="middle" x="159" y="276.2" font-family="Times,serif" font-size="14.00">WelcomeController</text>
<polyline fill="none" stroke="black" points="95.9673,283 222.033,283 "/>
<text text-anchor="start" x="103.967" y="298.2" font-family="Times,serif" font-size="14.00">index</text>
<polyline fill="none" stroke="black" points="95.9673,305 222.033,305 "/>
<polyline fill="none" stroke="black" points="95.9673,329 222.033,329 "/>
<text text-anchor="start" x="103.967" y="344.2" font-family="Times,serif" font-size="14.00">_layout</text>
</g>
</g>
</svg>
