<?xml version="1.0" encoding="UTF-8" standalone="no"?>
<!DOCTYPE svg PUBLIC "-//W3C//DTD SVG 1.1//EN"
 "http://www.w3.org/Graphics/SVG/1.1/DTD/svg11.dtd">
<!-- Generated by graphviz version 2.38.0 (20140413.2041)
 -->
<!-- Title: controllers_diagram Pages: 1 -->
<svg width="894pt" height="864pt"
 viewBox="0.00 0.00 893.70 864.00" xmlns="http://www.w3.org/2000/svg" xmlns:xlink="http://www.w3.org/1999/xlink">
<g id="graph0" class="graph" transform="scale(1 1) rotate(0) translate(395.217 486.5)">
<title>controllers_diagram</title>
<polygon fill="white" stroke="none" points="-395.217,377.5 -395.217,-486.5 498.486,-486.5 498.486,377.5 -395.217,377.5"/>
<!-- _diagram_info -->
<g id="node1" class="node"><title>_diagram_info</title>
<text text-anchor="start" x="127.312" y="161.9" font-family="Times,serif" font-size="13.00">Controllers diagram</text>
<text text-anchor="start" x="127.312" y="174.9" font-family="Times,serif" font-size="13.00">Date: Feb 27 2015 &#45; 15:10</text>
<text text-anchor="start" x="127.312" y="187.9" font-family="Times,serif" font-size="13.00">Migration version: 20150225192906</text>
<text text-anchor="start" x="127.312" y="200.9" font-family="Times,serif" font-size="13.00">Generated by RailRoady 1.3.0</text>
<text text-anchor="start" x="127.312" y="213.9" font-family="Times,serif" font-size="13.00">http://railroady.prestonlee.com</text>
</g>
<!-- AdminController -->
<g id="node2" class="node"><title>AdminController</title>
<path fill="none" stroke="black" d="M-379.217,-120C-379.217,-120 -290.783,-120 -290.783,-120 -284.783,-120 -278.783,-126 -278.783,-132 -278.783,-132 -278.783,-198 -278.783,-198 -278.783,-204 -284.783,-210 -290.783,-210 -290.783,-210 -379.217,-210 -379.217,-210 -385.217,-210 -391.217,-204 -391.217,-198 -391.217,-198 -391.217,-132 -391.217,-132 -391.217,-126 -385.217,-120 -379.217,-120"/>
<text text-anchor="middle" x="-335" y="-194.8" font-family="Times,serif" font-size="14.00">AdminController</text>
<polyline fill="none" stroke="black" points="-391.217,-188 -278.783,-188 "/>
<text text-anchor="start" x="-383.217" y="-172.8" font-family="Times,serif" font-size="14.00">home</text>
<polyline fill="none" stroke="black" points="-391.217,-166 -278.783,-166 "/>
<polyline fill="none" stroke="black" points="-391.217,-142 -278.783,-142 "/>
<text text-anchor="start" x="-383.217" y="-126.8" font-family="Times,serif" font-size="14.00">_layout</text>
</g>
<!-- ApplicationController -->
<g id="node3" class="node"><title>ApplicationController</title>
<path fill="none" stroke="black" d="M-293.821,305C-293.821,305 -178.179,305 -178.179,305 -172.179,305 -166.179,299 -166.179,293 -166.179,293 -166.179,225 -166.179,225 -166.179,219 -172.179,213 -178.179,213 -178.179,213 -293.821,213 -293.821,213 -299.821,213 -305.821,219 -305.821,225 -305.821,225 -305.821,293 -305.821,293 -305.821,299 -299.821,305 -293.821,305"/>
<text text-anchor="middle" x="-236" y="228.2" font-family="Times,serif" font-size="14.00">ApplicationController</text>
<polyline fill="none" stroke="black" points="-305.821,235 -166.179,235 "/>
<polyline fill="none" stroke="black" points="-305.821,259 -166.179,259 "/>
<polyline fill="none" stroke="black" points="-305.821,283 -166.179,283 "/>
<text text-anchor="start" x="-297.821" y="298.2" font-family="Times,serif" font-size="14.00">_layout</text>
</g>
<!-- BranchesController -->
<g id="node4" class="node"><title>BranchesController</title>
<path fill="none" stroke="black" d="M-361.817,-239C-361.817,-239 -260.183,-239 -260.183,-239 -254.183,-239 -248.183,-245 -248.183,-251 -248.183,-251 -248.183,-319 -248.183,-319 -248.183,-325 -254.183,-331 -260.183,-331 -260.183,-331 -361.817,-331 -361.817,-331 -367.817,-331 -373.817,-325 -373.817,-319 -373.817,-319 -373.817,-251 -373.817,-251 -373.817,-245 -367.817,-239 -361.817,-239"/>
<text text-anchor="middle" x="-311" y="-315.8" font-family="Times,serif" font-size="14.00">BranchesController</text>
<polyline fill="none" stroke="black" points="-373.817,-309 -248.183,-309 "/>
<polyline fill="none" stroke="black" points="-373.817,-285 -248.183,-285 "/>
<polyline fill="none" stroke="black" points="-373.817,-261 -248.183,-261 "/>
<text text-anchor="start" x="-365.817" y="-245.8" font-family="Times,serif" font-size="14.00">_layout</text>
</g>
<!-- BrandsController -->
<g id="node5" class="node"><title>BrandsController</title>
<path fill="none" stroke="black" d="M-225.604,16C-225.604,16 -136.396,16 -136.396,16 -130.396,16 -124.396,10 -124.396,4 -124.396,4 -124.396,-174 -124.396,-174 -124.396,-180 -130.396,-186 -136.396,-186 -136.396,-186 -225.604,-186 -225.604,-186 -231.604,-186 -237.604,-180 -237.604,-174 -237.604,-174 -237.604,4 -237.604,4 -237.604,10 -231.604,16 -225.604,16"/>
<text text-anchor="middle" x="-181" y="-170.8" font-family="Times,serif" font-size="14.00">BrandsController</text>
<polyline fill="none" stroke="black" points="-237.604,-164 -124.396,-164 "/>
<text text-anchor="start" x="-229.604" y="-148.8" font-family="Times,serif" font-size="14.00">create</text>
<text text-anchor="start" x="-229.604" y="-134.8" font-family="Times,serif" font-size="14.00">destroy</text>
<text text-anchor="start" x="-229.604" y="-120.8" font-family="Times,serif" font-size="14.00">edit</text>
<text text-anchor="start" x="-229.604" y="-106.8" font-family="Times,serif" font-size="14.00">index</text>
<text text-anchor="start" x="-229.604" y="-92.8" font-family="Times,serif" font-size="14.00">new</text>
<text text-anchor="start" x="-229.604" y="-78.8" font-family="Times,serif" font-size="14.00">show</text>
<text text-anchor="start" x="-229.604" y="-64.8" font-family="Times,serif" font-size="14.00">update</text>
<polyline fill="none" stroke="black" points="-237.604,-58 -124.396,-58 "/>
<polyline fill="none" stroke="black" points="-237.604,-34 -124.396,-34 "/>
<text text-anchor="start" x="-229.604" y="-18.8" font-family="Times,serif" font-size="14.00">_layout</text>
<text text-anchor="start" x="-229.604" y="-4.8" font-family="Times,serif" font-size="14.00">brand_params</text>
<text text-anchor="start" x="-229.604" y="9.2" font-family="Times,serif" font-size="14.00">set_brand</text>
</g>
<!-- ClientActionsController -->
<g id="node6" class="node"><title>ClientActionsController</title>
<path fill="none" stroke="black" d="M-72.6587,271C-72.6587,271 54.6587,271 54.6587,271 60.6587,271 66.6587,265 66.6587,259 66.6587,259 66.6587,179 66.6587,179 66.6587,173 60.6587,167 54.6587,167 54.6587,167 -72.6587,167 -72.6587,167 -78.6587,167 -84.6587,173 -84.6587,179 -84.6587,179 -84.6587,259 -84.6587,259 -84.6587,265 -78.6587,271 -72.6587,271"/>
<text text-anchor="middle" x="-9" y="182.2" font-family="Times,serif" font-size="14.00">ClientActionsController</text>
<polyline fill="none" stroke="black" points="-84.6587,189 66.6587,189 "/>
<text text-anchor="start" x="-76.6587" y="204.2" font-family="Times,serif" font-size="14.00">home</text>
<text text-anchor="start" x="-76.6587" y="218.2" font-family="Times,serif" font-size="14.00">show</text>
<polyline fill="none" stroke="black" points="-84.6587,225 66.6587,225 "/>
<polyline fill="none" stroke="black" points="-84.6587,249 66.6587,249 "/>
<text text-anchor="start" x="-76.6587" y="264.2" font-family="Times,serif" font-size="14.00">_layout</text>
</g>
<!-- GenericCarsController -->
<g id="node7" class="node"><title>GenericCarsController</title>
<path fill="none" stroke="black" d="M165.245,-154C165.245,-154 284.755,-154 284.755,-154 290.755,-154 296.755,-160 296.755,-166 296.755,-166 296.755,-372 296.755,-372 296.755,-378 290.755,-384 284.755,-384 284.755,-384 165.245,-384 165.245,-384 159.245,-384 153.245,-378 153.245,-372 153.245,-372 153.245,-166 153.245,-166 153.245,-160 159.245,-154 165.245,-154"/>
<text text-anchor="middle" x="225" y="-368.8" font-family="Times,serif" font-size="14.00">GenericCarsController</text>
<polyline fill="none" stroke="black" points="153.245,-362 296.755,-362 "/>
<text text-anchor="start" x="161.245" y="-346.8" font-family="Times,serif" font-size="14.00">create</text>
<text text-anchor="start" x="161.245" y="-332.8" font-family="Times,serif" font-size="14.00">destroy</text>
<text text-anchor="start" x="161.245" y="-318.8" font-family="Times,serif" font-size="14.00">edit</text>
<text text-anchor="start" x="161.245" y="-304.8" font-family="Times,serif" font-size="14.00">index</text>
<text text-anchor="start" x="161.245" y="-290.8" font-family="Times,serif" font-size="14.00">new</text>
<text text-anchor="start" x="161.245" y="-276.8" font-family="Times,serif" font-size="14.00">show</text>
<text text-anchor="start" x="161.245" y="-262.8" font-family="Times,serif" font-size="14.00">update</text>
<text text-anchor="start" x="161.245" y="-248.8" font-family="Times,serif" font-size="14.00">update_generation</text>
<polyline fill="none" stroke="black" points="153.245,-242 296.755,-242 "/>
<polyline fill="none" stroke="black" points="153.245,-218 296.755,-218 "/>
<text text-anchor="start" x="161.245" y="-202.8" font-family="Times,serif" font-size="14.00">_layout</text>
<text text-anchor="start" x="161.245" y="-188.8" font-family="Times,serif" font-size="14.00">generic_car_params</text>
<text text-anchor="start" x="161.245" y="-174.8" font-family="Times,serif" font-size="14.00">search</text>
<text text-anchor="start" x="161.245" y="-160.8" font-family="Times,serif" font-size="14.00">set_generic_car</text>
</g>
<!-- GenericFamiliesController -->
<g id="node8" class="node"><title>GenericFamiliesController</title>
<path fill="none" stroke="black" d="M-73.0347,135C-73.0347,135 69.0347,135 69.0347,135 75.0347,135 81.0347,129 81.0347,123 81.0347,123 81.0347,-111 81.0347,-111 81.0347,-117 75.0347,-123 69.0347,-123 69.0347,-123 -73.0347,-123 -73.0347,-123 -79.0347,-123 -85.0347,-117 -85.0347,-111 -85.0347,-111 -85.0347,123 -85.0347,123 -85.0347,129 -79.0347,135 -73.0347,135"/>
<text text-anchor="middle" x="-2" y="-107.8" font-family="Times,serif" font-size="14.00">GenericFamiliesController</text>
<polyline fill="none" stroke="black" points="-85.0347,-101 81.0347,-101 "/>
<text text-anchor="start" x="-77.0347" y="-85.8" font-family="Times,serif" font-size="14.00">assign</text>
<text text-anchor="start" x="-77.0347" y="-71.8" font-family="Times,serif" font-size="14.00">assigned_families</text>
<text text-anchor="start" x="-77.0347" y="-57.8" font-family="Times,serif" font-size="14.00">build_spares</text>
<text text-anchor="start" x="-77.0347" y="-43.8" font-family="Times,serif" font-size="14.00">create</text>
<text text-anchor="start" x="-77.0347" y="-29.8" font-family="Times,serif" font-size="14.00">destroy</text>
<text text-anchor="start" x="-77.0347" y="-15.8" font-family="Times,serif" font-size="14.00">edit</text>
<text text-anchor="start" x="-77.0347" y="-1.8" font-family="Times,serif" font-size="14.00">index</text>
<text text-anchor="start" x="-77.0347" y="12.2" font-family="Times,serif" font-size="14.00">new</text>
<text text-anchor="start" x="-77.0347" y="26.2" font-family="Times,serif" font-size="14.00">not_assigned_families</text>
<text text-anchor="start" x="-77.0347" y="40.2" font-family="Times,serif" font-size="14.00">show</text>
<text text-anchor="start" x="-77.0347" y="54.2" font-family="Times,serif" font-size="14.00">update</text>
<polyline fill="none" stroke="black" points="-85.0347,61 81.0347,61 "/>
<polyline fill="none" stroke="black" points="-85.0347,85 81.0347,85 "/>
<text text-anchor="start" x="-77.0347" y="100.2" font-family="Times,serif" font-size="14.00">_layout</text>
<text text-anchor="start" x="-77.0347" y="114.2" font-family="Times,serif" font-size="14.00">required_params</text>
<text text-anchor="start" x="-77.0347" y="128.2" font-family="Times,serif" font-size="14.00">set_family</text>
</g>
<!-- GenericSparesController -->
<g id="node9" class="node"><title>GenericSparesController</title>
<path fill="none" stroke="black" d="M131.414,118C131.414,118 262.586,118 262.586,118 268.586,118 274.586,112 274.586,106 274.586,106 274.586,-100 274.586,-100 274.586,-106 268.586,-112 262.586,-112 262.586,-112 131.414,-112 131.414,-112 125.414,-112 119.414,-106 119.414,-100 119.414,-100 119.414,106 119.414,106 119.414,112 125.414,118 131.414,118"/>
<text text-anchor="middle" x="197" y="-96.8" font-family="Times,serif" font-size="14.00">GenericSparesController</text>
<polyline fill="none" stroke="black" points="119.414,-90 274.586,-90 "/>
<text text-anchor="start" x="127.414" y="-74.8" font-family="Times,serif" font-size="14.00">create</text>
<text text-anchor="start" x="127.414" y="-60.8" font-family="Times,serif" font-size="14.00">destroy</text>
<text text-anchor="start" x="127.414" y="-46.8" font-family="Times,serif" font-size="14.00">edit</text>
<text text-anchor="start" x="127.414" y="-32.8" font-family="Times,serif" font-size="14.00">generic_spare_params</text>
<text text-anchor="start" x="127.414" y="-18.8" font-family="Times,serif" font-size="14.00">index</text>
<text text-anchor="start" x="127.414" y="-4.8" font-family="Times,serif" font-size="14.00">new</text>
<text text-anchor="start" x="127.414" y="9.2" font-family="Times,serif" font-size="14.00">newTemplate</text>
<text text-anchor="start" x="127.414" y="23.2" font-family="Times,serif" font-size="14.00">set_generic_spare</text>
<text text-anchor="start" x="127.414" y="37.2" font-family="Times,serif" font-size="14.00">show</text>
<text text-anchor="start" x="127.414" y="51.2" font-family="Times,serif" font-size="14.00">template</text>
<text text-anchor="start" x="127.414" y="65.2" font-family="Times,serif" font-size="14.00">update</text>
<polyline fill="none" stroke="black" points="119.414,72 274.586,72 "/>
<polyline fill="none" stroke="black" points="119.414,96 274.586,96 "/>
<text text-anchor="start" x="127.414" y="111.2" font-family="Times,serif" font-size="14.00">_layout</text>
</g>
<!-- InvoicesController -->
<g id="node10" class="node"><title>InvoicesController</title>
<path fill="none" stroke="black" d="M385.514,-375C385.514,-375 482.486,-375 482.486,-375 488.486,-375 494.486,-381 494.486,-387 494.486,-387 494.486,-453 494.486,-453 494.486,-459 488.486,-465 482.486,-465 482.486,-465 385.514,-465 385.514,-465 379.514,-465 373.514,-459 373.514,-453 373.514,-453 373.514,-387 373.514,-387 373.514,-381 379.514,-375 385.514,-375"/>
<text text-anchor="middle" x="434" y="-449.8" font-family="Times,serif" font-size="14.00">InvoicesController</text>
<polyline fill="none" stroke="black" points="373.514,-443 494.486,-443 "/>
<text text-anchor="start" x="381.514" y="-427.8" font-family="Times,serif" font-size="14.00">home</text>
<polyline fill="none" stroke="black" points="373.514,-421 494.486,-421 "/>
<polyline fill="none" stroke="black" points="373.514,-397 494.486,-397 "/>
<text text-anchor="start" x="381.514" y="-381.8" font-family="Times,serif" font-size="14.00">_layout</text>
</g>
<!-- ModelAcronymsController -->
<g id="node11" class="node"><title>ModelAcronymsController</title>
<path fill="none" stroke="black" d="M-39.2104,-154C-39.2104,-154 105.21,-154 105.21,-154 111.21,-154 117.21,-160 117.21,-166 117.21,-166 117.21,-344 117.21,-344 117.21,-350 111.21,-356 105.21,-356 105.21,-356 -39.2104,-356 -39.2104,-356 -45.2104,-356 -51.2104,-350 -51.2104,-344 -51.2104,-344 -51.2104,-166 -51.2104,-166 -51.2104,-160 -45.2104,-154 -39.2104,-154"/>
<text text-anchor="middle" x="33" y="-340.8" font-family="Times,serif" font-size="14.00">ModelAcronymsController</text>
<polyline fill="none" stroke="black" points="-51.2104,-334 117.21,-334 "/>
<text text-anchor="start" x="-43.2104" y="-318.8" font-family="Times,serif" font-size="14.00">create</text>
<text text-anchor="start" x="-43.2104" y="-304.8" font-family="Times,serif" font-size="14.00">destroy</text>
<text text-anchor="start" x="-43.2104" y="-290.8" font-family="Times,serif" font-size="14.00">edit</text>
<text text-anchor="start" x="-43.2104" y="-276.8" font-family="Times,serif" font-size="14.00">index</text>
<text text-anchor="start" x="-43.2104" y="-262.8" font-family="Times,serif" font-size="14.00">new</text>
<text text-anchor="start" x="-43.2104" y="-248.8" font-family="Times,serif" font-size="14.00">show</text>
<text text-anchor="start" x="-43.2104" y="-234.8" font-family="Times,serif" font-size="14.00">update</text>
<polyline fill="none" stroke="black" points="-51.2104,-228 117.21,-228 "/>
<polyline fill="none" stroke="black" points="-51.2104,-204 117.21,-204 "/>
<text text-anchor="start" x="-43.2104" y="-188.8" font-family="Times,serif" font-size="14.00">_layout</text>
<text text-anchor="start" x="-43.2104" y="-174.8" font-family="Times,serif" font-size="14.00">model_acronym_params</text>
<text text-anchor="start" x="-43.2104" y="-160.8" font-family="Times,serif" font-size="14.00">set_model_acronym</text>
</g>
<!-- MoldSparesController -->
<g id="node12" class="node"><title>MoldSparesController</title>
<path fill="none" stroke="black" d="M-208.604,-222C-208.604,-222 -91.3965,-222 -91.3965,-222 -85.3965,-222 -79.3965,-228 -79.3965,-234 -79.3965,-234 -79.3965,-412 -79.3965,-412 -79.3965,-418 -85.3965,-424 -91.3965,-424 -91.3965,-424 -208.604,-424 -208.604,-424 -214.604,-424 -220.604,-418 -220.604,-412 -220.604,-412 -220.604,-234 -220.604,-234 -220.604,-228 -214.604,-222 -208.604,-222"/>
<text text-anchor="middle" x="-150" y="-408.8" font-family="Times,serif" font-size="14.00">MoldSparesController</text>
<polyline fill="none" stroke="black" points="-220.604,-402 -79.3965,-402 "/>
<text text-anchor="start" x="-212.604" y="-386.8" font-family="Times,serif" font-size="14.00">create</text>
<text text-anchor="start" x="-212.604" y="-372.8" font-family="Times,serif" font-size="14.00">destroy</text>
<text text-anchor="start" x="-212.604" y="-358.8" font-family="Times,serif" font-size="14.00">edit</text>
<text text-anchor="start" x="-212.604" y="-344.8" font-family="Times,serif" font-size="14.00">index</text>
<text text-anchor="start" x="-212.604" y="-330.8" font-family="Times,serif" font-size="14.00">new</text>
<text text-anchor="start" x="-212.604" y="-316.8" font-family="Times,serif" font-size="14.00">show</text>
<text text-anchor="start" x="-212.604" y="-302.8" font-family="Times,serif" font-size="14.00">update</text>
<polyline fill="none" stroke="black" points="-220.604,-296 -79.3965,-296 "/>
<polyline fill="none" stroke="black" points="-220.604,-272 -79.3965,-272 "/>
<text text-anchor="start" x="-212.604" y="-256.8" font-family="Times,serif" font-size="14.00">_layout</text>
<text text-anchor="start" x="-212.604" y="-242.8" font-family="Times,serif" font-size="14.00">mold_spare_params</text>
<text text-anchor="start" x="-212.604" y="-228.8" font-family="Times,serif" font-size="14.00">set_mold_spare</text>
</g>
<!-- PrevaluationsController -->
<g id="node13" class="node"><title>PrevaluationsController</title>
<path fill="none" stroke="black" d="M-259.876,186C-259.876,186 -134.124,186 -134.124,186 -128.124,186 -122.124,180 -122.124,174 -122.124,174 -122.124,66 -122.124,66 -122.124,60 -128.124,54 -134.124,54 -134.124,54 -259.876,54 -259.876,54 -265.876,54 -271.876,60 -271.876,66 -271.876,66 -271.876,174 -271.876,174 -271.876,180 -265.876,186 -259.876,186"/>
<text text-anchor="middle" x="-197" y="69.2" font-family="Times,serif" font-size="14.00">PrevaluationsController</text>
<polyline fill="none" stroke="black" points="-271.876,76 -122.124,76 "/>
<text text-anchor="start" x="-263.876" y="91.2" font-family="Times,serif" font-size="14.00">create</text>
<text text-anchor="start" x="-263.876" y="105.2" font-family="Times,serif" font-size="14.00">new</text>
<text text-anchor="start" x="-263.876" y="119.2" font-family="Times,serif" font-size="14.00">pre_valuation_params</text>
<text text-anchor="start" x="-263.876" y="133.2" font-family="Times,serif" font-size="14.00">show</text>
<polyline fill="none" stroke="black" points="-271.876,140 -122.124,140 "/>
<polyline fill="none" stroke="black" points="-271.876,164 -122.124,164 "/>
<text text-anchor="start" x="-263.876" y="179.2" font-family="Times,serif" font-size="14.00">_layout</text>
</g>
<!-- ReportsController -->
<g id="node14" class="node"><title>ReportsController</title>
<path fill="none" stroke="black" d="M318.452,118C318.452,118 411.548,118 411.548,118 417.548,118 423.548,112 423.548,106 423.548,106 423.548,-30 423.548,-30 423.548,-36 417.548,-42 411.548,-42 411.548,-42 318.452,-42 318.452,-42 312.452,-42 306.452,-36 306.452,-30 306.452,-30 306.452,106 306.452,106 306.452,112 312.452,118 318.452,118"/>
<text text-anchor="middle" x="365" y="-26.8" font-family="Times,serif" font-size="14.00">ReportsController</text>
<polyline fill="none" stroke="black" points="306.452,-20 423.548,-20 "/>
<text text-anchor="start" x="314.452" y="-4.8" font-family="Times,serif" font-size="14.00">cars</text>
<text text-anchor="start" x="314.452" y="9.2" font-family="Times,serif" font-size="14.00">index</text>
<text text-anchor="start" x="314.452" y="23.2" font-family="Times,serif" font-size="14.00">insurance</text>
<text text-anchor="start" x="314.452" y="37.2" font-family="Times,serif" font-size="14.00">new</text>
<text text-anchor="start" x="314.452" y="51.2" font-family="Times,serif" font-size="14.00">repair</text>
<text text-anchor="start" x="314.452" y="65.2" font-family="Times,serif" font-size="14.00">show</text>
<polyline fill="none" stroke="black" points="306.452,72 423.548,72 "/>
<polyline fill="none" stroke="black" points="306.452,96 423.548,96 "/>
<text text-anchor="start" x="314.452" y="111.2" font-family="Times,serif" font-size="14.00">_layout</text>
</g>
<!-- RosterController -->
<g id="node15" class="node"><title>RosterController</title>
<path fill="none" stroke="black" d="M335.031,-69C335.031,-69 452.969,-69 452.969,-69 458.969,-69 464.969,-75 464.969,-81 464.969,-81 464.969,-175 464.969,-175 464.969,-181 458.969,-187 452.969,-187 452.969,-187 335.031,-187 335.031,-187 329.031,-187 323.031,-181 323.031,-175 323.031,-175 323.031,-81 323.031,-81 323.031,-75 329.031,-69 335.031,-69"/>
<text text-anchor="middle" x="394" y="-171.8" font-family="Times,serif" font-size="14.00">RosterController</text>
<polyline fill="none" stroke="black" points="323.031,-165 464.969,-165 "/>
<text text-anchor="start" x="331.031" y="-149.8" font-family="Times,serif" font-size="14.00">attendance</text>
<text text-anchor="start" x="331.031" y="-135.8" font-family="Times,serif" font-size="14.00">employeePerformance</text>
<text text-anchor="start" x="331.031" y="-121.8" font-family="Times,serif" font-size="14.00">index</text>
<polyline fill="none" stroke="black" points="323.031,-115 464.969,-115 "/>
<polyline fill="none" stroke="black" points="323.031,-91 464.969,-91 "/>
<text text-anchor="start" x="331.031" y="-75.8" font-family="Times,serif" font-size="14.00">_layout</text>
</g>
<!-- SessionsController -->
<g id="node16" class="node"><title>SessionsController</title>
<path fill="none" stroke="black" d="M335.11,-222C335.11,-222 432.89,-222 432.89,-222 438.89,-222 444.89,-228 444.89,-234 444.89,-234 444.89,-328 444.89,-328 444.89,-334 438.89,-340 432.89,-340 432.89,-340 335.11,-340 335.11,-340 329.11,-340 323.11,-334 323.11,-328 323.11,-328 323.11,-234 323.11,-234 323.11,-228 329.11,-222 335.11,-222"/>
<text text-anchor="middle" x="384" y="-324.8" font-family="Times,serif" font-size="14.00">SessionsController</text>
<polyline fill="none" stroke="black" points="323.11,-318 444.89,-318 "/>
<text text-anchor="start" x="331.11" y="-302.8" font-family="Times,serif" font-size="14.00">create</text>
<text text-anchor="start" x="331.11" y="-288.8" font-family="Times,serif" font-size="14.00">destroy</text>
<text text-anchor="start" x="331.11" y="-274.8" font-family="Times,serif" font-size="14.00">new</text>
<polyline fill="none" stroke="black" points="323.11,-268 444.89,-268 "/>
<polyline fill="none" stroke="black" points="323.11,-244 444.89,-244 "/>
<text text-anchor="start" x="331.11" y="-228.8" font-family="Times,serif" font-size="14.00">_layout</text>
</g>
<!-- SparesController -->
<g id="node17" class="node"><title>SparesController</title>
<path fill="none" stroke="black" d="M-345.435,-358C-345.435,-358 -258.565,-358 -258.565,-358 -252.565,-358 -246.565,-364 -246.565,-370 -246.565,-370 -246.565,-464 -246.565,-464 -246.565,-470 -252.565,-476 -258.565,-476 -258.565,-476 -345.435,-476 -345.435,-476 -351.435,-476 -357.435,-470 -357.435,-464 -357.435,-464 -357.435,-370 -357.435,-370 -357.435,-364 -351.435,-358 -345.435,-358"/>
<text text-anchor="middle" x="-302" y="-460.8" font-family="Times,serif" font-size="14.00">SparesController</text>
<polyline fill="none" stroke="black" points="-357.435,-454 -246.565,-454 "/>
<text text-anchor="start" x="-349.435" y="-438.8" font-family="Times,serif" font-size="14.00">edit</text>
<text text-anchor="start" x="-349.435" y="-424.8" font-family="Times,serif" font-size="14.00">index</text>
<text text-anchor="start" x="-349.435" y="-410.8" font-family="Times,serif" font-size="14.00">new</text>
<polyline fill="none" stroke="black" points="-357.435,-404 -246.565,-404 "/>
<polyline fill="none" stroke="black" points="-357.435,-380 -246.565,-380 "/>
<text text-anchor="start" x="-349.435" y="-364.8" font-family="Times,serif" font-size="14.00">_layout</text>
</g>
<!-- UsersController -->
<g id="node18" class="node"><title>UsersController</title>
<path fill="none" stroke="black" d="M369.286,356C369.286,356 450.714,356 450.714,356 456.714,356 462.714,350 462.714,344 462.714,344 462.714,236 462.714,236 462.714,230 456.714,224 450.714,224 450.714,224 369.286,224 369.286,224 363.286,224 357.286,230 357.286,236 357.286,236 357.286,344 357.286,344 357.286,350 363.286,356 369.286,356"/>
<text text-anchor="middle" x="410" y="239.2" font-family="Times,serif" font-size="14.00">UsersController</text>
<polyline fill="none" stroke="black" points="357.286,246 462.714,246 "/>
<text text-anchor="start" x="365.286" y="261.2" font-family="Times,serif" font-size="14.00">create</text>
<text text-anchor="start" x="365.286" y="275.2" font-family="Times,serif" font-size="14.00">new</text>
<text text-anchor="start" x="365.286" y="289.2" font-family="Times,serif" font-size="14.00">show</text>
<polyline fill="none" stroke="black" points="357.286,296 462.714,296 "/>
<polyline fill="none" stroke="black" points="357.286,320 462.714,320 "/>
<text text-anchor="start" x="365.286" y="335.2" font-family="Times,serif" font-size="14.00">_layout</text>
<text text-anchor="start" x="365.286" y="349.2" font-family="Times,serif" font-size="14.00">user_params</text>
</g>
<!-- ValuationsController -->
<g id="node19" class="node"><title>ValuationsController</title>
<path fill="none" stroke="black" d="M113.676,373C113.676,373 222.324,373 222.324,373 228.324,373 234.324,367 234.324,361 234.324,361 234.324,267 234.324,267 234.324,261 228.324,255 222.324,255 222.324,255 113.676,255 113.676,255 107.676,255 101.676,261 101.676,267 101.676,267 101.676,361 101.676,361 101.676,367 107.676,373 113.676,373"/>
<text text-anchor="middle" x="168" y="270.2" font-family="Times,serif" font-size="14.00">ValuationsController</text>
<polyline fill="none" stroke="black" points="101.676,277 234.324,277 "/>
<text text-anchor="start" x="109.676" y="292.2" font-family="Times,serif" font-size="14.00">index</text>
<text text-anchor="start" x="109.676" y="306.2" font-family="Times,serif" font-size="14.00">new</text>
<text text-anchor="start" x="109.676" y="320.2" font-family="Times,serif" font-size="14.00">show</text>
<polyline fill="none" stroke="black" points="101.676,327 234.324,327 "/>
<polyline fill="none" stroke="black" points="101.676,351 234.324,351 "/>
<text text-anchor="start" x="109.676" y="366.2" font-family="Times,serif" font-size="14.00">_layout</text>
</g>
<!-- WelcomeController -->
<g id="node20" class="node"><title>WelcomeController</title>
<path fill="none" stroke="black" d="M11.9673,-392C11.9673,-392 114.033,-392 114.033,-392 120.033,-392 126.033,-398 126.033,-404 126.033,-404 126.033,-470 126.033,-470 126.033,-476 120.033,-482 114.033,-482 114.033,-482 11.9673,-482 11.9673,-482 5.96729,-482 -0.0327148,-476 -0.0327148,-470 -0.0327148,-470 -0.0327148,-404 -0.0327148,-404 -0.0327148,-398 5.96729,-392 11.9673,-392"/>
<text text-anchor="middle" x="63" y="-466.8" font-family="Times,serif" font-size="14.00">WelcomeController</text>
<polyline fill="none" stroke="black" points="-0.0327148,-460 126.033,-460 "/>
<text text-anchor="start" x="7.96729" y="-444.8" font-family="Times,serif" font-size="14.00">index</text>
<polyline fill="none" stroke="black" points="-0.0327148,-438 126.033,-438 "/>
<polyline fill="none" stroke="black" points="-0.0327148,-414 126.033,-414 "/>
<text text-anchor="start" x="7.96729" y="-398.8" font-family="Times,serif" font-size="14.00">_layout</text>
</g>
</g>
</svg>
