<?xml version="1.0" encoding="UTF-8" standalone="no"?>
<!DOCTYPE svg PUBLIC "-//W3C//DTD SVG 1.1//EN"
 "http://www.w3.org/Graphics/SVG/1.1/DTD/svg11.dtd">
<!-- Generated by graphviz version 2.38.0 (20140413.2041)
 -->
<!-- Title: controllers_diagram Pages: 1 -->
<svg width="1142pt" height="1129pt"
 viewBox="0.00 0.00 1142.00 1129.00" xmlns="http://www.w3.org/2000/svg" xmlns:xlink="http://www.w3.org/1999/xlink">
<g id="graph0" class="graph" transform="scale(1 1) rotate(0) translate(489.969 603.5)">
<title>controllers_diagram</title>
<polygon fill="white" stroke="none" points="-489.969,525.5 -489.969,-603.5 652.033,-603.5 652.033,525.5 -489.969,525.5"/>
<!-- _diagram_info -->
<g id="node1" class="node"><title>_diagram_info</title>
<text text-anchor="start" x="296.312" y="372.9" font-family="Times,serif" font-size="13.00">Controllers diagram</text>
<text text-anchor="start" x="296.312" y="385.9" font-family="Times,serif" font-size="13.00">Date: Jun 19 2015 &#45; 13:33</text>
<text text-anchor="start" x="296.312" y="398.9" font-family="Times,serif" font-size="13.00">Migration version: 20150603212943</text>
<text text-anchor="start" x="296.312" y="411.9" font-family="Times,serif" font-size="13.00">Generated by RailRoady 1.3.0</text>
<text text-anchor="start" x="296.312" y="424.9" font-family="Times,serif" font-size="13.00">http://railroady.prestonlee.com</text>
</g>
<!-- AdminController -->
<g id="node2" class="node"><title>AdminController</title>
<path fill="none" stroke="black" d="M-240.217,503C-240.217,503 -151.783,503 -151.783,503 -145.783,503 -139.783,497 -139.783,491 -139.783,491 -139.783,425 -139.783,425 -139.783,419 -145.783,413 -151.783,413 -151.783,413 -240.217,413 -240.217,413 -246.217,413 -252.217,419 -252.217,425 -252.217,425 -252.217,491 -252.217,491 -252.217,497 -246.217,503 -240.217,503"/>
<text text-anchor="middle" x="-196" y="428.2" font-family="Times,serif" font-size="14.00">AdminController</text>
<polyline fill="none" stroke="black" points="-252.217,435 -139.783,435 "/>
<text text-anchor="start" x="-244.217" y="450.2" font-family="Times,serif" font-size="14.00">home</text>
<polyline fill="none" stroke="black" points="-252.217,457 -139.783,457 "/>
<polyline fill="none" stroke="black" points="-252.217,481 -139.783,481 "/>
<text text-anchor="start" x="-244.217" y="496.2" font-family="Times,serif" font-size="14.00">_layout</text>
</g>
<!-- ApplicationController -->
<g id="node3" class="node"><title>ApplicationController</title>
<path fill="none" stroke="black" d="M30.1792,485C30.1792,485 145.821,485 145.821,485 151.821,485 157.821,479 157.821,473 157.821,473 157.821,405 157.821,405 157.821,399 151.821,393 145.821,393 145.821,393 30.1792,393 30.1792,393 24.1792,393 18.1792,399 18.1792,405 18.1792,405 18.1792,473 18.1792,473 18.1792,479 24.1792,485 30.1792,485"/>
<text text-anchor="middle" x="88" y="408.2" font-family="Times,serif" font-size="14.00">ApplicationController</text>
<polyline fill="none" stroke="black" points="18.1792,415 157.821,415 "/>
<polyline fill="none" stroke="black" points="18.1792,439 157.821,439 "/>
<polyline fill="none" stroke="black" points="18.1792,463 157.821,463 "/>
<text text-anchor="start" x="26.1792" y="478.2" font-family="Times,serif" font-size="14.00">_layout</text>
</g>
<!-- BranchesController -->
<g id="node4" class="node"><title>BranchesController</title>
<path fill="none" stroke="black" d="M516.183,161C516.183,161 617.817,161 617.817,161 623.817,161 629.817,155 629.817,149 629.817,149 629.817,81 629.817,81 629.817,75 623.817,69 617.817,69 617.817,69 516.183,69 516.183,69 510.183,69 504.183,75 504.183,81 504.183,81 504.183,149 504.183,149 504.183,155 510.183,161 516.183,161"/>
<text text-anchor="middle" x="567" y="84.2" font-family="Times,serif" font-size="14.00">BranchesController</text>
<polyline fill="none" stroke="black" points="504.183,91 629.817,91 "/>
<polyline fill="none" stroke="black" points="504.183,115 629.817,115 "/>
<polyline fill="none" stroke="black" points="504.183,139 629.817,139 "/>
<text text-anchor="start" x="512.183" y="154.2" font-family="Times,serif" font-size="14.00">_layout</text>
</g>
<!-- BrandsController -->
<g id="node5" class="node"><title>BrandsController</title>
<path fill="none" stroke="black" d="M-113.604,377C-113.604,377 -24.3965,377 -24.3965,377 -18.3965,377 -12.3965,371 -12.3965,365 -12.3965,365 -12.3965,187 -12.3965,187 -12.3965,181 -18.3965,175 -24.3965,175 -24.3965,175 -113.604,175 -113.604,175 -119.604,175 -125.604,181 -125.604,187 -125.604,187 -125.604,365 -125.604,365 -125.604,371 -119.604,377 -113.604,377"/>
<text text-anchor="middle" x="-69" y="190.2" font-family="Times,serif" font-size="14.00">BrandsController</text>
<polyline fill="none" stroke="black" points="-125.604,197 -12.3965,197 "/>
<text text-anchor="start" x="-117.604" y="212.2" font-family="Times,serif" font-size="14.00">create</text>
<text text-anchor="start" x="-117.604" y="226.2" font-family="Times,serif" font-size="14.00">destroy</text>
<text text-anchor="start" x="-117.604" y="240.2" font-family="Times,serif" font-size="14.00">edit</text>
<text text-anchor="start" x="-117.604" y="254.2" font-family="Times,serif" font-size="14.00">index</text>
<text text-anchor="start" x="-117.604" y="268.2" font-family="Times,serif" font-size="14.00">new</text>
<text text-anchor="start" x="-117.604" y="282.2" font-family="Times,serif" font-size="14.00">show</text>
<text text-anchor="start" x="-117.604" y="296.2" font-family="Times,serif" font-size="14.00">update</text>
<polyline fill="none" stroke="black" points="-125.604,303 -12.3965,303 "/>
<polyline fill="none" stroke="black" points="-125.604,327 -12.3965,327 "/>
<text text-anchor="start" x="-117.604" y="342.2" font-family="Times,serif" font-size="14.00">_layout</text>
<text text-anchor="start" x="-117.604" y="356.2" font-family="Times,serif" font-size="14.00">brand_params</text>
<text text-anchor="start" x="-117.604" y="370.2" font-family="Times,serif" font-size="14.00">set_brand</text>
</g>
<!-- ClientActionsController -->
<g id="node6" class="node"><title>ClientActionsController</title>
<path fill="none" stroke="black" d="M48.3413,-433C48.3413,-433 175.659,-433 175.659,-433 181.659,-433 187.659,-439 187.659,-445 187.659,-445 187.659,-525 187.659,-525 187.659,-531 181.659,-537 175.659,-537 175.659,-537 48.3413,-537 48.3413,-537 42.3413,-537 36.3413,-531 36.3413,-525 36.3413,-525 36.3413,-445 36.3413,-445 36.3413,-439 42.3413,-433 48.3413,-433"/>
<text text-anchor="middle" x="112" y="-521.8" font-family="Times,serif" font-size="14.00">ClientActionsController</text>
<polyline fill="none" stroke="black" points="36.3413,-515 187.659,-515 "/>
<text text-anchor="start" x="44.3413" y="-499.8" font-family="Times,serif" font-size="14.00">home</text>
<text text-anchor="start" x="44.3413" y="-485.8" font-family="Times,serif" font-size="14.00">show</text>
<polyline fill="none" stroke="black" points="36.3413,-479 187.659,-479 "/>
<polyline fill="none" stroke="black" points="36.3413,-455 187.659,-455 "/>
<text text-anchor="start" x="44.3413" y="-439.8" font-family="Times,serif" font-size="14.00">_layout</text>
</g>
<!-- GenericCarsController -->
<g id="node7" class="node"><title>GenericCarsController</title>
<path fill="none" stroke="black" d="M-41.7554,-145C-41.7554,-145 77.7554,-145 77.7554,-145 83.7554,-145 89.7554,-151 89.7554,-157 89.7554,-157 89.7554,-391 89.7554,-391 89.7554,-397 83.7554,-403 77.7554,-403 77.7554,-403 -41.7554,-403 -41.7554,-403 -47.7554,-403 -53.7554,-397 -53.7554,-391 -53.7554,-391 -53.7554,-157 -53.7554,-157 -53.7554,-151 -47.7554,-145 -41.7554,-145"/>
<text text-anchor="middle" x="18" y="-387.8" font-family="Times,serif" font-size="14.00">GenericCarsController</text>
<polyline fill="none" stroke="black" points="-53.7554,-381 89.7554,-381 "/>
<text text-anchor="start" x="-45.7554" y="-365.8" font-family="Times,serif" font-size="14.00">assignation</text>
<text text-anchor="start" x="-45.7554" y="-351.8" font-family="Times,serif" font-size="14.00">create</text>
<text text-anchor="start" x="-45.7554" y="-337.8" font-family="Times,serif" font-size="14.00">destroy</text>
<text text-anchor="start" x="-45.7554" y="-323.8" font-family="Times,serif" font-size="14.00">edit</text>
<text text-anchor="start" x="-45.7554" y="-309.8" font-family="Times,serif" font-size="14.00">index</text>
<text text-anchor="start" x="-45.7554" y="-295.8" font-family="Times,serif" font-size="14.00">new</text>
<text text-anchor="start" x="-45.7554" y="-281.8" font-family="Times,serif" font-size="14.00">relate_generic_family</text>
<text text-anchor="start" x="-45.7554" y="-267.8" font-family="Times,serif" font-size="14.00">search_by_model</text>
<text text-anchor="start" x="-45.7554" y="-253.8" font-family="Times,serif" font-size="14.00">show</text>
<text text-anchor="start" x="-45.7554" y="-239.8" font-family="Times,serif" font-size="14.00">update</text>
<text text-anchor="start" x="-45.7554" y="-225.8" font-family="Times,serif" font-size="14.00">update_generation</text>
<polyline fill="none" stroke="black" points="-53.7554,-219 89.7554,-219 "/>
<polyline fill="none" stroke="black" points="-53.7554,-195 89.7554,-195 "/>
<text text-anchor="start" x="-45.7554" y="-179.8" font-family="Times,serif" font-size="14.00">_layout</text>
<text text-anchor="start" x="-45.7554" y="-165.8" font-family="Times,serif" font-size="14.00">generic_car_params</text>
<text text-anchor="start" x="-45.7554" y="-151.8" font-family="Times,serif" font-size="14.00">set_generic_car</text>
</g>
<!-- GenericFamiliesController -->
<g id="node8" class="node"><title>GenericFamiliesController</title>
<path fill="none" stroke="black" d="M137.965,125C137.965,125 280.035,125 280.035,125 286.035,125 292.035,119 292.035,113 292.035,113 292.035,-135 292.035,-135 292.035,-141 286.035,-147 280.035,-147 280.035,-147 137.965,-147 137.965,-147 131.965,-147 125.965,-141 125.965,-135 125.965,-135 125.965,113 125.965,113 125.965,119 131.965,125 137.965,125"/>
<text text-anchor="middle" x="209" y="-131.8" font-family="Times,serif" font-size="14.00">GenericFamiliesController</text>
<polyline fill="none" stroke="black" points="125.965,-125 292.035,-125 "/>
<text text-anchor="start" x="133.965" y="-109.8" font-family="Times,serif" font-size="14.00">assign</text>
<text text-anchor="start" x="133.965" y="-95.8" font-family="Times,serif" font-size="14.00">assigned</text>
<text text-anchor="start" x="133.965" y="-81.8" font-family="Times,serif" font-size="14.00">count_spares</text>
<text text-anchor="start" x="133.965" y="-67.8" font-family="Times,serif" font-size="14.00">create</text>
<text text-anchor="start" x="133.965" y="-53.8" font-family="Times,serif" font-size="14.00">destroy</text>
<text text-anchor="start" x="133.965" y="-39.8" font-family="Times,serif" font-size="14.00">duplicate</text>
<text text-anchor="start" x="133.965" y="-25.8" font-family="Times,serif" font-size="14.00">edit</text>
<text text-anchor="start" x="133.965" y="-11.8" font-family="Times,serif" font-size="14.00">index</text>
<text text-anchor="start" x="133.965" y="2.2" font-family="Times,serif" font-size="14.00">new</text>
<text text-anchor="start" x="133.965" y="16.2" font-family="Times,serif" font-size="14.00">not_assigned</text>
<text text-anchor="start" x="133.965" y="30.2" font-family="Times,serif" font-size="14.00">show</text>
<text text-anchor="start" x="133.965" y="44.2" font-family="Times,serif" font-size="14.00">update</text>
<polyline fill="none" stroke="black" points="125.965,51 292.035,51 "/>
<polyline fill="none" stroke="black" points="125.965,75 292.035,75 "/>
<text text-anchor="start" x="133.965" y="90.2" font-family="Times,serif" font-size="14.00">_layout</text>
<text text-anchor="start" x="133.965" y="104.2" font-family="Times,serif" font-size="14.00">required_params</text>
<text text-anchor="start" x="133.965" y="118.2" font-family="Times,serif" font-size="14.00">set_family</text>
</g>
<!-- GenericSparesController -->
<g id="node9" class="node"><title>GenericSparesController</title>
<path fill="none" stroke="black" d="M-239.586,-253C-239.586,-253 -108.414,-253 -108.414,-253 -102.414,-253 -96.4136,-259 -96.4136,-265 -96.4136,-265 -96.4136,-471 -96.4136,-471 -96.4136,-477 -102.414,-483 -108.414,-483 -108.414,-483 -239.586,-483 -239.586,-483 -245.586,-483 -251.586,-477 -251.586,-471 -251.586,-471 -251.586,-265 -251.586,-265 -251.586,-259 -245.586,-253 -239.586,-253"/>
<text text-anchor="middle" x="-174" y="-467.8" font-family="Times,serif" font-size="14.00">GenericSparesController</text>
<polyline fill="none" stroke="black" points="-251.586,-461 -96.4136,-461 "/>
<text text-anchor="start" x="-243.586" y="-445.8" font-family="Times,serif" font-size="14.00">create</text>
<text text-anchor="start" x="-243.586" y="-431.8" font-family="Times,serif" font-size="14.00">destroy</text>
<text text-anchor="start" x="-243.586" y="-417.8" font-family="Times,serif" font-size="14.00">edit</text>
<text text-anchor="start" x="-243.586" y="-403.8" font-family="Times,serif" font-size="14.00">generic_spare_params</text>
<text text-anchor="start" x="-243.586" y="-389.8" font-family="Times,serif" font-size="14.00">index</text>
<text text-anchor="start" x="-243.586" y="-375.8" font-family="Times,serif" font-size="14.00">new</text>
<text text-anchor="start" x="-243.586" y="-361.8" font-family="Times,serif" font-size="14.00">newTemplate</text>
<text text-anchor="start" x="-243.586" y="-347.8" font-family="Times,serif" font-size="14.00">set_generic_spare</text>
<text text-anchor="start" x="-243.586" y="-333.8" font-family="Times,serif" font-size="14.00">show</text>
<text text-anchor="start" x="-243.586" y="-319.8" font-family="Times,serif" font-size="14.00">template</text>
<text text-anchor="start" x="-243.586" y="-305.8" font-family="Times,serif" font-size="14.00">update</text>
<polyline fill="none" stroke="black" points="-251.586,-299 -96.4136,-299 "/>
<polyline fill="none" stroke="black" points="-251.586,-275 -96.4136,-275 "/>
<text text-anchor="start" x="-243.586" y="-259.8" font-family="Times,serif" font-size="14.00">_layout</text>
</g>
<!-- InventoriesController -->
<g id="node10" class="node"><title>InventoriesController</title>
<path fill="none" stroke="black" d="M-114.066,143C-114.066,143 80.0659,143 80.0659,143 86.0659,143 92.0659,137 92.0659,131 92.0659,131 92.0659,-103 92.0659,-103 92.0659,-109 86.0659,-115 80.0659,-115 80.0659,-115 -114.066,-115 -114.066,-115 -120.066,-115 -126.066,-109 -126.066,-103 -126.066,-103 -126.066,131 -126.066,131 -126.066,137 -120.066,143 -114.066,143"/>
<text text-anchor="middle" x="-17" y="-99.8" font-family="Times,serif" font-size="14.00">InventoriesController</text>
<polyline fill="none" stroke="black" points="-126.066,-93 92.0659,-93 "/>
<text text-anchor="start" x="-118.066" y="-77.8" font-family="Times,serif" font-size="14.00">acomodate</text>
<text text-anchor="start" x="-118.066" y="-63.8" font-family="Times,serif" font-size="14.00">add_family_with_spares_to_order</text>
<text text-anchor="start" x="-118.066" y="-49.8" font-family="Times,serif" font-size="14.00">add_new_stock</text>
<text text-anchor="start" x="-118.066" y="-35.8" font-family="Times,serif" font-size="14.00">all</text>
<text text-anchor="start" x="-118.066" y="-21.8" font-family="Times,serif" font-size="14.00">departure</text>
<text text-anchor="start" x="-118.066" y="-7.8" font-family="Times,serif" font-size="14.00">departure_stock_family</text>
<text text-anchor="start" x="-118.066" y="6.2" font-family="Times,serif" font-size="14.00">entrance</text>
<text text-anchor="start" x="-118.066" y="20.2" font-family="Times,serif" font-size="14.00">index</text>
<text text-anchor="start" x="-118.066" y="34.2" font-family="Times,serif" font-size="14.00">orders</text>
<text text-anchor="start" x="-118.066" y="48.2" font-family="Times,serif" font-size="14.00">receive_order</text>
<text text-anchor="start" x="-118.066" y="62.2" font-family="Times,serif" font-size="14.00">save_store_stocks</text>
<text text-anchor="start" x="-118.066" y="76.2" font-family="Times,serif" font-size="14.00">show_generic_car_generic_families</text>
<text text-anchor="start" x="-118.066" y="90.2" font-family="Times,serif" font-size="14.00">store_stocks</text>
<polyline fill="none" stroke="black" points="-126.066,97 92.0659,97 "/>
<polyline fill="none" stroke="black" points="-126.066,121 92.0659,121 "/>
<text text-anchor="start" x="-118.066" y="136.2" font-family="Times,serif" font-size="14.00">_layout</text>
</g>
<!-- InvoicesController -->
<g id="node11" class="node"><title>InvoicesController</title>
<path fill="none" stroke="black" d="M515.514,35C515.514,35 612.486,35 612.486,35 618.486,35 624.486,29 624.486,23 624.486,23 624.486,-43 624.486,-43 624.486,-49 618.486,-55 612.486,-55 612.486,-55 515.514,-55 515.514,-55 509.514,-55 503.514,-49 503.514,-43 503.514,-43 503.514,23 503.514,23 503.514,29 509.514,35 515.514,35"/>
<text text-anchor="middle" x="564" y="-39.8" font-family="Times,serif" font-size="14.00">InvoicesController</text>
<polyline fill="none" stroke="black" points="503.514,-33 624.486,-33 "/>
<text text-anchor="start" x="511.514" y="-17.8" font-family="Times,serif" font-size="14.00">home</text>
<polyline fill="none" stroke="black" points="503.514,-11 624.486,-11 "/>
<polyline fill="none" stroke="black" points="503.514,13 624.486,13 "/>
<text text-anchor="start" x="511.514" y="28.2" font-family="Times,serif" font-size="14.00">_layout</text>
</g>
<!-- ModelAcronymsController -->
<g id="node12" class="node"><title>ModelAcronymsController</title>
<path fill="none" stroke="black" d="M191.79,-181C191.79,-181 336.21,-181 336.21,-181 342.21,-181 348.21,-187 348.21,-193 348.21,-193 348.21,-371 348.21,-371 348.21,-377 342.21,-383 336.21,-383 336.21,-383 191.79,-383 191.79,-383 185.79,-383 179.79,-377 179.79,-371 179.79,-371 179.79,-193 179.79,-193 179.79,-187 185.79,-181 191.79,-181"/>
<text text-anchor="middle" x="264" y="-367.8" font-family="Times,serif" font-size="14.00">ModelAcronymsController</text>
<polyline fill="none" stroke="black" points="179.79,-361 348.21,-361 "/>
<text text-anchor="start" x="187.79" y="-345.8" font-family="Times,serif" font-size="14.00">create</text>
<text text-anchor="start" x="187.79" y="-331.8" font-family="Times,serif" font-size="14.00">destroy</text>
<text text-anchor="start" x="187.79" y="-317.8" font-family="Times,serif" font-size="14.00">edit</text>
<text text-anchor="start" x="187.79" y="-303.8" font-family="Times,serif" font-size="14.00">index</text>
<text text-anchor="start" x="187.79" y="-289.8" font-family="Times,serif" font-size="14.00">new</text>
<text text-anchor="start" x="187.79" y="-275.8" font-family="Times,serif" font-size="14.00">show</text>
<text text-anchor="start" x="187.79" y="-261.8" font-family="Times,serif" font-size="14.00">update</text>
<polyline fill="none" stroke="black" points="179.79,-255 348.21,-255 "/>
<polyline fill="none" stroke="black" points="179.79,-231 348.21,-231 "/>
<text text-anchor="start" x="187.79" y="-215.8" font-family="Times,serif" font-size="14.00">_layout</text>
<text text-anchor="start" x="187.79" y="-201.8" font-family="Times,serif" font-size="14.00">model_acronym_params</text>
<text text-anchor="start" x="187.79" y="-187.8" font-family="Times,serif" font-size="14.00">set_model_acronym</text>
</g>
<!-- MoldSparesController -->
<g id="node13" class="node"><title>MoldSparesController</title>
<path fill="none" stroke="black" d="M336.396,107C336.396,107 453.604,107 453.604,107 459.604,107 465.604,101 465.604,95 465.604,95 465.604,-83 465.604,-83 465.604,-89 459.604,-95 453.604,-95 453.604,-95 336.396,-95 336.396,-95 330.396,-95 324.396,-89 324.396,-83 324.396,-83 324.396,95 324.396,95 324.396,101 330.396,107 336.396,107"/>
<text text-anchor="middle" x="395" y="-79.8" font-family="Times,serif" font-size="14.00">MoldSparesController</text>
<polyline fill="none" stroke="black" points="324.396,-73 465.604,-73 "/>
<text text-anchor="start" x="332.396" y="-57.8" font-family="Times,serif" font-size="14.00">create</text>
<text text-anchor="start" x="332.396" y="-43.8" font-family="Times,serif" font-size="14.00">destroy</text>
<text text-anchor="start" x="332.396" y="-29.8" font-family="Times,serif" font-size="14.00">edit</text>
<text text-anchor="start" x="332.396" y="-15.8" font-family="Times,serif" font-size="14.00">index</text>
<text text-anchor="start" x="332.396" y="-1.8" font-family="Times,serif" font-size="14.00">new</text>
<text text-anchor="start" x="332.396" y="12.2" font-family="Times,serif" font-size="14.00">show</text>
<text text-anchor="start" x="332.396" y="26.2" font-family="Times,serif" font-size="14.00">update</text>
<polyline fill="none" stroke="black" points="324.396,33 465.604,33 "/>
<polyline fill="none" stroke="black" points="324.396,57 465.604,57 "/>
<text text-anchor="start" x="332.396" y="72.2" font-family="Times,serif" font-size="14.00">_layout</text>
<text text-anchor="start" x="332.396" y="86.2" font-family="Times,serif" font-size="14.00">mold_spare_params</text>
<text text-anchor="start" x="332.396" y="100.2" font-family="Times,serif" font-size="14.00">set_mold_spare</text>
</g>
<!-- OrdersController -->
<g id="node14" class="node"><title>OrdersController</title>
<path fill="none" stroke="black" d="M390.179,-127C390.179,-127 477.821,-127 477.821,-127 483.821,-127 489.821,-133 489.821,-139 489.821,-139 489.821,-345 489.821,-345 489.821,-351 483.821,-357 477.821,-357 477.821,-357 390.179,-357 390.179,-357 384.179,-357 378.179,-351 378.179,-345 378.179,-345 378.179,-139 378.179,-139 378.179,-133 384.179,-127 390.179,-127"/>
<text text-anchor="middle" x="434" y="-341.8" font-family="Times,serif" font-size="14.00">OrdersController</text>
<polyline fill="none" stroke="black" points="378.179,-335 489.821,-335 "/>
<text text-anchor="start" x="386.179" y="-319.8" font-family="Times,serif" font-size="14.00">create</text>
<text text-anchor="start" x="386.179" y="-305.8" font-family="Times,serif" font-size="14.00">create2</text>
<text text-anchor="start" x="386.179" y="-291.8" font-family="Times,serif" font-size="14.00">destroy</text>
<text text-anchor="start" x="386.179" y="-277.8" font-family="Times,serif" font-size="14.00">edit</text>
<text text-anchor="start" x="386.179" y="-263.8" font-family="Times,serif" font-size="14.00">index</text>
<text text-anchor="start" x="386.179" y="-249.8" font-family="Times,serif" font-size="14.00">labels</text>
<text text-anchor="start" x="386.179" y="-235.8" font-family="Times,serif" font-size="14.00">new</text>
<text text-anchor="start" x="386.179" y="-221.8" font-family="Times,serif" font-size="14.00">show</text>
<text text-anchor="start" x="386.179" y="-207.8" font-family="Times,serif" font-size="14.00">update</text>
<polyline fill="none" stroke="black" points="378.179,-201 489.821,-201 "/>
<polyline fill="none" stroke="black" points="378.179,-177 489.821,-177 "/>
<text text-anchor="start" x="386.179" y="-161.8" font-family="Times,serif" font-size="14.00">_layout</text>
<text text-anchor="start" x="386.179" y="-147.8" font-family="Times,serif" font-size="14.00">order_params</text>
<text text-anchor="start" x="386.179" y="-133.8" font-family="Times,serif" font-size="14.00">set_order</text>
</g>
<!-- PrevaluationsController -->
<g id="node15" class="node"><title>PrevaluationsController</title>
<path fill="none" stroke="black" d="M228.124,-415C228.124,-415 353.876,-415 353.876,-415 359.876,-415 365.876,-421 365.876,-427 365.876,-427 365.876,-535 365.876,-535 365.876,-541 359.876,-547 353.876,-547 353.876,-547 228.124,-547 228.124,-547 222.124,-547 216.124,-541 216.124,-535 216.124,-535 216.124,-427 216.124,-427 216.124,-421 222.124,-415 228.124,-415"/>
<text text-anchor="middle" x="291" y="-531.8" font-family="Times,serif" font-size="14.00">PrevaluationsController</text>
<polyline fill="none" stroke="black" points="216.124,-525 365.876,-525 "/>
<text text-anchor="start" x="224.124" y="-509.8" font-family="Times,serif" font-size="14.00">create</text>
<text text-anchor="start" x="224.124" y="-495.8" font-family="Times,serif" font-size="14.00">new</text>
<text text-anchor="start" x="224.124" y="-481.8" font-family="Times,serif" font-size="14.00">pre_valuation_params</text>
<text text-anchor="start" x="224.124" y="-467.8" font-family="Times,serif" font-size="14.00">show</text>
<polyline fill="none" stroke="black" points="216.124,-461 365.876,-461 "/>
<polyline fill="none" stroke="black" points="216.124,-437 365.876,-437 "/>
<text text-anchor="start" x="224.124" y="-421.8" font-family="Times,serif" font-size="14.00">_layout</text>
</g>
<!-- ReportsController -->
<g id="node16" class="node"><title>ReportsController</title>
<path fill="none" stroke="black" d="M-383.548,-397C-383.548,-397 -290.452,-397 -290.452,-397 -284.452,-397 -278.452,-403 -278.452,-409 -278.452,-409 -278.452,-545 -278.452,-545 -278.452,-551 -284.452,-557 -290.452,-557 -290.452,-557 -383.548,-557 -383.548,-557 -389.548,-557 -395.548,-551 -395.548,-545 -395.548,-545 -395.548,-409 -395.548,-409 -395.548,-403 -389.548,-397 -383.548,-397"/>
<text text-anchor="middle" x="-337" y="-541.8" font-family="Times,serif" font-size="14.00">ReportsController</text>
<polyline fill="none" stroke="black" points="-395.548,-535 -278.452,-535 "/>
<text text-anchor="start" x="-387.548" y="-519.8" font-family="Times,serif" font-size="14.00">cars</text>
<text text-anchor="start" x="-387.548" y="-505.8" font-family="Times,serif" font-size="14.00">index</text>
<text text-anchor="start" x="-387.548" y="-491.8" font-family="Times,serif" font-size="14.00">insurance</text>
<text text-anchor="start" x="-387.548" y="-477.8" font-family="Times,serif" font-size="14.00">new</text>
<text text-anchor="start" x="-387.548" y="-463.8" font-family="Times,serif" font-size="14.00">repair</text>
<text text-anchor="start" x="-387.548" y="-449.8" font-family="Times,serif" font-size="14.00">show</text>
<polyline fill="none" stroke="black" points="-395.548,-443 -278.452,-443 "/>
<polyline fill="none" stroke="black" points="-395.548,-419 -278.452,-419 "/>
<text text-anchor="start" x="-387.548" y="-403.8" font-family="Times,serif" font-size="14.00">_layout</text>
</g>
<!-- RosterController -->
<g id="node17" class="node"><title>RosterController</title>
<path fill="none" stroke="black" d="M-473.969,-73C-473.969,-73 -356.031,-73 -356.031,-73 -350.031,-73 -344.031,-79 -344.031,-85 -344.031,-85 -344.031,-179 -344.031,-179 -344.031,-185 -350.031,-191 -356.031,-191 -356.031,-191 -473.969,-191 -473.969,-191 -479.969,-191 -485.969,-185 -485.969,-179 -485.969,-179 -485.969,-85 -485.969,-85 -485.969,-79 -479.969,-73 -473.969,-73"/>
<text text-anchor="middle" x="-415" y="-175.8" font-family="Times,serif" font-size="14.00">RosterController</text>
<polyline fill="none" stroke="black" points="-485.969,-169 -344.031,-169 "/>
<text text-anchor="start" x="-477.969" y="-153.8" font-family="Times,serif" font-size="14.00">attendance</text>
<text text-anchor="start" x="-477.969" y="-139.8" font-family="Times,serif" font-size="14.00">employeePerformance</text>
<text text-anchor="start" x="-477.969" y="-125.8" font-family="Times,serif" font-size="14.00">index</text>
<polyline fill="none" stroke="black" points="-485.969,-119 -344.031,-119 "/>
<polyline fill="none" stroke="black" points="-485.969,-95 -344.031,-95 "/>
<text text-anchor="start" x="-477.969" y="-79.8" font-family="Times,serif" font-size="14.00">_layout</text>
</g>
<!-- SectionsController -->
<g id="node18" class="node"><title>SectionsController</title>
<path fill="none" stroke="black" d="M137.507,359C137.507,359 234.493,359 234.493,359 240.493,359 246.493,353 246.493,347 246.493,347 246.493,169 246.493,169 246.493,163 240.493,157 234.493,157 234.493,157 137.507,157 137.507,157 131.507,157 125.507,163 125.507,169 125.507,169 125.507,347 125.507,347 125.507,353 131.507,359 137.507,359"/>
<text text-anchor="middle" x="186" y="172.2" font-family="Times,serif" font-size="14.00">SectionsController</text>
<polyline fill="none" stroke="black" points="125.507,179 246.493,179 "/>
<text text-anchor="start" x="133.507" y="194.2" font-family="Times,serif" font-size="14.00">create</text>
<text text-anchor="start" x="133.507" y="208.2" font-family="Times,serif" font-size="14.00">destroy</text>
<text text-anchor="start" x="133.507" y="222.2" font-family="Times,serif" font-size="14.00">edit</text>
<text text-anchor="start" x="133.507" y="236.2" font-family="Times,serif" font-size="14.00">index</text>
<text text-anchor="start" x="133.507" y="250.2" font-family="Times,serif" font-size="14.00">new</text>
<text text-anchor="start" x="133.507" y="264.2" font-family="Times,serif" font-size="14.00">show</text>
<text text-anchor="start" x="133.507" y="278.2" font-family="Times,serif" font-size="14.00">update</text>
<polyline fill="none" stroke="black" points="125.507,285 246.493,285 "/>
<polyline fill="none" stroke="black" points="125.507,309 246.493,309 "/>
<text text-anchor="start" x="133.507" y="324.2" font-family="Times,serif" font-size="14.00">_layout</text>
<text text-anchor="start" x="133.507" y="338.2" font-family="Times,serif" font-size="14.00">section_params</text>
<text text-anchor="start" x="133.507" y="352.2" font-family="Times,serif" font-size="14.00">set_section</text>
</g>
<!-- SessionsController -->
<g id="node19" class="node"><title>SessionsController</title>
<path fill="none" stroke="black" d="M-455.89,251C-455.89,251 -358.11,251 -358.11,251 -352.11,251 -346.11,245 -346.11,239 -346.11,239 -346.11,145 -346.11,145 -346.11,139 -352.11,133 -358.11,133 -358.11,133 -455.89,133 -455.89,133 -461.89,133 -467.89,139 -467.89,145 -467.89,145 -467.89,239 -467.89,239 -467.89,245 -461.89,251 -455.89,251"/>
<text text-anchor="middle" x="-407" y="148.2" font-family="Times,serif" font-size="14.00">SessionsController</text>
<polyline fill="none" stroke="black" points="-467.89,155 -346.11,155 "/>
<text text-anchor="start" x="-459.89" y="170.2" font-family="Times,serif" font-size="14.00">create</text>
<text text-anchor="start" x="-459.89" y="184.2" font-family="Times,serif" font-size="14.00">destroy</text>
<text text-anchor="start" x="-459.89" y="198.2" font-family="Times,serif" font-size="14.00">new</text>
<polyline fill="none" stroke="black" points="-467.89,205 -346.11,205 "/>
<polyline fill="none" stroke="black" points="-467.89,229 -346.11,229 "/>
<text text-anchor="start" x="-459.89" y="244.2" font-family="Times,serif" font-size="14.00">_layout</text>
</g>
<!-- SparesController -->
<g id="node20" class="node"><title>SparesController</title>
<path fill="none" stroke="black" d="M515.565,323C515.565,323 602.435,323 602.435,323 608.435,323 614.435,317 614.435,311 614.435,311 614.435,217 614.435,217 614.435,211 608.435,205 602.435,205 602.435,205 515.565,205 515.565,205 509.565,205 503.565,211 503.565,217 503.565,217 503.565,311 503.565,311 503.565,317 509.565,323 515.565,323"/>
<text text-anchor="middle" x="559" y="220.2" font-family="Times,serif" font-size="14.00">SparesController</text>
<polyline fill="none" stroke="black" points="503.565,227 614.435,227 "/>
<text text-anchor="start" x="511.565" y="242.2" font-family="Times,serif" font-size="14.00">edit</text>
<text text-anchor="start" x="511.565" y="256.2" font-family="Times,serif" font-size="14.00">index</text>
<text text-anchor="start" x="511.565" y="270.2" font-family="Times,serif" font-size="14.00">new</text>
<polyline fill="none" stroke="black" points="503.565,277 614.435,277 "/>
<polyline fill="none" stroke="black" points="503.565,301 614.435,301 "/>
<text text-anchor="start" x="511.565" y="316.2" font-family="Times,serif" font-size="14.00">_layout</text>
</g>
<!-- StockFamiliesController -->
<g id="node21" class="node"><title>StockFamiliesController</title>
<path fill="none" stroke="black" d="M336.172,323C336.172,323 465.828,323 465.828,323 471.828,323 477.828,317 477.828,311 477.828,311 477.828,147 477.828,147 477.828,141 471.828,135 465.828,135 465.828,135 336.172,135 336.172,135 330.172,135 324.172,141 324.172,147 324.172,147 324.172,311 324.172,311 324.172,317 330.172,323 336.172,323"/>
<text text-anchor="middle" x="401" y="150.2" font-family="Times,serif" font-size="14.00">StockFamiliesController</text>
<polyline fill="none" stroke="black" points="324.172,157 477.828,157 "/>
<text text-anchor="start" x="332.172" y="172.2" font-family="Times,serif" font-size="14.00">destroy</text>
<text text-anchor="start" x="332.172" y="186.2" font-family="Times,serif" font-size="14.00">edit</text>
<text text-anchor="start" x="332.172" y="200.2" font-family="Times,serif" font-size="14.00">label</text>
<text text-anchor="start" x="332.172" y="214.2" font-family="Times,serif" font-size="14.00">new</text>
<text text-anchor="start" x="332.172" y="228.2" font-family="Times,serif" font-size="14.00">show</text>
<text text-anchor="start" x="332.172" y="242.2" font-family="Times,serif" font-size="14.00">update</text>
<polyline fill="none" stroke="black" points="324.172,249 477.828,249 "/>
<polyline fill="none" stroke="black" points="324.172,273 477.828,273 "/>
<text text-anchor="start" x="332.172" y="288.2" font-family="Times,serif" font-size="14.00">_layout</text>
<text text-anchor="start" x="332.172" y="302.2" font-family="Times,serif" font-size="14.00">set_family</text>
<text text-anchor="start" x="332.172" y="316.2" font-family="Times,serif" font-size="14.00">stock_family_params</text>
</g>
<!-- StockSparesController -->
<g id="node22" class="node"><title>StockSparesController</title>
<path fill="none" stroke="black" d="M-420.379,431C-420.379,431 -301.621,431 -301.621,431 -295.621,431 -289.621,425 -289.621,419 -289.621,419 -289.621,297 -289.621,297 -289.621,291 -295.621,285 -301.621,285 -301.621,285 -420.379,285 -420.379,285 -426.379,285 -432.379,291 -432.379,297 -432.379,297 -432.379,419 -432.379,419 -432.379,425 -426.379,431 -420.379,431"/>
<text text-anchor="middle" x="-361" y="300.2" font-family="Times,serif" font-size="14.00">StockSparesController</text>
<polyline fill="none" stroke="black" points="-432.379,307 -289.621,307 "/>
<text text-anchor="start" x="-424.379" y="322.2" font-family="Times,serif" font-size="14.00">edit</text>
<text text-anchor="start" x="-424.379" y="336.2" font-family="Times,serif" font-size="14.00">show</text>
<text text-anchor="start" x="-424.379" y="350.2" font-family="Times,serif" font-size="14.00">update</text>
<polyline fill="none" stroke="black" points="-432.379,357 -289.621,357 "/>
<polyline fill="none" stroke="black" points="-432.379,381 -289.621,381 "/>
<text text-anchor="start" x="-424.379" y="396.2" font-family="Times,serif" font-size="14.00">_layout</text>
<text text-anchor="start" x="-424.379" y="410.2" font-family="Times,serif" font-size="14.00">set_spare</text>
<text text-anchor="start" x="-424.379" y="424.2" font-family="Times,serif" font-size="14.00">stock_family_params</text>
</g>
<!-- SubsectionsController -->
<g id="node23" class="node"><title>SubsectionsController</title>
<path fill="none" stroke="black" d="M-294.217,251C-294.217,251 -177.783,251 -177.783,251 -171.783,251 -165.783,245 -165.783,239 -165.783,239 -165.783,47 -165.783,47 -165.783,41 -171.783,35 -177.783,35 -177.783,35 -294.217,35 -294.217,35 -300.217,35 -306.217,41 -306.217,47 -306.217,47 -306.217,239 -306.217,239 -306.217,245 -300.217,251 -294.217,251"/>
<text text-anchor="middle" x="-236" y="50.2" font-family="Times,serif" font-size="14.00">SubsectionsController</text>
<polyline fill="none" stroke="black" points="-306.217,57 -165.783,57 "/>
<text text-anchor="start" x="-298.217" y="72.2" font-family="Times,serif" font-size="14.00">create</text>
<text text-anchor="start" x="-298.217" y="86.2" font-family="Times,serif" font-size="14.00">destroy</text>
<text text-anchor="start" x="-298.217" y="100.2" font-family="Times,serif" font-size="14.00">edit</text>
<text text-anchor="start" x="-298.217" y="114.2" font-family="Times,serif" font-size="14.00">index</text>
<text text-anchor="start" x="-298.217" y="128.2" font-family="Times,serif" font-size="14.00">new</text>
<text text-anchor="start" x="-298.217" y="142.2" font-family="Times,serif" font-size="14.00">print_label</text>
<text text-anchor="start" x="-298.217" y="156.2" font-family="Times,serif" font-size="14.00">show</text>
<text text-anchor="start" x="-298.217" y="170.2" font-family="Times,serif" font-size="14.00">update</text>
<polyline fill="none" stroke="black" points="-306.217,177 -165.783,177 "/>
<polyline fill="none" stroke="black" points="-306.217,201 -165.783,201 "/>
<text text-anchor="start" x="-298.217" y="216.2" font-family="Times,serif" font-size="14.00">_layout</text>
<text text-anchor="start" x="-298.217" y="230.2" font-family="Times,serif" font-size="14.00">set_subsection</text>
<text text-anchor="start" x="-298.217" y="244.2" font-family="Times,serif" font-size="14.00">subsection_params</text>
</g>
<!-- SuppliersController -->
<g id="node24" class="node"><title>SuppliersController</title>
<path fill="none" stroke="black" d="M407.783,-397C407.783,-397 510.217,-397 510.217,-397 516.217,-397 522.217,-403 522.217,-409 522.217,-409 522.217,-587 522.217,-587 522.217,-593 516.217,-599 510.217,-599 510.217,-599 407.783,-599 407.783,-599 401.783,-599 395.783,-593 395.783,-587 395.783,-587 395.783,-409 395.783,-409 395.783,-403 401.783,-397 407.783,-397"/>
<text text-anchor="middle" x="459" y="-583.8" font-family="Times,serif" font-size="14.00">SuppliersController</text>
<polyline fill="none" stroke="black" points="395.783,-577 522.217,-577 "/>
<text text-anchor="start" x="403.783" y="-561.8" font-family="Times,serif" font-size="14.00">create</text>
<text text-anchor="start" x="403.783" y="-547.8" font-family="Times,serif" font-size="14.00">destroy</text>
<text text-anchor="start" x="403.783" y="-533.8" font-family="Times,serif" font-size="14.00">edit</text>
<text text-anchor="start" x="403.783" y="-519.8" font-family="Times,serif" font-size="14.00">index</text>
<text text-anchor="start" x="403.783" y="-505.8" font-family="Times,serif" font-size="14.00">new</text>
<text text-anchor="start" x="403.783" y="-491.8" font-family="Times,serif" font-size="14.00">show</text>
<text text-anchor="start" x="403.783" y="-477.8" font-family="Times,serif" font-size="14.00">update</text>
<polyline fill="none" stroke="black" points="395.783,-471 522.217,-471 "/>
<polyline fill="none" stroke="black" points="395.783,-447 522.217,-447 "/>
<text text-anchor="start" x="403.783" y="-431.8" font-family="Times,serif" font-size="14.00">_layout</text>
<text text-anchor="start" x="403.783" y="-417.8" font-family="Times,serif" font-size="14.00">set_supplier</text>
<text text-anchor="start" x="403.783" y="-403.8" font-family="Times,serif" font-size="14.00">supplier_params</text>
</g>
<!-- UsersController -->
<g id="node25" class="node"><title>UsersController</title>
<path fill="none" stroke="black" d="M-437.714,89C-437.714,89 -356.286,89 -356.286,89 -350.286,89 -344.286,83 -344.286,77 -344.286,77 -344.286,-31 -344.286,-31 -344.286,-37 -350.286,-43 -356.286,-43 -356.286,-43 -437.714,-43 -437.714,-43 -443.714,-43 -449.714,-37 -449.714,-31 -449.714,-31 -449.714,77 -449.714,77 -449.714,83 -443.714,89 -437.714,89"/>
<text text-anchor="middle" x="-397" y="-27.8" font-family="Times,serif" font-size="14.00">UsersController</text>
<polyline fill="none" stroke="black" points="-449.714,-21 -344.286,-21 "/>
<text text-anchor="start" x="-441.714" y="-5.8" font-family="Times,serif" font-size="14.00">create</text>
<text text-anchor="start" x="-441.714" y="8.2" font-family="Times,serif" font-size="14.00">new</text>
<text text-anchor="start" x="-441.714" y="22.2" font-family="Times,serif" font-size="14.00">show</text>
<polyline fill="none" stroke="black" points="-449.714,29 -344.286,29 "/>
<polyline fill="none" stroke="black" points="-449.714,53 -344.286,53 "/>
<text text-anchor="start" x="-441.714" y="68.2" font-family="Times,serif" font-size="14.00">_layout</text>
<text text-anchor="start" x="-441.714" y="82.2" font-family="Times,serif" font-size="14.00">user_params</text>
</g>
<!-- ValuationsController -->
<g id="node26" class="node"><title>ValuationsController</title>
<path fill="none" stroke="black" d="M-402.324,-235C-402.324,-235 -293.676,-235 -293.676,-235 -287.676,-235 -281.676,-241 -281.676,-247 -281.676,-247 -281.676,-341 -281.676,-341 -281.676,-347 -287.676,-353 -293.676,-353 -293.676,-353 -402.324,-353 -402.324,-353 -408.324,-353 -414.324,-347 -414.324,-341 -414.324,-341 -414.324,-247 -414.324,-247 -414.324,-241 -408.324,-235 -402.324,-235"/>
<text text-anchor="middle" x="-348" y="-337.8" font-family="Times,serif" font-size="14.00">ValuationsController</text>
<polyline fill="none" stroke="black" points="-414.324,-331 -281.676,-331 "/>
<text text-anchor="start" x="-406.324" y="-315.8" font-family="Times,serif" font-size="14.00">index</text>
<text text-anchor="start" x="-406.324" y="-301.8" font-family="Times,serif" font-size="14.00">new</text>
<text text-anchor="start" x="-406.324" y="-287.8" font-family="Times,serif" font-size="14.00">show</text>
<polyline fill="none" stroke="black" points="-414.324,-281 -281.676,-281 "/>
<polyline fill="none" stroke="black" points="-414.324,-257 -281.676,-257 "/>
<text text-anchor="start" x="-406.324" y="-241.8" font-family="Times,serif" font-size="14.00">_layout</text>
</g>
<!-- WarehousesController -->
<g id="node27" class="node"><title>WarehousesController</title>
<path fill="none" stroke="black" d="M-294.422,-1C-294.422,-1 -177.578,-1 -177.578,-1 -171.578,-1 -165.578,-7 -165.578,-13 -165.578,-13 -165.578,-191 -165.578,-191 -165.578,-197 -171.578,-203 -177.578,-203 -177.578,-203 -294.422,-203 -294.422,-203 -300.422,-203 -306.422,-197 -306.422,-191 -306.422,-191 -306.422,-13 -306.422,-13 -306.422,-7 -300.422,-1 -294.422,-1"/>
<text text-anchor="middle" x="-236" y="-187.8" font-family="Times,serif" font-size="14.00">WarehousesController</text>
<polyline fill="none" stroke="black" points="-306.422,-181 -165.578,-181 "/>
<text text-anchor="start" x="-298.422" y="-165.8" font-family="Times,serif" font-size="14.00">create</text>
<text text-anchor="start" x="-298.422" y="-151.8" font-family="Times,serif" font-size="14.00">destroy</text>
<text text-anchor="start" x="-298.422" y="-137.8" font-family="Times,serif" font-size="14.00">edit</text>
<text text-anchor="start" x="-298.422" y="-123.8" font-family="Times,serif" font-size="14.00">index</text>
<text text-anchor="start" x="-298.422" y="-109.8" font-family="Times,serif" font-size="14.00">new</text>
<text text-anchor="start" x="-298.422" y="-95.8" font-family="Times,serif" font-size="14.00">show</text>
<text text-anchor="start" x="-298.422" y="-81.8" font-family="Times,serif" font-size="14.00">update</text>
<polyline fill="none" stroke="black" points="-306.422,-75 -165.578,-75 "/>
<polyline fill="none" stroke="black" points="-306.422,-51 -165.578,-51 "/>
<text text-anchor="start" x="-298.422" y="-35.8" font-family="Times,serif" font-size="14.00">_layout</text>
<text text-anchor="start" x="-298.422" y="-21.8" font-family="Times,serif" font-size="14.00">set_warehouse</text>
<text text-anchor="start" x="-298.422" y="-7.8" font-family="Times,serif" font-size="14.00">warehouse_params</text>
</g>
<!-- WelcomeController -->
<g id="node28" class="node"><title>WelcomeController</title>
<path fill="none" stroke="black" d="M533.967,521C533.967,521 636.033,521 636.033,521 642.033,521 648.033,515 648.033,509 648.033,509 648.033,443 648.033,443 648.033,437 642.033,431 636.033,431 636.033,431 533.967,431 533.967,431 527.967,431 521.967,437 521.967,443 521.967,443 521.967,509 521.967,509 521.967,515 527.967,521 533.967,521"/>
<text text-anchor="middle" x="585" y="446.2" font-family="Times,serif" font-size="14.00">WelcomeController</text>
<polyline fill="none" stroke="black" points="521.967,453 648.033,453 "/>
<text text-anchor="start" x="529.967" y="468.2" font-family="Times,serif" font-size="14.00">index</text>
<polyline fill="none" stroke="black" points="521.967,475 648.033,475 "/>
<polyline fill="none" stroke="black" points="521.967,499 648.033,499 "/>
<text text-anchor="start" x="529.967" y="514.2" font-family="Times,serif" font-size="14.00">_layout</text>
</g>
</g>
</svg>
