<?xml version="1.0" encoding="UTF-8" standalone="no"?>
<!DOCTYPE svg PUBLIC "-//W3C//DTD SVG 1.1//EN"
 "http://www.w3.org/Graphics/SVG/1.1/DTD/svg11.dtd">
<!-- Generated by graphviz version 2.38.0 (20140413.2041)
 -->
<!-- Title: controllers_diagram Pages: 1 -->
<svg width="932pt" height="898pt"
 viewBox="0.00 0.00 932.46 898.00" xmlns="http://www.w3.org/2000/svg" xmlns:xlink="http://www.w3.org/1999/xlink">
<g id="graph0" class="graph" transform="scale(1 1) rotate(0) translate(395.486 486.5)">
<title>controllers_diagram</title>
<polygon fill="white" stroke="none" points="-395.486,411.5 -395.486,-486.5 536.969,-486.5 536.969,411.5 -395.486,411.5"/>
<!-- _diagram_info -->
<g id="node1" class="node"><title>_diagram_info</title>
<text text-anchor="start" x="-229.688" y="178.9" font-family="Times,serif" font-size="13.00">Controllers diagram</text>
<text text-anchor="start" x="-229.688" y="191.9" font-family="Times,serif" font-size="13.00">Date: Mar 17 2015 &#45; 13:39</text>
<text text-anchor="start" x="-229.688" y="204.9" font-family="Times,serif" font-size="13.00">Migration version: 20150316214530</text>
<text text-anchor="start" x="-229.688" y="217.9" font-family="Times,serif" font-size="13.00">Generated by RailRoady 1.3.0</text>
<text text-anchor="start" x="-229.688" y="230.9" font-family="Times,serif" font-size="13.00">http://railroady.prestonlee.com</text>
</g>
<!-- AdminController -->
<g id="node2" class="node"><title>AdminController</title>
<path fill="none" stroke="black" d="M130.783,407C130.783,407 219.217,407 219.217,407 225.217,407 231.217,401 231.217,395 231.217,395 231.217,329 231.217,329 231.217,323 225.217,317 219.217,317 219.217,317 130.783,317 130.783,317 124.783,317 118.783,323 118.783,329 118.783,329 118.783,395 118.783,395 118.783,401 124.783,407 130.783,407"/>
<text text-anchor="middle" x="175" y="332.2" font-family="Times,serif" font-size="14.00">AdminController</text>
<polyline fill="none" stroke="black" points="118.783,339 231.217,339 "/>
<text text-anchor="start" x="126.783" y="354.2" font-family="Times,serif" font-size="14.00">home</text>
<polyline fill="none" stroke="black" points="118.783,361 231.217,361 "/>
<polyline fill="none" stroke="black" points="118.783,385 231.217,385 "/>
<text text-anchor="start" x="126.783" y="400.2" font-family="Times,serif" font-size="14.00">_layout</text>
</g>
<!-- ApplicationController -->
<g id="node3" class="node"><title>ApplicationController</title>
<path fill="none" stroke="black" d="M-344.821,356C-344.821,356 -229.179,356 -229.179,356 -223.179,356 -217.179,350 -217.179,344 -217.179,344 -217.179,276 -217.179,276 -217.179,270 -223.179,264 -229.179,264 -229.179,264 -344.821,264 -344.821,264 -350.821,264 -356.821,270 -356.821,276 -356.821,276 -356.821,344 -356.821,344 -356.821,350 -350.821,356 -344.821,356"/>
<text text-anchor="middle" x="-287" y="279.2" font-family="Times,serif" font-size="14.00">ApplicationController</text>
<polyline fill="none" stroke="black" points="-356.821,286 -217.179,286 "/>
<polyline fill="none" stroke="black" points="-356.821,310 -217.179,310 "/>
<polyline fill="none" stroke="black" points="-356.821,334 -217.179,334 "/>
<text text-anchor="start" x="-348.821" y="349.2" font-family="Times,serif" font-size="14.00">_layout</text>
</g>
<!-- BranchesController -->
<g id="node4" class="node"><title>BranchesController</title>
<path fill="none" stroke="black" d="M-21.8174,356C-21.8174,356 79.8174,356 79.8174,356 85.8174,356 91.8174,350 91.8174,344 91.8174,344 91.8174,276 91.8174,276 91.8174,270 85.8174,264 79.8174,264 79.8174,264 -21.8174,264 -21.8174,264 -27.8174,264 -33.8174,270 -33.8174,276 -33.8174,276 -33.8174,344 -33.8174,344 -33.8174,350 -27.8174,356 -21.8174,356"/>
<text text-anchor="middle" x="29" y="279.2" font-family="Times,serif" font-size="14.00">BranchesController</text>
<polyline fill="none" stroke="black" points="-33.8174,286 91.8174,286 "/>
<polyline fill="none" stroke="black" points="-33.8174,310 91.8174,310 "/>
<polyline fill="none" stroke="black" points="-33.8174,334 91.8174,334 "/>
<text text-anchor="start" x="-25.8174" y="349.2" font-family="Times,serif" font-size="14.00">_layout</text>
</g>
<!-- BrandsController -->
<g id="node5" class="node"><title>BrandsController</title>
<path fill="none" stroke="black" d="M-225.604,-1C-225.604,-1 -136.396,-1 -136.396,-1 -130.396,-1 -124.396,-7 -124.396,-13 -124.396,-13 -124.396,-191 -124.396,-191 -124.396,-197 -130.396,-203 -136.396,-203 -136.396,-203 -225.604,-203 -225.604,-203 -231.604,-203 -237.604,-197 -237.604,-191 -237.604,-191 -237.604,-13 -237.604,-13 -237.604,-7 -231.604,-1 -225.604,-1"/>
<text text-anchor="middle" x="-181" y="-187.8" font-family="Times,serif" font-size="14.00">BrandsController</text>
<polyline fill="none" stroke="black" points="-237.604,-181 -124.396,-181 "/>
<text text-anchor="start" x="-229.604" y="-165.8" font-family="Times,serif" font-size="14.00">create</text>
<text text-anchor="start" x="-229.604" y="-151.8" font-family="Times,serif" font-size="14.00">destroy</text>
<text text-anchor="start" x="-229.604" y="-137.8" font-family="Times,serif" font-size="14.00">edit</text>
<text text-anchor="start" x="-229.604" y="-123.8" font-family="Times,serif" font-size="14.00">index</text>
<text text-anchor="start" x="-229.604" y="-109.8" font-family="Times,serif" font-size="14.00">new</text>
<text text-anchor="start" x="-229.604" y="-95.8" font-family="Times,serif" font-size="14.00">show</text>
<text text-anchor="start" x="-229.604" y="-81.8" font-family="Times,serif" font-size="14.00">update</text>
<polyline fill="none" stroke="black" points="-237.604,-75 -124.396,-75 "/>
<polyline fill="none" stroke="black" points="-237.604,-51 -124.396,-51 "/>
<text text-anchor="start" x="-229.604" y="-35.8" font-family="Times,serif" font-size="14.00">_layout</text>
<text text-anchor="start" x="-229.604" y="-21.8" font-family="Times,serif" font-size="14.00">brand_params</text>
<text text-anchor="start" x="-229.604" y="-7.8" font-family="Times,serif" font-size="14.00">set_brand</text>
</g>
<!-- ClientActionsController -->
<g id="node6" class="node"><title>ClientActionsController</title>
<path fill="none" stroke="black" d="M-259.659,135C-259.659,135 -132.341,135 -132.341,135 -126.341,135 -120.341,129 -120.341,123 -120.341,123 -120.341,43 -120.341,43 -120.341,37 -126.341,31 -132.341,31 -132.341,31 -259.659,31 -259.659,31 -265.659,31 -271.659,37 -271.659,43 -271.659,43 -271.659,123 -271.659,123 -271.659,129 -265.659,135 -259.659,135"/>
<text text-anchor="middle" x="-196" y="46.2" font-family="Times,serif" font-size="14.00">ClientActionsController</text>
<polyline fill="none" stroke="black" points="-271.659,53 -120.341,53 "/>
<text text-anchor="start" x="-263.659" y="68.2" font-family="Times,serif" font-size="14.00">home</text>
<text text-anchor="start" x="-263.659" y="82.2" font-family="Times,serif" font-size="14.00">show</text>
<polyline fill="none" stroke="black" points="-271.659,89 -120.341,89 "/>
<polyline fill="none" stroke="black" points="-271.659,113 -120.341,113 "/>
<text text-anchor="start" x="-263.659" y="128.2" font-family="Times,serif" font-size="14.00">_layout</text>
</g>
<!-- GenericCarsController -->
<g id="node7" class="node"><title>GenericCarsController</title>
<path fill="none" stroke="black" d="M131.245,118C131.245,118 250.755,118 250.755,118 256.755,118 262.755,112 262.755,106 262.755,106 262.755,-142 262.755,-142 262.755,-148 256.755,-154 250.755,-154 250.755,-154 131.245,-154 131.245,-154 125.245,-154 119.245,-148 119.245,-142 119.245,-142 119.245,106 119.245,106 119.245,112 125.245,118 131.245,118"/>
<text text-anchor="middle" x="191" y="-138.8" font-family="Times,serif" font-size="14.00">GenericCarsController</text>
<polyline fill="none" stroke="black" points="119.245,-132 262.755,-132 "/>
<text text-anchor="start" x="127.245" y="-116.8" font-family="Times,serif" font-size="14.00">assignation</text>
<text text-anchor="start" x="127.245" y="-102.8" font-family="Times,serif" font-size="14.00">create</text>
<text text-anchor="start" x="127.245" y="-88.8" font-family="Times,serif" font-size="14.00">destroy</text>
<text text-anchor="start" x="127.245" y="-74.8" font-family="Times,serif" font-size="14.00">edit</text>
<text text-anchor="start" x="127.245" y="-60.8" font-family="Times,serif" font-size="14.00">index</text>
<text text-anchor="start" x="127.245" y="-46.8" font-family="Times,serif" font-size="14.00">new</text>
<text text-anchor="start" x="127.245" y="-32.8" font-family="Times,serif" font-size="14.00">relate_generic_family</text>
<text text-anchor="start" x="127.245" y="-18.8" font-family="Times,serif" font-size="14.00">show</text>
<text text-anchor="start" x="127.245" y="-4.8" font-family="Times,serif" font-size="14.00">show_found_cars</text>
<text text-anchor="start" x="127.245" y="9.2" font-family="Times,serif" font-size="14.00">update</text>
<text text-anchor="start" x="127.245" y="23.2" font-family="Times,serif" font-size="14.00">update_generation</text>
<polyline fill="none" stroke="black" points="119.245,30 262.755,30 "/>
<polyline fill="none" stroke="black" points="119.245,54 262.755,54 "/>
<text text-anchor="start" x="127.245" y="69.2" font-family="Times,serif" font-size="14.00">_layout</text>
<text text-anchor="start" x="127.245" y="83.2" font-family="Times,serif" font-size="14.00">generic_car_params</text>
<text text-anchor="start" x="127.245" y="97.2" font-family="Times,serif" font-size="14.00">search</text>
<text text-anchor="start" x="127.245" y="111.2" font-family="Times,serif" font-size="14.00">set_generic_car</text>
</g>
<!-- GenericFamiliesController -->
<g id="node8" class="node"><title>GenericFamiliesController</title>
<path fill="none" stroke="black" d="M-73.0347,135C-73.0347,135 69.0347,135 69.0347,135 75.0347,135 81.0347,129 81.0347,123 81.0347,123 81.0347,-125 81.0347,-125 81.0347,-131 75.0347,-137 69.0347,-137 69.0347,-137 -73.0347,-137 -73.0347,-137 -79.0347,-137 -85.0347,-131 -85.0347,-125 -85.0347,-125 -85.0347,123 -85.0347,123 -85.0347,129 -79.0347,135 -73.0347,135"/>
<text text-anchor="middle" x="-2" y="-121.8" font-family="Times,serif" font-size="14.00">GenericFamiliesController</text>
<polyline fill="none" stroke="black" points="-85.0347,-115 81.0347,-115 "/>
<text text-anchor="start" x="-77.0347" y="-99.8" font-family="Times,serif" font-size="14.00">assign</text>
<text text-anchor="start" x="-77.0347" y="-85.8" font-family="Times,serif" font-size="14.00">assigned</text>
<text text-anchor="start" x="-77.0347" y="-71.8" font-family="Times,serif" font-size="14.00">count_spares</text>
<text text-anchor="start" x="-77.0347" y="-57.8" font-family="Times,serif" font-size="14.00">create</text>
<text text-anchor="start" x="-77.0347" y="-43.8" font-family="Times,serif" font-size="14.00">destroy</text>
<text text-anchor="start" x="-77.0347" y="-29.8" font-family="Times,serif" font-size="14.00">duplicate</text>
<text text-anchor="start" x="-77.0347" y="-15.8" font-family="Times,serif" font-size="14.00">edit</text>
<text text-anchor="start" x="-77.0347" y="-1.8" font-family="Times,serif" font-size="14.00">index</text>
<text text-anchor="start" x="-77.0347" y="12.2" font-family="Times,serif" font-size="14.00">new</text>
<text text-anchor="start" x="-77.0347" y="26.2" font-family="Times,serif" font-size="14.00">not_assigned</text>
<text text-anchor="start" x="-77.0347" y="40.2" font-family="Times,serif" font-size="14.00">show</text>
<text text-anchor="start" x="-77.0347" y="54.2" font-family="Times,serif" font-size="14.00">update</text>
<polyline fill="none" stroke="black" points="-85.0347,61 81.0347,61 "/>
<polyline fill="none" stroke="black" points="-85.0347,85 81.0347,85 "/>
<text text-anchor="start" x="-77.0347" y="100.2" font-family="Times,serif" font-size="14.00">_layout</text>
<text text-anchor="start" x="-77.0347" y="114.2" font-family="Times,serif" font-size="14.00">required_params</text>
<text text-anchor="start" x="-77.0347" y="128.2" font-family="Times,serif" font-size="14.00">set_family</text>
</g>
<!-- GenericSparesController -->
<g id="node9" class="node"><title>GenericSparesController</title>
<path fill="none" stroke="black" d="M-55.5864,-171C-55.5864,-171 75.5864,-171 75.5864,-171 81.5864,-171 87.5864,-177 87.5864,-183 87.5864,-183 87.5864,-389 87.5864,-389 87.5864,-395 81.5864,-401 75.5864,-401 75.5864,-401 -55.5864,-401 -55.5864,-401 -61.5864,-401 -67.5864,-395 -67.5864,-389 -67.5864,-389 -67.5864,-183 -67.5864,-183 -67.5864,-177 -61.5864,-171 -55.5864,-171"/>
<text text-anchor="middle" x="10" y="-385.8" font-family="Times,serif" font-size="14.00">GenericSparesController</text>
<polyline fill="none" stroke="black" points="-67.5864,-379 87.5864,-379 "/>
<text text-anchor="start" x="-59.5864" y="-363.8" font-family="Times,serif" font-size="14.00">create</text>
<text text-anchor="start" x="-59.5864" y="-349.8" font-family="Times,serif" font-size="14.00">destroy</text>
<text text-anchor="start" x="-59.5864" y="-335.8" font-family="Times,serif" font-size="14.00">edit</text>
<text text-anchor="start" x="-59.5864" y="-321.8" font-family="Times,serif" font-size="14.00">generic_spare_params</text>
<text text-anchor="start" x="-59.5864" y="-307.8" font-family="Times,serif" font-size="14.00">index</text>
<text text-anchor="start" x="-59.5864" y="-293.8" font-family="Times,serif" font-size="14.00">new</text>
<text text-anchor="start" x="-59.5864" y="-279.8" font-family="Times,serif" font-size="14.00">newTemplate</text>
<text text-anchor="start" x="-59.5864" y="-265.8" font-family="Times,serif" font-size="14.00">set_generic_spare</text>
<text text-anchor="start" x="-59.5864" y="-251.8" font-family="Times,serif" font-size="14.00">show</text>
<text text-anchor="start" x="-59.5864" y="-237.8" font-family="Times,serif" font-size="14.00">template</text>
<text text-anchor="start" x="-59.5864" y="-223.8" font-family="Times,serif" font-size="14.00">update</text>
<polyline fill="none" stroke="black" points="-67.5864,-217 87.5864,-217 "/>
<polyline fill="none" stroke="black" points="-67.5864,-193 87.5864,-193 "/>
<text text-anchor="start" x="-59.5864" y="-177.8" font-family="Times,serif" font-size="14.00">_layout</text>
</g>
<!-- InventoriesController -->
<g id="node10" class="node"><title>InventoriesController</title>
<path fill="none" stroke="black" d="M130.934,288C130.934,288 325.066,288 325.066,288 331.066,288 337.066,282 337.066,276 337.066,276 337.066,168 337.066,168 337.066,162 331.066,156 325.066,156 325.066,156 130.934,156 130.934,156 124.934,156 118.934,162 118.934,168 118.934,168 118.934,276 118.934,276 118.934,282 124.934,288 130.934,288"/>
<text text-anchor="middle" x="228" y="171.2" font-family="Times,serif" font-size="14.00">InventoriesController</text>
<polyline fill="none" stroke="black" points="118.934,178 337.066,178 "/>
<text text-anchor="start" x="126.934" y="193.2" font-family="Times,serif" font-size="14.00">departure</text>
<text text-anchor="start" x="126.934" y="207.2" font-family="Times,serif" font-size="14.00">entrance</text>
<text text-anchor="start" x="126.934" y="221.2" font-family="Times,serif" font-size="14.00">index</text>
<text text-anchor="start" x="126.934" y="235.2" font-family="Times,serif" font-size="14.00">show_generic_car_generic_families</text>
<polyline fill="none" stroke="black" points="118.934,242 337.066,242 "/>
<polyline fill="none" stroke="black" points="118.934,266 337.066,266 "/>
<text text-anchor="start" x="126.934" y="281.2" font-family="Times,serif" font-size="14.00">_layout</text>
</g>
<!-- InvoicesController -->
<g id="node11" class="node"><title>InvoicesController</title>
<path fill="none" stroke="black" d="M-379.486,-392C-379.486,-392 -282.514,-392 -282.514,-392 -276.514,-392 -270.514,-398 -270.514,-404 -270.514,-404 -270.514,-470 -270.514,-470 -270.514,-476 -276.514,-482 -282.514,-482 -282.514,-482 -379.486,-482 -379.486,-482 -385.486,-482 -391.486,-476 -391.486,-470 -391.486,-470 -391.486,-404 -391.486,-404 -391.486,-398 -385.486,-392 -379.486,-392"/>
<text text-anchor="middle" x="-331" y="-466.8" font-family="Times,serif" font-size="14.00">InvoicesController</text>
<polyline fill="none" stroke="black" points="-391.486,-460 -270.514,-460 "/>
<text text-anchor="start" x="-383.486" y="-444.8" font-family="Times,serif" font-size="14.00">home</text>
<polyline fill="none" stroke="black" points="-391.486,-438 -270.514,-438 "/>
<polyline fill="none" stroke="black" points="-391.486,-414 -270.514,-414 "/>
<text text-anchor="start" x="-383.486" y="-398.8" font-family="Times,serif" font-size="14.00">_layout</text>
</g>
<!-- ModelAcronymsController -->
<g id="node12" class="node"><title>ModelAcronymsController</title>
<path fill="none" stroke="black" d="M198.79,-188C198.79,-188 343.21,-188 343.21,-188 349.21,-188 355.21,-194 355.21,-200 355.21,-200 355.21,-378 355.21,-378 355.21,-384 349.21,-390 343.21,-390 343.21,-390 198.79,-390 198.79,-390 192.79,-390 186.79,-384 186.79,-378 186.79,-378 186.79,-200 186.79,-200 186.79,-194 192.79,-188 198.79,-188"/>
<text text-anchor="middle" x="271" y="-374.8" font-family="Times,serif" font-size="14.00">ModelAcronymsController</text>
<polyline fill="none" stroke="black" points="186.79,-368 355.21,-368 "/>
<text text-anchor="start" x="194.79" y="-352.8" font-family="Times,serif" font-size="14.00">create</text>
<text text-anchor="start" x="194.79" y="-338.8" font-family="Times,serif" font-size="14.00">destroy</text>
<text text-anchor="start" x="194.79" y="-324.8" font-family="Times,serif" font-size="14.00">edit</text>
<text text-anchor="start" x="194.79" y="-310.8" font-family="Times,serif" font-size="14.00">index</text>
<text text-anchor="start" x="194.79" y="-296.8" font-family="Times,serif" font-size="14.00">new</text>
<text text-anchor="start" x="194.79" y="-282.8" font-family="Times,serif" font-size="14.00">show</text>
<text text-anchor="start" x="194.79" y="-268.8" font-family="Times,serif" font-size="14.00">update</text>
<polyline fill="none" stroke="black" points="186.79,-262 355.21,-262 "/>
<polyline fill="none" stroke="black" points="186.79,-238 355.21,-238 "/>
<text text-anchor="start" x="194.79" y="-222.8" font-family="Times,serif" font-size="14.00">_layout</text>
<text text-anchor="start" x="194.79" y="-208.8" font-family="Times,serif" font-size="14.00">model_acronym_params</text>
<text text-anchor="start" x="194.79" y="-194.8" font-family="Times,serif" font-size="14.00">set_model_acronym</text>
</g>
<!-- MoldSparesController -->
<g id="node13" class="node"><title>MoldSparesController</title>
<path fill="none" stroke="black" d="M-225.604,-239C-225.604,-239 -108.396,-239 -108.396,-239 -102.396,-239 -96.3965,-245 -96.3965,-251 -96.3965,-251 -96.3965,-429 -96.3965,-429 -96.3965,-435 -102.396,-441 -108.396,-441 -108.396,-441 -225.604,-441 -225.604,-441 -231.604,-441 -237.604,-435 -237.604,-429 -237.604,-429 -237.604,-251 -237.604,-251 -237.604,-245 -231.604,-239 -225.604,-239"/>
<text text-anchor="middle" x="-167" y="-425.8" font-family="Times,serif" font-size="14.00">MoldSparesController</text>
<polyline fill="none" stroke="black" points="-237.604,-419 -96.3965,-419 "/>
<text text-anchor="start" x="-229.604" y="-403.8" font-family="Times,serif" font-size="14.00">create</text>
<text text-anchor="start" x="-229.604" y="-389.8" font-family="Times,serif" font-size="14.00">destroy</text>
<text text-anchor="start" x="-229.604" y="-375.8" font-family="Times,serif" font-size="14.00">edit</text>
<text text-anchor="start" x="-229.604" y="-361.8" font-family="Times,serif" font-size="14.00">index</text>
<text text-anchor="start" x="-229.604" y="-347.8" font-family="Times,serif" font-size="14.00">new</text>
<text text-anchor="start" x="-229.604" y="-333.8" font-family="Times,serif" font-size="14.00">show</text>
<text text-anchor="start" x="-229.604" y="-319.8" font-family="Times,serif" font-size="14.00">update</text>
<polyline fill="none" stroke="black" points="-237.604,-313 -96.3965,-313 "/>
<polyline fill="none" stroke="black" points="-237.604,-289 -96.3965,-289 "/>
<text text-anchor="start" x="-229.604" y="-273.8" font-family="Times,serif" font-size="14.00">_layout</text>
<text text-anchor="start" x="-229.604" y="-259.8" font-family="Times,serif" font-size="14.00">mold_spare_params</text>
<text text-anchor="start" x="-229.604" y="-245.8" font-family="Times,serif" font-size="14.00">set_mold_spare</text>
</g>
<!-- PrevaluationsController -->
<g id="node14" class="node"><title>PrevaluationsController</title>
<path fill="none" stroke="black" d="M301.124,118C301.124,118 426.876,118 426.876,118 432.876,118 438.876,112 438.876,106 438.876,106 438.876,-2 438.876,-2 438.876,-8 432.876,-14 426.876,-14 426.876,-14 301.124,-14 301.124,-14 295.124,-14 289.124,-8 289.124,-2 289.124,-2 289.124,106 289.124,106 289.124,112 295.124,118 301.124,118"/>
<text text-anchor="middle" x="364" y="1.2" font-family="Times,serif" font-size="14.00">PrevaluationsController</text>
<polyline fill="none" stroke="black" points="289.124,8 438.876,8 "/>
<text text-anchor="start" x="297.124" y="23.2" font-family="Times,serif" font-size="14.00">create</text>
<text text-anchor="start" x="297.124" y="37.2" font-family="Times,serif" font-size="14.00">new</text>
<text text-anchor="start" x="297.124" y="51.2" font-family="Times,serif" font-size="14.00">pre_valuation_params</text>
<text text-anchor="start" x="297.124" y="65.2" font-family="Times,serif" font-size="14.00">show</text>
<polyline fill="none" stroke="black" points="289.124,72 438.876,72 "/>
<polyline fill="none" stroke="black" points="289.124,96 438.876,96 "/>
<text text-anchor="start" x="297.124" y="111.2" font-family="Times,serif" font-size="14.00">_layout</text>
</g>
<!-- ReportsController -->
<g id="node15" class="node"><title>ReportsController</title>
<path fill="none" stroke="black" d="M386.452,373C386.452,373 479.548,373 479.548,373 485.548,373 491.548,367 491.548,361 491.548,361 491.548,225 491.548,225 491.548,219 485.548,213 479.548,213 479.548,213 386.452,213 386.452,213 380.452,213 374.452,219 374.452,225 374.452,225 374.452,361 374.452,361 374.452,367 380.452,373 386.452,373"/>
<text text-anchor="middle" x="433" y="228.2" font-family="Times,serif" font-size="14.00">ReportsController</text>
<polyline fill="none" stroke="black" points="374.452,235 491.548,235 "/>
<text text-anchor="start" x="382.452" y="250.2" font-family="Times,serif" font-size="14.00">cars</text>
<text text-anchor="start" x="382.452" y="264.2" font-family="Times,serif" font-size="14.00">index</text>
<text text-anchor="start" x="382.452" y="278.2" font-family="Times,serif" font-size="14.00">insurance</text>
<text text-anchor="start" x="382.452" y="292.2" font-family="Times,serif" font-size="14.00">new</text>
<text text-anchor="start" x="382.452" y="306.2" font-family="Times,serif" font-size="14.00">repair</text>
<text text-anchor="start" x="382.452" y="320.2" font-family="Times,serif" font-size="14.00">show</text>
<polyline fill="none" stroke="black" points="374.452,327 491.548,327 "/>
<polyline fill="none" stroke="black" points="374.452,351 491.548,351 "/>
<text text-anchor="start" x="382.452" y="366.2" font-family="Times,serif" font-size="14.00">_layout</text>
</g>
<!-- RosterController -->
<g id="node16" class="node"><title>RosterController</title>
<path fill="none" stroke="black" d="M403.031,-52C403.031,-52 520.969,-52 520.969,-52 526.969,-52 532.969,-58 532.969,-64 532.969,-64 532.969,-158 532.969,-158 532.969,-164 526.969,-170 520.969,-170 520.969,-170 403.031,-170 403.031,-170 397.031,-170 391.031,-164 391.031,-158 391.031,-158 391.031,-64 391.031,-64 391.031,-58 397.031,-52 403.031,-52"/>
<text text-anchor="middle" x="462" y="-154.8" font-family="Times,serif" font-size="14.00">RosterController</text>
<polyline fill="none" stroke="black" points="391.031,-148 532.969,-148 "/>
<text text-anchor="start" x="399.031" y="-132.8" font-family="Times,serif" font-size="14.00">attendance</text>
<text text-anchor="start" x="399.031" y="-118.8" font-family="Times,serif" font-size="14.00">employeePerformance</text>
<text text-anchor="start" x="399.031" y="-104.8" font-family="Times,serif" font-size="14.00">index</text>
<polyline fill="none" stroke="black" points="391.031,-98 532.969,-98 "/>
<polyline fill="none" stroke="black" points="391.031,-74 532.969,-74 "/>
<text text-anchor="start" x="399.031" y="-58.8" font-family="Times,serif" font-size="14.00">_layout</text>
</g>
<!-- SessionsController -->
<g id="node17" class="node"><title>SessionsController</title>
<path fill="none" stroke="black" d="M403.11,-358C403.11,-358 500.89,-358 500.89,-358 506.89,-358 512.89,-364 512.89,-370 512.89,-370 512.89,-464 512.89,-464 512.89,-470 506.89,-476 500.89,-476 500.89,-476 403.11,-476 403.11,-476 397.11,-476 391.11,-470 391.11,-464 391.11,-464 391.11,-370 391.11,-370 391.11,-364 397.11,-358 403.11,-358"/>
<text text-anchor="middle" x="452" y="-460.8" font-family="Times,serif" font-size="14.00">SessionsController</text>
<polyline fill="none" stroke="black" points="391.11,-454 512.89,-454 "/>
<text text-anchor="start" x="399.11" y="-438.8" font-family="Times,serif" font-size="14.00">create</text>
<text text-anchor="start" x="399.11" y="-424.8" font-family="Times,serif" font-size="14.00">destroy</text>
<text text-anchor="start" x="399.11" y="-410.8" font-family="Times,serif" font-size="14.00">new</text>
<polyline fill="none" stroke="black" points="391.11,-404 512.89,-404 "/>
<polyline fill="none" stroke="black" points="391.11,-380 512.89,-380 "/>
<text text-anchor="start" x="399.11" y="-364.8" font-family="Times,serif" font-size="14.00">_layout</text>
</g>
<!-- SparesController -->
<g id="node18" class="node"><title>SparesController</title>
<path fill="none" stroke="black" d="M-362.435,-239C-362.435,-239 -275.565,-239 -275.565,-239 -269.565,-239 -263.565,-245 -263.565,-251 -263.565,-251 -263.565,-345 -263.565,-345 -263.565,-351 -269.565,-357 -275.565,-357 -275.565,-357 -362.435,-357 -362.435,-357 -368.435,-357 -374.435,-351 -374.435,-345 -374.435,-345 -374.435,-251 -374.435,-251 -374.435,-245 -368.435,-239 -362.435,-239"/>
<text text-anchor="middle" x="-319" y="-341.8" font-family="Times,serif" font-size="14.00">SparesController</text>
<polyline fill="none" stroke="black" points="-374.435,-335 -263.565,-335 "/>
<text text-anchor="start" x="-366.435" y="-319.8" font-family="Times,serif" font-size="14.00">edit</text>
<text text-anchor="start" x="-366.435" y="-305.8" font-family="Times,serif" font-size="14.00">index</text>
<text text-anchor="start" x="-366.435" y="-291.8" font-family="Times,serif" font-size="14.00">new</text>
<polyline fill="none" stroke="black" points="-374.435,-285 -263.565,-285 "/>
<polyline fill="none" stroke="black" points="-374.435,-261 -263.565,-261 "/>
<text text-anchor="start" x="-366.435" y="-245.8" font-family="Times,serif" font-size="14.00">_layout</text>
</g>
<!-- UsersController -->
<g id="node19" class="node"><title>UsersController</title>
<path fill="none" stroke="black" d="M-361.714,-1C-361.714,-1 -280.286,-1 -280.286,-1 -274.286,-1 -268.286,-7 -268.286,-13 -268.286,-13 -268.286,-121 -268.286,-121 -268.286,-127 -274.286,-133 -280.286,-133 -280.286,-133 -361.714,-133 -361.714,-133 -367.714,-133 -373.714,-127 -373.714,-121 -373.714,-121 -373.714,-13 -373.714,-13 -373.714,-7 -367.714,-1 -361.714,-1"/>
<text text-anchor="middle" x="-321" y="-117.8" font-family="Times,serif" font-size="14.00">UsersController</text>
<polyline fill="none" stroke="black" points="-373.714,-111 -268.286,-111 "/>
<text text-anchor="start" x="-365.714" y="-95.8" font-family="Times,serif" font-size="14.00">create</text>
<text text-anchor="start" x="-365.714" y="-81.8" font-family="Times,serif" font-size="14.00">new</text>
<text text-anchor="start" x="-365.714" y="-67.8" font-family="Times,serif" font-size="14.00">show</text>
<polyline fill="none" stroke="black" points="-373.714,-61 -268.286,-61 "/>
<polyline fill="none" stroke="black" points="-373.714,-37 -268.286,-37 "/>
<text text-anchor="start" x="-365.714" y="-21.8" font-family="Times,serif" font-size="14.00">_layout</text>
<text text-anchor="start" x="-365.714" y="-7.8" font-family="Times,serif" font-size="14.00">user_params</text>
</g>
<!-- ValuationsController -->
<g id="node20" class="node"><title>ValuationsController</title>
<path fill="none" stroke="black" d="M402.676,-205C402.676,-205 511.324,-205 511.324,-205 517.324,-205 523.324,-211 523.324,-217 523.324,-217 523.324,-311 523.324,-311 523.324,-317 517.324,-323 511.324,-323 511.324,-323 402.676,-323 402.676,-323 396.676,-323 390.676,-317 390.676,-311 390.676,-311 390.676,-217 390.676,-217 390.676,-211 396.676,-205 402.676,-205"/>
<text text-anchor="middle" x="457" y="-307.8" font-family="Times,serif" font-size="14.00">ValuationsController</text>
<polyline fill="none" stroke="black" points="390.676,-301 523.324,-301 "/>
<text text-anchor="start" x="398.676" y="-285.8" font-family="Times,serif" font-size="14.00">index</text>
<text text-anchor="start" x="398.676" y="-271.8" font-family="Times,serif" font-size="14.00">new</text>
<text text-anchor="start" x="398.676" y="-257.8" font-family="Times,serif" font-size="14.00">show</text>
<polyline fill="none" stroke="black" points="390.676,-251 523.324,-251 "/>
<polyline fill="none" stroke="black" points="390.676,-227 523.324,-227 "/>
<text text-anchor="start" x="398.676" y="-211.8" font-family="Times,serif" font-size="14.00">_layout</text>
</g>
<!-- WelcomeController -->
<g id="node21" class="node"><title>WelcomeController</title>
<path fill="none" stroke="black" d="M-175.033,356C-175.033,356 -72.9673,356 -72.9673,356 -66.9673,356 -60.9673,350 -60.9673,344 -60.9673,344 -60.9673,278 -60.9673,278 -60.9673,272 -66.9673,266 -72.9673,266 -72.9673,266 -175.033,266 -175.033,266 -181.033,266 -187.033,272 -187.033,278 -187.033,278 -187.033,344 -187.033,344 -187.033,350 -181.033,356 -175.033,356"/>
<text text-anchor="middle" x="-124" y="281.2" font-family="Times,serif" font-size="14.00">WelcomeController</text>
<polyline fill="none" stroke="black" points="-187.033,288 -60.9673,288 "/>
<text text-anchor="start" x="-179.033" y="303.2" font-family="Times,serif" font-size="14.00">index</text>
<polyline fill="none" stroke="black" points="-187.033,310 -60.9673,310 "/>
<polyline fill="none" stroke="black" points="-187.033,334 -60.9673,334 "/>
<text text-anchor="start" x="-179.033" y="349.2" font-family="Times,serif" font-size="14.00">_layout</text>
</g>
</g>
</svg>
