<?xml version="1.0" encoding="UTF-8" standalone="no"?>
<!DOCTYPE svg PUBLIC "-//W3C//DTD SVG 1.1//EN"
 "http://www.w3.org/Graphics/SVG/1.1/DTD/svg11.dtd">
<!-- Generated by graphviz version 2.36.0 (20140111.2315)
 -->
<!-- Title: controllers_diagram Pages: 1 -->
<svg width="894pt" height="864pt"
 viewBox="0.00 0.00 893.97 864.00" xmlns="http://www.w3.org/2000/svg" xmlns:xlink="http://www.w3.org/1999/xlink">
<g id="graph0" class="graph" transform="scale(1 1) rotate(0) translate(4 860)">
<title>controllers_diagram</title>
<polygon fill="white" stroke="none" points="-4,4 -4,-860 889.973,-860 889.973,4 -4,4"/>
<!-- _diagram_info -->
<g id="node1" class="node"><title>_diagram_info</title>
<text text-anchor="start" x="518" y="-211.6" font-family="Times,serif" font-size="13.00">Controllers diagram</text>
<text text-anchor="start" x="518" y="-198.6" font-family="Times,serif" font-size="13.00">Date: Feb 21 2015 &#45; 22:34</text>
<text text-anchor="start" x="518" y="-185.6" font-family="Times,serif" font-size="13.00">Migration version: 20150222015316</text>
<text text-anchor="start" x="518" y="-172.6" font-family="Times,serif" font-size="13.00">Generated by RailRoady 1.3.0</text>
<text text-anchor="start" x="518" y="-159.6" font-family="Times,serif" font-size="13.00">http://railroady.prestonlee.com</text>
</g>
<!-- AdminController -->
<g id="node2" class="node"><title>AdminController</title>
<path fill="none" stroke="black" d="M12,-493.5C12,-493.5 100.435,-493.5 100.435,-493.5 106.435,-493.5 112.435,-499.5 112.435,-505.5 112.435,-505.5 112.435,-571.5 112.435,-571.5 112.435,-577.5 106.435,-583.5 100.435,-583.5 100.435,-583.5 12,-583.5 12,-583.5 6,-583.5 -5.68434e-14,-577.5 -5.68434e-14,-571.5 -5.68434e-14,-571.5 -5.68434e-14,-505.5 -5.68434e-14,-505.5 -5.68434e-14,-499.5 6,-493.5 12,-493.5"/>
<text text-anchor="middle" x="56.2173" y="-568.3" font-family="Times,serif" font-size="14.00">AdminController</text>
<polyline fill="none" stroke="black" points="-5.68434e-14,-561.5 112.435,-561.5 "/>
<text text-anchor="start" x="8" y="-546.3" font-family="Times,serif" font-size="14.00">home</text>
<polyline fill="none" stroke="black" points="-5.68434e-14,-539.5 112.435,-539.5 "/>
<polyline fill="none" stroke="black" points="-5.68434e-14,-515.5 112.435,-515.5 "/>
<text text-anchor="start" x="8" y="-500.3" font-family="Times,serif" font-size="14.00">_layout</text>
</g>
<!-- ApplicationController -->
<g id="node3" class="node"><title>ApplicationController</title>
<path fill="none" stroke="black" d="M97,-68.5C97,-68.5 212.642,-68.5 212.642,-68.5 218.642,-68.5 224.642,-74.5 224.642,-80.5 224.642,-80.5 224.642,-148.5 224.642,-148.5 224.642,-154.5 218.642,-160.5 212.642,-160.5 212.642,-160.5 97,-160.5 97,-160.5 91,-160.5 85,-154.5 85,-148.5 85,-148.5 85,-80.5 85,-80.5 85,-74.5 91,-68.5 97,-68.5"/>
<text text-anchor="middle" x="154.821" y="-145.3" font-family="Times,serif" font-size="14.00">ApplicationController</text>
<polyline fill="none" stroke="black" points="85,-138.5 224.642,-138.5 "/>
<polyline fill="none" stroke="black" points="85,-114.5 224.642,-114.5 "/>
<polyline fill="none" stroke="black" points="85,-90.5 224.642,-90.5 "/>
<text text-anchor="start" x="93" y="-75.3" font-family="Times,serif" font-size="14.00">_layout</text>
</g>
<!-- BranchesController -->
<g id="node4" class="node"><title>BranchesController</title>
<path fill="none" stroke="black" d="M29,-612.5C29,-612.5 130.635,-612.5 130.635,-612.5 136.635,-612.5 142.635,-618.5 142.635,-624.5 142.635,-624.5 142.635,-692.5 142.635,-692.5 142.635,-698.5 136.635,-704.5 130.635,-704.5 130.635,-704.5 29,-704.5 29,-704.5 23,-704.5 17,-698.5 17,-692.5 17,-692.5 17,-624.5 17,-624.5 17,-618.5 23,-612.5 29,-612.5"/>
<text text-anchor="middle" x="79.8174" y="-689.3" font-family="Times,serif" font-size="14.00">BranchesController</text>
<polyline fill="none" stroke="black" points="17,-682.5 142.635,-682.5 "/>
<polyline fill="none" stroke="black" points="17,-658.5 142.635,-658.5 "/>
<polyline fill="none" stroke="black" points="17,-634.5 142.635,-634.5 "/>
<text text-anchor="start" x="25" y="-619.3" font-family="Times,serif" font-size="14.00">_layout</text>
</g>
<!-- BrandsController -->
<g id="node5" class="node"><title>BrandsController</title>
<path fill="none" stroke="black" d="M165,-357.5C165,-357.5 254.207,-357.5 254.207,-357.5 260.207,-357.5 266.207,-363.5 266.207,-369.5 266.207,-369.5 266.207,-547.5 266.207,-547.5 266.207,-553.5 260.207,-559.5 254.207,-559.5 254.207,-559.5 165,-559.5 165,-559.5 159,-559.5 153,-553.5 153,-547.5 153,-547.5 153,-369.5 153,-369.5 153,-363.5 159,-357.5 165,-357.5"/>
<text text-anchor="middle" x="209.604" y="-544.3" font-family="Times,serif" font-size="14.00">BrandsController</text>
<polyline fill="none" stroke="black" points="153,-537.5 266.207,-537.5 "/>
<text text-anchor="start" x="161" y="-522.3" font-family="Times,serif" font-size="14.00">create</text>
<text text-anchor="start" x="161" y="-508.3" font-family="Times,serif" font-size="14.00">destroy</text>
<text text-anchor="start" x="161" y="-494.3" font-family="Times,serif" font-size="14.00">edit</text>
<text text-anchor="start" x="161" y="-480.3" font-family="Times,serif" font-size="14.00">index</text>
<text text-anchor="start" x="161" y="-466.3" font-family="Times,serif" font-size="14.00">new</text>
<text text-anchor="start" x="161" y="-452.3" font-family="Times,serif" font-size="14.00">show</text>
<text text-anchor="start" x="161" y="-438.3" font-family="Times,serif" font-size="14.00">update</text>
<polyline fill="none" stroke="black" points="153,-431.5 266.207,-431.5 "/>
<polyline fill="none" stroke="black" points="153,-407.5 266.207,-407.5 "/>
<text text-anchor="start" x="161" y="-392.3" font-family="Times,serif" font-size="14.00">_layout</text>
<text text-anchor="start" x="161" y="-378.3" font-family="Times,serif" font-size="14.00">brand_params</text>
<text text-anchor="start" x="161" y="-364.3" font-family="Times,serif" font-size="14.00">set_brand</text>
</g>
<!-- ClientActionsController -->
<g id="node6" class="node"><title>ClientActionsController</title>
<path fill="none" stroke="black" d="M318,-102.5C318,-102.5 445.317,-102.5 445.317,-102.5 451.317,-102.5 457.317,-108.5 457.317,-114.5 457.317,-114.5 457.317,-194.5 457.317,-194.5 457.317,-200.5 451.317,-206.5 445.317,-206.5 445.317,-206.5 318,-206.5 318,-206.5 312,-206.5 306,-200.5 306,-194.5 306,-194.5 306,-114.5 306,-114.5 306,-108.5 312,-102.5 318,-102.5"/>
<text text-anchor="middle" x="381.659" y="-191.3" font-family="Times,serif" font-size="14.00">ClientActionsController</text>
<polyline fill="none" stroke="black" points="306,-184.5 457.317,-184.5 "/>
<text text-anchor="start" x="314" y="-169.3" font-family="Times,serif" font-size="14.00">home</text>
<text text-anchor="start" x="314" y="-155.3" font-family="Times,serif" font-size="14.00">show</text>
<polyline fill="none" stroke="black" points="306,-148.5 457.317,-148.5 "/>
<polyline fill="none" stroke="black" points="306,-124.5 457.317,-124.5 "/>
<text text-anchor="start" x="314" y="-109.3" font-family="Times,serif" font-size="14.00">_layout</text>
</g>
<!-- GenericCarsController -->
<g id="node7" class="node"><title>GenericCarsController</title>
<path fill="none" stroke="black" d="M556,-527.5C556,-527.5 675.511,-527.5 675.511,-527.5 681.511,-527.5 687.511,-533.5 687.511,-539.5 687.511,-539.5 687.511,-745.5 687.511,-745.5 687.511,-751.5 681.511,-757.5 675.511,-757.5 675.511,-757.5 556,-757.5 556,-757.5 550,-757.5 544,-751.5 544,-745.5 544,-745.5 544,-539.5 544,-539.5 544,-533.5 550,-527.5 556,-527.5"/>
<text text-anchor="middle" x="615.755" y="-742.3" font-family="Times,serif" font-size="14.00">GenericCarsController</text>
<polyline fill="none" stroke="black" points="544,-735.5 687.511,-735.5 "/>
<text text-anchor="start" x="552" y="-720.3" font-family="Times,serif" font-size="14.00">create</text>
<text text-anchor="start" x="552" y="-706.3" font-family="Times,serif" font-size="14.00">destroy</text>
<text text-anchor="start" x="552" y="-692.3" font-family="Times,serif" font-size="14.00">edit</text>
<text text-anchor="start" x="552" y="-678.3" font-family="Times,serif" font-size="14.00">generic_car_params</text>
<text text-anchor="start" x="552" y="-664.3" font-family="Times,serif" font-size="14.00">index</text>
<text text-anchor="start" x="552" y="-650.3" font-family="Times,serif" font-size="14.00">new</text>
<text text-anchor="start" x="552" y="-636.3" font-family="Times,serif" font-size="14.00">search</text>
<text text-anchor="start" x="552" y="-622.3" font-family="Times,serif" font-size="14.00">set_generic_car</text>
<text text-anchor="start" x="552" y="-608.3" font-family="Times,serif" font-size="14.00">show</text>
<text text-anchor="start" x="552" y="-594.3" font-family="Times,serif" font-size="14.00">update</text>
<text text-anchor="start" x="552" y="-580.3" font-family="Times,serif" font-size="14.00">update_generation</text>
<polyline fill="none" stroke="black" points="544,-573.5 687.511,-573.5 "/>
<polyline fill="none" stroke="black" points="544,-549.5 687.511,-549.5 "/>
<text text-anchor="start" x="552" y="-534.3" font-family="Times,serif" font-size="14.00">_layout</text>
</g>
<!-- GenericFamiliesController -->
<g id="node8" class="node"><title>GenericFamiliesController</title>
<path fill="none" stroke="black" d="M318,-238.5C318,-238.5 460.069,-238.5 460.069,-238.5 466.069,-238.5 472.069,-244.5 472.069,-250.5 472.069,-250.5 472.069,-484.5 472.069,-484.5 472.069,-490.5 466.069,-496.5 460.069,-496.5 460.069,-496.5 318,-496.5 318,-496.5 312,-496.5 306,-490.5 306,-484.5 306,-484.5 306,-250.5 306,-250.5 306,-244.5 312,-238.5 318,-238.5"/>
<text text-anchor="middle" x="389.035" y="-481.3" font-family="Times,serif" font-size="14.00">GenericFamiliesController</text>
<polyline fill="none" stroke="black" points="306,-474.5 472.069,-474.5 "/>
<text text-anchor="start" x="314" y="-459.3" font-family="Times,serif" font-size="14.00">assign</text>
<text text-anchor="start" x="314" y="-445.3" font-family="Times,serif" font-size="14.00">assigned_families</text>
<text text-anchor="start" x="314" y="-431.3" font-family="Times,serif" font-size="14.00">build_spares</text>
<text text-anchor="start" x="314" y="-417.3" font-family="Times,serif" font-size="14.00">create</text>
<text text-anchor="start" x="314" y="-403.3" font-family="Times,serif" font-size="14.00">destroy</text>
<text text-anchor="start" x="314" y="-389.3" font-family="Times,serif" font-size="14.00">edit</text>
<text text-anchor="start" x="314" y="-375.3" font-family="Times,serif" font-size="14.00">index</text>
<text text-anchor="start" x="314" y="-361.3" font-family="Times,serif" font-size="14.00">new</text>
<text text-anchor="start" x="314" y="-347.3" font-family="Times,serif" font-size="14.00">not_assigned_families</text>
<text text-anchor="start" x="314" y="-333.3" font-family="Times,serif" font-size="14.00">show</text>
<text text-anchor="start" x="314" y="-319.3" font-family="Times,serif" font-size="14.00">update</text>
<polyline fill="none" stroke="black" points="306,-312.5 472.069,-312.5 "/>
<polyline fill="none" stroke="black" points="306,-288.5 472.069,-288.5 "/>
<text text-anchor="start" x="314" y="-273.3" font-family="Times,serif" font-size="14.00">_layout</text>
<text text-anchor="start" x="314" y="-259.3" font-family="Times,serif" font-size="14.00">required_params</text>
<text text-anchor="start" x="314" y="-245.3" font-family="Times,serif" font-size="14.00">set_family</text>
</g>
<!-- GenericSparesController -->
<g id="node9" class="node"><title>GenericSparesController</title>
<path fill="none" stroke="black" d="M522,-255.5C522,-255.5 653.173,-255.5 653.173,-255.5 659.173,-255.5 665.173,-261.5 665.173,-267.5 665.173,-267.5 665.173,-473.5 665.173,-473.5 665.173,-479.5 659.173,-485.5 653.173,-485.5 653.173,-485.5 522,-485.5 522,-485.5 516,-485.5 510,-479.5 510,-473.5 510,-473.5 510,-267.5 510,-267.5 510,-261.5 516,-255.5 522,-255.5"/>
<text text-anchor="middle" x="587.586" y="-470.3" font-family="Times,serif" font-size="14.00">GenericSparesController</text>
<polyline fill="none" stroke="black" points="510,-463.5 665.173,-463.5 "/>
<text text-anchor="start" x="518" y="-448.3" font-family="Times,serif" font-size="14.00">create</text>
<text text-anchor="start" x="518" y="-434.3" font-family="Times,serif" font-size="14.00">destroy</text>
<text text-anchor="start" x="518" y="-420.3" font-family="Times,serif" font-size="14.00">edit</text>
<text text-anchor="start" x="518" y="-406.3" font-family="Times,serif" font-size="14.00">generic_spare_params</text>
<text text-anchor="start" x="518" y="-392.3" font-family="Times,serif" font-size="14.00">index</text>
<text text-anchor="start" x="518" y="-378.3" font-family="Times,serif" font-size="14.00">new</text>
<text text-anchor="start" x="518" y="-364.3" font-family="Times,serif" font-size="14.00">newTemplate</text>
<text text-anchor="start" x="518" y="-350.3" font-family="Times,serif" font-size="14.00">set_generic_spare</text>
<text text-anchor="start" x="518" y="-336.3" font-family="Times,serif" font-size="14.00">show</text>
<text text-anchor="start" x="518" y="-322.3" font-family="Times,serif" font-size="14.00">template</text>
<text text-anchor="start" x="518" y="-308.3" font-family="Times,serif" font-size="14.00">update</text>
<polyline fill="none" stroke="black" points="510,-301.5 665.173,-301.5 "/>
<polyline fill="none" stroke="black" points="510,-277.5 665.173,-277.5 "/>
<text text-anchor="start" x="518" y="-262.3" font-family="Times,serif" font-size="14.00">_layout</text>
</g>
<!-- InvoicesController -->
<g id="node10" class="node"><title>InvoicesController</title>
<path fill="none" stroke="black" d="M777,-748.5C777,-748.5 873.973,-748.5 873.973,-748.5 879.973,-748.5 885.973,-754.5 885.973,-760.5 885.973,-760.5 885.973,-826.5 885.973,-826.5 885.973,-832.5 879.973,-838.5 873.973,-838.5 873.973,-838.5 777,-838.5 777,-838.5 771,-838.5 765,-832.5 765,-826.5 765,-826.5 765,-760.5 765,-760.5 765,-754.5 771,-748.5 777,-748.5"/>
<text text-anchor="middle" x="825.486" y="-823.3" font-family="Times,serif" font-size="14.00">InvoicesController</text>
<polyline fill="none" stroke="black" points="765,-816.5 885.973,-816.5 "/>
<text text-anchor="start" x="773" y="-801.3" font-family="Times,serif" font-size="14.00">home</text>
<polyline fill="none" stroke="black" points="765,-794.5 885.973,-794.5 "/>
<polyline fill="none" stroke="black" points="765,-770.5 885.973,-770.5 "/>
<text text-anchor="start" x="773" y="-755.3" font-family="Times,serif" font-size="14.00">_layout</text>
</g>
<!-- ModelAcronymsController -->
<g id="node11" class="node"><title>ModelAcronymsController</title>
<path fill="none" stroke="black" d="M352,-527.5C352,-527.5 496.421,-527.5 496.421,-527.5 502.421,-527.5 508.421,-533.5 508.421,-539.5 508.421,-539.5 508.421,-717.5 508.421,-717.5 508.421,-723.5 502.421,-729.5 496.421,-729.5 496.421,-729.5 352,-729.5 352,-729.5 346,-729.5 340,-723.5 340,-717.5 340,-717.5 340,-539.5 340,-539.5 340,-533.5 346,-527.5 352,-527.5"/>
<text text-anchor="middle" x="424.21" y="-714.3" font-family="Times,serif" font-size="14.00">ModelAcronymsController</text>
<polyline fill="none" stroke="black" points="340,-707.5 508.421,-707.5 "/>
<text text-anchor="start" x="348" y="-692.3" font-family="Times,serif" font-size="14.00">create</text>
<text text-anchor="start" x="348" y="-678.3" font-family="Times,serif" font-size="14.00">destroy</text>
<text text-anchor="start" x="348" y="-664.3" font-family="Times,serif" font-size="14.00">edit</text>
<text text-anchor="start" x="348" y="-650.3" font-family="Times,serif" font-size="14.00">index</text>
<text text-anchor="start" x="348" y="-636.3" font-family="Times,serif" font-size="14.00">new</text>
<text text-anchor="start" x="348" y="-622.3" font-family="Times,serif" font-size="14.00">show</text>
<text text-anchor="start" x="348" y="-608.3" font-family="Times,serif" font-size="14.00">update</text>
<polyline fill="none" stroke="black" points="340,-601.5 508.421,-601.5 "/>
<polyline fill="none" stroke="black" points="340,-577.5 508.421,-577.5 "/>
<text text-anchor="start" x="348" y="-562.3" font-family="Times,serif" font-size="14.00">_layout</text>
<text text-anchor="start" x="348" y="-548.3" font-family="Times,serif" font-size="14.00">model_acronym_params</text>
<text text-anchor="start" x="348" y="-534.3" font-family="Times,serif" font-size="14.00">set_model_acronym</text>
</g>
<!-- MoldSparesController -->
<g id="node12" class="node"><title>MoldSparesController</title>
<path fill="none" stroke="black" d="M182,-595.5C182,-595.5 299.207,-595.5 299.207,-595.5 305.207,-595.5 311.207,-601.5 311.207,-607.5 311.207,-607.5 311.207,-785.5 311.207,-785.5 311.207,-791.5 305.207,-797.5 299.207,-797.5 299.207,-797.5 182,-797.5 182,-797.5 176,-797.5 170,-791.5 170,-785.5 170,-785.5 170,-607.5 170,-607.5 170,-601.5 176,-595.5 182,-595.5"/>
<text text-anchor="middle" x="240.604" y="-782.3" font-family="Times,serif" font-size="14.00">MoldSparesController</text>
<polyline fill="none" stroke="black" points="170,-775.5 311.207,-775.5 "/>
<text text-anchor="start" x="178" y="-760.3" font-family="Times,serif" font-size="14.00">create</text>
<text text-anchor="start" x="178" y="-746.3" font-family="Times,serif" font-size="14.00">destroy</text>
<text text-anchor="start" x="178" y="-732.3" font-family="Times,serif" font-size="14.00">edit</text>
<text text-anchor="start" x="178" y="-718.3" font-family="Times,serif" font-size="14.00">index</text>
<text text-anchor="start" x="178" y="-704.3" font-family="Times,serif" font-size="14.00">new</text>
<text text-anchor="start" x="178" y="-690.3" font-family="Times,serif" font-size="14.00">show</text>
<text text-anchor="start" x="178" y="-676.3" font-family="Times,serif" font-size="14.00">update</text>
<polyline fill="none" stroke="black" points="170,-669.5 311.207,-669.5 "/>
<polyline fill="none" stroke="black" points="170,-645.5 311.207,-645.5 "/>
<text text-anchor="start" x="178" y="-630.3" font-family="Times,serif" font-size="14.00">_layout</text>
<text text-anchor="start" x="178" y="-616.3" font-family="Times,serif" font-size="14.00">mold_spare_params</text>
<text text-anchor="start" x="178" y="-602.3" font-family="Times,serif" font-size="14.00">set_mold_spare</text>
</g>
<!-- PrevaluationsController -->
<g id="node13" class="node"><title>PrevaluationsController</title>
<path fill="none" stroke="black" d="M131,-187.5C131,-187.5 256.752,-187.5 256.752,-187.5 262.752,-187.5 268.752,-193.5 268.752,-199.5 268.752,-199.5 268.752,-307.5 268.752,-307.5 268.752,-313.5 262.752,-319.5 256.752,-319.5 256.752,-319.5 131,-319.5 131,-319.5 125,-319.5 119,-313.5 119,-307.5 119,-307.5 119,-199.5 119,-199.5 119,-193.5 125,-187.5 131,-187.5"/>
<text text-anchor="middle" x="193.876" y="-304.3" font-family="Times,serif" font-size="14.00">PrevaluationsController</text>
<polyline fill="none" stroke="black" points="119,-297.5 268.752,-297.5 "/>
<text text-anchor="start" x="127" y="-282.3" font-family="Times,serif" font-size="14.00">create</text>
<text text-anchor="start" x="127" y="-268.3" font-family="Times,serif" font-size="14.00">new</text>
<text text-anchor="start" x="127" y="-254.3" font-family="Times,serif" font-size="14.00">pre_valuation_params</text>
<text text-anchor="start" x="127" y="-240.3" font-family="Times,serif" font-size="14.00">show</text>
<polyline fill="none" stroke="black" points="119,-233.5 268.752,-233.5 "/>
<polyline fill="none" stroke="black" points="119,-209.5 268.752,-209.5 "/>
<text text-anchor="start" x="127" y="-194.3" font-family="Times,serif" font-size="14.00">_layout</text>
</g>
<!-- ReportsController -->
<g id="node14" class="node"><title>ReportsController</title>
<path fill="none" stroke="black" d="M709,-255.5C709,-255.5 802.097,-255.5 802.097,-255.5 808.097,-255.5 814.097,-261.5 814.097,-267.5 814.097,-267.5 814.097,-403.5 814.097,-403.5 814.097,-409.5 808.097,-415.5 802.097,-415.5 802.097,-415.5 709,-415.5 709,-415.5 703,-415.5 697,-409.5 697,-403.5 697,-403.5 697,-267.5 697,-267.5 697,-261.5 703,-255.5 709,-255.5"/>
<text text-anchor="middle" x="755.548" y="-400.3" font-family="Times,serif" font-size="14.00">ReportsController</text>
<polyline fill="none" stroke="black" points="697,-393.5 814.097,-393.5 "/>
<text text-anchor="start" x="705" y="-378.3" font-family="Times,serif" font-size="14.00">cars</text>
<text text-anchor="start" x="705" y="-364.3" font-family="Times,serif" font-size="14.00">index</text>
<text text-anchor="start" x="705" y="-350.3" font-family="Times,serif" font-size="14.00">insurance</text>
<text text-anchor="start" x="705" y="-336.3" font-family="Times,serif" font-size="14.00">new</text>
<text text-anchor="start" x="705" y="-322.3" font-family="Times,serif" font-size="14.00">repair</text>
<text text-anchor="start" x="705" y="-308.3" font-family="Times,serif" font-size="14.00">show</text>
<polyline fill="none" stroke="black" points="697,-301.5 814.097,-301.5 "/>
<polyline fill="none" stroke="black" points="697,-277.5 814.097,-277.5 "/>
<text text-anchor="start" x="705" y="-262.3" font-family="Times,serif" font-size="14.00">_layout</text>
</g>
<!-- RosterController -->
<g id="node15" class="node"><title>RosterController</title>
<path fill="none" stroke="black" d="M726,-442.5C726,-442.5 843.938,-442.5 843.938,-442.5 849.938,-442.5 855.938,-448.5 855.938,-454.5 855.938,-454.5 855.938,-548.5 855.938,-548.5 855.938,-554.5 849.938,-560.5 843.938,-560.5 843.938,-560.5 726,-560.5 726,-560.5 720,-560.5 714,-554.5 714,-548.5 714,-548.5 714,-454.5 714,-454.5 714,-448.5 720,-442.5 726,-442.5"/>
<text text-anchor="middle" x="784.969" y="-545.3" font-family="Times,serif" font-size="14.00">RosterController</text>
<polyline fill="none" stroke="black" points="714,-538.5 855.938,-538.5 "/>
<text text-anchor="start" x="722" y="-523.3" font-family="Times,serif" font-size="14.00">attendance</text>
<text text-anchor="start" x="722" y="-509.3" font-family="Times,serif" font-size="14.00">employeePerformance</text>
<text text-anchor="start" x="722" y="-495.3" font-family="Times,serif" font-size="14.00">index</text>
<polyline fill="none" stroke="black" points="714,-488.5 855.938,-488.5 "/>
<polyline fill="none" stroke="black" points="714,-464.5 855.938,-464.5 "/>
<text text-anchor="start" x="722" y="-449.3" font-family="Times,serif" font-size="14.00">_layout</text>
</g>
<!-- SessionsController -->
<g id="node16" class="node"><title>SessionsController</title>
<path fill="none" stroke="black" d="M726,-595.5C726,-595.5 823.779,-595.5 823.779,-595.5 829.779,-595.5 835.779,-601.5 835.779,-607.5 835.779,-607.5 835.779,-701.5 835.779,-701.5 835.779,-707.5 829.779,-713.5 823.779,-713.5 823.779,-713.5 726,-713.5 726,-713.5 720,-713.5 714,-707.5 714,-701.5 714,-701.5 714,-607.5 714,-607.5 714,-601.5 720,-595.5 726,-595.5"/>
<text text-anchor="middle" x="774.89" y="-698.3" font-family="Times,serif" font-size="14.00">SessionsController</text>
<polyline fill="none" stroke="black" points="714,-691.5 835.779,-691.5 "/>
<text text-anchor="start" x="722" y="-676.3" font-family="Times,serif" font-size="14.00">create</text>
<text text-anchor="start" x="722" y="-662.3" font-family="Times,serif" font-size="14.00">destroy</text>
<text text-anchor="start" x="722" y="-648.3" font-family="Times,serif" font-size="14.00">new</text>
<polyline fill="none" stroke="black" points="714,-641.5 835.779,-641.5 "/>
<polyline fill="none" stroke="black" points="714,-617.5 835.779,-617.5 "/>
<text text-anchor="start" x="722" y="-602.3" font-family="Times,serif" font-size="14.00">_layout</text>
</g>
<!-- SparesController -->
<g id="node17" class="node"><title>SparesController</title>
<path fill="none" stroke="black" d="M46,-731.5C46,-731.5 132.869,-731.5 132.869,-731.5 138.869,-731.5 144.869,-737.5 144.869,-743.5 144.869,-743.5 144.869,-837.5 144.869,-837.5 144.869,-843.5 138.869,-849.5 132.869,-849.5 132.869,-849.5 46,-849.5 46,-849.5 40,-849.5 34,-843.5 34,-837.5 34,-837.5 34,-743.5 34,-743.5 34,-737.5 40,-731.5 46,-731.5"/>
<text text-anchor="middle" x="89.4346" y="-834.3" font-family="Times,serif" font-size="14.00">SparesController</text>
<polyline fill="none" stroke="black" points="34,-827.5 144.869,-827.5 "/>
<text text-anchor="start" x="42" y="-812.3" font-family="Times,serif" font-size="14.00">edit</text>
<text text-anchor="start" x="42" y="-798.3" font-family="Times,serif" font-size="14.00">index</text>
<text text-anchor="start" x="42" y="-784.3" font-family="Times,serif" font-size="14.00">new</text>
<polyline fill="none" stroke="black" points="34,-777.5 144.869,-777.5 "/>
<polyline fill="none" stroke="black" points="34,-753.5 144.869,-753.5 "/>
<text text-anchor="start" x="42" y="-738.3" font-family="Times,serif" font-size="14.00">_layout</text>
</g>
<!-- UsersController -->
<g id="node18" class="node"><title>UsersController</title>
<path fill="none" stroke="black" d="M760,-17.5C760,-17.5 841.428,-17.5 841.428,-17.5 847.428,-17.5 853.428,-23.5 853.428,-29.5 853.428,-29.5 853.428,-137.5 853.428,-137.5 853.428,-143.5 847.428,-149.5 841.428,-149.5 841.428,-149.5 760,-149.5 760,-149.5 754,-149.5 748,-143.5 748,-137.5 748,-137.5 748,-29.5 748,-29.5 748,-23.5 754,-17.5 760,-17.5"/>
<text text-anchor="middle" x="800.714" y="-134.3" font-family="Times,serif" font-size="14.00">UsersController</text>
<polyline fill="none" stroke="black" points="748,-127.5 853.428,-127.5 "/>
<text text-anchor="start" x="756" y="-112.3" font-family="Times,serif" font-size="14.00">create</text>
<text text-anchor="start" x="756" y="-98.3" font-family="Times,serif" font-size="14.00">new</text>
<text text-anchor="start" x="756" y="-84.3" font-family="Times,serif" font-size="14.00">show</text>
<polyline fill="none" stroke="black" points="748,-77.5 853.428,-77.5 "/>
<polyline fill="none" stroke="black" points="748,-53.5 853.428,-53.5 "/>
<text text-anchor="start" x="756" y="-38.3" font-family="Times,serif" font-size="14.00">_layout</text>
<text text-anchor="start" x="756" y="-24.3" font-family="Times,serif" font-size="14.00">user_params</text>
</g>
<!-- ValuationsController -->
<g id="node19" class="node"><title>ValuationsController</title>
<path fill="none" stroke="black" d="M505,-0.5C505,-0.5 613.648,-0.5 613.648,-0.5 619.648,-0.5 625.648,-6.5 625.648,-12.5 625.648,-12.5 625.648,-106.5 625.648,-106.5 625.648,-112.5 619.648,-118.5 613.648,-118.5 613.648,-118.5 505,-118.5 505,-118.5 499,-118.5 493,-112.5 493,-106.5 493,-106.5 493,-12.5 493,-12.5 493,-6.5 499,-0.5 505,-0.5"/>
<text text-anchor="middle" x="559.324" y="-103.3" font-family="Times,serif" font-size="14.00">ValuationsController</text>
<polyline fill="none" stroke="black" points="493,-96.5 625.648,-96.5 "/>
<text text-anchor="start" x="501" y="-81.3" font-family="Times,serif" font-size="14.00">index</text>
<text text-anchor="start" x="501" y="-67.3" font-family="Times,serif" font-size="14.00">new</text>
<text text-anchor="start" x="501" y="-53.3" font-family="Times,serif" font-size="14.00">show</text>
<polyline fill="none" stroke="black" points="493,-46.5 625.648,-46.5 "/>
<polyline fill="none" stroke="black" points="493,-22.5 625.648,-22.5 "/>
<text text-anchor="start" x="501" y="-7.3" font-family="Times,serif" font-size="14.00">_layout</text>
</g>
<!-- WelcomeController -->
<g id="node20" class="node"><title>WelcomeController</title>
<path fill="none" stroke="black" d="M403,-765.5C403,-765.5 505.065,-765.5 505.065,-765.5 511.065,-765.5 517.065,-771.5 517.065,-777.5 517.065,-777.5 517.065,-843.5 517.065,-843.5 517.065,-849.5 511.065,-855.5 505.065,-855.5 505.065,-855.5 403,-855.5 403,-855.5 397,-855.5 391,-849.5 391,-843.5 391,-843.5 391,-777.5 391,-777.5 391,-771.5 397,-765.5 403,-765.5"/>
<text text-anchor="middle" x="454.033" y="-840.3" font-family="Times,serif" font-size="14.00">WelcomeController</text>
<polyline fill="none" stroke="black" points="391,-833.5 517.065,-833.5 "/>
<text text-anchor="start" x="399" y="-818.3" font-family="Times,serif" font-size="14.00">index</text>
<polyline fill="none" stroke="black" points="391,-811.5 517.065,-811.5 "/>
<polyline fill="none" stroke="black" points="391,-787.5 517.065,-787.5 "/>
<text text-anchor="start" x="399" y="-772.3" font-family="Times,serif" font-size="14.00">_layout</text>
</g>
</g>
</svg>
