<?xml version="1.0" encoding="UTF-8" standalone="no"?>
<!DOCTYPE svg PUBLIC "-//W3C//DTD SVG 1.1//EN"
 "http://www.w3.org/Graphics/SVG/1.1/DTD/svg11.dtd">
<!-- Generated by graphviz version 2.38.0 (20140413.2041)
 -->
<!-- Title: controllers_diagram Pages: 1 -->
<svg width="1124pt" height="1147pt"
 viewBox="0.00 0.00 1123.75 1147.00" xmlns="http://www.w3.org/2000/svg" xmlns:xlink="http://www.w3.org/1999/xlink">
<g id="graph0" class="graph" transform="scale(1 1) rotate(0) translate(453.714 639.5)">
<title>controllers_diagram</title>
<polygon fill="white" stroke="none" points="-453.714,507.5 -453.714,-639.5 670.033,-639.5 670.033,507.5 -453.714,507.5"/>
<!-- _diagram_info -->
<g id="node1" class="node"><title>_diagram_info</title>
<text text-anchor="start" x="62.3123" y="408.9" font-family="Times,serif" font-size="13.00">Controllers diagram</text>
<text text-anchor="start" x="62.3123" y="421.9" font-family="Times,serif" font-size="13.00">Date: Jul 02 2015 &#45; 12:05</text>
<text text-anchor="start" x="62.3123" y="434.9" font-family="Times,serif" font-size="13.00">Migration version: 20150702002651</text>
<text text-anchor="start" x="62.3123" y="447.9" font-family="Times,serif" font-size="13.00">Generated by RailRoady 1.3.0</text>
<text text-anchor="start" x="62.3123" y="460.9" font-family="Times,serif" font-size="13.00">http://railroady.prestonlee.com</text>
</g>
<!-- AdminController -->
<g id="node2" class="node"><title>AdminController</title>
<path fill="none" stroke="black" d="M-78.2173,503C-78.2173,503 10.2173,503 10.2173,503 16.2173,503 22.2173,497 22.2173,491 22.2173,491 22.2173,425 22.2173,425 22.2173,419 16.2173,413 10.2173,413 10.2173,413 -78.2173,413 -78.2173,413 -84.2173,413 -90.2173,419 -90.2173,425 -90.2173,425 -90.2173,491 -90.2173,491 -90.2173,497 -84.2173,503 -78.2173,503"/>
<text text-anchor="middle" x="-34" y="428.2" font-family="Times,serif" font-size="14.00">AdminController</text>
<polyline fill="none" stroke="black" points="-90.2173,435 22.2173,435 "/>
<text text-anchor="start" x="-82.2173" y="450.2" font-family="Times,serif" font-size="14.00">home</text>
<polyline fill="none" stroke="black" points="-90.2173,457 22.2173,457 "/>
<polyline fill="none" stroke="black" points="-90.2173,481 22.2173,481 "/>
<text text-anchor="start" x="-82.2173" y="496.2" font-family="Times,serif" font-size="14.00">_layout</text>
</g>
<!-- ApplicationController -->
<g id="node3" class="node"><title>ApplicationController</title>
<path fill="none" stroke="black" d="M480.179,-469C480.179,-469 595.821,-469 595.821,-469 601.821,-469 607.821,-475 607.821,-481 607.821,-481 607.821,-549 607.821,-549 607.821,-555 601.821,-561 595.821,-561 595.821,-561 480.179,-561 480.179,-561 474.179,-561 468.179,-555 468.179,-549 468.179,-549 468.179,-481 468.179,-481 468.179,-475 474.179,-469 480.179,-469"/>
<text text-anchor="middle" x="538" y="-545.8" font-family="Times,serif" font-size="14.00">ApplicationController</text>
<polyline fill="none" stroke="black" points="468.179,-539 607.821,-539 "/>
<polyline fill="none" stroke="black" points="468.179,-515 607.821,-515 "/>
<polyline fill="none" stroke="black" points="468.179,-491 607.821,-491 "/>
<text text-anchor="start" x="476.179" y="-475.8" font-family="Times,serif" font-size="14.00">_layout</text>
</g>
<!-- BranchesController -->
<g id="node4" class="node"><title>BranchesController</title>
<path fill="none" stroke="black" d="M-239.817,503C-239.817,503 -138.183,503 -138.183,503 -132.183,503 -126.183,497 -126.183,491 -126.183,491 -126.183,423 -126.183,423 -126.183,417 -132.183,411 -138.183,411 -138.183,411 -239.817,411 -239.817,411 -245.817,411 -251.817,417 -251.817,423 -251.817,423 -251.817,491 -251.817,491 -251.817,497 -245.817,503 -239.817,503"/>
<text text-anchor="middle" x="-189" y="426.2" font-family="Times,serif" font-size="14.00">BranchesController</text>
<polyline fill="none" stroke="black" points="-251.817,433 -126.183,433 "/>
<polyline fill="none" stroke="black" points="-251.817,457 -126.183,457 "/>
<polyline fill="none" stroke="black" points="-251.817,481 -126.183,481 "/>
<text text-anchor="start" x="-243.817" y="496.2" font-family="Times,serif" font-size="14.00">_layout</text>
</g>
<!-- BrandsController -->
<g id="node5" class="node"><title>BrandsController</title>
<path fill="none" stroke="black" d="M-365.604,-379C-365.604,-379 -276.396,-379 -276.396,-379 -270.396,-379 -264.396,-385 -264.396,-391 -264.396,-391 -264.396,-569 -264.396,-569 -264.396,-575 -270.396,-581 -276.396,-581 -276.396,-581 -365.604,-581 -365.604,-581 -371.604,-581 -377.604,-575 -377.604,-569 -377.604,-569 -377.604,-391 -377.604,-391 -377.604,-385 -371.604,-379 -365.604,-379"/>
<text text-anchor="middle" x="-321" y="-565.8" font-family="Times,serif" font-size="14.00">BrandsController</text>
<polyline fill="none" stroke="black" points="-377.604,-559 -264.396,-559 "/>
<text text-anchor="start" x="-369.604" y="-543.8" font-family="Times,serif" font-size="14.00">create</text>
<text text-anchor="start" x="-369.604" y="-529.8" font-family="Times,serif" font-size="14.00">destroy</text>
<text text-anchor="start" x="-369.604" y="-515.8" font-family="Times,serif" font-size="14.00">edit</text>
<text text-anchor="start" x="-369.604" y="-501.8" font-family="Times,serif" font-size="14.00">index</text>
<text text-anchor="start" x="-369.604" y="-487.8" font-family="Times,serif" font-size="14.00">new</text>
<text text-anchor="start" x="-369.604" y="-473.8" font-family="Times,serif" font-size="14.00">show</text>
<text text-anchor="start" x="-369.604" y="-459.8" font-family="Times,serif" font-size="14.00">update</text>
<polyline fill="none" stroke="black" points="-377.604,-453 -264.396,-453 "/>
<polyline fill="none" stroke="black" points="-377.604,-429 -264.396,-429 "/>
<text text-anchor="start" x="-369.604" y="-413.8" font-family="Times,serif" font-size="14.00">_layout</text>
<text text-anchor="start" x="-369.604" y="-399.8" font-family="Times,serif" font-size="14.00">brand_params</text>
<text text-anchor="start" x="-369.604" y="-385.8" font-family="Times,serif" font-size="14.00">set_brand</text>
</g>
<!-- ClientActionsController -->
<g id="node6" class="node"><title>ClientActionsController</title>
<path fill="none" stroke="black" d="M-401.659,-235C-401.659,-235 -274.341,-235 -274.341,-235 -268.341,-235 -262.341,-241 -262.341,-247 -262.341,-247 -262.341,-327 -262.341,-327 -262.341,-333 -268.341,-339 -274.341,-339 -274.341,-339 -401.659,-339 -401.659,-339 -407.659,-339 -413.659,-333 -413.659,-327 -413.659,-327 -413.659,-247 -413.659,-247 -413.659,-241 -407.659,-235 -401.659,-235"/>
<text text-anchor="middle" x="-338" y="-323.8" font-family="Times,serif" font-size="14.00">ClientActionsController</text>
<polyline fill="none" stroke="black" points="-413.659,-317 -262.341,-317 "/>
<text text-anchor="start" x="-405.659" y="-301.8" font-family="Times,serif" font-size="14.00">home</text>
<text text-anchor="start" x="-405.659" y="-287.8" font-family="Times,serif" font-size="14.00">show</text>
<polyline fill="none" stroke="black" points="-413.659,-281 -262.341,-281 "/>
<polyline fill="none" stroke="black" points="-413.659,-257 -262.341,-257 "/>
<text text-anchor="start" x="-405.659" y="-241.8" font-family="Times,serif" font-size="14.00">_layout</text>
</g>
<!-- GenericCarsController -->
<g id="node7" class="node"><title>GenericCarsController</title>
<path fill="none" stroke="black" d="M138.245,125C138.245,125 257.755,125 257.755,125 263.755,125 269.755,119 269.755,113 269.755,113 269.755,-121 269.755,-121 269.755,-127 263.755,-133 257.755,-133 257.755,-133 138.245,-133 138.245,-133 132.245,-133 126.245,-127 126.245,-121 126.245,-121 126.245,113 126.245,113 126.245,119 132.245,125 138.245,125"/>
<text text-anchor="middle" x="198" y="-117.8" font-family="Times,serif" font-size="14.00">GenericCarsController</text>
<polyline fill="none" stroke="black" points="126.245,-111 269.755,-111 "/>
<text text-anchor="start" x="134.245" y="-95.8" font-family="Times,serif" font-size="14.00">assignation</text>
<text text-anchor="start" x="134.245" y="-81.8" font-family="Times,serif" font-size="14.00">create</text>
<text text-anchor="start" x="134.245" y="-67.8" font-family="Times,serif" font-size="14.00">destroy</text>
<text text-anchor="start" x="134.245" y="-53.8" font-family="Times,serif" font-size="14.00">edit</text>
<text text-anchor="start" x="134.245" y="-39.8" font-family="Times,serif" font-size="14.00">index</text>
<text text-anchor="start" x="134.245" y="-25.8" font-family="Times,serif" font-size="14.00">new</text>
<text text-anchor="start" x="134.245" y="-11.8" font-family="Times,serif" font-size="14.00">relate_generic_family</text>
<text text-anchor="start" x="134.245" y="2.2" font-family="Times,serif" font-size="14.00">search_by_model</text>
<text text-anchor="start" x="134.245" y="16.2" font-family="Times,serif" font-size="14.00">show</text>
<text text-anchor="start" x="134.245" y="30.2" font-family="Times,serif" font-size="14.00">update</text>
<text text-anchor="start" x="134.245" y="44.2" font-family="Times,serif" font-size="14.00">update_generation</text>
<polyline fill="none" stroke="black" points="126.245,51 269.755,51 "/>
<polyline fill="none" stroke="black" points="126.245,75 269.755,75 "/>
<text text-anchor="start" x="134.245" y="90.2" font-family="Times,serif" font-size="14.00">_layout</text>
<text text-anchor="start" x="134.245" y="104.2" font-family="Times,serif" font-size="14.00">generic_car_params</text>
<text text-anchor="start" x="134.245" y="118.2" font-family="Times,serif" font-size="14.00">set_generic_car</text>
</g>
<!-- GenericFamiliesController -->
<g id="node8" class="node"><title>GenericFamiliesController</title>
<path fill="none" stroke="black" d="M173.965,-163C173.965,-163 316.035,-163 316.035,-163 322.035,-163 328.035,-169 328.035,-175 328.035,-175 328.035,-381 328.035,-381 328.035,-387 322.035,-393 316.035,-393 316.035,-393 173.965,-393 173.965,-393 167.965,-393 161.965,-387 161.965,-381 161.965,-381 161.965,-175 161.965,-175 161.965,-169 167.965,-163 173.965,-163"/>
<text text-anchor="middle" x="245" y="-377.8" font-family="Times,serif" font-size="14.00">GenericFamiliesController</text>
<polyline fill="none" stroke="black" points="161.965,-371 328.035,-371 "/>
<text text-anchor="start" x="169.965" y="-355.8" font-family="Times,serif" font-size="14.00">assign</text>
<text text-anchor="start" x="169.965" y="-341.8" font-family="Times,serif" font-size="14.00">assigned</text>
<text text-anchor="start" x="169.965" y="-327.8" font-family="Times,serif" font-size="14.00">create</text>
<text text-anchor="start" x="169.965" y="-313.8" font-family="Times,serif" font-size="14.00">destroy</text>
<text text-anchor="start" x="169.965" y="-299.8" font-family="Times,serif" font-size="14.00">edit</text>
<text text-anchor="start" x="169.965" y="-285.8" font-family="Times,serif" font-size="14.00">index</text>
<text text-anchor="start" x="169.965" y="-271.8" font-family="Times,serif" font-size="14.00">new</text>
<text text-anchor="start" x="169.965" y="-257.8" font-family="Times,serif" font-size="14.00">not_assigned</text>
<text text-anchor="start" x="169.965" y="-243.8" font-family="Times,serif" font-size="14.00">show</text>
<polyline fill="none" stroke="black" points="161.965,-237 328.035,-237 "/>
<polyline fill="none" stroke="black" points="161.965,-213 328.035,-213 "/>
<text text-anchor="start" x="169.965" y="-197.8" font-family="Times,serif" font-size="14.00">_layout</text>
<text text-anchor="start" x="169.965" y="-183.8" font-family="Times,serif" font-size="14.00">required_params</text>
<text text-anchor="start" x="169.965" y="-169.8" font-family="Times,serif" font-size="14.00">set_family</text>
</g>
<!-- GenericSparesController -->
<g id="node9" class="node"><title>GenericSparesController</title>
<path fill="none" stroke="black" d="M-221.586,-235C-221.586,-235 -90.4136,-235 -90.4136,-235 -84.4136,-235 -78.4136,-241 -78.4136,-247 -78.4136,-247 -78.4136,-453 -78.4136,-453 -78.4136,-459 -84.4136,-465 -90.4136,-465 -90.4136,-465 -221.586,-465 -221.586,-465 -227.586,-465 -233.586,-459 -233.586,-453 -233.586,-453 -233.586,-247 -233.586,-247 -233.586,-241 -227.586,-235 -221.586,-235"/>
<text text-anchor="middle" x="-156" y="-449.8" font-family="Times,serif" font-size="14.00">GenericSparesController</text>
<polyline fill="none" stroke="black" points="-233.586,-443 -78.4136,-443 "/>
<text text-anchor="start" x="-225.586" y="-427.8" font-family="Times,serif" font-size="14.00">create</text>
<text text-anchor="start" x="-225.586" y="-413.8" font-family="Times,serif" font-size="14.00">destroy</text>
<text text-anchor="start" x="-225.586" y="-399.8" font-family="Times,serif" font-size="14.00">edit</text>
<text text-anchor="start" x="-225.586" y="-385.8" font-family="Times,serif" font-size="14.00">generic_spare_params</text>
<text text-anchor="start" x="-225.586" y="-371.8" font-family="Times,serif" font-size="14.00">index</text>
<text text-anchor="start" x="-225.586" y="-357.8" font-family="Times,serif" font-size="14.00">new</text>
<text text-anchor="start" x="-225.586" y="-343.8" font-family="Times,serif" font-size="14.00">newTemplate</text>
<text text-anchor="start" x="-225.586" y="-329.8" font-family="Times,serif" font-size="14.00">set_generic_spare</text>
<text text-anchor="start" x="-225.586" y="-315.8" font-family="Times,serif" font-size="14.00">show</text>
<text text-anchor="start" x="-225.586" y="-301.8" font-family="Times,serif" font-size="14.00">template</text>
<text text-anchor="start" x="-225.586" y="-287.8" font-family="Times,serif" font-size="14.00">update</text>
<polyline fill="none" stroke="black" points="-233.586,-281 -78.4136,-281 "/>
<polyline fill="none" stroke="black" points="-233.586,-257 -78.4136,-257 "/>
<text text-anchor="start" x="-225.586" y="-241.8" font-family="Times,serif" font-size="14.00">_layout</text>
</g>
<!-- InventoriesController -->
<g id="node10" class="node"><title>InventoriesController</title>
<path fill="none" stroke="black" d="M-114.066,143C-114.066,143 80.0659,143 80.0659,143 86.0659,143 92.0659,137 92.0659,131 92.0659,131 92.0659,-117 92.0659,-117 92.0659,-123 86.0659,-129 80.0659,-129 80.0659,-129 -114.066,-129 -114.066,-129 -120.066,-129 -126.066,-123 -126.066,-117 -126.066,-117 -126.066,131 -126.066,131 -126.066,137 -120.066,143 -114.066,143"/>
<text text-anchor="middle" x="-17" y="-113.8" font-family="Times,serif" font-size="14.00">InventoriesController</text>
<polyline fill="none" stroke="black" points="-126.066,-107 92.0659,-107 "/>
<text text-anchor="start" x="-118.066" y="-91.8" font-family="Times,serif" font-size="14.00">acomodate</text>
<text text-anchor="start" x="-118.066" y="-77.8" font-family="Times,serif" font-size="14.00">add_family_with_spares_to_order</text>
<text text-anchor="start" x="-118.066" y="-63.8" font-family="Times,serif" font-size="14.00">add_new_stock</text>
<text text-anchor="start" x="-118.066" y="-49.8" font-family="Times,serif" font-size="14.00">all</text>
<text text-anchor="start" x="-118.066" y="-35.8" font-family="Times,serif" font-size="14.00">departure</text>
<text text-anchor="start" x="-118.066" y="-21.8" font-family="Times,serif" font-size="14.00">departure_stock_family</text>
<text text-anchor="start" x="-118.066" y="-7.8" font-family="Times,serif" font-size="14.00">entrance</text>
<text text-anchor="start" x="-118.066" y="6.2" font-family="Times,serif" font-size="14.00">index</text>
<text text-anchor="start" x="-118.066" y="20.2" font-family="Times,serif" font-size="14.00">orders</text>
<text text-anchor="start" x="-118.066" y="34.2" font-family="Times,serif" font-size="14.00">save_store_stocks</text>
<text text-anchor="start" x="-118.066" y="48.2" font-family="Times,serif" font-size="14.00">search_stock</text>
<text text-anchor="start" x="-118.066" y="62.2" font-family="Times,serif" font-size="14.00">show_generic_car_generic_families</text>
<text text-anchor="start" x="-118.066" y="76.2" font-family="Times,serif" font-size="14.00">store_stocks</text>
<text text-anchor="start" x="-118.066" y="90.2" font-family="Times,serif" font-size="14.00">worker</text>
<polyline fill="none" stroke="black" points="-126.066,97 92.0659,97 "/>
<polyline fill="none" stroke="black" points="-126.066,121 92.0659,121 "/>
<text text-anchor="start" x="-118.066" y="136.2" font-family="Times,serif" font-size="14.00">_layout</text>
</g>
<!-- InvoicesController -->
<g id="node11" class="node"><title>InvoicesController</title>
<path fill="none" stroke="black" d="M551.514,107C551.514,107 648.486,107 648.486,107 654.486,107 660.486,101 660.486,95 660.486,95 660.486,29 660.486,29 660.486,23 654.486,17 648.486,17 648.486,17 551.514,17 551.514,17 545.514,17 539.514,23 539.514,29 539.514,29 539.514,95 539.514,95 539.514,101 545.514,107 551.514,107"/>
<text text-anchor="middle" x="600" y="32.2" font-family="Times,serif" font-size="14.00">InvoicesController</text>
<polyline fill="none" stroke="black" points="539.514,39 660.486,39 "/>
<text text-anchor="start" x="547.514" y="54.2" font-family="Times,serif" font-size="14.00">home</text>
<polyline fill="none" stroke="black" points="539.514,61 660.486,61 "/>
<polyline fill="none" stroke="black" points="539.514,85 660.486,85 "/>
<text text-anchor="start" x="547.514" y="100.2" font-family="Times,serif" font-size="14.00">_layout</text>
</g>
<!-- ModelAcronymsController -->
<g id="node12" class="node"><title>ModelAcronymsController</title>
<path fill="none" stroke="black" d="M-24.2104,-163C-24.2104,-163 120.21,-163 120.21,-163 126.21,-163 132.21,-169 132.21,-175 132.21,-175 132.21,-353 132.21,-353 132.21,-359 126.21,-365 120.21,-365 120.21,-365 -24.2104,-365 -24.2104,-365 -30.2104,-365 -36.2104,-359 -36.2104,-353 -36.2104,-353 -36.2104,-175 -36.2104,-175 -36.2104,-169 -30.2104,-163 -24.2104,-163"/>
<text text-anchor="middle" x="48" y="-349.8" font-family="Times,serif" font-size="14.00">ModelAcronymsController</text>
<polyline fill="none" stroke="black" points="-36.2104,-343 132.21,-343 "/>
<text text-anchor="start" x="-28.2104" y="-327.8" font-family="Times,serif" font-size="14.00">create</text>
<text text-anchor="start" x="-28.2104" y="-313.8" font-family="Times,serif" font-size="14.00">destroy</text>
<text text-anchor="start" x="-28.2104" y="-299.8" font-family="Times,serif" font-size="14.00">edit</text>
<text text-anchor="start" x="-28.2104" y="-285.8" font-family="Times,serif" font-size="14.00">index</text>
<text text-anchor="start" x="-28.2104" y="-271.8" font-family="Times,serif" font-size="14.00">new</text>
<text text-anchor="start" x="-28.2104" y="-257.8" font-family="Times,serif" font-size="14.00">show</text>
<text text-anchor="start" x="-28.2104" y="-243.8" font-family="Times,serif" font-size="14.00">update</text>
<polyline fill="none" stroke="black" points="-36.2104,-237 132.21,-237 "/>
<polyline fill="none" stroke="black" points="-36.2104,-213 132.21,-213 "/>
<text text-anchor="start" x="-28.2104" y="-197.8" font-family="Times,serif" font-size="14.00">_layout</text>
<text text-anchor="start" x="-28.2104" y="-183.8" font-family="Times,serif" font-size="14.00">model_acronym_params</text>
<text text-anchor="start" x="-28.2104" y="-169.8" font-family="Times,serif" font-size="14.00">set_model_acronym</text>
</g>
<!-- MoldSparesController -->
<g id="node13" class="node"><title>MoldSparesController</title>
<path fill="none" stroke="black" d="M372.396,35C372.396,35 489.604,35 489.604,35 495.604,35 501.604,29 501.604,23 501.604,23 501.604,-155 501.604,-155 501.604,-161 495.604,-167 489.604,-167 489.604,-167 372.396,-167 372.396,-167 366.396,-167 360.396,-161 360.396,-155 360.396,-155 360.396,23 360.396,23 360.396,29 366.396,35 372.396,35"/>
<text text-anchor="middle" x="431" y="-151.8" font-family="Times,serif" font-size="14.00">MoldSparesController</text>
<polyline fill="none" stroke="black" points="360.396,-145 501.604,-145 "/>
<text text-anchor="start" x="368.396" y="-129.8" font-family="Times,serif" font-size="14.00">create</text>
<text text-anchor="start" x="368.396" y="-115.8" font-family="Times,serif" font-size="14.00">destroy</text>
<text text-anchor="start" x="368.396" y="-101.8" font-family="Times,serif" font-size="14.00">edit</text>
<text text-anchor="start" x="368.396" y="-87.8" font-family="Times,serif" font-size="14.00">index</text>
<text text-anchor="start" x="368.396" y="-73.8" font-family="Times,serif" font-size="14.00">new</text>
<text text-anchor="start" x="368.396" y="-59.8" font-family="Times,serif" font-size="14.00">show</text>
<text text-anchor="start" x="368.396" y="-45.8" font-family="Times,serif" font-size="14.00">update</text>
<polyline fill="none" stroke="black" points="360.396,-39 501.604,-39 "/>
<polyline fill="none" stroke="black" points="360.396,-15 501.604,-15 "/>
<text text-anchor="start" x="368.396" y="0.2" font-family="Times,serif" font-size="14.00">_layout</text>
<text text-anchor="start" x="368.396" y="14.2" font-family="Times,serif" font-size="14.00">mold_spare_params</text>
<text text-anchor="start" x="368.396" y="28.2" font-family="Times,serif" font-size="14.00">set_mold_spare</text>
</g>
<!-- OrdersController -->
<g id="node14" class="node"><title>OrdersController</title>
<path fill="none" stroke="black" d="M372.179,-199C372.179,-199 459.821,-199 459.821,-199 465.821,-199 471.821,-205 471.821,-211 471.821,-211 471.821,-417 471.821,-417 471.821,-423 465.821,-429 459.821,-429 459.821,-429 372.179,-429 372.179,-429 366.179,-429 360.179,-423 360.179,-417 360.179,-417 360.179,-211 360.179,-211 360.179,-205 366.179,-199 372.179,-199"/>
<text text-anchor="middle" x="416" y="-413.8" font-family="Times,serif" font-size="14.00">OrdersController</text>
<polyline fill="none" stroke="black" points="360.179,-407 471.821,-407 "/>
<text text-anchor="start" x="368.179" y="-391.8" font-family="Times,serif" font-size="14.00">create</text>
<text text-anchor="start" x="368.179" y="-377.8" font-family="Times,serif" font-size="14.00">create2</text>
<text text-anchor="start" x="368.179" y="-363.8" font-family="Times,serif" font-size="14.00">destroy</text>
<text text-anchor="start" x="368.179" y="-349.8" font-family="Times,serif" font-size="14.00">edit</text>
<text text-anchor="start" x="368.179" y="-335.8" font-family="Times,serif" font-size="14.00">index</text>
<text text-anchor="start" x="368.179" y="-321.8" font-family="Times,serif" font-size="14.00">new</text>
<text text-anchor="start" x="368.179" y="-307.8" font-family="Times,serif" font-size="14.00">print_label</text>
<text text-anchor="start" x="368.179" y="-293.8" font-family="Times,serif" font-size="14.00">show</text>
<text text-anchor="start" x="368.179" y="-279.8" font-family="Times,serif" font-size="14.00">update</text>
<polyline fill="none" stroke="black" points="360.179,-273 471.821,-273 "/>
<polyline fill="none" stroke="black" points="360.179,-249 471.821,-249 "/>
<text text-anchor="start" x="368.179" y="-233.8" font-family="Times,serif" font-size="14.00">_layout</text>
<text text-anchor="start" x="368.179" y="-219.8" font-family="Times,serif" font-size="14.00">order_params</text>
<text text-anchor="start" x="368.179" y="-205.8" font-family="Times,serif" font-size="14.00">set_order</text>
</g>
<!-- PrevaluationsController -->
<g id="node15" class="node"><title>PrevaluationsController</title>
<path fill="none" stroke="black" d="M-419.876,431C-419.876,431 -294.124,431 -294.124,431 -288.124,431 -282.124,425 -282.124,419 -282.124,419 -282.124,311 -282.124,311 -282.124,305 -288.124,299 -294.124,299 -294.124,299 -419.876,299 -419.876,299 -425.876,299 -431.876,305 -431.876,311 -431.876,311 -431.876,419 -431.876,419 -431.876,425 -425.876,431 -419.876,431"/>
<text text-anchor="middle" x="-357" y="314.2" font-family="Times,serif" font-size="14.00">PrevaluationsController</text>
<polyline fill="none" stroke="black" points="-431.876,321 -282.124,321 "/>
<text text-anchor="start" x="-423.876" y="336.2" font-family="Times,serif" font-size="14.00">create</text>
<text text-anchor="start" x="-423.876" y="350.2" font-family="Times,serif" font-size="14.00">new</text>
<text text-anchor="start" x="-423.876" y="364.2" font-family="Times,serif" font-size="14.00">pre_valuation_params</text>
<text text-anchor="start" x="-423.876" y="378.2" font-family="Times,serif" font-size="14.00">show</text>
<polyline fill="none" stroke="black" points="-431.876,385 -282.124,385 "/>
<polyline fill="none" stroke="black" points="-431.876,409 -282.124,409 "/>
<text text-anchor="start" x="-423.876" y="424.2" font-family="Times,serif" font-size="14.00">_layout</text>
</g>
<!-- ReportsController -->
<g id="node16" class="node"><title>ReportsController</title>
<path fill="none" stroke="black" d="M-437.548,-1C-437.548,-1 -344.452,-1 -344.452,-1 -338.452,-1 -332.452,-7 -332.452,-13 -332.452,-13 -332.452,-149 -332.452,-149 -332.452,-155 -338.452,-161 -344.452,-161 -344.452,-161 -437.548,-161 -437.548,-161 -443.548,-161 -449.548,-155 -449.548,-149 -449.548,-149 -449.548,-13 -449.548,-13 -449.548,-7 -443.548,-1 -437.548,-1"/>
<text text-anchor="middle" x="-391" y="-145.8" font-family="Times,serif" font-size="14.00">ReportsController</text>
<polyline fill="none" stroke="black" points="-449.548,-139 -332.452,-139 "/>
<text text-anchor="start" x="-441.548" y="-123.8" font-family="Times,serif" font-size="14.00">cars</text>
<text text-anchor="start" x="-441.548" y="-109.8" font-family="Times,serif" font-size="14.00">index</text>
<text text-anchor="start" x="-441.548" y="-95.8" font-family="Times,serif" font-size="14.00">insurance</text>
<text text-anchor="start" x="-441.548" y="-81.8" font-family="Times,serif" font-size="14.00">new</text>
<text text-anchor="start" x="-441.548" y="-67.8" font-family="Times,serif" font-size="14.00">repair</text>
<text text-anchor="start" x="-441.548" y="-53.8" font-family="Times,serif" font-size="14.00">show</text>
<polyline fill="none" stroke="black" points="-449.548,-47 -332.452,-47 "/>
<polyline fill="none" stroke="black" points="-449.548,-23 -332.452,-23 "/>
<text text-anchor="start" x="-441.548" y="-7.8" font-family="Times,serif" font-size="14.00">_layout</text>
</g>
<!-- RosterController -->
<g id="node17" class="node"><title>RosterController</title>
<path fill="none" stroke="black" d="M480.031,269C480.031,269 597.969,269 597.969,269 603.969,269 609.969,263 609.969,257 609.969,257 609.969,163 609.969,163 609.969,157 603.969,151 597.969,151 597.969,151 480.031,151 480.031,151 474.031,151 468.031,157 468.031,163 468.031,163 468.031,257 468.031,257 468.031,263 474.031,269 480.031,269"/>
<text text-anchor="middle" x="539" y="166.2" font-family="Times,serif" font-size="14.00">RosterController</text>
<polyline fill="none" stroke="black" points="468.031,173 609.969,173 "/>
<text text-anchor="start" x="476.031" y="188.2" font-family="Times,serif" font-size="14.00">attendance</text>
<text text-anchor="start" x="476.031" y="202.2" font-family="Times,serif" font-size="14.00">employeePerformance</text>
<text text-anchor="start" x="476.031" y="216.2" font-family="Times,serif" font-size="14.00">index</text>
<polyline fill="none" stroke="black" points="468.031,223 609.969,223 "/>
<polyline fill="none" stroke="black" points="468.031,247 609.969,247 "/>
<text text-anchor="start" x="476.031" y="262.2" font-family="Times,serif" font-size="14.00">_layout</text>
</g>
<!-- SectionsController -->
<g id="node18" class="node"><title>SectionsController</title>
<path fill="none" stroke="black" d="M209.507,-433C209.507,-433 306.493,-433 306.493,-433 312.493,-433 318.493,-439 318.493,-445 318.493,-445 318.493,-623 318.493,-623 318.493,-629 312.493,-635 306.493,-635 306.493,-635 209.507,-635 209.507,-635 203.507,-635 197.507,-629 197.507,-623 197.507,-623 197.507,-445 197.507,-445 197.507,-439 203.507,-433 209.507,-433"/>
<text text-anchor="middle" x="258" y="-619.8" font-family="Times,serif" font-size="14.00">SectionsController</text>
<polyline fill="none" stroke="black" points="197.507,-613 318.493,-613 "/>
<text text-anchor="start" x="205.507" y="-597.8" font-family="Times,serif" font-size="14.00">create</text>
<text text-anchor="start" x="205.507" y="-583.8" font-family="Times,serif" font-size="14.00">destroy</text>
<text text-anchor="start" x="205.507" y="-569.8" font-family="Times,serif" font-size="14.00">edit</text>
<text text-anchor="start" x="205.507" y="-555.8" font-family="Times,serif" font-size="14.00">index</text>
<text text-anchor="start" x="205.507" y="-541.8" font-family="Times,serif" font-size="14.00">new</text>
<text text-anchor="start" x="205.507" y="-527.8" font-family="Times,serif" font-size="14.00">show</text>
<text text-anchor="start" x="205.507" y="-513.8" font-family="Times,serif" font-size="14.00">update</text>
<polyline fill="none" stroke="black" points="197.507,-507 318.493,-507 "/>
<polyline fill="none" stroke="black" points="197.507,-483 318.493,-483 "/>
<text text-anchor="start" x="205.507" y="-467.8" font-family="Times,serif" font-size="14.00">_layout</text>
<text text-anchor="start" x="205.507" y="-453.8" font-family="Times,serif" font-size="14.00">section_params</text>
<text text-anchor="start" x="205.507" y="-439.8" font-family="Times,serif" font-size="14.00">set_section</text>
</g>
<!-- SessionsController -->
<g id="node19" class="node"><title>SessionsController</title>
<path fill="none" stroke="black" d="M516.11,-199C516.11,-199 613.89,-199 613.89,-199 619.89,-199 625.89,-205 625.89,-211 625.89,-211 625.89,-305 625.89,-305 625.89,-311 619.89,-317 613.89,-317 613.89,-317 516.11,-317 516.11,-317 510.11,-317 504.11,-311 504.11,-305 504.11,-305 504.11,-211 504.11,-211 504.11,-205 510.11,-199 516.11,-199"/>
<text text-anchor="middle" x="565" y="-301.8" font-family="Times,serif" font-size="14.00">SessionsController</text>
<polyline fill="none" stroke="black" points="504.11,-295 625.89,-295 "/>
<text text-anchor="start" x="512.11" y="-279.8" font-family="Times,serif" font-size="14.00">create</text>
<text text-anchor="start" x="512.11" y="-265.8" font-family="Times,serif" font-size="14.00">destroy</text>
<text text-anchor="start" x="512.11" y="-251.8" font-family="Times,serif" font-size="14.00">new</text>
<polyline fill="none" stroke="black" points="504.11,-245 625.89,-245 "/>
<polyline fill="none" stroke="black" points="504.11,-221 625.89,-221 "/>
<text text-anchor="start" x="512.11" y="-205.8" font-family="Times,serif" font-size="14.00">_layout</text>
</g>
<!-- SparesController -->
<g id="node20" class="node"><title>SparesController</title>
<path fill="none" stroke="black" d="M-132.435,-505C-132.435,-505 -45.5654,-505 -45.5654,-505 -39.5654,-505 -33.5654,-511 -33.5654,-517 -33.5654,-517 -33.5654,-611 -33.5654,-611 -33.5654,-617 -39.5654,-623 -45.5654,-623 -45.5654,-623 -132.435,-623 -132.435,-623 -138.435,-623 -144.435,-617 -144.435,-611 -144.435,-611 -144.435,-517 -144.435,-517 -144.435,-511 -138.435,-505 -132.435,-505"/>
<text text-anchor="middle" x="-89" y="-607.8" font-family="Times,serif" font-size="14.00">SparesController</text>
<polyline fill="none" stroke="black" points="-144.435,-601 -33.5654,-601 "/>
<text text-anchor="start" x="-136.435" y="-585.8" font-family="Times,serif" font-size="14.00">edit</text>
<text text-anchor="start" x="-136.435" y="-571.8" font-family="Times,serif" font-size="14.00">index</text>
<text text-anchor="start" x="-136.435" y="-557.8" font-family="Times,serif" font-size="14.00">new</text>
<polyline fill="none" stroke="black" points="-144.435,-551 -33.5654,-551 "/>
<polyline fill="none" stroke="black" points="-144.435,-527 -33.5654,-527 "/>
<text text-anchor="start" x="-136.435" y="-511.8" font-family="Times,serif" font-size="14.00">_layout</text>
</g>
<!-- StockCarsController -->
<g id="node21" class="node"><title>StockCarsController</title>
<path fill="none" stroke="black" d="M138.452,359C138.452,359 245.548,359 245.548,359 251.548,359 257.548,353 257.548,347 257.548,347 257.548,169 257.548,169 257.548,163 251.548,157 245.548,157 245.548,157 138.452,157 138.452,157 132.452,157 126.452,163 126.452,169 126.452,169 126.452,347 126.452,347 126.452,353 132.452,359 138.452,359"/>
<text text-anchor="middle" x="192" y="172.2" font-family="Times,serif" font-size="14.00">StockCarsController</text>
<polyline fill="none" stroke="black" points="126.452,179 257.548,179 "/>
<text text-anchor="start" x="134.452" y="194.2" font-family="Times,serif" font-size="14.00">create</text>
<text text-anchor="start" x="134.452" y="208.2" font-family="Times,serif" font-size="14.00">destroy</text>
<text text-anchor="start" x="134.452" y="222.2" font-family="Times,serif" font-size="14.00">edit</text>
<text text-anchor="start" x="134.452" y="236.2" font-family="Times,serif" font-size="14.00">index</text>
<text text-anchor="start" x="134.452" y="250.2" font-family="Times,serif" font-size="14.00">new</text>
<text text-anchor="start" x="134.452" y="264.2" font-family="Times,serif" font-size="14.00">show</text>
<text text-anchor="start" x="134.452" y="278.2" font-family="Times,serif" font-size="14.00">update</text>
<polyline fill="none" stroke="black" points="126.452,285 257.548,285 "/>
<polyline fill="none" stroke="black" points="126.452,309 257.548,309 "/>
<text text-anchor="start" x="134.452" y="324.2" font-family="Times,serif" font-size="14.00">_layout</text>
<text text-anchor="start" x="134.452" y="338.2" font-family="Times,serif" font-size="14.00">set_stock_car</text>
<text text-anchor="start" x="134.452" y="352.2" font-family="Times,serif" font-size="14.00">stock_car_params</text>
</g>
<!-- StockFamiliesController -->
<g id="node22" class="node"><title>StockFamiliesController</title>
<path fill="none" stroke="black" d="M-293.828,17C-293.828,17 -164.172,17 -164.172,17 -158.172,17 -152.172,11 -152.172,5 -152.172,5 -152.172,-187 -152.172,-187 -152.172,-193 -158.172,-199 -164.172,-199 -164.172,-199 -293.828,-199 -293.828,-199 -299.828,-199 -305.828,-193 -305.828,-187 -305.828,-187 -305.828,5 -305.828,5 -305.828,11 -299.828,17 -293.828,17"/>
<text text-anchor="middle" x="-229" y="-183.8" font-family="Times,serif" font-size="14.00">StockFamiliesController</text>
<polyline fill="none" stroke="black" points="-305.828,-177 -152.172,-177 "/>
<text text-anchor="start" x="-297.828" y="-161.8" font-family="Times,serif" font-size="14.00">choose_label</text>
<text text-anchor="start" x="-297.828" y="-147.8" font-family="Times,serif" font-size="14.00">destroy</text>
<text text-anchor="start" x="-297.828" y="-133.8" font-family="Times,serif" font-size="14.00">edit</text>
<text text-anchor="start" x="-297.828" y="-119.8" font-family="Times,serif" font-size="14.00">history</text>
<text text-anchor="start" x="-297.828" y="-105.8" font-family="Times,serif" font-size="14.00">new</text>
<text text-anchor="start" x="-297.828" y="-91.8" font-family="Times,serif" font-size="14.00">print_label</text>
<text text-anchor="start" x="-297.828" y="-77.8" font-family="Times,serif" font-size="14.00">show</text>
<text text-anchor="start" x="-297.828" y="-63.8" font-family="Times,serif" font-size="14.00">update</text>
<polyline fill="none" stroke="black" points="-305.828,-57 -152.172,-57 "/>
<polyline fill="none" stroke="black" points="-305.828,-33 -152.172,-33 "/>
<text text-anchor="start" x="-297.828" y="-17.8" font-family="Times,serif" font-size="14.00">_layout</text>
<text text-anchor="start" x="-297.828" y="-3.8" font-family="Times,serif" font-size="14.00">set_family</text>
<text text-anchor="start" x="-297.828" y="10.2" font-family="Times,serif" font-size="14.00">stock_family_params</text>
</g>
<!-- StockSparesController -->
<g id="node23" class="node"><title>StockSparesController</title>
<path fill="none" stroke="black" d="M479.621,467C479.621,467 598.379,467 598.379,467 604.379,467 610.379,461 610.379,455 610.379,455 610.379,319 610.379,319 610.379,313 604.379,307 598.379,307 598.379,307 479.621,307 479.621,307 473.621,307 467.621,313 467.621,319 467.621,319 467.621,455 467.621,455 467.621,461 473.621,467 479.621,467"/>
<text text-anchor="middle" x="539" y="322.2" font-family="Times,serif" font-size="14.00">StockSparesController</text>
<polyline fill="none" stroke="black" points="467.621,329 610.379,329 "/>
<text text-anchor="start" x="475.621" y="344.2" font-family="Times,serif" font-size="14.00">edit</text>
<text text-anchor="start" x="475.621" y="358.2" font-family="Times,serif" font-size="14.00">history</text>
<text text-anchor="start" x="475.621" y="372.2" font-family="Times,serif" font-size="14.00">show</text>
<text text-anchor="start" x="475.621" y="386.2" font-family="Times,serif" font-size="14.00">update</text>
<polyline fill="none" stroke="black" points="467.621,393 610.379,393 "/>
<polyline fill="none" stroke="black" points="467.621,417 610.379,417 "/>
<text text-anchor="start" x="475.621" y="432.2" font-family="Times,serif" font-size="14.00">_layout</text>
<text text-anchor="start" x="475.621" y="446.2" font-family="Times,serif" font-size="14.00">set_spare</text>
<text text-anchor="start" x="475.621" y="460.2" font-family="Times,serif" font-size="14.00">stock_family_params</text>
</g>
<!-- SubsectionsController -->
<g id="node24" class="node"><title>SubsectionsController</title>
<path fill="none" stroke="black" d="M-294.217,269C-294.217,269 -177.783,269 -177.783,269 -171.783,269 -165.783,263 -165.783,257 -165.783,257 -165.783,65 -165.783,65 -165.783,59 -171.783,53 -177.783,53 -177.783,53 -294.217,53 -294.217,53 -300.217,53 -306.217,59 -306.217,65 -306.217,65 -306.217,257 -306.217,257 -306.217,263 -300.217,269 -294.217,269"/>
<text text-anchor="middle" x="-236" y="68.2" font-family="Times,serif" font-size="14.00">SubsectionsController</text>
<polyline fill="none" stroke="black" points="-306.217,75 -165.783,75 "/>
<text text-anchor="start" x="-298.217" y="90.2" font-family="Times,serif" font-size="14.00">create</text>
<text text-anchor="start" x="-298.217" y="104.2" font-family="Times,serif" font-size="14.00">destroy</text>
<text text-anchor="start" x="-298.217" y="118.2" font-family="Times,serif" font-size="14.00">edit</text>
<text text-anchor="start" x="-298.217" y="132.2" font-family="Times,serif" font-size="14.00">index</text>
<text text-anchor="start" x="-298.217" y="146.2" font-family="Times,serif" font-size="14.00">new</text>
<text text-anchor="start" x="-298.217" y="160.2" font-family="Times,serif" font-size="14.00">print_label</text>
<text text-anchor="start" x="-298.217" y="174.2" font-family="Times,serif" font-size="14.00">show</text>
<text text-anchor="start" x="-298.217" y="188.2" font-family="Times,serif" font-size="14.00">update</text>
<polyline fill="none" stroke="black" points="-306.217,195 -165.783,195 "/>
<polyline fill="none" stroke="black" points="-306.217,219 -165.783,219 "/>
<text text-anchor="start" x="-298.217" y="234.2" font-family="Times,serif" font-size="14.00">_layout</text>
<text text-anchor="start" x="-298.217" y="248.2" font-family="Times,serif" font-size="14.00">set_subsection</text>
<text text-anchor="start" x="-298.217" y="262.2" font-family="Times,serif" font-size="14.00">subsection_params</text>
</g>
<!-- SuppliersController -->
<g id="node25" class="node"><title>SuppliersController</title>
<path fill="none" stroke="black" d="M11.7827,-397C11.7827,-397 114.217,-397 114.217,-397 120.217,-397 126.217,-403 126.217,-409 126.217,-409 126.217,-587 126.217,-587 126.217,-593 120.217,-599 114.217,-599 114.217,-599 11.7827,-599 11.7827,-599 5.78271,-599 -0.217285,-593 -0.217285,-587 -0.217285,-587 -0.217285,-409 -0.217285,-409 -0.217285,-403 5.78271,-397 11.7827,-397"/>
<text text-anchor="middle" x="63" y="-583.8" font-family="Times,serif" font-size="14.00">SuppliersController</text>
<polyline fill="none" stroke="black" points="-0.217285,-577 126.217,-577 "/>
<text text-anchor="start" x="7.78271" y="-561.8" font-family="Times,serif" font-size="14.00">create</text>
<text text-anchor="start" x="7.78271" y="-547.8" font-family="Times,serif" font-size="14.00">destroy</text>
<text text-anchor="start" x="7.78271" y="-533.8" font-family="Times,serif" font-size="14.00">edit</text>
<text text-anchor="start" x="7.78271" y="-519.8" font-family="Times,serif" font-size="14.00">index</text>
<text text-anchor="start" x="7.78271" y="-505.8" font-family="Times,serif" font-size="14.00">new</text>
<text text-anchor="start" x="7.78271" y="-491.8" font-family="Times,serif" font-size="14.00">show</text>
<text text-anchor="start" x="7.78271" y="-477.8" font-family="Times,serif" font-size="14.00">update</text>
<polyline fill="none" stroke="black" points="-0.217285,-471 126.217,-471 "/>
<polyline fill="none" stroke="black" points="-0.217285,-447 126.217,-447 "/>
<text text-anchor="start" x="7.78271" y="-431.8" font-family="Times,serif" font-size="14.00">_layout</text>
<text text-anchor="start" x="7.78271" y="-417.8" font-family="Times,serif" font-size="14.00">set_supplier</text>
<text text-anchor="start" x="7.78271" y="-403.8" font-family="Times,serif" font-size="14.00">supplier_params</text>
</g>
<!-- SuppliesController -->
<g id="node26" class="node"><title>SuppliesController</title>
<path fill="none" stroke="black" d="M318.114,305C318.114,305 415.886,305 415.886,305 421.886,305 427.886,299 427.886,293 427.886,293 427.886,87 427.886,87 427.886,81 421.886,75 415.886,75 415.886,75 318.114,75 318.114,75 312.114,75 306.114,81 306.114,87 306.114,87 306.114,293 306.114,293 306.114,299 312.114,305 318.114,305"/>
<text text-anchor="middle" x="367" y="90.2" font-family="Times,serif" font-size="14.00">SuppliesController</text>
<polyline fill="none" stroke="black" points="306.114,97 427.886,97 "/>
<text text-anchor="start" x="314.114" y="112.2" font-family="Times,serif" font-size="14.00">consumer</text>
<text text-anchor="start" x="314.114" y="126.2" font-family="Times,serif" font-size="14.00">create</text>
<text text-anchor="start" x="314.114" y="140.2" font-family="Times,serif" font-size="14.00">destroy</text>
<text text-anchor="start" x="314.114" y="154.2" font-family="Times,serif" font-size="14.00">edit</text>
<text text-anchor="start" x="314.114" y="168.2" font-family="Times,serif" font-size="14.00">index</text>
<text text-anchor="start" x="314.114" y="182.2" font-family="Times,serif" font-size="14.00">new</text>
<text text-anchor="start" x="314.114" y="196.2" font-family="Times,serif" font-size="14.00">show</text>
<text text-anchor="start" x="314.114" y="210.2" font-family="Times,serif" font-size="14.00">spend</text>
<text text-anchor="start" x="314.114" y="224.2" font-family="Times,serif" font-size="14.00">update</text>
<polyline fill="none" stroke="black" points="306.114,231 427.886,231 "/>
<polyline fill="none" stroke="black" points="306.114,255 427.886,255 "/>
<text text-anchor="start" x="314.114" y="270.2" font-family="Times,serif" font-size="14.00">_layout</text>
<text text-anchor="start" x="314.114" y="284.2" font-family="Times,serif" font-size="14.00">set_supply</text>
<text text-anchor="start" x="314.114" y="298.2" font-family="Times,serif" font-size="14.00">supply_params</text>
</g>
<!-- UsersController -->
<g id="node27" class="node"><title>UsersController</title>
<path fill="none" stroke="black" d="M-437.714,161C-437.714,161 -356.286,161 -356.286,161 -350.286,161 -344.286,155 -344.286,149 -344.286,149 -344.286,41 -344.286,41 -344.286,35 -350.286,29 -356.286,29 -356.286,29 -437.714,29 -437.714,29 -443.714,29 -449.714,35 -449.714,41 -449.714,41 -449.714,149 -449.714,149 -449.714,155 -443.714,161 -437.714,161"/>
<text text-anchor="middle" x="-397" y="44.2" font-family="Times,serif" font-size="14.00">UsersController</text>
<polyline fill="none" stroke="black" points="-449.714,51 -344.286,51 "/>
<text text-anchor="start" x="-441.714" y="66.2" font-family="Times,serif" font-size="14.00">create</text>
<text text-anchor="start" x="-441.714" y="80.2" font-family="Times,serif" font-size="14.00">new</text>
<text text-anchor="start" x="-441.714" y="94.2" font-family="Times,serif" font-size="14.00">show</text>
<polyline fill="none" stroke="black" points="-449.714,101 -344.286,101 "/>
<polyline fill="none" stroke="black" points="-449.714,125 -344.286,125 "/>
<text text-anchor="start" x="-441.714" y="140.2" font-family="Times,serif" font-size="14.00">_layout</text>
<text text-anchor="start" x="-441.714" y="154.2" font-family="Times,serif" font-size="14.00">user_params</text>
</g>
<!-- ValuationsController -->
<g id="node28" class="node"><title>ValuationsController</title>
<path fill="none" stroke="black" d="M299.676,467C299.676,467 408.324,467 408.324,467 414.324,467 420.324,461 420.324,455 420.324,455 420.324,361 420.324,361 420.324,355 414.324,349 408.324,349 408.324,349 299.676,349 299.676,349 293.676,349 287.676,355 287.676,361 287.676,361 287.676,455 287.676,455 287.676,461 293.676,467 299.676,467"/>
<text text-anchor="middle" x="354" y="364.2" font-family="Times,serif" font-size="14.00">ValuationsController</text>
<polyline fill="none" stroke="black" points="287.676,371 420.324,371 "/>
<text text-anchor="start" x="295.676" y="386.2" font-family="Times,serif" font-size="14.00">index</text>
<text text-anchor="start" x="295.676" y="400.2" font-family="Times,serif" font-size="14.00">new</text>
<text text-anchor="start" x="295.676" y="414.2" font-family="Times,serif" font-size="14.00">show</text>
<polyline fill="none" stroke="black" points="287.676,421 420.324,421 "/>
<polyline fill="none" stroke="black" points="287.676,445 420.324,445 "/>
<text text-anchor="start" x="295.676" y="460.2" font-family="Times,serif" font-size="14.00">_layout</text>
</g>
<!-- WarehousesController -->
<g id="node29" class="node"><title>WarehousesController</title>
<path fill="none" stroke="black" d="M-114.422,377C-114.422,377 2.42236,377 2.42236,377 8.42236,377 14.4224,371 14.4224,365 14.4224,365 14.4224,187 14.4224,187 14.4224,181 8.42236,175 2.42236,175 2.42236,175 -114.422,175 -114.422,175 -120.422,175 -126.422,181 -126.422,187 -126.422,187 -126.422,365 -126.422,365 -126.422,371 -120.422,377 -114.422,377"/>
<text text-anchor="middle" x="-56" y="190.2" font-family="Times,serif" font-size="14.00">WarehousesController</text>
<polyline fill="none" stroke="black" points="-126.422,197 14.4224,197 "/>
<text text-anchor="start" x="-118.422" y="212.2" font-family="Times,serif" font-size="14.00">create</text>
<text text-anchor="start" x="-118.422" y="226.2" font-family="Times,serif" font-size="14.00">destroy</text>
<text text-anchor="start" x="-118.422" y="240.2" font-family="Times,serif" font-size="14.00">edit</text>
<text text-anchor="start" x="-118.422" y="254.2" font-family="Times,serif" font-size="14.00">index</text>
<text text-anchor="start" x="-118.422" y="268.2" font-family="Times,serif" font-size="14.00">new</text>
<text text-anchor="start" x="-118.422" y="282.2" font-family="Times,serif" font-size="14.00">show</text>
<text text-anchor="start" x="-118.422" y="296.2" font-family="Times,serif" font-size="14.00">update</text>
<polyline fill="none" stroke="black" points="-126.422,303 14.4224,303 "/>
<polyline fill="none" stroke="black" points="-126.422,327 14.4224,327 "/>
<text text-anchor="start" x="-118.422" y="342.2" font-family="Times,serif" font-size="14.00">_layout</text>
<text text-anchor="start" x="-118.422" y="356.2" font-family="Times,serif" font-size="14.00">set_warehouse</text>
<text text-anchor="start" x="-118.422" y="370.2" font-family="Times,serif" font-size="14.00">warehouse_params</text>
</g>
<!-- WelcomeController -->
<g id="node30" class="node"><title>WelcomeController</title>
<path fill="none" stroke="black" d="M551.967,-19C551.967,-19 654.033,-19 654.033,-19 660.033,-19 666.033,-25 666.033,-31 666.033,-31 666.033,-97 666.033,-97 666.033,-103 660.033,-109 654.033,-109 654.033,-109 551.967,-109 551.967,-109 545.967,-109 539.967,-103 539.967,-97 539.967,-97 539.967,-31 539.967,-31 539.967,-25 545.967,-19 551.967,-19"/>
<text text-anchor="middle" x="603" y="-93.8" font-family="Times,serif" font-size="14.00">WelcomeController</text>
<polyline fill="none" stroke="black" points="539.967,-87 666.033,-87 "/>
<text text-anchor="start" x="547.967" y="-71.8" font-family="Times,serif" font-size="14.00">index</text>
<polyline fill="none" stroke="black" points="539.967,-65 666.033,-65 "/>
<polyline fill="none" stroke="black" points="539.967,-41 666.033,-41 "/>
<text text-anchor="start" x="547.967" y="-25.8" font-family="Times,serif" font-size="14.00">_layout</text>
</g>
</g>
</svg>
