<?xml version="1.0" encoding="UTF-8" standalone="no"?>
<!DOCTYPE svg PUBLIC "-//W3C//DTD SVG 1.1//EN"
 "http://www.w3.org/Graphics/SVG/1.1/DTD/svg11.dtd">
<!-- Generated by graphviz version 2.38.0 (20140413.2041)
 -->
<!-- Title: controllers_diagram Pages: 1 -->
<svg width="748pt" height="531pt"
 viewBox="0.00 0.00 747.69 530.78" xmlns="http://www.w3.org/2000/svg" xmlns:xlink="http://www.w3.org/1999/xlink">
<g id="graph0" class="graph" transform="scale(1 1) rotate(0) translate(250.239 239.824)">
<title>controllers_diagram</title>
<polygon fill="white" stroke="none" points="-250.239,290.959 -250.239,-239.824 497.45,-239.824 497.45,290.959 -250.239,290.959"/>
<!-- _diagram_info -->
<g id="node1" class="node"><title>_diagram_info</title>
<text text-anchor="start" x="294.55" y="227.9" font-family="Times,serif" font-size="13.00">Controllers diagram</text>
<text text-anchor="start" x="294.55" y="240.9" font-family="Times,serif" font-size="13.00">Date: Nov 05 2014 &#45; 11:35</text>
<text text-anchor="start" x="294.55" y="253.9" font-family="Times,serif" font-size="13.00">Migration version: 20141103232822</text>
<text text-anchor="start" x="294.55" y="266.9" font-family="Times,serif" font-size="13.00">Generated by RailRoady 1.1.2</text>
<text text-anchor="start" x="294.55" y="279.9" font-family="Times,serif" font-size="13.00">http://railroady.prestonlee.com</text>
</g>
<!-- ApplicationController -->
<g id="node2" class="node"><title>ApplicationController</title>
<path fill="none" stroke="black" d="M-58.9646,83.2709C-58.9646,83.2709 56.677,83.2709 56.677,83.2709 62.677,83.2709 68.677,77.2709 68.677,71.2709 68.677,71.2709 68.677,3.27093 68.677,3.27093 68.677,-2.72907 62.677,-8.72907 56.677,-8.72907 56.677,-8.72907 -58.9646,-8.72907 -58.9646,-8.72907 -64.9646,-8.72907 -70.9646,-2.72907 -70.9646,3.27093 -70.9646,3.27093 -70.9646,71.2709 -70.9646,71.2709 -70.9646,77.2709 -64.9646,83.2709 -58.9646,83.2709"/>
<text text-anchor="middle" x="-1.14378" y="6.47093" font-family="Times,serif" font-size="14.00">ApplicationController</text>
<polyline fill="none" stroke="black" points="-70.9646,13.2709 68.677,13.2709 "/>
<polyline fill="none" stroke="black" points="-70.9646,37.2709 68.677,37.2709 "/>
<polyline fill="none" stroke="black" points="-70.9646,61.2709 68.677,61.2709 "/>
<text text-anchor="start" x="-62.9646" y="76.4709" font-family="Times,serif" font-size="14.00">_layout</text>
</g>
<!-- BranchesController -->
<g id="node3" class="node"><title>BranchesController</title>
<path fill="none" stroke="black" d="M120.125,87.0052C120.125,87.0052 221.76,87.0052 221.76,87.0052 227.76,87.0052 233.76,81.0052 233.76,75.0052 233.76,75.0052 233.76,7.00522 233.76,7.00522 233.76,1.00522 227.76,-4.99478 221.76,-4.99478 221.76,-4.99478 120.125,-4.99478 120.125,-4.99478 114.125,-4.99478 108.125,1.00522 108.125,7.00522 108.125,7.00522 108.125,75.0052 108.125,75.0052 108.125,81.0052 114.125,87.0052 120.125,87.0052"/>
<text text-anchor="middle" x="170.942" y="10.2052" font-family="Times,serif" font-size="14.00">BranchesController</text>
<polyline fill="none" stroke="black" points="108.125,17.0052 233.76,17.0052 "/>
<polyline fill="none" stroke="black" points="108.125,41.0052 233.76,41.0052 "/>
<polyline fill="none" stroke="black" points="108.125,65.0052 233.76,65.0052 "/>
<text text-anchor="start" x="116.125" y="80.2052" font-family="Times,serif" font-size="14.00">_layout</text>
</g>
<!-- ApplicationController&#45;&gt;BranchesController -->
<g id="edge1" class="edge"><title>ApplicationController&#45;&gt;BranchesController</title>
<path fill="none" stroke="black" d="M68.8502,38.7898C81.7845,39.0705 95.2205,39.362 107.932,39.6379"/>
</g>
<!-- ClientActionsController -->
<g id="node4" class="node"><title>ClientActionsController</title>
<path fill="none" stroke="black" d="M-227.297,282.363C-227.297,282.363 -99.98,282.363 -99.98,282.363 -93.98,282.363 -87.98,276.363 -87.98,270.363 -87.98,270.363 -87.98,190.363 -87.98,190.363 -87.98,184.363 -93.98,178.363 -99.98,178.363 -99.98,178.363 -227.297,178.363 -227.297,178.363 -233.297,178.363 -239.297,184.363 -239.297,190.363 -239.297,190.363 -239.297,270.363 -239.297,270.363 -239.297,276.363 -233.297,282.363 -227.297,282.363"/>
<text text-anchor="middle" x="-163.639" y="193.563" font-family="Times,serif" font-size="14.00">ClientActionsController</text>
<polyline fill="none" stroke="black" points="-239.297,200.363 -87.98,200.363 "/>
<text text-anchor="start" x="-231.297" y="215.563" font-family="Times,serif" font-size="14.00">home</text>
<text text-anchor="start" x="-231.297" y="229.563" font-family="Times,serif" font-size="14.00">show</text>
<polyline fill="none" stroke="black" points="-239.297,236.363 -87.98,236.363 "/>
<polyline fill="none" stroke="black" points="-239.297,260.363 -87.98,260.363 "/>
<text text-anchor="start" x="-231.297" y="275.563" font-family="Times,serif" font-size="14.00">_layout</text>
</g>
<!-- ApplicationController&#45;&gt;ClientActionsController -->
<g id="edge2" class="edge"><title>ApplicationController&#45;&gt;ClientActionsController</title>
<path fill="none" stroke="black" d="M-40.0654,83.5212C-64.0078,111.972 -94.7538,148.507 -119.587,178.017"/>
</g>
<!-- GenericCarsController -->
<g id="node5" class="node"><title>GenericCarsController</title>
<path fill="none" stroke="black" d="M-234.239,-22.7039C-234.239,-22.7039 -114.728,-22.7039 -114.728,-22.7039 -108.728,-22.7039 -102.728,-28.7039 -102.728,-34.7039 -102.728,-34.7039 -102.728,-212.704 -102.728,-212.704 -102.728,-218.704 -108.728,-224.704 -114.728,-224.704 -114.728,-224.704 -234.239,-224.704 -234.239,-224.704 -240.239,-224.704 -246.239,-218.704 -246.239,-212.704 -246.239,-212.704 -246.239,-34.7039 -246.239,-34.7039 -246.239,-28.7039 -240.239,-22.7039 -234.239,-22.7039"/>
<text text-anchor="middle" x="-174.484" y="-209.504" font-family="Times,serif" font-size="14.00">GenericCarsController</text>
<polyline fill="none" stroke="black" points="-246.239,-202.704 -102.728,-202.704 "/>
<text text-anchor="start" x="-238.239" y="-187.504" font-family="Times,serif" font-size="14.00">create</text>
<text text-anchor="start" x="-238.239" y="-173.504" font-family="Times,serif" font-size="14.00">destroy</text>
<text text-anchor="start" x="-238.239" y="-159.504" font-family="Times,serif" font-size="14.00">edit</text>
<text text-anchor="start" x="-238.239" y="-145.504" font-family="Times,serif" font-size="14.00">generic_car_params</text>
<text text-anchor="start" x="-238.239" y="-131.504" font-family="Times,serif" font-size="14.00">index</text>
<text text-anchor="start" x="-238.239" y="-117.504" font-family="Times,serif" font-size="14.00">new</text>
<text text-anchor="start" x="-238.239" y="-103.504" font-family="Times,serif" font-size="14.00">set_generic_car</text>
<text text-anchor="start" x="-238.239" y="-89.5039" font-family="Times,serif" font-size="14.00">show</text>
<text text-anchor="start" x="-238.239" y="-75.5039" font-family="Times,serif" font-size="14.00">update</text>
<polyline fill="none" stroke="black" points="-246.239,-68.7039 -102.728,-68.7039 "/>
<polyline fill="none" stroke="black" points="-246.239,-44.7039 -102.728,-44.7039 "/>
<text text-anchor="start" x="-238.239" y="-29.5039" font-family="Times,serif" font-size="14.00">_layout</text>
</g>
<!-- ApplicationController&#45;&gt;GenericCarsController -->
<g id="edge3" class="edge"><title>ApplicationController&#45;&gt;GenericCarsController</title>
<path fill="none" stroke="black" d="M-50.816,-8.85799C-66.9228,-23.8158 -85.1283,-40.7226 -102.52,-56.8736"/>
</g>
<!-- GenericSparesController -->
<g id="node6" class="node"><title>GenericSparesController</title>
<path fill="none" stroke="black" d="M101.383,-33.3242C101.383,-33.3242 232.556,-33.3242 232.556,-33.3242 238.556,-33.3242 244.556,-39.3242 244.556,-45.3242 244.556,-45.3242 244.556,-223.324 244.556,-223.324 244.556,-229.324 238.556,-235.324 232.556,-235.324 232.556,-235.324 101.383,-235.324 101.383,-235.324 95.3832,-235.324 89.3832,-229.324 89.3832,-223.324 89.3832,-223.324 89.3832,-45.3242 89.3832,-45.3242 89.3832,-39.3242 95.3832,-33.3242 101.383,-33.3242"/>
<text text-anchor="middle" x="166.97" y="-220.124" font-family="Times,serif" font-size="14.00">GenericSparesController</text>
<polyline fill="none" stroke="black" points="89.3832,-213.324 244.556,-213.324 "/>
<text text-anchor="start" x="97.3832" y="-198.124" font-family="Times,serif" font-size="14.00">create</text>
<text text-anchor="start" x="97.3832" y="-184.124" font-family="Times,serif" font-size="14.00">destroy</text>
<text text-anchor="start" x="97.3832" y="-170.124" font-family="Times,serif" font-size="14.00">edit</text>
<text text-anchor="start" x="97.3832" y="-156.124" font-family="Times,serif" font-size="14.00">generic_spare_params</text>
<text text-anchor="start" x="97.3832" y="-142.124" font-family="Times,serif" font-size="14.00">index</text>
<text text-anchor="start" x="97.3832" y="-128.124" font-family="Times,serif" font-size="14.00">new</text>
<text text-anchor="start" x="97.3832" y="-114.124" font-family="Times,serif" font-size="14.00">set_generic_spare</text>
<text text-anchor="start" x="97.3832" y="-100.124" font-family="Times,serif" font-size="14.00">show</text>
<text text-anchor="start" x="97.3832" y="-86.1242" font-family="Times,serif" font-size="14.00">update</text>
<polyline fill="none" stroke="black" points="89.3832,-79.3242 244.556,-79.3242 "/>
<polyline fill="none" stroke="black" points="89.3832,-55.3242 244.556,-55.3242 "/>
<text text-anchor="start" x="97.3832" y="-40.1242" font-family="Times,serif" font-size="14.00">_layout</text>
</g>
<!-- ApplicationController&#45;&gt;GenericSparesController -->
<g id="edge4" class="edge"><title>ApplicationController&#45;&gt;GenericSparesController</title>
<path fill="none" stroke="black" d="M44.3501,-9.16519C58.2556,-23.3587 73.9587,-39.387 89.3706,-55.1181"/>
</g>
<!-- PrevaluationsController -->
<g id="node7" class="node"><title>PrevaluationsController</title>
<path fill="none" stroke="black" d="M-71.9792,-71.3804C-71.9792,-71.3804 53.7727,-71.3804 53.7727,-71.3804 59.7727,-71.3804 65.7727,-77.3804 65.7727,-83.3804 65.7727,-83.3804 65.7727,-191.38 65.7727,-191.38 65.7727,-197.38 59.7727,-203.38 53.7727,-203.38 53.7727,-203.38 -71.9792,-203.38 -71.9792,-203.38 -77.9792,-203.38 -83.9792,-197.38 -83.9792,-191.38 -83.9792,-191.38 -83.9792,-83.3804 -83.9792,-83.3804 -83.9792,-77.3804 -77.9792,-71.3804 -71.9792,-71.3804"/>
<text text-anchor="middle" x="-9.10325" y="-188.18" font-family="Times,serif" font-size="14.00">PrevaluationsController</text>
<polyline fill="none" stroke="black" points="-83.9792,-181.38 65.7727,-181.38 "/>
<text text-anchor="start" x="-75.9792" y="-166.18" font-family="Times,serif" font-size="14.00">create</text>
<text text-anchor="start" x="-75.9792" y="-152.18" font-family="Times,serif" font-size="14.00">new</text>
<text text-anchor="start" x="-75.9792" y="-138.18" font-family="Times,serif" font-size="14.00">pre_valuation_params</text>
<text text-anchor="start" x="-75.9792" y="-124.18" font-family="Times,serif" font-size="14.00">show</text>
<polyline fill="none" stroke="black" points="-83.9792,-117.38 65.7727,-117.38 "/>
<polyline fill="none" stroke="black" points="-83.9792,-93.3804 65.7727,-93.3804 "/>
<text text-anchor="start" x="-75.9792" y="-78.1804" font-family="Times,serif" font-size="14.00">_layout</text>
</g>
<!-- ApplicationController&#45;&gt;PrevaluationsController -->
<g id="edge5" class="edge"><title>ApplicationController&#45;&gt;PrevaluationsController</title>
<path fill="none" stroke="black" d="M-3.25588,-9.07388C-4.12172,-28.0726 -5.14009,-50.4183 -6.08223,-71.0915"/>
</g>
<!-- SessionsController -->
<g id="node8" class="node"><title>SessionsController</title>
<path fill="none" stroke="black" d="M-218.516,119.889C-218.516,119.889 -120.737,119.889 -120.737,119.889 -114.737,119.889 -108.737,113.889 -108.737,107.889 -108.737,107.889 -108.737,13.8891 -108.737,13.8891 -108.737,7.88911 -114.737,1.88911 -120.737,1.88911 -120.737,1.88911 -218.516,1.88911 -218.516,1.88911 -224.516,1.88911 -230.516,7.88911 -230.516,13.8891 -230.516,13.8891 -230.516,107.889 -230.516,107.889 -230.516,113.889 -224.516,119.889 -218.516,119.889"/>
<text text-anchor="middle" x="-169.626" y="17.0891" font-family="Times,serif" font-size="14.00">SessionsController</text>
<polyline fill="none" stroke="black" points="-230.516,23.8891 -108.737,23.8891 "/>
<text text-anchor="start" x="-222.516" y="39.0891" font-family="Times,serif" font-size="14.00">create</text>
<text text-anchor="start" x="-222.516" y="53.0891" font-family="Times,serif" font-size="14.00">destroy</text>
<text text-anchor="start" x="-222.516" y="67.0891" font-family="Times,serif" font-size="14.00">new</text>
<polyline fill="none" stroke="black" points="-230.516,73.8891 -108.737,73.8891 "/>
<polyline fill="none" stroke="black" points="-230.516,97.8891 -108.737,97.8891 "/>
<text text-anchor="start" x="-222.516" y="113.089" font-family="Times,serif" font-size="14.00">_layout</text>
</g>
<!-- ApplicationController&#45;&gt;SessionsController -->
<g id="edge6" class="edge"><title>ApplicationController&#45;&gt;SessionsController</title>
<path fill="none" stroke="black" d="M-71.1319,47.082C-83.6086,48.831 -96.5149,50.6402 -108.713,52.3501"/>
</g>
<!-- UsersController -->
<g id="node9" class="node"><title>UsersController</title>
<path fill="none" stroke="black" d="M135.165,286.459C135.165,286.459 216.593,286.459 216.593,286.459 222.593,286.459 228.593,280.459 228.593,274.459 228.593,274.459 228.593,166.459 228.593,166.459 228.593,160.459 222.593,154.459 216.593,154.459 216.593,154.459 135.165,154.459 135.165,154.459 129.165,154.459 123.165,160.459 123.165,166.459 123.165,166.459 123.165,274.459 123.165,274.459 123.165,280.459 129.165,286.459 135.165,286.459"/>
<text text-anchor="middle" x="175.879" y="169.659" font-family="Times,serif" font-size="14.00">UsersController</text>
<polyline fill="none" stroke="black" points="123.165,176.459 228.593,176.459 "/>
<text text-anchor="start" x="131.165" y="191.659" font-family="Times,serif" font-size="14.00">create</text>
<text text-anchor="start" x="131.165" y="205.659" font-family="Times,serif" font-size="14.00">new</text>
<text text-anchor="start" x="131.165" y="219.659" font-family="Times,serif" font-size="14.00">show</text>
<polyline fill="none" stroke="black" points="123.165,226.459 228.593,226.459 "/>
<polyline fill="none" stroke="black" points="123.165,250.459 228.593,250.459 "/>
<text text-anchor="start" x="131.165" y="265.659" font-family="Times,serif" font-size="14.00">_layout</text>
<text text-anchor="start" x="131.165" y="279.659" font-family="Times,serif" font-size="14.00">user_params</text>
</g>
<!-- ApplicationController&#45;&gt;UsersController -->
<g id="edge7" class="edge"><title>ApplicationController&#45;&gt;UsersController</title>
<path fill="none" stroke="black" d="M43.5265,83.4969C67.6988,108.511 97.7073,139.565 123.036,165.775"/>
</g>
<!-- WelcomeController -->
<g id="node10" class="node"><title>WelcomeController</title>
<path fill="none" stroke="black" d="M-40.9277,263.284C-40.9277,263.284 61.1377,263.284 61.1377,263.284 67.1377,263.284 73.1377,257.284 73.1377,251.284 73.1377,251.284 73.1377,185.284 73.1377,185.284 73.1377,179.284 67.1377,173.284 61.1377,173.284 61.1377,173.284 -40.9277,173.284 -40.9277,173.284 -46.9277,173.284 -52.9277,179.284 -52.9277,185.284 -52.9277,185.284 -52.9277,251.284 -52.9277,251.284 -52.9277,257.284 -46.9277,263.284 -40.9277,263.284"/>
<text text-anchor="middle" x="10.105" y="188.484" font-family="Times,serif" font-size="14.00">WelcomeController</text>
<polyline fill="none" stroke="black" points="-52.9277,195.284 73.1377,195.284 "/>
<text text-anchor="start" x="-44.9277" y="210.484" font-family="Times,serif" font-size="14.00">index</text>
<polyline fill="none" stroke="black" points="-52.9277,217.284 73.1377,217.284 "/>
<polyline fill="none" stroke="black" points="-52.9277,241.284 73.1377,241.284 "/>
<text text-anchor="start" x="-44.9277" y="256.484" font-family="Times,serif" font-size="14.00">_layout</text>
</g>
<!-- ApplicationController&#45;&gt;WelcomeController -->
<g id="edge8" class="edge"><title>ApplicationController&#45;&gt;WelcomeController</title>
<path fill="none" stroke="black" d="M1.72387,83.4166C3.4358,110.965 5.60042,145.797 7.30096,173.162"/>
</g>
</g>
</svg>
