<?xml version="1.0" encoding="UTF-8" standalone="no"?>
<!DOCTYPE svg PUBLIC "-//W3C//DTD SVG 1.1//EN"
 "http://www.w3.org/Graphics/SVG/1.1/DTD/svg11.dtd">
<!-- Generated by graphviz version 2.38.0 (20140413.2041)
 -->
<!-- Title: controllers_diagram Pages: 1 -->
<svg width="874pt" height="915pt"
 viewBox="0.00 0.00 874.15 915.00" xmlns="http://www.w3.org/2000/svg" xmlns:xlink="http://www.w3.org/1999/xlink">
<g id="graph0" class="graph" transform="scale(1 1) rotate(0) translate(378.486 486.5)">
<title>controllers_diagram</title>
<polygon fill="white" stroke="none" points="-378.486,428.5 -378.486,-486.5 495.659,-486.5 495.659,428.5 -378.486,428.5"/>
<!-- _diagram_info -->
<g id="node1" class="node"><title>_diagram_info</title>
<text text-anchor="start" x="8.31226" y="178.9" font-family="Times,serif" font-size="13.00">Controllers diagram</text>
<text text-anchor="start" x="8.31226" y="191.9" font-family="Times,serif" font-size="13.00">Date: Mar 02 2015 &#45; 19:29</text>
<text text-anchor="start" x="8.31226" y="204.9" font-family="Times,serif" font-size="13.00">Migration version: 20150303012824</text>
<text text-anchor="start" x="8.31226" y="217.9" font-family="Times,serif" font-size="13.00">Generated by RailRoady 1.3.0</text>
<text text-anchor="start" x="8.31226" y="230.9" font-family="Times,serif" font-size="13.00">http://railroady.prestonlee.com</text>
</g>
<!-- AdminController -->
<g id="node2" class="node"><title>AdminController</title>
<path fill="none" stroke="black" d="M181.783,424C181.783,424 270.217,424 270.217,424 276.217,424 282.217,418 282.217,412 282.217,412 282.217,346 282.217,346 282.217,340 276.217,334 270.217,334 270.217,334 181.783,334 181.783,334 175.783,334 169.783,340 169.783,346 169.783,346 169.783,412 169.783,412 169.783,418 175.783,424 181.783,424"/>
<text text-anchor="middle" x="226" y="349.2" font-family="Times,serif" font-size="14.00">AdminController</text>
<polyline fill="none" stroke="black" points="169.783,356 282.217,356 "/>
<text text-anchor="start" x="177.783" y="371.2" font-family="Times,serif" font-size="14.00">home</text>
<polyline fill="none" stroke="black" points="169.783,378 282.217,378 "/>
<polyline fill="none" stroke="black" points="169.783,402 282.217,402 "/>
<text text-anchor="start" x="177.783" y="417.2" font-family="Times,serif" font-size="14.00">_layout</text>
</g>
<!-- ApplicationController -->
<g id="node3" class="node"><title>ApplicationController</title>
<path fill="none" stroke="black" d="M-310.821,322C-310.821,322 -195.179,322 -195.179,322 -189.179,322 -183.179,316 -183.179,310 -183.179,310 -183.179,242 -183.179,242 -183.179,236 -189.179,230 -195.179,230 -195.179,230 -310.821,230 -310.821,230 -316.821,230 -322.821,236 -322.821,242 -322.821,242 -322.821,310 -322.821,310 -322.821,316 -316.821,322 -310.821,322"/>
<text text-anchor="middle" x="-253" y="245.2" font-family="Times,serif" font-size="14.00">ApplicationController</text>
<polyline fill="none" stroke="black" points="-322.821,252 -183.179,252 "/>
<polyline fill="none" stroke="black" points="-322.821,276 -183.179,276 "/>
<polyline fill="none" stroke="black" points="-322.821,300 -183.179,300 "/>
<text text-anchor="start" x="-314.821" y="315.2" font-family="Times,serif" font-size="14.00">_layout</text>
</g>
<!-- BranchesController -->
<g id="node4" class="node"><title>BranchesController</title>
<path fill="none" stroke="black" d="M-361.817,-256C-361.817,-256 -260.183,-256 -260.183,-256 -254.183,-256 -248.183,-262 -248.183,-268 -248.183,-268 -248.183,-336 -248.183,-336 -248.183,-342 -254.183,-348 -260.183,-348 -260.183,-348 -361.817,-348 -361.817,-348 -367.817,-348 -373.817,-342 -373.817,-336 -373.817,-336 -373.817,-268 -373.817,-268 -373.817,-262 -367.817,-256 -361.817,-256"/>
<text text-anchor="middle" x="-311" y="-332.8" font-family="Times,serif" font-size="14.00">BranchesController</text>
<polyline fill="none" stroke="black" points="-373.817,-326 -248.183,-326 "/>
<polyline fill="none" stroke="black" points="-373.817,-302 -248.183,-302 "/>
<polyline fill="none" stroke="black" points="-373.817,-278 -248.183,-278 "/>
<text text-anchor="start" x="-365.817" y="-262.8" font-family="Times,serif" font-size="14.00">_layout</text>
</g>
<!-- BrandsController -->
<g id="node5" class="node"><title>BrandsController</title>
<path fill="none" stroke="black" d="M-259.604,16C-259.604,16 -170.396,16 -170.396,16 -164.396,16 -158.396,10 -158.396,4 -158.396,4 -158.396,-174 -158.396,-174 -158.396,-180 -164.396,-186 -170.396,-186 -170.396,-186 -259.604,-186 -259.604,-186 -265.604,-186 -271.604,-180 -271.604,-174 -271.604,-174 -271.604,4 -271.604,4 -271.604,10 -265.604,16 -259.604,16"/>
<text text-anchor="middle" x="-215" y="-170.8" font-family="Times,serif" font-size="14.00">BrandsController</text>
<polyline fill="none" stroke="black" points="-271.604,-164 -158.396,-164 "/>
<text text-anchor="start" x="-263.604" y="-148.8" font-family="Times,serif" font-size="14.00">create</text>
<text text-anchor="start" x="-263.604" y="-134.8" font-family="Times,serif" font-size="14.00">destroy</text>
<text text-anchor="start" x="-263.604" y="-120.8" font-family="Times,serif" font-size="14.00">edit</text>
<text text-anchor="start" x="-263.604" y="-106.8" font-family="Times,serif" font-size="14.00">index</text>
<text text-anchor="start" x="-263.604" y="-92.8" font-family="Times,serif" font-size="14.00">new</text>
<text text-anchor="start" x="-263.604" y="-78.8" font-family="Times,serif" font-size="14.00">show</text>
<text text-anchor="start" x="-263.604" y="-64.8" font-family="Times,serif" font-size="14.00">update</text>
<polyline fill="none" stroke="black" points="-271.604,-58 -158.396,-58 "/>
<polyline fill="none" stroke="black" points="-271.604,-34 -158.396,-34 "/>
<text text-anchor="start" x="-263.604" y="-18.8" font-family="Times,serif" font-size="14.00">_layout</text>
<text text-anchor="start" x="-263.604" y="-4.8" font-family="Times,serif" font-size="14.00">brand_params</text>
<text text-anchor="start" x="-263.604" y="9.2" font-family="Times,serif" font-size="14.00">set_brand</text>
</g>
<!-- ClientActionsController -->
<g id="node6" class="node"><title>ClientActionsController</title>
<path fill="none" stroke="black" d="M352.341,135C352.341,135 479.659,135 479.659,135 485.659,135 491.659,129 491.659,123 491.659,123 491.659,43 491.659,43 491.659,37 485.659,31 479.659,31 479.659,31 352.341,31 352.341,31 346.341,31 340.341,37 340.341,43 340.341,43 340.341,123 340.341,123 340.341,129 346.341,135 352.341,135"/>
<text text-anchor="middle" x="416" y="46.2" font-family="Times,serif" font-size="14.00">ClientActionsController</text>
<polyline fill="none" stroke="black" points="340.341,53 491.659,53 "/>
<text text-anchor="start" x="348.341" y="68.2" font-family="Times,serif" font-size="14.00">home</text>
<text text-anchor="start" x="348.341" y="82.2" font-family="Times,serif" font-size="14.00">show</text>
<polyline fill="none" stroke="black" points="340.341,89 491.659,89 "/>
<polyline fill="none" stroke="black" points="340.341,113 491.659,113 "/>
<text text-anchor="start" x="348.341" y="128.2" font-family="Times,serif" font-size="14.00">_layout</text>
</g>
<!-- GenericCarsController -->
<g id="node7" class="node"><title>GenericCarsController</title>
<path fill="none" stroke="black" d="M-107.497,135C-107.497,135 97.4971,135 97.4971,135 103.497,135 109.497,129 109.497,123 109.497,123 109.497,-111 109.497,-111 109.497,-117 103.497,-123 97.4971,-123 97.4971,-123 -107.497,-123 -107.497,-123 -113.497,-123 -119.497,-117 -119.497,-111 -119.497,-111 -119.497,123 -119.497,123 -119.497,129 -113.497,135 -107.497,135"/>
<text text-anchor="middle" x="-5" y="-107.8" font-family="Times,serif" font-size="14.00">GenericCarsController</text>
<polyline fill="none" stroke="black" points="-119.497,-101 109.497,-101 "/>
<text text-anchor="start" x="-111.497" y="-85.8" font-family="Times,serif" font-size="14.00">assignation</text>
<text text-anchor="start" x="-111.497" y="-71.8" font-family="Times,serif" font-size="14.00">create</text>
<text text-anchor="start" x="-111.497" y="-57.8" font-family="Times,serif" font-size="14.00">destroy</text>
<text text-anchor="start" x="-111.497" y="-43.8" font-family="Times,serif" font-size="14.00">edit</text>
<text text-anchor="start" x="-111.497" y="-29.8" font-family="Times,serif" font-size="14.00">index</text>
<text text-anchor="start" x="-111.497" y="-15.8" font-family="Times,serif" font-size="14.00">new</text>
<text text-anchor="start" x="-111.497" y="-1.8" font-family="Times,serif" font-size="14.00">relate_generic_family_to_generic_car</text>
<text text-anchor="start" x="-111.497" y="12.2" font-family="Times,serif" font-size="14.00">show</text>
<text text-anchor="start" x="-111.497" y="26.2" font-family="Times,serif" font-size="14.00">update</text>
<text text-anchor="start" x="-111.497" y="40.2" font-family="Times,serif" font-size="14.00">update_generation</text>
<polyline fill="none" stroke="black" points="-119.497,47 109.497,47 "/>
<polyline fill="none" stroke="black" points="-119.497,71 109.497,71 "/>
<text text-anchor="start" x="-111.497" y="86.2" font-family="Times,serif" font-size="14.00">_layout</text>
<text text-anchor="start" x="-111.497" y="100.2" font-family="Times,serif" font-size="14.00">generic_car_params</text>
<text text-anchor="start" x="-111.497" y="114.2" font-family="Times,serif" font-size="14.00">search</text>
<text text-anchor="start" x="-111.497" y="128.2" font-family="Times,serif" font-size="14.00">set_generic_car</text>
</g>
<!-- GenericFamiliesController -->
<g id="node8" class="node"><title>GenericFamiliesController</title>
<path fill="none" stroke="black" d="M147.965,135C147.965,135 290.035,135 290.035,135 296.035,135 302.035,129 302.035,123 302.035,123 302.035,-111 302.035,-111 302.035,-117 296.035,-123 290.035,-123 290.035,-123 147.965,-123 147.965,-123 141.965,-123 135.965,-117 135.965,-111 135.965,-111 135.965,123 135.965,123 135.965,129 141.965,135 147.965,135"/>
<text text-anchor="middle" x="219" y="-107.8" font-family="Times,serif" font-size="14.00">GenericFamiliesController</text>
<polyline fill="none" stroke="black" points="135.965,-101 302.035,-101 "/>
<text text-anchor="start" x="143.965" y="-85.8" font-family="Times,serif" font-size="14.00">assign</text>
<text text-anchor="start" x="143.965" y="-71.8" font-family="Times,serif" font-size="14.00">assigned_families</text>
<text text-anchor="start" x="143.965" y="-57.8" font-family="Times,serif" font-size="14.00">build_spares</text>
<text text-anchor="start" x="143.965" y="-43.8" font-family="Times,serif" font-size="14.00">create</text>
<text text-anchor="start" x="143.965" y="-29.8" font-family="Times,serif" font-size="14.00">destroy</text>
<text text-anchor="start" x="143.965" y="-15.8" font-family="Times,serif" font-size="14.00">edit</text>
<text text-anchor="start" x="143.965" y="-1.8" font-family="Times,serif" font-size="14.00">index</text>
<text text-anchor="start" x="143.965" y="12.2" font-family="Times,serif" font-size="14.00">new</text>
<text text-anchor="start" x="143.965" y="26.2" font-family="Times,serif" font-size="14.00">not_assigned_families</text>
<text text-anchor="start" x="143.965" y="40.2" font-family="Times,serif" font-size="14.00">show</text>
<text text-anchor="start" x="143.965" y="54.2" font-family="Times,serif" font-size="14.00">update</text>
<polyline fill="none" stroke="black" points="135.965,61 302.035,61 "/>
<polyline fill="none" stroke="black" points="135.965,85 302.035,85 "/>
<text text-anchor="start" x="143.965" y="100.2" font-family="Times,serif" font-size="14.00">_layout</text>
<text text-anchor="start" x="143.965" y="114.2" font-family="Times,serif" font-size="14.00">required_params</text>
<text text-anchor="start" x="143.965" y="128.2" font-family="Times,serif" font-size="14.00">set_family</text>
</g>
<!-- GenericSparesController -->
<g id="node9" class="node"><title>GenericSparesController</title>
<path fill="none" stroke="black" d="M165.414,-154C165.414,-154 296.586,-154 296.586,-154 302.586,-154 308.586,-160 308.586,-166 308.586,-166 308.586,-372 308.586,-372 308.586,-378 302.586,-384 296.586,-384 296.586,-384 165.414,-384 165.414,-384 159.414,-384 153.414,-378 153.414,-372 153.414,-372 153.414,-166 153.414,-166 153.414,-160 159.414,-154 165.414,-154"/>
<text text-anchor="middle" x="231" y="-368.8" font-family="Times,serif" font-size="14.00">GenericSparesController</text>
<polyline fill="none" stroke="black" points="153.414,-362 308.586,-362 "/>
<text text-anchor="start" x="161.414" y="-346.8" font-family="Times,serif" font-size="14.00">create</text>
<text text-anchor="start" x="161.414" y="-332.8" font-family="Times,serif" font-size="14.00">destroy</text>
<text text-anchor="start" x="161.414" y="-318.8" font-family="Times,serif" font-size="14.00">edit</text>
<text text-anchor="start" x="161.414" y="-304.8" font-family="Times,serif" font-size="14.00">generic_spare_params</text>
<text text-anchor="start" x="161.414" y="-290.8" font-family="Times,serif" font-size="14.00">index</text>
<text text-anchor="start" x="161.414" y="-276.8" font-family="Times,serif" font-size="14.00">new</text>
<text text-anchor="start" x="161.414" y="-262.8" font-family="Times,serif" font-size="14.00">newTemplate</text>
<text text-anchor="start" x="161.414" y="-248.8" font-family="Times,serif" font-size="14.00">set_generic_spare</text>
<text text-anchor="start" x="161.414" y="-234.8" font-family="Times,serif" font-size="14.00">show</text>
<text text-anchor="start" x="161.414" y="-220.8" font-family="Times,serif" font-size="14.00">template</text>
<text text-anchor="start" x="161.414" y="-206.8" font-family="Times,serif" font-size="14.00">update</text>
<polyline fill="none" stroke="black" points="153.414,-200 308.586,-200 "/>
<polyline fill="none" stroke="black" points="153.414,-176 308.586,-176 "/>
<text text-anchor="start" x="161.414" y="-160.8" font-family="Times,serif" font-size="14.00">_layout</text>
</g>
<!-- InvoicesController -->
<g id="node10" class="node"><title>InvoicesController</title>
<path fill="none" stroke="black" d="M-362.486,-375C-362.486,-375 -265.514,-375 -265.514,-375 -259.514,-375 -253.514,-381 -253.514,-387 -253.514,-387 -253.514,-453 -253.514,-453 -253.514,-459 -259.514,-465 -265.514,-465 -265.514,-465 -362.486,-465 -362.486,-465 -368.486,-465 -374.486,-459 -374.486,-453 -374.486,-453 -374.486,-387 -374.486,-387 -374.486,-381 -368.486,-375 -362.486,-375"/>
<text text-anchor="middle" x="-314" y="-449.8" font-family="Times,serif" font-size="14.00">InvoicesController</text>
<polyline fill="none" stroke="black" points="-374.486,-443 -253.514,-443 "/>
<text text-anchor="start" x="-366.486" y="-427.8" font-family="Times,serif" font-size="14.00">home</text>
<polyline fill="none" stroke="black" points="-374.486,-421 -253.514,-421 "/>
<polyline fill="none" stroke="black" points="-374.486,-397 -253.514,-397 "/>
<text text-anchor="start" x="-366.486" y="-381.8" font-family="Times,serif" font-size="14.00">_layout</text>
</g>
<!-- ModelAcronymsController -->
<g id="node11" class="node"><title>ModelAcronymsController</title>
<path fill="none" stroke="black" d="M-39.2104,-154C-39.2104,-154 105.21,-154 105.21,-154 111.21,-154 117.21,-160 117.21,-166 117.21,-166 117.21,-344 117.21,-344 117.21,-350 111.21,-356 105.21,-356 105.21,-356 -39.2104,-356 -39.2104,-356 -45.2104,-356 -51.2104,-350 -51.2104,-344 -51.2104,-344 -51.2104,-166 -51.2104,-166 -51.2104,-160 -45.2104,-154 -39.2104,-154"/>
<text text-anchor="middle" x="33" y="-340.8" font-family="Times,serif" font-size="14.00">ModelAcronymsController</text>
<polyline fill="none" stroke="black" points="-51.2104,-334 117.21,-334 "/>
<text text-anchor="start" x="-43.2104" y="-318.8" font-family="Times,serif" font-size="14.00">create</text>
<text text-anchor="start" x="-43.2104" y="-304.8" font-family="Times,serif" font-size="14.00">destroy</text>
<text text-anchor="start" x="-43.2104" y="-290.8" font-family="Times,serif" font-size="14.00">edit</text>
<text text-anchor="start" x="-43.2104" y="-276.8" font-family="Times,serif" font-size="14.00">index</text>
<text text-anchor="start" x="-43.2104" y="-262.8" font-family="Times,serif" font-size="14.00">new</text>
<text text-anchor="start" x="-43.2104" y="-248.8" font-family="Times,serif" font-size="14.00">show</text>
<text text-anchor="start" x="-43.2104" y="-234.8" font-family="Times,serif" font-size="14.00">update</text>
<polyline fill="none" stroke="black" points="-51.2104,-228 117.21,-228 "/>
<polyline fill="none" stroke="black" points="-51.2104,-204 117.21,-204 "/>
<text text-anchor="start" x="-43.2104" y="-188.8" font-family="Times,serif" font-size="14.00">_layout</text>
<text text-anchor="start" x="-43.2104" y="-174.8" font-family="Times,serif" font-size="14.00">model_acronym_params</text>
<text text-anchor="start" x="-43.2104" y="-160.8" font-family="Times,serif" font-size="14.00">set_model_acronym</text>
</g>
<!-- MoldSparesController -->
<g id="node12" class="node"><title>MoldSparesController</title>
<path fill="none" stroke="black" d="M-208.604,-222C-208.604,-222 -91.3965,-222 -91.3965,-222 -85.3965,-222 -79.3965,-228 -79.3965,-234 -79.3965,-234 -79.3965,-412 -79.3965,-412 -79.3965,-418 -85.3965,-424 -91.3965,-424 -91.3965,-424 -208.604,-424 -208.604,-424 -214.604,-424 -220.604,-418 -220.604,-412 -220.604,-412 -220.604,-234 -220.604,-234 -220.604,-228 -214.604,-222 -208.604,-222"/>
<text text-anchor="middle" x="-150" y="-408.8" font-family="Times,serif" font-size="14.00">MoldSparesController</text>
<polyline fill="none" stroke="black" points="-220.604,-402 -79.3965,-402 "/>
<text text-anchor="start" x="-212.604" y="-386.8" font-family="Times,serif" font-size="14.00">create</text>
<text text-anchor="start" x="-212.604" y="-372.8" font-family="Times,serif" font-size="14.00">destroy</text>
<text text-anchor="start" x="-212.604" y="-358.8" font-family="Times,serif" font-size="14.00">edit</text>
<text text-anchor="start" x="-212.604" y="-344.8" font-family="Times,serif" font-size="14.00">index</text>
<text text-anchor="start" x="-212.604" y="-330.8" font-family="Times,serif" font-size="14.00">new</text>
<text text-anchor="start" x="-212.604" y="-316.8" font-family="Times,serif" font-size="14.00">show</text>
<text text-anchor="start" x="-212.604" y="-302.8" font-family="Times,serif" font-size="14.00">update</text>
<polyline fill="none" stroke="black" points="-220.604,-296 -79.3965,-296 "/>
<polyline fill="none" stroke="black" points="-220.604,-272 -79.3965,-272 "/>
<text text-anchor="start" x="-212.604" y="-256.8" font-family="Times,serif" font-size="14.00">_layout</text>
<text text-anchor="start" x="-212.604" y="-242.8" font-family="Times,serif" font-size="14.00">mold_spare_params</text>
<text text-anchor="start" x="-212.604" y="-228.8" font-family="Times,serif" font-size="14.00">set_mold_spare</text>
</g>
<!-- PrevaluationsController -->
<g id="node13" class="node"><title>PrevaluationsController</title>
<path fill="none" stroke="black" d="M250.124,305C250.124,305 375.876,305 375.876,305 381.876,305 387.876,299 387.876,293 387.876,293 387.876,185 387.876,185 387.876,179 381.876,173 375.876,173 375.876,173 250.124,173 250.124,173 244.124,173 238.124,179 238.124,185 238.124,185 238.124,293 238.124,293 238.124,299 244.124,305 250.124,305"/>
<text text-anchor="middle" x="313" y="188.2" font-family="Times,serif" font-size="14.00">PrevaluationsController</text>
<polyline fill="none" stroke="black" points="238.124,195 387.876,195 "/>
<text text-anchor="start" x="246.124" y="210.2" font-family="Times,serif" font-size="14.00">create</text>
<text text-anchor="start" x="246.124" y="224.2" font-family="Times,serif" font-size="14.00">new</text>
<text text-anchor="start" x="246.124" y="238.2" font-family="Times,serif" font-size="14.00">pre_valuation_params</text>
<text text-anchor="start" x="246.124" y="252.2" font-family="Times,serif" font-size="14.00">show</text>
<polyline fill="none" stroke="black" points="238.124,259 387.876,259 "/>
<polyline fill="none" stroke="black" points="238.124,283 387.876,283 "/>
<text text-anchor="start" x="246.124" y="298.2" font-family="Times,serif" font-size="14.00">_layout</text>
</g>
<!-- ReportsController -->
<g id="node14" class="node"><title>ReportsController</title>
<path fill="none" stroke="black" d="M-259.548,203C-259.548,203 -166.452,203 -166.452,203 -160.452,203 -154.452,197 -154.452,191 -154.452,191 -154.452,55 -154.452,55 -154.452,49 -160.452,43 -166.452,43 -166.452,43 -259.548,43 -259.548,43 -265.548,43 -271.548,49 -271.548,55 -271.548,55 -271.548,191 -271.548,191 -271.548,197 -265.548,203 -259.548,203"/>
<text text-anchor="middle" x="-213" y="58.2" font-family="Times,serif" font-size="14.00">ReportsController</text>
<polyline fill="none" stroke="black" points="-271.548,65 -154.452,65 "/>
<text text-anchor="start" x="-263.548" y="80.2" font-family="Times,serif" font-size="14.00">cars</text>
<text text-anchor="start" x="-263.548" y="94.2" font-family="Times,serif" font-size="14.00">index</text>
<text text-anchor="start" x="-263.548" y="108.2" font-family="Times,serif" font-size="14.00">insurance</text>
<text text-anchor="start" x="-263.548" y="122.2" font-family="Times,serif" font-size="14.00">new</text>
<text text-anchor="start" x="-263.548" y="136.2" font-family="Times,serif" font-size="14.00">repair</text>
<text text-anchor="start" x="-263.548" y="150.2" font-family="Times,serif" font-size="14.00">show</text>
<polyline fill="none" stroke="black" points="-271.548,157 -154.452,157 "/>
<polyline fill="none" stroke="black" points="-271.548,181 -154.452,181 "/>
<text text-anchor="start" x="-263.548" y="196.2" font-family="Times,serif" font-size="14.00">_layout</text>
</g>
<!-- RosterController -->
<g id="node15" class="node"><title>RosterController</title>
<path fill="none" stroke="black" d="M352.031,-1C352.031,-1 469.969,-1 469.969,-1 475.969,-1 481.969,-7 481.969,-13 481.969,-13 481.969,-107 481.969,-107 481.969,-113 475.969,-119 469.969,-119 469.969,-119 352.031,-119 352.031,-119 346.031,-119 340.031,-113 340.031,-107 340.031,-107 340.031,-13 340.031,-13 340.031,-7 346.031,-1 352.031,-1"/>
<text text-anchor="middle" x="411" y="-103.8" font-family="Times,serif" font-size="14.00">RosterController</text>
<polyline fill="none" stroke="black" points="340.031,-97 481.969,-97 "/>
<text text-anchor="start" x="348.031" y="-81.8" font-family="Times,serif" font-size="14.00">attendance</text>
<text text-anchor="start" x="348.031" y="-67.8" font-family="Times,serif" font-size="14.00">employeePerformance</text>
<text text-anchor="start" x="348.031" y="-53.8" font-family="Times,serif" font-size="14.00">index</text>
<polyline fill="none" stroke="black" points="340.031,-47 481.969,-47 "/>
<polyline fill="none" stroke="black" points="340.031,-23 481.969,-23 "/>
<text text-anchor="start" x="348.031" y="-7.8" font-family="Times,serif" font-size="14.00">_layout</text>
</g>
<!-- SessionsController -->
<g id="node16" class="node"><title>SessionsController</title>
<path fill="none" stroke="black" d="M352.11,-154C352.11,-154 449.89,-154 449.89,-154 455.89,-154 461.89,-160 461.89,-166 461.89,-166 461.89,-260 461.89,-260 461.89,-266 455.89,-272 449.89,-272 449.89,-272 352.11,-272 352.11,-272 346.11,-272 340.11,-266 340.11,-260 340.11,-260 340.11,-166 340.11,-166 340.11,-160 346.11,-154 352.11,-154"/>
<text text-anchor="middle" x="401" y="-256.8" font-family="Times,serif" font-size="14.00">SessionsController</text>
<polyline fill="none" stroke="black" points="340.11,-250 461.89,-250 "/>
<text text-anchor="start" x="348.11" y="-234.8" font-family="Times,serif" font-size="14.00">create</text>
<text text-anchor="start" x="348.11" y="-220.8" font-family="Times,serif" font-size="14.00">destroy</text>
<text text-anchor="start" x="348.11" y="-206.8" font-family="Times,serif" font-size="14.00">new</text>
<polyline fill="none" stroke="black" points="340.11,-200 461.89,-200 "/>
<polyline fill="none" stroke="black" points="340.11,-176 461.89,-176 "/>
<text text-anchor="start" x="348.11" y="-160.8" font-family="Times,serif" font-size="14.00">_layout</text>
</g>
<!-- SparesController -->
<g id="node17" class="node"><title>SparesController</title>
<path fill="none" stroke="black" d="M-141.435,356C-141.435,356 -54.5654,356 -54.5654,356 -48.5654,356 -42.5654,350 -42.5654,344 -42.5654,344 -42.5654,250 -42.5654,250 -42.5654,244 -48.5654,238 -54.5654,238 -54.5654,238 -141.435,238 -141.435,238 -147.435,238 -153.435,244 -153.435,250 -153.435,250 -153.435,344 -153.435,344 -153.435,350 -147.435,356 -141.435,356"/>
<text text-anchor="middle" x="-98" y="253.2" font-family="Times,serif" font-size="14.00">SparesController</text>
<polyline fill="none" stroke="black" points="-153.435,260 -42.5654,260 "/>
<text text-anchor="start" x="-145.435" y="275.2" font-family="Times,serif" font-size="14.00">edit</text>
<text text-anchor="start" x="-145.435" y="289.2" font-family="Times,serif" font-size="14.00">index</text>
<text text-anchor="start" x="-145.435" y="303.2" font-family="Times,serif" font-size="14.00">new</text>
<polyline fill="none" stroke="black" points="-153.435,310 -42.5654,310 "/>
<polyline fill="none" stroke="black" points="-153.435,334 -42.5654,334 "/>
<text text-anchor="start" x="-145.435" y="349.2" font-family="Times,serif" font-size="14.00">_layout</text>
</g>
<!-- UsersController -->
<g id="node18" class="node"><title>UsersController</title>
<path fill="none" stroke="black" d="M352.286,-307C352.286,-307 433.714,-307 433.714,-307 439.714,-307 445.714,-313 445.714,-319 445.714,-319 445.714,-427 445.714,-427 445.714,-433 439.714,-439 433.714,-439 433.714,-439 352.286,-439 352.286,-439 346.286,-439 340.286,-433 340.286,-427 340.286,-427 340.286,-319 340.286,-319 340.286,-313 346.286,-307 352.286,-307"/>
<text text-anchor="middle" x="393" y="-423.8" font-family="Times,serif" font-size="14.00">UsersController</text>
<polyline fill="none" stroke="black" points="340.286,-417 445.714,-417 "/>
<text text-anchor="start" x="348.286" y="-401.8" font-family="Times,serif" font-size="14.00">create</text>
<text text-anchor="start" x="348.286" y="-387.8" font-family="Times,serif" font-size="14.00">new</text>
<text text-anchor="start" x="348.286" y="-373.8" font-family="Times,serif" font-size="14.00">show</text>
<polyline fill="none" stroke="black" points="340.286,-367 445.714,-367 "/>
<polyline fill="none" stroke="black" points="340.286,-343 445.714,-343 "/>
<text text-anchor="start" x="348.286" y="-327.8" font-family="Times,serif" font-size="14.00">_layout</text>
<text text-anchor="start" x="348.286" y="-313.8" font-family="Times,serif" font-size="14.00">user_params</text>
</g>
<!-- ValuationsController -->
<g id="node19" class="node"><title>ValuationsController</title>
<path fill="none" stroke="black" d="M11.6758,390C11.6758,390 120.324,390 120.324,390 126.324,390 132.324,384 132.324,378 132.324,378 132.324,284 132.324,284 132.324,278 126.324,272 120.324,272 120.324,272 11.6758,272 11.6758,272 5.67578,272 -0.324219,278 -0.324219,284 -0.324219,284 -0.324219,378 -0.324219,378 -0.324219,384 5.67578,390 11.6758,390"/>
<text text-anchor="middle" x="66" y="287.2" font-family="Times,serif" font-size="14.00">ValuationsController</text>
<polyline fill="none" stroke="black" points="-0.324219,294 132.324,294 "/>
<text text-anchor="start" x="7.67578" y="309.2" font-family="Times,serif" font-size="14.00">index</text>
<text text-anchor="start" x="7.67578" y="323.2" font-family="Times,serif" font-size="14.00">new</text>
<text text-anchor="start" x="7.67578" y="337.2" font-family="Times,serif" font-size="14.00">show</text>
<polyline fill="none" stroke="black" points="-0.324219,344 132.324,344 "/>
<polyline fill="none" stroke="black" points="-0.324219,368 132.324,368 "/>
<text text-anchor="start" x="7.67578" y="383.2" font-family="Times,serif" font-size="14.00">_layout</text>
</g>
<!-- WelcomeController -->
<g id="node20" class="node"><title>WelcomeController</title>
<path fill="none" stroke="black" d="M11.9673,-392C11.9673,-392 114.033,-392 114.033,-392 120.033,-392 126.033,-398 126.033,-404 126.033,-404 126.033,-470 126.033,-470 126.033,-476 120.033,-482 114.033,-482 114.033,-482 11.9673,-482 11.9673,-482 5.96729,-482 -0.0327148,-476 -0.0327148,-470 -0.0327148,-470 -0.0327148,-404 -0.0327148,-404 -0.0327148,-398 5.96729,-392 11.9673,-392"/>
<text text-anchor="middle" x="63" y="-466.8" font-family="Times,serif" font-size="14.00">WelcomeController</text>
<polyline fill="none" stroke="black" points="-0.0327148,-460 126.033,-460 "/>
<text text-anchor="start" x="7.96729" y="-444.8" font-family="Times,serif" font-size="14.00">index</text>
<polyline fill="none" stroke="black" points="-0.0327148,-438 126.033,-438 "/>
<polyline fill="none" stroke="black" points="-0.0327148,-414 126.033,-414 "/>
<text text-anchor="start" x="7.96729" y="-398.8" font-family="Times,serif" font-size="14.00">_layout</text>
</g>
</g>
</svg>
