<?xml version="1.0" encoding="UTF-8" standalone="no"?>
<!DOCTYPE svg PUBLIC "-//W3C//DTD SVG 1.1//EN"
 "http://www.w3.org/Graphics/SVG/1.1/DTD/svg11.dtd">
<!-- Generated by graphviz version 2.38.0 (20140413.2041)
 -->
<!-- Title: controllers_diagram Pages: 1 -->
<svg width="818pt" height="837pt"
 viewBox="0.00 0.00 818.32 837.00" xmlns="http://www.w3.org/2000/svg" xmlns:xlink="http://www.w3.org/1999/xlink">
<g id="graph0" class="graph" transform="scale(1 1) rotate(0) translate(372.435 465.5)">
<title>controllers_diagram</title>
<polygon fill="white" stroke="none" points="-372.435,371.5 -372.435,-465.5 445.89,-465.5 445.89,371.5 -372.435,371.5"/>
<!-- _diagram_info -->
<g id="node1" class="node"><title>_diagram_info</title>
<text text-anchor="start" x="-232.45" y="180.9" font-family="Times,serif" font-size="13.00">Controllers diagram</text>
<text text-anchor="start" x="-232.45" y="193.9" font-family="Times,serif" font-size="13.00">Date: Feb 03 2015 &#45; 18:37</text>
<text text-anchor="start" x="-232.45" y="206.9" font-family="Times,serif" font-size="13.00">Migration version: 20150113013129</text>
<text text-anchor="start" x="-232.45" y="219.9" font-family="Times,serif" font-size="13.00">Generated by RailRoady 1.3.0</text>
<text text-anchor="start" x="-232.45" y="232.9" font-family="Times,serif" font-size="13.00">http://railroady.prestonlee.com</text>
</g>
<!-- AdminController -->
<g id="node2" class="node"><title>AdminController</title>
<path fill="none" stroke="black" d="M-356.217,127C-356.217,127 -267.783,127 -267.783,127 -261.783,127 -255.783,121 -255.783,115 -255.783,115 -255.783,49 -255.783,49 -255.783,43 -261.783,37 -267.783,37 -267.783,37 -356.217,37 -356.217,37 -362.217,37 -368.217,43 -368.217,49 -368.217,49 -368.217,115 -368.217,115 -368.217,121 -362.217,127 -356.217,127"/>
<text text-anchor="middle" x="-312" y="52.2" font-family="Times,serif" font-size="14.00">AdminController</text>
<polyline fill="none" stroke="black" points="-368.217,59 -255.783,59 "/>
<text text-anchor="start" x="-360.217" y="74.2" font-family="Times,serif" font-size="14.00">home</text>
<polyline fill="none" stroke="black" points="-368.217,81 -255.783,81 "/>
<polyline fill="none" stroke="black" points="-368.217,105 -255.783,105 "/>
<text text-anchor="start" x="-360.217" y="120.2" font-family="Times,serif" font-size="14.00">_layout</text>
</g>
<!-- ApplicationController -->
<g id="node3" class="node"><title>ApplicationController</title>
<path fill="none" stroke="black" d="M-19.8208,-369C-19.8208,-369 95.8208,-369 95.8208,-369 101.821,-369 107.821,-375 107.821,-381 107.821,-381 107.821,-449 107.821,-449 107.821,-455 101.821,-461 95.8208,-461 95.8208,-461 -19.8208,-461 -19.8208,-461 -25.8208,-461 -31.8208,-455 -31.8208,-449 -31.8208,-449 -31.8208,-381 -31.8208,-381 -31.8208,-375 -25.8208,-369 -19.8208,-369"/>
<text text-anchor="middle" x="38" y="-445.8" font-family="Times,serif" font-size="14.00">ApplicationController</text>
<polyline fill="none" stroke="black" points="-31.8208,-439 107.821,-439 "/>
<polyline fill="none" stroke="black" points="-31.8208,-415 107.821,-415 "/>
<polyline fill="none" stroke="black" points="-31.8208,-391 107.821,-391 "/>
<text text-anchor="start" x="-23.8208" y="-375.8" font-family="Times,serif" font-size="14.00">_layout</text>
</g>
<!-- BranchesController -->
<g id="node4" class="node"><title>BranchesController</title>
<path fill="none" stroke="black" d="M-195.817,367C-195.817,367 -94.1826,367 -94.1826,367 -88.1826,367 -82.1826,361 -82.1826,355 -82.1826,355 -82.1826,287 -82.1826,287 -82.1826,281 -88.1826,275 -94.1826,275 -94.1826,275 -195.817,275 -195.817,275 -201.817,275 -207.817,281 -207.817,287 -207.817,287 -207.817,355 -207.817,355 -207.817,361 -201.817,367 -195.817,367"/>
<text text-anchor="middle" x="-145" y="290.2" font-family="Times,serif" font-size="14.00">BranchesController</text>
<polyline fill="none" stroke="black" points="-207.817,297 -82.1826,297 "/>
<polyline fill="none" stroke="black" points="-207.817,321 -82.1826,321 "/>
<polyline fill="none" stroke="black" points="-207.817,345 -82.1826,345 "/>
<text text-anchor="start" x="-199.817" y="360.2" font-family="Times,serif" font-size="14.00">_layout</text>
</g>
<!-- BrandsController -->
<g id="node5" class="node"><title>BrandsController</title>
<path fill="none" stroke="black" d="M-211.604,111C-211.604,111 -122.396,111 -122.396,111 -116.396,111 -110.396,105 -110.396,99 -110.396,99 -110.396,-79 -110.396,-79 -110.396,-85 -116.396,-91 -122.396,-91 -122.396,-91 -211.604,-91 -211.604,-91 -217.604,-91 -223.604,-85 -223.604,-79 -223.604,-79 -223.604,99 -223.604,99 -223.604,105 -217.604,111 -211.604,111"/>
<text text-anchor="middle" x="-167" y="-75.8" font-family="Times,serif" font-size="14.00">BrandsController</text>
<polyline fill="none" stroke="black" points="-223.604,-69 -110.396,-69 "/>
<text text-anchor="start" x="-215.604" y="-53.8" font-family="Times,serif" font-size="14.00">create</text>
<text text-anchor="start" x="-215.604" y="-39.8" font-family="Times,serif" font-size="14.00">destroy</text>
<text text-anchor="start" x="-215.604" y="-25.8" font-family="Times,serif" font-size="14.00">edit</text>
<text text-anchor="start" x="-215.604" y="-11.8" font-family="Times,serif" font-size="14.00">index</text>
<text text-anchor="start" x="-215.604" y="2.2" font-family="Times,serif" font-size="14.00">new</text>
<text text-anchor="start" x="-215.604" y="16.2" font-family="Times,serif" font-size="14.00">show</text>
<text text-anchor="start" x="-215.604" y="30.2" font-family="Times,serif" font-size="14.00">update</text>
<polyline fill="none" stroke="black" points="-223.604,37 -110.396,37 "/>
<polyline fill="none" stroke="black" points="-223.604,61 -110.396,61 "/>
<text text-anchor="start" x="-215.604" y="76.2" font-family="Times,serif" font-size="14.00">_layout</text>
<text text-anchor="start" x="-215.604" y="90.2" font-family="Times,serif" font-size="14.00">brand_params</text>
<text text-anchor="start" x="-215.604" y="104.2" font-family="Times,serif" font-size="14.00">set_brand</text>
</g>
<!-- ClientActionsController -->
<g id="node6" class="node"><title>ClientActionsController</title>
<path fill="none" stroke="black" d="M300.341,-1C300.341,-1 427.659,-1 427.659,-1 433.659,-1 439.659,-7 439.659,-13 439.659,-13 439.659,-93 439.659,-93 439.659,-99 433.659,-105 427.659,-105 427.659,-105 300.341,-105 300.341,-105 294.341,-105 288.341,-99 288.341,-93 288.341,-93 288.341,-13 288.341,-13 288.341,-7 294.341,-1 300.341,-1"/>
<text text-anchor="middle" x="364" y="-89.8" font-family="Times,serif" font-size="14.00">ClientActionsController</text>
<polyline fill="none" stroke="black" points="288.341,-83 439.659,-83 "/>
<text text-anchor="start" x="296.341" y="-67.8" font-family="Times,serif" font-size="14.00">home</text>
<text text-anchor="start" x="296.341" y="-53.8" font-family="Times,serif" font-size="14.00">show</text>
<polyline fill="none" stroke="black" points="288.341,-47 439.659,-47 "/>
<polyline fill="none" stroke="black" points="288.341,-23 439.659,-23 "/>
<text text-anchor="start" x="296.341" y="-7.8" font-family="Times,serif" font-size="14.00">_layout</text>
</g>
<!-- GenericCarsController -->
<g id="node7" class="node"><title>GenericCarsController</title>
<path fill="none" stroke="black" d="M124.245,111C124.245,111 243.755,111 243.755,111 249.755,111 255.755,105 255.755,99 255.755,99 255.755,-107 255.755,-107 255.755,-113 249.755,-119 243.755,-119 243.755,-119 124.245,-119 124.245,-119 118.245,-119 112.245,-113 112.245,-107 112.245,-107 112.245,99 112.245,99 112.245,105 118.245,111 124.245,111"/>
<text text-anchor="middle" x="184" y="-103.8" font-family="Times,serif" font-size="14.00">GenericCarsController</text>
<polyline fill="none" stroke="black" points="112.245,-97 255.755,-97 "/>
<text text-anchor="start" x="120.245" y="-81.8" font-family="Times,serif" font-size="14.00">create</text>
<text text-anchor="start" x="120.245" y="-67.8" font-family="Times,serif" font-size="14.00">destroy</text>
<text text-anchor="start" x="120.245" y="-53.8" font-family="Times,serif" font-size="14.00">edit</text>
<text text-anchor="start" x="120.245" y="-39.8" font-family="Times,serif" font-size="14.00">generic_car_params</text>
<text text-anchor="start" x="120.245" y="-25.8" font-family="Times,serif" font-size="14.00">index</text>
<text text-anchor="start" x="120.245" y="-11.8" font-family="Times,serif" font-size="14.00">new</text>
<text text-anchor="start" x="120.245" y="2.2" font-family="Times,serif" font-size="14.00">search</text>
<text text-anchor="start" x="120.245" y="16.2" font-family="Times,serif" font-size="14.00">set_generic_car</text>
<text text-anchor="start" x="120.245" y="30.2" font-family="Times,serif" font-size="14.00">show</text>
<text text-anchor="start" x="120.245" y="44.2" font-family="Times,serif" font-size="14.00">update</text>
<text text-anchor="start" x="120.245" y="58.2" font-family="Times,serif" font-size="14.00">update_generation</text>
<polyline fill="none" stroke="black" points="112.245,65 255.755,65 "/>
<polyline fill="none" stroke="black" points="112.245,89 255.755,89 "/>
<text text-anchor="start" x="120.245" y="104.2" font-family="Times,serif" font-size="14.00">_layout</text>
</g>
<!-- GenericSparesController -->
<g id="node8" class="node"><title>GenericSparesController</title>
<path fill="none" stroke="black" d="M-67.5864,127C-67.5864,127 63.5864,127 63.5864,127 69.5864,127 75.5864,121 75.5864,115 75.5864,115 75.5864,-91 75.5864,-91 75.5864,-97 69.5864,-103 63.5864,-103 63.5864,-103 -67.5864,-103 -67.5864,-103 -73.5864,-103 -79.5864,-97 -79.5864,-91 -79.5864,-91 -79.5864,115 -79.5864,115 -79.5864,121 -73.5864,127 -67.5864,127"/>
<text text-anchor="middle" x="-2" y="-87.8" font-family="Times,serif" font-size="14.00">GenericSparesController</text>
<polyline fill="none" stroke="black" points="-79.5864,-81 75.5864,-81 "/>
<text text-anchor="start" x="-71.5864" y="-65.8" font-family="Times,serif" font-size="14.00">create</text>
<text text-anchor="start" x="-71.5864" y="-51.8" font-family="Times,serif" font-size="14.00">destroy</text>
<text text-anchor="start" x="-71.5864" y="-37.8" font-family="Times,serif" font-size="14.00">edit</text>
<text text-anchor="start" x="-71.5864" y="-23.8" font-family="Times,serif" font-size="14.00">generic_spare_params</text>
<text text-anchor="start" x="-71.5864" y="-9.8" font-family="Times,serif" font-size="14.00">index</text>
<text text-anchor="start" x="-71.5864" y="4.2" font-family="Times,serif" font-size="14.00">new</text>
<text text-anchor="start" x="-71.5864" y="18.2" font-family="Times,serif" font-size="14.00">newTemplate</text>
<text text-anchor="start" x="-71.5864" y="32.2" font-family="Times,serif" font-size="14.00">set_generic_spare</text>
<text text-anchor="start" x="-71.5864" y="46.2" font-family="Times,serif" font-size="14.00">show</text>
<text text-anchor="start" x="-71.5864" y="60.2" font-family="Times,serif" font-size="14.00">template</text>
<text text-anchor="start" x="-71.5864" y="74.2" font-family="Times,serif" font-size="14.00">update</text>
<polyline fill="none" stroke="black" points="-79.5864,81 75.5864,81 "/>
<polyline fill="none" stroke="black" points="-79.5864,105 75.5864,105 "/>
<text text-anchor="start" x="-71.5864" y="120.2" font-family="Times,serif" font-size="14.00">_layout</text>
</g>
<!-- InvoicesController -->
<g id="node9" class="node"><title>InvoicesController</title>
<path fill="none" stroke="black" d="M-36.4863,367C-36.4863,367 60.4863,367 60.4863,367 66.4863,367 72.4863,361 72.4863,355 72.4863,355 72.4863,289 72.4863,289 72.4863,283 66.4863,277 60.4863,277 60.4863,277 -36.4863,277 -36.4863,277 -42.4863,277 -48.4863,283 -48.4863,289 -48.4863,289 -48.4863,355 -48.4863,355 -48.4863,361 -42.4863,367 -36.4863,367"/>
<text text-anchor="middle" x="12" y="292.2" font-family="Times,serif" font-size="14.00">InvoicesController</text>
<polyline fill="none" stroke="black" points="-48.4863,299 72.4863,299 "/>
<text text-anchor="start" x="-40.4863" y="314.2" font-family="Times,serif" font-size="14.00">home</text>
<polyline fill="none" stroke="black" points="-48.4863,321 72.4863,321 "/>
<polyline fill="none" stroke="black" points="-48.4863,345 72.4863,345 "/>
<text text-anchor="start" x="-40.4863" y="360.2" font-family="Times,serif" font-size="14.00">_layout</text>
</g>
<!-- ModelAcronymsController -->
<g id="node10" class="node"><title>ModelAcronymsController</title>
<path fill="none" stroke="black" d="M-84.2104,-129C-84.2104,-129 60.2104,-129 60.2104,-129 66.2104,-129 72.2104,-135 72.2104,-141 72.2104,-141 72.2104,-319 72.2104,-319 72.2104,-325 66.2104,-331 60.2104,-331 60.2104,-331 -84.2104,-331 -84.2104,-331 -90.2104,-331 -96.2104,-325 -96.2104,-319 -96.2104,-319 -96.2104,-141 -96.2104,-141 -96.2104,-135 -90.2104,-129 -84.2104,-129"/>
<text text-anchor="middle" x="-12" y="-315.8" font-family="Times,serif" font-size="14.00">ModelAcronymsController</text>
<polyline fill="none" stroke="black" points="-96.2104,-309 72.2104,-309 "/>
<text text-anchor="start" x="-88.2104" y="-293.8" font-family="Times,serif" font-size="14.00">create</text>
<text text-anchor="start" x="-88.2104" y="-279.8" font-family="Times,serif" font-size="14.00">destroy</text>
<text text-anchor="start" x="-88.2104" y="-265.8" font-family="Times,serif" font-size="14.00">edit</text>
<text text-anchor="start" x="-88.2104" y="-251.8" font-family="Times,serif" font-size="14.00">index</text>
<text text-anchor="start" x="-88.2104" y="-237.8" font-family="Times,serif" font-size="14.00">new</text>
<text text-anchor="start" x="-88.2104" y="-223.8" font-family="Times,serif" font-size="14.00">show</text>
<text text-anchor="start" x="-88.2104" y="-209.8" font-family="Times,serif" font-size="14.00">update</text>
<polyline fill="none" stroke="black" points="-96.2104,-203 72.2104,-203 "/>
<polyline fill="none" stroke="black" points="-96.2104,-179 72.2104,-179 "/>
<text text-anchor="start" x="-88.2104" y="-163.8" font-family="Times,serif" font-size="14.00">_layout</text>
<text text-anchor="start" x="-88.2104" y="-149.8" font-family="Times,serif" font-size="14.00">model_acronym_params</text>
<text text-anchor="start" x="-88.2104" y="-135.8" font-family="Times,serif" font-size="14.00">set_model_acronym</text>
</g>
<!-- MoldSparesController -->
<g id="node11" class="node"><title>MoldSparesController</title>
<path fill="none" stroke="black" d="M156.396,-145C156.396,-145 273.604,-145 273.604,-145 279.604,-145 285.604,-151 285.604,-157 285.604,-157 285.604,-335 285.604,-335 285.604,-341 279.604,-347 273.604,-347 273.604,-347 156.396,-347 156.396,-347 150.396,-347 144.396,-341 144.396,-335 144.396,-335 144.396,-157 144.396,-157 144.396,-151 150.396,-145 156.396,-145"/>
<text text-anchor="middle" x="215" y="-331.8" font-family="Times,serif" font-size="14.00">MoldSparesController</text>
<polyline fill="none" stroke="black" points="144.396,-325 285.604,-325 "/>
<text text-anchor="start" x="152.396" y="-309.8" font-family="Times,serif" font-size="14.00">create</text>
<text text-anchor="start" x="152.396" y="-295.8" font-family="Times,serif" font-size="14.00">destroy</text>
<text text-anchor="start" x="152.396" y="-281.8" font-family="Times,serif" font-size="14.00">edit</text>
<text text-anchor="start" x="152.396" y="-267.8" font-family="Times,serif" font-size="14.00">index</text>
<text text-anchor="start" x="152.396" y="-253.8" font-family="Times,serif" font-size="14.00">new</text>
<text text-anchor="start" x="152.396" y="-239.8" font-family="Times,serif" font-size="14.00">show</text>
<text text-anchor="start" x="152.396" y="-225.8" font-family="Times,serif" font-size="14.00">update</text>
<polyline fill="none" stroke="black" points="144.396,-219 285.604,-219 "/>
<polyline fill="none" stroke="black" points="144.396,-195 285.604,-195 "/>
<text text-anchor="start" x="152.396" y="-179.8" font-family="Times,serif" font-size="14.00">_layout</text>
<text text-anchor="start" x="152.396" y="-165.8" font-family="Times,serif" font-size="14.00">mold_spare_params</text>
<text text-anchor="start" x="152.396" y="-151.8" font-family="Times,serif" font-size="14.00">set_mold_spare</text>
</g>
<!-- PrevaluationsController -->
<g id="node12" class="node"><title>PrevaluationsController</title>
<path fill="none" stroke="black" d="M124.124,271C124.124,271 249.876,271 249.876,271 255.876,271 261.876,265 261.876,259 261.876,259 261.876,151 261.876,151 261.876,145 255.876,139 249.876,139 249.876,139 124.124,139 124.124,139 118.124,139 112.124,145 112.124,151 112.124,151 112.124,259 112.124,259 112.124,265 118.124,271 124.124,271"/>
<text text-anchor="middle" x="187" y="154.2" font-family="Times,serif" font-size="14.00">PrevaluationsController</text>
<polyline fill="none" stroke="black" points="112.124,161 261.876,161 "/>
<text text-anchor="start" x="120.124" y="176.2" font-family="Times,serif" font-size="14.00">create</text>
<text text-anchor="start" x="120.124" y="190.2" font-family="Times,serif" font-size="14.00">new</text>
<text text-anchor="start" x="120.124" y="204.2" font-family="Times,serif" font-size="14.00">pre_valuation_params</text>
<text text-anchor="start" x="120.124" y="218.2" font-family="Times,serif" font-size="14.00">show</text>
<polyline fill="none" stroke="black" points="112.124,225 261.876,225 "/>
<polyline fill="none" stroke="black" points="112.124,249 261.876,249 "/>
<text text-anchor="start" x="120.124" y="264.2" font-family="Times,serif" font-size="14.00">_layout</text>
</g>
<!-- ReportsController -->
<g id="node13" class="node"><title>ReportsController</title>
<path fill="none" stroke="black" d="M-227.548,-241C-227.548,-241 -134.452,-241 -134.452,-241 -128.452,-241 -122.452,-247 -122.452,-253 -122.452,-253 -122.452,-389 -122.452,-389 -122.452,-395 -128.452,-401 -134.452,-401 -134.452,-401 -227.548,-401 -227.548,-401 -233.548,-401 -239.548,-395 -239.548,-389 -239.548,-389 -239.548,-253 -239.548,-253 -239.548,-247 -233.548,-241 -227.548,-241"/>
<text text-anchor="middle" x="-181" y="-385.8" font-family="Times,serif" font-size="14.00">ReportsController</text>
<polyline fill="none" stroke="black" points="-239.548,-379 -122.452,-379 "/>
<text text-anchor="start" x="-231.548" y="-363.8" font-family="Times,serif" font-size="14.00">cars</text>
<text text-anchor="start" x="-231.548" y="-349.8" font-family="Times,serif" font-size="14.00">index</text>
<text text-anchor="start" x="-231.548" y="-335.8" font-family="Times,serif" font-size="14.00">insurance</text>
<text text-anchor="start" x="-231.548" y="-321.8" font-family="Times,serif" font-size="14.00">new</text>
<text text-anchor="start" x="-231.548" y="-307.8" font-family="Times,serif" font-size="14.00">repair</text>
<text text-anchor="start" x="-231.548" y="-293.8" font-family="Times,serif" font-size="14.00">show</text>
<polyline fill="none" stroke="black" points="-239.548,-287 -122.452,-287 "/>
<polyline fill="none" stroke="black" points="-239.548,-263 -122.452,-263 "/>
<text text-anchor="start" x="-231.548" y="-247.8" font-family="Times,serif" font-size="14.00">_layout</text>
</g>
<!-- RosterController -->
<g id="node14" class="node"><title>RosterController</title>
<path fill="none" stroke="black" d="M300.031,287C300.031,287 417.969,287 417.969,287 423.969,287 429.969,281 429.969,275 429.969,275 429.969,181 429.969,181 429.969,175 423.969,169 417.969,169 417.969,169 300.031,169 300.031,169 294.031,169 288.031,175 288.031,181 288.031,181 288.031,275 288.031,275 288.031,281 294.031,287 300.031,287"/>
<text text-anchor="middle" x="359" y="184.2" font-family="Times,serif" font-size="14.00">RosterController</text>
<polyline fill="none" stroke="black" points="288.031,191 429.969,191 "/>
<text text-anchor="start" x="296.031" y="206.2" font-family="Times,serif" font-size="14.00">attendance</text>
<text text-anchor="start" x="296.031" y="220.2" font-family="Times,serif" font-size="14.00">employeePerformance</text>
<text text-anchor="start" x="296.031" y="234.2" font-family="Times,serif" font-size="14.00">index</text>
<polyline fill="none" stroke="black" points="288.031,241 429.969,241 "/>
<polyline fill="none" stroke="black" points="288.031,265 429.969,265 "/>
<text text-anchor="start" x="296.031" y="280.2" font-family="Times,serif" font-size="14.00">_layout</text>
</g>
<!-- SessionsController -->
<g id="node15" class="node"><title>SessionsController</title>
<path fill="none" stroke="black" d="M332.11,-145C332.11,-145 429.89,-145 429.89,-145 435.89,-145 441.89,-151 441.89,-157 441.89,-157 441.89,-251 441.89,-251 441.89,-257 435.89,-263 429.89,-263 429.89,-263 332.11,-263 332.11,-263 326.11,-263 320.11,-257 320.11,-251 320.11,-251 320.11,-157 320.11,-157 320.11,-151 326.11,-145 332.11,-145"/>
<text text-anchor="middle" x="381" y="-247.8" font-family="Times,serif" font-size="14.00">SessionsController</text>
<polyline fill="none" stroke="black" points="320.11,-241 441.89,-241 "/>
<text text-anchor="start" x="328.11" y="-225.8" font-family="Times,serif" font-size="14.00">create</text>
<text text-anchor="start" x="328.11" y="-211.8" font-family="Times,serif" font-size="14.00">destroy</text>
<text text-anchor="start" x="328.11" y="-197.8" font-family="Times,serif" font-size="14.00">new</text>
<polyline fill="none" stroke="black" points="320.11,-191 441.89,-191 "/>
<polyline fill="none" stroke="black" points="320.11,-167 441.89,-167 "/>
<text text-anchor="start" x="328.11" y="-151.8" font-family="Times,serif" font-size="14.00">_layout</text>
</g>
<!-- SparesController -->
<g id="node16" class="node"><title>SparesController</title>
<path fill="none" stroke="black" d="M-356.435,-1C-356.435,-1 -269.565,-1 -269.565,-1 -263.565,-1 -257.565,-7 -257.565,-13 -257.565,-13 -257.565,-107 -257.565,-107 -257.565,-113 -263.565,-119 -269.565,-119 -269.565,-119 -356.435,-119 -356.435,-119 -362.435,-119 -368.435,-113 -368.435,-107 -368.435,-107 -368.435,-13 -368.435,-13 -368.435,-7 -362.435,-1 -356.435,-1"/>
<text text-anchor="middle" x="-313" y="-103.8" font-family="Times,serif" font-size="14.00">SparesController</text>
<polyline fill="none" stroke="black" points="-368.435,-97 -257.565,-97 "/>
<text text-anchor="start" x="-360.435" y="-81.8" font-family="Times,serif" font-size="14.00">edit</text>
<text text-anchor="start" x="-360.435" y="-67.8" font-family="Times,serif" font-size="14.00">index</text>
<text text-anchor="start" x="-360.435" y="-53.8" font-family="Times,serif" font-size="14.00">new</text>
<polyline fill="none" stroke="black" points="-368.435,-47 -257.565,-47 "/>
<polyline fill="none" stroke="black" points="-368.435,-23 -257.565,-23 "/>
<text text-anchor="start" x="-360.435" y="-7.8" font-family="Times,serif" font-size="14.00">_layout</text>
</g>
<!-- UsersController -->
<g id="node17" class="node"><title>UsersController</title>
<path fill="none" stroke="black" d="M332.286,-289C332.286,-289 413.714,-289 413.714,-289 419.714,-289 425.714,-295 425.714,-301 425.714,-301 425.714,-409 425.714,-409 425.714,-415 419.714,-421 413.714,-421 413.714,-421 332.286,-421 332.286,-421 326.286,-421 320.286,-415 320.286,-409 320.286,-409 320.286,-301 320.286,-301 320.286,-295 326.286,-289 332.286,-289"/>
<text text-anchor="middle" x="373" y="-405.8" font-family="Times,serif" font-size="14.00">UsersController</text>
<polyline fill="none" stroke="black" points="320.286,-399 425.714,-399 "/>
<text text-anchor="start" x="328.286" y="-383.8" font-family="Times,serif" font-size="14.00">create</text>
<text text-anchor="start" x="328.286" y="-369.8" font-family="Times,serif" font-size="14.00">new</text>
<text text-anchor="start" x="328.286" y="-355.8" font-family="Times,serif" font-size="14.00">show</text>
<polyline fill="none" stroke="black" points="320.286,-349 425.714,-349 "/>
<polyline fill="none" stroke="black" points="320.286,-325 425.714,-325 "/>
<text text-anchor="start" x="328.286" y="-309.8" font-family="Times,serif" font-size="14.00">_layout</text>
<text text-anchor="start" x="328.286" y="-295.8" font-family="Times,serif" font-size="14.00">user_params</text>
</g>
<!-- ValuationsController -->
<g id="node18" class="node"><title>ValuationsController</title>
<path fill="none" stroke="black" d="M299.676,143C299.676,143 408.324,143 408.324,143 414.324,143 420.324,137 420.324,131 420.324,131 420.324,37 420.324,37 420.324,31 414.324,25 408.324,25 408.324,25 299.676,25 299.676,25 293.676,25 287.676,31 287.676,37 287.676,37 287.676,131 287.676,131 287.676,137 293.676,143 299.676,143"/>
<text text-anchor="middle" x="354" y="40.2" font-family="Times,serif" font-size="14.00">ValuationsController</text>
<polyline fill="none" stroke="black" points="287.676,47 420.324,47 "/>
<text text-anchor="start" x="295.676" y="62.2" font-family="Times,serif" font-size="14.00">index</text>
<text text-anchor="start" x="295.676" y="76.2" font-family="Times,serif" font-size="14.00">new</text>
<text text-anchor="start" x="295.676" y="90.2" font-family="Times,serif" font-size="14.00">show</text>
<polyline fill="none" stroke="black" points="287.676,97 420.324,97 "/>
<polyline fill="none" stroke="black" points="287.676,121 420.324,121 "/>
<text text-anchor="start" x="295.676" y="136.2" font-family="Times,serif" font-size="14.00">_layout</text>
</g>
<!-- WelcomeController -->
<g id="node19" class="node"><title>WelcomeController</title>
<path fill="none" stroke="black" d="M-356.033,367C-356.033,367 -253.967,367 -253.967,367 -247.967,367 -241.967,361 -241.967,355 -241.967,355 -241.967,289 -241.967,289 -241.967,283 -247.967,277 -253.967,277 -253.967,277 -356.033,277 -356.033,277 -362.033,277 -368.033,283 -368.033,289 -368.033,289 -368.033,355 -368.033,355 -368.033,361 -362.033,367 -356.033,367"/>
<text text-anchor="middle" x="-305" y="292.2" font-family="Times,serif" font-size="14.00">WelcomeController</text>
<polyline fill="none" stroke="black" points="-368.033,299 -241.967,299 "/>
<text text-anchor="start" x="-360.033" y="314.2" font-family="Times,serif" font-size="14.00">index</text>
<polyline fill="none" stroke="black" points="-368.033,321 -241.967,321 "/>
<polyline fill="none" stroke="black" points="-368.033,345 -241.967,345 "/>
<text text-anchor="start" x="-360.033" y="360.2" font-family="Times,serif" font-size="14.00">_layout</text>
</g>
</g>
</svg>
