<?xml version="1.0" encoding="UTF-8" standalone="no"?>
<!DOCTYPE svg PUBLIC "-//W3C//DTD SVG 1.1//EN"
 "http://www.w3.org/Graphics/SVG/1.1/DTD/svg11.dtd">
<!-- Generated by graphviz version 2.38.0 (20140413.2041)
 -->
<!-- Title: controllers_diagram Pages: 1 -->
<svg width="684pt" height="550pt"
 viewBox="0.00 0.00 684.15 549.90" xmlns="http://www.w3.org/2000/svg" xmlns:xlink="http://www.w3.org/1999/xlink">
<g id="graph0" class="graph" transform="scale(1 1) rotate(0) translate(220.466 329.5)">
<title>controllers_diagram</title>
<polygon fill="white" stroke="none" points="-220.466,220.402 -220.466,-329.5 463.688,-329.5 463.688,220.402 -220.466,220.402"/>
<!-- _diagram_info -->
<g id="node1" class="node"><title>_diagram_info</title>
<text text-anchor="start" x="260.312" y="-311.1" font-family="Times,serif" font-size="13.00">Controllers diagram</text>
<text text-anchor="start" x="260.312" y="-298.1" font-family="Times,serif" font-size="13.00">Date: Sep 12 2014 &#45; 18:36</text>
<text text-anchor="start" x="260.312" y="-285.1" font-family="Times,serif" font-size="13.00">Migration version: 20140912232245</text>
<text text-anchor="start" x="260.312" y="-272.1" font-family="Times,serif" font-size="13.00">Generated by RailRoady 1.1.2</text>
<text text-anchor="start" x="260.312" y="-259.1" font-family="Times,serif" font-size="13.00">http://railroady.prestonlee.com</text>
</g>
<!-- ApplicationController -->
<g id="node2" class="node"><title>ApplicationController</title>
<path fill="none" stroke="black" d="M-53.6338,37.2084C-53.6338,37.2084 62.0078,37.2084 62.0078,37.2084 68.0078,37.2084 74.0078,31.2084 74.0078,25.2084 74.0078,25.2084 74.0078,-42.7916 74.0078,-42.7916 74.0078,-48.7916 68.0078,-54.7916 62.0078,-54.7916 62.0078,-54.7916 -53.6338,-54.7916 -53.6338,-54.7916 -59.6338,-54.7916 -65.6338,-48.7916 -65.6338,-42.7916 -65.6338,-42.7916 -65.6338,25.2084 -65.6338,25.2084 -65.6338,31.2084 -59.6338,37.2084 -53.6338,37.2084"/>
<text text-anchor="middle" x="4.18698" y="-39.5916" font-family="Times,serif" font-size="14.00">ApplicationController</text>
<polyline fill="none" stroke="black" points="-65.6338,-32.7916 74.0078,-32.7916 "/>
<polyline fill="none" stroke="black" points="-65.6338,-8.79163 74.0078,-8.79163 "/>
<polyline fill="none" stroke="black" points="-65.6338,15.2084 74.0078,15.2084 "/>
<text text-anchor="start" x="-57.6338" y="30.4084" font-family="Times,serif" font-size="14.00">_layout</text>
</g>
<!-- GenericCarsController -->
<g id="node3" class="node"><title>GenericCarsController</title>
<path fill="none" stroke="black" d="M99.6671,163.701C99.6671,163.701 219.178,163.701 219.178,163.701 225.178,163.701 231.178,157.701 231.178,151.701 231.178,151.701 231.178,57.7007 231.178,57.7007 231.178,51.7007 225.178,45.7007 219.178,45.7007 219.178,45.7007 99.6671,45.7007 99.6671,45.7007 93.6671,45.7007 87.6671,51.7007 87.6671,57.7007 87.6671,57.7007 87.6671,151.701 87.6671,151.701 87.6671,157.701 93.6671,163.701 99.6671,163.701"/>
<text text-anchor="middle" x="159.422" y="60.9007" font-family="Times,serif" font-size="14.00">GenericCarsController</text>
<polyline fill="none" stroke="black" points="87.6671,67.7007 231.178,67.7007 "/>
<text text-anchor="start" x="95.6671" y="82.9007" font-family="Times,serif" font-size="14.00">create</text>
<text text-anchor="start" x="95.6671" y="96.9007" font-family="Times,serif" font-size="14.00">generic_car_params</text>
<text text-anchor="start" x="95.6671" y="110.901" font-family="Times,serif" font-size="14.00">new</text>
<polyline fill="none" stroke="black" points="87.6671,117.701 231.178,117.701 "/>
<polyline fill="none" stroke="black" points="87.6671,141.701 231.178,141.701 "/>
<text text-anchor="start" x="95.6671" y="156.901" font-family="Times,serif" font-size="14.00">_layout</text>
</g>
<!-- ApplicationController&#45;&gt;GenericCarsController -->
<g id="edge1" class="edge"><title>ApplicationController&#45;&gt;GenericCarsController</title>
<path fill="none" stroke="black" d="M67.3272,37.37C73.9585,42.2182 80.736,47.1732 87.4567,52.0867"/>
</g>
<!-- PreValuationsController -->
<g id="node4" class="node"><title>PreValuationsController</title>
<path fill="none" stroke="black" d="M-60.0005,215.902C-60.0005,215.902 67.31,215.902 67.31,215.902 73.31,215.902 79.31,209.902 79.31,203.902 79.31,203.902 79.31,95.902 79.31,95.902 79.31,89.902 73.31,83.902 67.31,83.902 67.31,83.902 -60.0005,83.902 -60.0005,83.902 -66.0005,83.902 -72.0005,89.902 -72.0005,95.902 -72.0005,95.902 -72.0005,203.902 -72.0005,203.902 -72.0005,209.902 -66.0005,215.902 -60.0005,215.902"/>
<text text-anchor="middle" x="3.65473" y="99.102" font-family="Times,serif" font-size="14.00">PreValuationsController</text>
<polyline fill="none" stroke="black" points="-72.0005,105.902 79.31,105.902 "/>
<text text-anchor="start" x="-64.0005" y="121.102" font-family="Times,serif" font-size="14.00">create</text>
<text text-anchor="start" x="-64.0005" y="135.102" font-family="Times,serif" font-size="14.00">new</text>
<text text-anchor="start" x="-64.0005" y="149.102" font-family="Times,serif" font-size="14.00">pre_valuation_params</text>
<text text-anchor="start" x="-64.0005" y="163.102" font-family="Times,serif" font-size="14.00">show</text>
<polyline fill="none" stroke="black" points="-72.0005,169.902 79.31,169.902 "/>
<polyline fill="none" stroke="black" points="-72.0005,193.902 79.31,193.902 "/>
<text text-anchor="start" x="-64.0005" y="209.102" font-family="Times,serif" font-size="14.00">_layout</text>
</g>
<!-- ApplicationController&#45;&gt;PreValuationsController -->
<g id="edge2" class="edge"><title>ApplicationController&#45;&gt;PreValuationsController</title>
<path fill="none" stroke="black" d="M4.0316,37.5357C3.98312,51.9905 3.92867,68.2246 3.87655,83.7633"/>
</g>
<!-- SessionsController -->
<g id="node5" class="node"><title>SessionsController</title>
<path fill="none" stroke="black" d="M-199.585,-62.7047C-199.585,-62.7047 -101.806,-62.7047 -101.806,-62.7047 -95.8056,-62.7047 -89.8056,-68.7047 -89.8056,-74.7047 -89.8056,-74.7047 -89.8056,-168.705 -89.8056,-168.705 -89.8056,-174.705 -95.8056,-180.705 -101.806,-180.705 -101.806,-180.705 -199.585,-180.705 -199.585,-180.705 -205.585,-180.705 -211.585,-174.705 -211.585,-168.705 -211.585,-168.705 -211.585,-74.7047 -211.585,-74.7047 -211.585,-68.7047 -205.585,-62.7047 -199.585,-62.7047"/>
<text text-anchor="middle" x="-150.695" y="-165.505" font-family="Times,serif" font-size="14.00">SessionsController</text>
<polyline fill="none" stroke="black" points="-211.585,-158.705 -89.8056,-158.705 "/>
<text text-anchor="start" x="-203.585" y="-143.505" font-family="Times,serif" font-size="14.00">create</text>
<text text-anchor="start" x="-203.585" y="-129.505" font-family="Times,serif" font-size="14.00">destroy</text>
<text text-anchor="start" x="-203.585" y="-115.505" font-family="Times,serif" font-size="14.00">new</text>
<polyline fill="none" stroke="black" points="-211.585,-108.705 -89.8056,-108.705 "/>
<polyline fill="none" stroke="black" points="-211.585,-84.7047 -89.8056,-84.7047 "/>
<text text-anchor="start" x="-203.585" y="-69.5047" font-family="Times,serif" font-size="14.00">_layout</text>
</g>
<!-- ApplicationController&#45;&gt;SessionsController -->
<g id="edge3" class="edge"><title>ApplicationController&#45;&gt;SessionsController</title>
<path fill="none" stroke="black" d="M-59.2564,-55.0435C-69.2813,-62.3519 -79.6299,-69.8963 -89.5998,-77.1646"/>
</g>
<!-- UsersController -->
<g id="node6" class="node"><title>UsersController</title>
<path fill="none" stroke="black" d="M119.165,-55.1205C119.165,-55.1205 200.593,-55.1205 200.593,-55.1205 206.593,-55.1205 212.593,-61.1205 212.593,-67.1205 212.593,-67.1205 212.593,-175.12 212.593,-175.12 212.593,-181.12 206.593,-187.12 200.593,-187.12 200.593,-187.12 119.165,-187.12 119.165,-187.12 113.165,-187.12 107.165,-181.12 107.165,-175.12 107.165,-175.12 107.165,-67.1205 107.165,-67.1205 107.165,-61.1205 113.165,-55.1205 119.165,-55.1205"/>
<text text-anchor="middle" x="159.879" y="-171.92" font-family="Times,serif" font-size="14.00">UsersController</text>
<polyline fill="none" stroke="black" points="107.165,-165.12 212.593,-165.12 "/>
<text text-anchor="start" x="115.165" y="-149.92" font-family="Times,serif" font-size="14.00">create</text>
<text text-anchor="start" x="115.165" y="-135.92" font-family="Times,serif" font-size="14.00">new</text>
<text text-anchor="start" x="115.165" y="-121.92" font-family="Times,serif" font-size="14.00">show</text>
<polyline fill="none" stroke="black" points="107.165,-115.12 212.593,-115.12 "/>
<polyline fill="none" stroke="black" points="107.165,-91.1205 212.593,-91.1205 "/>
<text text-anchor="start" x="115.165" y="-75.9205" font-family="Times,serif" font-size="14.00">_layout</text>
<text text-anchor="start" x="115.165" y="-61.9205" font-family="Times,serif" font-size="14.00">user_params</text>
</g>
<!-- ApplicationController&#45;&gt;UsersController -->
<g id="edge4" class="edge"><title>ApplicationController&#45;&gt;UsersController</title>
<path fill="none" stroke="black" d="M67.9621,-54.8042C80.8947,-64.1347 94.3632,-73.852 106.875,-82.8792"/>
</g>
<!-- WelcomeController -->
<g id="node7" class="node"><title>WelcomeController</title>
<path fill="none" stroke="black" d="M-46.1347,-122.041C-46.1347,-122.041 55.9307,-122.041 55.9307,-122.041 61.9307,-122.041 67.9307,-128.041 67.9307,-134.041 67.9307,-134.041 67.9307,-200.041 67.9307,-200.041 67.9307,-206.041 61.9307,-212.041 55.9307,-212.041 55.9307,-212.041 -46.1347,-212.041 -46.1347,-212.041 -52.1347,-212.041 -58.1347,-206.041 -58.1347,-200.041 -58.1347,-200.041 -58.1347,-134.041 -58.1347,-134.041 -58.1347,-128.041 -52.1347,-122.041 -46.1347,-122.041"/>
<text text-anchor="middle" x="4.89801" y="-196.841" font-family="Times,serif" font-size="14.00">WelcomeController</text>
<polyline fill="none" stroke="black" points="-58.1347,-190.041 67.9307,-190.041 "/>
<text text-anchor="start" x="-50.1347" y="-174.841" font-family="Times,serif" font-size="14.00">index</text>
<polyline fill="none" stroke="black" points="-58.1347,-168.041 67.9307,-168.041 "/>
<polyline fill="none" stroke="black" points="-58.1347,-144.041 67.9307,-144.041 "/>
<text text-anchor="start" x="-50.1347" y="-128.841" font-family="Times,serif" font-size="14.00">_layout</text>
</g>
<!-- ApplicationController&#45;&gt;WelcomeController -->
<g id="edge5" class="edge"><title>ApplicationController&#45;&gt;WelcomeController</title>
<path fill="none" stroke="black" d="M4.39455,-54.9895C4.48924,-76.0635 4.60097,-100.93 4.69509,-121.878"/>
</g>
<!-- WorkshopController -->
<g id="node8" class="node"><title>WorkshopController</title>
<path fill="none" stroke="black" d="M-204.466,198.155C-204.466,198.155 -97.7114,198.155 -97.7114,198.155 -91.7114,198.155 -85.7114,192.155 -85.7114,186.155 -85.7114,186.155 -85.7114,22.1546 -85.7114,22.1546 -85.7114,16.1546 -91.7114,10.1546 -97.7114,10.1546 -97.7114,10.1546 -204.466,10.1546 -204.466,10.1546 -210.466,10.1546 -216.466,16.1546 -216.466,22.1546 -216.466,22.1546 -216.466,186.155 -216.466,186.155 -216.466,192.155 -210.466,198.155 -204.466,198.155"/>
<text text-anchor="middle" x="-151.089" y="25.3546" font-family="Times,serif" font-size="14.00">WorkshopController</text>
<polyline fill="none" stroke="black" points="-216.466,32.1546 -85.7114,32.1546 "/>
<text text-anchor="start" x="-208.466" y="47.3546" font-family="Times,serif" font-size="14.00">adjuster</text>
<text text-anchor="start" x="-208.466" y="61.3546" font-family="Times,serif" font-size="14.00">admin</text>
<text text-anchor="start" x="-208.466" y="75.3546" font-family="Times,serif" font-size="14.00">capturist</text>
<text text-anchor="start" x="-208.466" y="89.3546" font-family="Times,serif" font-size="14.00">index</text>
<text text-anchor="start" x="-208.466" y="103.355" font-family="Times,serif" font-size="14.00">manager</text>
<text text-anchor="start" x="-208.466" y="117.355" font-family="Times,serif" font-size="14.00">operative</text>
<text text-anchor="start" x="-208.466" y="131.355" font-family="Times,serif" font-size="14.00">warehouse</text>
<polyline fill="none" stroke="black" points="-216.466,138.155 -85.7114,138.155 "/>
<polyline fill="none" stroke="black" points="-216.466,162.155 -85.7114,162.155 "/>
<text text-anchor="start" x="-208.466" y="177.355" font-family="Times,serif" font-size="14.00">_layout</text>
<text text-anchor="start" x="-208.466" y="191.355" font-family="Times,serif" font-size="14.00">signed_in</text>
</g>
<!-- ApplicationController&#45;&gt;WorkshopController -->
<g id="edge6" class="edge"><title>ApplicationController&#45;&gt;WorkshopController</title>
<path fill="none" stroke="black" d="M-59.4177,37.4738C-68.0442,43.7487 -76.9099,50.1975 -85.5693,56.4963"/>
</g>
</g>
</svg>
