<?xml version="1.0" encoding="UTF-8" standalone="no"?>
<!DOCTYPE svg PUBLIC "-//W3C//DTD SVG 1.1//EN"
 "http://www.w3.org/Graphics/SVG/1.1/DTD/svg11.dtd">
<!-- Generated by graphviz version 2.36.0 (20140111.2315)
 -->
<!-- Title: controllers_diagram Pages: 1 -->
<svg width="1106pt" height="1111pt"
 viewBox="0.00 0.00 1106.07 1111.00" xmlns="http://www.w3.org/2000/svg" xmlns:xlink="http://www.w3.org/1999/xlink">
<g id="graph0" class="graph" transform="scale(1 1) rotate(0) translate(4 1107)">
<title>controllers_diagram</title>
<polygon fill="white" stroke="none" points="-4,4 -4,-1107 1102.07,-1107 1102.07,4 -4,4"/>
<!-- _diagram_info -->
<g id="node1" class="node"><title>_diagram_info</title>
<text text-anchor="start" x="674" y="-112.6" font-family="Times,serif" font-size="13.00">Controllers diagram</text>
<text text-anchor="start" x="674" y="-99.6" font-family="Times,serif" font-size="13.00">Date: Jun 25 2015 &#45; 11:43</text>
<text text-anchor="start" x="674" y="-86.6" font-family="Times,serif" font-size="13.00">Migration version: 20150622221529</text>
<text text-anchor="start" x="674" y="-73.6" font-family="Times,serif" font-size="13.00">Generated by RailRoady 1.3.0</text>
<text text-anchor="start" x="674" y="-60.6" font-family="Times,serif" font-size="13.00">http://railroady.prestonlee.com</text>
</g>
<!-- AdminController -->
<g id="node2" class="node"><title>AdminController</title>
<path fill="none" stroke="black" d="M408,-936.5C408,-936.5 496.435,-936.5 496.435,-936.5 502.435,-936.5 508.435,-942.5 508.435,-948.5 508.435,-948.5 508.435,-1014.5 508.435,-1014.5 508.435,-1020.5 502.435,-1026.5 496.435,-1026.5 496.435,-1026.5 408,-1026.5 408,-1026.5 402,-1026.5 396,-1020.5 396,-1014.5 396,-1014.5 396,-948.5 396,-948.5 396,-942.5 402,-936.5 408,-936.5"/>
<text text-anchor="middle" x="452.217" y="-1011.3" font-family="Times,serif" font-size="14.00">AdminController</text>
<polyline fill="none" stroke="black" points="396,-1004.5 508.435,-1004.5 "/>
<text text-anchor="start" x="404" y="-989.3" font-family="Times,serif" font-size="14.00">home</text>
<polyline fill="none" stroke="black" points="396,-982.5 508.435,-982.5 "/>
<polyline fill="none" stroke="black" points="396,-958.5 508.435,-958.5 "/>
<text text-anchor="start" x="404" y="-943.3" font-family="Times,serif" font-size="14.00">_layout</text>
</g>
<!-- ApplicationController -->
<g id="node3" class="node"><title>ApplicationController</title>
<path fill="none" stroke="black" d="M462,-0.5C462,-0.5 577.642,-0.5 577.642,-0.5 583.642,-0.5 589.642,-6.5 589.642,-12.5 589.642,-12.5 589.642,-80.5 589.642,-80.5 589.642,-86.5 583.642,-92.5 577.642,-92.5 577.642,-92.5 462,-92.5 462,-92.5 456,-92.5 450,-86.5 450,-80.5 450,-80.5 450,-12.5 450,-12.5 450,-6.5 456,-0.5 462,-0.5"/>
<text text-anchor="middle" x="519.821" y="-77.3" font-family="Times,serif" font-size="14.00">ApplicationController</text>
<polyline fill="none" stroke="black" points="450,-70.5 589.642,-70.5 "/>
<polyline fill="none" stroke="black" points="450,-46.5 589.642,-46.5 "/>
<polyline fill="none" stroke="black" points="450,-22.5 589.642,-22.5 "/>
<text text-anchor="start" x="458" y="-7.3" font-family="Times,serif" font-size="14.00">_layout</text>
</g>
<!-- BranchesController -->
<g id="node4" class="node"><title>BranchesController</title>
<path fill="none" stroke="black" d="M228,-0.5C228,-0.5 329.635,-0.5 329.635,-0.5 335.635,-0.5 341.635,-6.5 341.635,-12.5 341.635,-12.5 341.635,-80.5 341.635,-80.5 341.635,-86.5 335.635,-92.5 329.635,-92.5 329.635,-92.5 228,-92.5 228,-92.5 222,-92.5 216,-86.5 216,-80.5 216,-80.5 216,-12.5 216,-12.5 216,-6.5 222,-0.5 228,-0.5"/>
<text text-anchor="middle" x="278.817" y="-77.3" font-family="Times,serif" font-size="14.00">BranchesController</text>
<polyline fill="none" stroke="black" points="216,-70.5 341.635,-70.5 "/>
<polyline fill="none" stroke="black" points="216,-46.5 341.635,-46.5 "/>
<polyline fill="none" stroke="black" points="216,-22.5 341.635,-22.5 "/>
<text text-anchor="start" x="224" y="-7.3" font-family="Times,serif" font-size="14.00">_layout</text>
</g>
<!-- BrandsController -->
<g id="node5" class="node"><title>BrandsController</title>
<path fill="none" stroke="black" d="M840,-666.5C840,-666.5 929.207,-666.5 929.207,-666.5 935.207,-666.5 941.207,-672.5 941.207,-678.5 941.207,-678.5 941.207,-856.5 941.207,-856.5 941.207,-862.5 935.207,-868.5 929.207,-868.5 929.207,-868.5 840,-868.5 840,-868.5 834,-868.5 828,-862.5 828,-856.5 828,-856.5 828,-678.5 828,-678.5 828,-672.5 834,-666.5 840,-666.5"/>
<text text-anchor="middle" x="884.604" y="-853.3" font-family="Times,serif" font-size="14.00">BrandsController</text>
<polyline fill="none" stroke="black" points="828,-846.5 941.207,-846.5 "/>
<text text-anchor="start" x="836" y="-831.3" font-family="Times,serif" font-size="14.00">create</text>
<text text-anchor="start" x="836" y="-817.3" font-family="Times,serif" font-size="14.00">destroy</text>
<text text-anchor="start" x="836" y="-803.3" font-family="Times,serif" font-size="14.00">edit</text>
<text text-anchor="start" x="836" y="-789.3" font-family="Times,serif" font-size="14.00">index</text>
<text text-anchor="start" x="836" y="-775.3" font-family="Times,serif" font-size="14.00">new</text>
<text text-anchor="start" x="836" y="-761.3" font-family="Times,serif" font-size="14.00">show</text>
<text text-anchor="start" x="836" y="-747.3" font-family="Times,serif" font-size="14.00">update</text>
<polyline fill="none" stroke="black" points="828,-740.5 941.207,-740.5 "/>
<polyline fill="none" stroke="black" points="828,-716.5 941.207,-716.5 "/>
<text text-anchor="start" x="836" y="-701.3" font-family="Times,serif" font-size="14.00">_layout</text>
<text text-anchor="start" x="836" y="-687.3" font-family="Times,serif" font-size="14.00">brand_params</text>
<text text-anchor="start" x="836" y="-673.3" font-family="Times,serif" font-size="14.00">set_brand</text>
</g>
<!-- ClientActionsController -->
<g id="node6" class="node"><title>ClientActionsController</title>
<path fill="none" stroke="black" d="M912,-18.5C912,-18.5 1039.32,-18.5 1039.32,-18.5 1045.32,-18.5 1051.32,-24.5 1051.32,-30.5 1051.32,-30.5 1051.32,-110.5 1051.32,-110.5 1051.32,-116.5 1045.32,-122.5 1039.32,-122.5 1039.32,-122.5 912,-122.5 912,-122.5 906,-122.5 900,-116.5 900,-110.5 900,-110.5 900,-30.5 900,-30.5 900,-24.5 906,-18.5 912,-18.5"/>
<text text-anchor="middle" x="975.659" y="-107.3" font-family="Times,serif" font-size="14.00">ClientActionsController</text>
<polyline fill="none" stroke="black" points="900,-100.5 1051.32,-100.5 "/>
<text text-anchor="start" x="908" y="-85.3" font-family="Times,serif" font-size="14.00">home</text>
<text text-anchor="start" x="908" y="-71.3" font-family="Times,serif" font-size="14.00">show</text>
<polyline fill="none" stroke="black" points="900,-64.5 1051.32,-64.5 "/>
<polyline fill="none" stroke="black" points="900,-40.5 1051.32,-40.5 "/>
<text text-anchor="start" x="908" y="-25.3" font-family="Times,serif" font-size="14.00">_layout</text>
</g>
<!-- GenericCarsController -->
<g id="node7" class="node"><title>GenericCarsController</title>
<path fill="none" stroke="black" d="M408,-648.5C408,-648.5 527.511,-648.5 527.511,-648.5 533.511,-648.5 539.511,-654.5 539.511,-660.5 539.511,-660.5 539.511,-894.5 539.511,-894.5 539.511,-900.5 533.511,-906.5 527.511,-906.5 527.511,-906.5 408,-906.5 408,-906.5 402,-906.5 396,-900.5 396,-894.5 396,-894.5 396,-660.5 396,-660.5 396,-654.5 402,-648.5 408,-648.5"/>
<text text-anchor="middle" x="467.755" y="-891.3" font-family="Times,serif" font-size="14.00">GenericCarsController</text>
<polyline fill="none" stroke="black" points="396,-884.5 539.511,-884.5 "/>
<text text-anchor="start" x="404" y="-869.3" font-family="Times,serif" font-size="14.00">assignation</text>
<text text-anchor="start" x="404" y="-855.3" font-family="Times,serif" font-size="14.00">create</text>
<text text-anchor="start" x="404" y="-841.3" font-family="Times,serif" font-size="14.00">destroy</text>
<text text-anchor="start" x="404" y="-827.3" font-family="Times,serif" font-size="14.00">edit</text>
<text text-anchor="start" x="404" y="-813.3" font-family="Times,serif" font-size="14.00">index</text>
<text text-anchor="start" x="404" y="-799.3" font-family="Times,serif" font-size="14.00">new</text>
<text text-anchor="start" x="404" y="-785.3" font-family="Times,serif" font-size="14.00">relate_generic_family</text>
<text text-anchor="start" x="404" y="-771.3" font-family="Times,serif" font-size="14.00">search_by_model</text>
<text text-anchor="start" x="404" y="-757.3" font-family="Times,serif" font-size="14.00">show</text>
<text text-anchor="start" x="404" y="-743.3" font-family="Times,serif" font-size="14.00">update</text>
<text text-anchor="start" x="404" y="-729.3" font-family="Times,serif" font-size="14.00">update_generation</text>
<polyline fill="none" stroke="black" points="396,-722.5 539.511,-722.5 "/>
<polyline fill="none" stroke="black" points="396,-698.5 539.511,-698.5 "/>
<text text-anchor="start" x="404" y="-683.3" font-family="Times,serif" font-size="14.00">_layout</text>
<text text-anchor="start" x="404" y="-669.3" font-family="Times,serif" font-size="14.00">generic_car_params</text>
<text text-anchor="start" x="404" y="-655.3" font-family="Times,serif" font-size="14.00">set_generic_car</text>
</g>
<!-- GenericFamiliesController -->
<g id="node8" class="node"><title>GenericFamiliesController</title>
<path fill="none" stroke="black" d="M588,-360.5C588,-360.5 730.069,-360.5 730.069,-360.5 736.069,-360.5 742.069,-366.5 742.069,-372.5 742.069,-372.5 742.069,-620.5 742.069,-620.5 742.069,-626.5 736.069,-632.5 730.069,-632.5 730.069,-632.5 588,-632.5 588,-632.5 582,-632.5 576,-626.5 576,-620.5 576,-620.5 576,-372.5 576,-372.5 576,-366.5 582,-360.5 588,-360.5"/>
<text text-anchor="middle" x="659.035" y="-617.3" font-family="Times,serif" font-size="14.00">GenericFamiliesController</text>
<polyline fill="none" stroke="black" points="576,-610.5 742.069,-610.5 "/>
<text text-anchor="start" x="584" y="-595.3" font-family="Times,serif" font-size="14.00">assign</text>
<text text-anchor="start" x="584" y="-581.3" font-family="Times,serif" font-size="14.00">assigned</text>
<text text-anchor="start" x="584" y="-567.3" font-family="Times,serif" font-size="14.00">count_spares</text>
<text text-anchor="start" x="584" y="-553.3" font-family="Times,serif" font-size="14.00">create</text>
<text text-anchor="start" x="584" y="-539.3" font-family="Times,serif" font-size="14.00">destroy</text>
<text text-anchor="start" x="584" y="-525.3" font-family="Times,serif" font-size="14.00">duplicate</text>
<text text-anchor="start" x="584" y="-511.3" font-family="Times,serif" font-size="14.00">edit</text>
<text text-anchor="start" x="584" y="-497.3" font-family="Times,serif" font-size="14.00">index</text>
<text text-anchor="start" x="584" y="-483.3" font-family="Times,serif" font-size="14.00">new</text>
<text text-anchor="start" x="584" y="-469.3" font-family="Times,serif" font-size="14.00">not_assigned</text>
<text text-anchor="start" x="584" y="-455.3" font-family="Times,serif" font-size="14.00">show</text>
<text text-anchor="start" x="584" y="-441.3" font-family="Times,serif" font-size="14.00">update</text>
<polyline fill="none" stroke="black" points="576,-434.5 742.069,-434.5 "/>
<polyline fill="none" stroke="black" points="576,-410.5 742.069,-410.5 "/>
<text text-anchor="start" x="584" y="-395.3" font-family="Times,serif" font-size="14.00">_layout</text>
<text text-anchor="start" x="584" y="-381.3" font-family="Times,serif" font-size="14.00">required_params</text>
<text text-anchor="start" x="584" y="-367.3" font-family="Times,serif" font-size="14.00">set_family</text>
</g>
<!-- GenericSparesController -->
<g id="node9" class="node"><title>GenericSparesController</title>
<path fill="none" stroke="black" d="M210,-738.5C210,-738.5 341.173,-738.5 341.173,-738.5 347.173,-738.5 353.173,-744.5 353.173,-750.5 353.173,-750.5 353.173,-956.5 353.173,-956.5 353.173,-962.5 347.173,-968.5 341.173,-968.5 341.173,-968.5 210,-968.5 210,-968.5 204,-968.5 198,-962.5 198,-956.5 198,-956.5 198,-750.5 198,-750.5 198,-744.5 204,-738.5 210,-738.5"/>
<text text-anchor="middle" x="275.586" y="-953.3" font-family="Times,serif" font-size="14.00">GenericSparesController</text>
<polyline fill="none" stroke="black" points="198,-946.5 353.173,-946.5 "/>
<text text-anchor="start" x="206" y="-931.3" font-family="Times,serif" font-size="14.00">create</text>
<text text-anchor="start" x="206" y="-917.3" font-family="Times,serif" font-size="14.00">destroy</text>
<text text-anchor="start" x="206" y="-903.3" font-family="Times,serif" font-size="14.00">edit</text>
<text text-anchor="start" x="206" y="-889.3" font-family="Times,serif" font-size="14.00">generic_spare_params</text>
<text text-anchor="start" x="206" y="-875.3" font-family="Times,serif" font-size="14.00">index</text>
<text text-anchor="start" x="206" y="-861.3" font-family="Times,serif" font-size="14.00">new</text>
<text text-anchor="start" x="206" y="-847.3" font-family="Times,serif" font-size="14.00">newTemplate</text>
<text text-anchor="start" x="206" y="-833.3" font-family="Times,serif" font-size="14.00">set_generic_spare</text>
<text text-anchor="start" x="206" y="-819.3" font-family="Times,serif" font-size="14.00">show</text>
<text text-anchor="start" x="206" y="-805.3" font-family="Times,serif" font-size="14.00">template</text>
<text text-anchor="start" x="206" y="-791.3" font-family="Times,serif" font-size="14.00">update</text>
<polyline fill="none" stroke="black" points="198,-784.5 353.173,-784.5 "/>
<polyline fill="none" stroke="black" points="198,-760.5 353.173,-760.5 "/>
<text text-anchor="start" x="206" y="-745.3" font-family="Times,serif" font-size="14.00">_layout</text>
</g>
<!-- InventoriesController -->
<g id="node10" class="node"><title>InventoriesController</title>
<path fill="none" stroke="black" d="M336,-360.5C336,-360.5 530.132,-360.5 530.132,-360.5 536.132,-360.5 542.132,-366.5 542.132,-372.5 542.132,-372.5 542.132,-592.5 542.132,-592.5 542.132,-598.5 536.132,-604.5 530.132,-604.5 530.132,-604.5 336,-604.5 336,-604.5 330,-604.5 324,-598.5 324,-592.5 324,-592.5 324,-372.5 324,-372.5 324,-366.5 330,-360.5 336,-360.5"/>
<text text-anchor="middle" x="433.066" y="-589.3" font-family="Times,serif" font-size="14.00">InventoriesController</text>
<polyline fill="none" stroke="black" points="324,-582.5 542.132,-582.5 "/>
<text text-anchor="start" x="332" y="-567.3" font-family="Times,serif" font-size="14.00">acomodate</text>
<text text-anchor="start" x="332" y="-553.3" font-family="Times,serif" font-size="14.00">add_family_with_spares_to_order</text>
<text text-anchor="start" x="332" y="-539.3" font-family="Times,serif" font-size="14.00">add_new_stock</text>
<text text-anchor="start" x="332" y="-525.3" font-family="Times,serif" font-size="14.00">all</text>
<text text-anchor="start" x="332" y="-511.3" font-family="Times,serif" font-size="14.00">departure</text>
<text text-anchor="start" x="332" y="-497.3" font-family="Times,serif" font-size="14.00">departure_stock_family</text>
<text text-anchor="start" x="332" y="-483.3" font-family="Times,serif" font-size="14.00">entrance</text>
<text text-anchor="start" x="332" y="-469.3" font-family="Times,serif" font-size="14.00">index</text>
<text text-anchor="start" x="332" y="-455.3" font-family="Times,serif" font-size="14.00">orders</text>
<text text-anchor="start" x="332" y="-441.3" font-family="Times,serif" font-size="14.00">save_store_stocks</text>
<text text-anchor="start" x="332" y="-427.3" font-family="Times,serif" font-size="14.00">show_generic_car_generic_families</text>
<text text-anchor="start" x="332" y="-413.3" font-family="Times,serif" font-size="14.00">store_stocks</text>
<polyline fill="none" stroke="black" points="324,-406.5 542.132,-406.5 "/>
<polyline fill="none" stroke="black" points="324,-382.5 542.132,-382.5 "/>
<text text-anchor="start" x="332" y="-367.3" font-family="Times,serif" font-size="14.00">_layout</text>
</g>
<!-- InvoicesController -->
<g id="node11" class="node"><title>InvoicesController</title>
<path fill="none" stroke="black" d="M984,-558.5C984,-558.5 1080.97,-558.5 1080.97,-558.5 1086.97,-558.5 1092.97,-564.5 1092.97,-570.5 1092.97,-570.5 1092.97,-636.5 1092.97,-636.5 1092.97,-642.5 1086.97,-648.5 1080.97,-648.5 1080.97,-648.5 984,-648.5 984,-648.5 978,-648.5 972,-642.5 972,-636.5 972,-636.5 972,-570.5 972,-570.5 972,-564.5 978,-558.5 984,-558.5"/>
<text text-anchor="middle" x="1032.49" y="-633.3" font-family="Times,serif" font-size="14.00">InvoicesController</text>
<polyline fill="none" stroke="black" points="972,-626.5 1092.97,-626.5 "/>
<text text-anchor="start" x="980" y="-611.3" font-family="Times,serif" font-size="14.00">home</text>
<polyline fill="none" stroke="black" points="972,-604.5 1092.97,-604.5 "/>
<polyline fill="none" stroke="black" points="972,-580.5 1092.97,-580.5 "/>
<text text-anchor="start" x="980" y="-565.3" font-family="Times,serif" font-size="14.00">_layout</text>
</g>
<!-- ModelAcronymsController -->
<g id="node12" class="node"><title>ModelAcronymsController</title>
<path fill="none" stroke="black" d="M642,-666.5C642,-666.5 786.421,-666.5 786.421,-666.5 792.421,-666.5 798.421,-672.5 798.421,-678.5 798.421,-678.5 798.421,-856.5 798.421,-856.5 798.421,-862.5 792.421,-868.5 786.421,-868.5 786.421,-868.5 642,-868.5 642,-868.5 636,-868.5 630,-862.5 630,-856.5 630,-856.5 630,-678.5 630,-678.5 630,-672.5 636,-666.5 642,-666.5"/>
<text text-anchor="middle" x="714.21" y="-853.3" font-family="Times,serif" font-size="14.00">ModelAcronymsController</text>
<polyline fill="none" stroke="black" points="630,-846.5 798.421,-846.5 "/>
<text text-anchor="start" x="638" y="-831.3" font-family="Times,serif" font-size="14.00">create</text>
<text text-anchor="start" x="638" y="-817.3" font-family="Times,serif" font-size="14.00">destroy</text>
<text text-anchor="start" x="638" y="-803.3" font-family="Times,serif" font-size="14.00">edit</text>
<text text-anchor="start" x="638" y="-789.3" font-family="Times,serif" font-size="14.00">index</text>
<text text-anchor="start" x="638" y="-775.3" font-family="Times,serif" font-size="14.00">new</text>
<text text-anchor="start" x="638" y="-761.3" font-family="Times,serif" font-size="14.00">show</text>
<text text-anchor="start" x="638" y="-747.3" font-family="Times,serif" font-size="14.00">update</text>
<polyline fill="none" stroke="black" points="630,-740.5 798.421,-740.5 "/>
<polyline fill="none" stroke="black" points="630,-716.5 798.421,-716.5 "/>
<text text-anchor="start" x="638" y="-701.3" font-family="Times,serif" font-size="14.00">_layout</text>
<text text-anchor="start" x="638" y="-687.3" font-family="Times,serif" font-size="14.00">model_acronym_params</text>
<text text-anchor="start" x="638" y="-673.3" font-family="Times,serif" font-size="14.00">set_model_acronym</text>
</g>
<!-- MoldSparesController -->
<g id="node13" class="node"><title>MoldSparesController</title>
<path fill="none" stroke="black" d="M786,-162.5C786,-162.5 903.207,-162.5 903.207,-162.5 909.207,-162.5 915.207,-168.5 915.207,-174.5 915.207,-174.5 915.207,-352.5 915.207,-352.5 915.207,-358.5 909.207,-364.5 903.207,-364.5 903.207,-364.5 786,-364.5 786,-364.5 780,-364.5 774,-358.5 774,-352.5 774,-352.5 774,-174.5 774,-174.5 774,-168.5 780,-162.5 786,-162.5"/>
<text text-anchor="middle" x="844.604" y="-349.3" font-family="Times,serif" font-size="14.00">MoldSparesController</text>
<polyline fill="none" stroke="black" points="774,-342.5 915.207,-342.5 "/>
<text text-anchor="start" x="782" y="-327.3" font-family="Times,serif" font-size="14.00">create</text>
<text text-anchor="start" x="782" y="-313.3" font-family="Times,serif" font-size="14.00">destroy</text>
<text text-anchor="start" x="782" y="-299.3" font-family="Times,serif" font-size="14.00">edit</text>
<text text-anchor="start" x="782" y="-285.3" font-family="Times,serif" font-size="14.00">index</text>
<text text-anchor="start" x="782" y="-271.3" font-family="Times,serif" font-size="14.00">new</text>
<text text-anchor="start" x="782" y="-257.3" font-family="Times,serif" font-size="14.00">show</text>
<text text-anchor="start" x="782" y="-243.3" font-family="Times,serif" font-size="14.00">update</text>
<polyline fill="none" stroke="black" points="774,-236.5 915.207,-236.5 "/>
<polyline fill="none" stroke="black" points="774,-212.5 915.207,-212.5 "/>
<text text-anchor="start" x="782" y="-197.3" font-family="Times,serif" font-size="14.00">_layout</text>
<text text-anchor="start" x="782" y="-183.3" font-family="Times,serif" font-size="14.00">mold_spare_params</text>
<text text-anchor="start" x="782" y="-169.3" font-family="Times,serif" font-size="14.00">set_mold_spare</text>
</g>
<!-- OrdersController -->
<g id="node14" class="node"><title>OrdersController</title>
<path fill="none" stroke="black" d="M786,-396.5C786,-396.5 873.642,-396.5 873.642,-396.5 879.642,-396.5 885.642,-402.5 885.642,-408.5 885.642,-408.5 885.642,-614.5 885.642,-614.5 885.642,-620.5 879.642,-626.5 873.642,-626.5 873.642,-626.5 786,-626.5 786,-626.5 780,-626.5 774,-620.5 774,-614.5 774,-614.5 774,-408.5 774,-408.5 774,-402.5 780,-396.5 786,-396.5"/>
<text text-anchor="middle" x="829.821" y="-611.3" font-family="Times,serif" font-size="14.00">OrdersController</text>
<polyline fill="none" stroke="black" points="774,-604.5 885.642,-604.5 "/>
<text text-anchor="start" x="782" y="-589.3" font-family="Times,serif" font-size="14.00">create</text>
<text text-anchor="start" x="782" y="-575.3" font-family="Times,serif" font-size="14.00">create2</text>
<text text-anchor="start" x="782" y="-561.3" font-family="Times,serif" font-size="14.00">destroy</text>
<text text-anchor="start" x="782" y="-547.3" font-family="Times,serif" font-size="14.00">edit</text>
<text text-anchor="start" x="782" y="-533.3" font-family="Times,serif" font-size="14.00">index</text>
<text text-anchor="start" x="782" y="-519.3" font-family="Times,serif" font-size="14.00">labels</text>
<text text-anchor="start" x="782" y="-505.3" font-family="Times,serif" font-size="14.00">new</text>
<text text-anchor="start" x="782" y="-491.3" font-family="Times,serif" font-size="14.00">show</text>
<text text-anchor="start" x="782" y="-477.3" font-family="Times,serif" font-size="14.00">update</text>
<polyline fill="none" stroke="black" points="774,-470.5 885.642,-470.5 "/>
<polyline fill="none" stroke="black" points="774,-446.5 885.642,-446.5 "/>
<text text-anchor="start" x="782" y="-431.3" font-family="Times,serif" font-size="14.00">_layout</text>
<text text-anchor="start" x="782" y="-417.3" font-family="Times,serif" font-size="14.00">order_params</text>
<text text-anchor="start" x="782" y="-403.3" font-family="Times,serif" font-size="14.00">set_order</text>
</g>
<!-- PrevaluationsController -->
<g id="node15" class="node"><title>PrevaluationsController</title>
<path fill="none" stroke="black" d="M48,-72.5C48,-72.5 173.752,-72.5 173.752,-72.5 179.752,-72.5 185.752,-78.5 185.752,-84.5 185.752,-84.5 185.752,-192.5 185.752,-192.5 185.752,-198.5 179.752,-204.5 173.752,-204.5 173.752,-204.5 48,-204.5 48,-204.5 42,-204.5 36,-198.5 36,-192.5 36,-192.5 36,-84.5 36,-84.5 36,-78.5 42,-72.5 48,-72.5"/>
<text text-anchor="middle" x="110.876" y="-189.3" font-family="Times,serif" font-size="14.00">PrevaluationsController</text>
<polyline fill="none" stroke="black" points="36,-182.5 185.752,-182.5 "/>
<text text-anchor="start" x="44" y="-167.3" font-family="Times,serif" font-size="14.00">create</text>
<text text-anchor="start" x="44" y="-153.3" font-family="Times,serif" font-size="14.00">new</text>
<text text-anchor="start" x="44" y="-139.3" font-family="Times,serif" font-size="14.00">pre_valuation_params</text>
<text text-anchor="start" x="44" y="-125.3" font-family="Times,serif" font-size="14.00">show</text>
<polyline fill="none" stroke="black" points="36,-118.5 185.752,-118.5 "/>
<polyline fill="none" stroke="black" points="36,-94.5 185.752,-94.5 "/>
<text text-anchor="start" x="44" y="-79.3" font-family="Times,serif" font-size="14.00">_layout</text>
</g>
<!-- ReportsController -->
<g id="node16" class="node"><title>ReportsController</title>
<path fill="none" stroke="black" d="M66,-720.5C66,-720.5 159.097,-720.5 159.097,-720.5 165.097,-720.5 171.097,-726.5 171.097,-732.5 171.097,-732.5 171.097,-868.5 171.097,-868.5 171.097,-874.5 165.097,-880.5 159.097,-880.5 159.097,-880.5 66,-880.5 66,-880.5 60,-880.5 54,-874.5 54,-868.5 54,-868.5 54,-732.5 54,-732.5 54,-726.5 60,-720.5 66,-720.5"/>
<text text-anchor="middle" x="112.548" y="-865.3" font-family="Times,serif" font-size="14.00">ReportsController</text>
<polyline fill="none" stroke="black" points="54,-858.5 171.097,-858.5 "/>
<text text-anchor="start" x="62" y="-843.3" font-family="Times,serif" font-size="14.00">cars</text>
<text text-anchor="start" x="62" y="-829.3" font-family="Times,serif" font-size="14.00">index</text>
<text text-anchor="start" x="62" y="-815.3" font-family="Times,serif" font-size="14.00">insurance</text>
<text text-anchor="start" x="62" y="-801.3" font-family="Times,serif" font-size="14.00">new</text>
<text text-anchor="start" x="62" y="-787.3" font-family="Times,serif" font-size="14.00">repair</text>
<text text-anchor="start" x="62" y="-773.3" font-family="Times,serif" font-size="14.00">show</text>
<polyline fill="none" stroke="black" points="54,-766.5 171.097,-766.5 "/>
<polyline fill="none" stroke="black" points="54,-742.5 171.097,-742.5 "/>
<text text-anchor="start" x="62" y="-727.3" font-family="Times,serif" font-size="14.00">_layout</text>
</g>
<!-- RosterController -->
<g id="node17" class="node"><title>RosterController</title>
<path fill="none" stroke="black" d="M930,-396.5C930,-396.5 1047.94,-396.5 1047.94,-396.5 1053.94,-396.5 1059.94,-402.5 1059.94,-408.5 1059.94,-408.5 1059.94,-502.5 1059.94,-502.5 1059.94,-508.5 1053.94,-514.5 1047.94,-514.5 1047.94,-514.5 930,-514.5 930,-514.5 924,-514.5 918,-508.5 918,-502.5 918,-502.5 918,-408.5 918,-408.5 918,-402.5 924,-396.5 930,-396.5"/>
<text text-anchor="middle" x="988.969" y="-499.3" font-family="Times,serif" font-size="14.00">RosterController</text>
<polyline fill="none" stroke="black" points="918,-492.5 1059.94,-492.5 "/>
<text text-anchor="start" x="926" y="-477.3" font-family="Times,serif" font-size="14.00">attendance</text>
<text text-anchor="start" x="926" y="-463.3" font-family="Times,serif" font-size="14.00">employeePerformance</text>
<text text-anchor="start" x="926" y="-449.3" font-family="Times,serif" font-size="14.00">index</text>
<polyline fill="none" stroke="black" points="918,-442.5 1059.94,-442.5 "/>
<polyline fill="none" stroke="black" points="918,-418.5 1059.94,-418.5 "/>
<text text-anchor="start" x="926" y="-403.3" font-family="Times,serif" font-size="14.00">_layout</text>
</g>
<!-- SectionsController -->
<g id="node18" class="node"><title>SectionsController</title>
<path fill="none" stroke="black" d="M516,-126.5C516,-126.5 612.986,-126.5 612.986,-126.5 618.986,-126.5 624.986,-132.5 624.986,-138.5 624.986,-138.5 624.986,-316.5 624.986,-316.5 624.986,-322.5 618.986,-328.5 612.986,-328.5 612.986,-328.5 516,-328.5 516,-328.5 510,-328.5 504,-322.5 504,-316.5 504,-316.5 504,-138.5 504,-138.5 504,-132.5 510,-126.5 516,-126.5"/>
<text text-anchor="middle" x="564.493" y="-313.3" font-family="Times,serif" font-size="14.00">SectionsController</text>
<polyline fill="none" stroke="black" points="504,-306.5 624.986,-306.5 "/>
<text text-anchor="start" x="512" y="-291.3" font-family="Times,serif" font-size="14.00">create</text>
<text text-anchor="start" x="512" y="-277.3" font-family="Times,serif" font-size="14.00">destroy</text>
<text text-anchor="start" x="512" y="-263.3" font-family="Times,serif" font-size="14.00">edit</text>
<text text-anchor="start" x="512" y="-249.3" font-family="Times,serif" font-size="14.00">index</text>
<text text-anchor="start" x="512" y="-235.3" font-family="Times,serif" font-size="14.00">new</text>
<text text-anchor="start" x="512" y="-221.3" font-family="Times,serif" font-size="14.00">show</text>
<text text-anchor="start" x="512" y="-207.3" font-family="Times,serif" font-size="14.00">update</text>
<polyline fill="none" stroke="black" points="504,-200.5 624.986,-200.5 "/>
<polyline fill="none" stroke="black" points="504,-176.5 624.986,-176.5 "/>
<text text-anchor="start" x="512" y="-161.3" font-family="Times,serif" font-size="14.00">_layout</text>
<text text-anchor="start" x="512" y="-147.3" font-family="Times,serif" font-size="14.00">section_params</text>
<text text-anchor="start" x="512" y="-133.3" font-family="Times,serif" font-size="14.00">set_section</text>
</g>
<!-- SessionsController -->
<g id="node19" class="node"><title>SessionsController</title>
<path fill="none" stroke="black" d="M966,-162.5C966,-162.5 1063.78,-162.5 1063.78,-162.5 1069.78,-162.5 1075.78,-168.5 1075.78,-174.5 1075.78,-174.5 1075.78,-268.5 1075.78,-268.5 1075.78,-274.5 1069.78,-280.5 1063.78,-280.5 1063.78,-280.5 966,-280.5 966,-280.5 960,-280.5 954,-274.5 954,-268.5 954,-268.5 954,-174.5 954,-174.5 954,-168.5 960,-162.5 966,-162.5"/>
<text text-anchor="middle" x="1014.89" y="-265.3" font-family="Times,serif" font-size="14.00">SessionsController</text>
<polyline fill="none" stroke="black" points="954,-258.5 1075.78,-258.5 "/>
<text text-anchor="start" x="962" y="-243.3" font-family="Times,serif" font-size="14.00">create</text>
<text text-anchor="start" x="962" y="-229.3" font-family="Times,serif" font-size="14.00">destroy</text>
<text text-anchor="start" x="962" y="-215.3" font-family="Times,serif" font-size="14.00">new</text>
<polyline fill="none" stroke="black" points="954,-208.5 1075.78,-208.5 "/>
<polyline fill="none" stroke="black" points="954,-184.5 1075.78,-184.5 "/>
<text text-anchor="start" x="962" y="-169.3" font-family="Times,serif" font-size="14.00">_layout</text>
</g>
<!-- SparesController -->
<g id="node20" class="node"><title>SparesController</title>
<path fill="none" stroke="black" d="M12,-324.5C12,-324.5 98.8691,-324.5 98.8691,-324.5 104.869,-324.5 110.869,-330.5 110.869,-336.5 110.869,-336.5 110.869,-430.5 110.869,-430.5 110.869,-436.5 104.869,-442.5 98.8691,-442.5 98.8691,-442.5 12,-442.5 12,-442.5 6,-442.5 0,-436.5 0,-430.5 0,-430.5 0,-336.5 0,-336.5 0,-330.5 6,-324.5 12,-324.5"/>
<text text-anchor="middle" x="55.4346" y="-427.3" font-family="Times,serif" font-size="14.00">SparesController</text>
<polyline fill="none" stroke="black" points="0,-420.5 110.869,-420.5 "/>
<text text-anchor="start" x="8" y="-405.3" font-family="Times,serif" font-size="14.00">edit</text>
<text text-anchor="start" x="8" y="-391.3" font-family="Times,serif" font-size="14.00">index</text>
<text text-anchor="start" x="8" y="-377.3" font-family="Times,serif" font-size="14.00">new</text>
<polyline fill="none" stroke="black" points="0,-370.5 110.869,-370.5 "/>
<polyline fill="none" stroke="black" points="0,-346.5 110.869,-346.5 "/>
<text text-anchor="start" x="8" y="-331.3" font-family="Times,serif" font-size="14.00">_layout</text>
</g>
<!-- StockFamiliesController -->
<g id="node21" class="node"><title>StockFamiliesController</title>
<path fill="none" stroke="black" d="M156,-486.5C156,-486.5 285.655,-486.5 285.655,-486.5 291.655,-486.5 297.655,-492.5 297.655,-498.5 297.655,-498.5 297.655,-676.5 297.655,-676.5 297.655,-682.5 291.655,-688.5 285.655,-688.5 285.655,-688.5 156,-688.5 156,-688.5 150,-688.5 144,-682.5 144,-676.5 144,-676.5 144,-498.5 144,-498.5 144,-492.5 150,-486.5 156,-486.5"/>
<text text-anchor="middle" x="220.828" y="-673.3" font-family="Times,serif" font-size="14.00">StockFamiliesController</text>
<polyline fill="none" stroke="black" points="144,-666.5 297.655,-666.5 "/>
<text text-anchor="start" x="152" y="-651.3" font-family="Times,serif" font-size="14.00">destroy</text>
<text text-anchor="start" x="152" y="-637.3" font-family="Times,serif" font-size="14.00">edit</text>
<text text-anchor="start" x="152" y="-623.3" font-family="Times,serif" font-size="14.00">history</text>
<text text-anchor="start" x="152" y="-609.3" font-family="Times,serif" font-size="14.00">label</text>
<text text-anchor="start" x="152" y="-595.3" font-family="Times,serif" font-size="14.00">new</text>
<text text-anchor="start" x="152" y="-581.3" font-family="Times,serif" font-size="14.00">show</text>
<text text-anchor="start" x="152" y="-567.3" font-family="Times,serif" font-size="14.00">update</text>
<polyline fill="none" stroke="black" points="144,-560.5 297.655,-560.5 "/>
<polyline fill="none" stroke="black" points="144,-536.5 297.655,-536.5 "/>
<text text-anchor="start" x="152" y="-521.3" font-family="Times,serif" font-size="14.00">_layout</text>
<text text-anchor="start" x="152" y="-507.3" font-family="Times,serif" font-size="14.00">set_family</text>
<text text-anchor="start" x="152" y="-493.3" font-family="Times,serif" font-size="14.00">stock_family_params</text>
</g>
<!-- StockSparesController -->
<g id="node22" class="node"><title>StockSparesController</title>
<path fill="none" stroke="black" d="M30,-918.5C30,-918.5 148.759,-918.5 148.759,-918.5 154.759,-918.5 160.759,-924.5 160.759,-930.5 160.759,-930.5 160.759,-1066.5 160.759,-1066.5 160.759,-1072.5 154.759,-1078.5 148.759,-1078.5 148.759,-1078.5 30,-1078.5 30,-1078.5 24,-1078.5 18,-1072.5 18,-1066.5 18,-1066.5 18,-930.5 18,-930.5 18,-924.5 24,-918.5 30,-918.5"/>
<text text-anchor="middle" x="89.3794" y="-1063.3" font-family="Times,serif" font-size="14.00">StockSparesController</text>
<polyline fill="none" stroke="black" points="18,-1056.5 160.759,-1056.5 "/>
<text text-anchor="start" x="26" y="-1041.3" font-family="Times,serif" font-size="14.00">edit</text>
<text text-anchor="start" x="26" y="-1027.3" font-family="Times,serif" font-size="14.00">history</text>
<text text-anchor="start" x="26" y="-1013.3" font-family="Times,serif" font-size="14.00">show</text>
<text text-anchor="start" x="26" y="-999.3" font-family="Times,serif" font-size="14.00">update</text>
<polyline fill="none" stroke="black" points="18,-992.5 160.759,-992.5 "/>
<polyline fill="none" stroke="black" points="18,-968.5 160.759,-968.5 "/>
<text text-anchor="start" x="26" y="-953.3" font-family="Times,serif" font-size="14.00">_layout</text>
<text text-anchor="start" x="26" y="-939.3" font-family="Times,serif" font-size="14.00">set_spare</text>
<text text-anchor="start" x="26" y="-925.3" font-family="Times,serif" font-size="14.00">stock_family_params</text>
</g>
<!-- SubsectionsController -->
<g id="node23" class="node"><title>SubsectionsController</title>
<path fill="none" stroke="black" d="M156,-234.5C156,-234.5 272.435,-234.5 272.435,-234.5 278.435,-234.5 284.435,-240.5 284.435,-246.5 284.435,-246.5 284.435,-438.5 284.435,-438.5 284.435,-444.5 278.435,-450.5 272.435,-450.5 272.435,-450.5 156,-450.5 156,-450.5 150,-450.5 144,-444.5 144,-438.5 144,-438.5 144,-246.5 144,-246.5 144,-240.5 150,-234.5 156,-234.5"/>
<text text-anchor="middle" x="214.217" y="-435.3" font-family="Times,serif" font-size="14.00">SubsectionsController</text>
<polyline fill="none" stroke="black" points="144,-428.5 284.435,-428.5 "/>
<text text-anchor="start" x="152" y="-413.3" font-family="Times,serif" font-size="14.00">create</text>
<text text-anchor="start" x="152" y="-399.3" font-family="Times,serif" font-size="14.00">destroy</text>
<text text-anchor="start" x="152" y="-385.3" font-family="Times,serif" font-size="14.00">edit</text>
<text text-anchor="start" x="152" y="-371.3" font-family="Times,serif" font-size="14.00">index</text>
<text text-anchor="start" x="152" y="-357.3" font-family="Times,serif" font-size="14.00">new</text>
<text text-anchor="start" x="152" y="-343.3" font-family="Times,serif" font-size="14.00">print_label</text>
<text text-anchor="start" x="152" y="-329.3" font-family="Times,serif" font-size="14.00">show</text>
<text text-anchor="start" x="152" y="-315.3" font-family="Times,serif" font-size="14.00">update</text>
<polyline fill="none" stroke="black" points="144,-308.5 284.435,-308.5 "/>
<polyline fill="none" stroke="black" points="144,-284.5 284.435,-284.5 "/>
<text text-anchor="start" x="152" y="-269.3" font-family="Times,serif" font-size="14.00">_layout</text>
<text text-anchor="start" x="152" y="-255.3" font-family="Times,serif" font-size="14.00">set_subsection</text>
<text text-anchor="start" x="152" y="-241.3" font-family="Times,serif" font-size="14.00">subsection_params</text>
</g>
<!-- SuppliersController -->
<g id="node24" class="node"><title>SuppliersController</title>
<path fill="none" stroke="black" d="M876,-900.5C876,-900.5 978.435,-900.5 978.435,-900.5 984.435,-900.5 990.435,-906.5 990.435,-912.5 990.435,-912.5 990.435,-1090.5 990.435,-1090.5 990.435,-1096.5 984.435,-1102.5 978.435,-1102.5 978.435,-1102.5 876,-1102.5 876,-1102.5 870,-1102.5 864,-1096.5 864,-1090.5 864,-1090.5 864,-912.5 864,-912.5 864,-906.5 870,-900.5 876,-900.5"/>
<text text-anchor="middle" x="927.217" y="-1087.3" font-family="Times,serif" font-size="14.00">SuppliersController</text>
<polyline fill="none" stroke="black" points="864,-1080.5 990.435,-1080.5 "/>
<text text-anchor="start" x="872" y="-1065.3" font-family="Times,serif" font-size="14.00">create</text>
<text text-anchor="start" x="872" y="-1051.3" font-family="Times,serif" font-size="14.00">destroy</text>
<text text-anchor="start" x="872" y="-1037.3" font-family="Times,serif" font-size="14.00">edit</text>
<text text-anchor="start" x="872" y="-1023.3" font-family="Times,serif" font-size="14.00">index</text>
<text text-anchor="start" x="872" y="-1009.3" font-family="Times,serif" font-size="14.00">new</text>
<text text-anchor="start" x="872" y="-995.3" font-family="Times,serif" font-size="14.00">show</text>
<text text-anchor="start" x="872" y="-981.3" font-family="Times,serif" font-size="14.00">update</text>
<polyline fill="none" stroke="black" points="864,-974.5 990.435,-974.5 "/>
<polyline fill="none" stroke="black" points="864,-950.5 990.435,-950.5 "/>
<text text-anchor="start" x="872" y="-935.3" font-family="Times,serif" font-size="14.00">_layout</text>
<text text-anchor="start" x="872" y="-921.3" font-family="Times,serif" font-size="14.00">set_supplier</text>
<text text-anchor="start" x="872" y="-907.3" font-family="Times,serif" font-size="14.00">supplier_params</text>
</g>
<!-- SuppliesController -->
<g id="node25" class="node"><title>SuppliesController</title>
<path fill="none" stroke="black" d="M714,-900.5C714,-900.5 811.772,-900.5 811.772,-900.5 817.772,-900.5 823.772,-906.5 823.772,-912.5 823.772,-912.5 823.772,-1090.5 823.772,-1090.5 823.772,-1096.5 817.772,-1102.5 811.772,-1102.5 811.772,-1102.5 714,-1102.5 714,-1102.5 708,-1102.5 702,-1096.5 702,-1090.5 702,-1090.5 702,-912.5 702,-912.5 702,-906.5 708,-900.5 714,-900.5"/>
<text text-anchor="middle" x="762.886" y="-1087.3" font-family="Times,serif" font-size="14.00">SuppliesController</text>
<polyline fill="none" stroke="black" points="702,-1080.5 823.772,-1080.5 "/>
<text text-anchor="start" x="710" y="-1065.3" font-family="Times,serif" font-size="14.00">create</text>
<text text-anchor="start" x="710" y="-1051.3" font-family="Times,serif" font-size="14.00">destroy</text>
<text text-anchor="start" x="710" y="-1037.3" font-family="Times,serif" font-size="14.00">edit</text>
<text text-anchor="start" x="710" y="-1023.3" font-family="Times,serif" font-size="14.00">index</text>
<text text-anchor="start" x="710" y="-1009.3" font-family="Times,serif" font-size="14.00">new</text>
<text text-anchor="start" x="710" y="-995.3" font-family="Times,serif" font-size="14.00">show</text>
<text text-anchor="start" x="710" y="-981.3" font-family="Times,serif" font-size="14.00">update</text>
<polyline fill="none" stroke="black" points="702,-974.5 823.772,-974.5 "/>
<polyline fill="none" stroke="black" points="702,-950.5 823.772,-950.5 "/>
<text text-anchor="start" x="710" y="-935.3" font-family="Times,serif" font-size="14.00">_layout</text>
<text text-anchor="start" x="710" y="-921.3" font-family="Times,serif" font-size="14.00">set_supply</text>
<text text-anchor="start" x="710" y="-907.3" font-family="Times,serif" font-size="14.00">supply_params</text>
</g>
<!-- UsersController -->
<g id="node26" class="node"><title>UsersController</title>
<path fill="none" stroke="black" d="M12,-486.5C12,-486.5 93.4277,-486.5 93.4277,-486.5 99.4277,-486.5 105.428,-492.5 105.428,-498.5 105.428,-498.5 105.428,-606.5 105.428,-606.5 105.428,-612.5 99.4277,-618.5 93.4277,-618.5 93.4277,-618.5 12,-618.5 12,-618.5 6,-618.5 0,-612.5 0,-606.5 0,-606.5 0,-498.5 0,-498.5 0,-492.5 6,-486.5 12,-486.5"/>
<text text-anchor="middle" x="52.7139" y="-603.3" font-family="Times,serif" font-size="14.00">UsersController</text>
<polyline fill="none" stroke="black" points="0,-596.5 105.428,-596.5 "/>
<text text-anchor="start" x="8" y="-581.3" font-family="Times,serif" font-size="14.00">create</text>
<text text-anchor="start" x="8" y="-567.3" font-family="Times,serif" font-size="14.00">new</text>
<text text-anchor="start" x="8" y="-553.3" font-family="Times,serif" font-size="14.00">show</text>
<polyline fill="none" stroke="black" points="0,-546.5 105.428,-546.5 "/>
<polyline fill="none" stroke="black" points="0,-522.5 105.428,-522.5 "/>
<text text-anchor="start" x="8" y="-507.3" font-family="Times,serif" font-size="14.00">_layout</text>
<text text-anchor="start" x="8" y="-493.3" font-family="Times,serif" font-size="14.00">user_params</text>
</g>
<!-- ValuationsController -->
<g id="node27" class="node"><title>ValuationsController</title>
<path fill="none" stroke="black" d="M552,-936.5C552,-936.5 660.648,-936.5 660.648,-936.5 666.648,-936.5 672.648,-942.5 672.648,-948.5 672.648,-948.5 672.648,-1042.5 672.648,-1042.5 672.648,-1048.5 666.648,-1054.5 660.648,-1054.5 660.648,-1054.5 552,-1054.5 552,-1054.5 546,-1054.5 540,-1048.5 540,-1042.5 540,-1042.5 540,-948.5 540,-948.5 540,-942.5 546,-936.5 552,-936.5"/>
<text text-anchor="middle" x="606.324" y="-1039.3" font-family="Times,serif" font-size="14.00">ValuationsController</text>
<polyline fill="none" stroke="black" points="540,-1032.5 672.648,-1032.5 "/>
<text text-anchor="start" x="548" y="-1017.3" font-family="Times,serif" font-size="14.00">index</text>
<text text-anchor="start" x="548" y="-1003.3" font-family="Times,serif" font-size="14.00">new</text>
<text text-anchor="start" x="548" y="-989.3" font-family="Times,serif" font-size="14.00">show</text>
<polyline fill="none" stroke="black" points="540,-982.5 672.648,-982.5 "/>
<polyline fill="none" stroke="black" points="540,-958.5 672.648,-958.5 "/>
<text text-anchor="start" x="548" y="-943.3" font-family="Times,serif" font-size="14.00">_layout</text>
</g>
<!-- WarehousesController -->
<g id="node28" class="node"><title>WarehousesController</title>
<path fill="none" stroke="black" d="M336,-126.5C336,-126.5 452.845,-126.5 452.845,-126.5 458.845,-126.5 464.845,-132.5 464.845,-138.5 464.845,-138.5 464.845,-316.5 464.845,-316.5 464.845,-322.5 458.845,-328.5 452.845,-328.5 452.845,-328.5 336,-328.5 336,-328.5 330,-328.5 324,-322.5 324,-316.5 324,-316.5 324,-138.5 324,-138.5 324,-132.5 330,-126.5 336,-126.5"/>
<text text-anchor="middle" x="394.422" y="-313.3" font-family="Times,serif" font-size="14.00">WarehousesController</text>
<polyline fill="none" stroke="black" points="324,-306.5 464.845,-306.5 "/>
<text text-anchor="start" x="332" y="-291.3" font-family="Times,serif" font-size="14.00">create</text>
<text text-anchor="start" x="332" y="-277.3" font-family="Times,serif" font-size="14.00">destroy</text>
<text text-anchor="start" x="332" y="-263.3" font-family="Times,serif" font-size="14.00">edit</text>
<text text-anchor="start" x="332" y="-249.3" font-family="Times,serif" font-size="14.00">index</text>
<text text-anchor="start" x="332" y="-235.3" font-family="Times,serif" font-size="14.00">new</text>
<text text-anchor="start" x="332" y="-221.3" font-family="Times,serif" font-size="14.00">show</text>
<text text-anchor="start" x="332" y="-207.3" font-family="Times,serif" font-size="14.00">update</text>
<polyline fill="none" stroke="black" points="324,-200.5 464.845,-200.5 "/>
<polyline fill="none" stroke="black" points="324,-176.5 464.845,-176.5 "/>
<text text-anchor="start" x="332" y="-161.3" font-family="Times,serif" font-size="14.00">_layout</text>
<text text-anchor="start" x="332" y="-147.3" font-family="Times,serif" font-size="14.00">set_warehouse</text>
<text text-anchor="start" x="332" y="-133.3" font-family="Times,serif" font-size="14.00">warehouse_params</text>
</g>
<!-- WelcomeController -->
<g id="node29" class="node"><title>WelcomeController</title>
<path fill="none" stroke="black" d="M984,-684.5C984,-684.5 1086.07,-684.5 1086.07,-684.5 1092.07,-684.5 1098.07,-690.5 1098.07,-696.5 1098.07,-696.5 1098.07,-762.5 1098.07,-762.5 1098.07,-768.5 1092.07,-774.5 1086.07,-774.5 1086.07,-774.5 984,-774.5 984,-774.5 978,-774.5 972,-768.5 972,-762.5 972,-762.5 972,-696.5 972,-696.5 972,-690.5 978,-684.5 984,-684.5"/>
<text text-anchor="middle" x="1035.03" y="-759.3" font-family="Times,serif" font-size="14.00">WelcomeController</text>
<polyline fill="none" stroke="black" points="972,-752.5 1098.07,-752.5 "/>
<text text-anchor="start" x="980" y="-737.3" font-family="Times,serif" font-size="14.00">index</text>
<polyline fill="none" stroke="black" points="972,-730.5 1098.07,-730.5 "/>
<polyline fill="none" stroke="black" points="972,-706.5 1098.07,-706.5 "/>
<text text-anchor="start" x="980" y="-691.3" font-family="Times,serif" font-size="14.00">_layout</text>
</g>
</g>
</svg>
