<?xml version="1.0" encoding="UTF-8" standalone="no"?>
<!DOCTYPE svg PUBLIC "-//W3C//DTD SVG 1.1//EN"
 "http://www.w3.org/Graphics/SVG/1.1/DTD/svg11.dtd">
<!-- Generated by graphviz version 2.38.0 (20140413.2041)
 -->
<!-- Title: controllers_diagram Pages: 1 -->
<svg width="969pt" height="775pt"
 viewBox="0.00 0.00 968.79 775.04" xmlns="http://www.w3.org/2000/svg" xmlns:xlink="http://www.w3.org/1999/xlink">
<g id="graph0" class="graph" transform="scale(1 1) rotate(0) translate(352.337 364.644)">
<title>controllers_diagram</title>
<polygon fill="white" stroke="none" points="-352.337,410.393 -352.337,-364.644 616.45,-364.644 616.45,410.393 -352.337,410.393"/>
<!-- _diagram_info -->
<g id="node1" class="node"><title>_diagram_info</title>
<text text-anchor="start" x="413.55" y="172.9" font-family="Times,serif" font-size="13.00">Controllers diagram</text>
<text text-anchor="start" x="413.55" y="185.9" font-family="Times,serif" font-size="13.00">Date: Nov 05 2014 &#45; 11:45</text>
<text text-anchor="start" x="413.55" y="198.9" font-family="Times,serif" font-size="13.00">Migration version: 20141103232822</text>
<text text-anchor="start" x="413.55" y="211.9" font-family="Times,serif" font-size="13.00">Generated by RailRoady 1.1.2</text>
<text text-anchor="start" x="413.55" y="224.9" font-family="Times,serif" font-size="13.00">http://railroady.prestonlee.com</text>
</g>
<!-- AdminController -->
<g id="node2" class="node"><title>AdminController</title>
<path fill="none" stroke="black" d="M-303.056,12.0481C-303.056,12.0481 -214.621,12.0481 -214.621,12.0481 -208.621,12.0481 -202.621,6.04805 -202.621,0.0480516 -202.621,0.0480516 -202.621,-65.9519 -202.621,-65.9519 -202.621,-71.9519 -208.621,-77.9519 -214.621,-77.9519 -214.621,-77.9519 -303.056,-77.9519 -303.056,-77.9519 -309.056,-77.9519 -315.056,-71.9519 -315.056,-65.9519 -315.056,-65.9519 -315.056,0.0480516 -315.056,0.0480516 -315.056,6.04805 -309.056,12.0481 -303.056,12.0481"/>
<text text-anchor="middle" x="-258.839" y="-62.7519" font-family="Times,serif" font-size="14.00">AdminController</text>
<polyline fill="none" stroke="black" points="-315.056,-55.9519 -202.621,-55.9519 "/>
<text text-anchor="start" x="-307.056" y="-40.7519" font-family="Times,serif" font-size="14.00">home</text>
<polyline fill="none" stroke="black" points="-315.056,-33.9519 -202.621,-33.9519 "/>
<polyline fill="none" stroke="black" points="-315.056,-9.95195 -202.621,-9.95195 "/>
<text text-anchor="start" x="-307.056" y="5.24805" font-family="Times,serif" font-size="14.00">_layout</text>
</g>
<!-- ApplicationController -->
<g id="node3" class="node"><title>ApplicationController</title>
<path fill="none" stroke="black" d="M-61.2146,98.7206C-61.2146,98.7206 54.427,98.7206 54.427,98.7206 60.427,98.7206 66.427,92.7206 66.427,86.7206 66.427,86.7206 66.427,18.7206 66.427,18.7206 66.427,12.7206 60.427,6.72059 54.427,6.72059 54.427,6.72059 -61.2146,6.72059 -61.2146,6.72059 -67.2146,6.72059 -73.2146,12.7206 -73.2146,18.7206 -73.2146,18.7206 -73.2146,86.7206 -73.2146,86.7206 -73.2146,92.7206 -67.2146,98.7206 -61.2146,98.7206"/>
<text text-anchor="middle" x="-3.39378" y="21.9206" font-family="Times,serif" font-size="14.00">ApplicationController</text>
<polyline fill="none" stroke="black" points="-73.2146,28.7206 66.427,28.7206 "/>
<polyline fill="none" stroke="black" points="-73.2146,52.7206 66.427,52.7206 "/>
<polyline fill="none" stroke="black" points="-73.2146,76.7206 66.427,76.7206 "/>
<text text-anchor="start" x="-65.2146" y="91.9206" font-family="Times,serif" font-size="14.00">_layout</text>
</g>
<!-- ApplicationController&#45;&gt;AdminController -->
<g id="edge1" class="edge"><title>ApplicationController&#45;&gt;AdminController</title>
<path fill="none" stroke="black" d="M-73.5331,29.1969C-114.15,15.5745 -164.594,-1.3436 -202.591,-14.0872"/>
</g>
<!-- BranchesController -->
<g id="node4" class="node"><title>BranchesController</title>
<path fill="none" stroke="black" d="M-133.943,370.18C-133.943,370.18 -32.3083,370.18 -32.3083,370.18 -26.3083,370.18 -20.3083,364.18 -20.3083,358.18 -20.3083,358.18 -20.3083,290.18 -20.3083,290.18 -20.3083,284.18 -26.3083,278.18 -32.3083,278.18 -32.3083,278.18 -133.943,278.18 -133.943,278.18 -139.943,278.18 -145.943,284.18 -145.943,290.18 -145.943,290.18 -145.943,358.18 -145.943,358.18 -145.943,364.18 -139.943,370.18 -133.943,370.18"/>
<text text-anchor="middle" x="-83.1257" y="293.38" font-family="Times,serif" font-size="14.00">BranchesController</text>
<polyline fill="none" stroke="black" points="-145.943,300.18 -20.3083,300.18 "/>
<polyline fill="none" stroke="black" points="-145.943,324.18 -20.3083,324.18 "/>
<polyline fill="none" stroke="black" points="-145.943,348.18 -20.3083,348.18 "/>
<text text-anchor="start" x="-137.943" y="363.38" font-family="Times,serif" font-size="14.00">_layout</text>
</g>
<!-- ApplicationController&#45;&gt;BranchesController -->
<g id="edge2" class="edge"><title>ApplicationController&#45;&gt;BranchesController</title>
<path fill="none" stroke="black" d="M-16.9192,98.77C-31.5809,148.688 -54.8463,227.899 -69.5339,277.905"/>
</g>
<!-- ClientActionsController -->
<g id="node5" class="node"><title>ClientActionsController</title>
<path fill="none" stroke="black" d="M12.1548,-162.882C12.1548,-162.882 139.472,-162.882 139.472,-162.882 145.472,-162.882 151.472,-168.882 151.472,-174.882 151.472,-174.882 151.472,-254.882 151.472,-254.882 151.472,-260.882 145.472,-266.882 139.472,-266.882 139.472,-266.882 12.1548,-266.882 12.1548,-266.882 6.1548,-266.882 0.154804,-260.882 0.154804,-254.882 0.154804,-254.882 0.154804,-174.882 0.154804,-174.882 0.154804,-168.882 6.1548,-162.882 12.1548,-162.882"/>
<text text-anchor="middle" x="75.8135" y="-251.682" font-family="Times,serif" font-size="14.00">ClientActionsController</text>
<polyline fill="none" stroke="black" points="0.154804,-244.882 151.472,-244.882 "/>
<text text-anchor="start" x="8.1548" y="-229.682" font-family="Times,serif" font-size="14.00">home</text>
<text text-anchor="start" x="8.1548" y="-215.682" font-family="Times,serif" font-size="14.00">show</text>
<polyline fill="none" stroke="black" points="0.154804,-208.882 151.472,-208.882 "/>
<polyline fill="none" stroke="black" points="0.154804,-184.882 151.472,-184.882 "/>
<text text-anchor="start" x="8.1548" y="-169.682" font-family="Times,serif" font-size="14.00">_layout</text>
</g>
<!-- ApplicationController&#45;&gt;ClientActionsController -->
<g id="edge3" class="edge"><title>ApplicationController&#45;&gt;ClientActionsController</title>
<path fill="none" stroke="black" d="M10.2224,6.71815C24.1554,-40.3543 45.7713,-113.384 60.3428,-162.614"/>
</g>
<!-- GenericCarsController -->
<g id="node6" class="node"><title>GenericCarsController</title>
<path fill="none" stroke="black" d="M219.96,-144.144C219.96,-144.144 339.47,-144.144 339.47,-144.144 345.47,-144.144 351.47,-150.144 351.47,-156.144 351.47,-156.144 351.47,-348.144 351.47,-348.144 351.47,-354.144 345.47,-360.144 339.47,-360.144 339.47,-360.144 219.96,-360.144 219.96,-360.144 213.96,-360.144 207.96,-354.144 207.96,-348.144 207.96,-348.144 207.96,-156.144 207.96,-156.144 207.96,-150.144 213.96,-144.144 219.96,-144.144"/>
<text text-anchor="middle" x="279.715" y="-344.944" font-family="Times,serif" font-size="14.00">GenericCarsController</text>
<polyline fill="none" stroke="black" points="207.96,-338.144 351.47,-338.144 "/>
<text text-anchor="start" x="215.96" y="-322.944" font-family="Times,serif" font-size="14.00">create</text>
<text text-anchor="start" x="215.96" y="-308.944" font-family="Times,serif" font-size="14.00">destroy</text>
<text text-anchor="start" x="215.96" y="-294.944" font-family="Times,serif" font-size="14.00">edit</text>
<text text-anchor="start" x="215.96" y="-280.944" font-family="Times,serif" font-size="14.00">generic_car_params</text>
<text text-anchor="start" x="215.96" y="-266.944" font-family="Times,serif" font-size="14.00">index</text>
<text text-anchor="start" x="215.96" y="-252.944" font-family="Times,serif" font-size="14.00">new</text>
<text text-anchor="start" x="215.96" y="-238.944" font-family="Times,serif" font-size="14.00">search</text>
<text text-anchor="start" x="215.96" y="-224.944" font-family="Times,serif" font-size="14.00">set_generic_car</text>
<text text-anchor="start" x="215.96" y="-210.944" font-family="Times,serif" font-size="14.00">show</text>
<text text-anchor="start" x="215.96" y="-196.944" font-family="Times,serif" font-size="14.00">update</text>
<polyline fill="none" stroke="black" points="207.96,-190.144 351.47,-190.144 "/>
<polyline fill="none" stroke="black" points="207.96,-166.144 351.47,-166.144 "/>
<text text-anchor="start" x="215.96" y="-150.944" font-family="Times,serif" font-size="14.00">_layout</text>
</g>
<!-- ApplicationController&#45;&gt;GenericCarsController -->
<g id="edge4" class="edge"><title>ApplicationController&#45;&gt;GenericCarsController</title>
<path fill="none" stroke="black" d="M39.6043,6.41827C84.231,-41.6377 154.802,-117.632 207.91,-174.821"/>
</g>
<!-- GenericSparesController -->
<g id="node7" class="node"><title>GenericSparesController</title>
<path fill="none" stroke="black" d="M-150.911,-125.19C-150.911,-125.19 -19.7379,-125.19 -19.7379,-125.19 -13.7379,-125.19 -7.73791,-131.19 -7.73791,-137.19 -7.73791,-137.19 -7.73791,-315.19 -7.73791,-315.19 -7.73791,-321.19 -13.7379,-327.19 -19.7379,-327.19 -19.7379,-327.19 -150.911,-327.19 -150.911,-327.19 -156.911,-327.19 -162.911,-321.19 -162.911,-315.19 -162.911,-315.19 -162.911,-137.19 -162.911,-137.19 -162.911,-131.19 -156.911,-125.19 -150.911,-125.19"/>
<text text-anchor="middle" x="-85.3243" y="-311.99" font-family="Times,serif" font-size="14.00">GenericSparesController</text>
<polyline fill="none" stroke="black" points="-162.911,-305.19 -7.73791,-305.19 "/>
<text text-anchor="start" x="-154.911" y="-289.99" font-family="Times,serif" font-size="14.00">create</text>
<text text-anchor="start" x="-154.911" y="-275.99" font-family="Times,serif" font-size="14.00">destroy</text>
<text text-anchor="start" x="-154.911" y="-261.99" font-family="Times,serif" font-size="14.00">edit</text>
<text text-anchor="start" x="-154.911" y="-247.99" font-family="Times,serif" font-size="14.00">generic_spare_params</text>
<text text-anchor="start" x="-154.911" y="-233.99" font-family="Times,serif" font-size="14.00">index</text>
<text text-anchor="start" x="-154.911" y="-219.99" font-family="Times,serif" font-size="14.00">new</text>
<text text-anchor="start" x="-154.911" y="-205.99" font-family="Times,serif" font-size="14.00">set_generic_spare</text>
<text text-anchor="start" x="-154.911" y="-191.99" font-family="Times,serif" font-size="14.00">show</text>
<text text-anchor="start" x="-154.911" y="-177.99" font-family="Times,serif" font-size="14.00">update</text>
<polyline fill="none" stroke="black" points="-162.911,-171.19 -7.73791,-171.19 "/>
<polyline fill="none" stroke="black" points="-162.911,-147.19 -7.73791,-147.19 "/>
<text text-anchor="start" x="-154.911" y="-131.99" font-family="Times,serif" font-size="14.00">_layout</text>
</g>
<!-- ApplicationController&#45;&gt;GenericSparesController -->
<g id="edge5" class="edge"><title>ApplicationController&#45;&gt;GenericSparesController</title>
<path fill="none" stroke="black" d="M-16.9229,6.6642C-27.422,-29.0769 -42.3708,-79.9661 -55.617,-125.059"/>
</g>
<!-- InvoicesController -->
<g id="node8" class="node"><title>InvoicesController</title>
<path fill="none" stroke="black" d="M-336.337,400.534C-336.337,400.534 -239.364,400.534 -239.364,400.534 -233.364,400.534 -227.364,394.534 -227.364,388.534 -227.364,388.534 -227.364,322.534 -227.364,322.534 -227.364,316.534 -233.364,310.534 -239.364,310.534 -239.364,310.534 -336.337,310.534 -336.337,310.534 -342.337,310.534 -348.337,316.534 -348.337,322.534 -348.337,322.534 -348.337,388.534 -348.337,388.534 -348.337,394.534 -342.337,400.534 -336.337,400.534"/>
<text text-anchor="middle" x="-287.851" y="325.734" font-family="Times,serif" font-size="14.00">InvoicesController</text>
<polyline fill="none" stroke="black" points="-348.337,332.534 -227.364,332.534 "/>
<text text-anchor="start" x="-340.337" y="347.734" font-family="Times,serif" font-size="14.00">home</text>
<polyline fill="none" stroke="black" points="-348.337,354.534 -227.364,354.534 "/>
<polyline fill="none" stroke="black" points="-348.337,378.534 -227.364,378.534 "/>
<text text-anchor="start" x="-340.337" y="393.734" font-family="Times,serif" font-size="14.00">_layout</text>
</g>
<!-- ApplicationController&#45;&gt;InvoicesController -->
<g id="edge6" class="edge"><title>ApplicationController&#45;&gt;InvoicesController</title>
<path fill="none" stroke="black" d="M-46.9063,99.041C-100.756,156.365 -191.859,253.347 -245.273,310.208"/>
</g>
<!-- PrevaluationsController -->
<g id="node9" class="node"><title>PrevaluationsController</title>
<path fill="none" stroke="black" d="M191.786,203.884C191.786,203.884 317.538,203.884 317.538,203.884 323.538,203.884 329.538,197.884 329.538,191.884 329.538,191.884 329.538,83.884 329.538,83.884 329.538,77.884 323.538,71.884 317.538,71.884 317.538,71.884 191.786,71.884 191.786,71.884 185.786,71.884 179.786,77.884 179.786,83.884 179.786,83.884 179.786,191.884 179.786,191.884 179.786,197.884 185.786,203.884 191.786,203.884"/>
<text text-anchor="middle" x="254.662" y="87.084" font-family="Times,serif" font-size="14.00">PrevaluationsController</text>
<polyline fill="none" stroke="black" points="179.786,93.884 329.538,93.884 "/>
<text text-anchor="start" x="187.786" y="109.084" font-family="Times,serif" font-size="14.00">create</text>
<text text-anchor="start" x="187.786" y="123.084" font-family="Times,serif" font-size="14.00">new</text>
<text text-anchor="start" x="187.786" y="137.084" font-family="Times,serif" font-size="14.00">pre_valuation_params</text>
<text text-anchor="start" x="187.786" y="151.084" font-family="Times,serif" font-size="14.00">show</text>
<polyline fill="none" stroke="black" points="179.786,157.884 329.538,157.884 "/>
<polyline fill="none" stroke="black" points="179.786,181.884 329.538,181.884 "/>
<text text-anchor="start" x="187.786" y="197.084" font-family="Times,serif" font-size="14.00">_layout</text>
</g>
<!-- ApplicationController&#45;&gt;PrevaluationsController -->
<g id="edge7" class="edge"><title>ApplicationController&#45;&gt;PrevaluationsController</title>
<path fill="none" stroke="black" d="M66.4398,75.767C101.368,87.294 143.685,101.259 179.341,113.027"/>
</g>
<!-- ReportsController -->
<g id="node10" class="node"><title>ReportsController</title>
<path fill="none" stroke="black" d="M-310.229,198.603C-310.229,198.603 -217.132,198.603 -217.132,198.603 -211.132,198.603 -205.132,192.603 -205.132,186.603 -205.132,186.603 -205.132,92.6028 -205.132,92.6028 -205.132,86.6028 -211.132,80.6028 -217.132,80.6028 -217.132,80.6028 -310.229,80.6028 -310.229,80.6028 -316.229,80.6028 -322.229,86.6028 -322.229,92.6028 -322.229,92.6028 -322.229,186.603 -322.229,186.603 -322.229,192.603 -316.229,198.603 -310.229,198.603"/>
<text text-anchor="middle" x="-263.681" y="95.8028" font-family="Times,serif" font-size="14.00">ReportsController</text>
<polyline fill="none" stroke="black" points="-322.229,102.603 -205.132,102.603 "/>
<text text-anchor="start" x="-314.229" y="117.803" font-family="Times,serif" font-size="14.00">cars</text>
<text text-anchor="start" x="-314.229" y="131.803" font-family="Times,serif" font-size="14.00">insurance</text>
<text text-anchor="start" x="-314.229" y="145.803" font-family="Times,serif" font-size="14.00">repair</text>
<polyline fill="none" stroke="black" points="-322.229,152.603 -205.132,152.603 "/>
<polyline fill="none" stroke="black" points="-322.229,176.603 -205.132,176.603 "/>
<text text-anchor="start" x="-314.229" y="191.803" font-family="Times,serif" font-size="14.00">_layout</text>
</g>
<!-- ApplicationController&#45;&gt;ReportsController -->
<g id="edge8" class="edge"><title>ApplicationController&#45;&gt;ReportsController</title>
<path fill="none" stroke="black" d="M-73.4883,76.1177C-114.595,89.8388 -165.938,106.977 -204.914,119.987"/>
</g>
<!-- RosterController -->
<g id="node11" class="node"><title>RosterController</title>
<path fill="none" stroke="black" d="M223.971,405.893C223.971,405.893 341.909,405.893 341.909,405.893 347.909,405.893 353.909,399.893 353.909,393.893 353.909,393.893 353.909,313.893 353.909,313.893 353.909,307.893 347.909,301.893 341.909,301.893 341.909,301.893 223.971,301.893 223.971,301.893 217.971,301.893 211.971,307.893 211.971,313.893 211.971,313.893 211.971,393.893 211.971,393.893 211.971,399.893 217.971,405.893 223.971,405.893"/>
<text text-anchor="middle" x="282.94" y="317.093" font-family="Times,serif" font-size="14.00">RosterController</text>
<polyline fill="none" stroke="black" points="211.971,323.893 353.909,323.893 "/>
<text text-anchor="start" x="219.971" y="339.093" font-family="Times,serif" font-size="14.00">attendance</text>
<text text-anchor="start" x="219.971" y="353.093" font-family="Times,serif" font-size="14.00">employeePerformance</text>
<polyline fill="none" stroke="black" points="211.971,359.893 353.909,359.893 "/>
<polyline fill="none" stroke="black" points="211.971,383.893 353.909,383.893 "/>
<text text-anchor="start" x="219.971" y="399.093" font-family="Times,serif" font-size="14.00">_layout</text>
</g>
<!-- ApplicationController&#45;&gt;RosterController -->
<g id="edge9" class="edge"><title>ApplicationController&#45;&gt;RosterController</title>
<path fill="none" stroke="black" d="M40.4059,98.7901C92.4175,153.497 178.955,244.519 233.374,301.758"/>
</g>
<!-- SessionsController -->
<g id="node12" class="node"><title>SessionsController</title>
<path fill="none" stroke="black" d="M29.4927,384.742C29.4927,384.742 127.272,384.742 127.272,384.742 133.272,384.742 139.272,378.742 139.272,372.742 139.272,372.742 139.272,278.742 139.272,278.742 139.272,272.742 133.272,266.742 127.272,266.742 127.272,266.742 29.4927,266.742 29.4927,266.742 23.4927,266.742 17.4927,272.742 17.4927,278.742 17.4927,278.742 17.4927,372.742 17.4927,372.742 17.4927,378.742 23.4927,384.742 29.4927,384.742"/>
<text text-anchor="middle" x="78.3823" y="281.942" font-family="Times,serif" font-size="14.00">SessionsController</text>
<polyline fill="none" stroke="black" points="17.4927,288.742 139.272,288.742 "/>
<text text-anchor="start" x="25.4927" y="303.942" font-family="Times,serif" font-size="14.00">create</text>
<text text-anchor="start" x="25.4927" y="317.942" font-family="Times,serif" font-size="14.00">destroy</text>
<text text-anchor="start" x="25.4927" y="331.942" font-family="Times,serif" font-size="14.00">new</text>
<polyline fill="none" stroke="black" points="17.4927,338.742 139.272,338.742 "/>
<polyline fill="none" stroke="black" points="17.4927,362.742 139.272,362.742 "/>
<text text-anchor="start" x="25.4927" y="377.942" font-family="Times,serif" font-size="14.00">_layout</text>
</g>
<!-- ApplicationController&#45;&gt;SessionsController -->
<g id="edge10" class="edge"><title>ApplicationController&#45;&gt;SessionsController</title>
<path fill="none" stroke="black" d="M10.386,98.7263C24.2236,144.925 45.6004,216.295 60.6853,266.658"/>
</g>
<!-- UsersController -->
<g id="node13" class="node"><title>UsersController</title>
<path fill="none" stroke="black" d="M-331.829,-182.01C-331.829,-182.01 -250.402,-182.01 -250.402,-182.01 -244.402,-182.01 -238.402,-188.01 -238.402,-194.01 -238.402,-194.01 -238.402,-302.01 -238.402,-302.01 -238.402,-308.01 -244.402,-314.01 -250.402,-314.01 -250.402,-314.01 -331.829,-314.01 -331.829,-314.01 -337.829,-314.01 -343.829,-308.01 -343.829,-302.01 -343.829,-302.01 -343.829,-194.01 -343.829,-194.01 -343.829,-188.01 -337.829,-182.01 -331.829,-182.01"/>
<text text-anchor="middle" x="-291.116" y="-298.81" font-family="Times,serif" font-size="14.00">UsersController</text>
<polyline fill="none" stroke="black" points="-343.829,-292.01 -238.402,-292.01 "/>
<text text-anchor="start" x="-335.829" y="-276.81" font-family="Times,serif" font-size="14.00">create</text>
<text text-anchor="start" x="-335.829" y="-262.81" font-family="Times,serif" font-size="14.00">new</text>
<text text-anchor="start" x="-335.829" y="-248.81" font-family="Times,serif" font-size="14.00">show</text>
<polyline fill="none" stroke="black" points="-343.829,-242.01 -238.402,-242.01 "/>
<polyline fill="none" stroke="black" points="-343.829,-218.01 -238.402,-218.01 "/>
<text text-anchor="start" x="-335.829" y="-202.81" font-family="Times,serif" font-size="14.00">_layout</text>
<text text-anchor="start" x="-335.829" y="-188.81" font-family="Times,serif" font-size="14.00">user_params</text>
</g>
<!-- ApplicationController&#45;&gt;UsersController -->
<g id="edge11" class="edge"><title>ApplicationController&#45;&gt;UsersController</title>
<path fill="none" stroke="black" d="M-47.4057,6.7188C-98.7249,-46.9206 -183.495,-135.523 -238.313,-192.82"/>
</g>
<!-- WelcomeController -->
<g id="node14" class="node"><title>WelcomeController</title>
<path fill="none" stroke="black" d="M206.537,9.80467C206.537,9.80467 308.602,9.80467 308.602,9.80467 314.602,9.80467 320.602,3.80467 320.602,-2.19533 320.602,-2.19533 320.602,-68.1953 320.602,-68.1953 320.602,-74.1953 314.602,-80.1953 308.602,-80.1953 308.602,-80.1953 206.537,-80.1953 206.537,-80.1953 200.537,-80.1953 194.537,-74.1953 194.537,-68.1953 194.537,-68.1953 194.537,-2.19533 194.537,-2.19533 194.537,3.80467 200.537,9.80467 206.537,9.80467"/>
<text text-anchor="middle" x="257.569" y="-64.9953" font-family="Times,serif" font-size="14.00">WelcomeController</text>
<polyline fill="none" stroke="black" points="194.537,-58.1953 320.602,-58.1953 "/>
<text text-anchor="start" x="202.537" y="-42.9953" font-family="Times,serif" font-size="14.00">index</text>
<polyline fill="none" stroke="black" points="194.537,-36.1953 320.602,-36.1953 "/>
<polyline fill="none" stroke="black" points="194.537,-12.1953 320.602,-12.1953 "/>
<text text-anchor="start" x="202.537" y="3.00467" font-family="Times,serif" font-size="14.00">_layout</text>
</g>
<!-- ApplicationController&#45;&gt;WelcomeController -->
<g id="edge12" class="edge"><title>ApplicationController&#45;&gt;WelcomeController</title>
<path fill="none" stroke="black" d="M66.5396,29.1607C106.247,15.7838 155.566,-0.831323 194.145,-13.8283"/>
</g>
</g>
</svg>
