<?xml version="1.0" encoding="UTF-8" standalone="no"?>
<!DOCTYPE svg PUBLIC "-//W3C//DTD SVG 1.1//EN"
 "http://www.w3.org/Graphics/SVG/1.1/DTD/svg11.dtd">
<!-- Generated by graphviz version 2.38.0 (20140413.2041)
 -->
<!-- Title: controllers_diagram Pages: 1 -->
<svg width="762pt" height="565pt"
 viewBox="0.00 0.00 761.88 564.65" xmlns="http://www.w3.org/2000/svg" xmlns:xlink="http://www.w3.org/1999/xlink">
<g id="graph0" class="graph" transform="scale(1 1) rotate(0) translate(238.191 249.15)">
<title>controllers_diagram</title>
<polygon fill="white" stroke="none" points="-238.191,315.5 -238.191,-249.15 523.688,-249.15 523.688,315.5 -238.191,315.5"/>
<!-- _diagram_info -->
<g id="node1" class="node"><title>_diagram_info</title>
<text text-anchor="start" x="320.312" y="252.9" font-family="Times,serif" font-size="13.00">Controllers diagram</text>
<text text-anchor="start" x="320.312" y="265.9" font-family="Times,serif" font-size="13.00">Date: Sep 17 2014 &#45; 13:06</text>
<text text-anchor="start" x="320.312" y="278.9" font-family="Times,serif" font-size="13.00">Migration version: 20140913200623</text>
<text text-anchor="start" x="320.312" y="291.9" font-family="Times,serif" font-size="13.00">Generated by RailRoady 1.1.2</text>
<text text-anchor="start" x="320.312" y="304.9" font-family="Times,serif" font-size="13.00">http://railroady.prestonlee.com</text>
</g>
<!-- ApplicationController -->
<g id="node2" class="node"><title>ApplicationController</title>
<path fill="none" stroke="black" d="M-64.076,30.1929C-64.076,30.1929 51.5656,30.1929 51.5656,30.1929 57.5656,30.1929 63.5656,24.1929 63.5656,18.1929 63.5656,18.1929 63.5656,-49.8071 63.5656,-49.8071 63.5656,-55.8071 57.5656,-61.8071 51.5656,-61.8071 51.5656,-61.8071 -64.076,-61.8071 -64.076,-61.8071 -70.076,-61.8071 -76.076,-55.8071 -76.076,-49.8071 -76.076,-49.8071 -76.076,18.1929 -76.076,18.1929 -76.076,24.1929 -70.076,30.1929 -64.076,30.1929"/>
<text text-anchor="middle" x="-6.25523" y="-46.6071" font-family="Times,serif" font-size="14.00">ApplicationController</text>
<polyline fill="none" stroke="black" points="-76.076,-39.8071 63.5656,-39.8071 "/>
<polyline fill="none" stroke="black" points="-76.076,-15.8071 63.5656,-15.8071 "/>
<polyline fill="none" stroke="black" points="-76.076,8.19291 63.5656,8.19291 "/>
<text text-anchor="start" x="-68.076" y="23.3929" font-family="Times,serif" font-size="14.00">_layout</text>
</g>
<!-- BranchesController -->
<g id="node3" class="node"><title>BranchesController</title>
<path fill="none" stroke="black" d="M119.152,28.8387C119.152,28.8387 220.787,28.8387 220.787,28.8387 226.787,28.8387 232.787,22.8387 232.787,16.8387 232.787,16.8387 232.787,-51.1613 232.787,-51.1613 232.787,-57.1613 226.787,-63.1613 220.787,-63.1613 220.787,-63.1613 119.152,-63.1613 119.152,-63.1613 113.152,-63.1613 107.152,-57.1613 107.152,-51.1613 107.152,-51.1613 107.152,16.8387 107.152,16.8387 107.152,22.8387 113.152,28.8387 119.152,28.8387"/>
<text text-anchor="middle" x="169.969" y="-47.9613" font-family="Times,serif" font-size="14.00">BranchesController</text>
<polyline fill="none" stroke="black" points="107.152,-41.1613 232.787,-41.1613 "/>
<polyline fill="none" stroke="black" points="107.152,-17.1613 232.787,-17.1613 "/>
<polyline fill="none" stroke="black" points="107.152,6.83875 232.787,6.83875 "/>
<text text-anchor="start" x="115.152" y="22.0387" font-family="Times,serif" font-size="14.00">_layout</text>
</g>
<!-- ApplicationController&#45;&gt;BranchesController -->
<g id="edge1" class="edge"><title>ApplicationController&#45;&gt;BranchesController</title>
<path fill="none" stroke="black" d="M63.6465,-16.3442C77.9647,-16.4543 92.9538,-16.5694 107.011,-16.6775"/>
</g>
<!-- GenericCarsController -->
<g id="node4" class="node"><title>GenericCarsController</title>
<path fill="none" stroke="black" d="M-65.4836,233.765C-65.4836,233.765 54.0272,233.765 54.0272,233.765 60.0272,233.765 66.0272,227.765 66.0272,221.765 66.0272,221.765 66.0272,85.7646 66.0272,85.7646 66.0272,79.7646 60.0272,73.7646 54.0272,73.7646 54.0272,73.7646 -65.4836,73.7646 -65.4836,73.7646 -71.4836,73.7646 -77.4836,79.7646 -77.4836,85.7646 -77.4836,85.7646 -77.4836,221.765 -77.4836,221.765 -77.4836,227.765 -71.4836,233.765 -65.4836,233.765"/>
<text text-anchor="middle" x="-5.72819" y="88.9646" font-family="Times,serif" font-size="14.00">GenericCarsController</text>
<polyline fill="none" stroke="black" points="-77.4836,95.7646 66.0272,95.7646 "/>
<text text-anchor="start" x="-69.4836" y="110.965" font-family="Times,serif" font-size="14.00">create</text>
<text text-anchor="start" x="-69.4836" y="124.965" font-family="Times,serif" font-size="14.00">destroy</text>
<text text-anchor="start" x="-69.4836" y="138.965" font-family="Times,serif" font-size="14.00">generic_car_params</text>
<text text-anchor="start" x="-69.4836" y="152.965" font-family="Times,serif" font-size="14.00">index</text>
<text text-anchor="start" x="-69.4836" y="166.965" font-family="Times,serif" font-size="14.00">new</text>
<text text-anchor="start" x="-69.4836" y="180.965" font-family="Times,serif" font-size="14.00">show</text>
<polyline fill="none" stroke="black" points="-77.4836,187.765 66.0272,187.765 "/>
<polyline fill="none" stroke="black" points="-77.4836,211.765 66.0272,211.765 "/>
<text text-anchor="start" x="-69.4836" y="226.965" font-family="Times,serif" font-size="14.00">_layout</text>
</g>
<!-- ApplicationController&#45;&gt;GenericCarsController -->
<g id="edge2" class="edge"><title>ApplicationController&#45;&gt;GenericCarsController</title>
<path fill="none" stroke="black" d="M-6.11121,30.5291C-6.06976,43.8654 -6.02331,58.8118 -5.97743,73.5721"/>
</g>
<!-- GenericSparesController -->
<g id="node5" class="node"><title>GenericSparesController</title>
<path fill="none" stroke="black" d="M-222.191,-95.3457C-222.191,-95.3457 -91.0184,-95.3457 -91.0184,-95.3457 -85.0184,-95.3457 -79.0184,-101.346 -79.0184,-107.346 -79.0184,-107.346 -79.0184,-173.346 -79.0184,-173.346 -79.0184,-179.346 -85.0184,-185.346 -91.0184,-185.346 -91.0184,-185.346 -222.191,-185.346 -222.191,-185.346 -228.191,-185.346 -234.191,-179.346 -234.191,-173.346 -234.191,-173.346 -234.191,-107.346 -234.191,-107.346 -234.191,-101.346 -228.191,-95.3457 -222.191,-95.3457"/>
<text text-anchor="middle" x="-156.605" y="-170.146" font-family="Times,serif" font-size="14.00">GenericSparesController</text>
<polyline fill="none" stroke="black" points="-234.191,-163.346 -79.0184,-163.346 "/>
<text text-anchor="start" x="-226.191" y="-148.146" font-family="Times,serif" font-size="14.00">destroy</text>
<polyline fill="none" stroke="black" points="-234.191,-141.346 -79.0184,-141.346 "/>
<polyline fill="none" stroke="black" points="-234.191,-117.346 -79.0184,-117.346 "/>
<text text-anchor="start" x="-226.191" y="-102.146" font-family="Times,serif" font-size="14.00">_layout</text>
</g>
<!-- ApplicationController&#45;&gt;GenericSparesController -->
<g id="edge3" class="edge"><title>ApplicationController&#45;&gt;GenericSparesController</title>
<path fill="none" stroke="black" d="M-61.8127,-61.8268C-75.0295,-72.7746 -89.1161,-84.4429 -102.277,-95.3445"/>
</g>
<!-- PrevaluationsController -->
<g id="node6" class="node"><title>PrevaluationsController</title>
<path fill="none" stroke="black" d="M105.792,-112.65C105.792,-112.65 231.544,-112.65 231.544,-112.65 237.544,-112.65 243.544,-118.65 243.544,-124.65 243.544,-124.65 243.544,-232.65 243.544,-232.65 243.544,-238.65 237.544,-244.65 231.544,-244.65 231.544,-244.65 105.792,-244.65 105.792,-244.65 99.7925,-244.65 93.7925,-238.65 93.7925,-232.65 93.7925,-232.65 93.7925,-124.65 93.7925,-124.65 93.7925,-118.65 99.7925,-112.65 105.792,-112.65"/>
<text text-anchor="middle" x="168.668" y="-229.45" font-family="Times,serif" font-size="14.00">PrevaluationsController</text>
<polyline fill="none" stroke="black" points="93.7925,-222.65 243.544,-222.65 "/>
<text text-anchor="start" x="101.792" y="-207.45" font-family="Times,serif" font-size="14.00">create</text>
<text text-anchor="start" x="101.792" y="-193.45" font-family="Times,serif" font-size="14.00">new</text>
<text text-anchor="start" x="101.792" y="-179.45" font-family="Times,serif" font-size="14.00">pre_valuation_params</text>
<text text-anchor="start" x="101.792" y="-165.45" font-family="Times,serif" font-size="14.00">show</text>
<polyline fill="none" stroke="black" points="93.7925,-158.65 243.544,-158.65 "/>
<polyline fill="none" stroke="black" points="93.7925,-134.65 243.544,-134.65 "/>
<text text-anchor="start" x="101.792" y="-119.45" font-family="Times,serif" font-size="14.00">_layout</text>
</g>
<!-- ApplicationController&#45;&gt;PrevaluationsController -->
<g id="edge4" class="edge"><title>ApplicationController&#45;&gt;PrevaluationsController</title>
<path fill="none" stroke="black" d="M43.403,-62.0358C60.271,-77.7388 79.462,-95.6045 97.6661,-112.551"/>
</g>
<!-- SessionsController -->
<g id="node7" class="node"><title>SessionsController</title>
<path fill="none" stroke="black" d="M-51.5242,-126.286C-51.5242,-126.286 46.2551,-126.286 46.2551,-126.286 52.2551,-126.286 58.2551,-132.286 58.2551,-138.286 58.2551,-138.286 58.2551,-232.286 58.2551,-232.286 58.2551,-238.286 52.2551,-244.286 46.2551,-244.286 46.2551,-244.286 -51.5242,-244.286 -51.5242,-244.286 -57.5242,-244.286 -63.5242,-238.286 -63.5242,-232.286 -63.5242,-232.286 -63.5242,-138.286 -63.5242,-138.286 -63.5242,-132.286 -57.5242,-126.286 -51.5242,-126.286"/>
<text text-anchor="middle" x="-2.63451" y="-229.086" font-family="Times,serif" font-size="14.00">SessionsController</text>
<polyline fill="none" stroke="black" points="-63.5242,-222.286 58.2551,-222.286 "/>
<text text-anchor="start" x="-55.5242" y="-207.086" font-family="Times,serif" font-size="14.00">create</text>
<text text-anchor="start" x="-55.5242" y="-193.086" font-family="Times,serif" font-size="14.00">destroy</text>
<text text-anchor="start" x="-55.5242" y="-179.086" font-family="Times,serif" font-size="14.00">new</text>
<polyline fill="none" stroke="black" points="-63.5242,-172.286 58.2551,-172.286 "/>
<polyline fill="none" stroke="black" points="-63.5242,-148.286 58.2551,-148.286 "/>
<text text-anchor="start" x="-55.5242" y="-133.086" font-family="Times,serif" font-size="14.00">_layout</text>
</g>
<!-- ApplicationController&#45;&gt;SessionsController -->
<g id="edge5" class="edge"><title>ApplicationController&#45;&gt;SessionsController</title>
<path fill="none" stroke="black" d="M-5.26585,-62.1181C-4.8429,-81.9155 -4.3441,-105.263 -3.89514,-126.278"/>
</g>
<!-- UsersController -->
<g id="node8" class="node"><title>UsersController</title>
<path fill="none" stroke="black" d="M-198.498,171.593C-198.498,171.593 -117.07,171.593 -117.07,171.593 -111.07,171.593 -105.07,165.593 -105.07,159.593 -105.07,159.593 -105.07,51.5932 -105.07,51.5932 -105.07,45.5932 -111.07,39.5932 -117.07,39.5932 -117.07,39.5932 -198.498,39.5932 -198.498,39.5932 -204.498,39.5932 -210.498,45.5932 -210.498,51.5932 -210.498,51.5932 -210.498,159.593 -210.498,159.593 -210.498,165.593 -204.498,171.593 -198.498,171.593"/>
<text text-anchor="middle" x="-157.784" y="54.7932" font-family="Times,serif" font-size="14.00">UsersController</text>
<polyline fill="none" stroke="black" points="-210.498,61.5932 -105.07,61.5932 "/>
<text text-anchor="start" x="-202.498" y="76.7932" font-family="Times,serif" font-size="14.00">create</text>
<text text-anchor="start" x="-202.498" y="90.7932" font-family="Times,serif" font-size="14.00">new</text>
<text text-anchor="start" x="-202.498" y="104.793" font-family="Times,serif" font-size="14.00">show</text>
<polyline fill="none" stroke="black" points="-210.498,111.593 -105.07,111.593 "/>
<polyline fill="none" stroke="black" points="-210.498,135.593 -105.07,135.593 "/>
<text text-anchor="start" x="-202.498" y="150.793" font-family="Times,serif" font-size="14.00">_layout</text>
<text text-anchor="start" x="-202.498" y="164.793" font-family="Times,serif" font-size="14.00">user_params</text>
</g>
<!-- ApplicationController&#45;&gt;UsersController -->
<g id="edge6" class="edge"><title>ApplicationController&#45;&gt;UsersController</title>
<path fill="none" stroke="black" d="M-63.9741,30.4355C-77.356,41.1566 -91.5354,52.5167 -104.707,63.0693"/>
</g>
<!-- WelcomeController -->
<g id="node9" class="node"><title>WelcomeController</title>
<path fill="none" stroke="black" d="M116.425,190.13C116.425,190.13 218.491,190.13 218.491,190.13 224.491,190.13 230.491,184.13 230.491,178.13 230.491,178.13 230.491,112.13 230.491,112.13 230.491,106.13 224.491,100.13 218.491,100.13 218.491,100.13 116.425,100.13 116.425,100.13 110.425,100.13 104.425,106.13 104.425,112.13 104.425,112.13 104.425,178.13 104.425,178.13 104.425,184.13 110.425,190.13 116.425,190.13"/>
<text text-anchor="middle" x="167.458" y="115.33" font-family="Times,serif" font-size="14.00">WelcomeController</text>
<polyline fill="none" stroke="black" points="104.425,122.13 230.491,122.13 "/>
<text text-anchor="start" x="112.425" y="137.33" font-family="Times,serif" font-size="14.00">index</text>
<polyline fill="none" stroke="black" points="104.425,144.13 230.491,144.13 "/>
<polyline fill="none" stroke="black" points="104.425,168.13 230.491,168.13 "/>
<text text-anchor="start" x="112.425" y="183.33" font-family="Times,serif" font-size="14.00">_layout</text>
</g>
<!-- ApplicationController&#45;&gt;WelcomeController -->
<g id="edge7" class="edge"><title>ApplicationController&#45;&gt;WelcomeController</title>
<path fill="none" stroke="black" d="M43.524,30.3112C67.1848,52.2318 95.3647,78.3393 118.871,100.116"/>
</g>
</g>
</svg>
