<?xml version="1.0" encoding="UTF-8" standalone="no"?>
<!DOCTYPE svg PUBLIC "-//W3C//DTD SVG 1.1//EN"
 "http://www.w3.org/Graphics/SVG/1.1/DTD/svg11.dtd">
<!-- Generated by graphviz version 2.38.0 (20140413.2041)
 -->
<!-- Title: models_diagram Pages: 1 -->
<svg width="829pt" height="225pt"
 viewBox="0.00 0.00 829.23 225.00" xmlns="http://www.w3.org/2000/svg" xmlns:xlink="http://www.w3.org/1999/xlink">
<g id="graph0" class="graph" transform="scale(1 1) rotate(0) translate(4 221)">
<title>models_diagram</title>
<polygon fill="white" stroke="none" points="-4,4 -4,-221 825.228,-221 825.228,4 -4,4"/>
<!-- _diagram_info -->
<g id="node1" class="node"><title>_diagram_info</title>
<text text-anchor="start" x="95.54" y="-202.6" font-family="Times,serif" font-size="13.00">Models diagram</text>
<text text-anchor="start" x="95.54" y="-189.6" font-family="Times,serif" font-size="13.00">Date: Sep 12 2014 &#45; 18:36</text>
<text text-anchor="start" x="95.54" y="-176.6" font-family="Times,serif" font-size="13.00">Migration version: 20140912232245</text>
<text text-anchor="start" x="95.54" y="-163.6" font-family="Times,serif" font-size="13.00">Generated by RailRoady 1.1.2</text>
<text text-anchor="start" x="95.54" y="-150.6" font-family="Times,serif" font-size="13.00">http://railroady.prestonlee.com</text>
</g>
<!-- Car -->
<g id="node2" class="node"><title>Car</title>
<ellipse fill="none" stroke="black" cx="189.228" cy="-18" rx="27" ry="18"/>
<text text-anchor="middle" x="189.228" y="-13.8" font-family="Times,serif" font-size="14.00">Car</text>
</g>
<!-- GenericCar -->
<g id="node3" class="node"><title>GenericCar</title>
<ellipse fill="none" stroke="black" cx="110.228" cy="-90" rx="50.7224" ry="18"/>
<text text-anchor="middle" x="110.228" y="-85.8" font-family="Times,serif" font-size="14.00">GenericCar</text>
</g>
<!-- GenericCar&#45;&gt;Car -->
<g id="edge2" class="edge"><title>GenericCar&#45;&gt;Car</title>
<path fill="none" stroke="#66ab48" d="M134.181,-67.7756C144.248,-58.8558 155.917,-48.5156 165.914,-39.6574"/>
<ellipse fill="none" stroke="#66ab48" cx="131.148" cy="-70.4632" rx="4.00002" ry="4.00002"/>
<polygon fill="#66ab48" stroke="#66ab48" points="166.026,-39.5584 176.495,-36.2946 169.768,-36.2425 173.511,-32.9265 173.511,-32.9265 173.511,-32.9265 169.768,-36.2425 170.526,-29.5585 166.026,-39.5584 166.026,-39.5584"/>
</g>
<!-- GenericSpare -->
<g id="node5" class="node"><title>GenericSpare</title>
<ellipse fill="none" stroke="black" cx="58.2277" cy="-18" rx="58.4563" ry="18"/>
<text text-anchor="middle" x="58.2277" y="-13.8" font-family="Times,serif" font-size="14.00">GenericSpare</text>
</g>
<!-- GenericCar&#45;&gt;GenericSpare -->
<g id="edge3" class="edge"><title>GenericCar&#45;&gt;GenericSpare</title>
<path fill="none" stroke="#3078b6" d="M91.8097,-64.2065C87.0325,-57.7756 81.881,-50.841 77.0817,-44.3804"/>
<polygon fill="#3078b6" stroke="#3078b6" points="91.9412,-64.3835 94.2921,-75.0945 94.9228,-68.3972 97.9044,-72.411 97.9044,-72.411 97.9044,-72.411 94.9228,-68.3972 101.517,-69.7275 91.9412,-64.3835 91.9412,-64.3835"/>
<polygon fill="#3078b6" stroke="#3078b6" points="76.787,-43.9837 74.4361,-33.2727 73.8054,-39.9699 70.8238,-35.9562 70.8238,-35.9562 70.8238,-35.9562 73.8054,-39.9699 67.2114,-38.6397 76.787,-43.9837 76.787,-43.9837"/>
</g>
<!-- GenericCarsGenericSpares -->
<g id="node4" class="node"><title>GenericCarsGenericSpares</title>
<ellipse fill="none" stroke="black" cx="567.228" cy="-90" rx="105.73" ry="18"/>
<text text-anchor="middle" x="567.228" y="-85.8" font-family="Times,serif" font-size="14.00">GenericCarsGenericSpares</text>
</g>
<!-- Insured -->
<g id="node6" class="node"><title>Insured</title>
<ellipse fill="none" stroke="black" cx="376.228" cy="-18" rx="36.7576" ry="18"/>
<text text-anchor="middle" x="376.228" y="-13.8" font-family="Times,serif" font-size="14.00">Insured</text>
</g>
<!-- Prevaluation -->
<g id="node7" class="node"><title>Prevaluation</title>
<ellipse fill="none" stroke="black" cx="272.228" cy="-90" rx="54.6076" ry="18"/>
<text text-anchor="middle" x="272.228" y="-85.8" font-family="Times,serif" font-size="14.00">Prevaluation</text>
</g>
<!-- Prevaluation&#45;&gt;Car -->
<g id="edge8" class="edge"><title>Prevaluation&#45;&gt;Car</title>
<path fill="none" stroke="#fef689" d="M246.603,-67.3888C235.968,-58.4198 223.696,-48.0696 213.237,-39.2492"/>
<ellipse fill="none" stroke="#fef689" cx="249.919" cy="-70.1858" rx="4.00002" ry="4.00002"/>
<polygon fill="#fef689" stroke="#fef689" points="212.949,-39.006 208.206,-29.119 209.127,-35.7825 205.305,-32.5589 205.305,-32.5589 205.305,-32.5589 209.127,-35.7825 202.404,-35.9989 212.949,-39.006 212.949,-39.006"/>
</g>
<!-- Prevaluation&#45;&gt;Insured -->
<g id="edge9" class="edge"><title>Prevaluation&#45;&gt;Insured</title>
<path fill="none" stroke="#e8d4f9" d="M302.33,-68.7391C316.268,-59.3577 332.774,-48.2476 346.647,-38.9099"/>
<ellipse fill="none" stroke="#e8d4f9" cx="298.627" cy="-71.2312" rx="4.00002" ry="4.00002"/>
<polygon fill="#e8d4f9" stroke="#e8d4f9" points="347.034,-38.6494 357.843,-36.7987 351.182,-35.8575 355.33,-33.0656 355.33,-33.0656 355.33,-33.0656 351.182,-35.8575 352.818,-29.3324 347.034,-38.6494 347.034,-38.6494"/>
</g>
<!-- Spare -->
<g id="node8" class="node"><title>Spare</title>
<ellipse fill="none" stroke="black" cx="566.228" cy="-18" rx="30.4862" ry="18"/>
<text text-anchor="middle" x="566.228" y="-13.8" font-family="Times,serif" font-size="14.00">Spare</text>
</g>
<!-- User -->
<g id="node9" class="node"><title>User</title>
<ellipse fill="none" stroke="black" cx="794.228" cy="-90" rx="27" ry="18"/>
<text text-anchor="middle" x="794.228" y="-85.8" font-family="Times,serif" font-size="14.00">User</text>
</g>
<!-- Warehouse -->
<g id="node10" class="node"><title>Warehouse</title>
<ellipse fill="none" stroke="black" cx="394.228" cy="-90" rx="49.3546" ry="18"/>
<text text-anchor="middle" x="394.228" y="-85.8" font-family="Times,serif" font-size="14.00">Warehouse</text>
</g>
<!-- Warehouse&#45;&gt;Car -->
<g id="edge14" class="edge"><title>Warehouse&#45;&gt;Car</title>
<path fill="none" stroke="#70ad04" d="M351.835,-74.5244C313.457,-61.4196 257.694,-42.3787 222.458,-30.3469"/>
<ellipse fill="none" stroke="#70ad04" cx="355.667" cy="-75.8328" rx="4.00001" ry="4.00001"/>
<polygon fill="#70ad04" stroke="#70ad04" points="222.123,-30.2326 214.114,-22.7425 217.391,-28.6169 212.66,-27.0011 212.66,-27.0011 212.66,-27.0011 217.391,-28.6169 211.205,-31.2597 222.123,-30.2326 222.123,-30.2326"/>
</g>
<!-- Warehouse&#45;&gt;Spare -->
<g id="edge13" class="edge"><title>Warehouse&#45;&gt;Spare</title>
<path fill="none" stroke="#0ff700" d="M433.517,-73.0101C463.338,-60.8737 503.916,-44.3595 532.324,-32.7982"/>
<ellipse fill="none" stroke="#0ff700" cx="429.48" cy="-74.6531" rx="4.00001" ry="4.00001"/>
<polygon fill="#0ff700" stroke="#0ff700" points="532.564,-32.7002 543.523,-33.0987 537.196,-30.8154 541.827,-28.9306 541.827,-28.9306 541.827,-28.9306 537.196,-30.8154 540.13,-24.7626 532.564,-32.7002 532.564,-32.7002"/>
</g>
<!-- ActiveRecord::Base -->
<g id="node11" class="node"><title>ActiveRecord::Base</title>
<ellipse fill="none" stroke="black" cx="394.228" cy="-180.5" rx="81.1422" ry="18"/>
<text text-anchor="middle" x="394.228" y="-176.3" font-family="Times,serif" font-size="14.00">ActiveRecord::Base</text>
</g>
<!-- ActiveRecord::Base&#45;&gt;Car -->
<g id="edge1" class="edge"><title>ActiveRecord::Base&#45;&gt;Car</title>
<path fill="none" stroke="black" d="M356.625,-164.504C340.514,-158.121 321.472,-150.634 304.228,-144 261.698,-127.639 237.971,-142.522 208.228,-108 190.902,-87.891 188.134,-55.8459 188.278,-36.1911"/>
</g>
<!-- ActiveRecord::Base&#45;&gt;GenericCar -->
<g id="edge4" class="edge"><title>ActiveRecord::Base&#45;&gt;GenericCar</title>
<path fill="none" stroke="black" d="M358.212,-164.253C341.883,-157.611 322.237,-149.992 304.228,-144 289.527,-139.109 201.947,-115.521 149.618,-101.514"/>
</g>
<!-- ActiveRecord::Base&#45;&gt;GenericCarsGenericSpares -->
<g id="edge5" class="edge"><title>ActiveRecord::Base&#45;&gt;GenericCarsGenericSpares</title>
<path fill="none" stroke="black" d="M425.157,-163.678C456.257,-147.768 503.979,-123.356 535.396,-107.284"/>
</g>
<!-- ActiveRecord::Base&#45;&gt;GenericSpare -->
<g id="edge6" class="edge"><title>ActiveRecord::Base&#45;&gt;GenericSpare</title>
<path fill="none" stroke="black" d="M360.67,-164.087C344.009,-157 323.39,-149.062 304.228,-144 249.11,-129.441 87.6036,-151.047 50.2277,-108 33.0386,-88.2029 42.031,-55.7574 50.1282,-35.991"/>
</g>
<!-- ActiveRecord::Base&#45;&gt;Insured -->
<g id="edge7" class="edge"><title>ActiveRecord::Base&#45;&gt;Insured</title>
<path fill="none" stroke="black" d="M473.416,-176.011C578.429,-168.525 743.745,-145.088 682.228,-72 664.912,-51.4268 488.749,-30.7318 411.834,-22.599"/>
</g>
<!-- ActiveRecord::Base&#45;&gt;Prevaluation -->
<g id="edge10" class="edge"><title>ActiveRecord::Base&#45;&gt;Prevaluation</title>
<path fill="none" stroke="black" d="M371.566,-163.061C349.378,-146.965 315.807,-122.613 293.948,-106.756"/>
</g>
<!-- ActiveRecord::Base&#45;&gt;Spare -->
<g id="edge11" class="edge"><title>ActiveRecord::Base&#45;&gt;Spare</title>
<path fill="none" stroke="black" d="M467.858,-172.802C549.495,-163.672 673.502,-144.158 702.228,-108 712.18,-95.4722 711.257,-85.209 702.228,-72 678.49,-37.2723 628.353,-25.2971 596.034,-21.1693"/>
</g>
<!-- ActiveRecord::Base&#45;&gt;User -->
<g id="edge12" class="edge"><title>ActiveRecord::Base&#45;&gt;User</title>
<path fill="none" stroke="black" d="M461.026,-170.219C533.852,-159.174 653.35,-138.33 753.228,-108 759.569,-106.074 766.276,-103.524 772.389,-100.986"/>
</g>
<!-- ActiveRecord::Base&#45;&gt;Warehouse -->
<g id="edge15" class="edge"><title>ActiveRecord::Base&#45;&gt;Warehouse</title>
<path fill="none" stroke="black" d="M394.228,-162.436C394.228,-146.765 394.228,-123.666 394.228,-108.011"/>
</g>
</g>
</svg>
