<?xml version="1.0" encoding="UTF-8" standalone="no"?>
<!DOCTYPE svg PUBLIC "-//W3C//DTD SVG 1.1//EN"
 "http://www.w3.org/Graphics/SVG/1.1/DTD/svg11.dtd">
<!-- Generated by graphviz version 2.38.0 (20140413.2041)
 -->
<!-- Title: models_diagram Pages: 1 -->
<svg width="1842pt" height="519pt"
 viewBox="0.00 0.00 1841.77 519.00" xmlns="http://www.w3.org/2000/svg" xmlns:xlink="http://www.w3.org/1999/xlink">
<g id="graph0" class="graph" transform="scale(1 1) rotate(0) translate(4 515)">
<title>models_diagram</title>
<polygon fill="white" stroke="none" points="-4,4 -4,-515 1837.77,-515 1837.77,4 -4,4"/>
<!-- _diagram_info -->
<g id="node1" class="node"><title>_diagram_info</title>
<text text-anchor="start" x="1069.94" y="-496.6" font-family="Times,serif" font-size="13.00">Models diagram</text>
<text text-anchor="start" x="1069.94" y="-483.6" font-family="Times,serif" font-size="13.00">Date: Jun 19 2015 &#45; 13:33</text>
<text text-anchor="start" x="1069.94" y="-470.6" font-family="Times,serif" font-size="13.00">Migration version: 20150603212943</text>
<text text-anchor="start" x="1069.94" y="-457.6" font-family="Times,serif" font-size="13.00">Generated by RailRoady 1.3.0</text>
<text text-anchor="start" x="1069.94" y="-444.6" font-family="Times,serif" font-size="13.00">http://railroady.prestonlee.com</text>
</g>
<!-- Brand -->
<g id="node2" class="node"><title>Brand</title>
<ellipse fill="none" stroke="black" cx="1318.63" cy="-474.5" rx="31.9393" ry="18"/>
<text text-anchor="middle" x="1318.63" y="-470.3" font-family="Times,serif" font-size="14.00">Brand</text>
</g>
<!-- ModelAcronym -->
<g id="node14" class="node"><title>ModelAcronym</title>
<ellipse fill="none" stroke="black" cx="1318.63" cy="-383" rx="66.6925" ry="18"/>
<text text-anchor="middle" x="1318.63" y="-378.8" font-family="Times,serif" font-size="14.00">ModelAcronym</text>
</g>
<!-- Brand&#45;&gt;ModelAcronym -->
<g id="edge1" class="edge"><title>Brand&#45;&gt;ModelAcronym</title>
<path fill="none" stroke="#4c3e51" d="M1318.63,-447.903C1318.63,-436.441 1318.63,-422.914 1318.63,-411.263"/>
<ellipse fill="none" stroke="#4c3e51" cx="1318.63" cy="-452.243" rx="4" ry="4"/>
<polygon fill="#4c3e51" stroke="#4c3e51" points="1318.63,-411.204 1323.13,-401.203 1318.63,-406.204 1318.63,-401.204 1318.63,-401.204 1318.63,-401.204 1318.63,-406.204 1314.13,-401.204 1318.63,-411.204 1318.63,-411.204"/>
</g>
<!-- CarType -->
<g id="node3" class="node"><title>CarType</title>
<ellipse fill="none" stroke="black" cx="1075.63" cy="-383" rx="40.3571" ry="18"/>
<text text-anchor="middle" x="1075.63" y="-378.8" font-family="Times,serif" font-size="14.00">CarType</text>
</g>
<!-- GenericCar -->
<g id="node6" class="node"><title>GenericCar</title>
<ellipse fill="none" stroke="black" cx="1318.63" cy="-310" rx="50.7224" ry="18"/>
<text text-anchor="middle" x="1318.63" y="-305.8" font-family="Times,serif" font-size="14.00">GenericCar</text>
</g>
<!-- CarType&#45;&gt;GenericCar -->
<g id="edge2" class="edge"><title>CarType&#45;&gt;GenericCar</title>
<path fill="none" stroke="#62786f" d="M1116.34,-370.103C1158.98,-357.645 1225.89,-338.095 1270.96,-324.926"/>
<ellipse fill="none" stroke="#62786f" cx="1112.24" cy="-371.303" rx="4.00001" ry="4.00001"/>
<polygon fill="#62786f" stroke="#62786f" points="1271.2,-324.858 1282.06,-326.373 1276,-323.456 1280.8,-322.054 1280.8,-322.054 1280.8,-322.054 1276,-323.456 1279.53,-317.734 1271.2,-324.858 1271.2,-324.858"/>
</g>
<!-- GenericFamily -->
<g id="node9" class="node"><title>GenericFamily</title>
<ellipse fill="none" stroke="black" cx="1075.63" cy="-237" rx="63.301" ry="18"/>
<text text-anchor="middle" x="1075.63" y="-232.8" font-family="Times,serif" font-size="14.00">GenericFamily</text>
</g>
<!-- CarType&#45;&gt;GenericFamily -->
<g id="edge4" class="edge"><title>CarType&#45;&gt;GenericFamily</title>
<path fill="none" stroke="#074c72" d="M1075.63,-354.546C1075.63,-328.878 1075.63,-290.767 1075.63,-265.185"/>
<polygon fill="#074c72" stroke="#074c72" points="1075.63,-354.916 1071.13,-364.916 1075.63,-359.916 1075.63,-364.916 1075.63,-364.916 1075.63,-364.916 1075.63,-359.916 1080.13,-364.916 1075.63,-354.916 1075.63,-354.916"/>
<polygon fill="#074c72" stroke="#074c72" points="1075.63,-265.062 1080.13,-255.062 1075.63,-260.062 1075.63,-255.062 1075.63,-255.062 1075.63,-255.062 1075.63,-260.062 1071.13,-255.062 1075.63,-265.062 1075.63,-265.062"/>
</g>
<!-- TypeLikelihood -->
<g id="node33" class="node"><title>TypeLikelihood</title>
<ellipse fill="none" stroke="black" cx="982.627" cy="-164" rx="66.4333" ry="18"/>
<text text-anchor="middle" x="982.627" y="-159.8" font-family="Times,serif" font-size="14.00">TypeLikelihood</text>
</g>
<!-- CarType&#45;&gt;TypeLikelihood -->
<g id="edge3" class="edge"><title>CarType&#45;&gt;TypeLikelihood</title>
<path fill="none" stroke="#c046f5" d="M1059.68,-358.678C1043.44,-333.947 1018.57,-293.246 1003.63,-255 995.622,-234.512 990.169,-210.157 986.829,-191.952"/>
<ellipse fill="none" stroke="#c046f5" cx="1062.01" cy="-362.185" rx="4.00002" ry="4.00002"/>
<polygon fill="#c046f5" stroke="#c046f5" points="986.816,-191.873 989.538,-181.25 985.96,-186.946 985.104,-182.02 985.104,-182.02 985.104,-182.02 985.96,-186.946 980.671,-182.79 986.816,-191.873 986.816,-191.873"/>
</g>
<!-- FamilyLikelihood -->
<g id="node4" class="node"><title>FamilyLikelihood</title>
<ellipse fill="none" stroke="black" cx="1363.63" cy="-164" rx="73.943" ry="18"/>
<text text-anchor="middle" x="1363.63" y="-159.8" font-family="Times,serif" font-size="14.00">FamilyLikelihood</text>
</g>
<!-- Generation -->
<g id="node5" class="node"><title>Generation</title>
<ellipse fill="none" stroke="black" cx="1589.63" cy="-383" rx="49.286" ry="18"/>
<text text-anchor="middle" x="1589.63" y="-378.8" font-family="Times,serif" font-size="14.00">Generation</text>
</g>
<!-- Generation&#45;&gt;GenericCar -->
<g id="edge6" class="edge"><title>Generation&#45;&gt;GenericCar</title>
<path fill="none" stroke="#45dfc4" d="M1541.09,-369.283C1492.22,-356.48 1417.22,-336.831 1368.04,-323.947"/>
<polygon fill="#45dfc4" stroke="#45dfc4" points="1541.13,-369.293 1549.66,-376.181 1545.96,-370.56 1550.8,-371.827 1550.8,-371.827 1550.8,-371.827 1545.96,-370.56 1551.94,-367.474 1541.13,-369.293 1541.13,-369.293"/>
<polygon fill="#45dfc4" stroke="#45dfc4" points="1367.94,-323.919 1359.4,-317.032 1363.1,-322.652 1358.26,-321.385 1358.26,-321.385 1358.26,-321.385 1363.1,-322.652 1357.12,-325.738 1367.94,-323.919 1367.94,-323.919"/>
</g>
<!-- GenericCarGeneration -->
<g id="node7" class="node"><title>GenericCarGeneration</title>
<ellipse fill="none" stroke="black" cx="1743.63" cy="-237" rx="90.2944" ry="18"/>
<text text-anchor="middle" x="1743.63" y="-232.8" font-family="Times,serif" font-size="14.00">GenericCarGeneration</text>
</g>
<!-- Generation&#45;&gt;GenericCarGeneration -->
<g id="edge5" class="edge"><title>Generation&#45;&gt;GenericCarGeneration</title>
<path fill="none" stroke="#4c2f17" d="M1612.91,-360.225C1641.23,-333.744 1688.87,-289.2 1718.15,-261.825"/>
<ellipse fill="none" stroke="#4c2f17" cx="1609.62" cy="-363.307" rx="4.00002" ry="4.00002"/>
<polygon fill="#4c2f17" stroke="#4c2f17" points="1718.23,-261.752 1728.6,-258.209 1721.88,-258.337 1725.53,-254.922 1725.53,-254.922 1725.53,-254.922 1721.88,-258.337 1722.46,-251.635 1718.23,-261.752 1718.23,-261.752"/>
</g>
<!-- GenericCar&#45;&gt;FamilyLikelihood -->
<g id="edge11" class="edge"><title>GenericCar&#45;&gt;FamilyLikelihood</title>
<path fill="none" stroke="#6f7c41" d="M1359.48,-292.48C1375.3,-283.828 1391.72,-271.527 1400.63,-255 1412.09,-233.72 1399.18,-208.112 1385.56,-189.662"/>
<ellipse fill="none" stroke="#6f7c41" cx="1355.84" cy="-294.364" rx="4.00002" ry="4.00002"/>
<polygon fill="#6f7c41" stroke="#6f7c41" points="1385.51,-189.597 1382.88,-178.952 1382.43,-185.663 1379.34,-181.729 1379.34,-181.729 1379.34,-181.729 1382.43,-185.663 1375.8,-184.507 1385.51,-189.597 1385.51,-189.597"/>
</g>
<!-- GenericCar&#45;&gt;GenericCarGeneration -->
<g id="edge9" class="edge"><title>GenericCar&#45;&gt;GenericCarGeneration</title>
<path fill="none" stroke="#62c7c2" d="M1377.04,-306.572C1441.87,-302.969 1549.28,-294.292 1639.63,-274 1658.5,-269.761 1678.72,-263.243 1696.26,-256.913"/>
<ellipse fill="none" stroke="#62c7c2" cx="1372.96" cy="-306.792" rx="4" ry="4"/>
<polygon fill="#62c7c2" stroke="#62c7c2" points="1696.32,-256.891 1707.26,-257.654 1701.01,-255.161 1705.7,-253.431 1705.7,-253.431 1705.7,-253.431 1701.01,-255.161 1704.14,-249.209 1696.32,-256.891 1696.32,-256.891"/>
</g>
<!-- GenericCarImage -->
<g id="node8" class="node"><title>GenericCarImage</title>
<ellipse fill="none" stroke="black" cx="1318.63" cy="-237" rx="72.9135" ry="18"/>
<text text-anchor="middle" x="1318.63" y="-232.8" font-family="Times,serif" font-size="14.00">GenericCarImage</text>
</g>
<!-- GenericCar&#45;&gt;GenericCarImage -->
<g id="edge10" class="edge"><title>GenericCar&#45;&gt;GenericCarImage</title>
<path fill="none" stroke="#2e9401" d="M1318.63,-283.791C1318.63,-277.832 1318.63,-271.45 1318.63,-265.399"/>
<ellipse fill="none" stroke="#2e9401" cx="1318.63" cy="-287.813" rx="4" ry="4"/>
<polygon fill="#2e9401" stroke="#2e9401" points="1318.63,-265.029 1323.13,-255.029 1318.63,-260.029 1318.63,-255.029 1318.63,-255.029 1318.63,-255.029 1318.63,-260.029 1314.13,-255.029 1318.63,-265.029 1318.63,-265.029"/>
</g>
<!-- GenericCar&#45;&gt;GenericFamily -->
<g id="edge12" class="edge"><title>GenericCar&#45;&gt;GenericFamily</title>
<path fill="none" stroke="#f93085" d="M1270.97,-295.074C1229.76,-283.035 1170.31,-265.665 1127.83,-253.254"/>
<polygon fill="#f93085" stroke="#f93085" points="1271.06,-295.102 1279.4,-302.226 1275.86,-296.504 1280.66,-297.906 1280.66,-297.906 1280.66,-297.906 1275.86,-296.504 1281.92,-293.587 1271.06,-295.102 1271.06,-295.102"/>
<polygon fill="#f93085" stroke="#f93085" points="1127.83,-253.253 1119.5,-246.129 1123.03,-251.851 1118.23,-250.449 1118.23,-250.449 1118.23,-250.449 1123.03,-251.851 1116.97,-254.768 1127.83,-253.253 1127.83,-253.253"/>
</g>
<!-- GenericFittable -->
<g id="node10" class="node"><title>GenericFittable</title>
<ellipse fill="none" stroke="black" cx="1515.63" cy="-91" rx="65.2217" ry="18"/>
<text text-anchor="middle" x="1515.63" y="-86.8" font-family="Times,serif" font-size="14.00">GenericFittable</text>
</g>
<!-- GenericCar&#45;&gt;GenericFittable -->
<g id="edge8" class="edge"><title>GenericCar&#45;&gt;GenericFittable</title>
<path fill="none" stroke="#251d1e" d="M1374.43,-302.757C1439.08,-294.559 1540.59,-278.404 1570.63,-255 1610.87,-223.645 1631.87,-190.335 1606.63,-146 1597.51,-129.986 1581.56,-118.231 1565.54,-109.855"/>
<ellipse fill="none" stroke="#251d1e" cx="1370.31" cy="-303.271" rx="4.00001" ry="4.00001"/>
<polygon fill="#251d1e" stroke="#251d1e" points="1565.15,-109.666 1558.11,-101.258 1560.65,-107.487 1556.15,-105.308 1556.15,-105.308 1556.15,-105.308 1560.65,-107.487 1554.19,-109.358 1565.15,-109.666 1565.15,-109.666"/>
</g>
<!-- StockCar -->
<g id="node24" class="node"><title>StockCar</title>
<ellipse fill="none" stroke="black" cx="832.627" cy="-237" rx="43.0387" ry="18"/>
<text text-anchor="middle" x="832.627" y="-232.8" font-family="Times,serif" font-size="14.00">StockCar</text>
</g>
<!-- GenericCar&#45;&gt;StockCar -->
<g id="edge7" class="edge"><title>GenericCar&#45;&gt;StockCar</title>
<path fill="none" stroke="#adae79" d="M1264.42,-301.08C1169.54,-287.219 974.728,-258.759 882.78,-245.327"/>
<ellipse fill="none" stroke="#adae79" cx="1268.51" cy="-301.678" rx="4.00001" ry="4.00001"/>
<polygon fill="#adae79" stroke="#adae79" points="882.515,-245.288 873.27,-239.39 877.567,-244.565 872.62,-243.842 872.62,-243.842 872.62,-243.842 877.567,-244.565 871.969,-248.295 882.515,-245.288 882.515,-245.288"/>
</g>
<!-- GenericFamily&#45;&gt;FamilyLikelihood -->
<g id="edge18" class="edge"><title>GenericFamily&#45;&gt;FamilyLikelihood</title>
<path fill="none" stroke="#81f264" d="M1129.81,-222.642C1179.32,-210.436 1252.41,-192.419 1303.66,-179.785"/>
<ellipse fill="none" stroke="#81f264" cx="1125.78" cy="-223.635" rx="4.00001" ry="4.00001"/>
<polygon fill="#81f264" stroke="#81f264" points="1303.89,-179.727 1314.68,-181.702 1308.75,-178.53 1313.6,-177.333 1313.6,-177.333 1313.6,-177.333 1308.75,-178.53 1312.52,-172.964 1303.89,-179.727 1303.89,-179.727"/>
</g>
<!-- GenericFamily&#45;&gt;GenericFamily -->
<g id="edge13" class="edge"><title>GenericFamily&#45;&gt;GenericFamily</title>
<path fill="none" stroke="#e8fdde" d="M1142.8,-242.878C1151.23,-241.841 1156.78,-239.882 1156.78,-237 1156.78,-234.38 1152.19,-232.522 1145.02,-231.428"/>
<ellipse fill="none" stroke="#e8fdde" cx="1138.7" cy="-243.219" rx="4" ry="4"/>
<polygon fill="#e8fdde" stroke="#e8fdde" points="1144.67,-231.394 1135.14,-225.97 1139.69,-230.922 1134.71,-230.449 1134.71,-230.449 1134.71,-230.449 1139.69,-230.922 1134.29,-234.929 1144.67,-231.394 1144.67,-231.394"/>
<text text-anchor="middle" x="1173.5" y="-232.8" font-family="Times,serif" font-size="14.00">childs</text>
</g>
<!-- GenericSpare -->
<g id="node11" class="node"><title>GenericSpare</title>
<ellipse fill="none" stroke="black" cx="1162.63" cy="-164" rx="58.4563" ry="18"/>
<text text-anchor="middle" x="1162.63" y="-159.8" font-family="Times,serif" font-size="14.00">GenericSpare</text>
</g>
<!-- GenericFamily&#45;&gt;GenericSpare -->
<g id="edge15" class="edge"><title>GenericFamily&#45;&gt;GenericSpare</title>
<path fill="none" stroke="#33dc20" d="M1103.46,-213.285C1113.61,-205.001 1125.08,-195.645 1135.19,-187.39"/>
<polygon fill="#33dc20" stroke="#33dc20" points="1103.12,-213.566 1092.52,-216.403 1099.24,-216.728 1095.37,-219.889 1095.37,-219.889 1095.37,-219.889 1099.24,-216.728 1098.21,-223.375 1103.12,-213.566 1103.12,-213.566"/>
<polygon fill="#33dc20" stroke="#33dc20" points="1135.22,-187.37 1145.81,-184.534 1139.09,-184.209 1142.96,-181.047 1142.96,-181.047 1142.96,-181.047 1139.09,-184.209 1140.12,-177.561 1135.22,-187.37 1135.22,-187.37"/>
</g>
<!-- SpareLikelihood -->
<g id="node23" class="node"><title>SpareLikelihood</title>
<ellipse fill="none" stroke="black" cx="1076.63" cy="-91" rx="69.0978" ry="18"/>
<text text-anchor="middle" x="1076.63" y="-86.8" font-family="Times,serif" font-size="14.00">SpareLikelihood</text>
</g>
<!-- GenericFamily&#45;&gt;SpareLikelihood -->
<g id="edge14" class="edge"><title>GenericFamily&#45;&gt;SpareLikelihood</title>
<path fill="none" stroke="#0734c6" d="M1075.8,-210.838C1075.98,-185.172 1076.26,-145.477 1076.44,-119.124"/>
<ellipse fill="none" stroke="#0734c6" cx="1075.77" cy="-214.916" rx="4" ry="4"/>
<polygon fill="#0734c6" stroke="#0734c6" points="1076.44,-119.062 1081.01,-109.093 1076.47,-114.062 1076.51,-109.062 1076.51,-109.062 1076.51,-109.062 1076.47,-114.062 1072.01,-109.031 1076.44,-119.062 1076.44,-119.062"/>
</g>
<!-- StockFamily -->
<g id="node26" class="node"><title>StockFamily</title>
<ellipse fill="none" stroke="black" cx="248.627" cy="-164" rx="55.118" ry="18"/>
<text text-anchor="middle" x="248.627" y="-159.8" font-family="Times,serif" font-size="14.00">StockFamily</text>
</g>
<!-- GenericFamily&#45;&gt;StockFamily -->
<g id="edge16" class="edge"><title>GenericFamily&#45;&gt;StockFamily</title>
<path fill="none" stroke="#bf457b" d="M1008.14,-229.926C971.589,-226.653 925.636,-222.566 884.627,-219 674.799,-200.754 425.963,-179.835 311.705,-170.27"/>
<ellipse fill="none" stroke="#bf457b" cx="1012.28" cy="-230.297" rx="4" ry="4"/>
<polygon fill="#bf457b" stroke="#bf457b" points="311.368,-170.242 301.778,-164.923 306.385,-169.825 301.402,-169.408 301.402,-169.408 301.402,-169.408 306.385,-169.825 301.027,-173.892 311.368,-170.242 311.368,-170.242"/>
</g>
<!-- GenericFamily&#45;&gt;TypeLikelihood -->
<g id="edge17" class="edge"><title>GenericFamily&#45;&gt;TypeLikelihood</title>
<path fill="none" stroke="#d4e40d" d="M1047.9,-214.736C1041.57,-209.889 1034.87,-204.763 1028.63,-200 1023.39,-196.004 1017.82,-191.757 1012.42,-187.65"/>
<ellipse fill="none" stroke="#d4e40d" cx="1051.41" cy="-217.424" rx="4.00002" ry="4.00002"/>
<polygon fill="#d4e40d" stroke="#d4e40d" points="1012.13,-187.423 1006.89,-177.786 1008.15,-184.395 1004.17,-181.367 1004.17,-181.367 1004.17,-181.367 1008.15,-184.395 1001.44,-184.948 1012.13,-187.423 1012.13,-187.423"/>
</g>
<!-- GenericSpare&#45;&gt;GenericCar -->
<g id="edge21" class="edge"><title>GenericSpare&#45;&gt;GenericCar</title>
<path fill="none" stroke="#207b18" d="M1180.05,-190.096C1194.03,-209.182 1214.85,-235.41 1236.63,-255 1250.93,-267.864 1268.56,-279.88 1283.8,-289.296"/>
<polygon fill="#207b18" stroke="#207b18" points="1179.98,-189.993 1177.78,-179.249 1177.06,-185.936 1174.13,-181.879 1174.13,-181.879 1174.13,-181.879 1177.06,-185.936 1170.48,-184.509 1179.98,-189.993 1179.98,-189.993"/>
<polygon fill="#207b18" stroke="#207b18" points="1283.9,-289.354 1290.13,-298.378 1288.17,-291.94 1292.45,-294.526 1292.45,-294.526 1292.45,-294.526 1288.17,-291.94 1294.78,-290.675 1283.9,-289.354 1283.9,-289.354"/>
</g>
<!-- GenericSpare&#45;&gt;GenericFittable -->
<g id="edge20" class="edge"><title>GenericSpare&#45;&gt;GenericFittable</title>
<path fill="none" stroke="#bef083" d="M1218.25,-151.813C1282.55,-138.88 1388.05,-117.661 1454.57,-104.281"/>
<ellipse fill="none" stroke="#bef083" cx="1214.16" cy="-152.636" rx="4.00001" ry="4.00001"/>
<polygon fill="#bef083" stroke="#bef083" points="1454.69,-104.257 1465.38,-106.696 1459.59,-103.271 1464.49,-102.285 1464.49,-102.285 1464.49,-102.285 1459.59,-103.271 1463.61,-97.8729 1454.69,-104.257 1454.69,-104.257"/>
</g>
<!-- GenericSpare&#45;&gt;GenericSpare -->
<g id="edge19" class="edge"><title>GenericSpare&#45;&gt;GenericSpare</title>
<path fill="none" stroke="#540263" d="M1225.29,-169.932C1233.45,-168.911 1238.86,-166.934 1238.86,-164 1238.86,-161.306 1234.3,-159.418 1227.24,-158.337"/>
<ellipse fill="none" stroke="#540263" cx="1221.09" cy="-170.276" rx="4" ry="4"/>
<polygon fill="#540263" stroke="#540263" points="1227.06,-158.32 1217.52,-152.918 1222.08,-157.86 1217.1,-157.399 1217.1,-157.399 1217.1,-157.399 1222.08,-157.86 1216.69,-161.88 1227.06,-158.32 1227.06,-158.32"/>
<text text-anchor="middle" x="1255.58" y="-159.8" font-family="Times,serif" font-size="14.00">childs</text>
</g>
<!-- GenericSpareImage -->
<g id="node12" class="node"><title>GenericSpareImage</title>
<ellipse fill="none" stroke="black" cx="1243.63" cy="-91" rx="80.1472" ry="18"/>
<text text-anchor="middle" x="1243.63" y="-86.8" font-family="Times,serif" font-size="14.00">GenericSpareImage</text>
</g>
<!-- GenericSpare&#45;&gt;GenericSpareImage -->
<g id="edge24" class="edge"><title>GenericSpare&#45;&gt;GenericSpareImage</title>
<path fill="none" stroke="#f3d2c2" d="M1187.09,-141.556C1196.53,-133.279 1207.36,-123.787 1217,-115.34"/>
<ellipse fill="none" stroke="#f3d2c2" cx="1184.02" cy="-144.252" rx="4.00002" ry="4.00002"/>
<polygon fill="#f3d2c2" stroke="#f3d2c2" points="1217.24,-115.132 1227.72,-111.924 1221,-111.836 1224.76,-108.54 1224.76,-108.54 1224.76,-108.54 1221,-111.836 1221.79,-105.156 1217.24,-115.132 1217.24,-115.132"/>
</g>
<!-- GenericSpare&#45;&gt;SpareLikelihood -->
<g id="edge22" class="edge"><title>GenericSpare&#45;&gt;SpareLikelihood</title>
<path fill="none" stroke="#f46f1d" d="M1145.82,-139.71C1142.07,-135.237 1137.92,-130.776 1133.63,-127 1127.93,-121.989 1121.44,-117.257 1114.91,-112.988"/>
<ellipse fill="none" stroke="#f46f1d" cx="1148.51" cy="-143.07" rx="4.00002" ry="4.00002"/>
<polygon fill="#f46f1d" stroke="#f46f1d" points="1114.56,-112.767 1108.46,-103.653 1110.32,-110.118 1106.08,-107.47 1106.08,-107.47 1106.08,-107.47 1110.32,-110.118 1103.69,-111.287 1114.56,-112.767 1114.56,-112.767"/>
</g>
<!-- StockSpare -->
<g id="node28" class="node"><title>StockSpare</title>
<ellipse fill="none" stroke="black" cx="720.627" cy="-91" rx="50.2723" ry="18"/>
<text text-anchor="middle" x="720.627" y="-86.8" font-family="Times,serif" font-size="14.00">StockSpare</text>
</g>
<!-- GenericSpare&#45;&gt;StockSpare -->
<g id="edge23" class="edge"><title>GenericSpare&#45;&gt;StockSpare</title>
<path fill="none" stroke="#2afa25" d="M1104.14,-153.514C1088.99,-151.061 1072.7,-148.428 1057.63,-146 958.37,-130.013 842.647,-111.496 775.886,-100.826"/>
<ellipse fill="none" stroke="#2afa25" cx="1108.48" cy="-154.216" rx="4.00001" ry="4.00001"/>
<polygon fill="#2afa25" stroke="#2afa25" points="775.477,-100.761 766.312,-94.7392 770.539,-99.9719 765.602,-99.1828 765.602,-99.1828 765.602,-99.1828 770.539,-99.9719 764.892,-103.626 775.477,-100.761 775.477,-100.761"/>
</g>
<!-- Insured -->
<g id="node13" class="node"><title>Insured</title>
<ellipse fill="none" stroke="black" cx="418.627" cy="-237" rx="36.7576" ry="18"/>
<text text-anchor="middle" x="418.627" y="-232.8" font-family="Times,serif" font-size="14.00">Insured</text>
</g>
<!-- ModelAcronym&#45;&gt;GenericCar -->
<g id="edge25" class="edge"><title>ModelAcronym&#45;&gt;GenericCar</title>
<path fill="none" stroke="#6b46df" d="M1318.63,-356.791C1318.63,-350.832 1318.63,-344.45 1318.63,-338.399"/>
<ellipse fill="none" stroke="#6b46df" cx="1318.63" cy="-360.813" rx="4" ry="4"/>
<polygon fill="#6b46df" stroke="#6b46df" points="1318.63,-338.029 1323.13,-328.029 1318.63,-333.029 1318.63,-328.029 1318.63,-328.029 1318.63,-328.029 1318.63,-333.029 1314.13,-328.029 1318.63,-338.029 1318.63,-338.029"/>
</g>
<!-- MoldComponent -->
<g id="node15" class="node"><title>MoldComponent</title>
<ellipse fill="none" stroke="black" cx="1526.63" cy="-164" rx="70.5772" ry="18"/>
<text text-anchor="middle" x="1526.63" y="-159.8" font-family="Times,serif" font-size="14.00">MoldComponent</text>
</g>
<!-- MoldSpare -->
<g id="node16" class="node"><title>MoldSpare</title>
<ellipse fill="none" stroke="black" cx="1512.63" cy="-237" rx="49.3119" ry="18"/>
<text text-anchor="middle" x="1512.63" y="-232.8" font-family="Times,serif" font-size="14.00">MoldSpare</text>
</g>
<!-- MoldSpare&#45;&gt;GenericSpare -->
<g id="edge26" class="edge"><title>MoldSpare&#45;&gt;GenericSpare</title>
<path fill="none" stroke="#0505ac" d="M1462.45,-225.821C1398.3,-212.809 1287.5,-190.332 1220.05,-176.649"/>
<ellipse fill="none" stroke="#0505ac" cx="1466.49" cy="-226.64" rx="4.00001" ry="4.00001"/>
<polygon fill="#0505ac" stroke="#0505ac" points="1219.82,-176.602 1210.92,-170.204 1214.92,-175.608 1210.02,-174.614 1210.02,-174.614 1210.02,-174.614 1214.92,-175.608 1209.13,-179.024 1219.82,-176.602 1219.82,-176.602"/>
</g>
<!-- MoldSpare&#45;&gt;MoldComponent -->
<g id="edge27" class="edge"><title>MoldSpare&#45;&gt;MoldComponent</title>
<path fill="none" stroke="#b06c03" d="M1517.6,-210.791C1518.8,-204.683 1520.09,-198.13 1521.31,-191.946"/>
<ellipse fill="none" stroke="#b06c03" cx="1516.79" cy="-214.888" rx="4.00001" ry="4.00001"/>
<polygon fill="#b06c03" stroke="#b06c03" points="1521.34,-191.84 1527.68,-182.899 1522.3,-186.934 1523.27,-182.029 1523.27,-182.029 1523.27,-182.029 1522.3,-186.934 1518.85,-181.158 1521.34,-191.84 1521.34,-191.84"/>
</g>
<!-- Order -->
<g id="node17" class="node"><title>Order</title>
<ellipse fill="none" stroke="black" cx="200.627" cy="-310" rx="30.9619" ry="18"/>
<text text-anchor="middle" x="200.627" y="-305.8" font-family="Times,serif" font-size="14.00">Order</text>
</g>
<!-- OrderSupplier -->
<g id="node18" class="node"><title>OrderSupplier</title>
<ellipse fill="none" stroke="black" cx="88.6275" cy="-164" rx="60.896" ry="18"/>
<text text-anchor="middle" x="88.6275" y="-159.8" font-family="Times,serif" font-size="14.00">OrderSupplier</text>
</g>
<!-- Order&#45;&gt;OrderSupplier -->
<g id="edge28" class="edge"><title>Order&#45;&gt;OrderSupplier</title>
<path fill="none" stroke="#d64f86" d="M177.825,-289.403C167.123,-279.628 154.567,-267.29 144.627,-255 128.292,-234.803 112.946,-209.517 102.464,-190.894"/>
<ellipse fill="none" stroke="#d64f86" cx="180.902" cy="-292.168" rx="4.00002" ry="4.00002"/>
<polygon fill="#d64f86" stroke="#d64f86" points="102.429,-190.831 101.524,-179.903 100.008,-186.457 97.5865,-182.082 97.5865,-182.082 97.5865,-182.082 100.008,-186.457 93.6494,-184.261 102.429,-190.831 102.429,-190.831"/>
</g>
<!-- Order&#45;&gt;StockFamily -->
<g id="edge29" class="edge"><title>Order&#45;&gt;StockFamily</title>
<path fill="none" stroke="#cd3894" d="M208.788,-284.519C217.355,-258.819 230.786,-218.523 239.649,-191.936"/>
<ellipse fill="none" stroke="#cd3894" cx="207.493" cy="-288.405" rx="4.00001" ry="4.00001"/>
<polygon fill="#cd3894" stroke="#cd3894" points="239.752,-191.627 247.183,-183.563 241.333,-186.883 242.914,-182.14 242.914,-182.14 242.914,-182.14 241.333,-186.883 238.645,-180.717 239.752,-191.627 239.752,-191.627"/>
</g>
<!-- Supplier -->
<g id="node31" class="node"><title>Supplier</title>
<ellipse fill="none" stroke="black" cx="57.6275" cy="-237" rx="40.149" ry="18"/>
<text text-anchor="middle" x="57.6275" y="-232.8" font-family="Times,serif" font-size="14.00">Supplier</text>
</g>
<!-- Order&#45;&gt;Supplier -->
<g id="edge30" class="edge"><title>Order&#45;&gt;Supplier</title>
<path fill="none" stroke="#253e8f" d="M164.463,-296.774C147.985,-290.701 128.446,-282.785 111.627,-274 102.973,-269.48 93.9902,-263.895 85.8929,-258.484"/>
<polygon fill="#253e8f" stroke="#253e8f" points="164.868,-296.919 172.752,-304.542 169.572,-298.614 174.277,-300.308 174.277,-300.308 174.277,-300.308 169.572,-298.614 175.801,-296.074 164.868,-296.919 164.868,-296.919"/>
<polygon fill="#253e8f" stroke="#253e8f" points="85.7601,-258.393 80.0557,-249.027 81.6358,-255.566 77.5116,-252.739 77.5116,-252.739 77.5116,-252.739 81.6358,-255.566 74.9675,-256.451 85.7601,-258.393 85.7601,-258.393"/>
</g>
<!-- Prevaluation -->
<g id="node19" class="node"><title>Prevaluation</title>
<ellipse fill="none" stroke="black" cx="614.627" cy="-310" rx="54.6076" ry="18"/>
<text text-anchor="middle" x="614.627" y="-305.8" font-family="Times,serif" font-size="14.00">Prevaluation</text>
</g>
<!-- Prevaluation&#45;&gt;Insured -->
<g id="edge32" class="edge"><title>Prevaluation&#45;&gt;Insured</title>
<path fill="none" stroke="#b1b396" d="M571.071,-293.429C541.115,-282.693 500.431,-268.06 464.627,-255 462.09,-254.075 459.476,-253.117 456.842,-252.151"/>
<ellipse fill="none" stroke="#b1b396" cx="575.068" cy="-294.861" rx="4.00001" ry="4.00001"/>
<polygon fill="#b1b396" stroke="#b1b396" points="456.708,-252.101 448.878,-244.424 452.016,-250.374 447.323,-248.647 447.323,-248.647 447.323,-248.647 452.016,-250.374 445.769,-252.871 456.708,-252.101 456.708,-252.101"/>
</g>
<!-- PrevaluationImage -->
<g id="node20" class="node"><title>PrevaluationImage</title>
<ellipse fill="none" stroke="black" cx="550.627" cy="-237" rx="76.7985" ry="18"/>
<text text-anchor="middle" x="550.627" y="-232.8" font-family="Times,serif" font-size="14.00">PrevaluationImage</text>
</g>
<!-- Prevaluation&#45;&gt;PrevaluationImage -->
<g id="edge34" class="edge"><title>Prevaluation&#45;&gt;PrevaluationImage</title>
<path fill="none" stroke="#7a965e" d="M594.27,-286.415C587.355,-278.745 579.602,-270.143 572.569,-262.342"/>
<ellipse fill="none" stroke="#7a965e" cx="597.106" cy="-289.562" rx="4.00002" ry="4.00002"/>
<polygon fill="#7a965e" stroke="#7a965e" points="572.531,-262.299 569.178,-251.858 569.183,-258.585 565.835,-254.871 565.835,-254.871 565.835,-254.871 569.183,-258.585 562.493,-257.884 572.531,-262.299 572.531,-262.299"/>
</g>
<!-- Prevaluation&#45;&gt;StockCar -->
<g id="edge31" class="edge"><title>Prevaluation&#45;&gt;StockCar</title>
<path fill="none" stroke="#dbe286" d="M659.904,-294.254C698.13,-281.804 752.469,-264.107 789.941,-251.902"/>
<ellipse fill="none" stroke="#dbe286" cx="655.906" cy="-295.556" rx="4.00001" ry="4.00001"/>
<polygon fill="#dbe286" stroke="#dbe286" points="790.051,-251.867 800.953,-253.049 794.805,-250.318 799.56,-248.77 799.56,-248.77 799.56,-248.77 794.805,-250.318 798.166,-244.491 790.051,-251.867 790.051,-251.867"/>
</g>
<!-- Valuation -->
<g id="node35" class="node"><title>Valuation</title>
<ellipse fill="none" stroke="black" cx="689.627" cy="-237" rx="43.9992" ry="18"/>
<text text-anchor="middle" x="689.627" y="-232.8" font-family="Times,serif" font-size="14.00">Valuation</text>
</g>
<!-- Prevaluation&#45;&gt;Valuation -->
<g id="edge33" class="edge"><title>Prevaluation&#45;&gt;Valuation</title>
<path fill="none" stroke="#476f39" d="M637.721,-287.138C647.056,-278.301 657.797,-268.133 667.077,-259.348"/>
<ellipse fill="none" stroke="#476f39" cx="634.551" cy="-290.139" rx="4.00002" ry="4.00002"/>
<ellipse fill="#476f39" stroke="#476f39" cx="670.03" cy="-256.553" rx="4.00002" ry="4.00002"/>
</g>
<!-- Price -->
<g id="node21" class="node"><title>Price</title>
<ellipse fill="none" stroke="black" cx="181.627" cy="-237" rx="28.0565" ry="18"/>
<text text-anchor="middle" x="181.627" y="-232.8" font-family="Times,serif" font-size="14.00">Price</text>
</g>
<!-- Price&#45;&gt;StockFamily -->
<g id="edge35" class="edge"><title>Price&#45;&gt;StockFamily</title>
<path fill="none" stroke="#9b5e13" d="M201.218,-215.24C209.477,-206.487 219.108,-196.282 227.523,-187.364"/>
<ellipse fill="none" stroke="#9b5e13" cx="198.255" cy="-218.38" rx="4.00002" ry="4.00002"/>
<ellipse fill="#9b5e13" stroke="#9b5e13" cx="230.378" cy="-184.339" rx="4.00002" ry="4.00002"/>
</g>
<!-- Section -->
<g id="node22" class="node"><title>Section</title>
<ellipse fill="none" stroke="black" cx="414.627" cy="-310" rx="36.7663" ry="18"/>
<text text-anchor="middle" x="414.627" y="-305.8" font-family="Times,serif" font-size="14.00">Section</text>
</g>
<!-- Subsection -->
<g id="node30" class="node"><title>Subsection</title>
<ellipse fill="none" stroke="black" cx="314.627" cy="-237" rx="48.8359" ry="18"/>
<text text-anchor="middle" x="314.627" y="-232.8" font-family="Times,serif" font-size="14.00">Subsection</text>
</g>
<!-- Section&#45;&gt;Subsection -->
<g id="edge36" class="edge"><title>Section&#45;&gt;Subsection</title>
<path fill="none" stroke="#e9ec89" d="M387.749,-289.916C374.375,-280.42 358.169,-268.915 344.417,-259.151"/>
<ellipse fill="none" stroke="#e9ec89" cx="391.129" cy="-292.316" rx="4.00002" ry="4.00002"/>
<polygon fill="#e9ec89" stroke="#e9ec89" points="344.372,-259.119 338.823,-249.66 340.295,-256.224 336.218,-253.329 336.218,-253.329 336.218,-253.329 340.295,-256.224 333.613,-256.999 344.372,-259.119 344.372,-259.119"/>
</g>
<!-- StockCarImage -->
<g id="node25" class="node"><title>StockCarImage</title>
<ellipse fill="none" stroke="black" cx="832.627" cy="-164" rx="65.2304" ry="18"/>
<text text-anchor="middle" x="832.627" y="-159.8" font-family="Times,serif" font-size="14.00">StockCarImage</text>
</g>
<!-- StockCar&#45;&gt;StockCarImage -->
<g id="edge37" class="edge"><title>StockCar&#45;&gt;StockCarImage</title>
<path fill="none" stroke="#0053a6" d="M832.627,-210.791C832.627,-204.832 832.627,-198.45 832.627,-192.399"/>
<ellipse fill="none" stroke="#0053a6" cx="832.628" cy="-214.813" rx="4" ry="4"/>
<polygon fill="#0053a6" stroke="#0053a6" points="832.628,-192.029 837.127,-182.029 832.628,-187.029 832.627,-182.029 832.627,-182.029 832.627,-182.029 832.628,-187.029 828.127,-182.029 832.628,-192.029 832.628,-192.029"/>
</g>
<!-- StockFamilyImage -->
<g id="node27" class="node"><title>StockFamilyImage</title>
<ellipse fill="none" stroke="black" cx="248.627" cy="-91" rx="77.3089" ry="18"/>
<text text-anchor="middle" x="248.627" y="-86.8" font-family="Times,serif" font-size="14.00">StockFamilyImage</text>
</g>
<!-- StockFamily&#45;&gt;StockFamilyImage -->
<g id="edge38" class="edge"><title>StockFamily&#45;&gt;StockFamilyImage</title>
<path fill="none" stroke="#72f3be" d="M248.627,-137.791C248.627,-131.832 248.627,-125.45 248.627,-119.399"/>
<ellipse fill="none" stroke="#72f3be" cx="248.628" cy="-141.813" rx="4" ry="4"/>
<polygon fill="#72f3be" stroke="#72f3be" points="248.628,-119.029 253.127,-109.029 248.628,-114.029 248.627,-109.029 248.627,-109.029 248.627,-109.029 248.628,-114.029 244.127,-109.029 248.628,-119.029 248.628,-119.029"/>
</g>
<!-- StockFamily&#45;&gt;StockSpare -->
<g id="edge39" class="edge"><title>StockFamily&#45;&gt;StockSpare</title>
<path fill="none" stroke="#184c7a" d="M305.854,-154.392C397.169,-140.656 574.715,-113.949 665.007,-100.367"/>
<ellipse fill="none" stroke="#184c7a" cx="301.76" cy="-155.008" rx="4.00001" ry="4.00001"/>
<polygon fill="#184c7a" stroke="#184c7a" points="665.159,-100.344 675.717,-103.306 670.103,-99.6001 675.048,-98.8563 675.048,-98.8563 675.048,-98.8563 670.103,-99.6001 674.378,-94.4063 665.159,-100.344 665.159,-100.344"/>
</g>
<!-- StockSpareImage -->
<g id="node29" class="node"><title>StockSpareImage</title>
<ellipse fill="none" stroke="black" cx="720.627" cy="-18" rx="72.4635" ry="18"/>
<text text-anchor="middle" x="720.627" y="-13.8" font-family="Times,serif" font-size="14.00">StockSpareImage</text>
</g>
<!-- StockSpare&#45;&gt;StockSpareImage -->
<g id="edge40" class="edge"><title>StockSpare&#45;&gt;StockSpareImage</title>
<path fill="none" stroke="#69dea9" d="M720.627,-64.791C720.627,-58.832 720.627,-52.4496 720.627,-46.3988"/>
<ellipse fill="none" stroke="#69dea9" cx="720.628" cy="-68.8129" rx="4" ry="4"/>
<polygon fill="#69dea9" stroke="#69dea9" points="720.628,-46.0288 725.127,-36.0288 720.628,-41.0288 720.627,-36.0288 720.627,-36.0288 720.627,-36.0288 720.628,-41.0288 716.127,-36.0289 720.628,-46.0288 720.628,-46.0288"/>
</g>
<!-- Subsection&#45;&gt;StockFamily -->
<g id="edge41" class="edge"><title>Subsection&#45;&gt;StockFamily</title>
<path fill="none" stroke="#9e2a3f" d="M293.82,-213.617C286.534,-205.778 278.325,-196.948 270.922,-188.984"/>
<ellipse fill="none" stroke="#9e2a3f" cx="296.596" cy="-216.603" rx="4.00002" ry="4.00002"/>
<polygon fill="#9e2a3f" stroke="#9e2a3f" points="270.661,-188.702 267.148,-178.314 267.256,-185.04 263.852,-181.378 263.852,-181.378 263.852,-181.378 267.256,-185.04 260.556,-184.442 270.661,-188.702 270.661,-188.702"/>
</g>
<!-- Subsection&#45;&gt;StockSpare -->
<g id="edge42" class="edge"><title>Subsection&#45;&gt;StockSpare</title>
<path fill="none" stroke="#af7453" d="M356.498,-221.15C433.709,-193.764 597.811,-135.56 676.606,-107.614"/>
<ellipse fill="none" stroke="#af7453" cx="352.314" cy="-222.633" rx="4.00001" ry="4.00001"/>
<polygon fill="#af7453" stroke="#af7453" points="676.81,-107.541 687.739,-108.44 681.522,-105.87 686.234,-104.199 686.234,-104.199 686.234,-104.199 681.522,-105.87 684.73,-99.9574 676.81,-107.541 676.81,-107.541"/>
</g>
<!-- Supplier&#45;&gt;OrderSupplier -->
<g id="edge44" class="edge"><title>Supplier&#45;&gt;OrderSupplier</title>
<path fill="none" stroke="#37085a" d="M68.2284,-211.721C71.076,-205.199 74.1694,-198.114 77.0663,-191.479"/>
<ellipse fill="none" stroke="#37085a" cx="66.5747" cy="-215.508" rx="4.00002" ry="4.00002"/>
<polygon fill="#37085a" stroke="#37085a" points="77.1168,-191.363 85.2424,-183.999 79.1176,-186.781 81.1183,-182.198 81.1183,-182.198 81.1183,-182.198 79.1176,-186.781 76.9943,-180.398 77.1168,-191.363 77.1168,-191.363"/>
</g>
<!-- Supplier&#45;&gt;StockFamily -->
<g id="edge43" class="edge"><title>Supplier&#45;&gt;StockFamily</title>
<path fill="none" stroke="#e87467" d="M94.9707,-222.119C126.227,-210.5 170.905,-193.891 204.035,-181.576"/>
<ellipse fill="none" stroke="#e87467" cx="91.2206" cy="-223.512" rx="4.00001" ry="4.00001"/>
<polygon fill="#e87467" stroke="#e87467" points="204.111,-181.548 215.052,-182.282 208.797,-179.806 213.484,-178.064 213.484,-178.064 213.484,-178.064 208.797,-179.806 211.916,-173.846 204.111,-181.548 204.111,-181.548"/>
</g>
<!-- SupplierType -->
<g id="node32" class="node"><title>SupplierType</title>
<ellipse fill="none" stroke="black" cx="57.6275" cy="-310" rx="57.7553" ry="18"/>
<text text-anchor="middle" x="57.6275" y="-305.8" font-family="Times,serif" font-size="14.00">SupplierType</text>
</g>
<!-- SupplierType&#45;&gt;Supplier -->
<g id="edge45" class="edge"><title>SupplierType&#45;&gt;Supplier</title>
<path fill="none" stroke="#63f701" d="M57.6275,-283.791C57.6275,-277.832 57.6275,-271.45 57.6275,-265.399"/>
<ellipse fill="none" stroke="#63f701" cx="57.6275" cy="-287.813" rx="4" ry="4"/>
<polygon fill="#63f701" stroke="#63f701" points="57.6276,-265.029 62.1275,-255.029 57.6275,-260.029 57.6275,-255.029 57.6275,-255.029 57.6275,-255.029 57.6275,-260.029 53.1275,-255.029 57.6276,-265.029 57.6276,-265.029"/>
</g>
<!-- User -->
<g id="node34" class="node"><title>User</title>
<ellipse fill="none" stroke="black" cx="1395.63" cy="-474.5" rx="27" ry="18"/>
<text text-anchor="middle" x="1395.63" y="-470.3" font-family="Times,serif" font-size="14.00">User</text>
</g>
<!-- Warehouse -->
<g id="node36" class="node"><title>Warehouse</title>
<ellipse fill="none" stroke="black" cx="689.627" cy="-383" rx="49.3546" ry="18"/>
<text text-anchor="middle" x="689.627" y="-378.8" font-family="Times,serif" font-size="14.00">Warehouse</text>
</g>
<!-- Warehouse&#45;&gt;Order -->
<g id="edge48" class="edge"><title>Warehouse&#45;&gt;Order</title>
<path fill="none" stroke="#328698" d="M636.407,-374.273C537.492,-359.911 327.45,-329.414 240.058,-316.725"/>
<ellipse fill="none" stroke="#328698" cx="640.542" cy="-374.873" rx="4.00001" ry="4.00001"/>
<polygon fill="#328698" stroke="#328698" points="239.921,-316.705 230.671,-310.815 234.973,-315.987 230.024,-315.268 230.024,-315.268 230.024,-315.268 234.973,-315.987 229.378,-319.722 239.921,-316.705 239.921,-316.705"/>
</g>
<!-- Warehouse&#45;&gt;Section -->
<g id="edge49" class="edge"><title>Warehouse&#45;&gt;Section</title>
<path fill="none" stroke="#3d985f" d="M642.523,-369.839C590.111,-356.307 506.232,-334.651 456.178,-321.728"/>
<ellipse fill="none" stroke="#3d985f" cx="646.646" cy="-370.903" rx="4.00001" ry="4.00001"/>
<polygon fill="#3d985f" stroke="#3d985f" points="456.019,-321.686 447.461,-314.829 451.177,-320.437 446.336,-319.187 446.336,-319.187 446.336,-319.187 451.177,-320.437 445.211,-323.544 456.019,-321.686 456.019,-321.686"/>
</g>
<!-- Warehouse&#45;&gt;StockCar -->
<g id="edge47" class="edge"><title>Warehouse&#45;&gt;StockCar</title>
<path fill="none" stroke="#6883ed" d="M736.792,-369.588C750.47,-364.296 764.657,-356.972 775.627,-347 800.24,-324.629 816.002,-289.132 824.573,-264.762"/>
<ellipse fill="none" stroke="#6883ed" cx="733.029" cy="-370.956" rx="4.00001" ry="4.00001"/>
<polygon fill="#6883ed" stroke="#6883ed" points="824.643,-264.555 832.079,-256.496 826.227,-259.812 827.811,-255.07 827.811,-255.07 827.811,-255.07 826.227,-259.812 823.543,-253.644 824.643,-264.555 824.643,-264.555"/>
</g>
<!-- Warehouse&#45;&gt;StockSpare -->
<g id="edge46" class="edge"><title>Warehouse&#45;&gt;StockSpare</title>
<path fill="none" stroke="#40fb17" d="M703.13,-357.819C716.198,-332.925 735.101,-292.577 742.627,-255 752.141,-207.502 739.385,-151.378 729.697,-118.917"/>
<ellipse fill="none" stroke="#40fb17" cx="701.165" cy="-361.499" rx="4.00002" ry="4.00002"/>
<polygon fill="#40fb17" stroke="#40fb17" points="729.66,-118.8 730.988,-107.914 728.176,-114.025 726.691,-109.25 726.691,-109.25 726.691,-109.25 728.176,-114.025 722.394,-110.587 729.66,-118.8 729.66,-118.8"/>
</g>
</g>
</svg>
