<?xml version="1.0" encoding="UTF-8" standalone="no"?>
<!DOCTYPE svg PUBLIC "-//W3C//DTD SVG 1.1//EN"
 "http://www.w3.org/Graphics/SVG/1.1/DTD/svg11.dtd">
<!-- Generated by graphviz version 2.36.0 (20140111.2315)
 -->
<!-- Title: models_diagram Pages: 1 -->
<svg width="1872pt" height="526pt"
 viewBox="0.00 0.00 1872.00 526.00" xmlns="http://www.w3.org/2000/svg" xmlns:xlink="http://www.w3.org/1999/xlink">
<g id="graph0" class="graph" transform="scale(1 1) rotate(0) translate(4 522)">
<title>models_diagram</title>
<polygon fill="white" stroke="none" points="-4,4 -4,-522 1868,-522 1868,4 -4,4"/>
<!-- _diagram_info -->
<g id="node1" class="node"><title>_diagram_info</title>
<text text-anchor="start" x="1008.31" y="-503.1" font-family="Times,serif" font-size="13.00">Models diagram</text>
<text text-anchor="start" x="1008.31" y="-490.1" font-family="Times,serif" font-size="13.00">Date: Jun 25 2015 &#45; 11:43</text>
<text text-anchor="start" x="1008.31" y="-477.1" font-family="Times,serif" font-size="13.00">Migration version: 20150622221529</text>
<text text-anchor="start" x="1008.31" y="-464.1" font-family="Times,serif" font-size="13.00">Generated by RailRoady 1.3.0</text>
<text text-anchor="start" x="1008.31" y="-451.1" font-family="Times,serif" font-size="13.00">http://railroady.prestonlee.com</text>
</g>
<!-- Brand -->
<g id="node2" class="node"><title>Brand</title>
<ellipse fill="none" stroke="black" cx="1257" cy="-481" rx="31.5774" ry="18"/>
<text text-anchor="middle" x="1257" y="-476.8" font-family="Times,serif" font-size="14.00">Brand</text>
</g>
<!-- ModelAcronym -->
<g id="node15" class="node"><title>ModelAcronym</title>
<ellipse fill="none" stroke="black" cx="1257" cy="-388" rx="66.394" ry="18"/>
<text text-anchor="middle" x="1257" y="-383.8" font-family="Times,serif" font-size="14.00">ModelAcronym</text>
</g>
<!-- Brand&#45;&gt;ModelAcronym -->
<g id="edge1" class="edge"><title>Brand&#45;&gt;ModelAcronym</title>
<path fill="none" stroke="#392534" d="M1257,-454.729C1257,-442.725 1257,-428.362 1257,-416.129"/>
<ellipse fill="none" stroke="#392534" cx="1257" cy="-458.884" rx="4" ry="4"/>
<polygon fill="#392534" stroke="#392534" points="1257,-416.04 1261.5,-406.04 1257,-411.04 1257,-406.04 1257,-406.04 1257,-406.04 1257,-411.04 1252.5,-406.04 1257,-416.04 1257,-416.04"/>
</g>
<!-- CarType -->
<g id="node3" class="node"><title>CarType</title>
<ellipse fill="none" stroke="black" cx="1497" cy="-388" rx="40.1433" ry="18"/>
<text text-anchor="middle" x="1497" y="-383.8" font-family="Times,serif" font-size="14.00">CarType</text>
</g>
<!-- GenericCar -->
<g id="node7" class="node"><title>GenericCar</title>
<ellipse fill="none" stroke="black" cx="1257" cy="-314" rx="50.2931" ry="18"/>
<text text-anchor="middle" x="1257" y="-309.8" font-family="Times,serif" font-size="14.00">GenericCar</text>
</g>
<!-- CarType&#45;&gt;GenericCar -->
<g id="edge2" class="edge"><title>CarType&#45;&gt;GenericCar</title>
<path fill="none" stroke="#a9c662" d="M1456.79,-374.936C1414.67,-362.302 1348.59,-342.477 1304.07,-329.122"/>
<ellipse fill="none" stroke="#a9c662" cx="1460.8" cy="-376.14" rx="4.00001" ry="4.00001"/>
<polygon fill="#a9c662" stroke="#a9c662" points="1303.94,-329.083 1295.66,-321.899 1299.15,-327.646 1294.36,-326.209 1294.36,-326.209 1294.36,-326.209 1299.15,-327.646 1293.07,-330.519 1303.94,-329.083 1303.94,-329.083"/>
</g>
<!-- GenericFamily -->
<g id="node10" class="node"><title>GenericFamily</title>
<ellipse fill="none" stroke="black" cx="1497" cy="-240" rx="63.2257" ry="18"/>
<text text-anchor="middle" x="1497" y="-235.8" font-family="Times,serif" font-size="14.00">GenericFamily</text>
</g>
<!-- CarType&#45;&gt;GenericFamily -->
<g id="edge4" class="edge"><title>CarType&#45;&gt;GenericFamily</title>
<path fill="none" stroke="#679368" d="M1497,-359.872C1497,-333.785 1497,-294.557 1497,-268.384"/>
<polygon fill="#679368" stroke="#679368" points="1497,-359.966 1492.5,-369.966 1497,-364.966 1497,-369.966 1497,-369.966 1497,-369.966 1497,-364.966 1501.5,-369.966 1497,-359.966 1497,-359.966"/>
<polygon fill="#679368" stroke="#679368" points="1497,-268.378 1501.5,-258.378 1497,-263.378 1497,-258.378 1497,-258.378 1497,-258.378 1497,-263.378 1492.5,-258.378 1497,-268.378 1497,-268.378"/>
</g>
<!-- TypeLikelihood -->
<g id="node36" class="node"><title>TypeLikelihood</title>
<ellipse fill="none" stroke="black" cx="1639" cy="-166" rx="66.2001" ry="18"/>
<text text-anchor="middle" x="1639" y="-161.8" font-family="Times,serif" font-size="14.00">TypeLikelihood</text>
</g>
<!-- CarType&#45;&gt;TypeLikelihood -->
<g id="edge3" class="edge"><title>CarType&#45;&gt;TypeLikelihood</title>
<path fill="none" stroke="#90c192" d="M1523.68,-366.734C1552.13,-343.621 1596.28,-303.143 1620,-258 1630.46,-238.081 1635.17,-212.869 1637.28,-194.036"/>
<ellipse fill="none" stroke="#90c192" cx="1520.29" cy="-369.452" rx="4.00002" ry="4.00002"/>
<polygon fill="#90c192" stroke="#90c192" points="1637.28,-193.995 1642.71,-184.464 1637.75,-189.017 1638.23,-184.039 1638.23,-184.039 1638.23,-184.039 1637.75,-189.017 1633.75,-183.615 1637.28,-193.995 1637.28,-193.995"/>
</g>
<!-- FamilyHistory -->
<g id="node4" class="node"><title>FamilyHistory</title>
<ellipse fill="none" stroke="black" cx="226" cy="-92" rx="61.5422" ry="18"/>
<text text-anchor="middle" x="226" y="-87.8" font-family="Times,serif" font-size="14.00">FamilyHistory</text>
</g>
<!-- FamilyLikelihood -->
<g id="node5" class="node"><title>FamilyLikelihood</title>
<ellipse fill="none" stroke="black" cx="1258" cy="-166" rx="73.4574" ry="18"/>
<text text-anchor="middle" x="1258" y="-161.8" font-family="Times,serif" font-size="14.00">FamilyLikelihood</text>
</g>
<!-- Generation -->
<g id="node6" class="node"><title>Generation</title>
<ellipse fill="none" stroke="black" cx="1084" cy="-388" rx="49.09" ry="18"/>
<text text-anchor="middle" x="1084" y="-383.8" font-family="Times,serif" font-size="14.00">Generation</text>
</g>
<!-- Generation&#45;&gt;GenericCar -->
<g id="edge6" class="edge"><title>Generation&#45;&gt;GenericCar</title>
<path fill="none" stroke="#86a39d" d="M1124.9,-369.98C1152.38,-358.542 1188.46,-343.524 1215.97,-332.074"/>
<polygon fill="#86a39d" stroke="#86a39d" points="1124.56,-370.119 1113.6,-369.807 1119.95,-372.04 1115.33,-373.961 1115.33,-373.961 1115.33,-373.961 1119.95,-372.04 1117.06,-378.116 1124.56,-370.119 1124.56,-370.119"/>
<polygon fill="#86a39d" stroke="#86a39d" points="1216.09,-332.027 1227.05,-332.34 1220.7,-330.106 1225.32,-328.185 1225.32,-328.185 1225.32,-328.185 1220.7,-330.106 1223.59,-324.03 1216.09,-332.027 1216.09,-332.027"/>
</g>
<!-- GenericCarGeneration -->
<g id="node8" class="node"><title>GenericCarGeneration</title>
<ellipse fill="none" stroke="black" cx="1038" cy="-240" rx="90.2208" ry="18"/>
<text text-anchor="middle" x="1038" y="-235.8" font-family="Times,serif" font-size="14.00">GenericCarGeneration</text>
</g>
<!-- Generation&#45;&gt;GenericCarGeneration -->
<g id="edge5" class="edge"><title>Generation&#45;&gt;GenericCarGeneration</title>
<path fill="none" stroke="#375af5" d="M1076.18,-362.179C1067.93,-336.006 1054.98,-294.905 1046.49,-267.954"/>
<ellipse fill="none" stroke="#375af5" cx="1077.43" cy="-366.151" rx="4.00001" ry="4.00001"/>
<polygon fill="#375af5" stroke="#375af5" points="1046.48,-267.916 1047.77,-257.026 1044.98,-263.147 1043.48,-258.378 1043.48,-258.378 1043.48,-258.378 1044.98,-263.147 1039.18,-259.73 1046.48,-267.916 1046.48,-267.916"/>
</g>
<!-- GenericCar&#45;&gt;FamilyLikelihood -->
<g id="edge11" class="edge"><title>GenericCar&#45;&gt;FamilyLikelihood</title>
<path fill="none" stroke="#abc563" d="M1296.65,-296.308C1312.51,-287.423 1329.1,-274.803 1338,-258 1345.49,-243.861 1345.45,-236.16 1338,-222 1330.2,-207.177 1316.4,-195.574 1302.44,-186.925"/>
<ellipse fill="none" stroke="#abc563" cx="1292.98" cy="-298.254" rx="4.00002" ry="4.00002"/>
<polygon fill="#abc563" stroke="#abc563" points="1302.43,-186.921 1296.02,-178.023 1298.1,-184.42 1293.77,-181.919 1293.77,-181.919 1293.77,-181.919 1298.1,-184.42 1291.52,-185.816 1302.43,-186.921 1302.43,-186.921"/>
</g>
<!-- GenericCar&#45;&gt;GenericCarGeneration -->
<g id="edge9" class="edge"><title>GenericCar&#45;&gt;GenericCarGeneration</title>
<path fill="none" stroke="#e8fb86" d="M1211.42,-299.657C1190.24,-293.322 1164.76,-285.507 1142,-278 1124.66,-272.279 1105.81,-265.69 1088.99,-259.672"/>
<ellipse fill="none" stroke="#e8fb86" cx="1215.48" cy="-300.867" rx="4.00001" ry="4.00001"/>
<polygon fill="#e8fb86" stroke="#e8fb86" points="1088.76,-259.588 1080.87,-251.971 1084.05,-257.897 1079.35,-256.206 1079.35,-256.206 1079.35,-256.206 1084.05,-257.897 1077.82,-260.441 1088.76,-259.588 1088.76,-259.588"/>
</g>
<!-- GenericCarImage -->
<g id="node9" class="node"><title>GenericCarImage</title>
<ellipse fill="none" stroke="black" cx="1257" cy="-240" rx="72.4354" ry="18"/>
<text text-anchor="middle" x="1257" y="-235.8" font-family="Times,serif" font-size="14.00">GenericCarImage</text>
</g>
<!-- GenericCar&#45;&gt;GenericCarImage -->
<g id="edge10" class="edge"><title>GenericCar&#45;&gt;GenericCarImage</title>
<path fill="none" stroke="#9e160f" d="M1257,-287.792C1257,-281.58 1257,-274.896 1257,-268.579"/>
<ellipse fill="none" stroke="#9e160f" cx="1257" cy="-291.937" rx="4" ry="4"/>
<polygon fill="#9e160f" stroke="#9e160f" points="1257,-268.441 1261.5,-258.441 1257,-263.441 1257,-258.441 1257,-258.441 1257,-258.441 1257,-263.441 1252.5,-258.441 1257,-268.441 1257,-268.441"/>
</g>
<!-- GenericCar&#45;&gt;GenericFamily -->
<g id="edge12" class="edge"><title>GenericCar&#45;&gt;GenericFamily</title>
<path fill="none" stroke="#961b1d" d="M1312.79,-304.393C1344.69,-298.64 1385.16,-289.923 1420,-278 1433.42,-273.408 1447.56,-267.084 1460,-260.963"/>
<polygon fill="#961b1d" stroke="#961b1d" points="1312.6,-304.426 1301.97,-301.724 1307.68,-305.291 1302.75,-306.156 1302.75,-306.156 1302.75,-306.156 1307.68,-305.291 1303.53,-310.588 1312.6,-304.426 1312.6,-304.426"/>
<polygon fill="#961b1d" stroke="#961b1d" points="1460.22,-260.853 1471.18,-260.372 1464.69,-258.603 1469.15,-256.353 1469.15,-256.353 1469.15,-256.353 1464.69,-258.603 1467.13,-252.334 1460.22,-260.853 1460.22,-260.853"/>
</g>
<!-- GenericFittable -->
<g id="node11" class="node"><title>GenericFittable</title>
<ellipse fill="none" stroke="black" cx="1186" cy="-92" rx="65.1662" ry="18"/>
<text text-anchor="middle" x="1186" y="-87.8" font-family="Times,serif" font-size="14.00">GenericFittable</text>
</g>
<!-- GenericCar&#45;&gt;GenericFittable -->
<g id="edge8" class="edge"><title>GenericCar&#45;&gt;GenericFittable</title>
<path fill="none" stroke="#12bd2c" d="M1216.87,-296.419C1200.82,-287.555 1184.02,-274.92 1175,-258 1151.61,-214.153 1164.88,-154.166 1175.93,-119.911"/>
<ellipse fill="none" stroke="#12bd2c" cx="1220.62" cy="-298.376" rx="4.00002" ry="4.00002"/>
<polygon fill="#12bd2c" stroke="#12bd2c" points="1176.03,-119.622 1183.5,-111.6 1177.63,-114.887 1179.24,-110.153 1179.24,-110.153 1179.24,-110.153 1177.63,-114.887 1174.98,-108.706 1176.03,-119.622 1176.03,-119.622"/>
</g>
<!-- StockCar -->
<g id="node26" class="node"><title>StockCar</title>
<ellipse fill="none" stroke="black" cx="887" cy="-240" rx="43.0291" ry="18"/>
<text text-anchor="middle" x="887" y="-235.8" font-family="Times,serif" font-size="14.00">StockCar</text>
</g>
<!-- GenericCar&#45;&gt;StockCar -->
<g id="edge7" class="edge"><title>GenericCar&#45;&gt;StockCar</title>
<path fill="none" stroke="#e2c23d" d="M1202.28,-305.992C1138.52,-297.261 1030.25,-280.681 939,-258 935.626,-257.161 932.153,-256.215 928.679,-255.208"/>
<ellipse fill="none" stroke="#e2c23d" cx="1206.25" cy="-306.531" rx="4.00001" ry="4.00001"/>
<polygon fill="#e2c23d" stroke="#e2c23d" points="928.533,-255.164 920.276,-247.949 923.75,-253.709 918.966,-252.254 918.966,-252.254 918.966,-252.254 923.75,-253.709 917.656,-256.559 928.533,-255.164 928.533,-255.164"/>
</g>
<!-- GenericFamily&#45;&gt;FamilyLikelihood -->
<g id="edge18" class="edge"><title>GenericFamily&#45;&gt;FamilyLikelihood</title>
<path fill="none" stroke="#1daaf8" d="M1453.42,-221.922C1435.74,-215.286 1415.03,-207.882 1396,-202 1371.31,-194.368 1343.76,-187.132 1319.82,-181.241"/>
<ellipse fill="none" stroke="#1daaf8" cx="1457.57" cy="-223.493" rx="4.00001" ry="4.00001"/>
<polygon fill="#1daaf8" stroke="#1daaf8" points="1319.51,-181.166 1310.86,-174.429 1314.65,-179.984 1309.79,-178.801 1309.79,-178.801 1309.79,-178.801 1314.65,-179.984 1308.73,-183.174 1319.51,-181.166 1319.51,-181.166"/>
</g>
<!-- GenericFamily&#45;&gt;GenericFamily -->
<g id="edge13" class="edge"><title>GenericFamily&#45;&gt;GenericFamily</title>
<path fill="none" stroke="#df3e73" d="M1564.05,-245.878C1572.46,-244.841 1578,-242.882 1578,-240 1578,-237.38 1573.42,-235.522 1566.27,-234.428"/>
<ellipse fill="none" stroke="#df3e73" cx="1559.96" cy="-246.218" rx="4" ry="4"/>
<polygon fill="#df3e73" stroke="#df3e73" points="1565.93,-234.396 1556.4,-228.97 1560.95,-233.923 1555.98,-233.449 1555.98,-233.449 1555.98,-233.449 1560.95,-233.923 1555.55,-237.929 1565.93,-234.396 1565.93,-234.396"/>
<text text-anchor="middle" x="1594.72" y="-235.8" font-family="Times,serif" font-size="14.00">childs</text>
</g>
<!-- GenericSpare -->
<g id="node12" class="node"><title>GenericSpare</title>
<ellipse fill="none" stroke="black" cx="1408" cy="-166" rx="58.342" ry="18"/>
<text text-anchor="middle" x="1408" y="-161.8" font-family="Times,serif" font-size="14.00">GenericSpare</text>
</g>
<!-- GenericFamily&#45;&gt;GenericSpare -->
<g id="edge15" class="edge"><title>GenericFamily&#45;&gt;GenericSpare</title>
<path fill="none" stroke="#b84331" d="M1471.67,-215.401C1466.57,-210.856 1461.18,-206.205 1456,-202 1450.62,-197.632 1444.76,-193.145 1439.04,-188.904"/>
<polygon fill="#b84331" stroke="#b84331" points="1471.97,-215.672 1476.38,-225.715 1475.68,-219.024 1479.39,-222.377 1479.39,-222.377 1479.39,-222.377 1475.68,-219.024 1482.41,-219.038 1471.97,-215.672 1471.97,-215.672"/>
<polygon fill="#b84331" stroke="#b84331" points="1438.91,-188.807 1433.49,-179.274 1434.87,-185.857 1430.83,-182.907 1430.83,-182.907 1430.83,-182.907 1434.87,-185.857 1428.18,-186.541 1438.91,-188.807 1438.91,-188.807"/>
</g>
<!-- SpareLikelihood -->
<g id="node25" class="node"><title>SpareLikelihood</title>
<ellipse fill="none" stroke="black" cx="1545" cy="-92" rx="69.0733" ry="18"/>
<text text-anchor="middle" x="1545" y="-87.8" font-family="Times,serif" font-size="14.00">SpareLikelihood</text>
</g>
<!-- GenericFamily&#45;&gt;SpareLikelihood -->
<g id="edge14" class="edge"><title>GenericFamily&#45;&gt;SpareLikelihood</title>
<path fill="none" stroke="#2826d4" d="M1511.49,-215.07C1516.68,-205.654 1522.19,-194.579 1526,-184 1533.49,-163.182 1538.41,-138.563 1541.36,-120.185"/>
<ellipse fill="none" stroke="#2826d4" cx="1509.4" cy="-218.747" rx="4.00002" ry="4.00002"/>
<polygon fill="#2826d4" stroke="#2826d4" points="1541.38,-120.049 1547.33,-110.834 1542.13,-115.106 1542.88,-110.162 1542.88,-110.162 1542.88,-110.162 1542.13,-115.106 1538.43,-109.489 1541.38,-120.049 1541.38,-120.049"/>
</g>
<!-- StockFamily -->
<g id="node28" class="node"><title>StockFamily</title>
<ellipse fill="none" stroke="black" cx="304" cy="-166" rx="54.9642" ry="18"/>
<text text-anchor="middle" x="304" y="-161.8" font-family="Times,serif" font-size="14.00">StockFamily</text>
</g>
<!-- GenericFamily&#45;&gt;StockFamily -->
<g id="edge16" class="edge"><title>GenericFamily&#45;&gt;StockFamily</title>
<path fill="none" stroke="#b770fe" d="M1432.07,-231.266C1403.28,-228.042 1368.99,-224.479 1338,-222 972.186,-192.736 532.276,-175.17 369.065,-169.254"/>
<ellipse fill="none" stroke="#b770fe" cx="1436.06" cy="-231.716" rx="4.00001" ry="4.00001"/>
<polygon fill="#b770fe" stroke="#b770fe" points="368.712,-169.241 358.88,-164.384 363.715,-169.061 358.718,-168.881 358.718,-168.881 358.718,-168.881 363.715,-169.061 358.556,-173.378 368.712,-169.241 368.712,-169.241"/>
</g>
<!-- GenericFamily&#45;&gt;TypeLikelihood -->
<g id="edge17" class="edge"><title>GenericFamily&#45;&gt;TypeLikelihood</title>
<path fill="none" stroke="#cc2cfa" d="M1534.08,-220.199C1554.25,-209.971 1579.2,-197.322 1599.71,-186.924"/>
<ellipse fill="none" stroke="#cc2cfa" cx="1530.34" cy="-222.097" rx="4.00002" ry="4.00002"/>
<polygon fill="#cc2cfa" stroke="#cc2cfa" points="1599.86,-186.844 1610.82,-186.335 1604.32,-184.583 1608.78,-182.322 1608.78,-182.322 1608.78,-182.322 1604.32,-184.583 1606.75,-178.308 1599.86,-186.844 1599.86,-186.844"/>
</g>
<!-- GenericSpare&#45;&gt;GenericCar -->
<g id="edge21" class="edge"><title>GenericSpare&#45;&gt;GenericCar</title>
<path fill="none" stroke="#94944d" d="M1397.99,-193.496C1387.05,-218.896 1367.1,-256.464 1338,-278 1327.41,-285.838 1314.79,-292.359 1302.7,-297.565"/>
<polygon fill="#94944d" stroke="#94944d" points="1398.06,-193.334 1406.03,-185.807 1399.96,-188.712 1401.87,-184.09 1401.87,-184.09 1401.87,-184.09 1399.96,-188.712 1397.71,-182.373 1398.06,-193.334 1398.06,-193.334"/>
<polygon fill="#94944d" stroke="#94944d" points="1302.43,-297.676 1291.47,-297.292 1297.8,-299.567 1293.17,-301.457 1293.17,-301.457 1293.17,-301.457 1297.8,-299.567 1294.88,-305.623 1302.43,-297.676 1302.43,-297.676"/>
</g>
<!-- GenericSpare&#45;&gt;GenericFittable -->
<g id="edge20" class="edge"><title>GenericSpare&#45;&gt;GenericFittable</title>
<path fill="none" stroke="#aedb68" d="M1361.58,-149.945C1324.92,-138.054 1273.83,-121.487 1236.22,-109.287"/>
<ellipse fill="none" stroke="#aedb68" cx="1365.53" cy="-151.225" rx="4.00001" ry="4.00001"/>
<polygon fill="#aedb68" stroke="#aedb68" points="1235.99,-109.213 1227.86,-101.847 1231.23,-107.67 1226.48,-106.127 1226.48,-106.127 1226.48,-106.127 1231.23,-107.67 1225.09,-110.408 1235.99,-109.213 1235.99,-109.213"/>
</g>
<!-- GenericSpare&#45;&gt;GenericSpare -->
<g id="edge19" class="edge"><title>GenericSpare&#45;&gt;GenericSpare</title>
<path fill="none" stroke="#e508d0" d="M1470.48,-171.932C1478.62,-170.911 1484,-168.934 1484,-166 1484,-163.306 1479.46,-161.418 1472.42,-160.337"/>
<ellipse fill="none" stroke="#e508d0" cx="1466.3" cy="-172.275" rx="4" ry="4"/>
<polygon fill="#e508d0" stroke="#e508d0" points="1472.27,-160.323 1462.73,-154.918 1467.29,-159.861 1462.31,-159.399 1462.31,-159.399 1462.31,-159.399 1467.29,-159.861 1461.89,-163.879 1472.27,-160.323 1472.27,-160.323"/>
<text text-anchor="middle" x="1500.72" y="-161.8" font-family="Times,serif" font-size="14.00">childs</text>
</g>
<!-- GenericSpareImage -->
<g id="node13" class="node"><title>GenericSpareImage</title>
<ellipse fill="none" stroke="black" cx="1378" cy="-92" rx="79.9859" ry="18"/>
<text text-anchor="middle" x="1378" y="-87.8" font-family="Times,serif" font-size="14.00">GenericSpareImage</text>
</g>
<!-- GenericSpare&#45;&gt;GenericSpareImage -->
<g id="edge24" class="edge"><title>GenericSpare&#45;&gt;GenericSpareImage</title>
<path fill="none" stroke="#5b8e4e" d="M1397.69,-140.262C1394.89,-133.545 1391.85,-126.245 1389.02,-119.438"/>
<ellipse fill="none" stroke="#5b8e4e" cx="1399.35" cy="-144.245" rx="4.00001" ry="4.00001"/>
<polygon fill="#5b8e4e" stroke="#5b8e4e" points="1388.9,-119.171 1389.21,-108.21 1386.98,-114.556 1385.06,-109.941 1385.06,-109.941 1385.06,-109.941 1386.98,-114.556 1380.9,-111.671 1388.9,-119.171 1388.9,-119.171"/>
</g>
<!-- GenericSpare&#45;&gt;SpareLikelihood -->
<g id="edge22" class="edge"><title>GenericSpare&#45;&gt;SpareLikelihood</title>
<path fill="none" stroke="#97d1d8" d="M1443.73,-146.223C1463.07,-136.061 1486.96,-123.503 1506.68,-113.137"/>
<ellipse fill="none" stroke="#97d1d8" cx="1439.93" cy="-148.221" rx="4.00002" ry="4.00002"/>
<polygon fill="#97d1d8" stroke="#97d1d8" points="1506.85,-113.048 1517.8,-112.38 1511.28,-110.722 1515.7,-108.396 1515.7,-108.396 1515.7,-108.396 1511.28,-110.722 1513.61,-104.413 1506.85,-113.048 1506.85,-113.048"/>
</g>
<!-- StockSpare -->
<g id="node30" class="node"><title>StockSpare</title>
<ellipse fill="none" stroke="black" cx="731" cy="-92" rx="50.0798" ry="18"/>
<text text-anchor="middle" x="731" y="-87.8" font-family="Times,serif" font-size="14.00">StockSpare</text>
</g>
<!-- GenericSpare&#45;&gt;StockSpare -->
<g id="edge23" class="edge"><title>GenericSpare&#45;&gt;StockSpare</title>
<path fill="none" stroke="#6de4e1" d="M1357.98,-151.565C1351.95,-150.221 1345.86,-148.99 1340,-148 1140.49,-114.261 900.475,-100.274 790.865,-95.3287"/>
<ellipse fill="none" stroke="#6de4e1" cx="1362.24" cy="-152.551" rx="4.00001" ry="4.00001"/>
<polygon fill="#6de4e1" stroke="#6de4e1" points="790.661,-95.3198 780.87,-90.3825 785.666,-95.0989 780.671,-94.8781 780.671,-94.8781 780.671,-94.8781 785.666,-95.0989 780.472,-99.3737 790.661,-95.3198 790.661,-95.3198"/>
</g>
<!-- Insured -->
<g id="node14" class="node"><title>Insured</title>
<ellipse fill="none" stroke="black" cx="751" cy="-240" rx="36.4422" ry="18"/>
<text text-anchor="middle" x="751" y="-235.8" font-family="Times,serif" font-size="14.00">Insured</text>
</g>
<!-- ModelAcronym&#45;&gt;GenericCar -->
<g id="edge25" class="edge"><title>ModelAcronym&#45;&gt;GenericCar</title>
<path fill="none" stroke="#237714" d="M1257,-361.792C1257,-355.58 1257,-348.896 1257,-342.579"/>
<ellipse fill="none" stroke="#237714" cx="1257" cy="-365.937" rx="4" ry="4"/>
<polygon fill="#237714" stroke="#237714" points="1257,-342.441 1261.5,-332.441 1257,-337.441 1257,-332.441 1257,-332.441 1257,-332.441 1257,-337.441 1252.5,-332.441 1257,-342.441 1257,-342.441"/>
</g>
<!-- MoldComponent -->
<g id="node16" class="node"><title>MoldComponent</title>
<ellipse fill="none" stroke="black" cx="1794" cy="-166" rx="70.3078" ry="18"/>
<text text-anchor="middle" x="1794" y="-161.8" font-family="Times,serif" font-size="14.00">MoldComponent</text>
</g>
<!-- MoldSpare -->
<g id="node17" class="node"><title>MoldSpare</title>
<ellipse fill="none" stroke="black" cx="1756" cy="-240" rx="49.1093" ry="18"/>
<text text-anchor="middle" x="1756" y="-235.8" font-family="Times,serif" font-size="14.00">MoldSpare</text>
</g>
<!-- MoldSpare&#45;&gt;GenericSpare -->
<g id="edge26" class="edge"><title>MoldSpare&#45;&gt;GenericSpare</title>
<path fill="none" stroke="#b07be2" d="M1706.46,-228.749C1642.68,-215.554 1532.1,-192.677 1464.94,-178.78"/>
<ellipse fill="none" stroke="#b07be2" cx="1710.45" cy="-229.576" rx="4.00001" ry="4.00001"/>
<polygon fill="#b07be2" stroke="#b07be2" points="1464.74,-178.739 1455.86,-172.306 1459.84,-177.726 1454.95,-176.713 1454.95,-176.713 1454.95,-176.713 1459.84,-177.726 1454.03,-181.12 1464.74,-178.739 1464.74,-178.739"/>
</g>
<!-- MoldSpare&#45;&gt;MoldComponent -->
<g id="edge27" class="edge"><title>MoldSpare&#45;&gt;MoldComponent</title>
<path fill="none" stroke="#f53b19" d="M1768.74,-214.855C1772.42,-207.882 1776.46,-200.24 1780.2,-193.151"/>
<ellipse fill="none" stroke="#f53b19" cx="1766.87" cy="-218.399" rx="4.00002" ry="4.00002"/>
<polygon fill="#f53b19" stroke="#f53b19" points="1780.39,-192.784 1789.04,-186.041 1782.73,-188.362 1785.06,-183.941 1785.06,-183.941 1785.06,-183.941 1782.73,-188.362 1781.08,-181.84 1780.39,-192.784 1780.39,-192.784"/>
</g>
<!-- Order -->
<g id="node18" class="node"><title>Order</title>
<ellipse fill="none" stroke="black" cx="206" cy="-314" rx="30.5941" ry="18"/>
<text text-anchor="middle" x="206" y="-309.8" font-family="Times,serif" font-size="14.00">Order</text>
</g>
<!-- OrderSupplier -->
<g id="node19" class="node"><title>OrderSupplier</title>
<ellipse fill="none" stroke="black" cx="99" cy="-166" rx="60.546" ry="18"/>
<text text-anchor="middle" x="99" y="-161.8" font-family="Times,serif" font-size="14.00">OrderSupplier</text>
</g>
<!-- Order&#45;&gt;OrderSupplier -->
<g id="edge28" class="edge"><title>Order&#45;&gt;OrderSupplier</title>
<path fill="none" stroke="#499cdc" d="M169.831,-304.312C145.846,-296.487 116.104,-282.354 101,-258 89.2643,-239.077 89.8417,-213.416 92.733,-194.167"/>
<ellipse fill="none" stroke="#499cdc" cx="173.891" cy="-305.557" rx="4.00001" ry="4.00001"/>
<polygon fill="#499cdc" stroke="#499cdc" points="92.7521,-194.06 98.9434,-185.009 93.6329,-189.138 94.5138,-184.217 94.5138,-184.217 94.5138,-184.217 93.6329,-189.138 90.0842,-183.424 92.7521,-194.06 92.7521,-194.06"/>
</g>
<!-- Order&#45;&gt;StockFamily -->
<g id="edge29" class="edge"><title>Order&#45;&gt;StockFamily</title>
<path fill="none" stroke="#db214f" d="M210.614,-287.919C215.05,-268.618 223.173,-241.958 237,-222 246.052,-208.934 259.041,-197.287 271.176,-188.112"/>
<ellipse fill="none" stroke="#db214f" cx="209.723" cy="-292.049" rx="4.00001" ry="4.00001"/>
<polygon fill="#db214f" stroke="#db214f" points="271.283,-188.034 282.022,-185.813 275.333,-185.101 279.382,-182.168 279.382,-182.168 279.382,-182.168 275.333,-185.101 276.742,-178.524 271.283,-188.034 271.283,-188.034"/>
</g>
<!-- Supplier -->
<g id="node33" class="node"><title>Supplier</title>
<ellipse fill="none" stroke="black" cx="150" cy="-240" rx="40.1117" ry="18"/>
<text text-anchor="middle" x="150" y="-235.8" font-family="Times,serif" font-size="14.00">Supplier</text>
</g>
<!-- Order&#45;&gt;Supplier -->
<g id="edge30" class="edge"><title>Order&#45;&gt;Supplier</title>
<path fill="none" stroke="#d98d7f" d="M187.635,-289.388C181.644,-281.685 174.983,-273.12 168.949,-265.363"/>
<polygon fill="#d98d7f" stroke="#d98d7f" points="187.709,-289.484 190.297,-300.14 190.779,-293.43 193.849,-297.377 193.849,-297.377 193.849,-297.377 190.779,-293.43 197.401,-294.614 187.709,-289.484 187.709,-289.484"/>
<polygon fill="#d98d7f" stroke="#d98d7f" points="168.85,-265.236 166.263,-254.579 165.78,-261.289 162.711,-257.342 162.711,-257.342 162.711,-257.342 165.78,-261.289 159.158,-260.105 168.85,-265.236 168.85,-265.236"/>
</g>
<!-- Prevaluation -->
<g id="node20" class="node"><title>Prevaluation</title>
<ellipse fill="none" stroke="black" cx="692" cy="-314" rx="54.2073" ry="18"/>
<text text-anchor="middle" x="692" y="-309.8" font-family="Times,serif" font-size="14.00">Prevaluation</text>
</g>
<!-- Prevaluation&#45;&gt;Insured -->
<g id="edge32" class="edge"><title>Prevaluation&#45;&gt;Insured</title>
<path fill="none" stroke="#c4844d" d="M710.921,-289.91C717.424,-281.974 724.718,-273.073 731.282,-265.062"/>
<ellipse fill="none" stroke="#c4844d" cx="708.219" cy="-293.207" rx="4.00002" ry="4.00002"/>
<polygon fill="#c4844d" stroke="#c4844d" points="731.458,-264.848 741.277,-259.966 734.627,-260.981 737.796,-257.113 737.796,-257.113 737.796,-257.113 734.627,-260.981 734.315,-254.261 731.458,-264.848 731.458,-264.848"/>
</g>
<!-- PrevaluationImage -->
<g id="node21" class="node"><title>PrevaluationImage</title>
<ellipse fill="none" stroke="black" cx="513" cy="-240" rx="76.3495" ry="18"/>
<text text-anchor="middle" x="513" y="-235.8" font-family="Times,serif" font-size="14.00">PrevaluationImage</text>
</g>
<!-- Prevaluation&#45;&gt;PrevaluationImage -->
<g id="edge34" class="edge"><title>Prevaluation&#45;&gt;PrevaluationImage</title>
<path fill="none" stroke="#506158" d="M651.238,-296.604C623.809,-285.571 587.593,-271.004 559.111,-259.547"/>
<ellipse fill="none" stroke="#506158" cx="655.04" cy="-298.133" rx="4.00001" ry="4.00001"/>
<polygon fill="#506158" stroke="#506158" points="559.05,-259.523 551.451,-251.616 554.411,-257.657 549.772,-255.791 549.772,-255.791 549.772,-255.791 554.411,-257.657 548.093,-259.966 559.05,-259.523 559.05,-259.523"/>
</g>
<!-- Prevaluation&#45;&gt;StockCar -->
<g id="edge31" class="edge"><title>Prevaluation&#45;&gt;StockCar</title>
<path fill="none" stroke="#926ed8" d="M734.409,-297.341C767.502,-285.122 813.199,-268.25 845.942,-256.16"/>
<ellipse fill="none" stroke="#926ed8" cx="730.614" cy="-298.742" rx="4.00001" ry="4.00001"/>
<polygon fill="#926ed8" stroke="#926ed8" points="846.279,-256.036 857.218,-256.793 850.969,-254.304 855.66,-252.572 855.66,-252.572 855.66,-252.572 850.969,-254.304 854.101,-248.35 846.279,-256.036 846.279,-256.036"/>
</g>
<!-- Valuation -->
<g id="node38" class="node"><title>Valuation</title>
<ellipse fill="none" stroke="black" cx="652" cy="-240" rx="43.4994" ry="18"/>
<text text-anchor="middle" x="652" y="-235.8" font-family="Times,serif" font-size="14.00">Valuation</text>
</g>
<!-- Prevaluation&#45;&gt;Valuation -->
<g id="edge33" class="edge"><title>Prevaluation&#45;&gt;Valuation</title>
<path fill="none" stroke="#03cc4f" d="M678.586,-288.855C674.36,-281.248 669.692,-272.845 665.462,-265.232"/>
<ellipse fill="none" stroke="#03cc4f" cx="680.578" cy="-292.44" rx="4.00002" ry="4.00002"/>
<ellipse fill="#03cc4f" stroke="#03cc4f" cx="663.354" cy="-261.437" rx="4.00002" ry="4.00002"/>
</g>
<!-- Price -->
<g id="node22" class="node"><title>Price</title>
<ellipse fill="none" stroke="black" cx="274" cy="-240" rx="27.9189" ry="18"/>
<text text-anchor="middle" x="274" y="-235.8" font-family="Times,serif" font-size="14.00">Price</text>
</g>
<!-- Price&#45;&gt;StockFamily -->
<g id="edge35" class="edge"><title>Price&#45;&gt;StockFamily</title>
<path fill="none" stroke="#25c636" d="M284.159,-214.619C287.226,-207.257 290.596,-199.17 293.674,-191.782"/>
<ellipse fill="none" stroke="#25c636" cx="282.496" cy="-218.608" rx="4.00001" ry="4.00001"/>
<ellipse fill="#25c636" stroke="#25c636" cx="295.333" cy="-187.801" rx="4.00001" ry="4.00001"/>
</g>
<!-- Section -->
<g id="node23" class="node"><title>Section</title>
<ellipse fill="none" stroke="black" cx="526" cy="-314" rx="36.4487" ry="18"/>
<text text-anchor="middle" x="526" y="-309.8" font-family="Times,serif" font-size="14.00">Section</text>
</g>
<!-- Subsection -->
<g id="node32" class="node"><title>Subsection</title>
<ellipse fill="none" stroke="black" cx="369" cy="-240" rx="48.3777" ry="18"/>
<text text-anchor="middle" x="369" y="-235.8" font-family="Times,serif" font-size="14.00">Subsection</text>
</g>
<!-- Section&#45;&gt;Subsection -->
<g id="edge36" class="edge"><title>Section&#45;&gt;Subsection</title>
<path fill="none" stroke="#3b3a2d" d="M492.498,-297.636C467.541,-286.191 433.422,-270.544 407.37,-258.596"/>
<ellipse fill="none" stroke="#3b3a2d" cx="496.439" cy="-299.443" rx="4.00002" ry="4.00002"/>
<polygon fill="#3b3a2d" stroke="#3b3a2d" points="407.258,-258.545 400.044,-250.286 402.713,-256.461 398.168,-254.377 398.168,-254.377 398.168,-254.377 402.713,-256.461 396.292,-258.467 407.258,-258.545 407.258,-258.545"/>
</g>
<!-- SpareHistory -->
<g id="node24" class="node"><title>SpareHistory</title>
<ellipse fill="none" stroke="black" cx="658" cy="-18" rx="56.1612" ry="18"/>
<text text-anchor="middle" x="658" y="-13.8" font-family="Times,serif" font-size="14.00">SpareHistory</text>
</g>
<!-- StockCarImage -->
<g id="node27" class="node"><title>StockCarImage</title>
<ellipse fill="none" stroke="black" cx="909" cy="-166" rx="65.1727" ry="18"/>
<text text-anchor="middle" x="909" y="-161.8" font-family="Times,serif" font-size="14.00">StockCarImage</text>
</g>
<!-- StockCar&#45;&gt;StockCarImage -->
<g id="edge37" class="edge"><title>StockCar&#45;&gt;StockCarImage</title>
<path fill="none" stroke="#023b1d" d="M894.613,-214.086C896.572,-207.674 898.69,-200.742 900.683,-194.219"/>
<ellipse fill="none" stroke="#023b1d" cx="893.383" cy="-218.112" rx="4.00001" ry="4.00001"/>
<polygon fill="#023b1d" stroke="#023b1d" points="900.749,-194.004 907.974,-185.756 902.21,-189.222 903.671,-184.441 903.671,-184.441 903.671,-184.441 902.21,-189.222 899.367,-183.126 900.749,-194.004 900.749,-194.004"/>
</g>
<!-- StockFamily&#45;&gt;FamilyHistory -->
<g id="edge40" class="edge"><title>StockFamily&#45;&gt;FamilyHistory</title>
<path fill="none" stroke="#c92416" d="M280.355,-143.173C271.124,-134.653 260.527,-124.871 251.156,-116.221"/>
<ellipse fill="none" stroke="#c92416" cx="283.361" cy="-145.949" rx="4.00002" ry="4.00002"/>
<polygon fill="#c92416" stroke="#c92416" points="250.977,-116.056 246.682,-105.967 247.303,-112.665 243.629,-109.273 243.629,-109.273 243.629,-109.273 247.303,-112.665 240.577,-112.58 250.977,-116.056 250.977,-116.056"/>
</g>
<!-- StockFamilyImage -->
<g id="node29" class="node"><title>StockFamilyImage</title>
<ellipse fill="none" stroke="black" cx="383" cy="-92" rx="77.1069" ry="18"/>
<text text-anchor="middle" x="383" y="-87.8" font-family="Times,serif" font-size="14.00">StockFamilyImage</text>
</g>
<!-- StockFamily&#45;&gt;StockFamilyImage -->
<g id="edge38" class="edge"><title>StockFamily&#45;&gt;StockFamilyImage</title>
<path fill="none" stroke="#8ca97b" d="M327.905,-143.214C337.184,-134.757 347.83,-125.053 357.276,-116.445"/>
<ellipse fill="none" stroke="#8ca97b" cx="324.883" cy="-145.968" rx="4.00002" ry="4.00002"/>
<polygon fill="#8ca97b" stroke="#8ca97b" points="357.48,-116.259 367.902,-112.848 361.176,-112.891 364.871,-109.522 364.871,-109.522 364.871,-109.522 361.176,-112.891 361.84,-106.197 357.48,-116.259 357.48,-116.259"/>
</g>
<!-- StockFamily&#45;&gt;StockSpare -->
<g id="edge39" class="edge"><title>StockFamily&#45;&gt;StockSpare</title>
<path fill="none" stroke="#e5b4fd" d="M359.794,-155.592C442.035,-141.725 594.847,-115.958 676.4,-102.207"/>
<ellipse fill="none" stroke="#e5b4fd" cx="355.684" cy="-156.285" rx="4.00001" ry="4.00001"/>
<polygon fill="#e5b4fd" stroke="#e5b4fd" points="676.601,-102.173 687.21,-104.947 681.531,-101.341 686.461,-100.51 686.461,-100.51 686.461,-100.51 681.531,-101.341 685.713,-96.0727 676.601,-102.173 676.601,-102.173"/>
</g>
<!-- StockSpare&#45;&gt;SpareHistory -->
<g id="edge42" class="edge"><title>StockSpare&#45;&gt;SpareHistory</title>
<path fill="none" stroke="#5e1d6d" d="M708.565,-68.8728C700.062,-60.4858 690.356,-50.9129 681.737,-42.4116"/>
<ellipse fill="none" stroke="#5e1d6d" cx="711.587" cy="-71.8532" rx="4.00002" ry="4.00002"/>
<polygon fill="#5e1d6d" stroke="#5e1d6d" points="681.619,-42.2954 677.659,-32.0694 678.059,-38.7843 674.499,-35.2733 674.499,-35.2733 674.499,-35.2733 678.059,-38.7843 671.339,-38.4771 681.619,-42.2954 681.619,-42.2954"/>
</g>
<!-- StockSpareImage -->
<g id="node31" class="node"><title>StockSpareImage</title>
<ellipse fill="none" stroke="black" cx="805" cy="-18" rx="72.2227" ry="18"/>
<text text-anchor="middle" x="805" y="-13.8" font-family="Times,serif" font-size="14.00">StockSpareImage</text>
</g>
<!-- StockSpare&#45;&gt;StockSpareImage -->
<g id="edge41" class="edge"><title>StockSpare&#45;&gt;StockSpareImage</title>
<path fill="none" stroke="#4b2bea" d="M753.698,-68.9152C762.253,-60.5913 772.014,-51.0943 780.709,-42.6344"/>
<ellipse fill="none" stroke="#4b2bea" cx="750.659" cy="-71.8727" rx="4.00002" ry="4.00002"/>
<polygon fill="#4b2bea" stroke="#4b2bea" points="780.851,-42.4961 791.157,-38.7478 784.435,-39.0093 788.019,-35.5225 788.019,-35.5225 788.019,-35.5225 784.435,-39.0093 784.88,-32.2972 780.851,-42.4961 780.851,-42.4961"/>
</g>
<!-- Subsection&#45;&gt;StockFamily -->
<g id="edge43" class="edge"><title>Subsection&#45;&gt;StockFamily</title>
<path fill="none" stroke="#981c31" d="M348.832,-216.66C341.569,-208.615 333.34,-199.5 325.934,-191.296"/>
<ellipse fill="none" stroke="#981c31" cx="351.57" cy="-219.693" rx="4.00002" ry="4.00002"/>
<polygon fill="#981c31" stroke="#981c31" points="325.843,-191.196 322.482,-180.757 322.493,-187.484 319.142,-183.773 319.142,-183.773 319.142,-183.773 322.493,-187.484 315.802,-186.788 325.843,-191.196 325.843,-191.196"/>
</g>
<!-- Subsection&#45;&gt;StockSpare -->
<g id="edge44" class="edge"><title>Subsection&#45;&gt;StockSpare</title>
<path fill="none" stroke="#988699" d="M408.03,-223.258C476.763,-195.538 618.782,-138.259 689.338,-109.803"/>
<ellipse fill="none" stroke="#988699" cx="404.202" cy="-224.803" rx="4.00001" ry="4.00001"/>
<polygon fill="#988699" stroke="#988699" points="689.53,-109.726 700.487,-110.158 694.167,-107.855 698.804,-105.985 698.804,-105.985 698.804,-105.985 694.167,-107.855 697.121,-101.812 689.53,-109.726 689.53,-109.726"/>
</g>
<!-- Supplier&#45;&gt;OrderSupplier -->
<g id="edge46" class="edge"><title>Supplier&#45;&gt;OrderSupplier</title>
<path fill="none" stroke="#fcc2e7" d="M133.753,-216.063C128.357,-208.445 122.321,-199.924 116.813,-192.148"/>
<ellipse fill="none" stroke="#fcc2e7" cx="136.115" cy="-219.398" rx="4.00002" ry="4.00002"/>
<polygon fill="#fcc2e7" stroke="#fcc2e7" points="116.661,-191.933 114.553,-181.172 113.771,-187.853 110.881,-183.773 110.881,-183.773 110.881,-183.773 113.771,-187.853 107.209,-186.374 116.661,-191.933 116.661,-191.933"/>
</g>
<!-- Supplier&#45;&gt;StockFamily -->
<g id="edge45" class="edge"><title>Supplier&#45;&gt;StockFamily</title>
<path fill="none" stroke="#78be63" d="M175.867,-219.231C184.514,-213.188 194.4,-206.861 204,-202 219.628,-194.087 237.468,-187.218 253.711,-181.711"/>
<ellipse fill="none" stroke="#78be63" cx="172.479" cy="-221.656" rx="4.00002" ry="4.00002"/>
<polygon fill="#78be63" stroke="#78be63" points="254.085,-181.588 264.991,-182.735 258.834,-180.024 263.584,-178.461 263.584,-178.461 263.584,-178.461 258.834,-180.024 262.177,-174.186 254.085,-181.588 254.085,-181.588"/>
</g>
<!-- SupplierType -->
<g id="node34" class="node"><title>SupplierType</title>
<ellipse fill="none" stroke="black" cx="57" cy="-314" rx="57.4408" ry="18"/>
<text text-anchor="middle" x="57" y="-309.8" font-family="Times,serif" font-size="14.00">SupplierType</text>
</g>
<!-- SupplierType&#45;&gt;Supplier -->
<g id="edge47" class="edge"><title>SupplierType&#45;&gt;Supplier</title>
<path fill="none" stroke="#d92f32" d="M84.2332,-291.916C96.3422,-282.541 110.569,-271.527 122.687,-262.145"/>
<ellipse fill="none" stroke="#d92f32" cx="80.8026" cy="-294.572" rx="4.00002" ry="4.00002"/>
<polygon fill="#d92f32" stroke="#d92f32" points="122.781,-262.073 133.443,-259.509 126.734,-259.012 130.688,-255.951 130.688,-255.951 130.688,-255.951 126.734,-259.012 127.933,-252.393 122.781,-262.073 122.781,-262.073"/>
</g>
<!-- Supply -->
<g id="node35" class="node"><title>Supply</title>
<ellipse fill="none" stroke="black" cx="1342" cy="-481" rx="35.254" ry="18"/>
<text text-anchor="middle" x="1342" y="-476.8" font-family="Times,serif" font-size="14.00">Supply</text>
</g>
<!-- User -->
<g id="node37" class="node"><title>User</title>
<ellipse fill="none" stroke="black" cx="1422" cy="-481" rx="27" ry="18"/>
<text text-anchor="middle" x="1422" y="-476.8" font-family="Times,serif" font-size="14.00">User</text>
</g>
<!-- Warehouse -->
<g id="node39" class="node"><title>Warehouse</title>
<ellipse fill="none" stroke="black" cx="737" cy="-388" rx="49.2658" ry="18"/>
<text text-anchor="middle" x="737" y="-383.8" font-family="Times,serif" font-size="14.00">Warehouse</text>
</g>
<!-- Warehouse&#45;&gt;Order -->
<g id="edge50" class="edge"><title>Warehouse&#45;&gt;Order</title>
<path fill="none" stroke="#e41ee4" d="M683.682,-379.771C576.934,-365.296 339.169,-333.057 245.252,-320.322"/>
<ellipse fill="none" stroke="#e41ee4" cx="687.764" cy="-380.324" rx="4.00001" ry="4.00001"/>
<polygon fill="#e41ee4" stroke="#e41ee4" points="245.22,-320.318 235.916,-314.515 240.266,-319.646 235.311,-318.974 235.311,-318.974 235.311,-318.974 240.266,-319.646 234.706,-323.434 245.22,-320.318 245.22,-320.318"/>
</g>
<!-- Warehouse&#45;&gt;Section -->
<g id="edge51" class="edge"><title>Warehouse&#45;&gt;Section</title>
<path fill="none" stroke="#bd22cb" d="M694.416,-372.469C656.56,-359.551 601.674,-340.823 564.958,-328.294"/>
<ellipse fill="none" stroke="#bd22cb" cx="698.372" cy="-373.819" rx="4.00001" ry="4.00001"/>
<polygon fill="#bd22cb" stroke="#bd22cb" points="564.578,-328.164 556.567,-320.676 559.846,-326.549 555.114,-324.935 555.114,-324.935 555.114,-324.935 559.846,-326.549 553.66,-329.193 564.578,-328.164 564.578,-328.164"/>
</g>
<!-- Warehouse&#45;&gt;StockCar -->
<g id="edge49" class="edge"><title>Warehouse&#45;&gt;StockCar</title>
<path fill="none" stroke="#a2c29e" d="M786.799,-375.744C801.967,-370.462 817.829,-362.852 830,-352 855.438,-329.319 871.137,-292.594 879.461,-267.652"/>
<ellipse fill="none" stroke="#a2c29e" cx="782.757" cy="-377.061" rx="4.00001" ry="4.00001"/>
<polygon fill="#a2c29e" stroke="#a2c29e" points="879.472,-267.616 886.778,-259.438 880.98,-262.849 882.487,-258.081 882.487,-258.081 882.487,-258.081 880.98,-262.849 878.197,-256.724 879.472,-267.616 879.472,-267.616"/>
</g>
<!-- Warehouse&#45;&gt;StockSpare -->
<g id="edge48" class="edge"><title>Warehouse&#45;&gt;StockSpare</title>
<path fill="none" stroke="#fdebd6" d="M774.882,-369.79C795.156,-357.732 816,-339.402 816,-315 816,-315 816,-315 816,-165 816,-140.125 794.542,-122.07 773.189,-110.261"/>
<ellipse fill="none" stroke="#fdebd6" cx="771.255" cy="-371.831" rx="4.00002" ry="4.00002"/>
<polygon fill="#fdebd6" stroke="#fdebd6" points="772.996,-110.162 766.168,-101.581 768.551,-107.872 764.107,-105.582 764.107,-105.582 764.107,-105.582 768.551,-107.872 762.045,-109.582 772.996,-110.162 772.996,-110.162"/>
</g>
</g>
</svg>
