<?xml version="1.0" encoding="UTF-8" standalone="no"?>
<!DOCTYPE svg PUBLIC "-//W3C//DTD SVG 1.1//EN"
 "http://www.w3.org/Graphics/SVG/1.1/DTD/svg11.dtd">
<!-- Generated by graphviz version 2.38.0 (20140413.2041)
 -->
<!-- Title: models_diagram Pages: 1 -->
<svg width="2011pt" height="1063pt"
 viewBox="0.00 0.00 2011.19 1063.00" xmlns="http://www.w3.org/2000/svg" xmlns:xlink="http://www.w3.org/1999/xlink">
<g id="graph0" class="graph" transform="scale(1 1) rotate(0) translate(4 1059)">
<title>models_diagram</title>
<polygon fill="white" stroke="none" points="-4,4 -4,-1059 2007.19,-1059 2007.19,4 -4,4"/>
<!-- _diagram_info -->
<g id="node1" class="node"><title>_diagram_info</title>
<text text-anchor="start" x="8" y="-998.6" font-family="Times,serif" font-size="13.00">Models diagram</text>
<text text-anchor="start" x="8" y="-985.6" font-family="Times,serif" font-size="13.00">Date: Feb 09 2015 &#45; 12:20</text>
<text text-anchor="start" x="8" y="-972.6" font-family="Times,serif" font-size="13.00">Migration version: 20150209181442</text>
<text text-anchor="start" x="8" y="-959.6" font-family="Times,serif" font-size="13.00">Generated by RailRoady 1.3.0</text>
<text text-anchor="start" x="8" y="-946.6" font-family="Times,serif" font-size="13.00">http://railroady.prestonlee.com</text>
</g>
<!-- Brand -->
<g id="node2" class="node"><title>Brand</title>
<path fill="none" stroke="black" d="M237.182,-926.5C237.182,-926.5 346.193,-926.5 346.193,-926.5 352.193,-926.5 358.193,-932.5 358.193,-938.5 358.193,-938.5 358.193,-1014.5 358.193,-1014.5 358.193,-1020.5 352.193,-1026.5 346.193,-1026.5 346.193,-1026.5 237.182,-1026.5 237.182,-1026.5 231.182,-1026.5 225.182,-1020.5 225.182,-1014.5 225.182,-1014.5 225.182,-938.5 225.182,-938.5 225.182,-932.5 231.182,-926.5 237.182,-926.5"/>
<text text-anchor="middle" x="291.688" y="-1011.3" font-family="Times,serif" font-size="14.00">Brand</text>
<polyline fill="none" stroke="black" points="225.182,-1004.5 358.193,-1004.5 "/>
<text text-anchor="start" x="233.182" y="-989.3" font-family="Times,serif" font-size="14.00">id :integer</text>
<text text-anchor="start" x="233.182" y="-975.3" font-family="Times,serif" font-size="14.00">name :string</text>
<text text-anchor="start" x="233.182" y="-961.3" font-family="Times,serif" font-size="14.00">acronym :string</text>
<text text-anchor="start" x="233.182" y="-947.3" font-family="Times,serif" font-size="14.00">created_at :datetime</text>
<text text-anchor="start" x="233.182" y="-933.3" font-family="Times,serif" font-size="14.00">updated_at :datetime</text>
</g>
<!-- GenericCar -->
<g id="node7" class="node"><title>GenericCar</title>
<path fill="none" stroke="black" d="M410.293,-628.5C410.293,-628.5 569.083,-628.5 569.083,-628.5 575.083,-628.5 581.083,-634.5 581.083,-640.5 581.083,-640.5 581.083,-828.5 581.083,-828.5 581.083,-834.5 575.083,-840.5 569.083,-840.5 569.083,-840.5 410.293,-840.5 410.293,-840.5 404.293,-840.5 398.293,-834.5 398.293,-828.5 398.293,-828.5 398.293,-640.5 398.293,-640.5 398.293,-634.5 404.293,-628.5 410.293,-628.5"/>
<text text-anchor="middle" x="489.688" y="-825.3" font-family="Times,serif" font-size="14.00">GenericCar</text>
<polyline fill="none" stroke="black" points="398.293,-818.5 581.083,-818.5 "/>
<text text-anchor="start" x="406.293" y="-803.3" font-family="Times,serif" font-size="14.00">id :integer</text>
<text text-anchor="start" x="406.293" y="-789.3" font-family="Times,serif" font-size="14.00">brand_id :string</text>
<text text-anchor="start" x="406.293" y="-775.3" font-family="Times,serif" font-size="14.00">car_type_id :string</text>
<text text-anchor="start" x="406.293" y="-761.3" font-family="Times,serif" font-size="14.00">year :integer</text>
<text text-anchor="start" x="406.293" y="-747.3" font-family="Times,serif" font-size="14.00">model :string</text>
<text text-anchor="start" x="406.293" y="-733.3" font-family="Times,serif" font-size="14.00">doors :integer</text>
<text text-anchor="start" x="406.293" y="-719.3" font-family="Times,serif" font-size="14.00">first_generation_year :integer</text>
<text text-anchor="start" x="406.293" y="-705.3" font-family="Times,serif" font-size="14.00">last_generation_year :integer</text>
<text text-anchor="start" x="406.293" y="-691.3" font-family="Times,serif" font-size="14.00">code :string</text>
<text text-anchor="start" x="406.293" y="-677.3" font-family="Times,serif" font-size="14.00">gen_continues :boolean</text>
<text text-anchor="start" x="406.293" y="-663.3" font-family="Times,serif" font-size="14.00">number_of_generation :string</text>
<text text-anchor="start" x="406.293" y="-649.3" font-family="Times,serif" font-size="14.00">created_at :datetime</text>
<text text-anchor="start" x="406.293" y="-635.3" font-family="Times,serif" font-size="14.00">updated_at :datetime</text>
</g>
<!-- Brand&#45;&gt;GenericCar -->
<g id="edge1" class="edge"><title>Brand&#45;&gt;GenericCar</title>
<path fill="none" stroke="#e51aeb" d="M337.375,-920.122C355.086,-898.654 376.04,-873.255 396.649,-848.274"/>
<ellipse fill="none" stroke="#e51aeb" cx="334.779" cy="-923.268" rx="4.00002" ry="4.00002"/>
<polygon fill="#e51aeb" stroke="#e51aeb" points="396.666,-848.253 406.501,-843.403 399.848,-844.397 403.03,-840.54 403.03,-840.54 403.03,-840.54 399.848,-844.397 399.559,-837.676 396.666,-848.253 396.666,-848.253"/>
</g>
<!-- ModelAcronym -->
<g id="node15" class="node"><title>ModelAcronym</title>
<path fill="none" stroke="black" d="M221.182,-677.5C221.182,-677.5 330.193,-677.5 330.193,-677.5 336.193,-677.5 342.193,-683.5 342.193,-689.5 342.193,-689.5 342.193,-779.5 342.193,-779.5 342.193,-785.5 336.193,-791.5 330.193,-791.5 330.193,-791.5 221.182,-791.5 221.182,-791.5 215.182,-791.5 209.182,-785.5 209.182,-779.5 209.182,-779.5 209.182,-689.5 209.182,-689.5 209.182,-683.5 215.182,-677.5 221.182,-677.5"/>
<text text-anchor="middle" x="275.688" y="-776.3" font-family="Times,serif" font-size="14.00">ModelAcronym</text>
<polyline fill="none" stroke="black" points="209.182,-769.5 342.193,-769.5 "/>
<text text-anchor="start" x="217.182" y="-754.3" font-family="Times,serif" font-size="14.00">id :integer</text>
<text text-anchor="start" x="217.182" y="-740.3" font-family="Times,serif" font-size="14.00">brand_id :integer</text>
<text text-anchor="start" x="217.182" y="-726.3" font-family="Times,serif" font-size="14.00">initials :string</text>
<text text-anchor="start" x="217.182" y="-712.3" font-family="Times,serif" font-size="14.00">model :string</text>
<text text-anchor="start" x="217.182" y="-698.3" font-family="Times,serif" font-size="14.00">created_at :datetime</text>
<text text-anchor="start" x="217.182" y="-684.3" font-family="Times,serif" font-size="14.00">updated_at :datetime</text>
</g>
<!-- Brand&#45;&gt;ModelAcronym -->
<g id="edge2" class="edge"><title>Brand&#45;&gt;ModelAcronym</title>
<path fill="none" stroke="#d0cbed" d="M287.879,-918.369C285.545,-883.356 282.547,-838.392 280.109,-801.812"/>
<ellipse fill="none" stroke="#d0cbed" cx="288.145" cy="-922.362" rx="4" ry="4"/>
<polygon fill="#d0cbed" stroke="#d0cbed" points="280.102,-801.71 283.927,-791.433 279.769,-796.722 279.437,-791.733 279.437,-791.733 279.437,-791.733 279.769,-796.722 274.947,-792.032 280.102,-801.71 280.102,-801.71"/>
</g>
<!-- CarLikelihood -->
<g id="node3" class="node"><title>CarLikelihood</title>
<path fill="none" stroke="black" d="M611.462,-684.5C611.462,-684.5 725.914,-684.5 725.914,-684.5 731.914,-684.5 737.914,-690.5 737.914,-696.5 737.914,-696.5 737.914,-772.5 737.914,-772.5 737.914,-778.5 731.914,-784.5 725.914,-784.5 725.914,-784.5 611.462,-784.5 611.462,-784.5 605.462,-784.5 599.462,-778.5 599.462,-772.5 599.462,-772.5 599.462,-696.5 599.462,-696.5 599.462,-690.5 605.462,-684.5 611.462,-684.5"/>
<text text-anchor="middle" x="668.688" y="-769.3" font-family="Times,serif" font-size="14.00">CarLikelihood</text>
<polyline fill="none" stroke="black" points="599.462,-762.5 737.914,-762.5 "/>
<text text-anchor="start" x="607.462" y="-747.3" font-family="Times,serif" font-size="14.00">id :integer</text>
<text text-anchor="start" x="607.462" y="-733.3" font-family="Times,serif" font-size="14.00">car_type_id :integer</text>
<text text-anchor="start" x="607.462" y="-719.3" font-family="Times,serif" font-size="14.00">generic_car_id :string</text>
<text text-anchor="start" x="607.462" y="-705.3" font-family="Times,serif" font-size="14.00">created_at :datetime</text>
<text text-anchor="start" x="607.462" y="-691.3" font-family="Times,serif" font-size="14.00">updated_at :datetime</text>
</g>
<!-- CarTypes -->
<g id="node4" class="node"><title>CarTypes</title>
<path fill="none" stroke="black" d="M592.182,-933.5C592.182,-933.5 701.193,-933.5 701.193,-933.5 707.193,-933.5 713.193,-939.5 713.193,-945.5 713.193,-945.5 713.193,-1007.5 713.193,-1007.5 713.193,-1013.5 707.193,-1019.5 701.193,-1019.5 701.193,-1019.5 592.182,-1019.5 592.182,-1019.5 586.182,-1019.5 580.182,-1013.5 580.182,-1007.5 580.182,-1007.5 580.182,-945.5 580.182,-945.5 580.182,-939.5 586.182,-933.5 592.182,-933.5"/>
<text text-anchor="middle" x="646.688" y="-1004.3" font-family="Times,serif" font-size="14.00">CarTypes</text>
<polyline fill="none" stroke="black" points="580.182,-997.5 713.193,-997.5 "/>
<text text-anchor="start" x="588.182" y="-982.3" font-family="Times,serif" font-size="14.00">id :integer</text>
<text text-anchor="start" x="588.182" y="-968.3" font-family="Times,serif" font-size="14.00">name :string</text>
<text text-anchor="start" x="588.182" y="-954.3" font-family="Times,serif" font-size="14.00">created_at :datetime</text>
<text text-anchor="start" x="588.182" y="-940.3" font-family="Times,serif" font-size="14.00">updated_at :datetime</text>
</g>
<!-- CarTypes&#45;&gt;CarLikelihood -->
<g id="edge4" class="edge"><title>CarTypes&#45;&gt;CarLikelihood</title>
<path fill="none" stroke="#5419cb" d="M651.282,-925.385C654.77,-887.333 659.577,-834.892 663.256,-794.76"/>
<ellipse fill="none" stroke="#5419cb" cx="650.91" cy="-929.437" rx="4" ry="4"/>
<polygon fill="#5419cb" stroke="#5419cb" points="663.276,-794.535 668.67,-784.988 663.733,-789.556 664.189,-784.577 664.189,-784.577 664.189,-784.577 663.733,-789.556 659.708,-784.166 663.276,-794.535 663.276,-794.535"/>
</g>
<!-- CarTypes&#45;&gt;GenericCar -->
<g id="edge3" class="edge"><title>CarTypes&#45;&gt;GenericCar</title>
<path fill="none" stroke="#ce1cdf" d="M614.689,-926.585C599.953,-904.058 581.798,-876.305 563.937,-849.002"/>
<ellipse fill="none" stroke="#ce1cdf" cx="616.971" cy="-930.073" rx="4.00002" ry="4.00002"/>
<polygon fill="#ce1cdf" stroke="#ce1cdf" points="563.882,-848.918 562.173,-838.086 561.145,-844.734 558.407,-840.549 558.407,-840.549 558.407,-840.549 561.145,-844.734 554.642,-843.013 563.882,-848.918 563.882,-848.918"/>
</g>
<!-- FamilyAcronym -->
<g id="node5" class="node"><title>FamilyAcronym</title>
<path fill="none" stroke="black" d="M1108.24,-684.5C1108.24,-684.5 1249.13,-684.5 1249.13,-684.5 1255.13,-684.5 1261.13,-690.5 1261.13,-696.5 1261.13,-696.5 1261.13,-772.5 1261.13,-772.5 1261.13,-778.5 1255.13,-784.5 1249.13,-784.5 1249.13,-784.5 1108.24,-784.5 1108.24,-784.5 1102.24,-784.5 1096.24,-778.5 1096.24,-772.5 1096.24,-772.5 1096.24,-696.5 1096.24,-696.5 1096.24,-690.5 1102.24,-684.5 1108.24,-684.5"/>
<text text-anchor="middle" x="1178.69" y="-769.3" font-family="Times,serif" font-size="14.00">FamilyAcronym</text>
<polyline fill="none" stroke="black" points="1096.24,-762.5 1261.13,-762.5 "/>
<text text-anchor="start" x="1104.24" y="-747.3" font-family="Times,serif" font-size="14.00">id :integer</text>
<text text-anchor="start" x="1104.24" y="-733.3" font-family="Times,serif" font-size="14.00">code :string</text>
<text text-anchor="start" x="1104.24" y="-719.3" font-family="Times,serif" font-size="14.00">generic_family_id :integer</text>
<text text-anchor="start" x="1104.24" y="-705.3" font-family="Times,serif" font-size="14.00">created_at :datetime</text>
<text text-anchor="start" x="1104.24" y="-691.3" font-family="Times,serif" font-size="14.00">updated_at :datetime</text>
</g>
<!-- Generation -->
<g id="node6" class="node"><title>Generation</title>
<path fill="none" stroke="black" d="M419.182,-933.5C419.182,-933.5 528.193,-933.5 528.193,-933.5 534.193,-933.5 540.193,-939.5 540.193,-945.5 540.193,-945.5 540.193,-1007.5 540.193,-1007.5 540.193,-1013.5 534.193,-1019.5 528.193,-1019.5 528.193,-1019.5 419.182,-1019.5 419.182,-1019.5 413.182,-1019.5 407.182,-1013.5 407.182,-1007.5 407.182,-1007.5 407.182,-945.5 407.182,-945.5 407.182,-939.5 413.182,-933.5 419.182,-933.5"/>
<text text-anchor="middle" x="473.688" y="-1004.3" font-family="Times,serif" font-size="14.00">Generation</text>
<polyline fill="none" stroke="black" points="407.182,-997.5 540.193,-997.5 "/>
<text text-anchor="start" x="415.182" y="-982.3" font-family="Times,serif" font-size="14.00">id :integer</text>
<text text-anchor="start" x="415.182" y="-968.3" font-family="Times,serif" font-size="14.00">year :integer</text>
<text text-anchor="start" x="415.182" y="-954.3" font-family="Times,serif" font-size="14.00">created_at :datetime</text>
<text text-anchor="start" x="415.182" y="-940.3" font-family="Times,serif" font-size="14.00">updated_at :datetime</text>
</g>
<!-- Generation&#45;&gt;GenericCar -->
<g id="edge5" class="edge"><title>Generation&#45;&gt;GenericCar</title>
<path fill="none" stroke="#a32a91" d="M477.164,-923.363C478.594,-901.909 480.312,-876.143 482.01,-850.668"/>
<polygon fill="#a32a91" stroke="#a32a91" points="477.158,-923.443 472.003,-933.121 476.826,-928.432 476.493,-933.421 476.493,-933.421 476.493,-933.421 476.826,-928.432 480.983,-933.72 477.158,-923.443 477.158,-923.443"/>
<polygon fill="#a32a91" stroke="#a32a91" points="482.019,-850.527 487.174,-840.849 482.352,-845.538 482.684,-840.549 482.684,-840.549 482.684,-840.549 482.352,-845.538 478.194,-840.25 482.019,-850.527 482.019,-850.527"/>
</g>
<!-- GenericCarGeneration -->
<g id="node8" class="node"><title>GenericCarGeneration</title>
<path fill="none" stroke="black" d="M314.972,-407.5C314.972,-407.5 436.404,-407.5 436.404,-407.5 442.404,-407.5 448.404,-413.5 448.404,-419.5 448.404,-419.5 448.404,-495.5 448.404,-495.5 448.404,-501.5 442.404,-507.5 436.404,-507.5 436.404,-507.5 314.972,-507.5 314.972,-507.5 308.972,-507.5 302.972,-501.5 302.972,-495.5 302.972,-495.5 302.972,-419.5 302.972,-419.5 302.972,-413.5 308.972,-407.5 314.972,-407.5"/>
<text text-anchor="middle" x="375.688" y="-492.3" font-family="Times,serif" font-size="14.00">GenericCarGeneration</text>
<polyline fill="none" stroke="black" points="302.972,-485.5 448.404,-485.5 "/>
<text text-anchor="start" x="310.972" y="-470.3" font-family="Times,serif" font-size="14.00">id :integer</text>
<text text-anchor="start" x="310.972" y="-456.3" font-family="Times,serif" font-size="14.00">generic_car_id :integer</text>
<text text-anchor="start" x="310.972" y="-442.3" font-family="Times,serif" font-size="14.00">generation_id :integer</text>
<text text-anchor="start" x="310.972" y="-428.3" font-family="Times,serif" font-size="14.00">created_at :datetime</text>
<text text-anchor="start" x="310.972" y="-414.3" font-family="Times,serif" font-size="14.00">updated_at :datetime</text>
</g>
<!-- Generation&#45;&gt;GenericCarGeneration -->
<g id="edge6" class="edge"><title>Generation&#45;&gt;GenericCarGeneration</title>
<path fill="none" stroke="#290b77" d="M427.803,-927.06C412.799,-908.208 397.891,-885.497 389.688,-862 348.974,-745.388 357.676,-598.132 367.056,-517.67"/>
<ellipse fill="none" stroke="#290b77" cx="430.36" cy="-930.2" rx="4.00002" ry="4.00002"/>
<polygon fill="#290b77" stroke="#290b77" points="367.058,-517.648 372.726,-508.261 367.658,-512.684 368.259,-507.72 368.259,-507.72 368.259,-507.72 367.658,-512.684 363.791,-507.18 367.058,-517.648 367.058,-517.648"/>
</g>
<!-- GenericCar&#45;&gt;GenericCarGeneration -->
<g id="edge11" class="edge"><title>GenericCar&#45;&gt;GenericCarGeneration</title>
<path fill="none" stroke="#b3a64f" d="M442.853,-620.522C428.123,-584.989 412.457,-547.197 399.963,-517.058"/>
<ellipse fill="none" stroke="#b3a64f" cx="444.569" cy="-624.662" rx="4.00001" ry="4.00001"/>
<polygon fill="#b3a64f" stroke="#b3a64f" points="399.852,-516.792 400.18,-505.831 397.938,-512.173 396.023,-507.554 396.023,-507.554 396.023,-507.554 397.938,-512.173 391.866,-509.278 399.852,-516.792 399.852,-516.792"/>
</g>
<!-- GenericCarImage -->
<g id="node9" class="node"><title>GenericCarImage</title>
<path fill="none" stroke="black" d="M525.738,-386.5C525.738,-386.5 673.638,-386.5 673.638,-386.5 679.638,-386.5 685.638,-392.5 685.638,-398.5 685.638,-398.5 685.638,-516.5 685.638,-516.5 685.638,-522.5 679.638,-528.5 673.638,-528.5 673.638,-528.5 525.738,-528.5 525.738,-528.5 519.738,-528.5 513.738,-522.5 513.738,-516.5 513.738,-516.5 513.738,-398.5 513.738,-398.5 513.738,-392.5 519.738,-386.5 525.738,-386.5"/>
<text text-anchor="middle" x="599.688" y="-513.3" font-family="Times,serif" font-size="14.00">GenericCarImage</text>
<polyline fill="none" stroke="black" points="513.738,-506.5 685.638,-506.5 "/>
<text text-anchor="start" x="521.738" y="-491.3" font-family="Times,serif" font-size="14.00">id :integer</text>
<text text-anchor="start" x="521.738" y="-477.3" font-family="Times,serif" font-size="14.00">generic_car_id :integer</text>
<text text-anchor="start" x="521.738" y="-463.3" font-family="Times,serif" font-size="14.00">created_at :datetime</text>
<text text-anchor="start" x="521.738" y="-449.3" font-family="Times,serif" font-size="14.00">updated_at :datetime</text>
<text text-anchor="start" x="521.738" y="-435.3" font-family="Times,serif" font-size="14.00">photo_file_name :string</text>
<text text-anchor="start" x="521.738" y="-421.3" font-family="Times,serif" font-size="14.00">photo_content_type :string</text>
<text text-anchor="start" x="521.738" y="-407.3" font-family="Times,serif" font-size="14.00">photo_file_size :integer</text>
<text text-anchor="start" x="521.738" y="-393.3" font-family="Times,serif" font-size="14.00">photo_updated_at :datetime</text>
</g>
<!-- GenericCar&#45;&gt;GenericCarImage -->
<g id="edge9" class="edge"><title>GenericCar&#45;&gt;GenericCarImage</title>
<path fill="none" stroke="#1569f4" d="M534.732,-620.889C545.851,-593.093 557.53,-563.893 567.872,-538.04"/>
<ellipse fill="none" stroke="#1569f4" cx="533.23" cy="-624.643" rx="4.00001" ry="4.00001"/>
<polygon fill="#1569f4" stroke="#1569f4" points="567.904,-537.96 575.796,-530.347 569.761,-533.318 571.618,-528.675 571.618,-528.675 571.618,-528.675 569.761,-533.318 567.439,-527.004 567.904,-537.96 567.904,-537.96"/>
</g>
<!-- GenericFittable -->
<g id="node11" class="node"><title>GenericFittable</title>
<path fill="none" stroke="black" d="M475.748,-165.5C475.748,-165.5 609.628,-165.5 609.628,-165.5 615.628,-165.5 621.628,-171.5 621.628,-177.5 621.628,-177.5 621.628,-253.5 621.628,-253.5 621.628,-259.5 615.628,-265.5 609.628,-265.5 609.628,-265.5 475.748,-265.5 475.748,-265.5 469.748,-265.5 463.748,-259.5 463.748,-253.5 463.748,-253.5 463.748,-177.5 463.748,-177.5 463.748,-171.5 469.748,-165.5 475.748,-165.5"/>
<text text-anchor="middle" x="542.688" y="-250.3" font-family="Times,serif" font-size="14.00">GenericFittable</text>
<polyline fill="none" stroke="black" points="463.748,-243.5 621.628,-243.5 "/>
<text text-anchor="start" x="471.748" y="-228.3" font-family="Times,serif" font-size="14.00">id :integer</text>
<text text-anchor="start" x="471.748" y="-214.3" font-family="Times,serif" font-size="14.00">generic_car_id :integer</text>
<text text-anchor="start" x="471.748" y="-200.3" font-family="Times,serif" font-size="14.00">generic_spare_id :integer</text>
<text text-anchor="start" x="471.748" y="-186.3" font-family="Times,serif" font-size="14.00">created_at :datetime</text>
<text text-anchor="start" x="471.748" y="-172.3" font-family="Times,serif" font-size="14.00">updated_at :datetime</text>
</g>
<!-- GenericCar&#45;&gt;GenericFittable -->
<g id="edge8" class="edge"><title>GenericCar&#45;&gt;GenericFittable</title>
<path fill="none" stroke="#fed031" d="M486.586,-619.794C486.279,-541.707 489.464,-435.953 504.688,-344 508.467,-321.176 515.105,-296.695 521.788,-275.346"/>
<ellipse fill="none" stroke="#fed031" cx="486.611" cy="-624.218" rx="4" ry="4"/>
<polygon fill="#fed031" stroke="#fed031" points="521.803,-275.3 529.137,-267.147 523.327,-270.537 524.851,-265.775 524.851,-265.775 524.851,-265.775 523.327,-270.537 520.565,-264.404 521.803,-275.3 521.803,-275.3"/>
</g>
<!-- GenericSpare -->
<g id="node12" class="node"><title>GenericSpare</title>
<path fill="none" stroke="black" d="M715.396,-379.5C715.396,-379.5 825.979,-379.5 825.979,-379.5 831.979,-379.5 837.979,-385.5 837.979,-391.5 837.979,-391.5 837.979,-523.5 837.979,-523.5 837.979,-529.5 831.979,-535.5 825.979,-535.5 825.979,-535.5 715.396,-535.5 715.396,-535.5 709.396,-535.5 703.396,-529.5 703.396,-523.5 703.396,-523.5 703.396,-391.5 703.396,-391.5 703.396,-385.5 709.396,-379.5 715.396,-379.5"/>
<text text-anchor="middle" x="770.688" y="-520.3" font-family="Times,serif" font-size="14.00">GenericSpare</text>
<polyline fill="none" stroke="black" points="703.396,-513.5 837.979,-513.5 "/>
<text text-anchor="start" x="711.396" y="-498.3" font-family="Times,serif" font-size="14.00">id :integer</text>
<text text-anchor="start" x="711.396" y="-484.3" font-family="Times,serif" font-size="14.00">brand :string</text>
<text text-anchor="start" x="711.396" y="-470.3" font-family="Times,serif" font-size="14.00">type_of_spare :string</text>
<text text-anchor="start" x="711.396" y="-456.3" font-family="Times,serif" font-size="14.00">name :string</text>
<text text-anchor="start" x="711.396" y="-442.3" font-family="Times,serif" font-size="14.00">region :string</text>
<text text-anchor="start" x="711.396" y="-428.3" font-family="Times,serif" font-size="14.00">description :text</text>
<text text-anchor="start" x="711.396" y="-414.3" font-family="Times,serif" font-size="14.00">code :string</text>
<text text-anchor="start" x="711.396" y="-400.3" font-family="Times,serif" font-size="14.00">created_at :datetime</text>
<text text-anchor="start" x="711.396" y="-386.3" font-family="Times,serif" font-size="14.00">updated_at :datetime</text>
</g>
<!-- GenericCar&#45;&gt;GenericSpare -->
<g id="edge10" class="edge"><title>GenericCar&#45;&gt;GenericSpare</title>
<path fill="none" stroke="#204647" d="M573.021,-621.13C578.714,-616.05 584.613,-611.293 590.688,-607 630.635,-578.774 655.896,-600.794 694.688,-571 704.817,-563.22 714.063,-553.693 722.347,-543.508"/>
<polygon fill="#204647" stroke="#204647" points="572.702,-621.426 562.319,-624.951 569.044,-624.835 565.386,-628.243 565.386,-628.243 565.386,-628.243 569.044,-624.835 568.454,-631.536 572.702,-621.426 572.702,-621.426"/>
<polygon fill="#204647" stroke="#204647" points="722.352,-543.501 732.044,-538.371 725.422,-539.555 728.492,-535.608 728.492,-535.608 728.492,-535.608 725.422,-539.555 724.94,-532.845 722.352,-543.501 722.352,-543.501"/>
</g>
<!-- StockCar -->
<g id="node21" class="node"><title>StockCar</title>
<path fill="none" stroke="black" d="M1367.07,-344.5C1367.07,-344.5 1510.31,-344.5 1510.31,-344.5 1516.31,-344.5 1522.31,-350.5 1522.31,-356.5 1522.31,-356.5 1522.31,-558.5 1522.31,-558.5 1522.31,-564.5 1516.31,-570.5 1510.31,-570.5 1510.31,-570.5 1367.07,-570.5 1367.07,-570.5 1361.07,-570.5 1355.07,-564.5 1355.07,-558.5 1355.07,-558.5 1355.07,-356.5 1355.07,-356.5 1355.07,-350.5 1361.07,-344.5 1367.07,-344.5"/>
<text text-anchor="middle" x="1438.69" y="-555.3" font-family="Times,serif" font-size="14.00">StockCar</text>
<polyline fill="none" stroke="black" points="1355.07,-548.5 1522.31,-548.5 "/>
<text text-anchor="start" x="1363.07" y="-533.3" font-family="Times,serif" font-size="14.00">id :integer</text>
<text text-anchor="start" x="1363.07" y="-519.3" font-family="Times,serif" font-size="14.00">prevaluation_id :integer</text>
<text text-anchor="start" x="1363.07" y="-505.3" font-family="Times,serif" font-size="14.00">generic_car_id :integer</text>
<text text-anchor="start" x="1363.07" y="-491.3" font-family="Times,serif" font-size="14.00">warehouse_id :integer</text>
<text text-anchor="start" x="1363.07" y="-477.3" font-family="Times,serif" font-size="14.00">color :string</text>
<text text-anchor="start" x="1363.07" y="-463.3" font-family="Times,serif" font-size="14.00">door_number :integer</text>
<text text-anchor="start" x="1363.07" y="-449.3" font-family="Times,serif" font-size="14.00">serie :string</text>
<text text-anchor="start" x="1363.07" y="-435.3" font-family="Times,serif" font-size="14.00">motor :string</text>
<text text-anchor="start" x="1363.07" y="-421.3" font-family="Times,serif" font-size="14.00">license_plates :string</text>
<text text-anchor="start" x="1363.07" y="-407.3" font-family="Times,serif" font-size="14.00">inventory_description :text</text>
<text text-anchor="start" x="1363.07" y="-393.3" font-family="Times,serif" font-size="14.00">special_equipment :text</text>
<text text-anchor="start" x="1363.07" y="-379.3" font-family="Times,serif" font-size="14.00">economic_number :string</text>
<text text-anchor="start" x="1363.07" y="-365.3" font-family="Times,serif" font-size="14.00">created_at :datetime</text>
<text text-anchor="start" x="1363.07" y="-351.3" font-family="Times,serif" font-size="14.00">updated_at :datetime</text>
</g>
<!-- GenericCar&#45;&gt;StockCar -->
<g id="edge7" class="edge"><title>GenericCar&#45;&gt;StockCar</title>
<path fill="none" stroke="#d1e075" d="M567.077,-623.048C574.484,-616.917 582.363,-611.454 590.688,-607 673.285,-562.81 918.383,-586.966 1010.69,-571 1127.5,-550.795 1258.99,-514.075 1345.03,-488.09"/>
<ellipse fill="none" stroke="#d1e075" cx="563.989" cy="-625.726" rx="4.00002" ry="4.00002"/>
<polygon fill="#d1e075" stroke="#d1e075" points="1345.2,-488.038 1356.07,-489.441 1349.98,-486.586 1354.77,-485.135 1354.77,-485.135 1354.77,-485.135 1349.98,-486.586 1353.46,-480.829 1345.2,-488.038 1345.2,-488.038"/>
</g>
<!-- GenericFamily -->
<g id="node10" class="node"><title>GenericFamily</title>
<path fill="none" stroke="black" d="M854.748,-926.5C854.748,-926.5 988.628,-926.5 988.628,-926.5 994.628,-926.5 1000.63,-932.5 1000.63,-938.5 1000.63,-938.5 1000.63,-1014.5 1000.63,-1014.5 1000.63,-1020.5 994.628,-1026.5 988.628,-1026.5 988.628,-1026.5 854.748,-1026.5 854.748,-1026.5 848.748,-1026.5 842.748,-1020.5 842.748,-1014.5 842.748,-1014.5 842.748,-938.5 842.748,-938.5 842.748,-932.5 848.748,-926.5 854.748,-926.5"/>
<text text-anchor="middle" x="921.688" y="-1011.3" font-family="Times,serif" font-size="14.00">GenericFamily</text>
<polyline fill="none" stroke="black" points="842.748,-1004.5 1000.63,-1004.5 "/>
<text text-anchor="start" x="850.748" y="-989.3" font-family="Times,serif" font-size="14.00">id :integer</text>
<text text-anchor="start" x="850.748" y="-975.3" font-family="Times,serif" font-size="14.00">generic_spare_id :integer</text>
<text text-anchor="start" x="850.748" y="-961.3" font-family="Times,serif" font-size="14.00">description :text</text>
<text text-anchor="start" x="850.748" y="-947.3" font-family="Times,serif" font-size="14.00">created_at :datetime</text>
<text text-anchor="start" x="850.748" y="-933.3" font-family="Times,serif" font-size="14.00">updated_at :datetime</text>
</g>
<!-- GenericFamily&#45;&gt;CarLikelihood -->
<g id="edge12" class="edge"><title>GenericFamily&#45;&gt;CarLikelihood</title>
<path fill="none" stroke="#ebcac6" d="M835.861,-927.711C807.207,-909.382 776.329,-886.84 751.688,-862 731.757,-841.909 713.902,-816.324 699.905,-793.428"/>
<ellipse fill="none" stroke="#ebcac6" cx="839.324" cy="-929.9" rx="4.00002" ry="4.00002"/>
<polygon fill="#ebcac6" stroke="#ebcac6" points="699.875,-793.378 698.593,-782.487 697.304,-789.09 694.733,-784.801 694.733,-784.801 694.733,-784.801 697.304,-789.09 690.874,-787.115 699.875,-793.378 699.875,-793.378"/>
</g>
<!-- GenericFamily&#45;&gt;FamilyAcronym -->
<g id="edge16" class="edge"><title>GenericFamily&#45;&gt;FamilyAcronym</title>
<path fill="none" stroke="#4a2fd1" d="M979.11,-920.78C988.94,-912.647 999.332,-904.744 1009.69,-898 1041.68,-877.165 1058.24,-886.298 1087.69,-862 1110.73,-842.986 1130.83,-816.836 1146.24,-793.244"/>
<ellipse fill="none" stroke="#4a2fd1" cx="975.797" cy="-923.571" rx="4.00002" ry="4.00002"/>
<polygon fill="#4a2fd1" stroke="#4a2fd1" points="1146.32,-793.117 1155.49,-787.106 1149.01,-788.901 1151.7,-784.686 1151.7,-784.686 1151.7,-784.686 1149.01,-788.901 1147.9,-782.266 1146.32,-793.117 1146.32,-793.117"/>
</g>
<!-- GenericFamily&#45;&gt;GenericCar -->
<g id="edge13" class="edge"><title>GenericFamily&#45;&gt;GenericCar</title>
<path fill="none" stroke="#a7cd0c" d="M833.006,-938.662C798.818,-925.069 759.214,-910.057 722.688,-898 664.943,-878.94 641.498,-895.408 590.688,-862 584.083,-857.658 577.711,-852.742 571.6,-847.433"/>
<polygon fill="#a7cd0c" stroke="#a7cd0c" points="833.212,-938.744 840.829,-946.633 837.855,-940.599 842.498,-942.454 842.498,-942.454 842.498,-942.454 837.855,-940.599 844.168,-938.276 833.212,-938.744 833.212,-938.744"/>
<polygon fill="#a7cd0c" stroke="#a7cd0c" points="571.393,-847.244 567.031,-837.183 567.696,-843.877 564,-840.51 564,-840.51 564,-840.51 567.696,-843.877 560.97,-843.837 571.393,-847.244 571.393,-847.244"/>
</g>
<!-- GenericFamily&#45;&gt;GenericSpare -->
<g id="edge15" class="edge"><title>GenericFamily&#45;&gt;GenericSpare</title>
<path fill="none" stroke="#d9fa44" d="M834.662,-922.095C814.757,-905.445 796.114,-885.248 784.688,-862 758.384,-808.48 760.862,-647.844 765.481,-546.131"/>
<polygon fill="#d9fa44" stroke="#d9fa44" points="834.861,-922.255 839.815,-932.038 838.751,-925.396 842.642,-928.537 842.642,-928.537 842.642,-928.537 838.751,-925.396 845.468,-925.035 834.861,-922.255 834.861,-922.255"/>
<polygon fill="#d9fa44" stroke="#d9fa44" points="765.494,-545.856 770.459,-536.078 765.729,-540.861 765.964,-535.867 765.964,-535.867 765.964,-535.867 765.729,-540.861 761.469,-535.656 765.494,-545.856 765.494,-545.856"/>
</g>
<!-- SpareLikelihood -->
<g id="node20" class="node"><title>SpareLikelihood</title>
<path fill="none" stroke="black" d="M914.244,-165.5C914.244,-165.5 1055.13,-165.5 1055.13,-165.5 1061.13,-165.5 1067.13,-171.5 1067.13,-177.5 1067.13,-177.5 1067.13,-253.5 1067.13,-253.5 1067.13,-259.5 1061.13,-265.5 1055.13,-265.5 1055.13,-265.5 914.244,-265.5 914.244,-265.5 908.244,-265.5 902.244,-259.5 902.244,-253.5 902.244,-253.5 902.244,-177.5 902.244,-177.5 902.244,-171.5 908.244,-165.5 914.244,-165.5"/>
<text text-anchor="middle" x="984.688" y="-250.3" font-family="Times,serif" font-size="14.00">SpareLikelihood</text>
<polyline fill="none" stroke="black" points="902.244,-243.5 1067.13,-243.5 "/>
<text text-anchor="start" x="910.244" y="-228.3" font-family="Times,serif" font-size="14.00">id :integer</text>
<text text-anchor="start" x="910.244" y="-214.3" font-family="Times,serif" font-size="14.00">generic_spare_id :integer</text>
<text text-anchor="start" x="910.244" y="-200.3" font-family="Times,serif" font-size="14.00">generic_family_id :integer</text>
<text text-anchor="start" x="910.244" y="-186.3" font-family="Times,serif" font-size="14.00">created_at :datetime</text>
<text text-anchor="start" x="910.244" y="-172.3" font-family="Times,serif" font-size="14.00">updated_at :datetime</text>
</g>
<!-- GenericFamily&#45;&gt;SpareLikelihood -->
<g id="edge14" class="edge"><title>GenericFamily&#45;&gt;SpareLikelihood</title>
<path fill="none" stroke="#f408c5" d="M973.734,-921.047C984.801,-912.072 997.002,-903.815 1009.69,-898 1062.71,-873.694 1231.38,-905.982 1269.69,-862 1429.05,-679.053 1171.25,-392.825 1046.38,-272.624"/>
<ellipse fill="none" stroke="#f408c5" cx="970.418" cy="-923.83" rx="4.00002" ry="4.00002"/>
<polygon fill="#f408c5" stroke="#f408c5" points="1046.3,-272.553 1042.19,-262.388 1042.69,-269.096 1039.08,-265.64 1039.08,-265.64 1039.08,-265.64 1042.69,-269.096 1035.97,-268.892 1046.3,-272.553 1046.3,-272.553"/>
</g>
<!-- StockFamily -->
<g id="node23" class="node"><title>StockFamily</title>
<path fill="none" stroke="black" d="M957.182,-698.5C957.182,-698.5 1066.19,-698.5 1066.19,-698.5 1072.19,-698.5 1078.19,-704.5 1078.19,-710.5 1078.19,-710.5 1078.19,-758.5 1078.19,-758.5 1078.19,-764.5 1072.19,-770.5 1066.19,-770.5 1066.19,-770.5 957.182,-770.5 957.182,-770.5 951.182,-770.5 945.182,-764.5 945.182,-758.5 945.182,-758.5 945.182,-710.5 945.182,-710.5 945.182,-704.5 951.182,-698.5 957.182,-698.5"/>
<text text-anchor="middle" x="1011.69" y="-755.3" font-family="Times,serif" font-size="14.00">StockFamily</text>
<polyline fill="none" stroke="black" points="945.182,-748.5 1078.19,-748.5 "/>
<text text-anchor="start" x="953.182" y="-733.3" font-family="Times,serif" font-size="14.00">id :integer</text>
<text text-anchor="start" x="953.182" y="-719.3" font-family="Times,serif" font-size="14.00">created_at :datetime</text>
<text text-anchor="start" x="953.182" y="-705.3" font-family="Times,serif" font-size="14.00">updated_at :datetime</text>
</g>
<!-- GenericFamily&#45;&gt;StockFamily -->
<g id="edge17" class="edge"><title>GenericFamily&#45;&gt;StockFamily</title>
<path fill="none" stroke="#afc7b2" d="M942.934,-918.844C958.827,-876.461 980.263,-819.3 994.95,-780.135"/>
<ellipse fill="none" stroke="#afc7b2" cx="941.522" cy="-922.608" rx="4.00001" ry="4.00001"/>
<polygon fill="#afc7b2" stroke="#afc7b2" points="995.02,-779.948 1002.74,-772.165 996.775,-775.266 998.531,-770.585 998.531,-770.585 998.531,-770.585 996.775,-775.266 994.317,-769.005 995.02,-779.948 995.02,-779.948"/>
</g>
<!-- GenericSpare&#45;&gt;GenericFittable -->
<g id="edge18" class="edge"><title>GenericSpare&#45;&gt;GenericFittable</title>
<path fill="none" stroke="#24417f" d="M717.955,-372.711C710.549,-362.712 702.713,-352.905 694.688,-344 671.492,-318.262 643.056,-293.064 617.08,-271.957"/>
<ellipse fill="none" stroke="#24417f" cx="720.401" cy="-376.069" rx="4.00002" ry="4.00002"/>
<polygon fill="#24417f" stroke="#24417f" points="616.897,-271.81 611.926,-262.035 613.001,-268.676 609.106,-265.541 609.106,-265.541 609.106,-265.541 613.001,-268.676 606.285,-269.047 616.897,-271.81 616.897,-271.81"/>
</g>
<!-- GenericSpareImage -->
<g id="node13" class="node"><title>GenericSpareImage</title>
<path fill="none" stroke="black" d="M707.238,-172.5C707.238,-172.5 834.138,-172.5 834.138,-172.5 840.138,-172.5 846.138,-178.5 846.138,-184.5 846.138,-184.5 846.138,-246.5 846.138,-246.5 846.138,-252.5 840.138,-258.5 834.138,-258.5 834.138,-258.5 707.238,-258.5 707.238,-258.5 701.238,-258.5 695.238,-252.5 695.238,-246.5 695.238,-246.5 695.238,-184.5 695.238,-184.5 695.238,-178.5 701.238,-172.5 707.238,-172.5"/>
<text text-anchor="middle" x="770.688" y="-243.3" font-family="Times,serif" font-size="14.00">GenericSpareImage</text>
<polyline fill="none" stroke="black" points="695.238,-236.5 846.138,-236.5 "/>
<text text-anchor="start" x="703.238" y="-221.3" font-family="Times,serif" font-size="14.00">id :integer</text>
<text text-anchor="start" x="703.238" y="-207.3" font-family="Times,serif" font-size="14.00">generic_spare_id :string</text>
<text text-anchor="start" x="703.238" y="-193.3" font-family="Times,serif" font-size="14.00">created_at :datetime</text>
<text text-anchor="start" x="703.238" y="-179.3" font-family="Times,serif" font-size="14.00">updated_at :datetime</text>
</g>
<!-- GenericSpare&#45;&gt;GenericSpareImage -->
<g id="edge21" class="edge"><title>GenericSpare&#45;&gt;GenericSpareImage</title>
<path fill="none" stroke="#5f6fb3" d="M770.688,-371.18C770.688,-337.034 770.688,-298.789 770.688,-268.871"/>
<ellipse fill="none" stroke="#5f6fb3" cx="770.688" cy="-375.241" rx="4" ry="4"/>
<polygon fill="#5f6fb3" stroke="#5f6fb3" points="770.688,-268.657 775.188,-258.657 770.688,-263.657 770.688,-258.657 770.688,-258.657 770.688,-258.657 770.688,-263.657 766.188,-258.657 770.688,-268.657 770.688,-268.657"/>
</g>
<!-- GenericSpare&#45;&gt;SpareLikelihood -->
<g id="edge19" class="edge"><title>GenericSpare&#45;&gt;SpareLikelihood</title>
<path fill="none" stroke="#43357f" d="M824.014,-372.833C831.296,-362.856 838.941,-353.021 846.688,-344 868.26,-318.879 894.423,-293.632 918.144,-272.31"/>
<ellipse fill="none" stroke="#43357f" cx="821.62" cy="-376.157" rx="4.00002" ry="4.00002"/>
<polygon fill="#43357f" stroke="#43357f" points="918.286,-272.183 928.745,-268.889 922.018,-268.857 925.751,-265.53 925.751,-265.53 925.751,-265.53 922.018,-268.857 922.757,-262.17 918.286,-272.183 918.286,-272.183"/>
</g>
<!-- StockSpare -->
<g id="node24" class="node"><title>StockSpare</title>
<path fill="none" stroke="black" d="M1170.75,-123.5C1170.75,-123.5 1304.63,-123.5 1304.63,-123.5 1310.63,-123.5 1316.63,-129.5 1316.63,-135.5 1316.63,-135.5 1316.63,-295.5 1316.63,-295.5 1316.63,-301.5 1310.63,-307.5 1304.63,-307.5 1304.63,-307.5 1170.75,-307.5 1170.75,-307.5 1164.75,-307.5 1158.75,-301.5 1158.75,-295.5 1158.75,-295.5 1158.75,-135.5 1158.75,-135.5 1158.75,-129.5 1164.75,-123.5 1170.75,-123.5"/>
<text text-anchor="middle" x="1237.69" y="-292.3" font-family="Times,serif" font-size="14.00">StockSpare</text>
<polyline fill="none" stroke="black" points="1158.75,-285.5 1316.63,-285.5 "/>
<text text-anchor="start" x="1166.75" y="-270.3" font-family="Times,serif" font-size="14.00">id :integer</text>
<text text-anchor="start" x="1166.75" y="-256.3" font-family="Times,serif" font-size="14.00">car_id :integer</text>
<text text-anchor="start" x="1166.75" y="-242.3" font-family="Times,serif" font-size="14.00">warehouse_id :integer</text>
<text text-anchor="start" x="1166.75" y="-228.3" font-family="Times,serif" font-size="14.00">generic_spare_id :integer</text>
<text text-anchor="start" x="1166.75" y="-214.3" font-family="Times,serif" font-size="14.00">status :string</text>
<text text-anchor="start" x="1166.75" y="-200.3" font-family="Times,serif" font-size="14.00">description :text</text>
<text text-anchor="start" x="1166.75" y="-186.3" font-family="Times,serif" font-size="14.00">code :string</text>
<text text-anchor="start" x="1166.75" y="-172.3" font-family="Times,serif" font-size="14.00">color :string</text>
<text text-anchor="start" x="1166.75" y="-158.3" font-family="Times,serif" font-size="14.00">created_at :datetime</text>
<text text-anchor="start" x="1166.75" y="-144.3" font-family="Times,serif" font-size="14.00">updated_at :datetime</text>
<text text-anchor="start" x="1166.75" y="-130.3" font-family="Times,serif" font-size="14.00">stock_family_id :integer</text>
</g>
<!-- GenericSpare&#45;&gt;StockSpare -->
<g id="edge20" class="edge"><title>GenericSpare&#45;&gt;StockSpare</title>
<path fill="none" stroke="#1a4ee2" d="M815.429,-372.623C824.466,-361.578 834.882,-351.505 846.688,-344 933.632,-288.724 978.389,-341.876 1075.69,-308 1100.71,-299.289 1126.33,-286.767 1149.59,-273.77"/>
<ellipse fill="none" stroke="#1a4ee2" cx="812.73" cy="-376.075" rx="4.00002" ry="4.00002"/>
<polygon fill="#1a4ee2" stroke="#1a4ee2" points="1149.69,-273.713 1160.61,-272.685 1154.04,-271.243 1158.38,-268.773 1158.38,-268.773 1158.38,-268.773 1154.04,-271.243 1156.16,-264.86 1149.69,-273.713 1149.69,-273.713"/>
</g>
<!-- Insured -->
<g id="node14" class="node"><title>Insured</title>
<path fill="none" stroke="black" d="M1552.63,-386.5C1552.63,-386.5 1678.75,-386.5 1678.75,-386.5 1684.75,-386.5 1690.75,-392.5 1690.75,-398.5 1690.75,-398.5 1690.75,-516.5 1690.75,-516.5 1690.75,-522.5 1684.75,-528.5 1678.75,-528.5 1678.75,-528.5 1552.63,-528.5 1552.63,-528.5 1546.63,-528.5 1540.63,-522.5 1540.63,-516.5 1540.63,-516.5 1540.63,-398.5 1540.63,-398.5 1540.63,-392.5 1546.63,-386.5 1552.63,-386.5"/>
<text text-anchor="middle" x="1615.69" y="-513.3" font-family="Times,serif" font-size="14.00">Insured</text>
<polyline fill="none" stroke="black" points="1540.63,-506.5 1690.75,-506.5 "/>
<text text-anchor="start" x="1548.63" y="-491.3" font-family="Times,serif" font-size="14.00">id :integer</text>
<text text-anchor="start" x="1548.63" y="-477.3" font-family="Times,serif" font-size="14.00">prevaluation_id :integer</text>
<text text-anchor="start" x="1548.63" y="-463.3" font-family="Times,serif" font-size="14.00">third :boolean</text>
<text text-anchor="start" x="1548.63" y="-449.3" font-family="Times,serif" font-size="14.00">name :string</text>
<text text-anchor="start" x="1548.63" y="-435.3" font-family="Times,serif" font-size="14.00">telephone :integer</text>
<text text-anchor="start" x="1548.63" y="-421.3" font-family="Times,serif" font-size="14.00">email :string</text>
<text text-anchor="start" x="1548.63" y="-407.3" font-family="Times,serif" font-size="14.00">created_at :datetime</text>
<text text-anchor="start" x="1548.63" y="-393.3" font-family="Times,serif" font-size="14.00">updated_at :datetime</text>
</g>
<!-- MoldComponent -->
<g id="node16" class="node"><title>MoldComponent</title>
<path fill="none" stroke="black" d="M867.955,-407.5C867.955,-407.5 989.421,-407.5 989.421,-407.5 995.421,-407.5 1001.42,-413.5 1001.42,-419.5 1001.42,-419.5 1001.42,-495.5 1001.42,-495.5 1001.42,-501.5 995.421,-507.5 989.421,-507.5 989.421,-507.5 867.955,-507.5 867.955,-507.5 861.955,-507.5 855.955,-501.5 855.955,-495.5 855.955,-495.5 855.955,-419.5 855.955,-419.5 855.955,-413.5 861.955,-407.5 867.955,-407.5"/>
<text text-anchor="middle" x="928.688" y="-492.3" font-family="Times,serif" font-size="14.00">MoldComponent</text>
<polyline fill="none" stroke="black" points="855.955,-485.5 1001.42,-485.5 "/>
<text text-anchor="start" x="863.955" y="-470.3" font-family="Times,serif" font-size="14.00">id :integer</text>
<text text-anchor="start" x="863.955" y="-456.3" font-family="Times,serif" font-size="14.00">name :string</text>
<text text-anchor="start" x="863.955" y="-442.3" font-family="Times,serif" font-size="14.00">mold_spare_id :integer</text>
<text text-anchor="start" x="863.955" y="-428.3" font-family="Times,serif" font-size="14.00">created_at :datetime</text>
<text text-anchor="start" x="863.955" y="-414.3" font-family="Times,serif" font-size="14.00">updated_at :datetime</text>
</g>
<!-- MoldSpare -->
<g id="node17" class="node"><title>MoldSpare</title>
<path fill="none" stroke="black" d="M806.182,-670.5C806.182,-670.5 915.193,-670.5 915.193,-670.5 921.193,-670.5 927.193,-676.5 927.193,-682.5 927.193,-682.5 927.193,-786.5 927.193,-786.5 927.193,-792.5 921.193,-798.5 915.193,-798.5 915.193,-798.5 806.182,-798.5 806.182,-798.5 800.182,-798.5 794.182,-792.5 794.182,-786.5 794.182,-786.5 794.182,-682.5 794.182,-682.5 794.182,-676.5 800.182,-670.5 806.182,-670.5"/>
<text text-anchor="middle" x="860.688" y="-783.3" font-family="Times,serif" font-size="14.00">MoldSpare</text>
<polyline fill="none" stroke="black" points="794.182,-776.5 927.193,-776.5 "/>
<text text-anchor="start" x="802.182" y="-761.3" font-family="Times,serif" font-size="14.00">id :integer</text>
<text text-anchor="start" x="802.182" y="-747.3" font-family="Times,serif" font-size="14.00">name :string</text>
<text text-anchor="start" x="802.182" y="-733.3" font-family="Times,serif" font-size="14.00">comment :string</text>
<text text-anchor="start" x="802.182" y="-719.3" font-family="Times,serif" font-size="14.00">mold_type :string</text>
<text text-anchor="start" x="802.182" y="-705.3" font-family="Times,serif" font-size="14.00">code :string</text>
<text text-anchor="start" x="802.182" y="-691.3" font-family="Times,serif" font-size="14.00">created_at :datetime</text>
<text text-anchor="start" x="802.182" y="-677.3" font-family="Times,serif" font-size="14.00">updated_at :datetime</text>
</g>
<!-- MoldSpare&#45;&gt;GenericSpare -->
<g id="edge22" class="edge"><title>MoldSpare&#45;&gt;GenericSpare</title>
<path fill="none" stroke="#ae06a8" d="M837.533,-662.751C825.832,-626.997 811.529,-583.292 799.16,-545.499"/>
<ellipse fill="none" stroke="#ae06a8" cx="838.796" cy="-666.608" rx="4.00001" ry="4.00001"/>
<polygon fill="#ae06a8" stroke="#ae06a8" points="799.004,-545.023 800.171,-534.119 797.449,-540.271 795.894,-535.519 795.894,-535.519 795.894,-535.519 797.449,-540.271 791.617,-536.918 799.004,-545.023 799.004,-545.023"/>
</g>
<!-- MoldSpare&#45;&gt;MoldComponent -->
<g id="edge23" class="edge"><title>MoldSpare&#45;&gt;MoldComponent</title>
<path fill="none" stroke="#8ea32c" d="M878.26,-662.435C889.385,-617.446 903.598,-559.966 914.098,-517.504"/>
<ellipse fill="none" stroke="#8ea32c" cx="877.249" cy="-666.526" rx="4.00001" ry="4.00001"/>
<polygon fill="#8ea32c" stroke="#8ea32c" points="914.147,-517.303 920.916,-508.675 915.348,-512.449 916.548,-507.595 916.548,-507.595 916.548,-507.595 915.348,-512.449 912.179,-506.515 914.147,-517.303 914.147,-517.303"/>
</g>
<!-- Prevaluation -->
<g id="node18" class="node"><title>Prevaluation</title>
<path fill="none" stroke="black" d="M1629.79,-607.5C1629.79,-607.5 1767.59,-607.5 1767.59,-607.5 1773.59,-607.5 1779.59,-613.5 1779.59,-619.5 1779.59,-619.5 1779.59,-849.5 1779.59,-849.5 1779.59,-855.5 1773.59,-861.5 1767.59,-861.5 1767.59,-861.5 1629.79,-861.5 1629.79,-861.5 1623.79,-861.5 1617.79,-855.5 1617.79,-849.5 1617.79,-849.5 1617.79,-619.5 1617.79,-619.5 1617.79,-613.5 1623.79,-607.5 1629.79,-607.5"/>
<text text-anchor="middle" x="1698.69" y="-846.3" font-family="Times,serif" font-size="14.00">Prevaluation</text>
<polyline fill="none" stroke="black" points="1617.79,-839.5 1779.59,-839.5 "/>
<text text-anchor="start" x="1625.79" y="-824.3" font-family="Times,serif" font-size="14.00">id :integer</text>
<text text-anchor="start" x="1625.79" y="-810.3" font-family="Times,serif" font-size="14.00">number :string</text>
<text text-anchor="start" x="1625.79" y="-796.3" font-family="Times,serif" font-size="14.00">policy :string</text>
<text text-anchor="start" x="1625.79" y="-782.3" font-family="Times,serif" font-size="14.00">subsection :string</text>
<text text-anchor="start" x="1625.79" y="-768.3" font-family="Times,serif" font-size="14.00">expedition_date :date</text>
<text text-anchor="start" x="1625.79" y="-754.3" font-family="Times,serif" font-size="14.00">valuation_date :date</text>
<text text-anchor="start" x="1625.79" y="-740.3" font-family="Times,serif" font-size="14.00">deductible_value :float</text>
<text text-anchor="start" x="1625.79" y="-726.3" font-family="Times,serif" font-size="14.00">commercial_value :float</text>
<text text-anchor="start" x="1625.79" y="-712.3" font-family="Times,serif" font-size="14.00">requires_crane :boolean</text>
<text text-anchor="start" x="1625.79" y="-698.3" font-family="Times,serif" font-size="14.00">collection_status :boolean</text>
<text text-anchor="start" x="1625.79" y="-684.3" font-family="Times,serif" font-size="14.00">special_conditions :string</text>
<text text-anchor="start" x="1625.79" y="-670.3" font-family="Times,serif" font-size="14.00">third_insured :boolean</text>
<text text-anchor="start" x="1625.79" y="-656.3" font-family="Times,serif" font-size="14.00">agent_name :string</text>
<text text-anchor="start" x="1625.79" y="-642.3" font-family="Times,serif" font-size="14.00">comment :text</text>
<text text-anchor="start" x="1625.79" y="-628.3" font-family="Times,serif" font-size="14.00">created_at :datetime</text>
<text text-anchor="start" x="1625.79" y="-614.3" font-family="Times,serif" font-size="14.00">updated_at :datetime</text>
</g>
<!-- Prevaluation&#45;&gt;Insured -->
<g id="edge25" class="edge"><title>Prevaluation&#45;&gt;Insured</title>
<path fill="none" stroke="#a76150" d="M1658.2,-599.354C1651.93,-578.575 1645.63,-557.693 1639.87,-538.609"/>
<ellipse fill="none" stroke="#a76150" cx="1659.43" cy="-603.439" rx="4.00001" ry="4.00001"/>
<polygon fill="#a76150" stroke="#a76150" points="1639.8,-538.377 1641.21,-527.503 1638.35,-533.59 1636.91,-528.803 1636.91,-528.803 1636.91,-528.803 1638.35,-533.59 1632.6,-530.104 1639.8,-538.377 1639.8,-538.377"/>
</g>
<!-- PrevaluationImage -->
<g id="node19" class="node"><title>PrevaluationImage</title>
<path fill="none" stroke="black" d="M1721.12,-414.5C1721.12,-414.5 1840.26,-414.5 1840.26,-414.5 1846.26,-414.5 1852.26,-420.5 1852.26,-426.5 1852.26,-426.5 1852.26,-488.5 1852.26,-488.5 1852.26,-494.5 1846.26,-500.5 1840.26,-500.5 1840.26,-500.5 1721.12,-500.5 1721.12,-500.5 1715.12,-500.5 1709.12,-494.5 1709.12,-488.5 1709.12,-488.5 1709.12,-426.5 1709.12,-426.5 1709.12,-420.5 1715.12,-414.5 1721.12,-414.5"/>
<text text-anchor="middle" x="1780.69" y="-485.3" font-family="Times,serif" font-size="14.00">PrevaluationImage</text>
<polyline fill="none" stroke="black" points="1709.12,-478.5 1852.26,-478.5 "/>
<text text-anchor="start" x="1717.12" y="-463.3" font-family="Times,serif" font-size="14.00">id :integer</text>
<text text-anchor="start" x="1717.12" y="-449.3" font-family="Times,serif" font-size="14.00">prevaluation_id :string</text>
<text text-anchor="start" x="1717.12" y="-435.3" font-family="Times,serif" font-size="14.00">created_at :datetime</text>
<text text-anchor="start" x="1717.12" y="-421.3" font-family="Times,serif" font-size="14.00">updated_at :datetime</text>
</g>
<!-- Prevaluation&#45;&gt;PrevaluationImage -->
<g id="edge27" class="edge"><title>Prevaluation&#45;&gt;PrevaluationImage</title>
<path fill="none" stroke="#fa4521" d="M1738.75,-599.154C1748.17,-567.545 1757.66,-535.715 1765.23,-510.348"/>
<ellipse fill="none" stroke="#fa4521" cx="1737.47" cy="-603.435" rx="4.00001" ry="4.00001"/>
<polygon fill="#fa4521" stroke="#fa4521" points="1765.28,-510.186 1772.45,-501.889 1766.7,-505.395 1768.13,-500.603 1768.13,-500.603 1768.13,-500.603 1766.7,-505.395 1763.82,-499.318 1765.28,-510.186 1765.28,-510.186"/>
</g>
<!-- Prevaluation&#45;&gt;StockCar -->
<g id="edge24" class="edge"><title>Prevaluation&#45;&gt;StockCar</title>
<path fill="none" stroke="#0c732d" d="M1611.59,-652.208C1585.32,-626.777 1556.8,-598.233 1531.69,-571 1530.82,-570.057 1529.95,-569.107 1529.07,-568.151"/>
<ellipse fill="none" stroke="#0c732d" cx="1614.63" cy="-655.144" rx="4.00002" ry="4.00002"/>
<polygon fill="#0c732d" stroke="#0c732d" points="1529.06,-568.135 1525.69,-557.698 1525.71,-564.425 1522.36,-560.715 1522.36,-560.715 1522.36,-560.715 1525.71,-564.425 1519.02,-563.732 1529.06,-568.135 1529.06,-568.135"/>
</g>
<!-- Valuation -->
<g id="node27" class="node"><title>Valuation</title>
<path fill="none" stroke="black" d="M1882.18,-407.5C1882.18,-407.5 1991.19,-407.5 1991.19,-407.5 1997.19,-407.5 2003.19,-413.5 2003.19,-419.5 2003.19,-419.5 2003.19,-495.5 2003.19,-495.5 2003.19,-501.5 1997.19,-507.5 1991.19,-507.5 1991.19,-507.5 1882.18,-507.5 1882.18,-507.5 1876.18,-507.5 1870.18,-501.5 1870.18,-495.5 1870.18,-495.5 1870.18,-419.5 1870.18,-419.5 1870.18,-413.5 1876.18,-407.5 1882.18,-407.5"/>
<text text-anchor="middle" x="1936.69" y="-492.3" font-family="Times,serif" font-size="14.00">Valuation</text>
<polyline fill="none" stroke="black" points="1870.18,-485.5 2003.19,-485.5 "/>
<text text-anchor="start" x="1878.18" y="-470.3" font-family="Times,serif" font-size="14.00">id :integer</text>
<text text-anchor="start" x="1878.18" y="-456.3" font-family="Times,serif" font-size="14.00">client_code :string</text>
<text text-anchor="start" x="1878.18" y="-442.3" font-family="Times,serif" font-size="14.00">edited_by :string</text>
<text text-anchor="start" x="1878.18" y="-428.3" font-family="Times,serif" font-size="14.00">created_at :datetime</text>
<text text-anchor="start" x="1878.18" y="-414.3" font-family="Times,serif" font-size="14.00">updated_at :datetime</text>
</g>
<!-- Prevaluation&#45;&gt;Valuation -->
<g id="edge26" class="edge"><title>Prevaluation&#45;&gt;Valuation</title>
<path fill="none" stroke="#8cdbc7" d="M1785.69,-653.117C1811.28,-627.829 1838.58,-599.137 1861.69,-571 1876.15,-553.388 1890.43,-532.956 1902.58,-514.375"/>
<ellipse fill="none" stroke="#8cdbc7" cx="1782.77" cy="-655.99" rx="4.00002" ry="4.00002"/>
<ellipse fill="#8cdbc7" stroke="#8cdbc7" cx="1904.78" cy="-510.978" rx="4.00002" ry="4.00002"/>
</g>
<!-- StockCarImage -->
<g id="node22" class="node"><title>StockCarImage</title>
<path fill="none" stroke="black" d="M1383.79,-172.5C1383.79,-172.5 1493.58,-172.5 1493.58,-172.5 1499.58,-172.5 1505.58,-178.5 1505.58,-184.5 1505.58,-184.5 1505.58,-246.5 1505.58,-246.5 1505.58,-252.5 1499.58,-258.5 1493.58,-258.5 1493.58,-258.5 1383.79,-258.5 1383.79,-258.5 1377.79,-258.5 1371.79,-252.5 1371.79,-246.5 1371.79,-246.5 1371.79,-184.5 1371.79,-184.5 1371.79,-178.5 1377.79,-172.5 1383.79,-172.5"/>
<text text-anchor="middle" x="1438.69" y="-243.3" font-family="Times,serif" font-size="14.00">StockCarImage</text>
<polyline fill="none" stroke="black" points="1371.79,-236.5 1505.58,-236.5 "/>
<text text-anchor="start" x="1379.79" y="-221.3" font-family="Times,serif" font-size="14.00">id :integer</text>
<text text-anchor="start" x="1379.79" y="-207.3" font-family="Times,serif" font-size="14.00">stock_car_id :integer</text>
<text text-anchor="start" x="1379.79" y="-193.3" font-family="Times,serif" font-size="14.00">created_at :datetime</text>
<text text-anchor="start" x="1379.79" y="-179.3" font-family="Times,serif" font-size="14.00">updated_at :datetime</text>
</g>
<!-- StockCar&#45;&gt;StockCarImage -->
<g id="edge28" class="edge"><title>StockCar&#45;&gt;StockCarImage</title>
<path fill="none" stroke="#84ae2b" d="M1438.69,-335.999C1438.69,-312.316 1438.69,-288.66 1438.69,-268.72"/>
<ellipse fill="none" stroke="#84ae2b" cx="1438.69" cy="-340.23" rx="4" ry="4"/>
<polygon fill="#84ae2b" stroke="#84ae2b" points="1438.69,-268.65 1443.19,-258.65 1438.69,-263.65 1438.69,-258.65 1438.69,-258.65 1438.69,-258.65 1438.69,-263.65 1434.19,-258.65 1438.69,-268.65 1438.69,-268.65"/>
</g>
<!-- StockSpareImage -->
<g id="node25" class="node"><title>StockSpareImage</title>
<path fill="none" stroke="black" d="M1176.57,-0.5C1176.57,-0.5 1298.81,-0.5 1298.81,-0.5 1304.81,-0.5 1310.81,-6.5 1310.81,-12.5 1310.81,-12.5 1310.81,-74.5 1310.81,-74.5 1310.81,-80.5 1304.81,-86.5 1298.81,-86.5 1298.81,-86.5 1176.57,-86.5 1176.57,-86.5 1170.57,-86.5 1164.57,-80.5 1164.57,-74.5 1164.57,-74.5 1164.57,-12.5 1164.57,-12.5 1164.57,-6.5 1170.57,-0.5 1176.57,-0.5"/>
<text text-anchor="middle" x="1237.69" y="-71.3" font-family="Times,serif" font-size="14.00">StockSpareImage</text>
<polyline fill="none" stroke="black" points="1164.57,-64.5 1310.81,-64.5 "/>
<text text-anchor="start" x="1172.57" y="-49.3" font-family="Times,serif" font-size="14.00">id :integer</text>
<text text-anchor="start" x="1172.57" y="-35.3" font-family="Times,serif" font-size="14.00">stock_spare_id :integer</text>
<text text-anchor="start" x="1172.57" y="-21.3" font-family="Times,serif" font-size="14.00">created_at :datetime</text>
<text text-anchor="start" x="1172.57" y="-7.3" font-family="Times,serif" font-size="14.00">updated_at :datetime</text>
</g>
<!-- StockSpare&#45;&gt;StockSpareImage -->
<g id="edge29" class="edge"><title>StockSpare&#45;&gt;StockSpareImage</title>
<path fill="none" stroke="#2e1e39" d="M1237.69,-115.011C1237.69,-108.798 1237.69,-102.692 1237.69,-96.8296"/>
<ellipse fill="none" stroke="#2e1e39" cx="1237.69" cy="-119.031" rx="4" ry="4"/>
<polygon fill="#2e1e39" stroke="#2e1e39" points="1237.69,-96.5719 1242.19,-86.5719 1237.69,-91.5719 1237.69,-86.5719 1237.69,-86.5719 1237.69,-86.5719 1237.69,-91.5719 1233.19,-86.572 1237.69,-96.5719 1237.69,-96.5719"/>
</g>
<!-- User -->
<g id="node26" class="node"><title>User</title>
<path fill="none" stroke="black" d="M1030.62,-898.5C1030.62,-898.5 1156.75,-898.5 1156.75,-898.5 1162.75,-898.5 1168.75,-904.5 1168.75,-910.5 1168.75,-910.5 1168.75,-1042.5 1168.75,-1042.5 1168.75,-1048.5 1162.75,-1054.5 1156.75,-1054.5 1156.75,-1054.5 1030.62,-1054.5 1030.62,-1054.5 1024.62,-1054.5 1018.62,-1048.5 1018.62,-1042.5 1018.62,-1042.5 1018.62,-910.5 1018.62,-910.5 1018.62,-904.5 1024.62,-898.5 1030.62,-898.5"/>
<text text-anchor="middle" x="1093.69" y="-1039.3" font-family="Times,serif" font-size="14.00">User</text>
<polyline fill="none" stroke="black" points="1018.62,-1032.5 1168.75,-1032.5 "/>
<text text-anchor="start" x="1026.62" y="-1017.3" font-family="Times,serif" font-size="14.00">id :integer</text>
<text text-anchor="start" x="1026.62" y="-1003.3" font-family="Times,serif" font-size="14.00">name :string</text>
<text text-anchor="start" x="1026.62" y="-989.3" font-family="Times,serif" font-size="14.00">email :string</text>
<text text-anchor="start" x="1026.62" y="-975.3" font-family="Times,serif" font-size="14.00">username :string</text>
<text text-anchor="start" x="1026.62" y="-961.3" font-family="Times,serif" font-size="14.00">privileges :string</text>
<text text-anchor="start" x="1026.62" y="-947.3" font-family="Times,serif" font-size="14.00">created_at :datetime</text>
<text text-anchor="start" x="1026.62" y="-933.3" font-family="Times,serif" font-size="14.00">updated_at :datetime</text>
<text text-anchor="start" x="1026.62" y="-919.3" font-family="Times,serif" font-size="14.00">password_digest :string</text>
<text text-anchor="start" x="1026.62" y="-905.3" font-family="Times,serif" font-size="14.00">remember_token :string</text>
</g>
<!-- Warehouse -->
<g id="node28" class="node"><title>Warehouse</title>
<path fill="none" stroke="black" d="M1357.18,-677.5C1357.18,-677.5 1466.19,-677.5 1466.19,-677.5 1472.19,-677.5 1478.19,-683.5 1478.19,-689.5 1478.19,-689.5 1478.19,-779.5 1478.19,-779.5 1478.19,-785.5 1472.19,-791.5 1466.19,-791.5 1466.19,-791.5 1357.18,-791.5 1357.18,-791.5 1351.18,-791.5 1345.18,-785.5 1345.18,-779.5 1345.18,-779.5 1345.18,-689.5 1345.18,-689.5 1345.18,-683.5 1351.18,-677.5 1357.18,-677.5"/>
<text text-anchor="middle" x="1411.69" y="-776.3" font-family="Times,serif" font-size="14.00">Warehouse</text>
<polyline fill="none" stroke="black" points="1345.18,-769.5 1478.19,-769.5 "/>
<text text-anchor="start" x="1353.18" y="-754.3" font-family="Times,serif" font-size="14.00">id :integer</text>
<text text-anchor="start" x="1353.18" y="-740.3" font-family="Times,serif" font-size="14.00">branch :string</text>
<text text-anchor="start" x="1353.18" y="-726.3" font-family="Times,serif" font-size="14.00">location :string</text>
<text text-anchor="start" x="1353.18" y="-712.3" font-family="Times,serif" font-size="14.00">geolocation :string</text>
<text text-anchor="start" x="1353.18" y="-698.3" font-family="Times,serif" font-size="14.00">created_at :datetime</text>
<text text-anchor="start" x="1353.18" y="-684.3" font-family="Times,serif" font-size="14.00">updated_at :datetime</text>
</g>
<!-- Warehouse&#45;&gt;StockCar -->
<g id="edge31" class="edge"><title>Warehouse&#45;&gt;StockCar</title>
<path fill="none" stroke="#bf9dbf" d="M1418.01,-669.086C1420.6,-642.735 1423.68,-611.335 1426.67,-580.93"/>
<ellipse fill="none" stroke="#bf9dbf" cx="1417.61" cy="-673.205" rx="4" ry="4"/>
<polygon fill="#bf9dbf" stroke="#bf9dbf" points="1426.7,-580.617 1432.15,-571.105 1427.19,-575.641 1427.68,-570.665 1427.68,-570.665 1427.68,-570.665 1427.19,-575.641 1423.2,-570.225 1426.7,-580.617 1426.7,-580.617"/>
</g>
<!-- Warehouse&#45;&gt;StockSpare -->
<g id="edge30" class="edge"><title>Warehouse&#45;&gt;StockSpare</title>
<path fill="none" stroke="#c652dc" d="M1382.45,-669.951C1369.74,-640.361 1355.52,-604.389 1345.69,-571 1316.67,-472.503 1335.9,-441.165 1302.69,-344 1299.65,-335.101 1296.08,-326.046 1292.22,-317.076"/>
<ellipse fill="none" stroke="#c652dc" cx="1384.06" cy="-673.661" rx="4.00002" ry="4.00002"/>
<polygon fill="#c652dc" stroke="#c652dc" points="1292.15,-316.911 1292.21,-305.945 1290.12,-312.34 1288.09,-307.769 1288.09,-307.769 1288.09,-307.769 1290.12,-312.34 1283.98,-309.593 1292.15,-316.911 1292.15,-316.911"/>
</g>
</g>
</svg>
