<?xml version="1.0" encoding="UTF-8" standalone="no"?>
<!DOCTYPE svg PUBLIC "-//W3C//DTD SVG 1.1//EN"
 "http://www.w3.org/Graphics/SVG/1.1/DTD/svg11.dtd">
<!-- Generated by graphviz version 2.38.0 (20140413.2041)
 -->
<!-- Title: models_diagram Pages: 1 -->
<svg width="780pt" height="297pt"
 viewBox="0.00 0.00 780.23 297.00" xmlns="http://www.w3.org/2000/svg" xmlns:xlink="http://www.w3.org/1999/xlink">
<g id="graph0" class="graph" transform="scale(1 1) rotate(0) translate(4 293)">
<title>models_diagram</title>
<polygon fill="white" stroke="none" points="-4,4 -4,-293 776.227,-293 776.227,4 -4,4"/>
<!-- _diagram_info -->
<g id="node1" class="node"><title>_diagram_info</title>
<text text-anchor="start" x="132.778" y="-274.6" font-family="Times,serif" font-size="13.00">Models diagram</text>
<text text-anchor="start" x="132.778" y="-261.6" font-family="Times,serif" font-size="13.00">Date: Nov 05 2014 &#45; 11:35</text>
<text text-anchor="start" x="132.778" y="-248.6" font-family="Times,serif" font-size="13.00">Migration version: 20141103232822</text>
<text text-anchor="start" x="132.778" y="-235.6" font-family="Times,serif" font-size="13.00">Generated by RailRoady 1.1.2</text>
<text text-anchor="start" x="132.778" y="-222.6" font-family="Times,serif" font-size="13.00">http://railroady.prestonlee.com</text>
</g>
<!-- Car -->
<g id="node2" class="node"><title>Car</title>
<ellipse fill="none" stroke="black" cx="208.228" cy="-90" rx="27" ry="18"/>
<text text-anchor="middle" x="208.228" y="-85.8" font-family="Times,serif" font-size="14.00">Car</text>
</g>
<!-- CarSpareAlloy -->
<g id="node3" class="node"><title>CarSpareAlloy</title>
<ellipse fill="none" stroke="black" cx="144.228" cy="-18" rx="63.3097" ry="18"/>
<text text-anchor="middle" x="144.228" y="-13.8" font-family="Times,serif" font-size="14.00">CarSpareAlloy</text>
</g>
<!-- GenericCar -->
<g id="node4" class="node"><title>GenericCar</title>
<ellipse fill="none" stroke="black" cx="129.228" cy="-162" rx="50.7224" ry="18"/>
<text text-anchor="middle" x="129.228" y="-157.8" font-family="Times,serif" font-size="14.00">GenericCar</text>
</g>
<!-- GenericCar&#45;&gt;Car -->
<g id="edge3" class="edge"><title>GenericCar&#45;&gt;Car</title>
<path fill="none" stroke="#6ebcf5" d="M153.181,-139.776C163.248,-130.856 174.917,-120.516 184.914,-111.657"/>
<ellipse fill="none" stroke="#6ebcf5" cx="150.148" cy="-142.463" rx="4.00002" ry="4.00002"/>
<polygon fill="#6ebcf5" stroke="#6ebcf5" points="185.026,-111.558 195.495,-108.295 188.768,-108.242 192.511,-104.927 192.511,-104.927 192.511,-104.927 188.768,-108.242 189.526,-101.558 185.026,-111.558 185.026,-111.558"/>
</g>
<!-- GenericCar&#45;&gt;CarSpareAlloy -->
<g id="edge4" class="edge"><title>GenericCar&#45;&gt;CarSpareAlloy</title>
<path fill="none" stroke="#221888" d="M131.915,-135.558C134.568,-110.444 138.612,-72.164 141.334,-46.3932"/>
<ellipse fill="none" stroke="#221888" cx="131.457" cy="-139.894" rx="4" ry="4"/>
<polygon fill="#221888" stroke="#221888" points="141.361,-46.1339 146.887,-36.662 141.887,-41.1616 142.412,-36.1893 142.412,-36.1893 142.412,-36.1893 141.887,-41.1616 137.937,-35.7165 141.361,-46.1339 141.361,-46.1339"/>
</g>
<!-- GenericSpare -->
<g id="node5" class="node"><title>GenericSpare</title>
<ellipse fill="none" stroke="black" cx="58.2277" cy="-90" rx="58.4563" ry="18"/>
<text text-anchor="middle" x="58.2277" y="-85.8" font-family="Times,serif" font-size="14.00">GenericSpare</text>
</g>
<!-- GenericCar&#45;&gt;GenericSpare -->
<g id="edge5" class="edge"><title>GenericCar&#45;&gt;GenericSpare</title>
<path fill="none" stroke="#fe3dce" d="M105.479,-137.585C98.0116,-130.224 89.7628,-122.091 82.2753,-114.709"/>
<polygon fill="#fe3dce" stroke="#fe3dce" points="105.639,-137.744 109.601,-147.969 109.2,-141.254 112.76,-144.765 112.76,-144.765 112.76,-144.765 109.2,-141.254 115.92,-141.56 105.639,-137.744 105.639,-137.744"/>
<polygon fill="#fe3dce" stroke="#fe3dce" points="82.2198,-114.654 78.2581,-104.429 78.6593,-111.144 75.0987,-107.633 75.0987,-107.633 75.0987,-107.633 78.6593,-111.144 71.9394,-110.838 82.2198,-114.654 82.2198,-114.654"/>
</g>
<!-- GenericSpare&#45;&gt;CarSpareAlloy -->
<g id="edge7" class="edge"><title>GenericSpare&#45;&gt;CarSpareAlloy</title>
<path fill="none" stroke="#7f85be" d="M84.6324,-67.5078C94.742,-59.2791 106.297,-49.8736 116.525,-41.5488"/>
<ellipse fill="none" stroke="#7f85be" cx="81.2763" cy="-70.2395" rx="4.00002" ry="4.00002"/>
<polygon fill="#7f85be" stroke="#7f85be" points="116.634,-41.4601 127.23,-38.6373 120.512,-38.3037 124.39,-35.1473 124.39,-35.1473 124.39,-35.1473 120.512,-38.3037 121.549,-31.6573 116.634,-41.4601 116.634,-41.4601"/>
</g>
<!-- Insured -->
<g id="node6" class="node"><title>Insured</title>
<ellipse fill="none" stroke="black" cx="341.228" cy="-90" rx="36.7576" ry="18"/>
<text text-anchor="middle" x="341.228" y="-85.8" font-family="Times,serif" font-size="14.00">Insured</text>
</g>
<!-- Prevaluation -->
<g id="node7" class="node"><title>Prevaluation</title>
<ellipse fill="none" stroke="black" cx="291.228" cy="-162" rx="54.6076" ry="18"/>
<text text-anchor="middle" x="291.228" y="-157.8" font-family="Times,serif" font-size="14.00">Prevaluation</text>
</g>
<!-- Prevaluation&#45;&gt;Car -->
<g id="edge10" class="edge"><title>Prevaluation&#45;&gt;Car</title>
<path fill="none" stroke="#14f324" d="M265.603,-139.389C254.968,-130.42 242.696,-120.07 232.237,-111.249"/>
<ellipse fill="none" stroke="#14f324" cx="268.919" cy="-142.186" rx="4.00002" ry="4.00002"/>
<polygon fill="#14f324" stroke="#14f324" points="231.949,-111.006 227.206,-101.119 228.127,-107.782 224.305,-104.559 224.305,-104.559 224.305,-104.559 228.127,-107.782 221.404,-107.999 231.949,-111.006 231.949,-111.006"/>
</g>
<!-- Prevaluation&#45;&gt;Insured -->
<g id="edge11" class="edge"><title>Prevaluation&#45;&gt;Insured</title>
<path fill="none" stroke="#deb6ea" d="M307.79,-137.812C312.777,-130.831 318.272,-123.138 323.341,-116.042"/>
<ellipse fill="none" stroke="#deb6ea" cx="305.402" cy="-141.156" rx="4.00002" ry="4.00002"/>
<polygon fill="#deb6ea" stroke="#deb6ea" points="323.651,-115.607 333.125,-110.086 326.557,-111.539 329.463,-107.47 329.463,-107.47 329.463,-107.47 326.557,-111.539 325.802,-104.854 323.651,-115.607 323.651,-115.607"/>
</g>
<!-- Prevaluation&#45;&gt;Prevaluation -->
<g id="edge12" class="edge"><title>Prevaluation&#45;&gt;Prevaluation</title>
<path fill="none" stroke="#c58731" d="M337.126,-175.499C352.108,-175.421 364.031,-170.921 364.031,-162 364.031,-153.079 352.108,-148.579 337.126,-148.501"/>
<ellipse fill="none" stroke="#c58731" cx="333.056" cy="-175.316" rx="4" ry="4"/>
<ellipse fill="#c58731" stroke="#c58731" cx="333.056" cy="-148.684" rx="4" ry="4"/>
</g>
<!-- Spare -->
<g id="node8" class="node"><title>Spare</title>
<ellipse fill="none" stroke="black" cx="489.228" cy="-90" rx="30.4862" ry="18"/>
<text text-anchor="middle" x="489.228" y="-85.8" font-family="Times,serif" font-size="14.00">Spare</text>
</g>
<!-- Spare&#45;&gt;Spare -->
<g id="edge14" class="edge"><title>Spare&#45;&gt;Spare</title>
<path fill="none" stroke="#878c08" d="M519.121,-103.499C529.291,-103.577 537.47,-99.0769 537.47,-90 537.47,-81.546 530.375,-77.0626 521.185,-76.5497"/>
<ellipse fill="none" stroke="#878c08" cx="515.03" cy="-103.016" rx="4.00001" ry="4.00001"/>
<polygon fill="#878c08" stroke="#878c08" points="521.018,-76.5645 510.658,-72.9703 516.038,-77.0085 511.058,-77.4525 511.058,-77.4525 511.058,-77.4525 516.038,-77.0085 511.457,-81.9347 521.018,-76.5645 521.018,-76.5645"/>
</g>
<!-- User -->
<g id="node9" class="node"><title>User</title>
<ellipse fill="none" stroke="black" cx="639.228" cy="-162" rx="27" ry="18"/>
<text text-anchor="middle" x="639.228" y="-157.8" font-family="Times,serif" font-size="14.00">User</text>
</g>
<!-- Valuation -->
<g id="node10" class="node"><title>Valuation</title>
<ellipse fill="none" stroke="black" cx="728.228" cy="-162" rx="43.9992" ry="18"/>
<text text-anchor="middle" x="728.228" y="-157.8" font-family="Times,serif" font-size="14.00">Valuation</text>
</g>
<!-- Warehouse -->
<g id="node11" class="node"><title>Warehouse</title>
<ellipse fill="none" stroke="black" cx="469.228" cy="-162" rx="49.3546" ry="18"/>
<text text-anchor="middle" x="469.228" y="-157.8" font-family="Times,serif" font-size="14.00">Warehouse</text>
</g>
<!-- Warehouse&#45;&gt;Car -->
<g id="edge19" class="edge"><title>Warehouse&#45;&gt;Car</title>
<path fill="none" stroke="#96393a" d="M422.782,-148.543C371.108,-134.684 288.826,-112.616 242.618,-100.224"/>
<ellipse fill="none" stroke="#96393a" cx="426.853" cy="-149.635" rx="4.00001" ry="4.00001"/>
<polygon fill="#96393a" stroke="#96393a" points="242.441,-100.176 233.948,-93.239 237.611,-98.8807 232.782,-97.5854 232.782,-97.5854 232.782,-97.5854 237.611,-98.8807 231.616,-101.932 242.441,-100.176 242.441,-100.176"/>
</g>
<!-- Warehouse&#45;&gt;Spare -->
<g id="edge18" class="edge"><title>Warehouse&#45;&gt;Spare</title>
<path fill="none" stroke="#792875" d="M476.329,-136.146C478.049,-130.124 479.895,-123.664 481.637,-117.566"/>
<ellipse fill="none" stroke="#792875" cx="475.168" cy="-140.209" rx="4.00001" ry="4.00001"/>
<polygon fill="#792875" stroke="#792875" points="481.684,-117.404 488.758,-109.025 483.057,-112.597 484.431,-107.789 484.431,-107.789 484.431,-107.789 483.057,-112.597 480.104,-106.553 481.684,-117.404 481.684,-117.404"/>
</g>
<!-- ActiveRecord::Base -->
<g id="node12" class="node"><title>ActiveRecord::Base</title>
<ellipse fill="none" stroke="black" cx="431.228" cy="-252.5" rx="81.1422" ry="18"/>
<text text-anchor="middle" x="431.228" y="-248.3" font-family="Times,serif" font-size="14.00">ActiveRecord::Base</text>
</g>
<!-- ActiveRecord::Base&#45;&gt;Car -->
<g id="edge1" class="edge"><title>ActiveRecord::Base&#45;&gt;Car</title>
<path fill="none" stroke="black" d="M394.236,-236.455C377.789,-229.924 358.132,-222.337 340.228,-216 290.539,-198.413 262.627,-219.054 227.228,-180 209.295,-160.216 206.759,-127.767 207.106,-107.996"/>
</g>
<!-- ActiveRecord::Base&#45;&gt;CarSpareAlloy -->
<g id="edge2" class="edge"><title>ActiveRecord::Base&#45;&gt;CarSpareAlloy</title>
<path fill="none" stroke="black" d="M471.949,-236.897C497.174,-225.537 527.638,-207.093 543.228,-180 567.176,-138.38 577.885,-108.105 546.228,-72 524.125,-46.7918 312.312,-29.752 205.37,-22.6826"/>
</g>
<!-- ActiveRecord::Base&#45;&gt;GenericCar -->
<g id="edge6" class="edge"><title>ActiveRecord::Base&#45;&gt;GenericCar</title>
<path fill="none" stroke="black" d="M395.304,-236.24C378.718,-229.518 358.657,-221.84 340.228,-216 276.517,-195.813 259.003,-196.456 194.228,-180 185.975,-177.903 177.143,-175.62 168.734,-173.427"/>
</g>
<!-- ActiveRecord::Base&#45;&gt;GenericSpare -->
<g id="edge8" class="edge"><title>ActiveRecord::Base&#45;&gt;GenericSpare</title>
<path fill="none" stroke="black" d="M397.3,-236.024C380.454,-228.922 359.606,-220.99 340.228,-216 281.395,-200.852 111.99,-223.153 69.2277,-180 50.5979,-161.2 51.86,-128.122 54.8105,-108.019"/>
</g>
<!-- ActiveRecord::Base&#45;&gt;Insured -->
<g id="edge9" class="edge"><title>ActiveRecord::Base&#45;&gt;Insured</title>
<path fill="none" stroke="black" d="M422.435,-234.603C411.282,-213.312 391.319,-175.672 373.228,-144 366.191,-131.68 357.903,-117.974 351.525,-107.587"/>
</g>
<!-- ActiveRecord::Base&#45;&gt;Prevaluation -->
<g id="edge13" class="edge"><title>ActiveRecord::Base&#45;&gt;Prevaluation</title>
<path fill="none" stroke="black" d="M405.55,-235.268C379.815,-219 340.505,-194.15 315.339,-178.242"/>
</g>
<!-- ActiveRecord::Base&#45;&gt;Spare -->
<g id="edge15" class="edge"><title>ActiveRecord::Base&#45;&gt;Spare</title>
<path fill="none" stroke="black" d="M465.892,-236.008C487.857,-224.132 514.453,-205.443 527.228,-180 539.968,-154.625 519.327,-123.966 503.825,-106.059"/>
</g>
<!-- ActiveRecord::Base&#45;&gt;User -->
<g id="edge16" class="edge"><title>ActiveRecord::Base&#45;&gt;User</title>
<path fill="none" stroke="black" d="M466.984,-236.286C510.077,-217.951 581.157,-187.708 617.038,-172.441"/>
</g>
<!-- ActiveRecord::Base&#45;&gt;Valuation -->
<g id="edge17" class="edge"><title>ActiveRecord::Base&#45;&gt;Valuation</title>
<path fill="none" stroke="black" d="M479.024,-237.882C528.294,-223.753 607.285,-200.848 675.228,-180 681.602,-178.044 688.39,-175.908 694.907,-173.83"/>
</g>
<!-- ActiveRecord::Base&#45;&gt;Warehouse -->
<g id="edge20" class="edge"><title>ActiveRecord::Base&#45;&gt;Warehouse</title>
<path fill="none" stroke="black" d="M438.554,-234.436C445.283,-218.765 455.202,-195.666 461.923,-180.011"/>
</g>
</g>
</svg>
