<?xml version="1.0" encoding="UTF-8" standalone="no"?>
<!DOCTYPE svg PUBLIC "-//W3C//DTD SVG 1.1//EN"
 "http://www.w3.org/Graphics/SVG/1.1/DTD/svg11.dtd">
<!-- Generated by graphviz version 2.38.0 (20140413.2041)
 -->
<!-- Title: models_diagram Pages: 1 -->
<svg width="1487pt" height="1377pt"
 viewBox="0.00 0.00 1487.12 1377.00" xmlns="http://www.w3.org/2000/svg" xmlns:xlink="http://www.w3.org/1999/xlink">
<g id="graph0" class="graph" transform="scale(1 1) rotate(0) translate(4 1373)">
<title>models_diagram</title>
<polygon fill="white" stroke="none" points="-4,4 -4,-1373 1483.12,-1373 1483.12,4 -4,4"/>
<!-- _diagram_info -->
<g id="node1" class="node"><title>_diagram_info</title>
<text text-anchor="start" x="765.611" y="-1312.6" font-family="Times,serif" font-size="13.00">Models diagram</text>
<text text-anchor="start" x="765.611" y="-1299.6" font-family="Times,serif" font-size="13.00">Date: Feb 03 2015 &#45; 14:31</text>
<text text-anchor="start" x="765.611" y="-1286.6" font-family="Times,serif" font-size="13.00">Migration version: 20150113013129</text>
<text text-anchor="start" x="765.611" y="-1273.6" font-family="Times,serif" font-size="13.00">Generated by RailRoady 1.3.0</text>
<text text-anchor="start" x="765.611" y="-1260.6" font-family="Times,serif" font-size="13.00">http://railroady.prestonlee.com</text>
</g>
<!-- Brand -->
<g id="node2" class="node"><title>Brand</title>
<path fill="none" stroke="black" d="M994.555,-1240.5C994.555,-1240.5 1103.57,-1240.5 1103.57,-1240.5 1109.57,-1240.5 1115.57,-1246.5 1115.57,-1252.5 1115.57,-1252.5 1115.57,-1328.5 1115.57,-1328.5 1115.57,-1334.5 1109.57,-1340.5 1103.57,-1340.5 1103.57,-1340.5 994.555,-1340.5 994.555,-1340.5 988.555,-1340.5 982.555,-1334.5 982.555,-1328.5 982.555,-1328.5 982.555,-1252.5 982.555,-1252.5 982.555,-1246.5 988.555,-1240.5 994.555,-1240.5"/>
<text text-anchor="middle" x="1049.06" y="-1325.3" font-family="Times,serif" font-size="14.00">Brand</text>
<polyline fill="none" stroke="black" points="982.555,-1318.5 1115.57,-1318.5 "/>
<text text-anchor="start" x="990.555" y="-1303.3" font-family="Times,serif" font-size="14.00">id :integer</text>
<text text-anchor="start" x="990.555" y="-1289.3" font-family="Times,serif" font-size="14.00">name :string</text>
<text text-anchor="start" x="990.555" y="-1275.3" font-family="Times,serif" font-size="14.00">acronym :string</text>
<text text-anchor="start" x="990.555" y="-1261.3" font-family="Times,serif" font-size="14.00">created_at :datetime</text>
<text text-anchor="start" x="990.555" y="-1247.3" font-family="Times,serif" font-size="14.00">updated_at :datetime</text>
</g>
<!-- GenericCar -->
<g id="node8" class="node"><title>GenericCar</title>
<path fill="none" stroke="black" d="M1098.67,-717.5C1098.67,-717.5 1257.46,-717.5 1257.46,-717.5 1263.46,-717.5 1269.46,-723.5 1269.46,-729.5 1269.46,-729.5 1269.46,-917.5 1269.46,-917.5 1269.46,-923.5 1263.46,-929.5 1257.46,-929.5 1257.46,-929.5 1098.67,-929.5 1098.67,-929.5 1092.67,-929.5 1086.67,-923.5 1086.67,-917.5 1086.67,-917.5 1086.67,-729.5 1086.67,-729.5 1086.67,-723.5 1092.67,-717.5 1098.67,-717.5"/>
<text text-anchor="middle" x="1178.06" y="-914.3" font-family="Times,serif" font-size="14.00">GenericCar</text>
<polyline fill="none" stroke="black" points="1086.67,-907.5 1269.46,-907.5 "/>
<text text-anchor="start" x="1094.67" y="-892.3" font-family="Times,serif" font-size="14.00">id :integer</text>
<text text-anchor="start" x="1094.67" y="-878.3" font-family="Times,serif" font-size="14.00">brand_id :string</text>
<text text-anchor="start" x="1094.67" y="-864.3" font-family="Times,serif" font-size="14.00">type_of_car :string</text>
<text text-anchor="start" x="1094.67" y="-850.3" font-family="Times,serif" font-size="14.00">year :integer</text>
<text text-anchor="start" x="1094.67" y="-836.3" font-family="Times,serif" font-size="14.00">model :string</text>
<text text-anchor="start" x="1094.67" y="-822.3" font-family="Times,serif" font-size="14.00">doors :integer</text>
<text text-anchor="start" x="1094.67" y="-808.3" font-family="Times,serif" font-size="14.00">first_generation_year :integer</text>
<text text-anchor="start" x="1094.67" y="-794.3" font-family="Times,serif" font-size="14.00">last_generation_year :integer</text>
<text text-anchor="start" x="1094.67" y="-780.3" font-family="Times,serif" font-size="14.00">code :string</text>
<text text-anchor="start" x="1094.67" y="-766.3" font-family="Times,serif" font-size="14.00">gen_continues :boolean</text>
<text text-anchor="start" x="1094.67" y="-752.3" font-family="Times,serif" font-size="14.00">number_of_generation :string</text>
<text text-anchor="start" x="1094.67" y="-738.3" font-family="Times,serif" font-size="14.00">created_at :datetime</text>
<text text-anchor="start" x="1094.67" y="-724.3" font-family="Times,serif" font-size="14.00">updated_at :datetime</text>
</g>
<!-- Brand&#45;&gt;GenericCar -->
<g id="edge1" class="edge"><title>Brand&#45;&gt;GenericCar</title>
<path fill="none" stroke="#73d721" d="M1064.96,-1232.18C1085.14,-1159.45 1120.42,-1032.28 1146.22,-939.266"/>
<ellipse fill="none" stroke="#73d721" cx="1063.81" cy="-1236.32" rx="4.00001" ry="4.00001"/>
<polygon fill="#73d721" stroke="#73d721" points="1146.25,-939.159 1153.26,-930.726 1147.59,-934.341 1148.93,-929.523 1148.93,-929.523 1148.93,-929.523 1147.59,-934.341 1144.59,-928.32 1146.25,-939.159 1146.25,-939.159"/>
</g>
<!-- ModelAcronym -->
<g id="node14" class="node"><title>ModelAcronym</title>
<path fill="none" stroke="black" d="M795.555,-766.5C795.555,-766.5 904.566,-766.5 904.566,-766.5 910.566,-766.5 916.566,-772.5 916.566,-778.5 916.566,-778.5 916.566,-868.5 916.566,-868.5 916.566,-874.5 910.566,-880.5 904.566,-880.5 904.566,-880.5 795.555,-880.5 795.555,-880.5 789.555,-880.5 783.555,-874.5 783.555,-868.5 783.555,-868.5 783.555,-778.5 783.555,-778.5 783.555,-772.5 789.555,-766.5 795.555,-766.5"/>
<text text-anchor="middle" x="850.061" y="-865.3" font-family="Times,serif" font-size="14.00">ModelAcronym</text>
<polyline fill="none" stroke="black" points="783.555,-858.5 916.566,-858.5 "/>
<text text-anchor="start" x="791.555" y="-843.3" font-family="Times,serif" font-size="14.00">id :integer</text>
<text text-anchor="start" x="791.555" y="-829.3" font-family="Times,serif" font-size="14.00">brand_id :integer</text>
<text text-anchor="start" x="791.555" y="-815.3" font-family="Times,serif" font-size="14.00">initials :string</text>
<text text-anchor="start" x="791.555" y="-801.3" font-family="Times,serif" font-size="14.00">model :string</text>
<text text-anchor="start" x="791.555" y="-787.3" font-family="Times,serif" font-size="14.00">created_at :datetime</text>
<text text-anchor="start" x="791.555" y="-773.3" font-family="Times,serif" font-size="14.00">updated_at :datetime</text>
</g>
<!-- Brand&#45;&gt;ModelAcronym -->
<g id="edge2" class="edge"><title>Brand&#45;&gt;ModelAcronym</title>
<path fill="none" stroke="#bdc122" d="M997.073,-1234.57C989.196,-1226.81 981.034,-1219.08 973.061,-1212 952.916,-1194.12 939.424,-1197.79 925.061,-1175 869.756,-1087.27 854.673,-965.214 850.881,-890.711"/>
<ellipse fill="none" stroke="#bdc122" cx="1000.2" cy="-1237.67" rx="4.00002" ry="4.00002"/>
<polygon fill="#bdc122" stroke="#bdc122" points="850.872,-890.512 854.914,-880.318 850.645,-885.517 850.418,-880.523 850.418,-880.523 850.418,-880.523 850.645,-885.517 845.923,-880.727 850.872,-890.512 850.872,-890.512"/>
</g>
<!-- Car -->
<g id="node3" class="node"><title>Car</title>
<path fill="none" stroke="black" d="M370.438,-208.5C370.438,-208.5 513.683,-208.5 513.683,-208.5 519.683,-208.5 525.683,-214.5 525.683,-220.5 525.683,-220.5 525.683,-422.5 525.683,-422.5 525.683,-428.5 519.683,-434.5 513.683,-434.5 513.683,-434.5 370.438,-434.5 370.438,-434.5 364.438,-434.5 358.438,-428.5 358.438,-422.5 358.438,-422.5 358.438,-220.5 358.438,-220.5 358.438,-214.5 364.438,-208.5 370.438,-208.5"/>
<text text-anchor="middle" x="442.061" y="-419.3" font-family="Times,serif" font-size="14.00">Car</text>
<polyline fill="none" stroke="black" points="358.438,-412.5 525.683,-412.5 "/>
<text text-anchor="start" x="366.438" y="-397.3" font-family="Times,serif" font-size="14.00">id :integer</text>
<text text-anchor="start" x="366.438" y="-383.3" font-family="Times,serif" font-size="14.00">prevaluation_id :integer</text>
<text text-anchor="start" x="366.438" y="-369.3" font-family="Times,serif" font-size="14.00">generic_car_id :integer</text>
<text text-anchor="start" x="366.438" y="-355.3" font-family="Times,serif" font-size="14.00">warehouse_id :integer</text>
<text text-anchor="start" x="366.438" y="-341.3" font-family="Times,serif" font-size="14.00">color :string</text>
<text text-anchor="start" x="366.438" y="-327.3" font-family="Times,serif" font-size="14.00">door_number :integer</text>
<text text-anchor="start" x="366.438" y="-313.3" font-family="Times,serif" font-size="14.00">serie :string</text>
<text text-anchor="start" x="366.438" y="-299.3" font-family="Times,serif" font-size="14.00">motor :string</text>
<text text-anchor="start" x="366.438" y="-285.3" font-family="Times,serif" font-size="14.00">license_plates :string</text>
<text text-anchor="start" x="366.438" y="-271.3" font-family="Times,serif" font-size="14.00">inventory_description :text</text>
<text text-anchor="start" x="366.438" y="-257.3" font-family="Times,serif" font-size="14.00">special_equipment :text</text>
<text text-anchor="start" x="366.438" y="-243.3" font-family="Times,serif" font-size="14.00">economic_number :string</text>
<text text-anchor="start" x="366.438" y="-229.3" font-family="Times,serif" font-size="14.00">created_at :datetime</text>
<text text-anchor="start" x="366.438" y="-215.3" font-family="Times,serif" font-size="14.00">updated_at :datetime</text>
</g>
<!-- CarSpareAlloy -->
<g id="node4" class="node"><title>CarSpareAlloy</title>
<path fill="none" stroke="black" d="M1058.12,-28.5C1058.12,-28.5 1192,-28.5 1192,-28.5 1198,-28.5 1204,-34.5 1204,-40.5 1204,-40.5 1204,-130.5 1204,-130.5 1204,-136.5 1198,-142.5 1192,-142.5 1192,-142.5 1058.12,-142.5 1058.12,-142.5 1052.12,-142.5 1046.12,-136.5 1046.12,-130.5 1046.12,-130.5 1046.12,-40.5 1046.12,-40.5 1046.12,-34.5 1052.12,-28.5 1058.12,-28.5"/>
<text text-anchor="middle" x="1125.06" y="-127.3" font-family="Times,serif" font-size="14.00">CarSpareAlloy</text>
<polyline fill="none" stroke="black" points="1046.12,-120.5 1204,-120.5 "/>
<text text-anchor="start" x="1054.12" y="-105.3" font-family="Times,serif" font-size="14.00">id :integer</text>
<text text-anchor="start" x="1054.12" y="-91.3" font-family="Times,serif" font-size="14.00">generic_car_id :integer</text>
<text text-anchor="start" x="1054.12" y="-77.3" font-family="Times,serif" font-size="14.00">generic_spare_id :integer</text>
<text text-anchor="start" x="1054.12" y="-63.3" font-family="Times,serif" font-size="14.00">relation :string</text>
<text text-anchor="start" x="1054.12" y="-49.3" font-family="Times,serif" font-size="14.00">created_at :datetime</text>
<text text-anchor="start" x="1054.12" y="-35.3" font-family="Times,serif" font-size="14.00">updated_at :datetime</text>
</g>
<!-- Family -->
<g id="node5" class="node"><title>Family</title>
<path fill="none" stroke="black" d="M607.555,-773.5C607.555,-773.5 716.566,-773.5 716.566,-773.5 722.566,-773.5 728.566,-779.5 728.566,-785.5 728.566,-785.5 728.566,-861.5 728.566,-861.5 728.566,-867.5 722.566,-873.5 716.566,-873.5 716.566,-873.5 607.555,-873.5 607.555,-873.5 601.555,-873.5 595.555,-867.5 595.555,-861.5 595.555,-861.5 595.555,-785.5 595.555,-785.5 595.555,-779.5 601.555,-773.5 607.555,-773.5"/>
<text text-anchor="middle" x="662.061" y="-858.3" font-family="Times,serif" font-size="14.00">Family</text>
<polyline fill="none" stroke="black" points="595.555,-851.5 728.566,-851.5 "/>
<text text-anchor="start" x="603.555" y="-836.3" font-family="Times,serif" font-size="14.00">id :integer</text>
<text text-anchor="start" x="603.555" y="-822.3" font-family="Times,serif" font-size="14.00">name :string</text>
<text text-anchor="start" x="603.555" y="-808.3" font-family="Times,serif" font-size="14.00">comment :string</text>
<text text-anchor="start" x="603.555" y="-794.3" font-family="Times,serif" font-size="14.00">created_at :datetime</text>
<text text-anchor="start" x="603.555" y="-780.3" font-family="Times,serif" font-size="14.00">updated_at :datetime</text>
</g>
<!-- FamilyGenericSpareAlloy -->
<g id="node6" class="node"><title>FamilyGenericSpareAlloy</title>
<path fill="none" stroke="black" d="M555.191,-271.5C555.191,-271.5 694.93,-271.5 694.93,-271.5 700.93,-271.5 706.93,-277.5 706.93,-283.5 706.93,-283.5 706.93,-359.5 706.93,-359.5 706.93,-365.5 700.93,-371.5 694.93,-371.5 694.93,-371.5 555.191,-371.5 555.191,-371.5 549.191,-371.5 543.191,-365.5 543.191,-359.5 543.191,-359.5 543.191,-283.5 543.191,-283.5 543.191,-277.5 549.191,-271.5 555.191,-271.5"/>
<text text-anchor="middle" x="625.061" y="-356.3" font-family="Times,serif" font-size="14.00">FamilyGenericSpareAlloy</text>
<polyline fill="none" stroke="black" points="543.191,-349.5 706.93,-349.5 "/>
<text text-anchor="start" x="551.191" y="-334.3" font-family="Times,serif" font-size="14.00">id :integer</text>
<text text-anchor="start" x="551.191" y="-320.3" font-family="Times,serif" font-size="14.00">family_id :integer</text>
<text text-anchor="start" x="551.191" y="-306.3" font-family="Times,serif" font-size="14.00">generic_spare_id :integer</text>
<text text-anchor="start" x="551.191" y="-292.3" font-family="Times,serif" font-size="14.00">created_at :datetime</text>
<text text-anchor="start" x="551.191" y="-278.3" font-family="Times,serif" font-size="14.00">updated_at :datetime</text>
</g>
<!-- Family&#45;&gt;FamilyGenericSpareAlloy -->
<g id="edge3" class="edge"><title>Family&#45;&gt;FamilyGenericSpareAlloy</title>
<path fill="none" stroke="#c04e98" d="M657.812,-765.086C650.743,-669.559 636.636,-478.926 629.465,-382.02"/>
<ellipse fill="none" stroke="#c04e98" cx="658.116" cy="-769.201" rx="4" ry="4"/>
<polygon fill="#c04e98" stroke="#c04e98" points="629.448,-381.783 633.197,-371.478 629.079,-376.796 628.709,-371.81 628.709,-371.81 628.709,-371.81 629.079,-376.796 624.222,-372.142 629.448,-381.783 629.448,-381.783"/>
</g>
<!-- GenericSpare -->
<g id="node11" class="node"><title>GenericSpare</title>
<path fill="none" stroke="black" d="M736.769,-236.5C736.769,-236.5 847.352,-236.5 847.352,-236.5 853.352,-236.5 859.352,-242.5 859.352,-248.5 859.352,-248.5 859.352,-394.5 859.352,-394.5 859.352,-400.5 853.352,-406.5 847.352,-406.5 847.352,-406.5 736.769,-406.5 736.769,-406.5 730.769,-406.5 724.769,-400.5 724.769,-394.5 724.769,-394.5 724.769,-248.5 724.769,-248.5 724.769,-242.5 730.769,-236.5 736.769,-236.5"/>
<text text-anchor="middle" x="792.061" y="-391.3" font-family="Times,serif" font-size="14.00">GenericSpare</text>
<polyline fill="none" stroke="black" points="724.769,-384.5 859.352,-384.5 "/>
<text text-anchor="start" x="732.769" y="-369.3" font-family="Times,serif" font-size="14.00">id :integer</text>
<text text-anchor="start" x="732.769" y="-355.3" font-family="Times,serif" font-size="14.00">brand :string</text>
<text text-anchor="start" x="732.769" y="-341.3" font-family="Times,serif" font-size="14.00">type_of_spare :string</text>
<text text-anchor="start" x="732.769" y="-327.3" font-family="Times,serif" font-size="14.00">name :string</text>
<text text-anchor="start" x="732.769" y="-313.3" font-family="Times,serif" font-size="14.00">region :string</text>
<text text-anchor="start" x="732.769" y="-299.3" font-family="Times,serif" font-size="14.00">description :text</text>
<text text-anchor="start" x="732.769" y="-285.3" font-family="Times,serif" font-size="14.00">family_id :integer</text>
<text text-anchor="start" x="732.769" y="-271.3" font-family="Times,serif" font-size="14.00">code :string</text>
<text text-anchor="start" x="732.769" y="-257.3" font-family="Times,serif" font-size="14.00">created_at :datetime</text>
<text text-anchor="start" x="732.769" y="-243.3" font-family="Times,serif" font-size="14.00">updated_at :datetime</text>
</g>
<!-- Family&#45;&gt;GenericSpare -->
<g id="edge4" class="edge"><title>Family&#45;&gt;GenericSpare</title>
<path fill="none" stroke="#cb173c" d="M677.448,-763.319C699.711,-677.691 741.132,-518.379 767.609,-416.546"/>
<polygon fill="#cb173c" stroke="#cb173c" points="677.398,-763.511 670.526,-772.057 676.139,-768.351 674.881,-773.19 674.881,-773.19 674.881,-773.19 676.139,-768.351 679.236,-774.322 677.398,-763.511 677.398,-763.511"/>
<polygon fill="#cb173c" stroke="#cb173c" points="767.686,-416.247 774.558,-407.702 768.944,-411.408 770.203,-406.569 770.203,-406.569 770.203,-406.569 768.944,-411.408 765.847,-405.437 767.686,-416.247 767.686,-416.247"/>
</g>
<!-- Generation -->
<g id="node7" class="node"><title>Generation</title>
<path fill="none" stroke="black" d="M1189.56,-1247.5C1189.56,-1247.5 1298.57,-1247.5 1298.57,-1247.5 1304.57,-1247.5 1310.57,-1253.5 1310.57,-1259.5 1310.57,-1259.5 1310.57,-1321.5 1310.57,-1321.5 1310.57,-1327.5 1304.57,-1333.5 1298.57,-1333.5 1298.57,-1333.5 1189.56,-1333.5 1189.56,-1333.5 1183.56,-1333.5 1177.56,-1327.5 1177.56,-1321.5 1177.56,-1321.5 1177.56,-1259.5 1177.56,-1259.5 1177.56,-1253.5 1183.56,-1247.5 1189.56,-1247.5"/>
<text text-anchor="middle" x="1244.06" y="-1318.3" font-family="Times,serif" font-size="14.00">Generation</text>
<polyline fill="none" stroke="black" points="1177.56,-1311.5 1310.57,-1311.5 "/>
<text text-anchor="start" x="1185.56" y="-1296.3" font-family="Times,serif" font-size="14.00">id :integer</text>
<text text-anchor="start" x="1185.56" y="-1282.3" font-family="Times,serif" font-size="14.00">year :integer</text>
<text text-anchor="start" x="1185.56" y="-1268.3" font-family="Times,serif" font-size="14.00">created_at :datetime</text>
<text text-anchor="start" x="1185.56" y="-1254.3" font-family="Times,serif" font-size="14.00">updated_at :datetime</text>
</g>
<!-- Generation&#45;&gt;GenericCar -->
<g id="edge5" class="edge"><title>Generation&#45;&gt;GenericCar</title>
<path fill="none" stroke="#838c34" d="M1236.66,-1237.37C1226.49,-1165.7 1207.91,-1034.77 1194.39,-939.521"/>
<polygon fill="#838c34" stroke="#838c34" points="1236.68,-1237.51 1233.63,-1248.05 1237.38,-1242.46 1238.09,-1247.41 1238.09,-1247.41 1238.09,-1247.41 1237.38,-1242.46 1242.54,-1246.78 1236.68,-1237.51 1236.68,-1237.51"/>
<polygon fill="#838c34" stroke="#838c34" points="1194.38,-939.448 1197.43,-928.915 1193.67,-934.497 1192.97,-929.547 1192.97,-929.547 1192.97,-929.547 1193.67,-934.497 1188.52,-930.18 1194.38,-939.448 1194.38,-939.448"/>
</g>
<!-- GenericCarGeneration -->
<g id="node9" class="node"><title>GenericCarGeneration</title>
<path fill="none" stroke="black" d="M1332.34,-271.5C1332.34,-271.5 1453.78,-271.5 1453.78,-271.5 1459.78,-271.5 1465.78,-277.5 1465.78,-283.5 1465.78,-283.5 1465.78,-359.5 1465.78,-359.5 1465.78,-365.5 1459.78,-371.5 1453.78,-371.5 1453.78,-371.5 1332.34,-371.5 1332.34,-371.5 1326.34,-371.5 1320.34,-365.5 1320.34,-359.5 1320.34,-359.5 1320.34,-283.5 1320.34,-283.5 1320.34,-277.5 1326.34,-271.5 1332.34,-271.5"/>
<text text-anchor="middle" x="1393.06" y="-356.3" font-family="Times,serif" font-size="14.00">GenericCarGeneration</text>
<polyline fill="none" stroke="black" points="1320.34,-349.5 1465.78,-349.5 "/>
<text text-anchor="start" x="1328.34" y="-334.3" font-family="Times,serif" font-size="14.00">id :integer</text>
<text text-anchor="start" x="1328.34" y="-320.3" font-family="Times,serif" font-size="14.00">generic_car_id :integer</text>
<text text-anchor="start" x="1328.34" y="-306.3" font-family="Times,serif" font-size="14.00">generation_id :integer</text>
<text text-anchor="start" x="1328.34" y="-292.3" font-family="Times,serif" font-size="14.00">created_at :datetime</text>
<text text-anchor="start" x="1328.34" y="-278.3" font-family="Times,serif" font-size="14.00">updated_at :datetime</text>
</g>
<!-- Generation&#45;&gt;GenericCarGeneration -->
<g id="edge6" class="edge"><title>Generation&#45;&gt;GenericCarGeneration</title>
<path fill="none" stroke="#185e58" d="M1260.66,-1239.74C1266.84,-1219.79 1273.45,-1196.48 1278.06,-1175 1341.18,-880.83 1376.17,-521.711 1388.22,-382.042"/>
<ellipse fill="none" stroke="#185e58" cx="1259.43" cy="-1243.67" rx="4.00001" ry="4.00001"/>
<polygon fill="#185e58" stroke="#185e58" points="1388.23,-381.936 1393.57,-372.356 1388.66,-376.954 1389.08,-371.973 1389.08,-371.973 1389.08,-371.973 1388.66,-376.954 1384.6,-371.589 1388.23,-381.936 1388.23,-381.936"/>
</g>
<!-- GenericCar&#45;&gt;Car -->
<g id="edge7" class="edge"><title>GenericCar&#45;&gt;Car</title>
<path fill="none" stroke="#2807b3" d="M1177.42,-709.284C1170.41,-629.971 1146.97,-528.434 1077.06,-472 985.34,-397.96 658.703,-485.806 535.06,-434.586"/>
<ellipse fill="none" stroke="#2807b3" cx="1177.76" cy="-713.388" rx="4" ry="4"/>
<polygon fill="#2807b3" stroke="#2807b3" points="534.888,-434.506 527.713,-426.213 530.353,-432.4 525.818,-430.294 525.818,-430.294 525.818,-430.294 530.353,-432.4 523.923,-434.375 534.888,-434.506 534.888,-434.506"/>
</g>
<!-- GenericCar&#45;&gt;CarSpareAlloy -->
<g id="edge8" class="edge"><title>GenericCar&#45;&gt;CarSpareAlloy</title>
<path fill="none" stroke="#572e2c" d="M1232.66,-709.968C1286.37,-582.32 1350.04,-370.783 1273.06,-208 1259.85,-180.054 1236.7,-156.379 1212.59,-137.56"/>
<ellipse fill="none" stroke="#572e2c" cx="1231.02" cy="-713.814" rx="4.00002" ry="4.00002"/>
<polygon fill="#572e2c" stroke="#572e2c" points="1212.37,-137.392 1207.1,-127.774 1208.38,-134.378 1204.39,-131.365 1204.39,-131.365 1204.39,-131.365 1208.38,-134.378 1201.68,-134.956 1212.37,-137.392 1212.37,-137.392"/>
</g>
<!-- GenericCar&#45;&gt;GenericCarGeneration -->
<g id="edge11" class="edge"><title>GenericCar&#45;&gt;GenericCarGeneration</title>
<path fill="none" stroke="#5ea083" d="M1226.51,-709.821C1270.37,-607.82 1333.25,-461.603 1367.84,-381.148"/>
<ellipse fill="none" stroke="#5ea083" cx="1224.84" cy="-713.704" rx="4.00002" ry="4.00002"/>
<polygon fill="#5ea083" stroke="#5ea083" points="1367.97,-380.857 1376.05,-373.448 1369.94,-376.264 1371.92,-371.67 1371.92,-371.67 1371.92,-371.67 1369.94,-376.264 1367.78,-369.893 1367.97,-380.857 1367.97,-380.857"/>
</g>
<!-- GenericImage -->
<g id="node10" class="node"><title>GenericImage</title>
<path fill="none" stroke="black" d="M1104.11,-250.5C1104.11,-250.5 1252.01,-250.5 1252.01,-250.5 1258.01,-250.5 1264.01,-256.5 1264.01,-262.5 1264.01,-262.5 1264.01,-380.5 1264.01,-380.5 1264.01,-386.5 1258.01,-392.5 1252.01,-392.5 1252.01,-392.5 1104.11,-392.5 1104.11,-392.5 1098.11,-392.5 1092.11,-386.5 1092.11,-380.5 1092.11,-380.5 1092.11,-262.5 1092.11,-262.5 1092.11,-256.5 1098.11,-250.5 1104.11,-250.5"/>
<text text-anchor="middle" x="1178.06" y="-377.3" font-family="Times,serif" font-size="14.00">GenericImage</text>
<polyline fill="none" stroke="black" points="1092.11,-370.5 1264.01,-370.5 "/>
<text text-anchor="start" x="1100.11" y="-355.3" font-family="Times,serif" font-size="14.00">id :integer</text>
<text text-anchor="start" x="1100.11" y="-341.3" font-family="Times,serif" font-size="14.00">generic_id :integer</text>
<text text-anchor="start" x="1100.11" y="-327.3" font-family="Times,serif" font-size="14.00">created_at :datetime</text>
<text text-anchor="start" x="1100.11" y="-313.3" font-family="Times,serif" font-size="14.00">updated_at :datetime</text>
<text text-anchor="start" x="1100.11" y="-299.3" font-family="Times,serif" font-size="14.00">photo_file_name :string</text>
<text text-anchor="start" x="1100.11" y="-285.3" font-family="Times,serif" font-size="14.00">photo_content_type :string</text>
<text text-anchor="start" x="1100.11" y="-271.3" font-family="Times,serif" font-size="14.00">photo_file_size :integer</text>
<text text-anchor="start" x="1100.11" y="-257.3" font-family="Times,serif" font-size="14.00">photo_updated_at :datetime</text>
</g>
<!-- GenericCar&#45;&gt;GenericImage -->
<g id="edge9" class="edge"><title>GenericCar&#45;&gt;GenericImage</title>
<path fill="none" stroke="#047c4b" d="M1178.06,-709.268C1178.06,-615.839 1178.06,-485.596 1178.06,-402.658"/>
<ellipse fill="none" stroke="#047c4b" cx="1178.06" cy="-713.379" rx="4" ry="4"/>
<polygon fill="#047c4b" stroke="#047c4b" points="1178.06,-402.533 1182.56,-392.533 1178.06,-397.533 1178.06,-392.533 1178.06,-392.533 1178.06,-392.533 1178.06,-397.533 1173.56,-392.533 1178.06,-402.533 1178.06,-402.533"/>
</g>
<!-- GenericCar&#45;&gt;GenericSpare -->
<g id="edge10" class="edge"><title>GenericCar&#45;&gt;GenericSpare</title>
<path fill="none" stroke="#b66dee" d="M1179.08,-707.153C1172.81,-620.245 1147.96,-507.12 1066.06,-453 1011.15,-416.713 979.07,-462.043 919.061,-435 900.714,-426.732 883.114,-414.865 867.17,-401.908"/>
<polygon fill="#b66dee" stroke="#b66dee" points="1179.09,-707.368 1175.25,-717.638 1179.42,-712.358 1179.74,-717.347 1179.74,-717.347 1179.74,-717.347 1179.42,-712.358 1184.23,-717.057 1179.09,-707.368 1179.09,-707.368"/>
<polygon fill="#b66dee" stroke="#b66dee" points="867.148,-401.889 862.368,-392.02 863.313,-398.68 859.479,-395.471 859.479,-395.471 859.479,-395.471 863.313,-398.68 856.591,-398.921 867.148,-401.889 867.148,-401.889"/>
</g>
<!-- GenericSpare&#45;&gt;CarSpareAlloy -->
<g id="edge12" class="edge"><title>GenericSpare&#45;&gt;CarSpareAlloy</title>
<path fill="none" stroke="#88e137" d="M865.78,-250.952C882.772,-236.136 901.134,-221.04 919.061,-208 956.207,-180.978 999.719,-154.62 1037.16,-133.4"/>
<ellipse fill="none" stroke="#88e137" cx="862.59" cy="-253.753" rx="4.00002" ry="4.00002"/>
<polygon fill="#88e137" stroke="#88e137" points="1037.33,-133.305 1048.25,-132.318 1041.68,-130.851 1046.04,-128.397 1046.04,-128.397 1046.04,-128.397 1041.68,-130.851 1043.83,-124.476 1037.33,-133.305 1037.33,-133.305"/>
</g>
<!-- GenericSpare&#45;&gt;GenericSpare -->
<g id="edge14" class="edge"><title>GenericSpare&#45;&gt;GenericSpare</title>
<path fill="none" stroke="#1f30ee" d="M868.784,-339.497C874.109,-335.38 877.352,-329.381 877.352,-321.5 877.352,-313.619 874.109,-307.62 868.784,-303.503"/>
<polygon fill="#1f30ee" stroke="#1f30ee" points="868.531,-339.627 857.579,-340.176 864.08,-341.904 859.628,-344.182 859.628,-344.182 859.628,-344.182 864.08,-341.904 861.678,-348.188 868.531,-339.627 868.531,-339.627"/>
<polygon fill="#1f30ee" stroke="#1f30ee" points="868.531,-303.373 861.678,-294.812 864.08,-301.096 859.628,-298.818 859.628,-298.818 859.628,-298.818 864.08,-301.096 857.579,-302.824 868.531,-303.373 868.531,-303.373"/>
<text text-anchor="middle" x="894.073" y="-317.3" font-family="Times,serif" font-size="14.00">childs</text>
</g>
<!-- GenericSpareFamily -->
<g id="node12" class="node"><title>GenericSpareFamily</title>
<path fill="none" stroke="black" d="M558.121,-35.5C558.121,-35.5 692,-35.5 692,-35.5 698,-35.5 704,-41.5 704,-47.5 704,-47.5 704,-123.5 704,-123.5 704,-129.5 698,-135.5 692,-135.5 692,-135.5 558.121,-135.5 558.121,-135.5 552.121,-135.5 546.121,-129.5 546.121,-123.5 546.121,-123.5 546.121,-47.5 546.121,-47.5 546.121,-41.5 552.121,-35.5 558.121,-35.5"/>
<text text-anchor="middle" x="625.061" y="-120.3" font-family="Times,serif" font-size="14.00">GenericSpareFamily</text>
<polyline fill="none" stroke="black" points="546.121,-113.5 704,-113.5 "/>
<text text-anchor="start" x="554.121" y="-98.3" font-family="Times,serif" font-size="14.00">id :integer</text>
<text text-anchor="start" x="554.121" y="-84.3" font-family="Times,serif" font-size="14.00">generic_spare_id :integer</text>
<text text-anchor="start" x="554.121" y="-70.3" font-family="Times,serif" font-size="14.00">child_id :integer</text>
<text text-anchor="start" x="554.121" y="-56.3" font-family="Times,serif" font-size="14.00">created_at :datetime</text>
<text text-anchor="start" x="554.121" y="-42.3" font-family="Times,serif" font-size="14.00">updated_at :datetime</text>
</g>
<!-- GenericSpare&#45;&gt;GenericSpareFamily -->
<g id="edge13" class="edge"><title>GenericSpare&#45;&gt;GenericSpareFamily</title>
<path fill="none" stroke="#4e23d5" d="M731.201,-229.588C726.122,-222.254 721.031,-214.984 716.061,-208 701.019,-186.863 684.09,-164.017 668.949,-143.901"/>
<ellipse fill="none" stroke="#4e23d5" cx="733.585" cy="-233.043" rx="4.00002" ry="4.00002"/>
<polygon fill="#4e23d5" stroke="#4e23d5" points="668.825,-143.737 666.395,-133.043 665.814,-139.745 662.803,-135.754 662.803,-135.754 662.803,-135.754 665.814,-139.745 659.21,-138.464 668.825,-143.737 668.825,-143.737"/>
</g>
<!-- Spare -->
<g id="node18" class="node"><title>Spare</title>
<path fill="none" stroke="black" d="M734.055,-0.5C734.055,-0.5 850.066,-0.5 850.066,-0.5 856.066,-0.5 862.066,-6.5 862.066,-12.5 862.066,-12.5 862.066,-158.5 862.066,-158.5 862.066,-164.5 856.066,-170.5 850.066,-170.5 850.066,-170.5 734.055,-170.5 734.055,-170.5 728.055,-170.5 722.055,-164.5 722.055,-158.5 722.055,-158.5 722.055,-12.5 722.055,-12.5 722.055,-6.5 728.055,-0.5 734.055,-0.5"/>
<text text-anchor="middle" x="792.061" y="-155.3" font-family="Times,serif" font-size="14.00">Spare</text>
<polyline fill="none" stroke="black" points="722.055,-148.5 862.066,-148.5 "/>
<text text-anchor="start" x="730.055" y="-133.3" font-family="Times,serif" font-size="14.00">id :integer</text>
<text text-anchor="start" x="730.055" y="-119.3" font-family="Times,serif" font-size="14.00">car_id :integer</text>
<text text-anchor="start" x="730.055" y="-105.3" font-family="Times,serif" font-size="14.00">warehouse_id :integer</text>
<text text-anchor="start" x="730.055" y="-91.3" font-family="Times,serif" font-size="14.00">spare_id :integer</text>
<text text-anchor="start" x="730.055" y="-77.3" font-family="Times,serif" font-size="14.00">status :string</text>
<text text-anchor="start" x="730.055" y="-63.3" font-family="Times,serif" font-size="14.00">description :text</text>
<text text-anchor="start" x="730.055" y="-49.3" font-family="Times,serif" font-size="14.00">code :string</text>
<text text-anchor="start" x="730.055" y="-35.3" font-family="Times,serif" font-size="14.00">color :string</text>
<text text-anchor="start" x="730.055" y="-21.3" font-family="Times,serif" font-size="14.00">created_at :datetime</text>
<text text-anchor="start" x="730.055" y="-7.3" font-family="Times,serif" font-size="14.00">updated_at :datetime</text>
</g>
<!-- GenericSpare&#45;&gt;Spare -->
<g id="edge15" class="edge"><title>GenericSpare&#45;&gt;Spare</title>
<path fill="none" stroke="#c93a6a" d="M792.061,-228.274C792.061,-212.695 792.061,-196.501 792.061,-180.868"/>
<ellipse fill="none" stroke="#c93a6a" cx="792.061" cy="-232.351" rx="4" ry="4"/>
<polygon fill="#c93a6a" stroke="#c93a6a" points="792.061,-180.688 796.561,-170.688 792.061,-175.688 792.061,-170.688 792.061,-170.688 792.061,-170.688 792.061,-175.688 787.561,-170.688 792.061,-180.688 792.061,-180.688"/>
</g>
<!-- Insured -->
<g id="node13" class="node"><title>Insured</title>
<path fill="none" stroke="black" d="M12,-250.5C12,-250.5 138.121,-250.5 138.121,-250.5 144.121,-250.5 150.121,-256.5 150.121,-262.5 150.121,-262.5 150.121,-380.5 150.121,-380.5 150.121,-386.5 144.121,-392.5 138.121,-392.5 138.121,-392.5 12,-392.5 12,-392.5 6,-392.5 0,-386.5 0,-380.5 0,-380.5 0,-262.5 0,-262.5 0,-256.5 6,-250.5 12,-250.5"/>
<text text-anchor="middle" x="75.0605" y="-377.3" font-family="Times,serif" font-size="14.00">Insured</text>
<polyline fill="none" stroke="black" points="0,-370.5 150.121,-370.5 "/>
<text text-anchor="start" x="8" y="-355.3" font-family="Times,serif" font-size="14.00">id :integer</text>
<text text-anchor="start" x="8" y="-341.3" font-family="Times,serif" font-size="14.00">prevaluation_id :integer</text>
<text text-anchor="start" x="8" y="-327.3" font-family="Times,serif" font-size="14.00">third :boolean</text>
<text text-anchor="start" x="8" y="-313.3" font-family="Times,serif" font-size="14.00">name :string</text>
<text text-anchor="start" x="8" y="-299.3" font-family="Times,serif" font-size="14.00">telephone :integer</text>
<text text-anchor="start" x="8" y="-285.3" font-family="Times,serif" font-size="14.00">email :string</text>
<text text-anchor="start" x="8" y="-271.3" font-family="Times,serif" font-size="14.00">created_at :datetime</text>
<text text-anchor="start" x="8" y="-257.3" font-family="Times,serif" font-size="14.00">updated_at :datetime</text>
</g>
<!-- MoldComponent -->
<g id="node15" class="node"><title>MoldComponent</title>
<path fill="none" stroke="black" d="M940.328,-271.5C940.328,-271.5 1061.79,-271.5 1061.79,-271.5 1067.79,-271.5 1073.79,-277.5 1073.79,-283.5 1073.79,-283.5 1073.79,-359.5 1073.79,-359.5 1073.79,-365.5 1067.79,-371.5 1061.79,-371.5 1061.79,-371.5 940.328,-371.5 940.328,-371.5 934.328,-371.5 928.328,-365.5 928.328,-359.5 928.328,-359.5 928.328,-283.5 928.328,-283.5 928.328,-277.5 934.328,-271.5 940.328,-271.5"/>
<text text-anchor="middle" x="1001.06" y="-356.3" font-family="Times,serif" font-size="14.00">MoldComponent</text>
<polyline fill="none" stroke="black" points="928.328,-349.5 1073.79,-349.5 "/>
<text text-anchor="start" x="936.328" y="-334.3" font-family="Times,serif" font-size="14.00">id :integer</text>
<text text-anchor="start" x="936.328" y="-320.3" font-family="Times,serif" font-size="14.00">name :string</text>
<text text-anchor="start" x="936.328" y="-306.3" font-family="Times,serif" font-size="14.00">mold_spare_id :integer</text>
<text text-anchor="start" x="936.328" y="-292.3" font-family="Times,serif" font-size="14.00">created_at :datetime</text>
<text text-anchor="start" x="936.328" y="-278.3" font-family="Times,serif" font-size="14.00">updated_at :datetime</text>
</g>
<!-- MoldSpare -->
<g id="node16" class="node"><title>MoldSpare</title>
<path fill="none" stroke="black" d="M946.555,-752.5C946.555,-752.5 1055.57,-752.5 1055.57,-752.5 1061.57,-752.5 1067.57,-758.5 1067.57,-764.5 1067.57,-764.5 1067.57,-882.5 1067.57,-882.5 1067.57,-888.5 1061.57,-894.5 1055.57,-894.5 1055.57,-894.5 946.555,-894.5 946.555,-894.5 940.555,-894.5 934.555,-888.5 934.555,-882.5 934.555,-882.5 934.555,-764.5 934.555,-764.5 934.555,-758.5 940.555,-752.5 946.555,-752.5"/>
<text text-anchor="middle" x="1001.06" y="-879.3" font-family="Times,serif" font-size="14.00">MoldSpare</text>
<polyline fill="none" stroke="black" points="934.555,-872.5 1067.57,-872.5 "/>
<text text-anchor="start" x="942.555" y="-857.3" font-family="Times,serif" font-size="14.00">id :integer</text>
<text text-anchor="start" x="942.555" y="-843.3" font-family="Times,serif" font-size="14.00">name :string</text>
<text text-anchor="start" x="942.555" y="-829.3" font-family="Times,serif" font-size="14.00">comment :string</text>
<text text-anchor="start" x="942.555" y="-815.3" font-family="Times,serif" font-size="14.00">comment2 :string</text>
<text text-anchor="start" x="942.555" y="-801.3" font-family="Times,serif" font-size="14.00">mold_type :string</text>
<text text-anchor="start" x="942.555" y="-787.3" font-family="Times,serif" font-size="14.00">code :string</text>
<text text-anchor="start" x="942.555" y="-773.3" font-family="Times,serif" font-size="14.00">created_at :datetime</text>
<text text-anchor="start" x="942.555" y="-759.3" font-family="Times,serif" font-size="14.00">updated_at :datetime</text>
</g>
<!-- MoldSpare&#45;&gt;GenericSpare -->
<g id="edge16" class="edge"><title>MoldSpare&#45;&gt;GenericSpare</title>
<path fill="none" stroke="#513fae" d="M995.893,-744.105C988.421,-670.414 970.226,-558.776 926.061,-472 911.081,-442.569 888.835,-414.445 866.753,-390.692"/>
<ellipse fill="none" stroke="#513fae" cx="996.32" cy="-748.471" rx="4" ry="4"/>
<polygon fill="#513fae" stroke="#513fae" points="866.474,-390.398 862.866,-380.043 863.036,-386.768 859.598,-383.138 859.598,-383.138 859.598,-383.138 863.036,-386.768 856.331,-386.232 866.474,-390.398 866.474,-390.398"/>
</g>
<!-- MoldSpare&#45;&gt;MoldComponent -->
<g id="edge17" class="edge"><title>MoldSpare&#45;&gt;MoldComponent</title>
<path fill="none" stroke="#ab55e6" d="M1001.06,-744.153C1001.06,-643.765 1001.06,-471.974 1001.06,-381.779"/>
<ellipse fill="none" stroke="#ab55e6" cx="1001.06" cy="-748.451" rx="4" ry="4"/>
<polygon fill="#ab55e6" stroke="#ab55e6" points="1001.06,-381.723 1005.56,-371.722 1001.06,-376.723 1001.06,-371.723 1001.06,-371.723 1001.06,-371.723 1001.06,-376.723 996.561,-371.723 1001.06,-381.723 1001.06,-381.723"/>
</g>
<!-- Prevaluation -->
<g id="node17" class="node"><title>Prevaluation</title>
<path fill="none" stroke="black" d="M157.61,-472.5C157.61,-472.5 312.511,-472.5 312.511,-472.5 318.511,-472.5 324.511,-478.5 324.511,-484.5 324.511,-484.5 324.511,-1162.5 324.511,-1162.5 324.511,-1168.5 318.511,-1174.5 312.511,-1174.5 312.511,-1174.5 157.61,-1174.5 157.61,-1174.5 151.61,-1174.5 145.61,-1168.5 145.61,-1162.5 145.61,-1162.5 145.61,-484.5 145.61,-484.5 145.61,-478.5 151.61,-472.5 157.61,-472.5"/>
<text text-anchor="middle" x="235.061" y="-1159.3" font-family="Times,serif" font-size="14.00">Prevaluation</text>
<polyline fill="none" stroke="black" points="145.61,-1152.5 324.511,-1152.5 "/>
<text text-anchor="start" x="153.61" y="-1137.3" font-family="Times,serif" font-size="14.00">id :integer</text>
<text text-anchor="start" x="153.61" y="-1123.3" font-family="Times,serif" font-size="14.00">number :string</text>
<text text-anchor="start" x="153.61" y="-1109.3" font-family="Times,serif" font-size="14.00">policy :string</text>
<text text-anchor="start" x="153.61" y="-1095.3" font-family="Times,serif" font-size="14.00">subsection :string</text>
<text text-anchor="start" x="153.61" y="-1081.3" font-family="Times,serif" font-size="14.00">expedition_date :date</text>
<text text-anchor="start" x="153.61" y="-1067.3" font-family="Times,serif" font-size="14.00">valuation_date :date</text>
<text text-anchor="start" x="153.61" y="-1053.3" font-family="Times,serif" font-size="14.00">deductible_value :float</text>
<text text-anchor="start" x="153.61" y="-1039.3" font-family="Times,serif" font-size="14.00">commercial_value :float</text>
<text text-anchor="start" x="153.61" y="-1025.3" font-family="Times,serif" font-size="14.00">requires_crane :boolean</text>
<text text-anchor="start" x="153.61" y="-1011.3" font-family="Times,serif" font-size="14.00">collection_status :boolean</text>
<text text-anchor="start" x="153.61" y="-997.3" font-family="Times,serif" font-size="14.00">special_conditions :string</text>
<text text-anchor="start" x="153.61" y="-983.3" font-family="Times,serif" font-size="14.00">third_insured :boolean</text>
<text text-anchor="start" x="153.61" y="-969.3" font-family="Times,serif" font-size="14.00">agent_name :string</text>
<text text-anchor="start" x="153.61" y="-955.3" font-family="Times,serif" font-size="14.00">comment :text</text>
<text text-anchor="start" x="153.61" y="-941.3" font-family="Times,serif" font-size="14.00">photo1_file_name :string</text>
<text text-anchor="start" x="153.61" y="-927.3" font-family="Times,serif" font-size="14.00">photo1_content_type :string</text>
<text text-anchor="start" x="153.61" y="-913.3" font-family="Times,serif" font-size="14.00">photo1_file_size :integer</text>
<text text-anchor="start" x="153.61" y="-899.3" font-family="Times,serif" font-size="14.00">photo1_updated_at :datetime</text>
<text text-anchor="start" x="153.61" y="-885.3" font-family="Times,serif" font-size="14.00">photo2_file_name :string</text>
<text text-anchor="start" x="153.61" y="-871.3" font-family="Times,serif" font-size="14.00">photo2_content_type :string</text>
<text text-anchor="start" x="153.61" y="-857.3" font-family="Times,serif" font-size="14.00">photo2_file_size :integer</text>
<text text-anchor="start" x="153.61" y="-843.3" font-family="Times,serif" font-size="14.00">photo2_updated_at :datetime</text>
<text text-anchor="start" x="153.61" y="-829.3" font-family="Times,serif" font-size="14.00">photo3_file_name :string</text>
<text text-anchor="start" x="153.61" y="-815.3" font-family="Times,serif" font-size="14.00">photo3_content_type :string</text>
<text text-anchor="start" x="153.61" y="-801.3" font-family="Times,serif" font-size="14.00">photo3_file_size :integer</text>
<text text-anchor="start" x="153.61" y="-787.3" font-family="Times,serif" font-size="14.00">photo3_updated_at :datetime</text>
<text text-anchor="start" x="153.61" y="-773.3" font-family="Times,serif" font-size="14.00">photo4_file_name :string</text>
<text text-anchor="start" x="153.61" y="-759.3" font-family="Times,serif" font-size="14.00">photo4_content_type :string</text>
<text text-anchor="start" x="153.61" y="-745.3" font-family="Times,serif" font-size="14.00">photo4_file_size :integer</text>
<text text-anchor="start" x="153.61" y="-731.3" font-family="Times,serif" font-size="14.00">photo4_updated_at :datetime</text>
<text text-anchor="start" x="153.61" y="-717.3" font-family="Times,serif" font-size="14.00">doc1_file_name :string</text>
<text text-anchor="start" x="153.61" y="-703.3" font-family="Times,serif" font-size="14.00">doc1_content_type :string</text>
<text text-anchor="start" x="153.61" y="-689.3" font-family="Times,serif" font-size="14.00">doc1_file_size :integer</text>
<text text-anchor="start" x="153.61" y="-675.3" font-family="Times,serif" font-size="14.00">doc1_updated_at :datetime</text>
<text text-anchor="start" x="153.61" y="-661.3" font-family="Times,serif" font-size="14.00">doc2_file_name :string</text>
<text text-anchor="start" x="153.61" y="-647.3" font-family="Times,serif" font-size="14.00">doc2_content_type :string</text>
<text text-anchor="start" x="153.61" y="-633.3" font-family="Times,serif" font-size="14.00">doc2_file_size :integer</text>
<text text-anchor="start" x="153.61" y="-619.3" font-family="Times,serif" font-size="14.00">doc2_updated_at :datetime</text>
<text text-anchor="start" x="153.61" y="-605.3" font-family="Times,serif" font-size="14.00">doc3_file_name :string</text>
<text text-anchor="start" x="153.61" y="-591.3" font-family="Times,serif" font-size="14.00">doc3_content_type :string</text>
<text text-anchor="start" x="153.61" y="-577.3" font-family="Times,serif" font-size="14.00">doc3_file_size :integer</text>
<text text-anchor="start" x="153.61" y="-563.3" font-family="Times,serif" font-size="14.00">doc3_updated_at :datetime</text>
<text text-anchor="start" x="153.61" y="-549.3" font-family="Times,serif" font-size="14.00">doc4_file_name :string</text>
<text text-anchor="start" x="153.61" y="-535.3" font-family="Times,serif" font-size="14.00">doc4_content_type :string</text>
<text text-anchor="start" x="153.61" y="-521.3" font-family="Times,serif" font-size="14.00">doc4_file_size :integer</text>
<text text-anchor="start" x="153.61" y="-507.3" font-family="Times,serif" font-size="14.00">doc4_updated_at :datetime</text>
<text text-anchor="start" x="153.61" y="-493.3" font-family="Times,serif" font-size="14.00">created_at :datetime</text>
<text text-anchor="start" x="153.61" y="-479.3" font-family="Times,serif" font-size="14.00">updated_at :datetime</text>
</g>
<!-- Prevaluation&#45;&gt;Car -->
<g id="edge18" class="edge"><title>Prevaluation&#45;&gt;Car</title>
<path fill="none" stroke="#c648dd" d="M327.792,-521.06C334.589,-504.305 341.687,-487.848 349.061,-472 353.409,-462.654 358.225,-453.176 363.311,-443.763"/>
<ellipse fill="none" stroke="#c648dd" cx="326.182" cy="-525.066" rx="4.00001" ry="4.00001"/>
<polygon fill="#c648dd" stroke="#c648dd" points="363.442,-443.526 372.206,-436.935 365.853,-439.145 368.264,-434.765 368.264,-434.765 368.264,-434.765 365.853,-439.145 364.321,-432.595 363.442,-443.526 363.442,-443.526"/>
</g>
<!-- Prevaluation&#45;&gt;Insured -->
<g id="edge19" class="edge"><title>Prevaluation&#45;&gt;Insured</title>
<path fill="none" stroke="#f07fd9" d="M143.079,-535.058C127.5,-486.374 112.542,-439.628 100.639,-402.432"/>
<ellipse fill="none" stroke="#f07fd9" cx="144.369" cy="-539.089" rx="4.00001" ry="4.00001"/>
<polygon fill="#f07fd9" stroke="#f07fd9" points="100.571,-402.219 101.809,-391.323 99.0467,-397.457 97.5228,-392.695 97.5228,-392.695 97.5228,-392.695 99.0467,-397.457 93.2369,-394.066 100.571,-402.219 100.571,-402.219"/>
</g>
<!-- Valuation -->
<g id="node20" class="node"><title>Valuation</title>
<path fill="none" stroke="black" d="M180.555,-271.5C180.555,-271.5 289.566,-271.5 289.566,-271.5 295.566,-271.5 301.566,-277.5 301.566,-283.5 301.566,-283.5 301.566,-359.5 301.566,-359.5 301.566,-365.5 295.566,-371.5 289.566,-371.5 289.566,-371.5 180.555,-371.5 180.555,-371.5 174.555,-371.5 168.555,-365.5 168.555,-359.5 168.555,-359.5 168.555,-283.5 168.555,-283.5 168.555,-277.5 174.555,-271.5 180.555,-271.5"/>
<text text-anchor="middle" x="235.061" y="-356.3" font-family="Times,serif" font-size="14.00">Valuation</text>
<polyline fill="none" stroke="black" points="168.555,-349.5 301.566,-349.5 "/>
<text text-anchor="start" x="176.555" y="-334.3" font-family="Times,serif" font-size="14.00">id :integer</text>
<text text-anchor="start" x="176.555" y="-320.3" font-family="Times,serif" font-size="14.00">client_code :string</text>
<text text-anchor="start" x="176.555" y="-306.3" font-family="Times,serif" font-size="14.00">edited_by :string</text>
<text text-anchor="start" x="176.555" y="-292.3" font-family="Times,serif" font-size="14.00">created_at :datetime</text>
<text text-anchor="start" x="176.555" y="-278.3" font-family="Times,serif" font-size="14.00">updated_at :datetime</text>
</g>
<!-- Prevaluation&#45;&gt;Valuation -->
<g id="edge20" class="edge"><title>Prevaluation&#45;&gt;Valuation</title>
<path fill="none" stroke="#8a6145" d="M235.061,-464.014C235.061,-432.068 235.061,-403.054 235.061,-379.731"/>
<ellipse fill="none" stroke="#8a6145" cx="235.061" cy="-468.178" rx="4" ry="4"/>
<ellipse fill="#8a6145" stroke="#8a6145" cx="235.061" cy="-375.723" rx="4" ry="4"/>
</g>
<!-- User -->
<g id="node19" class="node"><title>User</title>
<path fill="none" stroke="black" d="M1341,-1212.5C1341,-1212.5 1467.12,-1212.5 1467.12,-1212.5 1473.12,-1212.5 1479.12,-1218.5 1479.12,-1224.5 1479.12,-1224.5 1479.12,-1356.5 1479.12,-1356.5 1479.12,-1362.5 1473.12,-1368.5 1467.12,-1368.5 1467.12,-1368.5 1341,-1368.5 1341,-1368.5 1335,-1368.5 1329,-1362.5 1329,-1356.5 1329,-1356.5 1329,-1224.5 1329,-1224.5 1329,-1218.5 1335,-1212.5 1341,-1212.5"/>
<text text-anchor="middle" x="1404.06" y="-1353.3" font-family="Times,serif" font-size="14.00">User</text>
<polyline fill="none" stroke="black" points="1329,-1346.5 1479.12,-1346.5 "/>
<text text-anchor="start" x="1337" y="-1331.3" font-family="Times,serif" font-size="14.00">id :integer</text>
<text text-anchor="start" x="1337" y="-1317.3" font-family="Times,serif" font-size="14.00">name :string</text>
<text text-anchor="start" x="1337" y="-1303.3" font-family="Times,serif" font-size="14.00">email :string</text>
<text text-anchor="start" x="1337" y="-1289.3" font-family="Times,serif" font-size="14.00">username :string</text>
<text text-anchor="start" x="1337" y="-1275.3" font-family="Times,serif" font-size="14.00">privileges :string</text>
<text text-anchor="start" x="1337" y="-1261.3" font-family="Times,serif" font-size="14.00">created_at :datetime</text>
<text text-anchor="start" x="1337" y="-1247.3" font-family="Times,serif" font-size="14.00">updated_at :datetime</text>
<text text-anchor="start" x="1337" y="-1233.3" font-family="Times,serif" font-size="14.00">password_digest :string</text>
<text text-anchor="start" x="1337" y="-1219.3" font-family="Times,serif" font-size="14.00">remember_token :string</text>
</g>
<!-- Warehouse -->
<g id="node21" class="node"><title>Warehouse</title>
<path fill="none" stroke="black" d="M370.555,-766.5C370.555,-766.5 479.566,-766.5 479.566,-766.5 485.566,-766.5 491.566,-772.5 491.566,-778.5 491.566,-778.5 491.566,-868.5 491.566,-868.5 491.566,-874.5 485.566,-880.5 479.566,-880.5 479.566,-880.5 370.555,-880.5 370.555,-880.5 364.555,-880.5 358.555,-874.5 358.555,-868.5 358.555,-868.5 358.555,-778.5 358.555,-778.5 358.555,-772.5 364.555,-766.5 370.555,-766.5"/>
<text text-anchor="middle" x="425.061" y="-865.3" font-family="Times,serif" font-size="14.00">Warehouse</text>
<polyline fill="none" stroke="black" points="358.555,-858.5 491.566,-858.5 "/>
<text text-anchor="start" x="366.555" y="-843.3" font-family="Times,serif" font-size="14.00">id :integer</text>
<text text-anchor="start" x="366.555" y="-829.3" font-family="Times,serif" font-size="14.00">branch :string</text>
<text text-anchor="start" x="366.555" y="-815.3" font-family="Times,serif" font-size="14.00">location :string</text>
<text text-anchor="start" x="366.555" y="-801.3" font-family="Times,serif" font-size="14.00">geolocation :string</text>
<text text-anchor="start" x="366.555" y="-787.3" font-family="Times,serif" font-size="14.00">created_at :datetime</text>
<text text-anchor="start" x="366.555" y="-773.3" font-family="Times,serif" font-size="14.00">updated_at :datetime</text>
</g>
<!-- Warehouse&#45;&gt;Car -->
<g id="edge22" class="edge"><title>Warehouse&#45;&gt;Car</title>
<path fill="none" stroke="#95b067" d="M427.256,-757.919C429.941,-678.96 434.541,-543.654 437.903,-444.784"/>
<ellipse fill="none" stroke="#95b067" cx="427.114" cy="-762.118" rx="4" ry="4"/>
<polygon fill="#95b067" stroke="#95b067" points="437.905,-444.725 442.742,-434.883 438.075,-439.728 438.245,-434.73 438.245,-434.73 438.245,-434.73 438.075,-439.728 433.747,-434.577 437.905,-444.725 437.905,-444.725"/>
</g>
<!-- Warehouse&#45;&gt;Spare -->
<g id="edge21" class="edge"><title>Warehouse&#45;&gt;Spare</title>
<path fill="none" stroke="#ede33e" d="M405.377,-758.536C363.892,-617.856 277.006,-287.75 349.061,-208 403.568,-147.671 640.212,-207.107 713.061,-171 713.153,-170.954 713.246,-170.908 713.339,-170.862"/>
<ellipse fill="none" stroke="#ede33e" cx="406.544" cy="-762.474" rx="4.00001" ry="4.00001"/>
<polygon fill="#ede33e" stroke="#ede33e" points="713.072,-171.011 723.996,-170.055 717.435,-168.57 721.799,-166.128 721.799,-166.128 721.799,-166.128 717.435,-168.57 719.601,-162.201 713.072,-171.011 713.072,-171.011"/>
</g>
</g>
</svg>
