<?xml version="1.0" encoding="UTF-8" standalone="no"?>
<!DOCTYPE svg PUBLIC "-//W3C//DTD SVG 1.1//EN"
 "http://www.w3.org/Graphics/SVG/1.1/DTD/svg11.dtd">
<!-- Generated by graphviz version 2.38.0 (20140413.2041)
 -->
<!-- Title: models_diagram Pages: 1 -->
<svg width="966pt" height="297pt"
 viewBox="0.00 0.00 965.78 297.00" xmlns="http://www.w3.org/2000/svg" xmlns:xlink="http://www.w3.org/1999/xlink">
<g id="graph0" class="graph" transform="scale(1 1) rotate(0) translate(4 293)">
<title>models_diagram</title>
<polygon fill="white" stroke="none" points="-4,4 -4,-293 961.776,-293 961.776,4 -4,4"/>
<!-- _diagram_info -->
<g id="node1" class="node"><title>_diagram_info</title>
<text text-anchor="start" x="408.179" y="-274.6" font-family="Times,serif" font-size="13.00">Models diagram</text>
<text text-anchor="start" x="408.179" y="-261.6" font-family="Times,serif" font-size="13.00">Date: Feb 03 2015 &#45; 18:37</text>
<text text-anchor="start" x="408.179" y="-248.6" font-family="Times,serif" font-size="13.00">Migration version: 20150113013129</text>
<text text-anchor="start" x="408.179" y="-235.6" font-family="Times,serif" font-size="13.00">Generated by RailRoady 1.3.0</text>
<text text-anchor="start" x="408.179" y="-222.6" font-family="Times,serif" font-size="13.00">http://railroady.prestonlee.com</text>
</g>
<!-- Brand -->
<g id="node2" class="node"><title>Brand</title>
<ellipse fill="none" stroke="black" cx="810.629" cy="-252.5" rx="31.9393" ry="18"/>
<text text-anchor="middle" x="810.629" y="-248.3" font-family="Times,serif" font-size="14.00">Brand</text>
</g>
<!-- GenericCar -->
<g id="node6" class="node"><title>GenericCar</title>
<ellipse fill="none" stroke="black" cx="655.629" cy="-162" rx="50.7224" ry="18"/>
<text text-anchor="middle" x="655.629" y="-157.8" font-family="Times,serif" font-size="14.00">GenericCar</text>
</g>
<!-- Brand&#45;&gt;GenericCar -->
<g id="edge1" class="edge"><title>Brand&#45;&gt;GenericCar</title>
<path fill="none" stroke="#368cf7" d="M782.099,-235.211C756.209,-220.428 717.967,-198.593 690.319,-182.807"/>
<ellipse fill="none" stroke="#368cf7" cx="785.603" cy="-237.211" rx="4.00002" ry="4.00002"/>
<polygon fill="#368cf7" stroke="#368cf7" points="690.066,-182.662 683.613,-173.796 685.723,-180.183 681.381,-177.704 681.381,-177.704 681.381,-177.704 685.723,-180.183 679.15,-181.612 690.066,-182.662 690.066,-182.662"/>
</g>
<!-- ModelAcronym -->
<g id="node11" class="node"><title>ModelAcronym</title>
<ellipse fill="none" stroke="black" cx="829.629" cy="-162" rx="66.6925" ry="18"/>
<text text-anchor="middle" x="829.629" y="-157.8" font-family="Times,serif" font-size="14.00">ModelAcronym</text>
</g>
<!-- Brand&#45;&gt;ModelAcronym -->
<g id="edge2" class="edge"><title>Brand&#45;&gt;ModelAcronym</title>
<path fill="none" stroke="#355995" d="M815.974,-226.603C818.419,-215.215 821.321,-201.696 823.82,-190.057"/>
<ellipse fill="none" stroke="#355995" cx="815.132" cy="-230.525" rx="4.00001" ry="4.00001"/>
<polygon fill="#355995" stroke="#355995" points="823.877,-189.789 830.376,-180.956 824.927,-184.9 825.976,-180.011 825.976,-180.011 825.976,-180.011 824.927,-184.9 821.577,-179.067 823.877,-189.789 823.877,-189.789"/>
</g>
<!-- Car -->
<g id="node3" class="node"><title>Car</title>
<ellipse fill="none" stroke="black" cx="224.629" cy="-90" rx="27" ry="18"/>
<text text-anchor="middle" x="224.629" y="-85.8" font-family="Times,serif" font-size="14.00">Car</text>
</g>
<!-- CarSpareAlloy -->
<g id="node4" class="node"><title>CarSpareAlloy</title>
<ellipse fill="none" stroke="black" cx="568.629" cy="-18" rx="63.3097" ry="18"/>
<text text-anchor="middle" x="568.629" y="-13.8" font-family="Times,serif" font-size="14.00">CarSpareAlloy</text>
</g>
<!-- Generation -->
<g id="node5" class="node"><title>Generation</title>
<ellipse fill="none" stroke="black" cx="674.629" cy="-252.5" rx="49.286" ry="18"/>
<text text-anchor="middle" x="674.629" y="-248.3" font-family="Times,serif" font-size="14.00">Generation</text>
</g>
<!-- Generation&#45;&gt;GenericCar -->
<g id="edge3" class="edge"><title>Generation&#45;&gt;GenericCar</title>
<path fill="none" stroke="#777810" d="M668.835,-224.515C666.478,-213.535 663.76,-200.873 661.404,-189.902"/>
<polygon fill="#777810" stroke="#777810" points="668.866,-224.659 666.565,-235.381 669.916,-229.548 670.965,-234.436 670.965,-234.436 670.965,-234.436 669.916,-229.548 675.365,-233.492 668.866,-224.659 668.866,-224.659"/>
<polygon fill="#777810" stroke="#777810" points="661.38,-189.789 663.68,-179.067 660.33,-184.9 659.281,-180.011 659.281,-180.011 659.281,-180.011 660.33,-184.9 654.881,-180.956 661.38,-189.789 661.38,-189.789"/>
</g>
<!-- GenericCarGeneration -->
<g id="node7" class="node"><title>GenericCarGeneration</title>
<ellipse fill="none" stroke="black" cx="867.629" cy="-90" rx="90.2944" ry="18"/>
<text text-anchor="middle" x="867.629" y="-85.8" font-family="Times,serif" font-size="14.00">GenericCarGeneration</text>
</g>
<!-- Generation&#45;&gt;GenericCarGeneration -->
<g id="edge4" class="edge"><title>Generation&#45;&gt;GenericCarGeneration</title>
<path fill="none" stroke="#61ede6" d="M687.602,-227.263C701.35,-203.471 725.008,-167.435 753.629,-144 771.268,-129.556 793.493,-118.075 813.624,-109.544"/>
<ellipse fill="none" stroke="#61ede6" cx="685.463" cy="-231.045" rx="4.00002" ry="4.00002"/>
<polygon fill="#61ede6" stroke="#61ede6" points="813.747,-109.494 824.706,-109.879 818.376,-107.604 823.005,-105.713 823.005,-105.713 823.005,-105.713 818.376,-107.604 821.303,-101.547 813.747,-109.494 813.747,-109.494"/>
</g>
<!-- GenericCar&#45;&gt;Car -->
<g id="edge5" class="edge"><title>GenericCar&#45;&gt;Car</title>
<path fill="none" stroke="#d03820" d="M600.053,-154.123C529.642,-145.095 404.683,-128.022 298.629,-108 285.777,-105.574 271.771,-102.474 259.437,-99.5884"/>
<ellipse fill="none" stroke="#d03820" cx="604.397" cy="-154.677" rx="4.00001" ry="4.00001"/>
<polygon fill="#d03820" stroke="#d03820" points="259.26,-99.5465 250.572,-92.8558 254.395,-98.3901 249.531,-97.2338 249.531,-97.2338 249.531,-97.2338 254.395,-98.3901 248.49,-101.612 259.26,-99.5465 259.26,-99.5465"/>
</g>
<!-- GenericCar&#45;&gt;CarSpareAlloy -->
<g id="edge6" class="edge"><title>GenericCar&#45;&gt;CarSpareAlloy</title>
<path fill="none" stroke="#0af270" d="M641.102,-137.29C625.377,-111.623 600.386,-70.8345 584.247,-44.4918"/>
<ellipse fill="none" stroke="#0af270" cx="643.217" cy="-140.742" rx="4.00002" ry="4.00002"/>
<polygon fill="#0af270" stroke="#0af270" points="584.161,-44.3519 582.774,-33.474 581.549,-40.0884 578.937,-35.825 578.937,-35.825 578.937,-35.825 581.549,-40.0884 575.1,-38.1759 584.161,-44.3519 584.161,-44.3519"/>
</g>
<!-- GenericCar&#45;&gt;GenericCarGeneration -->
<g id="edge9" class="edge"><title>GenericCar&#45;&gt;GenericCarGeneration</title>
<path fill="none" stroke="#efa364" d="M699.522,-146.507C732.553,-135.6 778.014,-120.59 813.333,-108.928"/>
<ellipse fill="none" stroke="#efa364" cx="695.39" cy="-147.871" rx="4.00001" ry="4.00001"/>
<polygon fill="#efa364" stroke="#efa364" points="813.511,-108.869 824.418,-110.007 818.259,-107.301 823.007,-105.734 823.007,-105.734 823.007,-105.734 818.259,-107.301 821.596,-101.461 813.511,-108.869 813.511,-108.869"/>
</g>
<!-- GenericImage -->
<g id="node8" class="node"><title>GenericImage</title>
<ellipse fill="none" stroke="black" cx="699.629" cy="-90" rx="60.3768" ry="18"/>
<text text-anchor="middle" x="699.629" y="-85.8" font-family="Times,serif" font-size="14.00">GenericImage</text>
</g>
<!-- GenericCar&#45;&gt;GenericImage -->
<g id="edge7" class="edge"><title>GenericCar&#45;&gt;GenericImage</title>
<path fill="none" stroke="#366119" d="M670.538,-137.28C674.724,-130.622 679.292,-123.354 683.543,-116.591"/>
<ellipse fill="none" stroke="#366119" cx="668.408" cy="-140.668" rx="4.00002" ry="4.00002"/>
<polygon fill="#366119" stroke="#366119" points="683.754,-116.255 692.885,-110.184 686.415,-112.022 689.075,-107.789 689.075,-107.789 689.075,-107.789 686.415,-112.022 685.266,-105.394 683.754,-116.255 683.754,-116.255"/>
</g>
<!-- GenericSpare -->
<g id="node9" class="node"><title>GenericSpare</title>
<ellipse fill="none" stroke="black" cx="525.629" cy="-90" rx="58.4563" ry="18"/>
<text text-anchor="middle" x="525.629" y="-85.8" font-family="Times,serif" font-size="14.00">GenericSpare</text>
</g>
<!-- GenericCar&#45;&gt;GenericSpare -->
<g id="edge8" class="edge"><title>GenericCar&#45;&gt;GenericSpare</title>
<path fill="none" stroke="#70c5ea" d="M619.769,-141.691C601.938,-132.09 580.419,-120.502 562.457,-110.831"/>
<polygon fill="#70c5ea" stroke="#70c5ea" points="619.888,-141.755 626.559,-150.458 624.29,-144.125 628.692,-146.496 628.692,-146.496 628.692,-146.496 624.29,-144.125 630.826,-142.534 619.888,-141.755 619.888,-141.755"/>
<polygon fill="#70c5ea" stroke="#70c5ea" points="562.232,-110.709 555.561,-102.006 557.829,-108.339 553.427,-105.968 553.427,-105.968 553.427,-105.968 557.829,-108.339 551.294,-109.931 562.232,-110.709 562.232,-110.709"/>
</g>
<!-- GenericSpare&#45;&gt;CarSpareAlloy -->
<g id="edge10" class="edge"><title>GenericSpare&#45;&gt;CarSpareAlloy</title>
<path fill="none" stroke="#fc35ed" d="M540.373,-64.9976C544.434,-58.3871 548.852,-51.1939 552.963,-44.502"/>
<ellipse fill="none" stroke="#fc35ed" cx="538.131" cy="-68.6466" rx="4.00002" ry="4.00002"/>
<polygon fill="#fc35ed" stroke="#fc35ed" points="553.081,-44.3098 562.15,-38.1444 555.698,-40.0494 558.315,-35.789 558.315,-35.789 558.315,-35.789 555.698,-40.0494 554.481,-33.4336 553.081,-44.3098 553.081,-44.3098"/>
</g>
<!-- Spare -->
<g id="node15" class="node"><title>Spare</title>
<ellipse fill="none" stroke="black" cx="390.629" cy="-18" rx="30.4862" ry="18"/>
<text text-anchor="middle" x="390.629" y="-13.8" font-family="Times,serif" font-size="14.00">Spare</text>
</g>
<!-- GenericSpare&#45;&gt;Spare -->
<g id="edge11" class="edge"><title>GenericSpare&#45;&gt;Spare</title>
<path fill="none" stroke="#f320ea" d="M489.679,-70.3594C468.631,-59.4455 442.301,-45.7934 422.08,-35.3083"/>
<ellipse fill="none" stroke="#f320ea" cx="493.448" cy="-72.3135" rx="4.00002" ry="4.00002"/>
<polygon fill="#f320ea" stroke="#f320ea" points="421.855,-35.1917 415.049,-26.5936 417.417,-32.8901 412.978,-30.5885 412.978,-30.5885 412.978,-30.5885 417.417,-32.8901 410.906,-34.5834 421.855,-35.1917 421.855,-35.1917"/>
</g>
<!-- Insured -->
<g id="node10" class="node"><title>Insured</title>
<ellipse fill="none" stroke="black" cx="36.6286" cy="-90" rx="36.7576" ry="18"/>
<text text-anchor="middle" x="36.6286" y="-85.8" font-family="Times,serif" font-size="14.00">Insured</text>
</g>
<!-- MoldComponent -->
<g id="node12" class="node"><title>MoldComponent</title>
<ellipse fill="none" stroke="black" cx="378.629" cy="-90" rx="70.5772" ry="18"/>
<text text-anchor="middle" x="378.629" y="-85.8" font-family="Times,serif" font-size="14.00">MoldComponent</text>
</g>
<!-- MoldSpare -->
<g id="node13" class="node"><title>MoldSpare</title>
<ellipse fill="none" stroke="black" cx="435.629" cy="-162" rx="49.3119" ry="18"/>
<text text-anchor="middle" x="435.629" y="-157.8" font-family="Times,serif" font-size="14.00">MoldSpare</text>
</g>
<!-- MoldSpare&#45;&gt;GenericSpare -->
<g id="edge12" class="edge"><title>MoldSpare&#45;&gt;GenericSpare</title>
<path fill="none" stroke="#5aaaa1" d="M462.089,-140.42C473.028,-131.912 485.739,-122.026 496.904,-113.341"/>
<ellipse fill="none" stroke="#5aaaa1" cx="458.76" cy="-143.009" rx="4.00002" ry="4.00002"/>
<polygon fill="#5aaaa1" stroke="#5aaaa1" points="497.193,-113.117 507.849,-110.529 501.14,-110.047 505.087,-106.977 505.087,-106.977 505.087,-106.977 501.14,-110.047 502.324,-103.425 497.193,-113.117 497.193,-113.117"/>
</g>
<!-- MoldSpare&#45;&gt;MoldComponent -->
<g id="edge13" class="edge"><title>MoldSpare&#45;&gt;MoldComponent</title>
<path fill="none" stroke="#be090c" d="M417.058,-138.194C411.297,-131.119 404.918,-123.285 399.04,-116.066"/>
<ellipse fill="none" stroke="#be090c" cx="419.595" cy="-141.309" rx="4.00002" ry="4.00002"/>
<polygon fill="#be090c" stroke="#be090c" points="398.75,-115.711 395.925,-105.115 395.593,-111.833 392.436,-107.956 392.436,-107.956 392.436,-107.956 395.593,-111.833 388.946,-110.798 398.75,-115.711 398.75,-115.711"/>
</g>
<!-- Prevaluation -->
<g id="node14" class="node"><title>Prevaluation</title>
<ellipse fill="none" stroke="black" cx="135.629" cy="-162" rx="54.6076" ry="18"/>
<text text-anchor="middle" x="135.629" y="-157.8" font-family="Times,serif" font-size="14.00">Prevaluation</text>
</g>
<!-- Prevaluation&#45;&gt;Car -->
<g id="edge14" class="edge"><title>Prevaluation&#45;&gt;Car</title>
<path fill="none" stroke="#93b529" d="M162.355,-139.979C174.23,-130.639 188.126,-119.71 199.775,-110.548"/>
<ellipse fill="none" stroke="#93b529" cx="158.968" cy="-142.643" rx="4.00002" ry="4.00002"/>
<polygon fill="#93b529" stroke="#93b529" points="199.938,-110.419 210.58,-107.774 203.868,-107.328 207.798,-104.237 207.798,-104.237 207.798,-104.237 203.868,-107.328 205.016,-100.7 199.938,-110.419 199.938,-110.419"/>
</g>
<!-- Prevaluation&#45;&gt;Insured -->
<g id="edge15" class="edge"><title>Prevaluation&#45;&gt;Insured</title>
<path fill="none" stroke="#63ce10" d="M107.02,-140.772C93.8462,-131.457 78.2543,-120.432 65.0974,-111.129"/>
<ellipse fill="none" stroke="#63ce10" cx="110.391" cy="-143.155" rx="4.00002" ry="4.00002"/>
<polygon fill="#63ce10" stroke="#63ce10" points="65.0181,-111.073 59.451,-101.626 60.9356,-108.187 56.853,-105.3 56.853,-105.3 56.853,-105.3 60.9356,-108.187 54.255,-108.974 65.0181,-111.073 65.0181,-111.073"/>
</g>
<!-- Valuation -->
<g id="node17" class="node"><title>Valuation</title>
<ellipse fill="none" stroke="black" cx="135.629" cy="-90" rx="43.9992" ry="18"/>
<text text-anchor="middle" x="135.629" y="-85.8" font-family="Times,serif" font-size="14.00">Valuation</text>
</g>
<!-- Prevaluation&#45;&gt;Valuation -->
<g id="edge16" class="edge"><title>Prevaluation&#45;&gt;Valuation</title>
<path fill="none" stroke="#a20d31" d="M135.629,-135.64C135.629,-129.348 135.629,-122.605 135.629,-116.316"/>
<ellipse fill="none" stroke="#a20d31" cx="135.629" cy="-139.697" rx="4" ry="4"/>
<ellipse fill="#a20d31" stroke="#a20d31" cx="135.629" cy="-112.104" rx="4" ry="4"/>
</g>
<!-- User -->
<g id="node16" class="node"><title>User</title>
<ellipse fill="none" stroke="black" cx="887.629" cy="-252.5" rx="27" ry="18"/>
<text text-anchor="middle" x="887.629" y="-248.3" font-family="Times,serif" font-size="14.00">User</text>
</g>
<!-- Warehouse -->
<g id="node18" class="node"><title>Warehouse</title>
<ellipse fill="none" stroke="black" cx="259.629" cy="-162" rx="49.3546" ry="18"/>
<text text-anchor="middle" x="259.629" y="-157.8" font-family="Times,serif" font-size="14.00">Warehouse</text>
</g>
<!-- Warehouse&#45;&gt;Car -->
<g id="edge18" class="edge"><title>Warehouse&#45;&gt;Car</title>
<path fill="none" stroke="#ded766" d="M247.573,-136.889C244.293,-130.328 240.728,-123.199 237.409,-116.56"/>
<ellipse fill="none" stroke="#ded766" cx="249.367" cy="-140.477" rx="4.00002" ry="4.00002"/>
<polygon fill="#ded766" stroke="#ded766" points="237.254,-116.251 236.807,-105.295 235.018,-111.779 232.782,-107.307 232.782,-107.307 232.782,-107.307 235.018,-111.779 228.757,-109.319 237.254,-116.251 237.254,-116.251"/>
</g>
<!-- Warehouse&#45;&gt;Spare -->
<g id="edge17" class="edge"><title>Warehouse&#45;&gt;Spare</title>
<path fill="none" stroke="#7fa404" d="M265.924,-136.035C271.802,-116.757 282.179,-90.3599 298.629,-72 314.307,-54.5006 337.181,-41.288 356.198,-32.4317"/>
<ellipse fill="none" stroke="#7fa404" cx="264.786" cy="-139.974" rx="4.00001" ry="4.00001"/>
<polygon fill="#7fa404" stroke="#7fa404" points="356.315,-32.3794 367.281,-32.428 360.884,-30.3478 365.453,-28.3162 365.453,-28.3162 365.453,-28.3162 360.884,-30.3478 363.624,-24.2044 356.315,-32.3794 356.315,-32.3794"/>
</g>
</g>
</svg>
