<?xml version="1.0" encoding="UTF-8" standalone="no"?>
<!DOCTYPE svg PUBLIC "-//W3C//DTD SVG 1.1//EN"
 "http://www.w3.org/Graphics/SVG/1.1/DTD/svg11.dtd">
<!-- Generated by graphviz version 2.38.0 (20140413.2041)
 -->
<!-- Title: models_diagram Pages: 1 -->
<svg width="1602pt" height="369pt"
 viewBox="0.00 0.00 1601.69 369.00" xmlns="http://www.w3.org/2000/svg" xmlns:xlink="http://www.w3.org/1999/xlink">
<g id="graph0" class="graph" transform="scale(1 1) rotate(0) translate(4 365)">
<title>models_diagram</title>
<polygon fill="white" stroke="none" points="-4,4 -4,-365 1597.69,-365 1597.69,4 -4,4"/>
<!-- _diagram_info -->
<g id="node1" class="node"><title>_diagram_info</title>
<text text-anchor="start" x="8" y="-346.6" font-family="Times,serif" font-size="13.00">Models diagram</text>
<text text-anchor="start" x="8" y="-333.6" font-family="Times,serif" font-size="13.00">Date: Feb 09 2015 &#45; 12:20</text>
<text text-anchor="start" x="8" y="-320.6" font-family="Times,serif" font-size="13.00">Migration version: 20150209181442</text>
<text text-anchor="start" x="8" y="-307.6" font-family="Times,serif" font-size="13.00">Generated by RailRoady 1.3.0</text>
<text text-anchor="start" x="8" y="-294.6" font-family="Times,serif" font-size="13.00">http://railroady.prestonlee.com</text>
</g>
<!-- Brand -->
<g id="node2" class="node"><title>Brand</title>
<ellipse fill="none" stroke="black" cx="256.688" cy="-324.5" rx="31.9393" ry="18"/>
<text text-anchor="middle" x="256.688" y="-320.3" font-family="Times,serif" font-size="14.00">Brand</text>
</g>
<!-- GenericCar -->
<g id="node7" class="node"><title>GenericCar</title>
<ellipse fill="none" stroke="black" cx="411.688" cy="-234" rx="50.7224" ry="18"/>
<text text-anchor="middle" x="411.688" y="-229.8" font-family="Times,serif" font-size="14.00">GenericCar</text>
</g>
<!-- Brand&#45;&gt;GenericCar -->
<g id="edge1" class="edge"><title>Brand&#45;&gt;GenericCar</title>
<path fill="none" stroke="#78c939" d="M285.217,-307.211C311.107,-292.428 349.349,-270.593 376.998,-254.807"/>
<ellipse fill="none" stroke="#78c939" cx="281.713" cy="-309.211" rx="4.00002" ry="4.00002"/>
<polygon fill="#78c939" stroke="#78c939" points="377.251,-254.662 388.166,-253.612 381.593,-252.183 385.935,-249.704 385.935,-249.704 385.935,-249.704 381.593,-252.183 383.704,-245.796 377.251,-254.662 377.251,-254.662"/>
</g>
<!-- ModelAcronym -->
<g id="node15" class="node"><title>ModelAcronym</title>
<ellipse fill="none" stroke="black" cx="237.688" cy="-234" rx="66.6925" ry="18"/>
<text text-anchor="middle" x="237.688" y="-229.8" font-family="Times,serif" font-size="14.00">ModelAcronym</text>
</g>
<!-- Brand&#45;&gt;ModelAcronym -->
<g id="edge2" class="edge"><title>Brand&#45;&gt;ModelAcronym</title>
<path fill="none" stroke="#710a47" d="M251.343,-298.603C248.898,-287.215 245.995,-273.696 243.497,-262.057"/>
<ellipse fill="none" stroke="#710a47" cx="252.185" cy="-302.525" rx="4.00001" ry="4.00001"/>
<polygon fill="#710a47" stroke="#710a47" points="243.439,-261.789 245.74,-251.067 242.389,-256.9 241.34,-252.011 241.34,-252.011 241.34,-252.011 242.389,-256.9 236.94,-252.956 243.439,-261.789 243.439,-261.789"/>
</g>
<!-- CarLikelihood -->
<g id="node3" class="node"><title>CarLikelihood</title>
<ellipse fill="none" stroke="black" cx="542.688" cy="-234" rx="61.8649" ry="18"/>
<text text-anchor="middle" x="542.688" y="-229.8" font-family="Times,serif" font-size="14.00">CarLikelihood</text>
</g>
<!-- CarTypes -->
<g id="node4" class="node"><title>CarTypes</title>
<ellipse fill="none" stroke="black" cx="523.688" cy="-324.5" rx="43.7405" ry="18"/>
<text text-anchor="middle" x="523.688" y="-320.3" font-family="Times,serif" font-size="14.00">CarTypes</text>
</g>
<!-- CarTypes&#45;&gt;CarLikelihood -->
<g id="edge4" class="edge"><title>CarTypes&#45;&gt;CarLikelihood</title>
<path fill="none" stroke="#5cf9dd" d="M529.033,-298.603C531.478,-287.215 534.38,-273.696 536.879,-262.057"/>
<ellipse fill="none" stroke="#5cf9dd" cx="528.191" cy="-302.525" rx="4.00001" ry="4.00001"/>
<polygon fill="#5cf9dd" stroke="#5cf9dd" points="536.936,-261.789 543.435,-252.956 537.986,-256.9 539.036,-252.011 539.036,-252.011 539.036,-252.011 537.986,-256.9 534.636,-251.067 536.936,-261.789 536.936,-261.789"/>
</g>
<!-- CarTypes&#45;&gt;GenericCar -->
<g id="edge3" class="edge"><title>CarTypes&#45;&gt;GenericCar</title>
<path fill="none" stroke="#19b9a8" d="M498.149,-303.32C480.589,-289.444 457.283,-271.029 439.294,-256.814"/>
<ellipse fill="none" stroke="#19b9a8" cx="501.296" cy="-305.806" rx="4.00002" ry="4.00002"/>
<polygon fill="#19b9a8" stroke="#19b9a8" points="439.288,-256.809 434.232,-247.079 435.365,-253.71 431.442,-250.61 431.442,-250.61 431.442,-250.61 435.365,-253.71 428.652,-254.14 439.288,-256.809 439.288,-256.809"/>
</g>
<!-- FamilyAcronym -->
<g id="node5" class="node"><title>FamilyAcronym</title>
<ellipse fill="none" stroke="black" cx="974.688" cy="-234" rx="68.6305" ry="18"/>
<text text-anchor="middle" x="974.688" y="-229.8" font-family="Times,serif" font-size="14.00">FamilyAcronym</text>
</g>
<!-- Generation -->
<g id="node6" class="node"><title>Generation</title>
<ellipse fill="none" stroke="black" cx="392.688" cy="-324.5" rx="49.286" ry="18"/>
<text text-anchor="middle" x="392.688" y="-320.3" font-family="Times,serif" font-size="14.00">Generation</text>
</g>
<!-- Generation&#45;&gt;GenericCar -->
<g id="edge5" class="edge"><title>Generation&#45;&gt;GenericCar</title>
<path fill="none" stroke="#200847" d="M398.481,-296.515C400.838,-285.535 403.557,-272.873 405.912,-261.902"/>
<polygon fill="#200847" stroke="#200847" points="398.45,-296.659 391.951,-305.492 397.401,-301.548 396.351,-306.436 396.351,-306.436 396.351,-306.436 397.401,-301.548 400.751,-307.381 398.45,-296.659 398.45,-296.659"/>
<polygon fill="#200847" stroke="#200847" points="405.936,-261.789 412.435,-252.956 406.986,-256.9 408.036,-252.011 408.036,-252.011 408.036,-252.011 406.986,-256.9 403.636,-251.067 405.936,-261.789 405.936,-261.789"/>
</g>
<!-- GenericCarGeneration -->
<g id="node8" class="node"><title>GenericCarGeneration</title>
<ellipse fill="none" stroke="black" cx="313.688" cy="-162" rx="90.2944" ry="18"/>
<text text-anchor="middle" x="313.688" y="-157.8" font-family="Times,serif" font-size="14.00">GenericCarGeneration</text>
</g>
<!-- Generation&#45;&gt;GenericCarGeneration -->
<g id="edge6" class="edge"><title>Generation&#45;&gt;GenericCarGeneration</title>
<path fill="none" stroke="#113cf6" d="M378.035,-299.58C369.873,-285.869 359.762,-268.211 351.688,-252 341.434,-231.413 331.28,-207.394 324.052,-189.5"/>
<ellipse fill="none" stroke="#113cf6" cx="380.284" cy="-303.328" rx="4.00002" ry="4.00002"/>
<polygon fill="#113cf6" stroke="#113cf6" points="323.966,-189.284 324.434,-178.328 322.11,-184.641 320.255,-179.998 320.255,-179.998 320.255,-179.998 322.11,-184.641 316.076,-181.667 323.966,-189.284 323.966,-189.284"/>
</g>
<!-- GenericCar&#45;&gt;GenericCarGeneration -->
<g id="edge11" class="edge"><title>GenericCar&#45;&gt;GenericCarGeneration</title>
<path fill="none" stroke="#9b7d0a" d="M383.38,-212.78C371.353,-204.189 357.289,-194.143 344.956,-185.335"/>
<ellipse fill="none" stroke="#9b7d0a" cx="386.683" cy="-215.14" rx="4.00002" ry="4.00002"/>
<polygon fill="#9b7d0a" stroke="#9b7d0a" points="344.879,-185.28 339.357,-175.805 340.81,-182.373 336.742,-179.467 336.742,-179.467 336.742,-179.467 340.81,-182.373 334.126,-183.129 344.879,-185.28 344.879,-185.28"/>
</g>
<!-- GenericCarImage -->
<g id="node9" class="node"><title>GenericCarImage</title>
<ellipse fill="none" stroke="black" cx="532.688" cy="-162" rx="72.9135" ry="18"/>
<text text-anchor="middle" x="532.688" y="-157.8" font-family="Times,serif" font-size="14.00">GenericCarImage</text>
</g>
<!-- GenericCar&#45;&gt;GenericCarImage -->
<g id="edge9" class="edge"><title>GenericCar&#45;&gt;GenericCarImage</title>
<path fill="none" stroke="#7fc404" d="M444.115,-214.241C460.225,-204.921 479.748,-193.627 496.36,-184.016"/>
<ellipse fill="none" stroke="#7fc404" cx="440.516" cy="-216.323" rx="4.00002" ry="4.00002"/>
<polygon fill="#7fc404" stroke="#7fc404" points="496.594,-183.881 507.503,-182.768 500.922,-181.377 505.25,-178.873 505.25,-178.873 505.25,-178.873 500.922,-181.377 502.996,-174.978 496.594,-183.881 496.594,-183.881"/>
</g>
<!-- GenericFittable -->
<g id="node11" class="node"><title>GenericFittable</title>
<ellipse fill="none" stroke="black" cx="475.688" cy="-90" rx="65.2217" ry="18"/>
<text text-anchor="middle" x="475.688" y="-85.8" font-family="Times,serif" font-size="14.00">GenericFittable</text>
</g>
<!-- GenericCar&#45;&gt;GenericFittable -->
<g id="edge8" class="edge"><title>GenericCar&#45;&gt;GenericFittable</title>
<path fill="none" stroke="#549fe9" d="M422.35,-208.167C430.088,-190.271 440.876,-165.573 450.688,-144 454.666,-135.253 459.112,-125.746 463.139,-117.23"/>
<ellipse fill="none" stroke="#549fe9" cx="420.609" cy="-212.203" rx="4.00001" ry="4.00001"/>
<polygon fill="#549fe9" stroke="#549fe9" points="463.171,-117.163 471.525,-110.06 465.315,-112.646 467.46,-108.13 467.46,-108.13 467.46,-108.13 465.315,-112.646 463.395,-106.199 463.171,-117.163 463.171,-117.163"/>
</g>
<!-- GenericSpare -->
<g id="node12" class="node"><title>GenericSpare</title>
<ellipse fill="none" stroke="black" cx="681.688" cy="-162" rx="58.4563" ry="18"/>
<text text-anchor="middle" x="681.688" y="-157.8" font-family="Times,serif" font-size="14.00">GenericSpare</text>
</g>
<!-- GenericCar&#45;&gt;GenericSpare -->
<g id="edge10" class="edge"><title>GenericCar&#45;&gt;GenericSpare</title>
<path fill="none" stroke="#5ce9fc" d="M459.386,-219.348C463.543,-218.2 467.687,-217.07 471.688,-216 535.001,-199.065 551.147,-196.059 614.688,-180 619.06,-178.895 623.592,-177.748 628.143,-176.595"/>
<polygon fill="#5ce9fc" stroke="#5ce9fc" points="459.363,-219.354 448.522,-217.704 454.546,-220.697 449.73,-222.039 449.73,-222.039 449.73,-222.039 454.546,-220.697 450.938,-226.374 459.363,-219.354 459.363,-219.354"/>
<polygon fill="#5ce9fc" stroke="#5ce9fc" points="628.388,-176.533 639.187,-178.439 633.235,-175.305 638.082,-174.077 638.082,-174.077 638.082,-174.077 633.235,-175.305 636.976,-169.715 628.388,-176.533 628.388,-176.533"/>
</g>
<!-- StockCar -->
<g id="node21" class="node"><title>StockCar</title>
<ellipse fill="none" stroke="black" cx="1180.69" cy="-162" rx="43.0387" ry="18"/>
<text text-anchor="middle" x="1180.69" y="-157.8" font-family="Times,serif" font-size="14.00">StockCar</text>
</g>
<!-- GenericCar&#45;&gt;StockCar -->
<g id="edge7" class="edge"><title>GenericCar&#45;&gt;StockCar</title>
<path fill="none" stroke="#56cf10" d="M456.262,-219.304C461.429,-218.035 466.651,-216.892 471.688,-216 535.771,-204.646 975.477,-176.028 1128.4,-166.298"/>
<ellipse fill="none" stroke="#56cf10" cx="452.096" cy="-220.383" rx="4.00001" ry="4.00001"/>
<polygon fill="#56cf10" stroke="#56cf10" points="1128.5,-166.291 1138.77,-170.148 1133.49,-165.974 1138.48,-165.657 1138.48,-165.657 1138.48,-165.657 1133.49,-165.974 1138.2,-161.166 1128.5,-166.291 1128.5,-166.291"/>
</g>
<!-- GenericFamily -->
<g id="node10" class="node"><title>GenericFamily</title>
<ellipse fill="none" stroke="black" cx="750.688" cy="-324.5" rx="63.301" ry="18"/>
<text text-anchor="middle" x="750.688" y="-320.3" font-family="Times,serif" font-size="14.00">GenericFamily</text>
</g>
<!-- GenericFamily&#45;&gt;CarLikelihood -->
<g id="edge12" class="edge"><title>GenericFamily&#45;&gt;CarLikelihood</title>
<path fill="none" stroke="#2ac793" d="M709.259,-305.873C673.416,-290.622 621.791,-268.657 585.538,-253.232"/>
<ellipse fill="none" stroke="#2ac793" cx="713.125" cy="-307.518" rx="4.00002" ry="4.00002"/>
<polygon fill="#2ac793" stroke="#2ac793" points="585.412,-253.178 577.972,-245.122 580.811,-251.221 576.21,-249.263 576.21,-249.263 576.21,-249.263 580.811,-251.221 574.448,-253.404 585.412,-253.178 585.412,-253.178"/>
</g>
<!-- GenericFamily&#45;&gt;FamilyAcronym -->
<g id="edge16" class="edge"><title>GenericFamily&#45;&gt;FamilyAcronym</title>
<path fill="none" stroke="#d37ea7" d="M786.658,-304.687C798.046,-299.024 810.773,-292.993 822.688,-288 855.34,-274.318 892.897,-261.199 922.509,-251.436"/>
<ellipse fill="none" stroke="#d37ea7" cx="782.964" cy="-306.545" rx="4.00002" ry="4.00002"/>
<polygon fill="#d37ea7" stroke="#d37ea7" points="922.724,-251.366 933.627,-252.535 927.476,-249.812 932.228,-248.258 932.228,-248.258 932.228,-248.258 927.476,-249.812 930.83,-243.98 922.724,-251.366 922.724,-251.366"/>
</g>
<!-- GenericFamily&#45;&gt;GenericCar -->
<g id="edge13" class="edge"><title>GenericFamily&#45;&gt;GenericCar</title>
<path fill="none" stroke="#4ceabe" d="M694.891,-309.641C638.492,-295.529 548.883,-272.824 471.688,-252 467.858,-250.967 463.895,-249.881 459.916,-248.779"/>
<polygon fill="#4ceabe" stroke="#4ceabe" points="694.979,-309.663 703.59,-316.453 699.83,-310.875 704.681,-312.088 704.681,-312.088 704.681,-312.088 699.83,-310.875 705.772,-307.722 694.979,-309.663 694.979,-309.663"/>
<polygon fill="#4ceabe" stroke="#4ceabe" points="459.689,-248.716 451.268,-241.693 454.873,-247.371 450.058,-246.027 450.058,-246.027 450.058,-246.027 454.873,-247.371 448.847,-250.361 459.689,-248.716 459.689,-248.716"/>
</g>
<!-- GenericFamily&#45;&gt;GenericSpare -->
<g id="edge15" class="edge"><title>GenericFamily&#45;&gt;GenericSpare</title>
<path fill="none" stroke="#582902" d="M707.365,-304.154C686.481,-292.335 663.459,-275.021 651.688,-252 641.162,-231.414 651.5,-206.328 662.819,-188.043"/>
<polygon fill="#582902" stroke="#582902" points="707.645,-304.305 714.32,-313.004 712.048,-306.673 716.452,-309.041 716.452,-309.041 716.452,-309.041 712.048,-306.673 718.583,-305.078 707.645,-304.305 707.645,-304.305"/>
<polygon fill="#582902" stroke="#582902" points="662.847,-188 672.12,-182.146 665.607,-183.831 668.368,-179.662 668.368,-179.662 668.368,-179.662 665.607,-183.831 664.615,-177.178 662.847,-188 662.847,-188"/>
</g>
<!-- SpareLikelihood -->
<g id="node20" class="node"><title>SpareLikelihood</title>
<ellipse fill="none" stroke="black" cx="864.688" cy="-90" rx="69.0978" ry="18"/>
<text text-anchor="middle" x="864.688" y="-85.8" font-family="Times,serif" font-size="14.00">SpareLikelihood</text>
</g>
<!-- GenericFamily&#45;&gt;SpareLikelihood -->
<g id="edge14" class="edge"><title>GenericFamily&#45;&gt;SpareLikelihood</title>
<path fill="none" stroke="#41773f" d="M784.334,-304.284C796.142,-298.257 809.704,-292.111 822.688,-288 872.007,-272.382 1019.05,-291.308 1052.69,-252 1103.72,-192.361 986.217,-135.863 914.703,-108.386"/>
<ellipse fill="none" stroke="#41773f" cx="780.774" cy="-306.147" rx="4.00002" ry="4.00002"/>
<polygon fill="#41773f" stroke="#41773f" points="914.296,-108.233 906.527,-100.494 909.618,-106.469 904.939,-104.705 904.939,-104.705 904.939,-104.705 909.618,-106.469 903.351,-108.915 914.296,-108.233 914.296,-108.233"/>
</g>
<!-- StockFamily -->
<g id="node23" class="node"><title>StockFamily</title>
<ellipse fill="none" stroke="black" cx="832.688" cy="-234" rx="55.118" ry="18"/>
<text text-anchor="middle" x="832.688" y="-229.8" font-family="Times,serif" font-size="14.00">StockFamily</text>
</g>
<!-- GenericFamily&#45;&gt;StockFamily -->
<g id="edge17" class="edge"><title>GenericFamily&#45;&gt;StockFamily</title>
<path fill="none" stroke="#cb6909" d="M771.921,-300.584C783.695,-287.876 798.328,-272.083 810.284,-259.179"/>
<ellipse fill="none" stroke="#cb6909" cx="768.83" cy="-303.92" rx="4.00002" ry="4.00002"/>
<polygon fill="#cb6909" stroke="#cb6909" points="810.537,-258.907 820.634,-254.63 813.935,-255.239 817.333,-251.572 817.333,-251.572 817.333,-251.572 813.935,-255.239 814.032,-248.513 810.537,-258.907 810.537,-258.907"/>
</g>
<!-- GenericSpare&#45;&gt;GenericFittable -->
<g id="edge18" class="edge"><title>GenericSpare&#45;&gt;GenericFittable</title>
<path fill="none" stroke="#65cccb" d="M635.922,-145.449C602.898,-134.227 558.371,-119.096 524.637,-107.633"/>
<ellipse fill="none" stroke="#65cccb" cx="640.117" cy="-146.874" rx="4.00001" ry="4.00001"/>
<polygon fill="#65cccb" stroke="#65cccb" points="524.453,-107.571 516.432,-100.092 519.718,-105.962 514.984,-104.353 514.984,-104.353 514.984,-104.353 519.718,-105.962 513.536,-108.614 524.453,-107.571 524.453,-107.571"/>
</g>
<!-- GenericSpareImage -->
<g id="node13" class="node"><title>GenericSpareImage</title>
<ellipse fill="none" stroke="black" cx="681.688" cy="-90" rx="80.1472" ry="18"/>
<text text-anchor="middle" x="681.688" y="-85.8" font-family="Times,serif" font-size="14.00">GenericSpareImage</text>
</g>
<!-- GenericSpare&#45;&gt;GenericSpareImage -->
<g id="edge21" class="edge"><title>GenericSpare&#45;&gt;GenericSpareImage</title>
<path fill="none" stroke="#99c908" d="M681.688,-135.64C681.688,-130.063 681.688,-124.132 681.688,-118.476"/>
<ellipse fill="none" stroke="#99c908" cx="681.688" cy="-139.697" rx="4" ry="4"/>
<polygon fill="#99c908" stroke="#99c908" points="681.688,-118.104 686.188,-108.104 681.688,-113.104 681.688,-108.104 681.688,-108.104 681.688,-108.104 681.688,-113.104 677.188,-108.104 681.688,-118.104 681.688,-118.104"/>
</g>
<!-- GenericSpare&#45;&gt;SpareLikelihood -->
<g id="edge19" class="edge"><title>GenericSpare&#45;&gt;SpareLikelihood</title>
<path fill="none" stroke="#ef520b" d="M724.652,-144.566C752.643,-133.859 789.163,-119.889 817.89,-108.901"/>
<ellipse fill="none" stroke="#ef520b" cx="720.708" cy="-146.074" rx="4.00001" ry="4.00001"/>
<polygon fill="#ef520b" stroke="#ef520b" points="817.97,-108.87 828.918,-109.5 822.64,-107.084 827.31,-105.297 827.31,-105.297 827.31,-105.297 822.64,-107.084 825.702,-101.094 817.97,-108.87 817.97,-108.87"/>
</g>
<!-- StockSpare -->
<g id="node24" class="node"><title>StockSpare</title>
<ellipse fill="none" stroke="black" cx="1031.69" cy="-90" rx="50.2723" ry="18"/>
<text text-anchor="middle" x="1031.69" y="-85.8" font-family="Times,serif" font-size="14.00">StockSpare</text>
</g>
<!-- GenericSpare&#45;&gt;StockSpare -->
<g id="edge20" class="edge"><title>GenericSpare&#45;&gt;StockSpare</title>
<path fill="none" stroke="#e04339" d="M732.449,-147.751C737.919,-146.434 743.411,-145.158 748.688,-144 834.344,-125.206 856.508,-124.227 942.688,-108 954.166,-105.839 966.473,-103.501 978.162,-101.271"/>
<ellipse fill="none" stroke="#e04339" cx="728.366" cy="-148.751" rx="4.00001" ry="4.00001"/>
<polygon fill="#e04339" stroke="#e04339" points="978.417,-101.223 989.084,-103.767 983.328,-100.285 988.239,-99.3465 988.239,-99.3465 988.239,-99.3465 983.328,-100.285 987.395,-94.9264 978.417,-101.223 978.417,-101.223"/>
</g>
<!-- Insured -->
<g id="node14" class="node"><title>Insured</title>
<ellipse fill="none" stroke="black" cx="1278.69" cy="-162" rx="36.7576" ry="18"/>
<text text-anchor="middle" x="1278.69" y="-157.8" font-family="Times,serif" font-size="14.00">Insured</text>
</g>
<!-- MoldComponent -->
<g id="node16" class="node"><title>MoldComponent</title>
<ellipse fill="none" stroke="black" cx="828.688" cy="-162" rx="70.5772" ry="18"/>
<text text-anchor="middle" x="828.688" y="-157.8" font-family="Times,serif" font-size="14.00">MoldComponent</text>
</g>
<!-- MoldSpare -->
<g id="node17" class="node"><title>MoldSpare</title>
<ellipse fill="none" stroke="black" cx="709.688" cy="-234" rx="49.3119" ry="18"/>
<text text-anchor="middle" x="709.688" y="-229.8" font-family="Times,serif" font-size="14.00">MoldSpare</text>
</g>
<!-- MoldSpare&#45;&gt;GenericSpare -->
<g id="edge22" class="edge"><title>MoldSpare&#45;&gt;GenericSpare</title>
<path fill="none" stroke="#9f98ad" d="M699.907,-208.548C697.459,-202.428 694.822,-195.835 692.334,-189.616"/>
<ellipse fill="none" stroke="#9f98ad" cx="701.424" cy="-212.341" rx="4.00001" ry="4.00001"/>
<polygon fill="#9f98ad" stroke="#9f98ad" points="692.312,-189.56 692.776,-178.604 690.455,-184.918 688.598,-180.275 688.598,-180.275 688.598,-180.275 690.455,-184.918 684.42,-181.947 692.312,-189.56 692.312,-189.56"/>
</g>
<!-- MoldSpare&#45;&gt;MoldComponent -->
<g id="edge23" class="edge"><title>MoldSpare&#45;&gt;MoldComponent</title>
<path fill="none" stroke="#3efa99" d="M741.827,-214.095C757.636,-204.795 776.739,-193.558 793.001,-183.992"/>
<ellipse fill="none" stroke="#3efa99" cx="738.082" cy="-216.298" rx="4.00002" ry="4.00002"/>
<polygon fill="#3efa99" stroke="#3efa99" points="793.084,-183.943 803.985,-182.752 797.394,-181.408 801.703,-178.873 801.703,-178.873 801.703,-178.873 797.394,-181.408 799.422,-174.994 793.084,-183.943 793.084,-183.943"/>
</g>
<!-- Prevaluation -->
<g id="node18" class="node"><title>Prevaluation</title>
<ellipse fill="none" stroke="black" cx="1340.69" cy="-234" rx="54.6076" ry="18"/>
<text text-anchor="middle" x="1340.69" y="-229.8" font-family="Times,serif" font-size="14.00">Prevaluation</text>
</g>
<!-- Prevaluation&#45;&gt;Insured -->
<g id="edge25" class="edge"><title>Prevaluation&#45;&gt;Insured</title>
<path fill="none" stroke="#d06016" d="M1320.58,-210.293C1313.93,-202.789 1306.52,-194.421 1299.8,-186.835"/>
<ellipse fill="none" stroke="#d06016" cx="1323.34" cy="-213.417" rx="4.00002" ry="4.00002"/>
<polygon fill="#d06016" stroke="#d06016" points="1299.48,-186.474 1296.22,-176.004 1296.16,-182.731 1292.85,-178.988 1292.85,-178.988 1292.85,-178.988 1296.16,-182.731 1289.48,-181.972 1299.48,-186.474 1299.48,-186.474"/>
</g>
<!-- PrevaluationImage -->
<g id="node19" class="node"><title>PrevaluationImage</title>
<ellipse fill="none" stroke="black" cx="1410.69" cy="-162" rx="76.7985" ry="18"/>
<text text-anchor="middle" x="1410.69" y="-157.8" font-family="Times,serif" font-size="14.00">PrevaluationImage</text>
</g>
<!-- Prevaluation&#45;&gt;PrevaluationImage -->
<g id="edge27" class="edge"><title>Prevaluation&#45;&gt;PrevaluationImage</title>
<path fill="none" stroke="#32357b" d="M1362.67,-211.019C1370.28,-203.408 1378.85,-194.841 1386.62,-187.071"/>
<ellipse fill="none" stroke="#32357b" cx="1359.75" cy="-213.936" rx="4.00002" ry="4.00002"/>
<polygon fill="#32357b" stroke="#32357b" points="1386.98,-186.704 1397.24,-182.815 1390.52,-183.169 1394.05,-179.633 1394.05,-179.633 1394.05,-179.633 1390.52,-183.169 1390.87,-176.451 1386.98,-186.704 1386.98,-186.704"/>
</g>
<!-- Prevaluation&#45;&gt;StockCar -->
<g id="edge24" class="edge"><title>Prevaluation&#45;&gt;StockCar</title>
<path fill="none" stroke="#eaf9d0" d="M1301.67,-215.929C1276.35,-204.854 1243.54,-190.498 1218.47,-179.532"/>
<ellipse fill="none" stroke="#eaf9d0" cx="1305.41" cy="-217.567" rx="4.00002" ry="4.00002"/>
<polygon fill="#eaf9d0" stroke="#eaf9d0" points="1218.44,-179.517 1211.08,-171.386 1213.86,-177.513 1209.28,-175.509 1209.28,-175.509 1209.28,-175.509 1213.86,-177.513 1207.48,-179.632 1218.44,-179.517 1218.44,-179.517"/>
</g>
<!-- Valuation -->
<g id="node27" class="node"><title>Valuation</title>
<ellipse fill="none" stroke="black" cx="1549.69" cy="-162" rx="43.9992" ry="18"/>
<text text-anchor="middle" x="1549.69" y="-157.8" font-family="Times,serif" font-size="14.00">Valuation</text>
</g>
<!-- Prevaluation&#45;&gt;Valuation -->
<g id="edge26" class="edge"><title>Prevaluation&#45;&gt;Valuation</title>
<path fill="none" stroke="#9e7486" d="M1385.21,-218.09C1421.81,-205.829 1473.26,-188.596 1508.83,-176.684"/>
<ellipse fill="none" stroke="#9e7486" cx="1381.36" cy="-219.376" rx="4.00001" ry="4.00001"/>
<ellipse fill="#9e7486" stroke="#9e7486" cx="1512.82" cy="-175.348" rx="4.00001" ry="4.00001"/>
</g>
<!-- StockCarImage -->
<g id="node22" class="node"><title>StockCarImage</title>
<ellipse fill="none" stroke="black" cx="1180.69" cy="-90" rx="65.2304" ry="18"/>
<text text-anchor="middle" x="1180.69" y="-85.8" font-family="Times,serif" font-size="14.00">StockCarImage</text>
</g>
<!-- StockCar&#45;&gt;StockCarImage -->
<g id="edge28" class="edge"><title>StockCar&#45;&gt;StockCarImage</title>
<path fill="none" stroke="#0c40ee" d="M1180.69,-135.64C1180.69,-130.063 1180.69,-124.132 1180.69,-118.476"/>
<ellipse fill="none" stroke="#0c40ee" cx="1180.69" cy="-139.697" rx="4" ry="4"/>
<polygon fill="#0c40ee" stroke="#0c40ee" points="1180.69,-118.104 1185.19,-108.104 1180.69,-113.104 1180.69,-108.104 1180.69,-108.104 1180.69,-108.104 1180.69,-113.104 1176.19,-108.104 1180.69,-118.104 1180.69,-118.104"/>
</g>
<!-- StockSpareImage -->
<g id="node25" class="node"><title>StockSpareImage</title>
<ellipse fill="none" stroke="black" cx="1031.69" cy="-18" rx="72.4635" ry="18"/>
<text text-anchor="middle" x="1031.69" y="-13.8" font-family="Times,serif" font-size="14.00">StockSpareImage</text>
</g>
<!-- StockSpare&#45;&gt;StockSpareImage -->
<g id="edge29" class="edge"><title>StockSpare&#45;&gt;StockSpareImage</title>
<path fill="none" stroke="#d1959a" d="M1031.69,-63.6398C1031.69,-58.0629 1031.69,-52.1319 1031.69,-46.4761"/>
<ellipse fill="none" stroke="#d1959a" cx="1031.69" cy="-67.6966" rx="4" ry="4"/>
<polygon fill="#d1959a" stroke="#d1959a" points="1031.69,-46.1043 1036.19,-36.1043 1031.69,-41.1043 1031.69,-36.1043 1031.69,-36.1043 1031.69,-36.1043 1031.69,-41.1043 1027.19,-36.1044 1031.69,-46.1043 1031.69,-46.1043"/>
</g>
<!-- User -->
<g id="node26" class="node"><title>User</title>
<ellipse fill="none" stroke="black" cx="858.688" cy="-324.5" rx="27" ry="18"/>
<text text-anchor="middle" x="858.688" y="-320.3" font-family="Times,serif" font-size="14.00">User</text>
</g>
<!-- Warehouse -->
<g id="node28" class="node"><title>Warehouse</title>
<ellipse fill="none" stroke="black" cx="1164.69" cy="-234" rx="49.3546" ry="18"/>
<text text-anchor="middle" x="1164.69" y="-229.8" font-family="Times,serif" font-size="14.00">Warehouse</text>
</g>
<!-- Warehouse&#45;&gt;StockCar -->
<g id="edge31" class="edge"><title>Warehouse&#45;&gt;StockCar</title>
<path fill="none" stroke="#db16cf" d="M1170.41,-207.987C1171.72,-202.249 1173.12,-196.121 1174.45,-190.293"/>
<ellipse fill="none" stroke="#db16cf" cx="1169.45" cy="-212.156" rx="4.00001" ry="4.00001"/>
<polygon fill="#db16cf" stroke="#db16cf" points="1174.51,-190.024 1181.13,-181.278 1175.62,-185.15 1176.74,-180.275 1176.74,-180.275 1176.74,-180.275 1175.62,-185.15 1172.35,-179.273 1174.51,-190.024 1174.51,-190.024"/>
</g>
<!-- Warehouse&#45;&gt;StockSpare -->
<g id="edge30" class="edge"><title>Warehouse&#45;&gt;StockSpare</title>
<path fill="none" stroke="#47453b" d="M1145.29,-210.287C1129.55,-192.069 1106.61,-166 1085.69,-144 1076.35,-134.184 1065.77,-123.676 1056.47,-114.626"/>
<ellipse fill="none" stroke="#47453b" cx="1148.13" cy="-213.591" rx="4.00002" ry="4.00002"/>
<polygon fill="#47453b" stroke="#47453b" points="1056.2,-114.365 1052.14,-104.179 1052.61,-110.89 1049.01,-107.415 1049.01,-107.415 1049.01,-107.415 1052.61,-110.89 1045.88,-110.65 1056.2,-114.365 1056.2,-114.365"/>
</g>
</g>
</svg>
