<?xml version="1.0" encoding="UTF-8" standalone="no"?>
<!DOCTYPE svg PUBLIC "-//W3C//DTD SVG 1.1//EN"
 "http://www.w3.org/Graphics/SVG/1.1/DTD/svg11.dtd">
<!-- Generated by graphviz version 2.38.0 (20140413.2041)
 -->
<!-- Title: models_diagram Pages: 1 -->
<svg width="1764pt" height="519pt"
 viewBox="0.00 0.00 1763.91 519.00" xmlns="http://www.w3.org/2000/svg" xmlns:xlink="http://www.w3.org/1999/xlink">
<g id="graph0" class="graph" transform="scale(1 1) rotate(0) translate(4 515)">
<title>models_diagram</title>
<polygon fill="white" stroke="none" points="-4,4 -4,-515 1759.91,-515 1759.91,4 -4,4"/>
<!-- _diagram_info -->
<g id="node1" class="node"><title>_diagram_info</title>
<text text-anchor="start" x="1051.01" y="-496.6" font-family="Times,serif" font-size="13.00">Models diagram</text>
<text text-anchor="start" x="1051.01" y="-483.6" font-family="Times,serif" font-size="13.00">Date: Jul 02 2015 &#45; 12:05</text>
<text text-anchor="start" x="1051.01" y="-470.6" font-family="Times,serif" font-size="13.00">Migration version: 20150702002651</text>
<text text-anchor="start" x="1051.01" y="-457.6" font-family="Times,serif" font-size="13.00">Generated by RailRoady 1.3.0</text>
<text text-anchor="start" x="1051.01" y="-444.6" font-family="Times,serif" font-size="13.00">http://railroady.prestonlee.com</text>
</g>
<!-- Brand -->
<g id="node2" class="node"><title>Brand</title>
<ellipse fill="none" stroke="black" cx="1299.7" cy="-474.5" rx="31.9393" ry="18"/>
<text text-anchor="middle" x="1299.7" y="-470.3" font-family="Times,serif" font-size="14.00">Brand</text>
</g>
<!-- ModelAcronym -->
<g id="node15" class="node"><title>ModelAcronym</title>
<ellipse fill="none" stroke="black" cx="1299.7" cy="-383" rx="66.6925" ry="18"/>
<text text-anchor="middle" x="1299.7" y="-378.8" font-family="Times,serif" font-size="14.00">ModelAcronym</text>
</g>
<!-- Brand&#45;&gt;ModelAcronym -->
<g id="edge1" class="edge"><title>Brand&#45;&gt;ModelAcronym</title>
<path fill="none" stroke="#5c40f0" d="M1299.7,-447.903C1299.7,-436.441 1299.7,-422.914 1299.7,-411.263"/>
<ellipse fill="none" stroke="#5c40f0" cx="1299.7" cy="-452.243" rx="4" ry="4"/>
<polygon fill="#5c40f0" stroke="#5c40f0" points="1299.7,-411.204 1304.2,-401.203 1299.7,-406.204 1299.7,-401.204 1299.7,-401.204 1299.7,-401.204 1299.7,-406.204 1295.2,-401.204 1299.7,-411.204 1299.7,-411.204"/>
</g>
<!-- CarType -->
<g id="node3" class="node"><title>CarType</title>
<ellipse fill="none" stroke="black" cx="1056.7" cy="-383" rx="40.3571" ry="18"/>
<text text-anchor="middle" x="1056.7" y="-378.8" font-family="Times,serif" font-size="14.00">CarType</text>
</g>
<!-- GenericCar -->
<g id="node7" class="node"><title>GenericCar</title>
<ellipse fill="none" stroke="black" cx="1299.7" cy="-310" rx="50.7224" ry="18"/>
<text text-anchor="middle" x="1299.7" y="-305.8" font-family="Times,serif" font-size="14.00">GenericCar</text>
</g>
<!-- CarType&#45;&gt;GenericCar -->
<g id="edge2" class="edge"><title>CarType&#45;&gt;GenericCar</title>
<path fill="none" stroke="#959265" d="M1097.41,-370.103C1140.05,-357.645 1206.96,-338.095 1252.03,-324.926"/>
<ellipse fill="none" stroke="#959265" cx="1093.31" cy="-371.303" rx="4.00001" ry="4.00001"/>
<polygon fill="#959265" stroke="#959265" points="1252.27,-324.858 1263.13,-326.373 1257.07,-323.456 1261.87,-322.054 1261.87,-322.054 1261.87,-322.054 1257.07,-323.456 1260.6,-317.734 1252.27,-324.858 1252.27,-324.858"/>
</g>
<!-- GenericFamily -->
<g id="node10" class="node"><title>GenericFamily</title>
<ellipse fill="none" stroke="black" cx="1056.7" cy="-237" rx="63.301" ry="18"/>
<text text-anchor="middle" x="1056.7" y="-232.8" font-family="Times,serif" font-size="14.00">GenericFamily</text>
</g>
<!-- CarType&#45;&gt;GenericFamily -->
<g id="edge4" class="edge"><title>CarType&#45;&gt;GenericFamily</title>
<path fill="none" stroke="#de12dd" d="M1056.7,-354.546C1056.7,-328.878 1056.7,-290.767 1056.7,-265.185"/>
<polygon fill="#de12dd" stroke="#de12dd" points="1056.7,-354.916 1052.2,-364.916 1056.7,-359.916 1056.7,-364.916 1056.7,-364.916 1056.7,-364.916 1056.7,-359.916 1061.2,-364.916 1056.7,-354.916 1056.7,-354.916"/>
<polygon fill="#de12dd" stroke="#de12dd" points="1056.7,-265.062 1061.2,-255.062 1056.7,-260.062 1056.7,-255.062 1056.7,-255.062 1056.7,-255.062 1056.7,-260.062 1052.2,-255.062 1056.7,-265.062 1056.7,-265.062"/>
</g>
<!-- TypeLikelihood -->
<g id="node36" class="node"><title>TypeLikelihood</title>
<ellipse fill="none" stroke="black" cx="1002.7" cy="-164" rx="66.4333" ry="18"/>
<text text-anchor="middle" x="1002.7" y="-159.8" font-family="Times,serif" font-size="14.00">TypeLikelihood</text>
</g>
<!-- CarType&#45;&gt;TypeLikelihood -->
<g id="edge3" class="edge"><title>CarType&#45;&gt;TypeLikelihood</title>
<path fill="none" stroke="#173e5d" d="M1038.64,-358.858C1020.93,-334.564 995.111,-294.481 984.698,-255 979.135,-233.908 984.668,-209.638 991.022,-191.62"/>
<ellipse fill="none" stroke="#173e5d" cx="1041.24" cy="-362.363" rx="4.00002" ry="4.00002"/>
<polygon fill="#173e5d" stroke="#173e5d" points="991.105,-191.401 998.878,-183.666 992.89,-186.73 994.675,-182.06 994.675,-182.06 994.675,-182.06 992.89,-186.73 990.471,-180.454 991.105,-191.401 991.105,-191.401"/>
</g>
<!-- FamilyHistory -->
<g id="node4" class="node"><title>FamilyHistory</title>
<ellipse fill="none" stroke="black" cx="132.698" cy="-91" rx="61.8909" ry="18"/>
<text text-anchor="middle" x="132.698" y="-86.8" font-family="Times,serif" font-size="14.00">FamilyHistory</text>
</g>
<!-- FamilyLikelihood -->
<g id="node5" class="node"><title>FamilyLikelihood</title>
<ellipse fill="none" stroke="black" cx="1198.7" cy="-164" rx="73.943" ry="18"/>
<text text-anchor="middle" x="1198.7" y="-159.8" font-family="Times,serif" font-size="14.00">FamilyLikelihood</text>
</g>
<!-- Generation -->
<g id="node6" class="node"><title>Generation</title>
<ellipse fill="none" stroke="black" cx="1460.7" cy="-383" rx="49.286" ry="18"/>
<text text-anchor="middle" x="1460.7" y="-378.8" font-family="Times,serif" font-size="14.00">Generation</text>
</g>
<!-- Generation&#45;&gt;GenericCar -->
<g id="edge6" class="edge"><title>Generation&#45;&gt;GenericCar</title>
<path fill="none" stroke="#6f477c" d="M1420.93,-364.462C1396.24,-353.575 1364.62,-339.629 1339.86,-328.71"/>
<polygon fill="#6f477c" stroke="#6f477c" points="1421.26,-364.61 1428.6,-372.763 1425.84,-366.628 1430.41,-368.645 1430.41,-368.645 1430.41,-368.645 1425.84,-366.628 1432.23,-364.528 1421.26,-364.61 1421.26,-364.61"/>
<polygon fill="#6f477c" stroke="#6f477c" points="1339.54,-328.571 1332.21,-320.419 1334.97,-326.554 1330.39,-324.536 1330.39,-324.536 1330.39,-324.536 1334.97,-326.554 1328.58,-328.653 1339.54,-328.571 1339.54,-328.571"/>
</g>
<!-- GenericCarGeneration -->
<g id="node8" class="node"><title>GenericCarGeneration</title>
<ellipse fill="none" stroke="black" cx="1518.7" cy="-237" rx="90.2944" ry="18"/>
<text text-anchor="middle" x="1518.7" y="-232.8" font-family="Times,serif" font-size="14.00">GenericCarGeneration</text>
</g>
<!-- Generation&#45;&gt;GenericCarGeneration -->
<g id="edge5" class="edge"><title>Generation&#45;&gt;GenericCarGeneration</title>
<path fill="none" stroke="#dade9c" d="M1470.68,-357.213C1481.1,-331.347 1497.37,-290.942 1508.04,-264.467"/>
<ellipse fill="none" stroke="#dade9c" cx="1469.07" cy="-361.205" rx="4.00001" ry="4.00001"/>
<polygon fill="#dade9c" stroke="#dade9c" points="1508.09,-264.338 1516,-256.743 1509.96,-259.7 1511.83,-255.062 1511.83,-255.062 1511.83,-255.062 1509.96,-259.7 1507.65,-253.381 1508.09,-264.338 1508.09,-264.338"/>
</g>
<!-- GenericCar&#45;&gt;FamilyLikelihood -->
<g id="edge11" class="edge"><title>GenericCar&#45;&gt;FamilyLikelihood</title>
<path fill="none" stroke="#386004" d="M1261.2,-291.907C1245.45,-283.054 1228.44,-270.757 1217.7,-255 1205.08,-236.492 1200.59,-211.25 1199.1,-192.207"/>
<ellipse fill="none" stroke="#386004" cx="1264.8" cy="-293.839" rx="4.00002" ry="4.00002"/>
<polygon fill="#386004" stroke="#386004" points="1199.09,-192.064 1203.04,-181.832 1198.82,-187.072 1198.54,-182.079 1198.54,-182.079 1198.54,-182.079 1198.82,-187.072 1194.05,-182.327 1199.09,-192.064 1199.09,-192.064"/>
</g>
<!-- GenericCar&#45;&gt;GenericCarGeneration -->
<g id="edge9" class="edge"><title>GenericCar&#45;&gt;GenericCarGeneration</title>
<path fill="none" stroke="#c92463" d="M1345.5,-295.495C1366.62,-289.154 1392,-281.381 1414.7,-274 1431.79,-268.444 1450.35,-262.112 1467.01,-256.324"/>
<ellipse fill="none" stroke="#c92463" cx="1341.45" cy="-296.704" rx="4.00001" ry="4.00001"/>
<polygon fill="#c92463" stroke="#c92463" points="1467.13,-256.283 1478.05,-257.238 1471.85,-254.636 1476.57,-252.989 1476.57,-252.989 1476.57,-252.989 1471.85,-254.636 1475.09,-248.74 1467.13,-256.283 1467.13,-256.283"/>
</g>
<!-- GenericCarImage -->
<g id="node9" class="node"><title>GenericCarImage</title>
<ellipse fill="none" stroke="black" cx="1299.7" cy="-237" rx="72.9135" ry="18"/>
<text text-anchor="middle" x="1299.7" y="-232.8" font-family="Times,serif" font-size="14.00">GenericCarImage</text>
</g>
<!-- GenericCar&#45;&gt;GenericCarImage -->
<g id="edge10" class="edge"><title>GenericCar&#45;&gt;GenericCarImage</title>
<path fill="none" stroke="#52b85b" d="M1299.7,-283.791C1299.7,-277.832 1299.7,-271.45 1299.7,-265.399"/>
<ellipse fill="none" stroke="#52b85b" cx="1299.7" cy="-287.813" rx="4" ry="4"/>
<polygon fill="#52b85b" stroke="#52b85b" points="1299.7,-265.029 1304.2,-255.029 1299.7,-260.029 1299.7,-255.029 1299.7,-255.029 1299.7,-255.029 1299.7,-260.029 1295.2,-255.029 1299.7,-265.029 1299.7,-265.029"/>
</g>
<!-- GenericCar&#45;&gt;GenericFamily -->
<g id="edge12" class="edge"><title>GenericCar&#45;&gt;GenericFamily</title>
<path fill="none" stroke="#3ffa2f" d="M1252.04,-295.074C1210.83,-283.035 1151.38,-265.665 1108.9,-253.254"/>
<polygon fill="#3ffa2f" stroke="#3ffa2f" points="1252.13,-295.102 1260.47,-302.226 1256.93,-296.504 1261.73,-297.906 1261.73,-297.906 1261.73,-297.906 1256.93,-296.504 1262.99,-293.587 1252.13,-295.102 1252.13,-295.102"/>
<polygon fill="#3ffa2f" stroke="#3ffa2f" points="1108.9,-253.253 1100.57,-246.129 1104.1,-251.851 1099.3,-250.449 1099.3,-250.449 1099.3,-250.449 1104.1,-251.851 1098.04,-254.768 1108.9,-253.253 1108.9,-253.253"/>
</g>
<!-- GenericFittable -->
<g id="node11" class="node"><title>GenericFittable</title>
<ellipse fill="none" stroke="black" cx="1652.7" cy="-91" rx="65.2217" ry="18"/>
<text text-anchor="middle" x="1652.7" y="-86.8" font-family="Times,serif" font-size="14.00">GenericFittable</text>
</g>
<!-- GenericCar&#45;&gt;GenericFittable -->
<g id="edge8" class="edge"><title>GenericCar&#45;&gt;GenericFittable</title>
<path fill="none" stroke="#1f2c26" d="M1358.06,-305.986C1470.91,-299.559 1710.15,-282.784 1734.7,-255 1766.77,-218.696 1757.68,-188.647 1734.7,-146 1726.6,-130.963 1712.27,-119.425 1697.84,-110.95"/>
<ellipse fill="none" stroke="#1f2c26" cx="1353.82" cy="-306.224" rx="4" ry="4"/>
<polygon fill="#1f2c26" stroke="#1f2c26" points="1697.67,-110.857 1691.05,-102.115 1693.28,-108.461 1688.9,-106.064 1688.9,-106.064 1688.9,-106.064 1693.28,-108.461 1686.74,-110.014 1697.67,-110.857 1697.67,-110.857"/>
</g>
<!-- StockCar -->
<g id="node26" class="node"><title>StockCar</title>
<ellipse fill="none" stroke="black" cx="894.698" cy="-237" rx="43.0387" ry="18"/>
<text text-anchor="middle" x="894.698" y="-232.8" font-family="Times,serif" font-size="14.00">StockCar</text>
</g>
<!-- GenericCar&#45;&gt;StockCar -->
<g id="edge7" class="edge"><title>GenericCar&#45;&gt;StockCar</title>
<path fill="none" stroke="#4d6acd" d="M1246.36,-300.14C1183.68,-289.66 1076.54,-271.546 984.698,-255 971.229,-252.574 956.645,-249.858 943.217,-247.32"/>
<ellipse fill="none" stroke="#4d6acd" cx="1250.59" cy="-300.845" rx="4.00001" ry="4.00001"/>
<polygon fill="#4d6acd" stroke="#4d6acd" points="943.037,-247.286 934.05,-241.002 938.124,-246.355 933.212,-245.423 933.212,-245.423 933.212,-245.423 938.124,-246.355 932.374,-249.844 943.037,-247.286 943.037,-247.286"/>
</g>
<!-- GenericFamily&#45;&gt;FamilyLikelihood -->
<g id="edge18" class="edge"><title>GenericFamily&#45;&gt;FamilyLikelihood</title>
<path fill="none" stroke="#b4b5fb" d="M1093.67,-217.511C1113.56,-207.569 1138.1,-195.296 1158.47,-185.116"/>
<ellipse fill="none" stroke="#b4b5fb" cx="1090.04" cy="-219.327" rx="4.00002" ry="4.00002"/>
<polygon fill="#b4b5fb" stroke="#b4b5fb" points="1158.55,-185.074 1169.51,-184.627 1163.02,-182.838 1167.49,-180.602 1167.49,-180.602 1167.49,-180.602 1163.02,-182.838 1165.48,-176.577 1158.55,-185.074 1158.55,-185.074"/>
</g>
<!-- GenericFamily&#45;&gt;GenericFamily -->
<g id="edge13" class="edge"><title>GenericFamily&#45;&gt;GenericFamily</title>
<path fill="none" stroke="#438a90" d="M1123.87,-242.878C1132.3,-241.841 1137.85,-239.882 1137.85,-237 1137.85,-234.38 1133.26,-232.522 1126.09,-231.428"/>
<ellipse fill="none" stroke="#438a90" cx="1119.77" cy="-243.219" rx="4" ry="4"/>
<polygon fill="#438a90" stroke="#438a90" points="1125.74,-231.394 1116.21,-225.97 1120.76,-230.922 1115.78,-230.449 1115.78,-230.449 1115.78,-230.449 1120.76,-230.922 1115.36,-234.929 1125.74,-231.394 1125.74,-231.394"/>
<text text-anchor="middle" x="1154.57" y="-232.8" font-family="Times,serif" font-size="14.00">childs</text>
</g>
<!-- GenericSpare -->
<g id="node12" class="node"><title>GenericSpare</title>
<ellipse fill="none" stroke="black" cx="1388.7" cy="-164" rx="58.4563" ry="18"/>
<text text-anchor="middle" x="1388.7" y="-159.8" font-family="Times,serif" font-size="14.00">GenericSpare</text>
</g>
<!-- GenericFamily&#45;&gt;GenericSpare -->
<g id="edge15" class="edge"><title>GenericFamily&#45;&gt;GenericSpare</title>
<path fill="none" stroke="#7eb521" d="M1115.73,-223.375C1176.91,-210.292 1271.83,-189.992 1332.09,-177.105"/>
<polygon fill="#7eb521" stroke="#7eb521" points="1115.46,-223.432 1104.74,-221.123 1110.57,-224.478 1105.69,-225.524 1105.69,-225.524 1105.69,-225.524 1110.57,-224.478 1106.63,-229.924 1115.46,-223.432 1115.46,-223.432"/>
<polygon fill="#7eb521" stroke="#7eb521" points="1332.41,-177.037 1343.13,-179.346 1337.3,-175.992 1342.19,-174.946 1342.19,-174.946 1342.19,-174.946 1337.3,-175.992 1341.25,-170.545 1332.41,-177.037 1332.41,-177.037"/>
</g>
<!-- SpareLikelihood -->
<g id="node25" class="node"><title>SpareLikelihood</title>
<ellipse fill="none" stroke="black" cx="1159.7" cy="-91" rx="69.0978" ry="18"/>
<text text-anchor="middle" x="1159.7" y="-86.8" font-family="Times,serif" font-size="14.00">SpareLikelihood</text>
</g>
<!-- GenericFamily&#45;&gt;SpareLikelihood -->
<g id="edge14" class="edge"><title>GenericFamily&#45;&gt;SpareLikelihood</title>
<path fill="none" stroke="#78b39b" d="M1071.38,-212.157C1082.94,-193.75 1099.72,-167.825 1115.7,-146 1122.92,-136.139 1131.29,-125.648 1138.79,-116.561"/>
<ellipse fill="none" stroke="#78b39b" cx="1069.19" cy="-215.67" rx="4.00002" ry="4.00002"/>
<polygon fill="#78b39b" stroke="#78b39b" points="1138.96,-116.351 1148.82,-111.55 1142.17,-112.51 1145.37,-108.669 1145.37,-108.669 1145.37,-108.669 1142.17,-112.51 1141.91,-105.788 1138.96,-116.351 1138.96,-116.351"/>
</g>
<!-- StockFamily -->
<g id="node28" class="node"><title>StockFamily</title>
<ellipse fill="none" stroke="black" cx="282.698" cy="-164" rx="55.118" ry="18"/>
<text text-anchor="middle" x="282.698" y="-159.8" font-family="Times,serif" font-size="14.00">StockFamily</text>
</g>
<!-- GenericFamily&#45;&gt;StockFamily -->
<g id="edge16" class="edge"><title>GenericFamily&#45;&gt;StockFamily</title>
<path fill="none" stroke="#0328d3" d="M995.727,-225.775C979.801,-223.324 962.632,-220.877 946.698,-219 727.102,-193.136 465.181,-175.786 346.618,-168.659"/>
<ellipse fill="none" stroke="#0328d3" cx="999.978" cy="-226.438" rx="4.00001" ry="4.00001"/>
<polygon fill="#0328d3" stroke="#0328d3" points="346.603,-168.658 336.889,-163.569 341.612,-168.36 336.621,-168.061 336.621,-168.061 336.621,-168.061 341.612,-168.36 336.353,-172.553 346.603,-168.658 346.603,-168.658"/>
</g>
<!-- GenericFamily&#45;&gt;TypeLikelihood -->
<g id="edge17" class="edge"><title>GenericFamily&#45;&gt;TypeLikelihood</title>
<path fill="none" stroke="#252970" d="M1039.03,-212.771C1033.49,-205.483 1027.35,-197.409 1021.71,-190.003"/>
<ellipse fill="none" stroke="#252970" cx="1041.48" cy="-215.99" rx="4.00002" ry="4.00002"/>
<polygon fill="#252970" stroke="#252970" points="1021.46,-189.665 1018.98,-178.981 1018.43,-185.685 1015.4,-181.705 1015.4,-181.705 1015.4,-181.705 1018.43,-185.685 1011.82,-184.429 1021.46,-189.665 1021.46,-189.665"/>
</g>
<!-- GenericSpare&#45;&gt;GenericCar -->
<g id="edge21" class="edge"><title>GenericSpare&#45;&gt;GenericCar</title>
<path fill="none" stroke="#c4fa82" d="M1392.57,-192.288C1393.89,-211.168 1392.8,-236.182 1381.7,-255 1372.43,-270.709 1356.58,-282.72 1341.28,-291.38"/>
<polygon fill="#c4fa82" stroke="#c4fa82" points="1392.56,-192.196 1396.09,-181.813 1392.09,-187.219 1391.61,-182.242 1391.61,-182.242 1391.61,-182.242 1392.09,-187.219 1387.13,-182.67 1392.56,-192.196 1392.56,-192.196"/>
<polygon fill="#c4fa82" stroke="#c4fa82" points="1341.22,-291.411 1330.28,-292.118 1336.8,-293.752 1332.38,-296.094 1332.38,-296.094 1332.38,-296.094 1336.8,-293.752 1334.49,-300.07 1341.22,-291.411 1341.22,-291.411"/>
</g>
<!-- GenericSpare&#45;&gt;GenericFittable -->
<g id="edge20" class="edge"><title>GenericSpare&#45;&gt;GenericFittable</title>
<path fill="none" stroke="#f73f14" d="M1439.01,-149.468C1484.5,-137.235 1551.3,-119.269 1598.07,-106.69"/>
<ellipse fill="none" stroke="#f73f14" cx="1434.98" cy="-150.554" rx="4.00001" ry="4.00001"/>
<polygon fill="#f73f14" stroke="#f73f14" points="1598.08,-106.689 1608.9,-108.438 1602.91,-105.391 1607.74,-104.092 1607.74,-104.092 1607.74,-104.092 1602.91,-105.391 1606.57,-99.7464 1598.08,-106.689 1598.08,-106.689"/>
</g>
<!-- GenericSpare&#45;&gt;GenericSpare -->
<g id="edge19" class="edge"><title>GenericSpare&#45;&gt;GenericSpare</title>
<path fill="none" stroke="#af4f33" d="M1451.36,-169.932C1459.52,-168.911 1464.93,-166.934 1464.93,-164 1464.93,-161.306 1460.37,-159.418 1453.31,-158.337"/>
<ellipse fill="none" stroke="#af4f33" cx="1447.16" cy="-170.276" rx="4" ry="4"/>
<polygon fill="#af4f33" stroke="#af4f33" points="1453.13,-158.32 1443.59,-152.918 1448.15,-157.86 1443.17,-157.399 1443.17,-157.399 1443.17,-157.399 1448.15,-157.86 1442.76,-161.88 1453.13,-158.32 1453.13,-158.32"/>
<text text-anchor="middle" x="1481.65" y="-159.8" font-family="Times,serif" font-size="14.00">childs</text>
</g>
<!-- GenericSpareImage -->
<g id="node13" class="node"><title>GenericSpareImage</title>
<ellipse fill="none" stroke="black" cx="1388.7" cy="-91" rx="80.1472" ry="18"/>
<text text-anchor="middle" x="1388.7" y="-86.8" font-family="Times,serif" font-size="14.00">GenericSpareImage</text>
</g>
<!-- GenericSpare&#45;&gt;GenericSpareImage -->
<g id="edge24" class="edge"><title>GenericSpare&#45;&gt;GenericSpareImage</title>
<path fill="none" stroke="#951a7e" d="M1388.7,-137.791C1388.7,-131.832 1388.7,-125.45 1388.7,-119.399"/>
<ellipse fill="none" stroke="#951a7e" cx="1388.7" cy="-141.813" rx="4" ry="4"/>
<polygon fill="#951a7e" stroke="#951a7e" points="1388.7,-119.029 1393.2,-109.029 1388.7,-114.029 1388.7,-109.029 1388.7,-109.029 1388.7,-109.029 1388.7,-114.029 1384.2,-109.029 1388.7,-119.029 1388.7,-119.029"/>
</g>
<!-- GenericSpare&#45;&gt;SpareLikelihood -->
<g id="edge22" class="edge"><title>GenericSpare&#45;&gt;SpareLikelihood</title>
<path fill="none" stroke="#6e142d" d="M1341.39,-148.332C1303.66,-136.636 1250.88,-120.271 1211.92,-108.192"/>
<ellipse fill="none" stroke="#6e142d" cx="1345.25" cy="-149.529" rx="4.00001" ry="4.00001"/>
<polygon fill="#6e142d" stroke="#6e142d" points="1211.89,-108.181 1203.67,-100.921 1207.11,-106.7 1202.33,-105.219 1202.33,-105.219 1202.33,-105.219 1207.11,-106.7 1201,-109.517 1211.89,-108.181 1211.89,-108.181"/>
</g>
<!-- StockSpare -->
<g id="node30" class="node"><title>StockSpare</title>
<ellipse fill="none" stroke="black" cx="441.698" cy="-91" rx="50.2723" ry="18"/>
<text text-anchor="middle" x="441.698" y="-86.8" font-family="Times,serif" font-size="14.00">StockSpare</text>
</g>
<!-- GenericSpare&#45;&gt;StockSpare -->
<g id="edge23" class="edge"><title>GenericSpare&#45;&gt;StockSpare</title>
<path fill="none" stroke="#fd2b8d" d="M1331.32,-152.873C1315.3,-150.321 1297.86,-147.799 1281.7,-146 990.814,-113.614 640.934,-98.8505 502.412,-93.9581"/>
<ellipse fill="none" stroke="#fd2b8d" cx="1335.61" cy="-153.567" rx="4.00001" ry="4.00001"/>
<polygon fill="#fd2b8d" stroke="#fd2b8d" points="502.015,-93.9444 492.178,-89.0985 497.018,-93.77 492.021,-93.5957 492.021,-93.5957 492.021,-93.5957 497.018,-93.77 491.864,-98.093 502.015,-93.9444 502.015,-93.9444"/>
</g>
<!-- Insured -->
<g id="node14" class="node"><title>Insured</title>
<ellipse fill="none" stroke="black" cx="796.698" cy="-237" rx="36.7576" ry="18"/>
<text text-anchor="middle" x="796.698" y="-232.8" font-family="Times,serif" font-size="14.00">Insured</text>
</g>
<!-- ModelAcronym&#45;&gt;GenericCar -->
<g id="edge25" class="edge"><title>ModelAcronym&#45;&gt;GenericCar</title>
<path fill="none" stroke="#2843c5" d="M1299.7,-356.791C1299.7,-350.832 1299.7,-344.45 1299.7,-338.399"/>
<ellipse fill="none" stroke="#2843c5" cx="1299.7" cy="-360.813" rx="4" ry="4"/>
<polygon fill="#2843c5" stroke="#2843c5" points="1299.7,-338.029 1304.2,-328.029 1299.7,-333.029 1299.7,-328.029 1299.7,-328.029 1299.7,-328.029 1299.7,-333.029 1295.2,-328.029 1299.7,-338.029 1299.7,-338.029"/>
</g>
<!-- MoldComponent -->
<g id="node16" class="node"><title>MoldComponent</title>
<ellipse fill="none" stroke="black" cx="1654.7" cy="-164" rx="70.5772" ry="18"/>
<text text-anchor="middle" x="1654.7" y="-159.8" font-family="Times,serif" font-size="14.00">MoldComponent</text>
</g>
<!-- MoldSpare -->
<g id="node17" class="node"><title>MoldSpare</title>
<ellipse fill="none" stroke="black" cx="1676.7" cy="-237" rx="49.3119" ry="18"/>
<text text-anchor="middle" x="1676.7" y="-232.8" font-family="Times,serif" font-size="14.00">MoldSpare</text>
</g>
<!-- MoldSpare&#45;&gt;GenericSpare -->
<g id="edge26" class="edge"><title>MoldSpare&#45;&gt;GenericSpare</title>
<path fill="none" stroke="#b5b0c5" d="M1631.73,-222.796C1627,-221.482 1622.26,-220.193 1617.7,-219 1558.98,-203.627 1491.27,-187.907 1444.79,-177.422"/>
<ellipse fill="none" stroke="#b5b0c5" cx="1635.79" cy="-223.938" rx="4.00001" ry="4.00001"/>
<polygon fill="#b5b0c5" stroke="#b5b0c5" points="1444.67,-177.395 1435.9,-170.81 1439.8,-176.298 1434.92,-175.2 1434.92,-175.2 1434.92,-175.2 1439.8,-176.298 1433.93,-179.591 1444.67,-177.395 1444.67,-177.395"/>
</g>
<!-- MoldSpare&#45;&gt;MoldComponent -->
<g id="edge27" class="edge"><title>MoldSpare&#45;&gt;MoldComponent</title>
<path fill="none" stroke="#d0c3a1" d="M1668.98,-211.08C1667.02,-204.774 1664.92,-197.979 1662.94,-191.594"/>
<ellipse fill="none" stroke="#d0c3a1" cx="1670.19" cy="-214.992" rx="4.00001" ry="4.00001"/>
<polygon fill="#d0c3a1" stroke="#d0c3a1" points="1662.93,-191.581 1664.27,-180.697 1661.45,-186.805 1659.97,-182.029 1659.97,-182.029 1659.97,-182.029 1661.45,-186.805 1655.68,-183.361 1662.93,-191.581 1662.93,-191.581"/>
</g>
<!-- Order -->
<g id="node18" class="node"><title>Order</title>
<ellipse fill="none" stroke="black" cx="115.698" cy="-310" rx="30.9619" ry="18"/>
<text text-anchor="middle" x="115.698" y="-305.8" font-family="Times,serif" font-size="14.00">Order</text>
</g>
<!-- OrderSupplier -->
<g id="node19" class="node"><title>OrderSupplier</title>
<ellipse fill="none" stroke="black" cx="60.6977" cy="-164" rx="60.896" ry="18"/>
<text text-anchor="middle" x="60.6977" y="-159.8" font-family="Times,serif" font-size="14.00">OrderSupplier</text>
</g>
<!-- Order&#45;&gt;OrderSupplier -->
<g id="edge28" class="edge"><title>Order&#45;&gt;OrderSupplier</title>
<path fill="none" stroke="#54446a" d="M106.347,-284.519C96.4878,-258.705 81.0042,-218.166 70.8514,-191.584"/>
<ellipse fill="none" stroke="#54446a" cx="107.854" cy="-288.463" rx="4.00001" ry="4.00001"/>
<polygon fill="#54446a" stroke="#54446a" points="70.8122,-191.482 71.4479,-180.534 69.0282,-186.811 67.2441,-182.14 67.2441,-182.14 67.2441,-182.14 69.0282,-186.811 63.0403,-183.745 70.8122,-191.482 70.8122,-191.482"/>
</g>
<!-- Order&#45;&gt;StockFamily -->
<g id="edge29" class="edge"><title>Order&#45;&gt;StockFamily</title>
<path fill="none" stroke="#dcbfae" d="M146.356,-294.127C164.843,-284.379 188.296,-270.58 206.698,-255 229.437,-235.748 250.908,-209.26 265.191,-190.008"/>
<ellipse fill="none" stroke="#dcbfae" cx="142.319" cy="-296.214" rx="4.00002" ry="4.00002"/>
<polygon fill="#dcbfae" stroke="#dcbfae" points="265.338,-189.806 274.863,-184.373 268.282,-185.764 271.226,-181.723 271.226,-181.723 271.226,-181.723 268.282,-185.764 267.588,-179.073 265.338,-189.806 265.338,-189.806"/>
</g>
<!-- Supplier -->
<g id="node33" class="node"><title>Supplier</title>
<ellipse fill="none" stroke="black" cx="157.698" cy="-237" rx="40.149" ry="18"/>
<text text-anchor="middle" x="157.698" y="-232.8" font-family="Times,serif" font-size="14.00">Supplier</text>
</g>
<!-- Order&#45;&gt;Supplier -->
<g id="edge30" class="edge"><title>Order&#45;&gt;Supplier</title>
<path fill="none" stroke="#730a6f" d="M130.618,-283.777C134.429,-277.334 138.533,-270.398 142.364,-263.92"/>
<polygon fill="#730a6f" stroke="#730a6f" points="130.53,-283.926 121.566,-290.242 127.985,-288.229 125.439,-292.533 125.439,-292.533 125.439,-292.533 127.985,-288.229 129.312,-294.824 130.53,-283.926 130.53,-283.926"/>
<polygon fill="#730a6f" stroke="#730a6f" points="142.626,-263.478 151.591,-257.162 145.172,-259.174 147.718,-254.871 147.718,-254.871 147.718,-254.871 145.172,-259.174 143.845,-252.58 142.626,-263.478 142.626,-263.478"/>
</g>
<!-- Prevaluation -->
<g id="node20" class="node"><title>Prevaluation</title>
<ellipse fill="none" stroke="black" cx="742.698" cy="-310" rx="54.6076" ry="18"/>
<text text-anchor="middle" x="742.698" y="-305.8" font-family="Times,serif" font-size="14.00">Prevaluation</text>
</g>
<!-- Prevaluation&#45;&gt;Insured -->
<g id="edge32" class="edge"><title>Prevaluation&#45;&gt;Insured</title>
<path fill="none" stroke="#066b40" d="M760.438,-285.675C766.067,-278.274 772.306,-270.07 778,-262.584"/>
<ellipse fill="none" stroke="#066b40" cx="757.916" cy="-288.99" rx="4.00002" ry="4.00002"/>
<polygon fill="#066b40" stroke="#066b40" points="778.31,-262.176 787.946,-256.941 781.337,-258.196 784.364,-254.217 784.364,-254.217 784.364,-254.217 781.337,-258.196 780.782,-251.492 778.31,-262.176 778.31,-262.176"/>
</g>
<!-- PrevaluationImage -->
<g id="node21" class="node"><title>PrevaluationImage</title>
<ellipse fill="none" stroke="black" cx="558.698" cy="-237" rx="76.7985" ry="18"/>
<text text-anchor="middle" x="558.698" y="-232.8" font-family="Times,serif" font-size="14.00">PrevaluationImage</text>
</g>
<!-- Prevaluation&#45;&gt;PrevaluationImage -->
<g id="edge34" class="edge"><title>Prevaluation&#45;&gt;PrevaluationImage</title>
<path fill="none" stroke="#207c88" d="M700.823,-292.842C672.725,-282 635.649,-267.693 606.411,-256.411"/>
<ellipse fill="none" stroke="#207c88" cx="704.788" cy="-294.372" rx="4.00001" ry="4.00001"/>
<polygon fill="#207c88" stroke="#207c88" points="606.15,-256.31 598.44,-248.512 601.485,-254.51 596.82,-252.71 596.82,-252.71 596.82,-252.71 601.485,-254.51 595.2,-256.909 606.15,-256.31 606.15,-256.31"/>
</g>
<!-- Prevaluation&#45;&gt;StockCar -->
<g id="edge31" class="edge"><title>Prevaluation&#45;&gt;StockCar</title>
<path fill="none" stroke="#ae740b" d="M780.435,-291.373C804.084,-280.326 834.421,-266.155 857.892,-255.192"/>
<ellipse fill="none" stroke="#ae740b" cx="776.716" cy="-293.11" rx="4.00002" ry="4.00002"/>
<polygon fill="#ae740b" stroke="#ae740b" points="858.106,-255.092 869.071,-254.937 862.637,-252.976 867.167,-250.86 867.167,-250.86 867.167,-250.86 862.637,-252.976 865.262,-246.783 858.106,-255.092 858.106,-255.092"/>
</g>
<!-- Valuation -->
<g id="node38" class="node"><title>Valuation</title>
<ellipse fill="none" stroke="black" cx="697.698" cy="-237" rx="43.9992" ry="18"/>
<text text-anchor="middle" x="697.698" y="-232.8" font-family="Times,serif" font-size="14.00">Valuation</text>
</g>
<!-- Prevaluation&#45;&gt;Valuation -->
<g id="edge33" class="edge"><title>Prevaluation&#45;&gt;Valuation</title>
<path fill="none" stroke="#f6b71b" d="M727.607,-285.19C722.852,-277.689 717.601,-269.403 712.843,-261.896"/>
<ellipse fill="none" stroke="#f6b71b" cx="729.892" cy="-288.795" rx="4.00002" ry="4.00002"/>
<ellipse fill="#f6b71b" stroke="#f6b71b" cx="710.427" cy="-258.084" rx="4.00002" ry="4.00002"/>
</g>
<!-- Price -->
<g id="node22" class="node"><title>Price</title>
<ellipse fill="none" stroke="black" cx="281.698" cy="-237" rx="28.0565" ry="18"/>
<text text-anchor="middle" x="281.698" y="-232.8" font-family="Times,serif" font-size="14.00">Price</text>
</g>
<!-- Price&#45;&gt;StockFamily -->
<g id="edge35" class="edge"><title>Price&#45;&gt;StockFamily</title>
<path fill="none" stroke="#cc172b" d="M282.053,-210.791C282.147,-204.087 282.249,-196.847 282.343,-190.147"/>
<ellipse fill="none" stroke="#cc172b" cx="281.996" cy="-214.813" rx="4" ry="4"/>
<ellipse fill="#cc172b" stroke="#cc172b" cx="282.401" cy="-186.028" rx="4" ry="4"/>
</g>
<!-- Price&#45;&gt;StockSpare -->
<g id="edge36" class="edge"><title>Price&#45;&gt;StockSpare</title>
<path fill="none" stroke="#1ed15e" d="M305.027,-217.236C317.548,-207.011 333.148,-194.024 346.698,-182 372.041,-159.51 400.099,-132.679 419.106,-114.197"/>
<ellipse fill="none" stroke="#1ed15e" cx="301.89" cy="-219.787" rx="4.00002" ry="4.00002"/>
<ellipse fill="#1ed15e" stroke="#1ed15e" cx="422.324" cy="-111.06" rx="4.00002" ry="4.00002"/>
</g>
<!-- Section -->
<g id="node23" class="node"><title>Section</title>
<ellipse fill="none" stroke="black" cx="382.698" cy="-310" rx="36.7663" ry="18"/>
<text text-anchor="middle" x="382.698" y="-305.8" font-family="Times,serif" font-size="14.00">Section</text>
</g>
<!-- Subsection -->
<g id="node32" class="node"><title>Subsection</title>
<ellipse fill="none" stroke="black" cx="376.698" cy="-237" rx="48.8359" ry="18"/>
<text text-anchor="middle" x="376.698" y="-232.8" font-family="Times,serif" font-size="14.00">Subsection</text>
</g>
<!-- Section&#45;&gt;Subsection -->
<g id="edge37" class="edge"><title>Section&#45;&gt;Subsection</title>
<path fill="none" stroke="#858afd" d="M380.567,-283.791C380.064,-277.832 379.524,-271.45 379.013,-265.399"/>
<ellipse fill="none" stroke="#858afd" cx="380.908" cy="-287.827" rx="4" ry="4"/>
<polygon fill="#858afd" stroke="#858afd" points="378.979,-264.993 382.621,-254.65 378.558,-260.011 378.137,-255.029 378.137,-255.029 378.137,-255.029 378.558,-260.011 373.653,-255.408 378.979,-264.993 378.979,-264.993"/>
</g>
<!-- SpareHistory -->
<g id="node24" class="node"><title>SpareHistory</title>
<ellipse fill="none" stroke="black" cx="368.698" cy="-18" rx="56.5459" ry="18"/>
<text text-anchor="middle" x="368.698" y="-13.8" font-family="Times,serif" font-size="14.00">SpareHistory</text>
</g>
<!-- StockCarImage -->
<g id="node27" class="node"><title>StockCarImage</title>
<ellipse fill="none" stroke="black" cx="852.698" cy="-164" rx="65.2304" ry="18"/>
<text text-anchor="middle" x="852.698" y="-159.8" font-family="Times,serif" font-size="14.00">StockCarImage</text>
</g>
<!-- StockCar&#45;&gt;StockCarImage -->
<g id="edge38" class="edge"><title>StockCar&#45;&gt;StockCarImage</title>
<path fill="none" stroke="#3a9823" d="M880.505,-212.008C876.529,-205.286 872.187,-197.947 868.142,-191.108"/>
<ellipse fill="none" stroke="#3a9823" cx="882.708" cy="-215.731" rx="4.00002" ry="4.00002"/>
<polygon fill="#3a9823" stroke="#3a9823" points="867.963,-190.805 866.744,-179.907 865.417,-186.502 862.871,-182.198 862.871,-182.198 862.871,-182.198 865.417,-186.502 858.998,-184.49 867.963,-190.805 867.963,-190.805"/>
</g>
<!-- StockCar&#45;&gt;StockFamily -->
<g id="edge39" class="edge"><title>StockCar&#45;&gt;StockFamily</title>
<path fill="none" stroke="#40fe85" d="M855.869,-222.106C851.468,-220.89 847.014,-219.815 842.698,-219 705.34,-193.065 667.766,-215.134 528.698,-201 464.017,-194.426 390.288,-183.126 340.55,-174.936"/>
<ellipse fill="none" stroke="#40fe85" cx="859.857" cy="-223.284" rx="4.00001" ry="4.00001"/>
<polygon fill="#40fe85" stroke="#40fe85" points="340.488,-174.926 331.359,-168.851 335.555,-174.108 330.623,-173.29 330.623,-173.29 330.623,-173.29 335.555,-174.108 329.887,-177.73 340.488,-174.926 340.488,-174.926"/>
</g>
<!-- StockCar&#45;&gt;StockSpare -->
<g id="edge40" class="edge"><title>StockCar&#45;&gt;StockSpare</title>
<path fill="none" stroke="#cf5a22" d="M854.107,-222.69C850.252,-221.438 846.402,-220.192 842.698,-219 714.298,-177.68 562.43,-129.872 487.801,-106.449"/>
<ellipse fill="none" stroke="#cf5a22" cx="858.177" cy="-224.015" rx="4.00001" ry="4.00001"/>
<polygon fill="#cf5a22" stroke="#cf5a22" points="487.766,-106.438 479.572,-99.1506 482.996,-104.941 478.225,-103.444 478.225,-103.444 478.225,-103.444 482.996,-104.941 476.878,-107.738 487.766,-106.438 487.766,-106.438"/>
</g>
<!-- StockFamily&#45;&gt;FamilyHistory -->
<g id="edge43" class="edge"><title>StockFamily&#45;&gt;FamilyHistory</title>
<path fill="none" stroke="#db6563" d="M245.162,-145.233C223.164,-134.821 195.381,-121.67 172.933,-111.045"/>
<ellipse fill="none" stroke="#db6563" cx="249.088" cy="-147.091" rx="4.00002" ry="4.00002"/>
<polygon fill="#db6563" stroke="#db6563" points="172.71,-110.939 165.596,-102.593 168.19,-108.8 163.671,-106.661 163.671,-106.661 163.671,-106.661 168.19,-108.8 161.746,-110.728 172.71,-110.939 172.71,-110.939"/>
</g>
<!-- StockFamilyImage -->
<g id="node29" class="node"><title>StockFamilyImage</title>
<ellipse fill="none" stroke="black" cx="289.698" cy="-91" rx="77.3089" ry="18"/>
<text text-anchor="middle" x="289.698" y="-86.8" font-family="Times,serif" font-size="14.00">StockFamilyImage</text>
</g>
<!-- StockFamily&#45;&gt;StockFamilyImage -->
<g id="edge41" class="edge"><title>StockFamily&#45;&gt;StockFamilyImage</title>
<path fill="none" stroke="#e691fc" d="M285.183,-137.791C285.771,-131.832 286.4,-125.45 286.996,-119.399"/>
<ellipse fill="none" stroke="#e691fc" cx="284.785" cy="-141.832" rx="4" ry="4"/>
<polygon fill="#e691fc" stroke="#e691fc" points="287.038,-118.981 292.497,-109.47 287.528,-114.005 288.019,-109.029 288.019,-109.029 288.019,-109.029 287.528,-114.005 283.54,-108.587 287.038,-118.981 287.038,-118.981"/>
</g>
<!-- StockFamily&#45;&gt;StockSpare -->
<g id="edge42" class="edge"><title>StockFamily&#45;&gt;StockSpare</title>
<path fill="none" stroke="#8b0df2" d="M316.923,-144.196C327.904,-138.42 340.201,-132.216 351.698,-127 366.601,-120.239 383.225,-113.545 398.09,-107.85"/>
<ellipse fill="none" stroke="#8b0df2" cx="313.09" cy="-146.233" rx="4.00002" ry="4.00002"/>
<polygon fill="#8b0df2" stroke="#8b0df2" points="398.217,-107.802 409.162,-108.47 402.893,-106.032 407.569,-104.261 407.569,-104.261 407.569,-104.261 402.893,-106.032 405.976,-100.053 398.217,-107.802 398.217,-107.802"/>
</g>
<!-- StockSpare&#45;&gt;SpareHistory -->
<g id="edge45" class="edge"><title>StockSpare&#45;&gt;SpareHistory</title>
<path fill="none" stroke="#7ee7fe" d="M419.306,-68.2219C410.867,-60.0136 401.238,-50.6486 392.66,-42.3062"/>
<ellipse fill="none" stroke="#7ee7fe" cx="422.265" cy="-71.1001" rx="4.00002" ry="4.00002"/>
<polygon fill="#7ee7fe" stroke="#7ee7fe" points="392.618,-42.2652 388.587,-32.0671 389.034,-38.7791 385.45,-35.293 385.45,-35.293 385.45,-35.293 389.034,-38.7791 382.312,-38.5189 392.618,-42.2652 392.618,-42.2652"/>
</g>
<!-- StockSpareImage -->
<g id="node31" class="node"><title>StockSpareImage</title>
<ellipse fill="none" stroke="black" cx="515.698" cy="-18" rx="72.4635" ry="18"/>
<text text-anchor="middle" x="515.698" y="-13.8" font-family="Times,serif" font-size="14.00">StockSpareImage</text>
</g>
<!-- StockSpare&#45;&gt;StockSpareImage -->
<g id="edge44" class="edge"><title>StockSpare&#45;&gt;StockSpareImage</title>
<path fill="none" stroke="#9ba017" d="M464.352,-68.2637C472.843,-60.1176 482.526,-50.8273 491.177,-42.5264"/>
<ellipse fill="none" stroke="#9ba017" cx="461.376" cy="-71.1197" rx="4.00002" ry="4.00002"/>
<polygon fill="#9ba017" stroke="#9ba017" points="491.243,-42.4633 501.574,-38.7871 494.851,-39.0016 498.459,-35.54 498.459,-35.54 498.459,-35.54 494.851,-39.0016 495.343,-32.2928 491.243,-42.4633 491.243,-42.4633"/>
</g>
<!-- Subsection&#45;&gt;StockFamily -->
<g id="edge46" class="edge"><title>Subsection&#45;&gt;StockFamily</title>
<path fill="none" stroke="#f20f6c" d="M349.825,-215.703C337.926,-206.715 323.905,-196.124 311.762,-186.953"/>
<ellipse fill="none" stroke="#f20f6c" cx="353.109" cy="-218.183" rx="4.00002" ry="4.00002"/>
<polygon fill="#f20f6c" stroke="#f20f6c" points="311.685,-186.895 306.418,-177.277 307.695,-183.881 303.705,-180.867 303.705,-180.867 303.705,-180.867 307.695,-183.881 300.993,-184.458 311.685,-186.895 311.685,-186.895"/>
</g>
<!-- Subsection&#45;&gt;StockSpare -->
<g id="edge47" class="edge"><title>Subsection&#45;&gt;StockSpare</title>
<path fill="none" stroke="#2d0372" d="M387.58,-211.891C399.269,-185.996 417.783,-144.979 429.837,-118.276"/>
<ellipse fill="none" stroke="#2d0372" cx="385.927" cy="-215.554" rx="4.00002" ry="4.00002"/>
<polygon fill="#2d0372" stroke="#2d0372" points="429.847,-118.254 438.062,-110.991 431.904,-113.697 433.961,-109.14 433.961,-109.14 433.961,-109.14 431.904,-113.697 429.859,-107.288 429.847,-118.254 429.847,-118.254"/>
</g>
<!-- Supplier&#45;&gt;OrderSupplier -->
<g id="edge49" class="edge"><title>Supplier&#45;&gt;OrderSupplier</title>
<path fill="none" stroke="#2b3846" d="M130.876,-216.367C118.367,-207.212 103.436,-196.283 90.5687,-186.864"/>
<ellipse fill="none" stroke="#2b3846" cx="134.371" cy="-218.926" rx="4.00002" ry="4.00002"/>
<polygon fill="#2b3846" stroke="#2b3846" points="90.5263,-186.833 85.1148,-177.296 86.4916,-183.88 82.4569,-180.927 82.4569,-180.927 82.4569,-180.927 86.4916,-183.88 79.799,-184.558 90.5263,-186.833 90.5263,-186.833"/>
</g>
<!-- Supplier&#45;&gt;StockFamily -->
<g id="edge48" class="edge"><title>Supplier&#45;&gt;StockFamily</title>
<path fill="none" stroke="#875b31" d="M186.301,-217.246C195.289,-211.539 205.317,-205.363 214.698,-200 224.132,-194.607 234.484,-189.085 244.203,-184.067"/>
<ellipse fill="none" stroke="#875b31" cx="182.717" cy="-219.54" rx="4.00002" ry="4.00002"/>
<polygon fill="#875b31" stroke="#875b31" points="244.371,-183.982 255.323,-183.44 248.824,-181.707 253.276,-179.432 253.276,-179.432 253.276,-179.432 248.824,-181.707 251.229,-175.425 244.371,-183.982 244.371,-183.982"/>
</g>
<!-- Supply -->
<g id="node35" class="node"><title>Supply</title>
<ellipse fill="none" stroke="black" cx="174.698" cy="-164" rx="35.3389" ry="18"/>
<text text-anchor="middle" x="174.698" y="-159.8" font-family="Times,serif" font-size="14.00">Supply</text>
</g>
<!-- Supplier&#45;&gt;Supply -->
<g id="edge50" class="edge"><title>Supplier&#45;&gt;Supply</title>
<path fill="none" stroke="#7e74b6" d="M163.734,-210.791C165.196,-204.683 166.765,-198.13 168.246,-191.946"/>
<ellipse fill="none" stroke="#7e74b6" cx="162.744" cy="-214.923" rx="4.00001" ry="4.00001"/>
<polygon fill="#7e74b6" stroke="#7e74b6" points="168.292,-191.754 174.997,-183.077 169.456,-186.891 170.62,-182.029 170.62,-182.029 170.62,-182.029 169.456,-186.891 166.244,-180.981 168.292,-191.754 168.292,-191.754"/>
</g>
<!-- SupplierType -->
<g id="node34" class="node"><title>SupplierType</title>
<ellipse fill="none" stroke="black" cx="221.698" cy="-310" rx="57.7553" ry="18"/>
<text text-anchor="middle" x="221.698" y="-305.8" font-family="Times,serif" font-size="14.00">SupplierType</text>
</g>
<!-- SupplierType&#45;&gt;Supplier -->
<g id="edge51" class="edge"><title>SupplierType&#45;&gt;Supplier</title>
<path fill="none" stroke="#734050" d="M201.442,-286.529C194.269,-278.571 186.181,-269.599 178.929,-261.554"/>
<ellipse fill="none" stroke="#734050" cx="204.176" cy="-289.562" rx="4.00002" ry="4.00002"/>
<polygon fill="#734050" stroke="#734050" points="178.716,-261.317 175.363,-250.877 175.368,-257.603 172.021,-253.89 172.021,-253.89 172.021,-253.89 175.368,-257.603 168.678,-256.903 178.716,-261.317 178.716,-261.317"/>
</g>
<!-- User -->
<g id="node37" class="node"><title>User</title>
<ellipse fill="none" stroke="black" cx="1376.7" cy="-474.5" rx="27" ry="18"/>
<text text-anchor="middle" x="1376.7" y="-470.3" font-family="Times,serif" font-size="14.00">User</text>
</g>
<!-- Warehouse -->
<g id="node39" class="node"><title>Warehouse</title>
<ellipse fill="none" stroke="black" cx="429.698" cy="-383" rx="49.3546" ry="18"/>
<text text-anchor="middle" x="429.698" y="-378.8" font-family="Times,serif" font-size="14.00">Warehouse</text>
</g>
<!-- Warehouse&#45;&gt;Order -->
<g id="edge54" class="edge"><title>Warehouse&#45;&gt;Order</title>
<path fill="none" stroke="#50e182" d="M376.161,-375.007C320.113,-366.873 229.955,-351.484 154.698,-328 152.578,-327.339 150.418,-326.598 148.257,-325.806"/>
<ellipse fill="none" stroke="#50e182" cx="380.217" cy="-375.587" rx="4.00001" ry="4.00001"/>
<polygon fill="#50e182" stroke="#50e182" points="148.189,-325.779 140.554,-317.908 143.542,-323.935 138.894,-322.091 138.894,-322.091 138.894,-322.091 143.542,-323.935 137.234,-326.274 148.189,-325.779 148.189,-325.779"/>
</g>
<!-- Warehouse&#45;&gt;Section -->
<g id="edge55" class="edge"><title>Warehouse&#45;&gt;Section</title>
<path fill="none" stroke="#2f3705" d="M414.062,-358.38C409.302,-351.189 404.055,-343.263 399.237,-335.985"/>
<ellipse fill="none" stroke="#2f3705" cx="416.351" cy="-361.839" rx="4.00002" ry="4.00002"/>
<polygon fill="#2f3705" stroke="#2f3705" points="398.952,-335.555 397.185,-324.733 396.192,-331.386 393.433,-327.217 393.433,-327.217 393.433,-327.217 396.192,-331.386 389.68,-329.7 398.952,-335.555 398.952,-335.555"/>
</g>
<!-- Warehouse&#45;&gt;StockCar -->
<g id="edge53" class="edge"><title>Warehouse&#45;&gt;StockCar</title>
<path fill="none" stroke="#7caddc" d="M485.639,-378.401C576.534,-371.825 751.677,-355.911 806.698,-328 836.502,-312.881 862.101,-283.708 877.883,-262.667"/>
<ellipse fill="none" stroke="#7caddc" cx="481.635" cy="-378.686" rx="4" ry="4"/>
<polygon fill="#7caddc" stroke="#7caddc" points="877.949,-262.577 887.472,-257.14 880.891,-258.535 883.833,-254.492 883.833,-254.492 883.833,-254.492 880.891,-258.535 880.194,-251.844 877.949,-262.577 877.949,-262.577"/>
</g>
<!-- Warehouse&#45;&gt;StockSpare -->
<g id="edge52" class="edge"><title>Warehouse&#45;&gt;StockSpare</title>
<path fill="none" stroke="#c3e1d9" d="M442.299,-357.614C448.092,-344.219 453.698,-327.098 453.698,-311 453.698,-311 453.698,-311 453.698,-163 453.698,-148.302 451.167,-132.129 448.429,-118.936"/>
<ellipse fill="none" stroke="#c3e1d9" cx="440.571" cy="-361.397" rx="4.00002" ry="4.00002"/>
<polygon fill="#c3e1d9" stroke="#c3e1d9" points="448.408,-118.841 450.627,-108.102 447.321,-113.96 446.234,-109.08 446.234,-109.08 446.234,-109.08 447.321,-113.96 441.842,-110.058 448.408,-118.841 448.408,-118.841"/>
</g>
</g>
</svg>
