<?xml version="1.0" encoding="UTF-8" standalone="no"?>
<!DOCTYPE svg PUBLIC "-//W3C//DTD SVG 1.1//EN"
 "http://www.w3.org/Graphics/SVG/1.1/DTD/svg11.dtd">
<!-- Generated by graphviz version 2.38.0 (20140413.2041)
 -->
<!-- Title: models_diagram Pages: 1 -->
<svg width="615pt" height="297pt"
 viewBox="0.00 0.00 614.78 297.00" xmlns="http://www.w3.org/2000/svg" xmlns:xlink="http://www.w3.org/1999/xlink">
<g id="graph0" class="graph" transform="scale(1 1) rotate(0) translate(4 293)">
<title>models_diagram</title>
<polygon fill="white" stroke="none" points="-4,4 -4,-293 610.777,-293 610.777,4 -4,4"/>
<!-- _diagram_info -->
<g id="node1" class="node"><title>_diagram_info</title>
<text text-anchor="start" x="24.705" y="-274.6" font-family="Times,serif" font-size="13.00">Models diagram</text>
<text text-anchor="start" x="24.705" y="-261.6" font-family="Times,serif" font-size="13.00">Date: Nov 05 2014 &#45; 11:45</text>
<text text-anchor="start" x="24.705" y="-248.6" font-family="Times,serif" font-size="13.00">Migration version: 20141103232822</text>
<text text-anchor="start" x="24.705" y="-235.6" font-family="Times,serif" font-size="13.00">Generated by RailRoady 1.1.2</text>
<text text-anchor="start" x="24.705" y="-222.6" font-family="Times,serif" font-size="13.00">http://railroady.prestonlee.com</text>
</g>
<!-- Car -->
<g id="node2" class="node"><title>Car</title>
<ellipse fill="none" stroke="black" cx="270.155" cy="-90" rx="27" ry="18"/>
<text text-anchor="middle" x="270.155" y="-85.8" font-family="Times,serif" font-size="14.00">Car</text>
</g>
<!-- CarSpareAlloy -->
<g id="node3" class="node"><title>CarSpareAlloy</title>
<ellipse fill="none" stroke="black" cx="63.1547" cy="-18" rx="63.3097" ry="18"/>
<text text-anchor="middle" x="63.1547" y="-13.8" font-family="Times,serif" font-size="14.00">CarSpareAlloy</text>
</g>
<!-- GenericCar -->
<g id="node4" class="node"><title>GenericCar</title>
<ellipse fill="none" stroke="black" cx="90.1547" cy="-162" rx="50.7224" ry="18"/>
<text text-anchor="middle" x="90.1547" y="-157.8" font-family="Times,serif" font-size="14.00">GenericCar</text>
</g>
<!-- GenericCar&#45;&gt;Car -->
<g id="edge3" class="edge"><title>GenericCar&#45;&gt;Car</title>
<path fill="none" stroke="#c7795c" d="M133.264,-146.257C162.079,-136.129 200.694,-122.026 234.155,-108 235.971,-107.238 237.83,-106.436 239.698,-105.611"/>
<ellipse fill="none" stroke="#c7795c" cx="129.185" cy="-147.684" rx="4.00001" ry="4.00001"/>
<polygon fill="#c7795c" stroke="#c7795c" points="239.875,-105.53 250.841,-105.478 244.425,-103.456 248.975,-101.383 248.975,-101.383 248.975,-101.383 244.425,-103.456 247.108,-97.2881 239.875,-105.53 239.875,-105.53"/>
</g>
<!-- GenericCar&#45;&gt;CarSpareAlloy -->
<g id="edge4" class="edge"><title>GenericCar&#45;&gt;CarSpareAlloy</title>
<path fill="none" stroke="#2f4732" d="M85.3876,-135.929C80.5953,-110.725 73.231,-71.9942 68.3065,-46.0947"/>
<ellipse fill="none" stroke="#2f4732" cx="86.1506" cy="-139.942" rx="4.00001" ry="4.00001"/>
<polygon fill="#2f4732" stroke="#2f4732" points="68.2911,-46.0133 70.8438,-35.3487 67.3571,-41.1013 66.423,-36.1893 66.423,-36.1893 66.423,-36.1893 67.3571,-41.1013 62.0022,-37.0299 68.2911,-46.0133 68.2911,-46.0133"/>
</g>
<!-- GenericSpare -->
<g id="node5" class="node"><title>GenericSpare</title>
<ellipse fill="none" stroke="black" cx="149.155" cy="-90" rx="58.4563" ry="18"/>
<text text-anchor="middle" x="149.155" y="-85.8" font-family="Times,serif" font-size="14.00">GenericSpare</text>
</g>
<!-- GenericCar&#45;&gt;GenericSpare -->
<g id="edge5" class="edge"><title>GenericCar&#45;&gt;GenericSpare</title>
<path fill="none" stroke="#e2f62d" d="M110.811,-136.493C116.398,-129.864 122.451,-122.682 128.062,-116.026"/>
<polygon fill="#e2f62d" stroke="#e2f62d" points="110.582,-136.765 100.696,-141.511 107.359,-140.588 104.137,-144.411 104.137,-144.411 104.137,-144.411 107.359,-140.588 107.578,-147.311 110.582,-136.765 110.582,-136.765"/>
<polygon fill="#e2f62d" stroke="#e2f62d" points="128.418,-115.603 138.304,-110.856 131.641,-111.779 134.863,-107.956 134.863,-107.956 134.863,-107.956 131.641,-111.779 131.422,-105.056 128.418,-115.603 128.418,-115.603"/>
</g>
<!-- GenericSpare&#45;&gt;CarSpareAlloy -->
<g id="edge8" class="edge"><title>GenericSpare&#45;&gt;CarSpareAlloy</title>
<path fill="none" stroke="#894573" d="M122.75,-67.5078C112.64,-59.2791 101.085,-49.8736 90.8575,-41.5488"/>
<ellipse fill="none" stroke="#894573" cx="126.106" cy="-70.2395" rx="4.00002" ry="4.00002"/>
<polygon fill="#894573" stroke="#894573" points="90.7484,-41.4601 85.8335,-31.6573 86.8706,-38.3037 82.9928,-35.1473 82.9928,-35.1473 82.9928,-35.1473 86.8706,-38.3037 80.152,-38.6373 90.7484,-41.4601 90.7484,-41.4601"/>
</g>
<!-- GenericSpare&#45;&gt;GenericSpare -->
<g id="edge7" class="edge"><title>GenericSpare&#45;&gt;GenericSpare</title>
<path fill="none" stroke="#d5e67e" d="M197.527,-103.497C213.066,-103.361 225.382,-98.8616 225.382,-90 225.382,-81.4636 213.953,-76.9756 199.225,-76.5358"/>
<ellipse fill="none" stroke="#d5e67e" cx="193.154" cy="-103.326" rx="4" ry="4"/>
<polygon fill="#d5e67e" stroke="#d5e67e" points="199.152,-76.5378 189.025,-72.3315 194.154,-76.6837 189.157,-76.8296 189.157,-76.8296 189.157,-76.8296 194.154,-76.6837 189.288,-81.3277 199.152,-76.5378 199.152,-76.5378"/>
</g>
<!-- Spare -->
<g id="node8" class="node"><title>Spare</title>
<ellipse fill="none" stroke="black" cx="325.155" cy="-18" rx="30.4862" ry="18"/>
<text text-anchor="middle" x="325.155" y="-13.8" font-family="Times,serif" font-size="14.00">Spare</text>
</g>
<!-- GenericSpare&#45;&gt;Spare -->
<g id="edge9" class="edge"><title>GenericSpare&#45;&gt;Spare</title>
<path fill="none" stroke="#e4da74" d="M191.037,-72.3421C221.658,-60.1633 262.663,-43.8545 291.24,-32.4889"/>
<ellipse fill="none" stroke="#e4da74" cx="187.224" cy="-73.8588" rx="4.00001" ry="4.00001"/>
<polygon fill="#e4da74" stroke="#e4da74" points="291.5,-32.3856 302.455,-32.8712 296.146,-30.5377 300.792,-28.6898 300.792,-28.6898 300.792,-28.6898 296.146,-30.5377 299.129,-24.5084 291.5,-32.3856 291.5,-32.3856"/>
</g>
<!-- Insured -->
<g id="node6" class="node"><title>Insured</title>
<ellipse fill="none" stroke="black" cx="417.155" cy="-90" rx="36.7576" ry="18"/>
<text text-anchor="middle" x="417.155" y="-85.8" font-family="Times,serif" font-size="14.00">Insured</text>
</g>
<!-- Prevaluation -->
<g id="node7" class="node"><title>Prevaluation</title>
<ellipse fill="none" stroke="black" cx="444.155" cy="-162" rx="54.6076" ry="18"/>
<text text-anchor="middle" x="444.155" y="-157.8" font-family="Times,serif" font-size="14.00">Prevaluation</text>
</g>
<!-- Prevaluation&#45;&gt;Car -->
<g id="edge12" class="edge"><title>Prevaluation&#45;&gt;Car</title>
<path fill="none" stroke="#eff7cc" d="M403.034,-144.457C372.217,-132.06 330.642,-115.334 302.254,-103.913"/>
<ellipse fill="none" stroke="#eff7cc" cx="406.895" cy="-146.01" rx="4.00001" ry="4.00001"/>
<polygon fill="#eff7cc" stroke="#eff7cc" points="302.079,-103.843 294.481,-95.9361 297.44,-101.977 292.802,-100.111 292.802,-100.111 292.802,-100.111 297.44,-101.977 291.122,-104.286 302.079,-103.843 302.079,-103.843"/>
</g>
<!-- Prevaluation&#45;&gt;Insured -->
<g id="edge13" class="edge"><title>Prevaluation&#45;&gt;Insured</title>
<path fill="none" stroke="#7a3deb" d="M434.678,-136.431C432.28,-130.214 429.696,-123.514 427.268,-117.22"/>
<ellipse fill="none" stroke="#7a3deb" cx="436.179" cy="-140.323" rx="4.00001" ry="4.00001"/>
<polygon fill="#7a3deb" stroke="#7a3deb" points="427.229,-117.119 427.829,-106.17 425.43,-112.454 423.63,-107.789 423.63,-107.789 423.63,-107.789 425.43,-112.454 419.432,-109.408 427.229,-117.119 427.229,-117.119"/>
</g>
<!-- Valuation -->
<g id="node10" class="node"><title>Valuation</title>
<ellipse fill="none" stroke="black" cx="541.155" cy="-90" rx="43.9992" ry="18"/>
<text text-anchor="middle" x="541.155" y="-85.8" font-family="Times,serif" font-size="14.00">Valuation</text>
</g>
<!-- Prevaluation&#45;&gt;Valuation -->
<g id="edge14" class="edge"><title>Prevaluation&#45;&gt;Valuation</title>
<path fill="none" stroke="#5cc176" d="M472.898,-140.257C485.715,-131.008 500.753,-120.156 513.446,-110.996"/>
<ellipse fill="none" stroke="#5cc176" cx="469.409" cy="-142.775" rx="4.00002" ry="4.00002"/>
<ellipse fill="#5cc176" stroke="#5cc176" cx="516.985" cy="-108.442" rx="4.00002" ry="4.00002"/>
</g>
<!-- Spare&#45;&gt;Spare -->
<g id="edge16" class="edge"><title>Spare&#45;&gt;Spare</title>
<path fill="none" stroke="#7f28f5" d="M355.048,-31.499C365.218,-31.5766 373.397,-27.0769 373.397,-18 373.397,-9.54602 366.302,-5.06258 357.112,-4.54969"/>
<ellipse fill="none" stroke="#7f28f5" cx="350.957" cy="-31.0163" rx="4.00001" ry="4.00001"/>
<polygon fill="#7f28f5" stroke="#7f28f5" points="356.945,-4.56445 346.585,-0.970291 351.965,-5.00848 346.985,-5.45251 346.985,-5.45251 346.985,-5.45251 351.965,-5.00848 347.384,-9.93474 356.945,-4.56445 356.945,-4.56445"/>
</g>
<!-- User -->
<g id="node9" class="node"><title>User</title>
<ellipse fill="none" stroke="black" cx="544.155" cy="-162" rx="27" ry="18"/>
<text text-anchor="middle" x="544.155" y="-157.8" font-family="Times,serif" font-size="14.00">User</text>
</g>
<!-- Warehouse -->
<g id="node11" class="node"><title>Warehouse</title>
<ellipse fill="none" stroke="black" cx="284.155" cy="-162" rx="49.3546" ry="18"/>
<text text-anchor="middle" x="284.155" y="-157.8" font-family="Times,serif" font-size="14.00">Warehouse</text>
</g>
<!-- Warehouse&#45;&gt;Car -->
<g id="edge21" class="edge"><title>Warehouse&#45;&gt;Car</title>
<path fill="none" stroke="#401070" d="M279.083,-135.64C277.939,-129.92 276.72,-123.828 275.563,-118.042"/>
<ellipse fill="none" stroke="#401070" cx="279.909" cy="-139.774" rx="4.00001" ry="4.00001"/>
<polygon fill="#401070" stroke="#401070" points="275.537,-117.91 277.988,-107.222 274.556,-113.007 273.576,-108.104 273.576,-108.104 273.576,-108.104 274.556,-113.007 269.163,-108.987 275.537,-117.91 275.537,-117.91"/>
</g>
<!-- Warehouse&#45;&gt;Spare -->
<g id="edge20" class="edge"><title>Warehouse&#45;&gt;Spare</title>
<path fill="none" stroke="#641412" d="M295.345,-136.685C299.144,-127.791 303.176,-117.564 306.155,-108 312.526,-87.5415 317.479,-63.7812 320.728,-45.9593"/>
<ellipse fill="none" stroke="#641412" cx="293.701" cy="-140.443" rx="4.00002" ry="4.00002"/>
<polygon fill="#641412" stroke="#641412" points="320.753,-45.8166 326.918,-36.7474 321.619,-40.8922 322.486,-35.9678 322.486,-35.9678 322.486,-35.9678 321.619,-40.8922 318.054,-35.1882 320.753,-45.8166 320.753,-45.8166"/>
</g>
<!-- ActiveRecord::Base -->
<g id="node12" class="node"><title>ActiveRecord::Base</title>
<ellipse fill="none" stroke="black" cx="323.155" cy="-252.5" rx="81.1422" ry="18"/>
<text text-anchor="middle" x="323.155" y="-248.3" font-family="Times,serif" font-size="14.00">ActiveRecord::Base</text>
</g>
<!-- ActiveRecord::Base&#45;&gt;Car -->
<g id="edge1" class="edge"><title>ActiveRecord::Base&#45;&gt;Car</title>
<path fill="none" stroke="black" d="M288.139,-236.098C265.95,-224.261 239.079,-205.582 226.155,-180 218.94,-165.719 220.722,-159.049 226.155,-144 231.677,-128.702 243.75,-114.7 253.855,-104.935"/>
</g>
<!-- ActiveRecord::Base&#45;&gt;CarSpareAlloy -->
<g id="edge2" class="edge"><title>ActiveRecord::Base&#45;&gt;CarSpareAlloy</title>
<path fill="none" stroke="black" d="M288.265,-236.04C271.551,-229.114 251.092,-221.326 232.155,-216 144.368,-191.311 88.7079,-249.911 30.1547,-180 -5.20351,-137.783 31.5082,-67.7131 51.7186,-35.7822"/>
</g>
<!-- ActiveRecord::Base&#45;&gt;GenericCar -->
<g id="edge6" class="edge"><title>ActiveRecord::Base&#45;&gt;GenericCar</title>
<path fill="none" stroke="black" d="M285.126,-236.521C268.835,-230.141 249.583,-222.651 232.155,-216 195.278,-201.926 152.864,-186.149 124.063,-175.496"/>
</g>
<!-- ActiveRecord::Base&#45;&gt;GenericSpare -->
<g id="edge10" class="edge"><title>ActiveRecord::Base&#45;&gt;GenericSpare</title>
<path fill="none" stroke="black" d="M294.65,-235.458C272.467,-222.21 241.614,-202.056 218.155,-180 194.509,-157.769 172.516,-126.947 159.975,-108.023"/>
</g>
<!-- ActiveRecord::Base&#45;&gt;Insured -->
<g id="edge11" class="edge"><title>ActiveRecord::Base&#45;&gt;Insured</title>
<path fill="none" stroke="black" d="M331.419,-234.387C341.991,-212.874 361.21,-175.004 380.155,-144 387.878,-131.36 397.474,-117.664 404.958,-107.362"/>
</g>
<!-- ActiveRecord::Base&#45;&gt;Prevaluation -->
<g id="edge15" class="edge"><title>ActiveRecord::Base&#45;&gt;Prevaluation</title>
<path fill="none" stroke="black" d="M345.63,-235.061C367.637,-218.965 400.932,-194.613 422.613,-178.756"/>
</g>
<!-- ActiveRecord::Base&#45;&gt;Spare -->
<g id="edge17" class="edge"><title>ActiveRecord::Base&#45;&gt;Spare</title>
<path fill="none" stroke="black" d="M392.597,-243.118C465.566,-232.715 573.184,-212.293 598.155,-180 609.501,-165.326 610.662,-90.9776 594.155,-72 563.229,-36.4448 419.224,-24.1841 355.559,-20.4536"/>
</g>
<!-- ActiveRecord::Base&#45;&gt;User -->
<g id="edge18" class="edge"><title>ActiveRecord::Base&#45;&gt;User</title>
<path fill="none" stroke="black" d="M363.55,-236.848C401.257,-222.945 458.942,-201.097 508.155,-180 512.983,-177.93 518.117,-175.591 522.95,-173.325"/>
</g>
<!-- ActiveRecord::Base&#45;&gt;Valuation -->
<g id="edge19" class="edge"><title>ActiveRecord::Base&#45;&gt;Valuation</title>
<path fill="none" stroke="black" d="M389.972,-242.15C458.169,-231.078 557.18,-210.239 580.155,-180 597.402,-157.299 574.881,-125.784 557.582,-106.985"/>
</g>
<!-- ActiveRecord::Base&#45;&gt;Warehouse -->
<g id="edge22" class="edge"><title>ActiveRecord::Base&#45;&gt;Warehouse</title>
<path fill="none" stroke="black" d="M315.635,-234.436C308.729,-218.765 298.55,-195.666 291.651,-180.011"/>
</g>
</g>
</svg>
