<?xml version="1.0" encoding="UTF-8" standalone="no"?>
<!DOCTYPE svg PUBLIC "-//W3C//DTD SVG 1.1//EN"
 "http://www.w3.org/Graphics/SVG/1.1/DTD/svg11.dtd">
<!-- Generated by graphviz version 2.38.0 (20140413.2041)
 -->
<!-- Title: models_diagram Pages: 1 -->
<svg width="1999pt" height="1049pt"
 viewBox="0.00 0.00 1998.89 1049.00" xmlns="http://www.w3.org/2000/svg" xmlns:xlink="http://www.w3.org/1999/xlink">
<g id="graph0" class="graph" transform="scale(1 1) rotate(0) translate(4 1045)">
<title>models_diagram</title>
<polygon fill="white" stroke="none" points="-4,4 -4,-1045 1994.89,-1045 1994.89,4 -4,4"/>
<!-- _diagram_info -->
<g id="node1" class="node"><title>_diagram_info</title>
<text text-anchor="start" x="393.141" y="-984.6" font-family="Times,serif" font-size="13.00">Models diagram</text>
<text text-anchor="start" x="393.141" y="-971.6" font-family="Times,serif" font-size="13.00">Date: Feb 12 2015 &#45; 12:49</text>
<text text-anchor="start" x="393.141" y="-958.6" font-family="Times,serif" font-size="13.00">Migration version: 20150212181944</text>
<text text-anchor="start" x="393.141" y="-945.6" font-family="Times,serif" font-size="13.00">Generated by RailRoady 1.3.0</text>
<text text-anchor="start" x="393.141" y="-932.6" font-family="Times,serif" font-size="13.00">http://railroady.prestonlee.com</text>
</g>
<!-- Brand -->
<g id="node2" class="node"><title>Brand</title>
<path fill="none" stroke="black" d="M785.323,-719.5C785.323,-719.5 894.334,-719.5 894.334,-719.5 900.334,-719.5 906.334,-725.5 906.334,-731.5 906.334,-731.5 906.334,-807.5 906.334,-807.5 906.334,-813.5 900.334,-819.5 894.334,-819.5 894.334,-819.5 785.323,-819.5 785.323,-819.5 779.323,-819.5 773.323,-813.5 773.323,-807.5 773.323,-807.5 773.323,-731.5 773.323,-731.5 773.323,-725.5 779.323,-719.5 785.323,-719.5"/>
<text text-anchor="middle" x="839.829" y="-804.3" font-family="Times,serif" font-size="14.00">Brand</text>
<polyline fill="none" stroke="black" points="773.323,-797.5 906.334,-797.5 "/>
<text text-anchor="start" x="781.323" y="-782.3" font-family="Times,serif" font-size="14.00">id :integer</text>
<text text-anchor="start" x="781.323" y="-768.3" font-family="Times,serif" font-size="14.00">name :string</text>
<text text-anchor="start" x="781.323" y="-754.3" font-family="Times,serif" font-size="14.00">acronym :string</text>
<text text-anchor="start" x="781.323" y="-740.3" font-family="Times,serif" font-size="14.00">created_at :datetime</text>
<text text-anchor="start" x="781.323" y="-726.3" font-family="Times,serif" font-size="14.00">updated_at :datetime</text>
</g>
<!-- GenericCar -->
<g id="node8" class="node"><title>GenericCar</title>
<path fill="none" stroke="black" d="M512.434,-442.5C512.434,-442.5 671.224,-442.5 671.224,-442.5 677.224,-442.5 683.224,-448.5 683.224,-454.5 683.224,-454.5 683.224,-600.5 683.224,-600.5 683.224,-606.5 677.224,-612.5 671.224,-612.5 671.224,-612.5 512.434,-612.5 512.434,-612.5 506.434,-612.5 500.434,-606.5 500.434,-600.5 500.434,-600.5 500.434,-454.5 500.434,-454.5 500.434,-448.5 506.434,-442.5 512.434,-442.5"/>
<text text-anchor="middle" x="591.829" y="-597.3" font-family="Times,serif" font-size="14.00">GenericCar</text>
<polyline fill="none" stroke="black" points="500.434,-590.5 683.224,-590.5 "/>
<text text-anchor="start" x="508.434" y="-575.3" font-family="Times,serif" font-size="14.00">id :integer</text>
<text text-anchor="start" x="508.434" y="-561.3" font-family="Times,serif" font-size="14.00">brand_id :string</text>
<text text-anchor="start" x="508.434" y="-547.3" font-family="Times,serif" font-size="14.00">model :string</text>
<text text-anchor="start" x="508.434" y="-533.3" font-family="Times,serif" font-size="14.00">doors_id :integer</text>
<text text-anchor="start" x="508.434" y="-519.3" font-family="Times,serif" font-size="14.00">first_generation_year :integer</text>
<text text-anchor="start" x="508.434" y="-505.3" font-family="Times,serif" font-size="14.00">last_generation_year :integer</text>
<text text-anchor="start" x="508.434" y="-491.3" font-family="Times,serif" font-size="14.00">code :string</text>
<text text-anchor="start" x="508.434" y="-477.3" font-family="Times,serif" font-size="14.00">number_of_generation :string</text>
<text text-anchor="start" x="508.434" y="-463.3" font-family="Times,serif" font-size="14.00">created_at :datetime</text>
<text text-anchor="start" x="508.434" y="-449.3" font-family="Times,serif" font-size="14.00">updated_at :datetime</text>
</g>
<!-- Brand&#45;&gt;GenericCar -->
<g id="edge1" class="edge"><title>Brand&#45;&gt;GenericCar</title>
<path fill="none" stroke="#ebd47f" d="M786.398,-713.567C777.529,-705.585 768.169,-697.784 758.829,-691 731.478,-671.134 717.739,-676.711 691.829,-655 679.568,-644.726 667.798,-632.736 656.911,-620.308"/>
<ellipse fill="none" stroke="#ebd47f" cx="789.504" cy="-716.41" rx="4.00002" ry="4.00002"/>
<polygon fill="#ebd47f" stroke="#ebd47f" points="656.752,-620.122 653.669,-609.599 653.501,-616.323 650.25,-612.525 650.25,-612.525 650.25,-612.525 653.501,-616.323 646.831,-615.45 656.752,-620.122 656.752,-620.122"/>
</g>
<!-- ModelAcronym -->
<g id="node16" class="node"><title>ModelAcronym</title>
<path fill="none" stroke="black" d="M713.323,-470.5C713.323,-470.5 822.334,-470.5 822.334,-470.5 828.334,-470.5 834.334,-476.5 834.334,-482.5 834.334,-482.5 834.334,-572.5 834.334,-572.5 834.334,-578.5 828.334,-584.5 822.334,-584.5 822.334,-584.5 713.323,-584.5 713.323,-584.5 707.323,-584.5 701.323,-578.5 701.323,-572.5 701.323,-572.5 701.323,-482.5 701.323,-482.5 701.323,-476.5 707.323,-470.5 713.323,-470.5"/>
<text text-anchor="middle" x="767.829" y="-569.3" font-family="Times,serif" font-size="14.00">ModelAcronym</text>
<polyline fill="none" stroke="black" points="701.323,-562.5 834.334,-562.5 "/>
<text text-anchor="start" x="709.323" y="-547.3" font-family="Times,serif" font-size="14.00">id :integer</text>
<text text-anchor="start" x="709.323" y="-533.3" font-family="Times,serif" font-size="14.00">brand_id :integer</text>
<text text-anchor="start" x="709.323" y="-519.3" font-family="Times,serif" font-size="14.00">initials :string</text>
<text text-anchor="start" x="709.323" y="-505.3" font-family="Times,serif" font-size="14.00">model :string</text>
<text text-anchor="start" x="709.323" y="-491.3" font-family="Times,serif" font-size="14.00">created_at :datetime</text>
<text text-anchor="start" x="709.323" y="-477.3" font-family="Times,serif" font-size="14.00">updated_at :datetime</text>
</g>
<!-- Brand&#45;&gt;ModelAcronym -->
<g id="edge2" class="edge"><title>Brand&#45;&gt;ModelAcronym</title>
<path fill="none" stroke="#a5cdd3" d="M822.689,-711.369C812.141,-676.206 798.581,-631.008 787.582,-594.344"/>
<ellipse fill="none" stroke="#a5cdd3" cx="823.935" cy="-715.522" rx="4.00001" ry="4.00001"/>
<polygon fill="#a5cdd3" stroke="#a5cdd3" points="787.572,-594.311 789.009,-583.44 786.135,-589.522 784.698,-584.733 784.698,-584.733 784.698,-584.733 786.135,-589.522 780.388,-586.026 787.572,-594.311 787.572,-594.311"/>
</g>
<!-- CarLikelihood -->
<g id="node3" class="node"><title>CarLikelihood</title>
<path fill="none" stroke="black" d="M59.1129,-470.5C59.1129,-470.5 180.545,-470.5 180.545,-470.5 186.545,-470.5 192.545,-476.5 192.545,-482.5 192.545,-482.5 192.545,-572.5 192.545,-572.5 192.545,-578.5 186.545,-584.5 180.545,-584.5 180.545,-584.5 59.1129,-584.5 59.1129,-584.5 53.1129,-584.5 47.1129,-578.5 47.1129,-572.5 47.1129,-572.5 47.1129,-482.5 47.1129,-482.5 47.1129,-476.5 53.1129,-470.5 59.1129,-470.5"/>
<text text-anchor="middle" x="119.829" y="-569.3" font-family="Times,serif" font-size="14.00">CarLikelihood</text>
<polyline fill="none" stroke="black" points="47.1129,-562.5 192.545,-562.5 "/>
<text text-anchor="start" x="55.1129" y="-547.3" font-family="Times,serif" font-size="14.00">id :integer</text>
<text text-anchor="start" x="55.1129" y="-533.3" font-family="Times,serif" font-size="14.00">car_type_id :integer</text>
<text text-anchor="start" x="55.1129" y="-519.3" font-family="Times,serif" font-size="14.00">generic_car_id :integer</text>
<text text-anchor="start" x="55.1129" y="-505.3" font-family="Times,serif" font-size="14.00">door_id :integer</text>
<text text-anchor="start" x="55.1129" y="-491.3" font-family="Times,serif" font-size="14.00">created_at :datetime</text>
<text text-anchor="start" x="55.1129" y="-477.3" font-family="Times,serif" font-size="14.00">updated_at :datetime</text>
</g>
<!-- Generation -->
<g id="node7" class="node"><title>Generation</title>
<path fill="none" stroke="black" d="M113.323,-207.5C113.323,-207.5 222.334,-207.5 222.334,-207.5 228.334,-207.5 234.334,-213.5 234.334,-219.5 234.334,-219.5 234.334,-281.5 234.334,-281.5 234.334,-287.5 228.334,-293.5 222.334,-293.5 222.334,-293.5 113.323,-293.5 113.323,-293.5 107.323,-293.5 101.323,-287.5 101.323,-281.5 101.323,-281.5 101.323,-219.5 101.323,-219.5 101.323,-213.5 107.323,-207.5 113.323,-207.5"/>
<text text-anchor="middle" x="167.829" y="-278.3" font-family="Times,serif" font-size="14.00">Generation</text>
<polyline fill="none" stroke="black" points="101.323,-271.5 234.334,-271.5 "/>
<text text-anchor="start" x="109.323" y="-256.3" font-family="Times,serif" font-size="14.00">id :integer</text>
<text text-anchor="start" x="109.323" y="-242.3" font-family="Times,serif" font-size="14.00">year :integer</text>
<text text-anchor="start" x="109.323" y="-228.3" font-family="Times,serif" font-size="14.00">created_at :datetime</text>
<text text-anchor="start" x="109.323" y="-214.3" font-family="Times,serif" font-size="14.00">updated_at :datetime</text>
</g>
<!-- CarLikelihood&#45;&gt;Generation -->
<g id="edge4" class="edge"><title>CarLikelihood&#45;&gt;Generation</title>
<path fill="none" stroke="#3d86c1" d="M131.418,-460.101C139.794,-412.116 150.951,-348.192 158.698,-303.81"/>
<polygon fill="#3d86c1" stroke="#3d86c1" points="131.378,-460.335 125.225,-469.412 130.518,-465.261 129.658,-470.186 129.658,-470.186 129.658,-470.186 130.518,-465.261 134.091,-470.96 131.378,-460.335 131.378,-460.335"/>
<polygon fill="#3d86c1" stroke="#3d86c1" points="158.724,-303.662 164.876,-294.585 159.584,-298.736 160.444,-293.811 160.444,-293.811 160.444,-293.811 159.584,-298.736 156.011,-293.037 158.724,-303.662 158.724,-303.662"/>
</g>
<!-- GenericCarGeneration -->
<g id="node9" class="node"><title>GenericCarGeneration</title>
<path fill="none" stroke="black" d="M52.3233,-0.5C52.3233,-0.5 189.334,-0.5 189.334,-0.5 195.334,-0.5 201.334,-6.5 201.334,-12.5 201.334,-12.5 201.334,-88.5 201.334,-88.5 201.334,-94.5 195.334,-100.5 189.334,-100.5 189.334,-100.5 52.3233,-100.5 52.3233,-100.5 46.3233,-100.5 40.3233,-94.5 40.3233,-88.5 40.3233,-88.5 40.3233,-12.5 40.3233,-12.5 40.3233,-6.5 46.3233,-0.5 52.3233,-0.5"/>
<text text-anchor="middle" x="120.829" y="-85.3" font-family="Times,serif" font-size="14.00">GenericCarGeneration</text>
<polyline fill="none" stroke="black" points="40.3233,-78.5 201.334,-78.5 "/>
<text text-anchor="start" x="48.3233" y="-63.3" font-family="Times,serif" font-size="14.00">id :integer</text>
<text text-anchor="start" x="48.3233" y="-49.3" font-family="Times,serif" font-size="14.00">car_likelihood_id :integer</text>
<text text-anchor="start" x="48.3233" y="-35.3" font-family="Times,serif" font-size="14.00">generation_id :integer</text>
<text text-anchor="start" x="48.3233" y="-21.3" font-family="Times,serif" font-size="14.00">created_at :datetime</text>
<text text-anchor="start" x="48.3233" y="-7.3" font-family="Times,serif" font-size="14.00">updated_at :datetime</text>
</g>
<!-- CarLikelihood&#45;&gt;GenericCarGeneration -->
<g id="edge3" class="edge"><title>CarLikelihood&#45;&gt;GenericCarGeneration</title>
<path fill="none" stroke="#1bdb31" d="M106.01,-462.076C91.4784,-384.486 73.1157,-250.429 91.8287,-137 93.2746,-128.236 95.5015,-119.161 98.0928,-110.344"/>
<ellipse fill="none" stroke="#1bdb31" cx="106.833" cy="-466.399" rx="4.00001" ry="4.00001"/>
<polygon fill="#1bdb31" stroke="#1bdb31" points="98.1763,-110.076 105.447,-101.868 99.6637,-105.303 101.151,-100.529 101.151,-100.529 101.151,-100.529 99.6637,-105.303 96.8548,-99.1903 98.1763,-110.076 98.1763,-110.076"/>
</g>
<!-- CarType -->
<g id="node4" class="node"><title>CarType</title>
<path fill="none" stroke="black" d="M230.323,-726.5C230.323,-726.5 339.334,-726.5 339.334,-726.5 345.334,-726.5 351.334,-732.5 351.334,-738.5 351.334,-738.5 351.334,-800.5 351.334,-800.5 351.334,-806.5 345.334,-812.5 339.334,-812.5 339.334,-812.5 230.323,-812.5 230.323,-812.5 224.323,-812.5 218.323,-806.5 218.323,-800.5 218.323,-800.5 218.323,-738.5 218.323,-738.5 218.323,-732.5 224.323,-726.5 230.323,-726.5"/>
<text text-anchor="middle" x="284.829" y="-797.3" font-family="Times,serif" font-size="14.00">CarType</text>
<polyline fill="none" stroke="black" points="218.323,-790.5 351.334,-790.5 "/>
<text text-anchor="start" x="226.323" y="-775.3" font-family="Times,serif" font-size="14.00">id :integer</text>
<text text-anchor="start" x="226.323" y="-761.3" font-family="Times,serif" font-size="14.00">name :string</text>
<text text-anchor="start" x="226.323" y="-747.3" font-family="Times,serif" font-size="14.00">created_at :datetime</text>
<text text-anchor="start" x="226.323" y="-733.3" font-family="Times,serif" font-size="14.00">updated_at :datetime</text>
</g>
<!-- CarType&#45;&gt;CarLikelihood -->
<g id="edge5" class="edge"><title>CarType&#45;&gt;CarLikelihood</title>
<path fill="none" stroke="#d90794" d="M251.338,-719.787C226.194,-683.213 191.521,-632.78 164.091,-592.881"/>
<ellipse fill="none" stroke="#d90794" cx="253.633" cy="-723.124" rx="4.00002" ry="4.00002"/>
<polygon fill="#d90794" stroke="#d90794" points="164.018,-592.776 162.061,-581.986 161.186,-588.656 158.353,-584.536 158.353,-584.536 158.353,-584.536 161.186,-588.656 154.645,-587.085 164.018,-592.776 164.018,-592.776"/>
</g>
<!-- CarType&#45;&gt;GenericCar -->
<g id="edge7" class="edge"><title>CarType&#45;&gt;GenericCar</title>
<path fill="none" stroke="#4cd51d" d="M330.589,-719.115C340.266,-709.458 350.642,-699.652 360.829,-691 401.824,-656.181 450.099,-621.366 491.889,-592.944"/>
<polygon fill="#4cd51d" stroke="#4cd51d" points="330.369,-719.337 320.138,-723.286 326.854,-722.893 323.339,-726.449 323.339,-726.449 323.339,-726.449 326.854,-722.893 326.539,-729.613 330.369,-719.337 330.369,-719.337"/>
<polygon fill="#4cd51d" stroke="#4cd51d" points="492.148,-592.769 502.952,-590.89 496.289,-589.966 500.429,-587.163 500.429,-587.163 500.429,-587.163 496.289,-589.966 497.907,-583.437 492.148,-592.769 492.148,-592.769"/>
</g>
<!-- TypeLikelihood -->
<g id="node30" class="node"><title>TypeLikelihood</title>
<ellipse fill="none" stroke="black" cx="387.829" cy="-250.5" rx="66.4333" ry="18"/>
<text text-anchor="middle" x="387.829" y="-246.3" font-family="Times,serif" font-size="14.00">TypeLikelihood</text>
</g>
<!-- CarType&#45;&gt;TypeLikelihood -->
<g id="edge6" class="edge"><title>CarType&#45;&gt;TypeLikelihood</title>
<path fill="none" stroke="#d63c81" d="M294.88,-718.049C316.333,-610.368 365.986,-361.137 382.43,-278.596"/>
<ellipse fill="none" stroke="#d63c81" cx="294.039" cy="-722.269" rx="4.00001" ry="4.00001"/>
<polygon fill="#d63c81" stroke="#d63c81" points="382.442,-278.536 388.809,-269.608 383.419,-273.633 384.396,-268.729 384.396,-268.729 384.396,-268.729 383.419,-273.633 379.983,-267.85 382.442,-278.536 382.442,-278.536"/>
</g>
<!-- Door -->
<g id="node5" class="node"><title>Door</title>
<path fill="none" stroke="black" d="M50.9302,-726.5C50.9302,-726.5 188.727,-726.5 188.727,-726.5 194.727,-726.5 200.727,-732.5 200.727,-738.5 200.727,-738.5 200.727,-800.5 200.727,-800.5 200.727,-806.5 194.727,-812.5 188.727,-812.5 188.727,-812.5 50.9302,-812.5 50.9302,-812.5 44.9302,-812.5 38.9302,-806.5 38.9302,-800.5 38.9302,-800.5 38.9302,-738.5 38.9302,-738.5 38.9302,-732.5 44.9302,-726.5 50.9302,-726.5"/>
<text text-anchor="middle" x="119.829" y="-797.3" font-family="Times,serif" font-size="14.00">Door</text>
<polyline fill="none" stroke="black" points="38.9302,-790.5 200.727,-790.5 "/>
<text text-anchor="start" x="46.9302" y="-775.3" font-family="Times,serif" font-size="14.00">id :integer</text>
<text text-anchor="start" x="46.9302" y="-761.3" font-family="Times,serif" font-size="14.00">number_of_doors :integer</text>
<text text-anchor="start" x="46.9302" y="-747.3" font-family="Times,serif" font-size="14.00">created_at :datetime</text>
<text text-anchor="start" x="46.9302" y="-733.3" font-family="Times,serif" font-size="14.00">updated_at :datetime</text>
</g>
<!-- Door&#45;&gt;CarLikelihood -->
<g id="edge8" class="edge"><title>Door&#45;&gt;CarLikelihood</title>
<path fill="none" stroke="#44987a" d="M119.829,-718.323C119.829,-682.453 119.829,-633.821 119.829,-594.762"/>
<ellipse fill="none" stroke="#44987a" cx="119.829" cy="-722.421" rx="4" ry="4"/>
<polygon fill="#44987a" stroke="#44987a" points="119.829,-594.536 124.329,-584.536 119.829,-589.536 119.829,-584.536 119.829,-584.536 119.829,-584.536 119.829,-589.536 115.329,-584.536 119.829,-594.536 119.829,-594.536"/>
</g>
<!-- FamilyAcronym -->
<g id="node6" class="node"><title>FamilyAcronym</title>
<path fill="none" stroke="black" d="M381.385,-719.5C381.385,-719.5 522.272,-719.5 522.272,-719.5 528.272,-719.5 534.272,-725.5 534.272,-731.5 534.272,-731.5 534.272,-807.5 534.272,-807.5 534.272,-813.5 528.272,-819.5 522.272,-819.5 522.272,-819.5 381.385,-819.5 381.385,-819.5 375.385,-819.5 369.385,-813.5 369.385,-807.5 369.385,-807.5 369.385,-731.5 369.385,-731.5 369.385,-725.5 375.385,-719.5 381.385,-719.5"/>
<text text-anchor="middle" x="451.829" y="-804.3" font-family="Times,serif" font-size="14.00">FamilyAcronym</text>
<polyline fill="none" stroke="black" points="369.385,-797.5 534.272,-797.5 "/>
<text text-anchor="start" x="377.385" y="-782.3" font-family="Times,serif" font-size="14.00">id :integer</text>
<text text-anchor="start" x="377.385" y="-768.3" font-family="Times,serif" font-size="14.00">code :string</text>
<text text-anchor="start" x="377.385" y="-754.3" font-family="Times,serif" font-size="14.00">generic_family_id :integer</text>
<text text-anchor="start" x="377.385" y="-740.3" font-family="Times,serif" font-size="14.00">created_at :datetime</text>
<text text-anchor="start" x="377.385" y="-726.3" font-family="Times,serif" font-size="14.00">updated_at :datetime</text>
</g>
<!-- Generation&#45;&gt;GenericCarGeneration -->
<g id="edge9" class="edge"><title>Generation&#45;&gt;GenericCarGeneration</title>
<path fill="none" stroke="#d6aa5d" d="M155.869,-199.118C149.445,-172.053 141.489,-138.539 134.783,-110.288"/>
<ellipse fill="none" stroke="#d6aa5d" cx="156.822" cy="-203.132" rx="4.00001" ry="4.00001"/>
<polygon fill="#d6aa5d" stroke="#d6aa5d" points="134.778,-110.264 136.846,-99.4949 133.623,-105.399 132.468,-100.534 132.468,-100.534 132.468,-100.534 133.623,-105.399 128.09,-101.574 134.778,-110.264 134.778,-110.264"/>
</g>
<!-- GenericCarImage -->
<g id="node10" class="node"><title>GenericCarImage</title>
<path fill="none" stroke="black" d="M517.878,-179.5C517.878,-179.5 665.779,-179.5 665.779,-179.5 671.779,-179.5 677.779,-185.5 677.779,-191.5 677.779,-191.5 677.779,-309.5 677.779,-309.5 677.779,-315.5 671.779,-321.5 665.779,-321.5 665.779,-321.5 517.878,-321.5 517.878,-321.5 511.878,-321.5 505.878,-315.5 505.878,-309.5 505.878,-309.5 505.878,-191.5 505.878,-191.5 505.878,-185.5 511.878,-179.5 517.878,-179.5"/>
<text text-anchor="middle" x="591.829" y="-306.3" font-family="Times,serif" font-size="14.00">GenericCarImage</text>
<polyline fill="none" stroke="black" points="505.878,-299.5 677.779,-299.5 "/>
<text text-anchor="start" x="513.878" y="-284.3" font-family="Times,serif" font-size="14.00">id :integer</text>
<text text-anchor="start" x="513.878" y="-270.3" font-family="Times,serif" font-size="14.00">generic_car_id :integer</text>
<text text-anchor="start" x="513.878" y="-256.3" font-family="Times,serif" font-size="14.00">created_at :datetime</text>
<text text-anchor="start" x="513.878" y="-242.3" font-family="Times,serif" font-size="14.00">updated_at :datetime</text>
<text text-anchor="start" x="513.878" y="-228.3" font-family="Times,serif" font-size="14.00">photo_file_name :string</text>
<text text-anchor="start" x="513.878" y="-214.3" font-family="Times,serif" font-size="14.00">photo_content_type :string</text>
<text text-anchor="start" x="513.878" y="-200.3" font-family="Times,serif" font-size="14.00">photo_file_size :integer</text>
<text text-anchor="start" x="513.878" y="-186.3" font-family="Times,serif" font-size="14.00">photo_updated_at :datetime</text>
</g>
<!-- GenericCar&#45;&gt;GenericCarImage -->
<g id="edge12" class="edge"><title>GenericCar&#45;&gt;GenericCarImage</title>
<path fill="none" stroke="#963e73" d="M591.829,-434.24C591.829,-401.049 591.829,-363.899 591.829,-331.808"/>
<ellipse fill="none" stroke="#963e73" cx="591.829" cy="-438.497" rx="4" ry="4"/>
<polygon fill="#963e73" stroke="#963e73" points="591.829,-331.578 596.329,-321.578 591.829,-326.578 591.829,-321.578 591.829,-321.578 591.829,-321.578 591.829,-326.578 587.329,-321.578 591.829,-331.578 591.829,-331.578"/>
</g>
<!-- GenericFittable -->
<g id="node12" class="node"><title>GenericFittable</title>
<path fill="none" stroke="black" d="M842.889,-200.5C842.889,-200.5 976.769,-200.5 976.769,-200.5 982.769,-200.5 988.769,-206.5 988.769,-212.5 988.769,-212.5 988.769,-288.5 988.769,-288.5 988.769,-294.5 982.769,-300.5 976.769,-300.5 976.769,-300.5 842.889,-300.5 842.889,-300.5 836.889,-300.5 830.889,-294.5 830.889,-288.5 830.889,-288.5 830.889,-212.5 830.889,-212.5 830.889,-206.5 836.889,-200.5 842.889,-200.5"/>
<text text-anchor="middle" x="909.829" y="-285.3" font-family="Times,serif" font-size="14.00">GenericFittable</text>
<polyline fill="none" stroke="black" points="830.889,-278.5 988.769,-278.5 "/>
<text text-anchor="start" x="838.889" y="-263.3" font-family="Times,serif" font-size="14.00">id :integer</text>
<text text-anchor="start" x="838.889" y="-249.3" font-family="Times,serif" font-size="14.00">generic_car_id :integer</text>
<text text-anchor="start" x="838.889" y="-235.3" font-family="Times,serif" font-size="14.00">generic_spare_id :integer</text>
<text text-anchor="start" x="838.889" y="-221.3" font-family="Times,serif" font-size="14.00">created_at :datetime</text>
<text text-anchor="start" x="838.889" y="-207.3" font-family="Times,serif" font-size="14.00">updated_at :datetime</text>
</g>
<!-- GenericCar&#45;&gt;GenericFittable -->
<g id="edge11" class="edge"><title>GenericCar&#45;&gt;GenericFittable</title>
<path fill="none" stroke="#901ff2" d="M657.671,-436.12C668.486,-423.43 680.034,-410.987 691.829,-400 731.251,-363.28 780.478,-328.948 822.174,-302.564"/>
<ellipse fill="none" stroke="#901ff2" cx="654.996" cy="-439.302" rx="4.00002" ry="4.00002"/>
<polygon fill="#901ff2" stroke="#901ff2" points="822.209,-302.542 833.071,-301.038 826.444,-299.884 830.679,-297.226 830.679,-297.226 830.679,-297.226 826.444,-299.884 828.287,-293.415 822.209,-302.542 822.209,-302.542"/>
</g>
<!-- StockCar -->
<g id="node22" class="node"><title>StockCar</title>
<path fill="none" stroke="black" d="M1355.21,-137.5C1355.21,-137.5 1498.45,-137.5 1498.45,-137.5 1504.45,-137.5 1510.45,-143.5 1510.45,-149.5 1510.45,-149.5 1510.45,-351.5 1510.45,-351.5 1510.45,-357.5 1504.45,-363.5 1498.45,-363.5 1498.45,-363.5 1355.21,-363.5 1355.21,-363.5 1349.21,-363.5 1343.21,-357.5 1343.21,-351.5 1343.21,-351.5 1343.21,-149.5 1343.21,-149.5 1343.21,-143.5 1349.21,-137.5 1355.21,-137.5"/>
<text text-anchor="middle" x="1426.83" y="-348.3" font-family="Times,serif" font-size="14.00">StockCar</text>
<polyline fill="none" stroke="black" points="1343.21,-341.5 1510.45,-341.5 "/>
<text text-anchor="start" x="1351.21" y="-326.3" font-family="Times,serif" font-size="14.00">id :integer</text>
<text text-anchor="start" x="1351.21" y="-312.3" font-family="Times,serif" font-size="14.00">prevaluation_id :integer</text>
<text text-anchor="start" x="1351.21" y="-298.3" font-family="Times,serif" font-size="14.00">generic_car_id :integer</text>
<text text-anchor="start" x="1351.21" y="-284.3" font-family="Times,serif" font-size="14.00">warehouse_id :integer</text>
<text text-anchor="start" x="1351.21" y="-270.3" font-family="Times,serif" font-size="14.00">color :string</text>
<text text-anchor="start" x="1351.21" y="-256.3" font-family="Times,serif" font-size="14.00">door_number :integer</text>
<text text-anchor="start" x="1351.21" y="-242.3" font-family="Times,serif" font-size="14.00">serie :string</text>
<text text-anchor="start" x="1351.21" y="-228.3" font-family="Times,serif" font-size="14.00">motor :string</text>
<text text-anchor="start" x="1351.21" y="-214.3" font-family="Times,serif" font-size="14.00">license_plates :string</text>
<text text-anchor="start" x="1351.21" y="-200.3" font-family="Times,serif" font-size="14.00">inventory_description :text</text>
<text text-anchor="start" x="1351.21" y="-186.3" font-family="Times,serif" font-size="14.00">special_equipment :text</text>
<text text-anchor="start" x="1351.21" y="-172.3" font-family="Times,serif" font-size="14.00">economic_number :string</text>
<text text-anchor="start" x="1351.21" y="-158.3" font-family="Times,serif" font-size="14.00">created_at :datetime</text>
<text text-anchor="start" x="1351.21" y="-144.3" font-family="Times,serif" font-size="14.00">updated_at :datetime</text>
</g>
<!-- GenericCar&#45;&gt;StockCar -->
<g id="edge10" class="edge"><title>GenericCar&#45;&gt;StockCar</title>
<path fill="none" stroke="#cd866e" d="M647.182,-436.109C660.041,-421.739 674.981,-408.749 691.829,-400 818.642,-334.15 1206.3,-428.46 1333.83,-364 1334.03,-363.9 1334.22,-363.799 1334.42,-363.698"/>
<ellipse fill="none" stroke="#cd866e" cx="644.413" cy="-439.316" rx="4.00002" ry="4.00002"/>
<polygon fill="#cd866e" stroke="#cd866e" points="1334.43,-363.691 1345.35,-362.646 1338.78,-361.214 1343.12,-358.737 1343.12,-358.737 1343.12,-358.737 1338.78,-361.214 1340.89,-354.828 1334.43,-363.691 1334.43,-363.691"/>
</g>
<!-- GenericCar&#45;&gt;TypeLikelihood -->
<g id="edge13" class="edge"><title>GenericCar&#45;&gt;TypeLikelihood</title>
<path fill="none" stroke="#295951" d="M524.649,-435.939C483.266,-380.153 433.192,-312.652 406.584,-276.783"/>
<ellipse fill="none" stroke="#295951" cx="527.13" cy="-439.284" rx="4.00002" ry="4.00002"/>
<polygon fill="#295951" stroke="#295951" points="406.303,-276.404 403.959,-265.691 403.324,-272.388 400.345,-268.372 400.345,-268.372 400.345,-268.372 403.324,-272.388 396.731,-271.053 406.303,-276.404 406.303,-276.404"/>
</g>
<!-- GenericFamily -->
<g id="node11" class="node"><title>GenericFamily</title>
<path fill="none" stroke="black" d="M622.889,-912.5C622.889,-912.5 756.769,-912.5 756.769,-912.5 762.769,-912.5 768.769,-918.5 768.769,-924.5 768.769,-924.5 768.769,-1000.5 768.769,-1000.5 768.769,-1006.5 762.769,-1012.5 756.769,-1012.5 756.769,-1012.5 622.889,-1012.5 622.889,-1012.5 616.889,-1012.5 610.889,-1006.5 610.889,-1000.5 610.889,-1000.5 610.889,-924.5 610.889,-924.5 610.889,-918.5 616.889,-912.5 622.889,-912.5"/>
<text text-anchor="middle" x="689.829" y="-997.3" font-family="Times,serif" font-size="14.00">GenericFamily</text>
<polyline fill="none" stroke="black" points="610.889,-990.5 768.769,-990.5 "/>
<text text-anchor="start" x="618.889" y="-975.3" font-family="Times,serif" font-size="14.00">id :integer</text>
<text text-anchor="start" x="618.889" y="-961.3" font-family="Times,serif" font-size="14.00">generic_spare_id :integer</text>
<text text-anchor="start" x="618.889" y="-947.3" font-family="Times,serif" font-size="14.00">description :text</text>
<text text-anchor="start" x="618.889" y="-933.3" font-family="Times,serif" font-size="14.00">created_at :datetime</text>
<text text-anchor="start" x="618.889" y="-919.3" font-family="Times,serif" font-size="14.00">updated_at :datetime</text>
</g>
<!-- GenericFamily&#45;&gt;CarLikelihood -->
<g id="edge14" class="edge"><title>GenericFamily&#45;&gt;CarLikelihood</title>
<path fill="none" stroke="#9e76bf" d="M639.244,-907.189C627.855,-897.921 615.16,-889.518 601.829,-884 542.989,-859.645 73.421,-894.422 29.8287,-848 -35.7509,-778.163 21.795,-664.295 70.2099,-593.033"/>
<ellipse fill="none" stroke="#9e76bf" cx="642.376" cy="-909.833" rx="4.00002" ry="4.00002"/>
<polygon fill="#9e76bf" stroke="#9e76bf" points="70.3785,-592.788 79.7632,-587.116 73.2193,-588.674 76.0601,-584.559 76.0601,-584.559 76.0601,-584.559 73.2193,-588.674 72.3569,-582.002 70.3785,-592.788 70.3785,-592.788"/>
</g>
<!-- GenericFamily&#45;&gt;FamilyAcronym -->
<g id="edge18" class="edge"><title>GenericFamily&#45;&gt;FamilyAcronym</title>
<path fill="none" stroke="#f5c176" d="M630.858,-907.2C621.365,-899.155 611.482,-891.169 601.829,-884 577.471,-865.911 568.384,-865.82 543.829,-848 534.453,-841.196 524.821,-833.702 515.484,-826.137"/>
<ellipse fill="none" stroke="#f5c176" cx="633.995" cy="-909.885" rx="4.00002" ry="4.00002"/>
<polygon fill="#f5c176" stroke="#f5c176" points="515.459,-826.116 510.575,-816.297 511.591,-822.947 507.723,-819.778 507.723,-819.778 507.723,-819.778 511.591,-822.947 504.871,-823.26 515.459,-826.116 515.459,-826.116"/>
</g>
<!-- GenericFamily&#45;&gt;GenericCar -->
<g id="edge15" class="edge"><title>GenericFamily&#45;&gt;GenericCar</title>
<path fill="none" stroke="#433c75" d="M713.999,-902.861C733.443,-846.63 753.377,-760.291 725.829,-691 717.698,-670.549 706.222,-671.649 691.829,-655 682.382,-644.074 672.682,-632.413 663.213,-620.759"/>
<polygon fill="#433c75" stroke="#433c75" points="713.99,-902.887 706.399,-910.8 712.314,-907.598 710.638,-912.308 710.638,-912.308 710.638,-912.308 712.314,-907.598 714.878,-913.817 713.99,-902.887 713.99,-902.887"/>
<polygon fill="#433c75" stroke="#433c75" points="662.986,-620.478 660.201,-609.872 659.844,-616.589 656.701,-612.7 656.701,-612.7 656.701,-612.7 659.844,-616.589 653.201,-615.528 662.986,-620.478 662.986,-620.478"/>
</g>
<!-- GenericSpare -->
<g id="node13" class="node"><title>GenericSpare</title>
<path fill="none" stroke="black" d="M989.537,-691.5C989.537,-691.5 1100.12,-691.5 1100.12,-691.5 1106.12,-691.5 1112.12,-697.5 1112.12,-703.5 1112.12,-703.5 1112.12,-835.5 1112.12,-835.5 1112.12,-841.5 1106.12,-847.5 1100.12,-847.5 1100.12,-847.5 989.537,-847.5 989.537,-847.5 983.537,-847.5 977.537,-841.5 977.537,-835.5 977.537,-835.5 977.537,-703.5 977.537,-703.5 977.537,-697.5 983.537,-691.5 989.537,-691.5"/>
<text text-anchor="middle" x="1044.83" y="-832.3" font-family="Times,serif" font-size="14.00">GenericSpare</text>
<polyline fill="none" stroke="black" points="977.537,-825.5 1112.12,-825.5 "/>
<text text-anchor="start" x="985.537" y="-810.3" font-family="Times,serif" font-size="14.00">id :integer</text>
<text text-anchor="start" x="985.537" y="-796.3" font-family="Times,serif" font-size="14.00">brand :string</text>
<text text-anchor="start" x="985.537" y="-782.3" font-family="Times,serif" font-size="14.00">type_of_spare :string</text>
<text text-anchor="start" x="985.537" y="-768.3" font-family="Times,serif" font-size="14.00">name :string</text>
<text text-anchor="start" x="985.537" y="-754.3" font-family="Times,serif" font-size="14.00">region :string</text>
<text text-anchor="start" x="985.537" y="-740.3" font-family="Times,serif" font-size="14.00">description :text</text>
<text text-anchor="start" x="985.537" y="-726.3" font-family="Times,serif" font-size="14.00">code :string</text>
<text text-anchor="start" x="985.537" y="-712.3" font-family="Times,serif" font-size="14.00">created_at :datetime</text>
<text text-anchor="start" x="985.537" y="-698.3" font-family="Times,serif" font-size="14.00">updated_at :datetime</text>
</g>
<!-- GenericFamily&#45;&gt;GenericSpare -->
<g id="edge17" class="edge"><title>GenericFamily&#45;&gt;GenericSpare</title>
<path fill="none" stroke="#f5ad70" d="M778.45,-929.464C829.871,-909.233 894.918,-880.764 948.829,-848 955.586,-843.893 962.39,-839.36 969.088,-834.608"/>
<polygon fill="#f5ad70" stroke="#f5ad70" points="778.33,-929.511 767.378,-928.953 773.672,-931.328 769.013,-933.145 769.013,-933.145 769.013,-933.145 773.672,-931.328 770.649,-937.338 778.33,-929.511 778.33,-929.511"/>
<polygon fill="#f5ad70" stroke="#f5ad70" points="969.416,-834.369 980.15,-832.126 973.459,-831.428 977.503,-828.487 977.503,-828.487 977.503,-828.487 973.459,-831.428 974.856,-824.848 969.416,-834.369 969.416,-834.369"/>
</g>
<!-- SpareLikelihood -->
<g id="node21" class="node"><title>SpareLikelihood</title>
<path fill="none" stroke="black" d="M864.385,-477.5C864.385,-477.5 1005.27,-477.5 1005.27,-477.5 1011.27,-477.5 1017.27,-483.5 1017.27,-489.5 1017.27,-489.5 1017.27,-565.5 1017.27,-565.5 1017.27,-571.5 1011.27,-577.5 1005.27,-577.5 1005.27,-577.5 864.385,-577.5 864.385,-577.5 858.385,-577.5 852.385,-571.5 852.385,-565.5 852.385,-565.5 852.385,-489.5 852.385,-489.5 852.385,-483.5 858.385,-477.5 864.385,-477.5"/>
<text text-anchor="middle" x="934.829" y="-562.3" font-family="Times,serif" font-size="14.00">SpareLikelihood</text>
<polyline fill="none" stroke="black" points="852.385,-555.5 1017.27,-555.5 "/>
<text text-anchor="start" x="860.385" y="-540.3" font-family="Times,serif" font-size="14.00">id :integer</text>
<text text-anchor="start" x="860.385" y="-526.3" font-family="Times,serif" font-size="14.00">generic_spare_id :integer</text>
<text text-anchor="start" x="860.385" y="-512.3" font-family="Times,serif" font-size="14.00">generic_family_id :integer</text>
<text text-anchor="start" x="860.385" y="-498.3" font-family="Times,serif" font-size="14.00">created_at :datetime</text>
<text text-anchor="start" x="860.385" y="-484.3" font-family="Times,serif" font-size="14.00">updated_at :datetime</text>
</g>
<!-- GenericFamily&#45;&gt;SpareLikelihood -->
<g id="edge16" class="edge"><title>GenericFamily&#45;&gt;SpareLikelihood</title>
<path fill="none" stroke="#43db1d" d="M776.777,-940.92C826.185,-924.419 884.31,-895.859 915.829,-848 967.284,-769.871 959.278,-656.321 947.765,-587.73"/>
<ellipse fill="none" stroke="#43db1d" cx="772.732" cy="-942.232" rx="4.00001" ry="4.00001"/>
<polygon fill="#43db1d" stroke="#43db1d" points="947.704,-587.382 950.404,-576.754 946.838,-582.457 945.972,-577.533 945.972,-577.533 945.972,-577.533 946.838,-582.457 941.54,-578.312 947.704,-587.382 947.704,-587.382"/>
</g>
<!-- StockFamily -->
<g id="node24" class="node"><title>StockFamily</title>
<path fill="none" stroke="black" d="M564.385,-726.5C564.385,-726.5 705.272,-726.5 705.272,-726.5 711.272,-726.5 717.272,-732.5 717.272,-738.5 717.272,-738.5 717.272,-800.5 717.272,-800.5 717.272,-806.5 711.272,-812.5 705.272,-812.5 705.272,-812.5 564.385,-812.5 564.385,-812.5 558.385,-812.5 552.385,-806.5 552.385,-800.5 552.385,-800.5 552.385,-738.5 552.385,-738.5 552.385,-732.5 558.385,-726.5 564.385,-726.5"/>
<text text-anchor="middle" x="634.829" y="-797.3" font-family="Times,serif" font-size="14.00">StockFamily</text>
<polyline fill="none" stroke="black" points="552.385,-790.5 717.272,-790.5 "/>
<text text-anchor="start" x="560.385" y="-775.3" font-family="Times,serif" font-size="14.00">id :integer</text>
<text text-anchor="start" x="560.385" y="-761.3" font-family="Times,serif" font-size="14.00">generic_family_id :integer</text>
<text text-anchor="start" x="560.385" y="-747.3" font-family="Times,serif" font-size="14.00">created_at :datetime</text>
<text text-anchor="start" x="560.385" y="-733.3" font-family="Times,serif" font-size="14.00">updated_at :datetime</text>
</g>
<!-- GenericFamily&#45;&gt;StockFamily -->
<g id="edge19" class="edge"><title>GenericFamily&#45;&gt;StockFamily</title>
<path fill="none" stroke="#dee377" d="M673.433,-904.562C665.94,-878.541 657.125,-847.93 649.812,-822.532"/>
<ellipse fill="none" stroke="#dee377" cx="674.558" cy="-908.469" rx="4.00001" ry="4.00001"/>
<polygon fill="#dee377" stroke="#dee377" points="649.753,-822.326 651.31,-811.472 648.369,-817.522 646.985,-812.717 646.985,-812.717 646.985,-812.717 648.369,-817.522 642.661,-813.962 649.753,-822.326 649.753,-822.326"/>
</g>
<!-- GenericSpare&#45;&gt;GenericCar -->
<g id="edge21" class="edge"><title>GenericSpare&#45;&gt;GenericCar</title>
<path fill="none" stroke="#f8bef4" d="M968.646,-716.266C951.836,-706.608 933.697,-697.526 915.829,-691 821.115,-656.408 778.797,-706.027 691.829,-655 676.447,-645.975 662.528,-633.609 650.297,-620.122"/>
<polygon fill="#f8bef4" stroke="#f8bef4" points="968.687,-716.29 975.027,-725.237 972.997,-718.824 977.308,-721.358 977.308,-721.358 977.308,-721.358 972.997,-718.824 979.588,-717.478 968.687,-716.29 968.687,-716.29"/>
<polygon fill="#f8bef4" stroke="#f8bef4" points="650.249,-620.067 647.069,-609.572 646.963,-616.298 643.677,-612.529 643.677,-612.529 643.677,-612.529 646.963,-616.298 640.285,-615.486 650.249,-620.067 650.249,-620.067"/>
</g>
<!-- GenericSpare&#45;&gt;GenericFittable -->
<g id="edge20" class="edge"><title>GenericSpare&#45;&gt;GenericFittable</title>
<path fill="none" stroke="#9cf2a8" d="M1054.66,-683.112C1060.2,-606.482 1060.26,-492.213 1025.83,-400 1013.23,-366.253 990.008,-334.064 967.634,-308.336"/>
<ellipse fill="none" stroke="#9cf2a8" cx="1054.33" cy="-687.348" rx="4" ry="4"/>
<polygon fill="#9cf2a8" stroke="#9cf2a8" points="967.371,-308.04 964.094,-297.576 964.051,-304.302 960.73,-300.564 960.73,-300.564 960.73,-300.564 964.051,-304.302 957.366,-303.553 967.371,-308.04 967.371,-308.04"/>
</g>
<!-- GenericSpareImage -->
<g id="node14" class="node"><title>GenericSpareImage</title>
<path fill="none" stroke="black" d="M1084.38,-484.5C1084.38,-484.5 1211.28,-484.5 1211.28,-484.5 1217.28,-484.5 1223.28,-490.5 1223.28,-496.5 1223.28,-496.5 1223.28,-558.5 1223.28,-558.5 1223.28,-564.5 1217.28,-570.5 1211.28,-570.5 1211.28,-570.5 1084.38,-570.5 1084.38,-570.5 1078.38,-570.5 1072.38,-564.5 1072.38,-558.5 1072.38,-558.5 1072.38,-496.5 1072.38,-496.5 1072.38,-490.5 1078.38,-484.5 1084.38,-484.5"/>
<text text-anchor="middle" x="1147.83" y="-555.3" font-family="Times,serif" font-size="14.00">GenericSpareImage</text>
<polyline fill="none" stroke="black" points="1072.38,-548.5 1223.28,-548.5 "/>
<text text-anchor="start" x="1080.38" y="-533.3" font-family="Times,serif" font-size="14.00">id :integer</text>
<text text-anchor="start" x="1080.38" y="-519.3" font-family="Times,serif" font-size="14.00">generic_spare_id :string</text>
<text text-anchor="start" x="1080.38" y="-505.3" font-family="Times,serif" font-size="14.00">created_at :datetime</text>
<text text-anchor="start" x="1080.38" y="-491.3" font-family="Times,serif" font-size="14.00">updated_at :datetime</text>
</g>
<!-- GenericSpare&#45;&gt;GenericSpareImage -->
<g id="edge24" class="edge"><title>GenericSpare&#45;&gt;GenericSpareImage</title>
<path fill="none" stroke="#f9ecda" d="M1081.24,-683.659C1096.07,-649.109 1112.73,-610.295 1125.67,-580.13"/>
<ellipse fill="none" stroke="#f9ecda" cx="1079.56" cy="-687.566" rx="4.00002" ry="4.00002"/>
<polygon fill="#f9ecda" stroke="#f9ecda" points="1125.79,-579.846 1133.87,-572.432 1127.76,-575.252 1129.74,-570.657 1129.74,-570.657 1129.74,-570.657 1127.76,-575.252 1125.6,-568.882 1125.79,-579.846 1125.79,-579.846"/>
</g>
<!-- GenericSpare&#45;&gt;SpareLikelihood -->
<g id="edge22" class="edge"><title>GenericSpare&#45;&gt;SpareLikelihood</title>
<path fill="none" stroke="#339c9c" d="M1005.98,-683.737C991.293,-651.694 974.921,-615.973 961.587,-586.882"/>
<ellipse fill="none" stroke="#339c9c" cx="1007.75" cy="-687.605" rx="4.00002" ry="4.00002"/>
<polygon fill="#339c9c" stroke="#339c9c" points="961.537,-586.774 961.462,-575.808 959.454,-582.228 957.371,-577.683 957.371,-577.683 957.371,-577.683 959.454,-582.228 953.28,-579.558 961.537,-586.774 961.537,-586.774"/>
</g>
<!-- StockSpare -->
<g id="node25" class="node"><title>StockSpare</title>
<path fill="none" stroke="black" d="M1252.89,-435.5C1252.89,-435.5 1386.77,-435.5 1386.77,-435.5 1392.77,-435.5 1398.77,-441.5 1398.77,-447.5 1398.77,-447.5 1398.77,-607.5 1398.77,-607.5 1398.77,-613.5 1392.77,-619.5 1386.77,-619.5 1386.77,-619.5 1252.89,-619.5 1252.89,-619.5 1246.89,-619.5 1240.89,-613.5 1240.89,-607.5 1240.89,-607.5 1240.89,-447.5 1240.89,-447.5 1240.89,-441.5 1246.89,-435.5 1252.89,-435.5"/>
<text text-anchor="middle" x="1319.83" y="-604.3" font-family="Times,serif" font-size="14.00">StockSpare</text>
<polyline fill="none" stroke="black" points="1240.89,-597.5 1398.77,-597.5 "/>
<text text-anchor="start" x="1248.89" y="-582.3" font-family="Times,serif" font-size="14.00">id :integer</text>
<text text-anchor="start" x="1248.89" y="-568.3" font-family="Times,serif" font-size="14.00">car_id :integer</text>
<text text-anchor="start" x="1248.89" y="-554.3" font-family="Times,serif" font-size="14.00">warehouse_id :integer</text>
<text text-anchor="start" x="1248.89" y="-540.3" font-family="Times,serif" font-size="14.00">generic_spare_id :integer</text>
<text text-anchor="start" x="1248.89" y="-526.3" font-family="Times,serif" font-size="14.00">status :string</text>
<text text-anchor="start" x="1248.89" y="-512.3" font-family="Times,serif" font-size="14.00">description :text</text>
<text text-anchor="start" x="1248.89" y="-498.3" font-family="Times,serif" font-size="14.00">code :string</text>
<text text-anchor="start" x="1248.89" y="-484.3" font-family="Times,serif" font-size="14.00">color :string</text>
<text text-anchor="start" x="1248.89" y="-470.3" font-family="Times,serif" font-size="14.00">created_at :datetime</text>
<text text-anchor="start" x="1248.89" y="-456.3" font-family="Times,serif" font-size="14.00">updated_at :datetime</text>
<text text-anchor="start" x="1248.89" y="-442.3" font-family="Times,serif" font-size="14.00">stock_family_id :integer</text>
</g>
<!-- GenericSpare&#45;&gt;StockSpare -->
<g id="edge23" class="edge"><title>GenericSpare&#45;&gt;StockSpare</title>
<path fill="none" stroke="#2a7741" d="M1119.39,-732.626C1155.79,-712.885 1198.75,-686.084 1231.83,-655 1240.67,-646.688 1249.15,-637.35 1257.11,-627.608"/>
<ellipse fill="none" stroke="#2a7741" cx="1115.73" cy="-734.589" rx="4.00002" ry="4.00002"/>
<polygon fill="#2a7741" stroke="#2a7741" points="1257.15,-627.551 1266.9,-622.522 1260.26,-623.637 1263.37,-619.722 1263.37,-619.722 1263.37,-619.722 1260.26,-623.637 1259.85,-616.922 1257.15,-627.551 1257.15,-627.551"/>
</g>
<!-- Insured -->
<g id="node15" class="node"><title>Insured</title>
<path fill="none" stroke="black" d="M1852.77,-179.5C1852.77,-179.5 1978.89,-179.5 1978.89,-179.5 1984.89,-179.5 1990.89,-185.5 1990.89,-191.5 1990.89,-191.5 1990.89,-309.5 1990.89,-309.5 1990.89,-315.5 1984.89,-321.5 1978.89,-321.5 1978.89,-321.5 1852.77,-321.5 1852.77,-321.5 1846.77,-321.5 1840.77,-315.5 1840.77,-309.5 1840.77,-309.5 1840.77,-191.5 1840.77,-191.5 1840.77,-185.5 1846.77,-179.5 1852.77,-179.5"/>
<text text-anchor="middle" x="1915.83" y="-306.3" font-family="Times,serif" font-size="14.00">Insured</text>
<polyline fill="none" stroke="black" points="1840.77,-299.5 1990.89,-299.5 "/>
<text text-anchor="start" x="1848.77" y="-284.3" font-family="Times,serif" font-size="14.00">id :integer</text>
<text text-anchor="start" x="1848.77" y="-270.3" font-family="Times,serif" font-size="14.00">prevaluation_id :integer</text>
<text text-anchor="start" x="1848.77" y="-256.3" font-family="Times,serif" font-size="14.00">third :boolean</text>
<text text-anchor="start" x="1848.77" y="-242.3" font-family="Times,serif" font-size="14.00">name :string</text>
<text text-anchor="start" x="1848.77" y="-228.3" font-family="Times,serif" font-size="14.00">telephone :integer</text>
<text text-anchor="start" x="1848.77" y="-214.3" font-family="Times,serif" font-size="14.00">email :string</text>
<text text-anchor="start" x="1848.77" y="-200.3" font-family="Times,serif" font-size="14.00">created_at :datetime</text>
<text text-anchor="start" x="1848.77" y="-186.3" font-family="Times,serif" font-size="14.00">updated_at :datetime</text>
</g>
<!-- MoldComponent -->
<g id="node17" class="node"><title>MoldComponent</title>
<path fill="none" stroke="black" d="M1416.1,-719.5C1416.1,-719.5 1537.56,-719.5 1537.56,-719.5 1543.56,-719.5 1549.56,-725.5 1549.56,-731.5 1549.56,-731.5 1549.56,-807.5 1549.56,-807.5 1549.56,-813.5 1543.56,-819.5 1537.56,-819.5 1537.56,-819.5 1416.1,-819.5 1416.1,-819.5 1410.1,-819.5 1404.1,-813.5 1404.1,-807.5 1404.1,-807.5 1404.1,-731.5 1404.1,-731.5 1404.1,-725.5 1410.1,-719.5 1416.1,-719.5"/>
<text text-anchor="middle" x="1476.83" y="-804.3" font-family="Times,serif" font-size="14.00">MoldComponent</text>
<polyline fill="none" stroke="black" points="1404.1,-797.5 1549.56,-797.5 "/>
<text text-anchor="start" x="1412.1" y="-782.3" font-family="Times,serif" font-size="14.00">id :integer</text>
<text text-anchor="start" x="1412.1" y="-768.3" font-family="Times,serif" font-size="14.00">name :string</text>
<text text-anchor="start" x="1412.1" y="-754.3" font-family="Times,serif" font-size="14.00">mold_spare_id :integer</text>
<text text-anchor="start" x="1412.1" y="-740.3" font-family="Times,serif" font-size="14.00">created_at :datetime</text>
<text text-anchor="start" x="1412.1" y="-726.3" font-family="Times,serif" font-size="14.00">updated_at :datetime</text>
</g>
<!-- MoldSpare -->
<g id="node18" class="node"><title>MoldSpare</title>
<path fill="none" stroke="black" d="M1206.32,-898.5C1206.32,-898.5 1315.33,-898.5 1315.33,-898.5 1321.33,-898.5 1327.33,-904.5 1327.33,-910.5 1327.33,-910.5 1327.33,-1014.5 1327.33,-1014.5 1327.33,-1020.5 1321.33,-1026.5 1315.33,-1026.5 1315.33,-1026.5 1206.32,-1026.5 1206.32,-1026.5 1200.32,-1026.5 1194.32,-1020.5 1194.32,-1014.5 1194.32,-1014.5 1194.32,-910.5 1194.32,-910.5 1194.32,-904.5 1200.32,-898.5 1206.32,-898.5"/>
<text text-anchor="middle" x="1260.83" y="-1011.3" font-family="Times,serif" font-size="14.00">MoldSpare</text>
<polyline fill="none" stroke="black" points="1194.32,-1004.5 1327.33,-1004.5 "/>
<text text-anchor="start" x="1202.32" y="-989.3" font-family="Times,serif" font-size="14.00">id :integer</text>
<text text-anchor="start" x="1202.32" y="-975.3" font-family="Times,serif" font-size="14.00">name :string</text>
<text text-anchor="start" x="1202.32" y="-961.3" font-family="Times,serif" font-size="14.00">comment :string</text>
<text text-anchor="start" x="1202.32" y="-947.3" font-family="Times,serif" font-size="14.00">mold_type :string</text>
<text text-anchor="start" x="1202.32" y="-933.3" font-family="Times,serif" font-size="14.00">code :string</text>
<text text-anchor="start" x="1202.32" y="-919.3" font-family="Times,serif" font-size="14.00">created_at :datetime</text>
<text text-anchor="start" x="1202.32" y="-905.3" font-family="Times,serif" font-size="14.00">updated_at :datetime</text>
</g>
<!-- MoldSpare&#45;&gt;GenericSpare -->
<g id="edge25" class="edge"><title>MoldSpare&#45;&gt;GenericSpare</title>
<path fill="none" stroke="#2bf2d6" d="M1188.09,-897.182C1166.18,-877.802 1142.08,-856.498 1120.01,-836.981"/>
<ellipse fill="none" stroke="#2bf2d6" cx="1191.26" cy="-899.985" rx="4.00002" ry="4.00002"/>
<polygon fill="#2bf2d6" stroke="#2bf2d6" points="1119.79,-836.782 1115.28,-826.787 1116.04,-833.47 1112.3,-830.158 1112.3,-830.158 1112.3,-830.158 1116.04,-833.47 1109.31,-833.529 1119.79,-836.782 1119.79,-836.782"/>
</g>
<!-- MoldSpare&#45;&gt;MoldComponent -->
<g id="edge26" class="edge"><title>MoldSpare&#45;&gt;MoldComponent</title>
<path fill="none" stroke="#5ee13f" d="M1326.07,-892.981C1329.64,-889.866 1333.24,-886.854 1336.83,-884 1360.88,-864.888 1371.48,-866.727 1395.83,-848 1404.33,-841.459 1412.93,-834.142 1421.19,-826.686"/>
<ellipse fill="none" stroke="#5ee13f" cx="1323.09" cy="-895.645" rx="4.00002" ry="4.00002"/>
<polygon fill="#5ee13f" stroke="#5ee13f" points="1421.3,-826.584 1431.71,-823.131 1424.98,-823.201 1428.66,-819.818 1428.66,-819.818 1428.66,-819.818 1424.98,-823.201 1425.62,-816.504 1421.3,-826.584 1421.3,-826.584"/>
</g>
<!-- Prevaluation -->
<g id="node19" class="node"><title>Prevaluation</title>
<path fill="none" stroke="black" d="M1608.93,-400.5C1608.93,-400.5 1746.73,-400.5 1746.73,-400.5 1752.73,-400.5 1758.73,-406.5 1758.73,-412.5 1758.73,-412.5 1758.73,-642.5 1758.73,-642.5 1758.73,-648.5 1752.73,-654.5 1746.73,-654.5 1746.73,-654.5 1608.93,-654.5 1608.93,-654.5 1602.93,-654.5 1596.93,-648.5 1596.93,-642.5 1596.93,-642.5 1596.93,-412.5 1596.93,-412.5 1596.93,-406.5 1602.93,-400.5 1608.93,-400.5"/>
<text text-anchor="middle" x="1677.83" y="-639.3" font-family="Times,serif" font-size="14.00">Prevaluation</text>
<polyline fill="none" stroke="black" points="1596.93,-632.5 1758.73,-632.5 "/>
<text text-anchor="start" x="1604.93" y="-617.3" font-family="Times,serif" font-size="14.00">id :integer</text>
<text text-anchor="start" x="1604.93" y="-603.3" font-family="Times,serif" font-size="14.00">number :string</text>
<text text-anchor="start" x="1604.93" y="-589.3" font-family="Times,serif" font-size="14.00">policy :string</text>
<text text-anchor="start" x="1604.93" y="-575.3" font-family="Times,serif" font-size="14.00">subsection :string</text>
<text text-anchor="start" x="1604.93" y="-561.3" font-family="Times,serif" font-size="14.00">expedition_date :date</text>
<text text-anchor="start" x="1604.93" y="-547.3" font-family="Times,serif" font-size="14.00">valuation_date :date</text>
<text text-anchor="start" x="1604.93" y="-533.3" font-family="Times,serif" font-size="14.00">deductible_value :float</text>
<text text-anchor="start" x="1604.93" y="-519.3" font-family="Times,serif" font-size="14.00">commercial_value :float</text>
<text text-anchor="start" x="1604.93" y="-505.3" font-family="Times,serif" font-size="14.00">requires_crane :boolean</text>
<text text-anchor="start" x="1604.93" y="-491.3" font-family="Times,serif" font-size="14.00">collection_status :boolean</text>
<text text-anchor="start" x="1604.93" y="-477.3" font-family="Times,serif" font-size="14.00">special_conditions :string</text>
<text text-anchor="start" x="1604.93" y="-463.3" font-family="Times,serif" font-size="14.00">third_insured :boolean</text>
<text text-anchor="start" x="1604.93" y="-449.3" font-family="Times,serif" font-size="14.00">agent_name :string</text>
<text text-anchor="start" x="1604.93" y="-435.3" font-family="Times,serif" font-size="14.00">comment :text</text>
<text text-anchor="start" x="1604.93" y="-421.3" font-family="Times,serif" font-size="14.00">created_at :datetime</text>
<text text-anchor="start" x="1604.93" y="-407.3" font-family="Times,serif" font-size="14.00">updated_at :datetime</text>
</g>
<!-- Prevaluation&#45;&gt;Insured -->
<g id="edge28" class="edge"><title>Prevaluation&#45;&gt;Insured</title>
<path fill="none" stroke="#90adf0" d="M1764.57,-438.732C1787.05,-414.984 1810.82,-388.94 1831.83,-364 1841.01,-353.093 1850.39,-341.297 1859.38,-329.586"/>
<ellipse fill="none" stroke="#90adf0" cx="1761.64" cy="-441.817" rx="4.00002" ry="4.00002"/>
<polygon fill="#90adf0" stroke="#90adf0" points="1859.48,-329.458 1869.12,-324.233 1862.51,-325.481 1865.55,-321.505 1865.55,-321.505 1865.55,-321.505 1862.51,-325.481 1861.97,-318.777 1859.48,-329.458 1859.48,-329.458"/>
</g>
<!-- PrevaluationImage -->
<g id="node20" class="node"><title>PrevaluationImage</title>
<path fill="none" stroke="black" d="M1540.26,-207.5C1540.26,-207.5 1659.4,-207.5 1659.4,-207.5 1665.4,-207.5 1671.4,-213.5 1671.4,-219.5 1671.4,-219.5 1671.4,-281.5 1671.4,-281.5 1671.4,-287.5 1665.4,-293.5 1659.4,-293.5 1659.4,-293.5 1540.26,-293.5 1540.26,-293.5 1534.26,-293.5 1528.26,-287.5 1528.26,-281.5 1528.26,-281.5 1528.26,-219.5 1528.26,-219.5 1528.26,-213.5 1534.26,-207.5 1540.26,-207.5"/>
<text text-anchor="middle" x="1599.83" y="-278.3" font-family="Times,serif" font-size="14.00">PrevaluationImage</text>
<polyline fill="none" stroke="black" points="1528.26,-271.5 1671.4,-271.5 "/>
<text text-anchor="start" x="1536.26" y="-256.3" font-family="Times,serif" font-size="14.00">id :integer</text>
<text text-anchor="start" x="1536.26" y="-242.3" font-family="Times,serif" font-size="14.00">prevaluation_id :string</text>
<text text-anchor="start" x="1536.26" y="-228.3" font-family="Times,serif" font-size="14.00">created_at :datetime</text>
<text text-anchor="start" x="1536.26" y="-214.3" font-family="Times,serif" font-size="14.00">updated_at :datetime</text>
</g>
<!-- Prevaluation&#45;&gt;PrevaluationImage -->
<g id="edge30" class="edge"><title>Prevaluation&#45;&gt;PrevaluationImage</title>
<path fill="none" stroke="#97d7e5" d="M1639.72,-392.154C1630.76,-360.545 1621.73,-328.715 1614.53,-303.348"/>
<ellipse fill="none" stroke="#97d7e5" cx="1640.93" cy="-396.42" rx="4.00001" ry="4.00001"/>
<polygon fill="#97d7e5" stroke="#97d7e5" points="1614.5,-303.224 1616.1,-292.375 1613.14,-298.414 1611.77,-293.603 1611.77,-293.603 1611.77,-293.603 1613.14,-298.414 1607.44,-294.831 1614.5,-303.224 1614.5,-303.224"/>
</g>
<!-- Prevaluation&#45;&gt;StockCar -->
<g id="edge27" class="edge"><title>Prevaluation&#45;&gt;StockCar</title>
<path fill="none" stroke="#cd57a5" d="M1591.01,-440.631C1567.17,-416.28 1541.61,-389.459 1518.83,-364 1518.41,-363.53 1517.99,-363.058 1517.57,-362.585"/>
<ellipse fill="none" stroke="#cd57a5" cx="1593.91" cy="-443.584" rx="4.00002" ry="4.00002"/>
<polygon fill="#cd57a5" stroke="#cd57a5" points="1517.31,-362.302 1514.07,-351.827 1514.01,-358.553 1510.7,-354.805 1510.7,-354.805 1510.7,-354.805 1514.01,-358.553 1507.32,-357.783 1517.31,-362.302 1517.31,-362.302"/>
</g>
<!-- Valuation -->
<g id="node28" class="node"><title>Valuation</title>
<path fill="none" stroke="black" d="M1701.32,-200.5C1701.32,-200.5 1810.33,-200.5 1810.33,-200.5 1816.33,-200.5 1822.33,-206.5 1822.33,-212.5 1822.33,-212.5 1822.33,-288.5 1822.33,-288.5 1822.33,-294.5 1816.33,-300.5 1810.33,-300.5 1810.33,-300.5 1701.32,-300.5 1701.32,-300.5 1695.32,-300.5 1689.32,-294.5 1689.32,-288.5 1689.32,-288.5 1689.32,-212.5 1689.32,-212.5 1689.32,-206.5 1695.32,-200.5 1701.32,-200.5"/>
<text text-anchor="middle" x="1755.83" y="-285.3" font-family="Times,serif" font-size="14.00">Valuation</text>
<polyline fill="none" stroke="black" points="1689.32,-278.5 1822.33,-278.5 "/>
<text text-anchor="start" x="1697.32" y="-263.3" font-family="Times,serif" font-size="14.00">id :integer</text>
<text text-anchor="start" x="1697.32" y="-249.3" font-family="Times,serif" font-size="14.00">client_code :string</text>
<text text-anchor="start" x="1697.32" y="-235.3" font-family="Times,serif" font-size="14.00">edited_by :string</text>
<text text-anchor="start" x="1697.32" y="-221.3" font-family="Times,serif" font-size="14.00">created_at :datetime</text>
<text text-anchor="start" x="1697.32" y="-207.3" font-family="Times,serif" font-size="14.00">updated_at :datetime</text>
</g>
<!-- Prevaluation&#45;&gt;Valuation -->
<g id="edge29" class="edge"><title>Prevaluation&#45;&gt;Valuation</title>
<path fill="none" stroke="#6a732b" d="M1715.87,-392.396C1724.25,-362.827 1732.7,-333.049 1739.65,-308.536"/>
<ellipse fill="none" stroke="#6a732b" cx="1714.72" cy="-396.42" rx="4.00001" ry="4.00001"/>
<ellipse fill="#6a732b" stroke="#6a732b" cx="1740.76" cy="-304.617" rx="4.00001" ry="4.00001"/>
</g>
<!-- StockCarImage -->
<g id="node23" class="node"><title>StockCarImage</title>
<path fill="none" stroke="black" d="M1371.93,-7.5C1371.93,-7.5 1481.72,-7.5 1481.72,-7.5 1487.72,-7.5 1493.72,-13.5 1493.72,-19.5 1493.72,-19.5 1493.72,-81.5 1493.72,-81.5 1493.72,-87.5 1487.72,-93.5 1481.72,-93.5 1481.72,-93.5 1371.93,-93.5 1371.93,-93.5 1365.93,-93.5 1359.93,-87.5 1359.93,-81.5 1359.93,-81.5 1359.93,-19.5 1359.93,-19.5 1359.93,-13.5 1365.93,-7.5 1371.93,-7.5"/>
<text text-anchor="middle" x="1426.83" y="-78.3" font-family="Times,serif" font-size="14.00">StockCarImage</text>
<polyline fill="none" stroke="black" points="1359.93,-71.5 1493.72,-71.5 "/>
<text text-anchor="start" x="1367.93" y="-56.3" font-family="Times,serif" font-size="14.00">id :integer</text>
<text text-anchor="start" x="1367.93" y="-42.3" font-family="Times,serif" font-size="14.00">stock_car_id :integer</text>
<text text-anchor="start" x="1367.93" y="-28.3" font-family="Times,serif" font-size="14.00">created_at :datetime</text>
<text text-anchor="start" x="1367.93" y="-14.3" font-family="Times,serif" font-size="14.00">updated_at :datetime</text>
</g>
<!-- StockCar&#45;&gt;StockCarImage -->
<g id="edge31" class="edge"><title>StockCar&#45;&gt;StockCarImage</title>
<path fill="none" stroke="#310eac" d="M1426.83,-129.137C1426.83,-120.372 1426.83,-111.842 1426.83,-103.839"/>
<ellipse fill="none" stroke="#310eac" cx="1426.83" cy="-133.482" rx="4" ry="4"/>
<polygon fill="#310eac" stroke="#310eac" points="1426.83,-103.647 1431.33,-93.6468 1426.83,-98.6469 1426.83,-93.6469 1426.83,-93.6469 1426.83,-93.6469 1426.83,-98.6469 1422.33,-93.6469 1426.83,-103.647 1426.83,-103.647"/>
</g>
<!-- StockSpareImage -->
<g id="node26" class="node"><title>StockSpareImage</title>
<path fill="none" stroke="black" d="M1190.71,-207.5C1190.71,-207.5 1312.95,-207.5 1312.95,-207.5 1318.95,-207.5 1324.95,-213.5 1324.95,-219.5 1324.95,-219.5 1324.95,-281.5 1324.95,-281.5 1324.95,-287.5 1318.95,-293.5 1312.95,-293.5 1312.95,-293.5 1190.71,-293.5 1190.71,-293.5 1184.71,-293.5 1178.71,-287.5 1178.71,-281.5 1178.71,-281.5 1178.71,-219.5 1178.71,-219.5 1178.71,-213.5 1184.71,-207.5 1190.71,-207.5"/>
<text text-anchor="middle" x="1251.83" y="-278.3" font-family="Times,serif" font-size="14.00">StockSpareImage</text>
<polyline fill="none" stroke="black" points="1178.71,-271.5 1324.95,-271.5 "/>
<text text-anchor="start" x="1186.71" y="-256.3" font-family="Times,serif" font-size="14.00">id :integer</text>
<text text-anchor="start" x="1186.71" y="-242.3" font-family="Times,serif" font-size="14.00">stock_spare_id :integer</text>
<text text-anchor="start" x="1186.71" y="-228.3" font-family="Times,serif" font-size="14.00">created_at :datetime</text>
<text text-anchor="start" x="1186.71" y="-214.3" font-family="Times,serif" font-size="14.00">updated_at :datetime</text>
</g>
<!-- StockSpare&#45;&gt;StockSpareImage -->
<g id="edge32" class="edge"><title>StockSpare&#45;&gt;StockSpareImage</title>
<path fill="none" stroke="#330e69" d="M1295.32,-427.39C1284.96,-385.501 1273.33,-338.443 1264.7,-303.549"/>
<ellipse fill="none" stroke="#330e69" cx="1296.32" cy="-431.428" rx="4.00001" ry="4.00001"/>
<polygon fill="#330e69" stroke="#330e69" points="1264.64,-303.296 1266.6,-292.508 1263.44,-298.442 1262.24,-293.588 1262.24,-293.588 1262.24,-293.588 1263.44,-298.442 1257.87,-294.668 1264.64,-303.296 1264.64,-303.296"/>
</g>
<!-- User -->
<g id="node27" class="node"><title>User</title>
<path fill="none" stroke="black" d="M1357.76,-884.5C1357.76,-884.5 1483.89,-884.5 1483.89,-884.5 1489.89,-884.5 1495.89,-890.5 1495.89,-896.5 1495.89,-896.5 1495.89,-1028.5 1495.89,-1028.5 1495.89,-1034.5 1489.89,-1040.5 1483.89,-1040.5 1483.89,-1040.5 1357.76,-1040.5 1357.76,-1040.5 1351.76,-1040.5 1345.76,-1034.5 1345.76,-1028.5 1345.76,-1028.5 1345.76,-896.5 1345.76,-896.5 1345.76,-890.5 1351.76,-884.5 1357.76,-884.5"/>
<text text-anchor="middle" x="1420.83" y="-1025.3" font-family="Times,serif" font-size="14.00">User</text>
<polyline fill="none" stroke="black" points="1345.76,-1018.5 1495.89,-1018.5 "/>
<text text-anchor="start" x="1353.76" y="-1003.3" font-family="Times,serif" font-size="14.00">id :integer</text>
<text text-anchor="start" x="1353.76" y="-989.3" font-family="Times,serif" font-size="14.00">name :string</text>
<text text-anchor="start" x="1353.76" y="-975.3" font-family="Times,serif" font-size="14.00">email :string</text>
<text text-anchor="start" x="1353.76" y="-961.3" font-family="Times,serif" font-size="14.00">username :string</text>
<text text-anchor="start" x="1353.76" y="-947.3" font-family="Times,serif" font-size="14.00">privileges :string</text>
<text text-anchor="start" x="1353.76" y="-933.3" font-family="Times,serif" font-size="14.00">created_at :datetime</text>
<text text-anchor="start" x="1353.76" y="-919.3" font-family="Times,serif" font-size="14.00">updated_at :datetime</text>
<text text-anchor="start" x="1353.76" y="-905.3" font-family="Times,serif" font-size="14.00">password_digest :string</text>
<text text-anchor="start" x="1353.76" y="-891.3" font-family="Times,serif" font-size="14.00">remember_token :string</text>
</g>
<!-- Warehouse -->
<g id="node29" class="node"><title>Warehouse</title>
<path fill="none" stroke="black" d="M1265.32,-712.5C1265.32,-712.5 1374.33,-712.5 1374.33,-712.5 1380.33,-712.5 1386.33,-718.5 1386.33,-724.5 1386.33,-724.5 1386.33,-814.5 1386.33,-814.5 1386.33,-820.5 1380.33,-826.5 1374.33,-826.5 1374.33,-826.5 1265.32,-826.5 1265.32,-826.5 1259.32,-826.5 1253.32,-820.5 1253.32,-814.5 1253.32,-814.5 1253.32,-724.5 1253.32,-724.5 1253.32,-718.5 1259.32,-712.5 1265.32,-712.5"/>
<text text-anchor="middle" x="1319.83" y="-811.3" font-family="Times,serif" font-size="14.00">Warehouse</text>
<polyline fill="none" stroke="black" points="1253.32,-804.5 1386.33,-804.5 "/>
<text text-anchor="start" x="1261.32" y="-789.3" font-family="Times,serif" font-size="14.00">id :integer</text>
<text text-anchor="start" x="1261.32" y="-775.3" font-family="Times,serif" font-size="14.00">branch :string</text>
<text text-anchor="start" x="1261.32" y="-761.3" font-family="Times,serif" font-size="14.00">location :string</text>
<text text-anchor="start" x="1261.32" y="-747.3" font-family="Times,serif" font-size="14.00">geolocation :string</text>
<text text-anchor="start" x="1261.32" y="-733.3" font-family="Times,serif" font-size="14.00">created_at :datetime</text>
<text text-anchor="start" x="1261.32" y="-719.3" font-family="Times,serif" font-size="14.00">updated_at :datetime</text>
</g>
<!-- Warehouse&#45;&gt;StockCar -->
<g id="edge34" class="edge"><title>Warehouse&#45;&gt;StockCar</title>
<path fill="none" stroke="#f73663" d="M1379.19,-705.782C1390.7,-690.26 1401.22,-672.911 1407.83,-655 1441.02,-564.991 1444.16,-455.963 1439.9,-373.941"/>
<ellipse fill="none" stroke="#f73663" cx="1376.63" cy="-709.138" rx="4.00002" ry="4.00002"/>
<polygon fill="#f73663" stroke="#f73663" points="1439.89,-373.807 1443.82,-363.569 1439.61,-368.815 1439.33,-363.823 1439.33,-363.823 1439.33,-363.823 1439.61,-368.815 1434.83,-364.076 1439.89,-373.807 1439.89,-373.807"/>
</g>
<!-- Warehouse&#45;&gt;StockSpare -->
<g id="edge33" class="edge"><title>Warehouse&#45;&gt;StockSpare</title>
<path fill="none" stroke="#ee6a11" d="M1319.83,-703.981C1319.83,-681.204 1319.83,-655.008 1319.83,-629.922"/>
<ellipse fill="none" stroke="#ee6a11" cx="1319.83" cy="-708.231" rx="4" ry="4"/>
<polygon fill="#ee6a11" stroke="#ee6a11" points="1319.83,-629.628 1324.33,-619.628 1319.83,-624.628 1319.83,-619.628 1319.83,-619.628 1319.83,-619.628 1319.83,-624.628 1315.33,-619.628 1319.83,-629.628 1319.83,-629.628"/>
</g>
</g>
</svg>
