<?xml version="1.0" encoding="UTF-8" standalone="no"?>
<!DOCTYPE svg PUBLIC "-//W3C//DTD SVG 1.1//EN"
 "http://www.w3.org/Graphics/SVG/1.1/DTD/svg11.dtd">
<!-- Generated by graphviz version 2.38.0 (20140413.2041)
 -->
<!-- Title: models_diagram Pages: 1 -->
<svg width="1849pt" height="1427pt"
 viewBox="0.00 0.00 1849.22 1427.00" xmlns="http://www.w3.org/2000/svg" xmlns:xlink="http://www.w3.org/1999/xlink">
<g id="graph0" class="graph" transform="scale(1 1) rotate(0) translate(4 1423)">
<title>models_diagram</title>
<polygon fill="white" stroke="none" points="-4,4 -4,-1423 1845.22,-1423 1845.22,4 -4,4"/>
<!-- _diagram_info -->
<g id="node1" class="node"><title>_diagram_info</title>
<text text-anchor="start" x="54.0281" y="-1362.6" font-family="Times,serif" font-size="13.00">Models diagram</text>
<text text-anchor="start" x="54.0281" y="-1349.6" font-family="Times,serif" font-size="13.00">Date: Mar 17 2015 &#45; 13:38</text>
<text text-anchor="start" x="54.0281" y="-1336.6" font-family="Times,serif" font-size="13.00">Migration version: 20150316214530</text>
<text text-anchor="start" x="54.0281" y="-1323.6" font-family="Times,serif" font-size="13.00">Generated by RailRoady 1.3.0</text>
<text text-anchor="start" x="54.0281" y="-1310.6" font-family="Times,serif" font-size="13.00">http://railroady.prestonlee.com</text>
</g>
<!-- Brand -->
<g id="node2" class="node"><title>Brand</title>
<path fill="none" stroke="black" d="M283.21,-1290.5C283.21,-1290.5 392.221,-1290.5 392.221,-1290.5 398.221,-1290.5 404.221,-1296.5 404.221,-1302.5 404.221,-1302.5 404.221,-1378.5 404.221,-1378.5 404.221,-1384.5 398.221,-1390.5 392.221,-1390.5 392.221,-1390.5 283.21,-1390.5 283.21,-1390.5 277.21,-1390.5 271.21,-1384.5 271.21,-1378.5 271.21,-1378.5 271.21,-1302.5 271.21,-1302.5 271.21,-1296.5 277.21,-1290.5 283.21,-1290.5"/>
<text text-anchor="middle" x="337.716" y="-1375.3" font-family="Times,serif" font-size="14.00">Brand</text>
<polyline fill="none" stroke="black" points="271.21,-1368.5 404.221,-1368.5 "/>
<text text-anchor="start" x="279.21" y="-1353.3" font-family="Times,serif" font-size="14.00">id :integer</text>
<text text-anchor="start" x="279.21" y="-1339.3" font-family="Times,serif" font-size="14.00">name :string</text>
<text text-anchor="start" x="279.21" y="-1325.3" font-family="Times,serif" font-size="14.00">acronym :string</text>
<text text-anchor="start" x="279.21" y="-1311.3" font-family="Times,serif" font-size="14.00">created_at :datetime</text>
<text text-anchor="start" x="279.21" y="-1297.3" font-family="Times,serif" font-size="14.00">updated_at :datetime</text>
</g>
<!-- ModelAcronym -->
<g id="node14" class="node"><title>ModelAcronym</title>
<path fill="none" stroke="black" d="M283.21,-1110.5C283.21,-1110.5 392.221,-1110.5 392.221,-1110.5 398.221,-1110.5 404.221,-1116.5 404.221,-1122.5 404.221,-1122.5 404.221,-1212.5 404.221,-1212.5 404.221,-1218.5 398.221,-1224.5 392.221,-1224.5 392.221,-1224.5 283.21,-1224.5 283.21,-1224.5 277.21,-1224.5 271.21,-1218.5 271.21,-1212.5 271.21,-1212.5 271.21,-1122.5 271.21,-1122.5 271.21,-1116.5 277.21,-1110.5 283.21,-1110.5"/>
<text text-anchor="middle" x="337.716" y="-1209.3" font-family="Times,serif" font-size="14.00">ModelAcronym</text>
<polyline fill="none" stroke="black" points="271.21,-1202.5 404.221,-1202.5 "/>
<text text-anchor="start" x="279.21" y="-1187.3" font-family="Times,serif" font-size="14.00">id :integer</text>
<text text-anchor="start" x="279.21" y="-1173.3" font-family="Times,serif" font-size="14.00">brand_id :integer</text>
<text text-anchor="start" x="279.21" y="-1159.3" font-family="Times,serif" font-size="14.00">initials :string</text>
<text text-anchor="start" x="279.21" y="-1145.3" font-family="Times,serif" font-size="14.00">model :string</text>
<text text-anchor="start" x="279.21" y="-1131.3" font-family="Times,serif" font-size="14.00">created_at :datetime</text>
<text text-anchor="start" x="279.21" y="-1117.3" font-family="Times,serif" font-size="14.00">updated_at :datetime</text>
</g>
<!-- Brand&#45;&gt;ModelAcronym -->
<g id="edge1" class="edge"><title>Brand&#45;&gt;ModelAcronym</title>
<path fill="none" stroke="#dc9f13" d="M337.716,-1282.4C337.716,-1267.17 337.716,-1250.58 337.716,-1234.9"/>
<ellipse fill="none" stroke="#dc9f13" cx="337.716" cy="-1286.5" rx="4" ry="4"/>
<polygon fill="#dc9f13" stroke="#dc9f13" points="337.716,-1234.74 342.216,-1224.74 337.716,-1229.74 337.716,-1224.74 337.716,-1224.74 337.716,-1224.74 337.716,-1229.74 333.216,-1224.74 337.716,-1234.74 337.716,-1234.74"/>
</g>
<!-- CarType -->
<g id="node3" class="node"><title>CarType</title>
<path fill="none" stroke="black" d="M455.21,-1117.5C455.21,-1117.5 564.221,-1117.5 564.221,-1117.5 570.221,-1117.5 576.221,-1123.5 576.221,-1129.5 576.221,-1129.5 576.221,-1205.5 576.221,-1205.5 576.221,-1211.5 570.221,-1217.5 564.221,-1217.5 564.221,-1217.5 455.21,-1217.5 455.21,-1217.5 449.21,-1217.5 443.21,-1211.5 443.21,-1205.5 443.21,-1205.5 443.21,-1129.5 443.21,-1129.5 443.21,-1123.5 449.21,-1117.5 455.21,-1117.5"/>
<text text-anchor="middle" x="509.716" y="-1202.3" font-family="Times,serif" font-size="14.00">CarType</text>
<polyline fill="none" stroke="black" points="443.21,-1195.5 576.221,-1195.5 "/>
<text text-anchor="start" x="451.21" y="-1180.3" font-family="Times,serif" font-size="14.00">id :integer</text>
<text text-anchor="start" x="451.21" y="-1166.3" font-family="Times,serif" font-size="14.00">name :string</text>
<text text-anchor="start" x="451.21" y="-1152.3" font-family="Times,serif" font-size="14.00">doors :string</text>
<text text-anchor="start" x="451.21" y="-1138.3" font-family="Times,serif" font-size="14.00">created_at :datetime</text>
<text text-anchor="start" x="451.21" y="-1124.3" font-family="Times,serif" font-size="14.00">updated_at :datetime</text>
</g>
<!-- GenericCar -->
<g id="node6" class="node"><title>GenericCar</title>
<path fill="none" stroke="black" d="M258.321,-860.5C258.321,-860.5 417.111,-860.5 417.111,-860.5 423.111,-860.5 429.111,-866.5 429.111,-872.5 429.111,-872.5 429.111,-1018.5 429.111,-1018.5 429.111,-1024.5 423.111,-1030.5 417.111,-1030.5 417.111,-1030.5 258.321,-1030.5 258.321,-1030.5 252.321,-1030.5 246.321,-1024.5 246.321,-1018.5 246.321,-1018.5 246.321,-872.5 246.321,-872.5 246.321,-866.5 252.321,-860.5 258.321,-860.5"/>
<text text-anchor="middle" x="337.716" y="-1015.3" font-family="Times,serif" font-size="14.00">GenericCar</text>
<polyline fill="none" stroke="black" points="246.321,-1008.5 429.111,-1008.5 "/>
<text text-anchor="start" x="254.321" y="-993.3" font-family="Times,serif" font-size="14.00">id :integer</text>
<text text-anchor="start" x="254.321" y="-979.3" font-family="Times,serif" font-size="14.00">first_generation_year :integer</text>
<text text-anchor="start" x="254.321" y="-965.3" font-family="Times,serif" font-size="14.00">last_generation_year :integer</text>
<text text-anchor="start" x="254.321" y="-951.3" font-family="Times,serif" font-size="14.00">number_of_generation :string</text>
<text text-anchor="start" x="254.321" y="-937.3" font-family="Times,serif" font-size="14.00">years :string</text>
<text text-anchor="start" x="254.321" y="-923.3" font-family="Times,serif" font-size="14.00">created_at :datetime</text>
<text text-anchor="start" x="254.321" y="-909.3" font-family="Times,serif" font-size="14.00">updated_at :datetime</text>
<text text-anchor="start" x="254.321" y="-895.3" font-family="Times,serif" font-size="14.00">gen_continues :boolean</text>
<text text-anchor="start" x="254.321" y="-881.3" font-family="Times,serif" font-size="14.00">model_acronym_id :integer</text>
<text text-anchor="start" x="254.321" y="-867.3" font-family="Times,serif" font-size="14.00">car_type_id :integer</text>
</g>
<!-- CarType&#45;&gt;GenericCar -->
<g id="edge2" class="edge"><title>CarType&#45;&gt;GenericCar</title>
<path fill="none" stroke="#46a291" d="M466.336,-1111.01C449.215,-1089.12 429.079,-1063.36 409.887,-1038.81"/>
<ellipse fill="none" stroke="#46a291" cx="468.866" cy="-1114.25" rx="4.00002" ry="4.00002"/>
<polygon fill="#46a291" stroke="#46a291" points="409.853,-1038.77 407.239,-1028.12 406.773,-1034.83 403.693,-1030.89 403.693,-1030.89 403.693,-1030.89 406.773,-1034.83 400.148,-1033.66 409.853,-1038.77 409.853,-1038.77"/>
</g>
<!-- GenericFamily -->
<g id="node9" class="node"><title>GenericFamily</title>
<path fill="none" stroke="black" d="M455.21,-589.5C455.21,-589.5 564.221,-589.5 564.221,-589.5 570.221,-589.5 576.221,-595.5 576.221,-601.5 576.221,-601.5 576.221,-733.5 576.221,-733.5 576.221,-739.5 570.221,-745.5 564.221,-745.5 564.221,-745.5 455.21,-745.5 455.21,-745.5 449.21,-745.5 443.21,-739.5 443.21,-733.5 443.21,-733.5 443.21,-601.5 443.21,-601.5 443.21,-595.5 449.21,-589.5 455.21,-589.5"/>
<text text-anchor="middle" x="509.716" y="-730.3" font-family="Times,serif" font-size="14.00">GenericFamily</text>
<polyline fill="none" stroke="black" points="443.21,-723.5 576.221,-723.5 "/>
<text text-anchor="start" x="451.21" y="-708.3" font-family="Times,serif" font-size="14.00">id :integer</text>
<text text-anchor="start" x="451.21" y="-694.3" font-family="Times,serif" font-size="14.00">name :string</text>
<text text-anchor="start" x="451.21" y="-680.3" font-family="Times,serif" font-size="14.00">description :text</text>
<text text-anchor="start" x="451.21" y="-666.3" font-family="Times,serif" font-size="14.00">created_at :datetime</text>
<text text-anchor="start" x="451.21" y="-652.3" font-family="Times,serif" font-size="14.00">updated_at :datetime</text>
<text text-anchor="start" x="451.21" y="-638.3" font-family="Times,serif" font-size="14.00">code :string</text>
<text text-anchor="start" x="451.21" y="-624.3" font-family="Times,serif" font-size="14.00">mold :boolean</text>
<text text-anchor="start" x="451.21" y="-610.3" font-family="Times,serif" font-size="14.00">father_id :integer</text>
<text text-anchor="start" x="451.21" y="-596.3" font-family="Times,serif" font-size="14.00">active :boolean</text>
</g>
<!-- CarType&#45;&gt;GenericFamily -->
<g id="edge4" class="edge"><title>CarType&#45;&gt;GenericFamily</title>
<path fill="none" stroke="#b2b4c2" d="M509.716,-1107.33C509.716,-1020.16 509.716,-856.661 509.716,-755.716"/>
<polygon fill="#b2b4c2" stroke="#b2b4c2" points="509.716,-1107.39 505.216,-1117.39 509.716,-1112.39 509.716,-1117.39 509.716,-1117.39 509.716,-1117.39 509.716,-1112.39 514.216,-1117.39 509.716,-1107.39 509.716,-1107.39"/>
<polygon fill="#b2b4c2" stroke="#b2b4c2" points="509.716,-755.542 514.216,-745.542 509.716,-750.542 509.716,-745.542 509.716,-745.542 509.716,-745.542 509.716,-750.542 505.216,-745.542 509.716,-755.542 509.716,-755.542"/>
</g>
<!-- TypeLikelihood -->
<g id="node25" class="node"><title>TypeLikelihood</title>
<path fill="none" stroke="black" d="M820.272,-367.5C820.272,-367.5 961.159,-367.5 961.159,-367.5 967.159,-367.5 973.159,-373.5 973.159,-379.5 973.159,-379.5 973.159,-483.5 973.159,-483.5 973.159,-489.5 967.159,-495.5 961.159,-495.5 961.159,-495.5 820.272,-495.5 820.272,-495.5 814.272,-495.5 808.272,-489.5 808.272,-483.5 808.272,-483.5 808.272,-379.5 808.272,-379.5 808.272,-373.5 814.272,-367.5 820.272,-367.5"/>
<text text-anchor="middle" x="890.716" y="-480.3" font-family="Times,serif" font-size="14.00">TypeLikelihood</text>
<polyline fill="none" stroke="black" points="808.272,-473.5 973.159,-473.5 "/>
<text text-anchor="start" x="816.272" y="-458.3" font-family="Times,serif" font-size="14.00">id :integer</text>
<text text-anchor="start" x="816.272" y="-444.3" font-family="Times,serif" font-size="14.00">generic_family_id :integer</text>
<text text-anchor="start" x="816.272" y="-430.3" font-family="Times,serif" font-size="14.00">car_type_id :integer</text>
<text text-anchor="start" x="816.272" y="-416.3" font-family="Times,serif" font-size="14.00">created_at :datetime</text>
<text text-anchor="start" x="816.272" y="-402.3" font-family="Times,serif" font-size="14.00">updated_at :datetime</text>
<text text-anchor="start" x="816.272" y="-388.3" font-family="Times,serif" font-size="14.00">active :boolean</text>
<text text-anchor="start" x="816.272" y="-374.3" font-family="Times,serif" font-size="14.00">years :string</text>
</g>
<!-- CarType&#45;&gt;TypeLikelihood -->
<g id="edge3" class="edge"><title>CarType&#45;&gt;TypeLikelihood</title>
<path fill="none" stroke="#8c91ec" d="M539.003,-1110.08C607.397,-978.316 777.553,-650.51 853.309,-504.565"/>
<ellipse fill="none" stroke="#8c91ec" cx="537" cy="-1113.94" rx="4.00002" ry="4.00002"/>
<polygon fill="#8c91ec" stroke="#8c91ec" points="853.334,-504.516 861.935,-497.714 855.638,-500.078 857.941,-495.64 857.941,-495.64 857.941,-495.64 855.638,-500.078 853.947,-493.567 853.334,-504.516 853.334,-504.516"/>
</g>
<!-- FamilyLikelihood -->
<g id="node4" class="node"><title>FamilyLikelihood</title>
<path fill="none" stroke="black" d="M213.272,-388.5C213.272,-388.5 354.159,-388.5 354.159,-388.5 360.159,-388.5 366.159,-394.5 366.159,-400.5 366.159,-400.5 366.159,-462.5 366.159,-462.5 366.159,-468.5 360.159,-474.5 354.159,-474.5 354.159,-474.5 213.272,-474.5 213.272,-474.5 207.272,-474.5 201.272,-468.5 201.272,-462.5 201.272,-462.5 201.272,-400.5 201.272,-400.5 201.272,-394.5 207.272,-388.5 213.272,-388.5"/>
<text text-anchor="middle" x="283.716" y="-459.3" font-family="Times,serif" font-size="14.00">FamilyLikelihood</text>
<polyline fill="none" stroke="black" points="201.272,-452.5 366.159,-452.5 "/>
<text text-anchor="start" x="209.272" y="-437.3" font-family="Times,serif" font-size="14.00">id :integer</text>
<text text-anchor="start" x="209.272" y="-423.3" font-family="Times,serif" font-size="14.00">generic_car_id :integer</text>
<text text-anchor="start" x="209.272" y="-409.3" font-family="Times,serif" font-size="14.00">generic_family_id :integer</text>
<text text-anchor="start" x="209.272" y="-395.3" font-family="Times,serif" font-size="14.00">years :string</text>
</g>
<!-- Generation -->
<g id="node5" class="node"><title>Generation</title>
<path fill="none" stroke="black" d="M88.2104,-1124.5C88.2104,-1124.5 197.221,-1124.5 197.221,-1124.5 203.221,-1124.5 209.221,-1130.5 209.221,-1136.5 209.221,-1136.5 209.221,-1198.5 209.221,-1198.5 209.221,-1204.5 203.221,-1210.5 197.221,-1210.5 197.221,-1210.5 88.2104,-1210.5 88.2104,-1210.5 82.2104,-1210.5 76.2104,-1204.5 76.2104,-1198.5 76.2104,-1198.5 76.2104,-1136.5 76.2104,-1136.5 76.2104,-1130.5 82.2104,-1124.5 88.2104,-1124.5"/>
<text text-anchor="middle" x="142.716" y="-1195.3" font-family="Times,serif" font-size="14.00">Generation</text>
<polyline fill="none" stroke="black" points="76.2104,-1188.5 209.221,-1188.5 "/>
<text text-anchor="start" x="84.2104" y="-1173.3" font-family="Times,serif" font-size="14.00">id :integer</text>
<text text-anchor="start" x="84.2104" y="-1159.3" font-family="Times,serif" font-size="14.00">year :integer</text>
<text text-anchor="start" x="84.2104" y="-1145.3" font-family="Times,serif" font-size="14.00">created_at :datetime</text>
<text text-anchor="start" x="84.2104" y="-1131.3" font-family="Times,serif" font-size="14.00">updated_at :datetime</text>
</g>
<!-- Generation&#45;&gt;GenericCar -->
<g id="edge6" class="edge"><title>Generation&#45;&gt;GenericCar</title>
<path fill="none" stroke="#005427" d="M186.869,-1116.69C207.397,-1093.53 232.483,-1065.22 256.26,-1038.4"/>
<polygon fill="#005427" stroke="#005427" points="186.716,-1116.86 176.715,-1121.36 183.4,-1120.6 180.083,-1124.34 180.083,-1124.34 180.083,-1124.34 183.4,-1120.6 183.451,-1127.33 186.716,-1116.86 186.716,-1116.86"/>
<polygon fill="#005427" stroke="#005427" points="256.294,-1038.36 266.295,-1033.86 259.611,-1034.62 262.927,-1030.88 262.927,-1030.88 262.927,-1030.88 259.611,-1034.62 259.56,-1027.89 256.294,-1038.36 256.294,-1038.36"/>
</g>
<!-- GenericCarGeneration -->
<g id="node7" class="node"><title>GenericCarGeneration</title>
<path fill="none" stroke="black" d="M12,-617.5C12,-617.5 133.432,-617.5 133.432,-617.5 139.432,-617.5 145.432,-623.5 145.432,-629.5 145.432,-629.5 145.432,-705.5 145.432,-705.5 145.432,-711.5 139.432,-717.5 133.432,-717.5 133.432,-717.5 12,-717.5 12,-717.5 6,-717.5 0,-711.5 0,-705.5 0,-705.5 0,-629.5 0,-629.5 0,-623.5 6,-617.5 12,-617.5"/>
<text text-anchor="middle" x="72.7158" y="-702.3" font-family="Times,serif" font-size="14.00">GenericCarGeneration</text>
<polyline fill="none" stroke="black" points="0,-695.5 145.432,-695.5 "/>
<text text-anchor="start" x="8" y="-680.3" font-family="Times,serif" font-size="14.00">id :integer</text>
<text text-anchor="start" x="8" y="-666.3" font-family="Times,serif" font-size="14.00">generation_id :integer</text>
<text text-anchor="start" x="8" y="-652.3" font-family="Times,serif" font-size="14.00">created_at :datetime</text>
<text text-anchor="start" x="8" y="-638.3" font-family="Times,serif" font-size="14.00">updated_at :datetime</text>
<text text-anchor="start" x="8" y="-624.3" font-family="Times,serif" font-size="14.00">generic_car_id :integer</text>
</g>
<!-- Generation&#45;&gt;GenericCarGeneration -->
<g id="edge5" class="edge"><title>Generation&#45;&gt;GenericCarGeneration</title>
<path fill="none" stroke="#e79224" d="M135.673,-1116.39C122.681,-1023.97 95.0041,-827.065 81.0813,-728.015"/>
<ellipse fill="none" stroke="#e79224" cx="136.251" cy="-1120.51" rx="4.00001" ry="4.00001"/>
<polygon fill="#e79224" stroke="#e79224" points="81.0481,-727.778 84.1123,-717.249 80.3521,-722.827 79.6561,-717.875 79.6561,-717.875 79.6561,-717.875 80.3521,-722.827 75.1999,-718.502 81.0481,-727.778 81.0481,-727.778"/>
</g>
<!-- GenericCar&#45;&gt;FamilyLikelihood -->
<g id="edge11" class="edge"><title>GenericCar&#45;&gt;FamilyLikelihood</title>
<path fill="none" stroke="#d9156f" d="M272.76,-853.166C259.977,-830.592 248.446,-805.756 241.716,-781 215.247,-683.645 225.004,-653.495 241.716,-554 245.675,-530.428 253.672,-505.314 261.636,-484.074"/>
<ellipse fill="none" stroke="#d9156f" cx="274.763" cy="-856.632" rx="4.00002" ry="4.00002"/>
<polygon fill="#d9156f" stroke="#d9156f" points="261.687,-483.94 269.478,-476.223 263.483,-479.273 265.278,-474.607 265.278,-474.607 265.278,-474.607 263.483,-479.273 261.078,-472.991 261.687,-483.94 261.687,-483.94"/>
</g>
<!-- GenericCar&#45;&gt;GenericCarGeneration -->
<g id="edge9" class="edge"><title>GenericCar&#45;&gt;GenericCarGeneration</title>
<path fill="none" stroke="#e1d309" d="M239.568,-873.657C212.201,-851.627 183.483,-826.202 159.716,-800 139.487,-777.698 120.581,-750.285 105.594,-726.27"/>
<ellipse fill="none" stroke="#e1d309" cx="242.995" cy="-876.393" rx="4.00002" ry="4.00002"/>
<polygon fill="#e1d309" stroke="#e1d309" points="105.495,-726.109 104.088,-715.234 102.875,-721.85 100.255,-717.592 100.255,-717.592 100.255,-717.592 102.875,-721.85 96.4226,-719.95 105.495,-726.109 105.495,-726.109"/>
</g>
<!-- GenericCarImage -->
<g id="node8" class="node"><title>GenericCarImage</title>
<path fill="none" stroke="black" d="M262.607,-596.5C262.607,-596.5 412.825,-596.5 412.825,-596.5 418.825,-596.5 424.825,-602.5 424.825,-608.5 424.825,-608.5 424.825,-726.5 424.825,-726.5 424.825,-732.5 418.825,-738.5 412.825,-738.5 412.825,-738.5 262.607,-738.5 262.607,-738.5 256.607,-738.5 250.607,-732.5 250.607,-726.5 250.607,-726.5 250.607,-608.5 250.607,-608.5 250.607,-602.5 256.607,-596.5 262.607,-596.5"/>
<text text-anchor="middle" x="337.716" y="-723.3" font-family="Times,serif" font-size="14.00">GenericCarImage</text>
<polyline fill="none" stroke="black" points="250.607,-716.5 424.825,-716.5 "/>
<text text-anchor="start" x="258.607" y="-701.3" font-family="Times,serif" font-size="14.00">id :integer</text>
<text text-anchor="start" x="258.607" y="-687.3" font-family="Times,serif" font-size="14.00">generic_car_id :integer</text>
<text text-anchor="start" x="258.607" y="-673.3" font-family="Times,serif" font-size="14.00">created_at :datetime</text>
<text text-anchor="start" x="258.607" y="-659.3" font-family="Times,serif" font-size="14.00">updated_at :datetime</text>
<text text-anchor="start" x="258.607" y="-645.3" font-family="Times,serif" font-size="14.00">image_file_name :string</text>
<text text-anchor="start" x="258.607" y="-631.3" font-family="Times,serif" font-size="14.00">image_content_type :string</text>
<text text-anchor="start" x="258.607" y="-617.3" font-family="Times,serif" font-size="14.00">image_file_size :integer</text>
<text text-anchor="start" x="258.607" y="-603.3" font-family="Times,serif" font-size="14.00">image_updated_at :datetime</text>
</g>
<!-- GenericCar&#45;&gt;GenericCarImage -->
<g id="edge10" class="edge"><title>GenericCar&#45;&gt;GenericCarImage</title>
<path fill="none" stroke="#5f3d39" d="M337.716,-851.904C337.716,-818.592 337.716,-781.308 337.716,-749.1"/>
<ellipse fill="none" stroke="#5f3d39" cx="337.716" cy="-856.191" rx="4" ry="4"/>
<polygon fill="#5f3d39" stroke="#5f3d39" points="337.716,-748.833 342.216,-738.833 337.716,-743.833 337.716,-738.833 337.716,-738.833 337.716,-738.833 337.716,-743.833 333.216,-738.833 337.716,-748.833 337.716,-748.833"/>
</g>
<!-- GenericCar&#45;&gt;GenericFamily -->
<g id="edge12" class="edge"><title>GenericCar&#45;&gt;GenericFamily</title>
<path fill="none" stroke="#38508a" d="M395.645,-851.543C415.238,-820.104 437.014,-785.162 456.244,-754.303"/>
<polygon fill="#38508a" stroke="#38508a" points="395.545,-851.704 386.437,-857.811 392.901,-855.948 390.256,-860.191 390.256,-860.191 390.256,-860.191 392.901,-855.948 394.075,-862.571 395.545,-851.704 395.545,-851.704"/>
<polygon fill="#38508a" stroke="#38508a" points="456.308,-754.201 465.416,-748.094 458.952,-749.957 461.597,-745.714 461.597,-745.714 461.597,-745.714 458.952,-749.957 457.778,-743.334 456.308,-754.201 456.308,-754.201"/>
</g>
<!-- GenericFittable -->
<g id="node10" class="node"><title>GenericFittable</title>
<path fill="none" stroke="black" d="M142.776,-166.5C142.776,-166.5 276.656,-166.5 276.656,-166.5 282.656,-166.5 288.656,-172.5 288.656,-178.5 288.656,-178.5 288.656,-254.5 288.656,-254.5 288.656,-260.5 282.656,-266.5 276.656,-266.5 276.656,-266.5 142.776,-266.5 142.776,-266.5 136.776,-266.5 130.776,-260.5 130.776,-254.5 130.776,-254.5 130.776,-178.5 130.776,-178.5 130.776,-172.5 136.776,-166.5 142.776,-166.5"/>
<text text-anchor="middle" x="209.716" y="-251.3" font-family="Times,serif" font-size="14.00">GenericFittable</text>
<polyline fill="none" stroke="black" points="130.776,-244.5 288.656,-244.5 "/>
<text text-anchor="start" x="138.776" y="-229.3" font-family="Times,serif" font-size="14.00">id :integer</text>
<text text-anchor="start" x="138.776" y="-215.3" font-family="Times,serif" font-size="14.00">generic_car_id :integer</text>
<text text-anchor="start" x="138.776" y="-201.3" font-family="Times,serif" font-size="14.00">generic_spare_id :integer</text>
<text text-anchor="start" x="138.776" y="-187.3" font-family="Times,serif" font-size="14.00">created_at :datetime</text>
<text text-anchor="start" x="138.776" y="-173.3" font-family="Times,serif" font-size="14.00">updated_at :datetime</text>
</g>
<!-- GenericCar&#45;&gt;GenericFittable -->
<g id="edge8" class="edge"><title>GenericCar&#45;&gt;GenericFittable</title>
<path fill="none" stroke="#4b9344" d="M260.334,-853.64C244.796,-831.156 230.314,-806.24 220.716,-781 154.828,-607.739 180.431,-382.329 198.199,-276.83"/>
<ellipse fill="none" stroke="#4b9344" cx="262.662" cy="-856.953" rx="4.00002" ry="4.00002"/>
<polygon fill="#4b9344" stroke="#4b9344" points="198.247,-276.551 204.378,-267.46 199.095,-271.623 199.944,-266.696 199.944,-266.696 199.944,-266.696 199.095,-271.623 195.509,-265.932 198.247,-276.551 198.247,-276.551"/>
</g>
<!-- StockCar -->
<g id="node20" class="node"><title>StockCar</title>
<path fill="none" stroke="black" d="M1205.09,-554.5C1205.09,-554.5 1348.34,-554.5 1348.34,-554.5 1354.34,-554.5 1360.34,-560.5 1360.34,-566.5 1360.34,-566.5 1360.34,-768.5 1360.34,-768.5 1360.34,-774.5 1354.34,-780.5 1348.34,-780.5 1348.34,-780.5 1205.09,-780.5 1205.09,-780.5 1199.09,-780.5 1193.09,-774.5 1193.09,-768.5 1193.09,-768.5 1193.09,-566.5 1193.09,-566.5 1193.09,-560.5 1199.09,-554.5 1205.09,-554.5"/>
<text text-anchor="middle" x="1276.72" y="-765.3" font-family="Times,serif" font-size="14.00">StockCar</text>
<polyline fill="none" stroke="black" points="1193.09,-758.5 1360.34,-758.5 "/>
<text text-anchor="start" x="1201.09" y="-743.3" font-family="Times,serif" font-size="14.00">id :integer</text>
<text text-anchor="start" x="1201.09" y="-729.3" font-family="Times,serif" font-size="14.00">prevaluation_id :integer</text>
<text text-anchor="start" x="1201.09" y="-715.3" font-family="Times,serif" font-size="14.00">generic_car_id :integer</text>
<text text-anchor="start" x="1201.09" y="-701.3" font-family="Times,serif" font-size="14.00">warehouse_id :integer</text>
<text text-anchor="start" x="1201.09" y="-687.3" font-family="Times,serif" font-size="14.00">color :string</text>
<text text-anchor="start" x="1201.09" y="-673.3" font-family="Times,serif" font-size="14.00">door_number :integer</text>
<text text-anchor="start" x="1201.09" y="-659.3" font-family="Times,serif" font-size="14.00">serie :string</text>
<text text-anchor="start" x="1201.09" y="-645.3" font-family="Times,serif" font-size="14.00">motor :string</text>
<text text-anchor="start" x="1201.09" y="-631.3" font-family="Times,serif" font-size="14.00">license_plates :string</text>
<text text-anchor="start" x="1201.09" y="-617.3" font-family="Times,serif" font-size="14.00">inventory_description :text</text>
<text text-anchor="start" x="1201.09" y="-603.3" font-family="Times,serif" font-size="14.00">special_equipment :text</text>
<text text-anchor="start" x="1201.09" y="-589.3" font-family="Times,serif" font-size="14.00">economic_number :string</text>
<text text-anchor="start" x="1201.09" y="-575.3" font-family="Times,serif" font-size="14.00">created_at :datetime</text>
<text text-anchor="start" x="1201.09" y="-561.3" font-family="Times,serif" font-size="14.00">updated_at :datetime</text>
</g>
<!-- GenericCar&#45;&gt;StockCar -->
<g id="edge7" class="edge"><title>GenericCar&#45;&gt;StockCar</title>
<path fill="none" stroke="#ade404" d="M437.453,-932.272C582.553,-912.33 858.651,-866.204 1079.72,-781 1115.16,-767.341 1151.85,-748.009 1183.82,-729.216"/>
<ellipse fill="none" stroke="#ade404" cx="433.328" cy="-932.835" rx="4.00001" ry="4.00001"/>
<polygon fill="#ade404" stroke="#ade404" points="1184.11,-729.043 1195.01,-727.803 1188.41,-726.489 1192.71,-723.935 1192.71,-723.935 1192.71,-723.935 1188.41,-726.489 1190.41,-720.066 1184.11,-729.043 1184.11,-729.043"/>
</g>
<!-- GenericFamily&#45;&gt;FamilyLikelihood -->
<g id="edge18" class="edge"><title>GenericFamily&#45;&gt;FamilyLikelihood</title>
<path fill="none" stroke="#5e43b7" d="M462.671,-582.884C454.069,-572.15 444.388,-562.1 433.716,-554 413.564,-538.706 400.982,-549.702 379.716,-536 357.625,-521.767 337.197,-501.299 320.916,-482.316"/>
<ellipse fill="none" stroke="#5e43b7" cx="465.164" cy="-586.109" rx="4.00002" ry="4.00002"/>
<polygon fill="#5e43b7" stroke="#5e43b7" points="320.852,-482.239 317.878,-471.684 317.64,-478.407 314.429,-474.575 314.429,-474.575 314.429,-474.575 317.64,-478.407 310.98,-477.465 320.852,-482.239 320.852,-482.239"/>
</g>
<!-- GenericFamily&#45;&gt;GenericFamily -->
<g id="edge13" class="edge"><title>GenericFamily&#45;&gt;GenericFamily</title>
<path fill="none" stroke="#fae98a" d="M584.003,-686.732C590.297,-682.62 594.221,-676.209 594.221,-667.5 594.221,-659.532 590.937,-653.488 585.557,-649.368"/>
<ellipse fill="none" stroke="#fae98a" cx="579.945" cy="-688.611" rx="4.00002" ry="4.00002"/>
<polygon fill="#fae98a" stroke="#fae98a" points="585.245,-649.21 578.342,-640.69 580.78,-646.959 576.316,-644.708 576.316,-644.708 576.316,-644.708 580.78,-646.959 574.29,-648.726 585.245,-649.21 585.245,-649.21"/>
<text text-anchor="middle" x="610.942" y="-663.3" font-family="Times,serif" font-size="14.00">childs</text>
</g>
<!-- GenericSpare -->
<g id="node11" class="node"><title>GenericSpare</title>
<path fill="none" stroke="black" d="M616.424,-346.5C616.424,-346.5 727.007,-346.5 727.007,-346.5 733.007,-346.5 739.007,-352.5 739.007,-358.5 739.007,-358.5 739.007,-504.5 739.007,-504.5 739.007,-510.5 733.007,-516.5 727.007,-516.5 727.007,-516.5 616.424,-516.5 616.424,-516.5 610.424,-516.5 604.424,-510.5 604.424,-504.5 604.424,-504.5 604.424,-358.5 604.424,-358.5 604.424,-352.5 610.424,-346.5 616.424,-346.5"/>
<text text-anchor="middle" x="671.716" y="-501.3" font-family="Times,serif" font-size="14.00">GenericSpare</text>
<polyline fill="none" stroke="black" points="604.424,-494.5 739.007,-494.5 "/>
<text text-anchor="start" x="612.424" y="-479.3" font-family="Times,serif" font-size="14.00">id :integer</text>
<text text-anchor="start" x="612.424" y="-465.3" font-family="Times,serif" font-size="14.00">brand :string</text>
<text text-anchor="start" x="612.424" y="-451.3" font-family="Times,serif" font-size="14.00">type_of_spare :string</text>
<text text-anchor="start" x="612.424" y="-437.3" font-family="Times,serif" font-size="14.00">name :string</text>
<text text-anchor="start" x="612.424" y="-423.3" font-family="Times,serif" font-size="14.00">region :string</text>
<text text-anchor="start" x="612.424" y="-409.3" font-family="Times,serif" font-size="14.00">description :text</text>
<text text-anchor="start" x="612.424" y="-395.3" font-family="Times,serif" font-size="14.00">code :string</text>
<text text-anchor="start" x="612.424" y="-381.3" font-family="Times,serif" font-size="14.00">created_at :datetime</text>
<text text-anchor="start" x="612.424" y="-367.3" font-family="Times,serif" font-size="14.00">updated_at :datetime</text>
<text text-anchor="start" x="612.424" y="-353.3" font-family="Times,serif" font-size="14.00">father_id :integer</text>
</g>
<!-- GenericFamily&#45;&gt;GenericSpare -->
<g id="edge15" class="edge"><title>GenericFamily&#45;&gt;GenericSpare</title>
<path fill="none" stroke="#e521f7" d="M568.943,-580.95C581.555,-562.733 594.927,-543.417 607.709,-524.955"/>
<polygon fill="#e521f7" stroke="#e521f7" points="568.902,-581.009 559.51,-586.67 566.056,-585.12 563.21,-589.231 563.21,-589.231 563.21,-589.231 566.056,-585.12 566.91,-591.793 568.902,-581.009 568.902,-581.009"/>
<polygon fill="#e521f7" stroke="#e521f7" points="607.843,-524.761 617.235,-519.101 610.689,-520.65 613.535,-516.539 613.535,-516.539 613.535,-516.539 610.689,-520.65 609.835,-513.978 607.843,-524.761 607.843,-524.761"/>
</g>
<!-- SpareLikelihood -->
<g id="node19" class="node"><title>SpareLikelihood</title>
<path fill="none" stroke="black" d="M389.272,-166.5C389.272,-166.5 530.159,-166.5 530.159,-166.5 536.159,-166.5 542.159,-172.5 542.159,-178.5 542.159,-178.5 542.159,-254.5 542.159,-254.5 542.159,-260.5 536.159,-266.5 530.159,-266.5 530.159,-266.5 389.272,-266.5 389.272,-266.5 383.272,-266.5 377.272,-260.5 377.272,-254.5 377.272,-254.5 377.272,-178.5 377.272,-178.5 377.272,-172.5 383.272,-166.5 389.272,-166.5"/>
<text text-anchor="middle" x="459.716" y="-251.3" font-family="Times,serif" font-size="14.00">SpareLikelihood</text>
<polyline fill="none" stroke="black" points="377.272,-244.5 542.159,-244.5 "/>
<text text-anchor="start" x="385.272" y="-229.3" font-family="Times,serif" font-size="14.00">id :integer</text>
<text text-anchor="start" x="385.272" y="-215.3" font-family="Times,serif" font-size="14.00">generic_spare_id :integer</text>
<text text-anchor="start" x="385.272" y="-201.3" font-family="Times,serif" font-size="14.00">generic_family_id :integer</text>
<text text-anchor="start" x="385.272" y="-187.3" font-family="Times,serif" font-size="14.00">created_at :datetime</text>
<text text-anchor="start" x="385.272" y="-173.3" font-family="Times,serif" font-size="14.00">updated_at :datetime</text>
</g>
<!-- GenericFamily&#45;&gt;SpareLikelihood -->
<g id="edge14" class="edge"><title>GenericFamily&#45;&gt;SpareLikelihood</title>
<path fill="none" stroke="#ce04e3" d="M452.486,-582.658C432.822,-553.029 415.094,-525.033 412.716,-517 391.145,-444.125 399.459,-420.835 412.716,-346 416.885,-322.467 425.036,-297.583 433.396,-276.046"/>
<ellipse fill="none" stroke="#ce04e3" cx="454.759" cy="-586.071" rx="4.00002" ry="4.00002"/>
<polygon fill="#ce04e3" stroke="#ce04e3" points="433.41,-276.01 441.29,-268.384 435.259,-271.365 437.109,-266.719 437.109,-266.719 437.109,-266.719 435.259,-271.365 432.928,-265.055 433.41,-276.01 433.41,-276.01"/>
</g>
<!-- StockFamily -->
<g id="node22" class="node"><title>StockFamily</title>
<path fill="none" stroke="black" d="M433.272,-388.5C433.272,-388.5 574.159,-388.5 574.159,-388.5 580.159,-388.5 586.159,-394.5 586.159,-400.5 586.159,-400.5 586.159,-462.5 586.159,-462.5 586.159,-468.5 580.159,-474.5 574.159,-474.5 574.159,-474.5 433.272,-474.5 433.272,-474.5 427.272,-474.5 421.272,-468.5 421.272,-462.5 421.272,-462.5 421.272,-400.5 421.272,-400.5 421.272,-394.5 427.272,-388.5 433.272,-388.5"/>
<text text-anchor="middle" x="503.716" y="-459.3" font-family="Times,serif" font-size="14.00">StockFamily</text>
<polyline fill="none" stroke="black" points="421.272,-452.5 586.159,-452.5 "/>
<text text-anchor="start" x="429.272" y="-437.3" font-family="Times,serif" font-size="14.00">id :integer</text>
<text text-anchor="start" x="429.272" y="-423.3" font-family="Times,serif" font-size="14.00">generic_family_id :integer</text>
<text text-anchor="start" x="429.272" y="-409.3" font-family="Times,serif" font-size="14.00">created_at :datetime</text>
<text text-anchor="start" x="429.272" y="-395.3" font-family="Times,serif" font-size="14.00">updated_at :datetime</text>
</g>
<!-- GenericFamily&#45;&gt;StockFamily -->
<g id="edge16" class="edge"><title>GenericFamily&#45;&gt;StockFamily</title>
<path fill="none" stroke="#84ec23" d="M507.526,-581.084C506.697,-548.78 505.78,-513.005 505.053,-484.654"/>
<ellipse fill="none" stroke="#84ec23" cx="507.632" cy="-585.232" rx="4" ry="4"/>
<polygon fill="#84ec23" stroke="#84ec23" points="505.051,-484.562 509.293,-474.45 504.923,-479.564 504.794,-474.566 504.794,-474.566 504.794,-474.566 504.923,-479.564 500.296,-474.681 505.051,-484.562 505.051,-484.562"/>
</g>
<!-- GenericFamily&#45;&gt;TypeLikelihood -->
<g id="edge17" class="edge"><title>GenericFamily&#45;&gt;TypeLikelihood</title>
<path fill="none" stroke="#3e91ba" d="M583.841,-634.796C644.122,-607.481 730.122,-564.958 798.716,-517 805.214,-512.457 811.733,-507.487 818.134,-502.306"/>
<ellipse fill="none" stroke="#3e91ba" cx="579.897" cy="-636.573" rx="4.00002" ry="4.00002"/>
<polygon fill="#3e91ba" stroke="#3e91ba" points="818.469,-502.029 829.04,-499.112 822.319,-498.838 826.168,-495.647 826.168,-495.647 826.168,-495.647 822.319,-498.838 823.297,-492.182 818.469,-502.029 818.469,-502.029"/>
</g>
<!-- GenericSpare&#45;&gt;GenericCar -->
<g id="edge21" class="edge"><title>GenericSpare&#45;&gt;GenericCar</title>
<path fill="none" stroke="#c22498" d="M684.904,-527.223C690.323,-602.186 686.202,-706.326 636.716,-781 591.236,-849.628 506.852,-891.958 439.297,-916.301"/>
<polygon fill="#c22498" stroke="#c22498" points="684.871,-526.813 688.565,-516.488 684.475,-521.829 684.079,-516.845 684.079,-516.845 684.079,-516.845 684.475,-521.829 679.593,-517.201 684.871,-526.813 684.871,-526.813"/>
<polygon fill="#c22498" stroke="#c22498" points="438.892,-916.443 427.965,-915.518 434.175,-918.103 429.459,-919.763 429.459,-919.763 429.459,-919.763 434.175,-918.103 430.953,-924.008 438.892,-916.443 438.892,-916.443"/>
</g>
<!-- GenericSpare&#45;&gt;GenericFittable -->
<g id="edge20" class="edge"><title>GenericSpare&#45;&gt;GenericFittable</title>
<path fill="none" stroke="#489510" d="M597.424,-347.521C596.526,-347 595.624,-346.492 594.716,-346 505.25,-297.468 464.595,-343.157 368.716,-309 342.263,-299.576 315.17,-285.789 291.017,-271.763"/>
<ellipse fill="none" stroke="#489510" cx="600.811" cy="-349.651" rx="4.00002" ry="4.00002"/>
<polygon fill="#489510" stroke="#489510" points="290.869,-271.676 284.545,-262.717 286.563,-269.134 282.258,-266.593 282.258,-266.593 282.258,-266.593 286.563,-269.134 279.97,-270.468 290.869,-271.676 290.869,-271.676"/>
</g>
<!-- GenericSpare&#45;&gt;GenericSpare -->
<g id="edge19" class="edge"><title>GenericSpare&#45;&gt;GenericSpare</title>
<path fill="none" stroke="#5760ab" d="M746.9,-446.546C753.132,-443.303 757.007,-438.287 757.007,-431.5 757.007,-425.435 753.913,-420.784 748.807,-417.549"/>
<ellipse fill="none" stroke="#5760ab" cx="743.034" cy="-447.98" rx="4.00001" ry="4.00001"/>
<polygon fill="#5760ab" stroke="#5760ab" points="748.531,-417.435 740.997,-409.468 743.907,-415.532 739.284,-413.629 739.284,-413.629 739.284,-413.629 743.907,-415.532 737.571,-417.791 748.531,-417.435 748.531,-417.435"/>
<text text-anchor="middle" x="773.728" y="-427.3" font-family="Times,serif" font-size="14.00">childs</text>
</g>
<!-- GenericSpareImage -->
<g id="node12" class="node"><title>GenericSpareImage</title>
<path fill="none" stroke="black" d="M608.266,-173.5C608.266,-173.5 735.166,-173.5 735.166,-173.5 741.166,-173.5 747.166,-179.5 747.166,-185.5 747.166,-185.5 747.166,-247.5 747.166,-247.5 747.166,-253.5 741.166,-259.5 735.166,-259.5 735.166,-259.5 608.266,-259.5 608.266,-259.5 602.266,-259.5 596.266,-253.5 596.266,-247.5 596.266,-247.5 596.266,-185.5 596.266,-185.5 596.266,-179.5 602.266,-173.5 608.266,-173.5"/>
<text text-anchor="middle" x="671.716" y="-244.3" font-family="Times,serif" font-size="14.00">GenericSpareImage</text>
<polyline fill="none" stroke="black" points="596.266,-237.5 747.166,-237.5 "/>
<text text-anchor="start" x="604.266" y="-222.3" font-family="Times,serif" font-size="14.00">id :integer</text>
<text text-anchor="start" x="604.266" y="-208.3" font-family="Times,serif" font-size="14.00">generic_spare_id :string</text>
<text text-anchor="start" x="604.266" y="-194.3" font-family="Times,serif" font-size="14.00">created_at :datetime</text>
<text text-anchor="start" x="604.266" y="-180.3" font-family="Times,serif" font-size="14.00">updated_at :datetime</text>
</g>
<!-- GenericSpare&#45;&gt;GenericSpareImage -->
<g id="edge24" class="edge"><title>GenericSpare&#45;&gt;GenericSpareImage</title>
<path fill="none" stroke="#c5814b" d="M671.716,-338.241C671.716,-314.785 671.716,-290.389 671.716,-269.718"/>
<ellipse fill="none" stroke="#c5814b" cx="671.716" cy="-342.317" rx="4" ry="4"/>
<polygon fill="#c5814b" stroke="#c5814b" points="671.716,-269.582 676.216,-259.582 671.716,-264.582 671.716,-259.582 671.716,-259.582 671.716,-259.582 671.716,-264.582 667.216,-259.582 671.716,-269.582 671.716,-269.582"/>
</g>
<!-- GenericSpare&#45;&gt;SpareLikelihood -->
<g id="edge22" class="edge"><title>GenericSpare&#45;&gt;SpareLikelihood</title>
<path fill="none" stroke="#ac08f0" d="M598.628,-350.021C597.318,-348.667 596.013,-347.325 594.716,-346 571.028,-321.792 544.142,-295.898 520.633,-273.743"/>
<ellipse fill="none" stroke="#ac08f0" cx="601.632" cy="-353.148" rx="4.00002" ry="4.00002"/>
<polygon fill="#ac08f0" stroke="#ac08f0" points="520.414,-273.537 516.209,-263.409 516.771,-270.113 513.127,-266.688 513.127,-266.688 513.127,-266.688 516.771,-270.113 510.045,-269.967 520.414,-273.537 520.414,-273.537"/>
</g>
<!-- StockSpare -->
<g id="node23" class="node"><title>StockSpare</title>
<path fill="none" stroke="black" d="M936.776,-124.5C936.776,-124.5 1070.66,-124.5 1070.66,-124.5 1076.66,-124.5 1082.66,-130.5 1082.66,-136.5 1082.66,-136.5 1082.66,-296.5 1082.66,-296.5 1082.66,-302.5 1076.66,-308.5 1070.66,-308.5 1070.66,-308.5 936.776,-308.5 936.776,-308.5 930.776,-308.5 924.776,-302.5 924.776,-296.5 924.776,-296.5 924.776,-136.5 924.776,-136.5 924.776,-130.5 930.776,-124.5 936.776,-124.5"/>
<text text-anchor="middle" x="1003.72" y="-293.3" font-family="Times,serif" font-size="14.00">StockSpare</text>
<polyline fill="none" stroke="black" points="924.776,-286.5 1082.66,-286.5 "/>
<text text-anchor="start" x="932.776" y="-271.3" font-family="Times,serif" font-size="14.00">id :integer</text>
<text text-anchor="start" x="932.776" y="-257.3" font-family="Times,serif" font-size="14.00">car_id :integer</text>
<text text-anchor="start" x="932.776" y="-243.3" font-family="Times,serif" font-size="14.00">warehouse_id :integer</text>
<text text-anchor="start" x="932.776" y="-229.3" font-family="Times,serif" font-size="14.00">generic_spare_id :integer</text>
<text text-anchor="start" x="932.776" y="-215.3" font-family="Times,serif" font-size="14.00">status :string</text>
<text text-anchor="start" x="932.776" y="-201.3" font-family="Times,serif" font-size="14.00">description :text</text>
<text text-anchor="start" x="932.776" y="-187.3" font-family="Times,serif" font-size="14.00">code :string</text>
<text text-anchor="start" x="932.776" y="-173.3" font-family="Times,serif" font-size="14.00">color :string</text>
<text text-anchor="start" x="932.776" y="-159.3" font-family="Times,serif" font-size="14.00">created_at :datetime</text>
<text text-anchor="start" x="932.776" y="-145.3" font-family="Times,serif" font-size="14.00">updated_at :datetime</text>
<text text-anchor="start" x="932.776" y="-131.3" font-family="Times,serif" font-size="14.00">stock_family_id :integer</text>
</g>
<!-- GenericSpare&#45;&gt;StockSpare -->
<g id="edge23" class="edge"><title>GenericSpare&#45;&gt;StockSpare</title>
<path fill="none" stroke="#75f689" d="M746.204,-380.941C763.71,-369.401 782.331,-357.212 799.716,-346 837.655,-321.532 879.835,-294.873 915.949,-272.212"/>
<ellipse fill="none" stroke="#75f689" cx="742.636" cy="-383.295" rx="4.00002" ry="4.00002"/>
<polygon fill="#75f689" stroke="#75f689" points="916.041,-272.154 926.904,-270.654 920.277,-269.498 924.513,-266.842 924.513,-266.842 924.513,-266.842 920.277,-269.498 922.122,-263.029 916.041,-272.154 916.041,-272.154"/>
</g>
<!-- Insured -->
<g id="node13" class="node"><title>Insured</title>
<path fill="none" stroke="black" d="M1390.66,-596.5C1390.66,-596.5 1516.78,-596.5 1516.78,-596.5 1522.78,-596.5 1528.78,-602.5 1528.78,-608.5 1528.78,-608.5 1528.78,-726.5 1528.78,-726.5 1528.78,-732.5 1522.78,-738.5 1516.78,-738.5 1516.78,-738.5 1390.66,-738.5 1390.66,-738.5 1384.66,-738.5 1378.66,-732.5 1378.66,-726.5 1378.66,-726.5 1378.66,-608.5 1378.66,-608.5 1378.66,-602.5 1384.66,-596.5 1390.66,-596.5"/>
<text text-anchor="middle" x="1453.72" y="-723.3" font-family="Times,serif" font-size="14.00">Insured</text>
<polyline fill="none" stroke="black" points="1378.66,-716.5 1528.78,-716.5 "/>
<text text-anchor="start" x="1386.66" y="-701.3" font-family="Times,serif" font-size="14.00">id :integer</text>
<text text-anchor="start" x="1386.66" y="-687.3" font-family="Times,serif" font-size="14.00">prevaluation_id :integer</text>
<text text-anchor="start" x="1386.66" y="-673.3" font-family="Times,serif" font-size="14.00">third :boolean</text>
<text text-anchor="start" x="1386.66" y="-659.3" font-family="Times,serif" font-size="14.00">name :string</text>
<text text-anchor="start" x="1386.66" y="-645.3" font-family="Times,serif" font-size="14.00">telephone :integer</text>
<text text-anchor="start" x="1386.66" y="-631.3" font-family="Times,serif" font-size="14.00">email :string</text>
<text text-anchor="start" x="1386.66" y="-617.3" font-family="Times,serif" font-size="14.00">created_at :datetime</text>
<text text-anchor="start" x="1386.66" y="-603.3" font-family="Times,serif" font-size="14.00">updated_at :datetime</text>
</g>
<!-- ModelAcronym&#45;&gt;GenericCar -->
<g id="edge25" class="edge"><title>ModelAcronym&#45;&gt;GenericCar</title>
<path fill="none" stroke="#8bfe82" d="M337.716,-1102.32C337.716,-1083.1 337.716,-1061.6 337.716,-1040.86"/>
<ellipse fill="none" stroke="#8bfe82" cx="337.716" cy="-1106.42" rx="4" ry="4"/>
<polygon fill="#8bfe82" stroke="#8bfe82" points="337.716,-1040.75 342.216,-1030.75 337.716,-1035.75 337.716,-1030.75 337.716,-1030.75 337.716,-1030.75 337.716,-1035.75 333.216,-1030.75 337.716,-1040.75 337.716,-1040.75"/>
</g>
<!-- MoldComponent -->
<g id="node15" class="node"><title>MoldComponent</title>
<path fill="none" stroke="black" d="M1002.98,-381.5C1002.98,-381.5 1124.45,-381.5 1124.45,-381.5 1130.45,-381.5 1136.45,-387.5 1136.45,-393.5 1136.45,-393.5 1136.45,-469.5 1136.45,-469.5 1136.45,-475.5 1130.45,-481.5 1124.45,-481.5 1124.45,-481.5 1002.98,-481.5 1002.98,-481.5 996.983,-481.5 990.983,-475.5 990.983,-469.5 990.983,-469.5 990.983,-393.5 990.983,-393.5 990.983,-387.5 996.983,-381.5 1002.98,-381.5"/>
<text text-anchor="middle" x="1063.72" y="-466.3" font-family="Times,serif" font-size="14.00">MoldComponent</text>
<polyline fill="none" stroke="black" points="990.983,-459.5 1136.45,-459.5 "/>
<text text-anchor="start" x="998.983" y="-444.3" font-family="Times,serif" font-size="14.00">id :integer</text>
<text text-anchor="start" x="998.983" y="-430.3" font-family="Times,serif" font-size="14.00">name :string</text>
<text text-anchor="start" x="998.983" y="-416.3" font-family="Times,serif" font-size="14.00">mold_spare_id :integer</text>
<text text-anchor="start" x="998.983" y="-402.3" font-family="Times,serif" font-size="14.00">created_at :datetime</text>
<text text-anchor="start" x="998.983" y="-388.3" font-family="Times,serif" font-size="14.00">updated_at :datetime</text>
</g>
<!-- MoldSpare -->
<g id="node16" class="node"><title>MoldSpare</title>
<path fill="none" stroke="black" d="M949.21,-603.5C949.21,-603.5 1058.22,-603.5 1058.22,-603.5 1064.22,-603.5 1070.22,-609.5 1070.22,-615.5 1070.22,-615.5 1070.22,-719.5 1070.22,-719.5 1070.22,-725.5 1064.22,-731.5 1058.22,-731.5 1058.22,-731.5 949.21,-731.5 949.21,-731.5 943.21,-731.5 937.21,-725.5 937.21,-719.5 937.21,-719.5 937.21,-615.5 937.21,-615.5 937.21,-609.5 943.21,-603.5 949.21,-603.5"/>
<text text-anchor="middle" x="1003.72" y="-716.3" font-family="Times,serif" font-size="14.00">MoldSpare</text>
<polyline fill="none" stroke="black" points="937.21,-709.5 1070.22,-709.5 "/>
<text text-anchor="start" x="945.21" y="-694.3" font-family="Times,serif" font-size="14.00">id :integer</text>
<text text-anchor="start" x="945.21" y="-680.3" font-family="Times,serif" font-size="14.00">name :string</text>
<text text-anchor="start" x="945.21" y="-666.3" font-family="Times,serif" font-size="14.00">comment :string</text>
<text text-anchor="start" x="945.21" y="-652.3" font-family="Times,serif" font-size="14.00">mold_type :string</text>
<text text-anchor="start" x="945.21" y="-638.3" font-family="Times,serif" font-size="14.00">code :string</text>
<text text-anchor="start" x="945.21" y="-624.3" font-family="Times,serif" font-size="14.00">created_at :datetime</text>
<text text-anchor="start" x="945.21" y="-610.3" font-family="Times,serif" font-size="14.00">updated_at :datetime</text>
</g>
<!-- MoldSpare&#45;&gt;GenericSpare -->
<g id="edge26" class="edge"><title>MoldSpare&#45;&gt;GenericSpare</title>
<path fill="none" stroke="#26d42f" d="M930.084,-614.603C875.836,-576.368 802.282,-524.526 747.527,-485.933"/>
<ellipse fill="none" stroke="#26d42f" cx="933.661" cy="-617.124" rx="4.00002" ry="4.00002"/>
<polygon fill="#26d42f" stroke="#26d42f" points="747.422,-485.859 741.841,-476.42 743.335,-482.979 739.248,-480.098 739.248,-480.098 739.248,-480.098 743.335,-482.979 736.656,-483.776 747.422,-485.859 747.422,-485.859"/>
</g>
<!-- MoldSpare&#45;&gt;MoldComponent -->
<g id="edge27" class="edge"><title>MoldSpare&#45;&gt;MoldComponent</title>
<path fill="none" stroke="#4566db" d="M1021.86,-595.728C1030.4,-562.434 1040.46,-523.188 1048.58,-491.524"/>
<ellipse fill="none" stroke="#4566db" cx="1020.87" cy="-599.61" rx="4.00001" ry="4.00001"/>
<polygon fill="#4566db" stroke="#4566db" points="1048.66,-491.213 1055.5,-482.645 1049.9,-486.37 1051.14,-481.527 1051.14,-481.527 1051.14,-481.527 1049.9,-486.37 1046.79,-480.409 1048.66,-491.213 1048.66,-491.213"/>
</g>
<!-- Prevaluation -->
<g id="node17" class="node"><title>Prevaluation</title>
<path fill="none" stroke="black" d="M1467.82,-818.5C1467.82,-818.5 1605.61,-818.5 1605.61,-818.5 1611.61,-818.5 1617.61,-824.5 1617.61,-830.5 1617.61,-830.5 1617.61,-1060.5 1617.61,-1060.5 1617.61,-1066.5 1611.61,-1072.5 1605.61,-1072.5 1605.61,-1072.5 1467.82,-1072.5 1467.82,-1072.5 1461.82,-1072.5 1455.82,-1066.5 1455.82,-1060.5 1455.82,-1060.5 1455.82,-830.5 1455.82,-830.5 1455.82,-824.5 1461.82,-818.5 1467.82,-818.5"/>
<text text-anchor="middle" x="1536.72" y="-1057.3" font-family="Times,serif" font-size="14.00">Prevaluation</text>
<polyline fill="none" stroke="black" points="1455.82,-1050.5 1617.61,-1050.5 "/>
<text text-anchor="start" x="1463.82" y="-1035.3" font-family="Times,serif" font-size="14.00">id :integer</text>
<text text-anchor="start" x="1463.82" y="-1021.3" font-family="Times,serif" font-size="14.00">number :string</text>
<text text-anchor="start" x="1463.82" y="-1007.3" font-family="Times,serif" font-size="14.00">policy :string</text>
<text text-anchor="start" x="1463.82" y="-993.3" font-family="Times,serif" font-size="14.00">subsection :string</text>
<text text-anchor="start" x="1463.82" y="-979.3" font-family="Times,serif" font-size="14.00">expedition_date :date</text>
<text text-anchor="start" x="1463.82" y="-965.3" font-family="Times,serif" font-size="14.00">valuation_date :date</text>
<text text-anchor="start" x="1463.82" y="-951.3" font-family="Times,serif" font-size="14.00">deductible_value :float</text>
<text text-anchor="start" x="1463.82" y="-937.3" font-family="Times,serif" font-size="14.00">commercial_value :float</text>
<text text-anchor="start" x="1463.82" y="-923.3" font-family="Times,serif" font-size="14.00">requires_crane :boolean</text>
<text text-anchor="start" x="1463.82" y="-909.3" font-family="Times,serif" font-size="14.00">collection_status :boolean</text>
<text text-anchor="start" x="1463.82" y="-895.3" font-family="Times,serif" font-size="14.00">special_conditions :string</text>
<text text-anchor="start" x="1463.82" y="-881.3" font-family="Times,serif" font-size="14.00">third_insured :boolean</text>
<text text-anchor="start" x="1463.82" y="-867.3" font-family="Times,serif" font-size="14.00">agent_name :string</text>
<text text-anchor="start" x="1463.82" y="-853.3" font-family="Times,serif" font-size="14.00">comment :text</text>
<text text-anchor="start" x="1463.82" y="-839.3" font-family="Times,serif" font-size="14.00">created_at :datetime</text>
<text text-anchor="start" x="1463.82" y="-825.3" font-family="Times,serif" font-size="14.00">updated_at :datetime</text>
</g>
<!-- Prevaluation&#45;&gt;Insured -->
<g id="edge29" class="edge"><title>Prevaluation&#45;&gt;Insured</title>
<path fill="none" stroke="#8f0f20" d="M1496.42,-810.495C1490.01,-789.196 1483.57,-767.77 1477.7,-748.249"/>
<ellipse fill="none" stroke="#8f0f20" cx="1497.59" cy="-814.382" rx="4.00001" ry="4.00001"/>
<polygon fill="#8f0f20" stroke="#8f0f20" points="1477.65,-748.104 1479.08,-737.232 1476.21,-743.316 1474.77,-738.528 1474.77,-738.528 1474.77,-738.528 1476.21,-743.316 1470.47,-739.824 1477.65,-748.104 1477.65,-748.104"/>
</g>
<!-- PrevaluationImage -->
<g id="node18" class="node"><title>PrevaluationImage</title>
<path fill="none" stroke="black" d="M1559.15,-624.5C1559.15,-624.5 1678.29,-624.5 1678.29,-624.5 1684.29,-624.5 1690.29,-630.5 1690.29,-636.5 1690.29,-636.5 1690.29,-698.5 1690.29,-698.5 1690.29,-704.5 1684.29,-710.5 1678.29,-710.5 1678.29,-710.5 1559.15,-710.5 1559.15,-710.5 1553.15,-710.5 1547.15,-704.5 1547.15,-698.5 1547.15,-698.5 1547.15,-636.5 1547.15,-636.5 1547.15,-630.5 1553.15,-624.5 1559.15,-624.5"/>
<text text-anchor="middle" x="1618.72" y="-695.3" font-family="Times,serif" font-size="14.00">PrevaluationImage</text>
<polyline fill="none" stroke="black" points="1547.15,-688.5 1690.29,-688.5 "/>
<text text-anchor="start" x="1555.15" y="-673.3" font-family="Times,serif" font-size="14.00">id :integer</text>
<text text-anchor="start" x="1555.15" y="-659.3" font-family="Times,serif" font-size="14.00">prevaluation_id :string</text>
<text text-anchor="start" x="1555.15" y="-645.3" font-family="Times,serif" font-size="14.00">created_at :datetime</text>
<text text-anchor="start" x="1555.15" y="-631.3" font-family="Times,serif" font-size="14.00">updated_at :datetime</text>
</g>
<!-- Prevaluation&#45;&gt;PrevaluationImage -->
<g id="edge31" class="edge"><title>Prevaluation&#45;&gt;PrevaluationImage</title>
<path fill="none" stroke="#f67c7b" d="M1576.53,-810.48C1586.05,-778.451 1595.65,-746.137 1603.28,-720.445"/>
<ellipse fill="none" stroke="#f67c7b" cx="1575.38" cy="-814.378" rx="4.00001" ry="4.00001"/>
<polygon fill="#f67c7b" stroke="#f67c7b" points="1603.37,-720.166 1610.53,-711.861 1604.79,-715.373 1606.21,-710.58 1606.21,-710.58 1606.21,-710.58 1604.79,-715.373 1601.9,-709.298 1603.37,-720.166 1603.37,-720.166"/>
</g>
<!-- Prevaluation&#45;&gt;StockCar -->
<g id="edge28" class="edge"><title>Prevaluation&#45;&gt;StockCar</title>
<path fill="none" stroke="#d95fb0" d="M1449.66,-862.649C1423.39,-837.059 1394.86,-808.354 1369.72,-781 1368.85,-780.056 1367.98,-779.105 1367.11,-778.147"/>
<ellipse fill="none" stroke="#d95fb0" cx="1452.71" cy="-865.612" rx="4.00002" ry="4.00002"/>
<polygon fill="#d95fb0" stroke="#d95fb0" points="1367.09,-778.131 1363.74,-767.69 1363.74,-774.417 1360.4,-770.703 1360.4,-770.703 1360.4,-770.703 1363.74,-774.417 1357.05,-773.715 1367.09,-778.131 1367.09,-778.131"/>
</g>
<!-- Valuation -->
<g id="node27" class="node"><title>Valuation</title>
<path fill="none" stroke="black" d="M1720.21,-617.5C1720.21,-617.5 1829.22,-617.5 1829.22,-617.5 1835.22,-617.5 1841.22,-623.5 1841.22,-629.5 1841.22,-629.5 1841.22,-705.5 1841.22,-705.5 1841.22,-711.5 1835.22,-717.5 1829.22,-717.5 1829.22,-717.5 1720.21,-717.5 1720.21,-717.5 1714.21,-717.5 1708.21,-711.5 1708.21,-705.5 1708.21,-705.5 1708.21,-629.5 1708.21,-629.5 1708.21,-623.5 1714.21,-617.5 1720.21,-617.5"/>
<text text-anchor="middle" x="1774.72" y="-702.3" font-family="Times,serif" font-size="14.00">Valuation</text>
<polyline fill="none" stroke="black" points="1708.21,-695.5 1841.22,-695.5 "/>
<text text-anchor="start" x="1716.21" y="-680.3" font-family="Times,serif" font-size="14.00">id :integer</text>
<text text-anchor="start" x="1716.21" y="-666.3" font-family="Times,serif" font-size="14.00">client_code :string</text>
<text text-anchor="start" x="1716.21" y="-652.3" font-family="Times,serif" font-size="14.00">edited_by :string</text>
<text text-anchor="start" x="1716.21" y="-638.3" font-family="Times,serif" font-size="14.00">created_at :datetime</text>
<text text-anchor="start" x="1716.21" y="-624.3" font-family="Times,serif" font-size="14.00">updated_at :datetime</text>
</g>
<!-- Prevaluation&#45;&gt;Valuation -->
<g id="edge30" class="edge"><title>Prevaluation&#45;&gt;Valuation</title>
<path fill="none" stroke="#32fb58" d="M1623.69,-863.558C1649.27,-838.112 1676.59,-809.259 1699.72,-781 1714.15,-763.366 1728.42,-742.929 1740.58,-724.349"/>
<ellipse fill="none" stroke="#32fb58" cx="1620.76" cy="-866.458" rx="4.00002" ry="4.00002"/>
<ellipse fill="#32fb58" stroke="#32fb58" cx="1742.78" cy="-720.953" rx="4.00002" ry="4.00002"/>
</g>
<!-- StockCarImage -->
<g id="node21" class="node"><title>StockCarImage</title>
<path fill="none" stroke="black" d="M1221.82,-388.5C1221.82,-388.5 1331.61,-388.5 1331.61,-388.5 1337.61,-388.5 1343.61,-394.5 1343.61,-400.5 1343.61,-400.5 1343.61,-462.5 1343.61,-462.5 1343.61,-468.5 1337.61,-474.5 1331.61,-474.5 1331.61,-474.5 1221.82,-474.5 1221.82,-474.5 1215.82,-474.5 1209.82,-468.5 1209.82,-462.5 1209.82,-462.5 1209.82,-400.5 1209.82,-400.5 1209.82,-394.5 1215.82,-388.5 1221.82,-388.5"/>
<text text-anchor="middle" x="1276.72" y="-459.3" font-family="Times,serif" font-size="14.00">StockCarImage</text>
<polyline fill="none" stroke="black" points="1209.82,-452.5 1343.61,-452.5 "/>
<text text-anchor="start" x="1217.82" y="-437.3" font-family="Times,serif" font-size="14.00">id :integer</text>
<text text-anchor="start" x="1217.82" y="-423.3" font-family="Times,serif" font-size="14.00">stock_car_id :integer</text>
<text text-anchor="start" x="1217.82" y="-409.3" font-family="Times,serif" font-size="14.00">created_at :datetime</text>
<text text-anchor="start" x="1217.82" y="-395.3" font-family="Times,serif" font-size="14.00">updated_at :datetime</text>
</g>
<!-- StockCar&#45;&gt;StockCarImage -->
<g id="edge32" class="edge"><title>StockCar&#45;&gt;StockCarImage</title>
<path fill="none" stroke="#7f1a9e" d="M1276.72,-545.977C1276.72,-524.459 1276.72,-503.099 1276.72,-484.814"/>
<ellipse fill="none" stroke="#7f1a9e" cx="1276.72" cy="-550.298" rx="4" ry="4"/>
<polygon fill="#7f1a9e" stroke="#7f1a9e" points="1276.72,-484.708 1281.22,-474.708 1276.72,-479.708 1276.72,-474.708 1276.72,-474.708 1276.72,-474.708 1276.72,-479.708 1272.22,-474.708 1276.72,-484.708 1276.72,-484.708"/>
</g>
<!-- StockSpareImage -->
<g id="node24" class="node"><title>StockSpareImage</title>
<path fill="none" stroke="black" d="M942.597,-0.5C942.597,-0.5 1064.83,-0.5 1064.83,-0.5 1070.83,-0.5 1076.83,-6.5 1076.83,-12.5 1076.83,-12.5 1076.83,-74.5 1076.83,-74.5 1076.83,-80.5 1070.83,-86.5 1064.83,-86.5 1064.83,-86.5 942.597,-86.5 942.597,-86.5 936.597,-86.5 930.597,-80.5 930.597,-74.5 930.597,-74.5 930.597,-12.5 930.597,-12.5 930.597,-6.5 936.597,-0.5 942.597,-0.5"/>
<text text-anchor="middle" x="1003.72" y="-71.3" font-family="Times,serif" font-size="14.00">StockSpareImage</text>
<polyline fill="none" stroke="black" points="930.597,-64.5 1076.83,-64.5 "/>
<text text-anchor="start" x="938.597" y="-49.3" font-family="Times,serif" font-size="14.00">id :integer</text>
<text text-anchor="start" x="938.597" y="-35.3" font-family="Times,serif" font-size="14.00">stock_spare_id :integer</text>
<text text-anchor="start" x="938.597" y="-21.3" font-family="Times,serif" font-size="14.00">created_at :datetime</text>
<text text-anchor="start" x="938.597" y="-7.3" font-family="Times,serif" font-size="14.00">updated_at :datetime</text>
</g>
<!-- StockSpare&#45;&gt;StockSpareImage -->
<g id="edge33" class="edge"><title>StockSpare&#45;&gt;StockSpareImage</title>
<path fill="none" stroke="#612b25" d="M1003.72,-116.457C1003.72,-109.761 1003.72,-103.179 1003.72,-96.8812"/>
<ellipse fill="none" stroke="#612b25" cx="1003.72" cy="-120.493" rx="4" ry="4"/>
<polygon fill="#612b25" stroke="#612b25" points="1003.72,-96.5794 1008.22,-86.5794 1003.72,-91.5794 1003.72,-86.5794 1003.72,-86.5794 1003.72,-86.5794 1003.72,-91.5794 999.216,-86.5795 1003.72,-96.5794 1003.72,-96.5794"/>
</g>
<!-- User -->
<g id="node26" class="node"><title>User</title>
<path fill="none" stroke="black" d="M434.652,-1262.5C434.652,-1262.5 560.78,-1262.5 560.78,-1262.5 566.78,-1262.5 572.78,-1268.5 572.78,-1274.5 572.78,-1274.5 572.78,-1406.5 572.78,-1406.5 572.78,-1412.5 566.78,-1418.5 560.78,-1418.5 560.78,-1418.5 434.652,-1418.5 434.652,-1418.5 428.652,-1418.5 422.652,-1412.5 422.652,-1406.5 422.652,-1406.5 422.652,-1274.5 422.652,-1274.5 422.652,-1268.5 428.652,-1262.5 434.652,-1262.5"/>
<text text-anchor="middle" x="497.716" y="-1403.3" font-family="Times,serif" font-size="14.00">User</text>
<polyline fill="none" stroke="black" points="422.652,-1396.5 572.78,-1396.5 "/>
<text text-anchor="start" x="430.652" y="-1381.3" font-family="Times,serif" font-size="14.00">id :integer</text>
<text text-anchor="start" x="430.652" y="-1367.3" font-family="Times,serif" font-size="14.00">name :string</text>
<text text-anchor="start" x="430.652" y="-1353.3" font-family="Times,serif" font-size="14.00">email :string</text>
<text text-anchor="start" x="430.652" y="-1339.3" font-family="Times,serif" font-size="14.00">username :string</text>
<text text-anchor="start" x="430.652" y="-1325.3" font-family="Times,serif" font-size="14.00">privileges :string</text>
<text text-anchor="start" x="430.652" y="-1311.3" font-family="Times,serif" font-size="14.00">created_at :datetime</text>
<text text-anchor="start" x="430.652" y="-1297.3" font-family="Times,serif" font-size="14.00">updated_at :datetime</text>
<text text-anchor="start" x="430.652" y="-1283.3" font-family="Times,serif" font-size="14.00">password_digest :string</text>
<text text-anchor="start" x="430.652" y="-1269.3" font-family="Times,serif" font-size="14.00">remember_token :string</text>
</g>
<!-- Warehouse -->
<g id="node28" class="node"><title>Warehouse</title>
<path fill="none" stroke="black" d="M1152.21,-888.5C1152.21,-888.5 1261.22,-888.5 1261.22,-888.5 1267.22,-888.5 1273.22,-894.5 1273.22,-900.5 1273.22,-900.5 1273.22,-990.5 1273.22,-990.5 1273.22,-996.5 1267.22,-1002.5 1261.22,-1002.5 1261.22,-1002.5 1152.21,-1002.5 1152.21,-1002.5 1146.21,-1002.5 1140.21,-996.5 1140.21,-990.5 1140.21,-990.5 1140.21,-900.5 1140.21,-900.5 1140.21,-894.5 1146.21,-888.5 1152.21,-888.5"/>
<text text-anchor="middle" x="1206.72" y="-987.3" font-family="Times,serif" font-size="14.00">Warehouse</text>
<polyline fill="none" stroke="black" points="1140.21,-980.5 1273.22,-980.5 "/>
<text text-anchor="start" x="1148.21" y="-965.3" font-family="Times,serif" font-size="14.00">id :integer</text>
<text text-anchor="start" x="1148.21" y="-951.3" font-family="Times,serif" font-size="14.00">branch :string</text>
<text text-anchor="start" x="1148.21" y="-937.3" font-family="Times,serif" font-size="14.00">location :string</text>
<text text-anchor="start" x="1148.21" y="-923.3" font-family="Times,serif" font-size="14.00">geolocation :string</text>
<text text-anchor="start" x="1148.21" y="-909.3" font-family="Times,serif" font-size="14.00">created_at :datetime</text>
<text text-anchor="start" x="1148.21" y="-895.3" font-family="Times,serif" font-size="14.00">updated_at :datetime</text>
</g>
<!-- Warehouse&#45;&gt;StockCar -->
<g id="edge35" class="edge"><title>Warehouse&#45;&gt;StockCar</title>
<path fill="none" stroke="#e67519" d="M1222.94,-880.525C1229.73,-853.764 1237.85,-821.728 1245.71,-790.762"/>
<ellipse fill="none" stroke="#e67519" cx="1221.95" cy="-884.437" rx="4.00001" ry="4.00001"/>
<polygon fill="#e67519" stroke="#e67519" points="1245.79,-790.447 1252.61,-781.86 1247.02,-785.6 1248.25,-780.754 1248.25,-780.754 1248.25,-780.754 1247.02,-785.6 1243.88,-779.648 1245.79,-790.447 1245.79,-790.447"/>
</g>
<!-- Warehouse&#45;&gt;StockSpare -->
<g id="edge34" class="edge"><title>Warehouse&#45;&gt;StockSpare</title>
<path fill="none" stroke="#f02c57" d="M1196.83,-879.923C1192.44,-849.893 1187.44,-813.672 1183.72,-781 1172.73,-684.589 1188.9,-432.897 1145.72,-346 1132.81,-320.032 1112.22,-296.843 1090.67,-277.553"/>
<ellipse fill="none" stroke="#f02c57" cx="1197.47" cy="-884.263" rx="4.00001" ry="4.00001"/>
<polygon fill="#f02c57" stroke="#f02c57" points="1090.56,-277.46 1085.98,-267.501 1086.79,-274.178 1083.02,-270.895 1083.02,-270.895 1083.02,-270.895 1086.79,-274.178 1080.07,-274.289 1090.56,-277.46 1090.56,-277.46"/>
</g>
</g>
</svg>
