<?xml version="1.0" encoding="UTF-8" standalone="no"?>
<!DOCTYPE svg PUBLIC "-//W3C//DTD SVG 1.1//EN"
 "http://www.w3.org/Graphics/SVG/1.1/DTD/svg11.dtd">
<!-- Generated by graphviz version 2.38.0 (20140413.2041)
 -->
<!-- Title: models_diagram Pages: 1 -->
<svg width="1242pt" height="300pt"
 viewBox="0.00 0.00 1241.78 300.00" xmlns="http://www.w3.org/2000/svg" xmlns:xlink="http://www.w3.org/1999/xlink">
<g id="graph0" class="graph" transform="scale(1 1) rotate(0) translate(4 296)">
<title>models_diagram</title>
<polygon fill="white" stroke="none" points="-4,4 -4,-296 1237.78,-296 1237.78,4 -4,4"/>
<!-- _diagram_info -->
<g id="node1" class="node"><title>_diagram_info</title>
<text text-anchor="start" x="640.179" y="-277.6" font-family="Times,serif" font-size="13.00">Models diagram</text>
<text text-anchor="start" x="640.179" y="-264.6" font-family="Times,serif" font-size="13.00">Date: Feb 03 2015 &#45; 14:31</text>
<text text-anchor="start" x="640.179" y="-251.6" font-family="Times,serif" font-size="13.00">Migration version: 20150113013129</text>
<text text-anchor="start" x="640.179" y="-238.6" font-family="Times,serif" font-size="13.00">Generated by RailRoady 1.3.0</text>
<text text-anchor="start" x="640.179" y="-225.6" font-family="Times,serif" font-size="13.00">http://railroady.prestonlee.com</text>
</g>
<!-- Brand -->
<g id="node2" class="node"><title>Brand</title>
<ellipse fill="none" stroke="black" cx="888.629" cy="-255.5" rx="31.9393" ry="18"/>
<text text-anchor="middle" x="888.629" y="-251.3" font-family="Times,serif" font-size="14.00">Brand</text>
</g>
<!-- GenericCar -->
<g id="node8" class="node"><title>GenericCar</title>
<ellipse fill="none" stroke="black" cx="937.629" cy="-164" rx="50.7224" ry="18"/>
<text text-anchor="middle" x="937.629" y="-159.8" font-family="Times,serif" font-size="14.00">GenericCar</text>
</g>
<!-- Brand&#45;&gt;GenericCar -->
<g id="edge1" class="edge"><title>Brand&#45;&gt;GenericCar</title>
<path fill="none" stroke="#f07a97" d="M901.539,-230.918C908.259,-218.645 916.489,-203.612 923.392,-191.004"/>
<ellipse fill="none" stroke="#f07a97" cx="899.537" cy="-234.576" rx="4.00002" ry="4.00002"/>
<polygon fill="#f07a97" stroke="#f07a97" points="923.563,-190.691 932.312,-184.081 925.964,-186.305 928.365,-181.92 928.365,-181.92 928.365,-181.92 925.964,-186.305 924.418,-179.759 923.563,-190.691 923.563,-190.691"/>
</g>
<!-- ModelAcronym -->
<g id="node14" class="node"><title>ModelAcronym</title>
<ellipse fill="none" stroke="black" cx="654.629" cy="-164" rx="66.6925" ry="18"/>
<text text-anchor="middle" x="654.629" y="-159.8" font-family="Times,serif" font-size="14.00">ModelAcronym</text>
</g>
<!-- Brand&#45;&gt;ModelAcronym -->
<g id="edge2" class="edge"><title>Brand&#45;&gt;ModelAcronym</title>
<path fill="none" stroke="#26adfb" d="M867.976,-233.52C861.834,-228.179 854.815,-222.863 847.629,-219 824.525,-206.581 761.688,-190.059 713.935,-178.575"/>
<ellipse fill="none" stroke="#26adfb" cx="871.308" cy="-236.563" rx="4.00002" ry="4.00002"/>
<polygon fill="#26adfb" stroke="#26adfb" points="713.72,-178.524 705.037,-171.827 708.857,-177.364 703.993,-176.204 703.993,-176.204 703.993,-176.204 708.857,-177.364 702.949,-180.582 713.72,-178.524 713.72,-178.524"/>
</g>
<!-- Car -->
<g id="node3" class="node"><title>Car</title>
<ellipse fill="none" stroke="black" cx="262.629" cy="-91" rx="27" ry="18"/>
<text text-anchor="middle" x="262.629" y="-86.8" font-family="Times,serif" font-size="14.00">Car</text>
</g>
<!-- CarSpareAlloy -->
<g id="node4" class="node"><title>CarSpareAlloy</title>
<ellipse fill="none" stroke="black" cx="863.629" cy="-18" rx="63.3097" ry="18"/>
<text text-anchor="middle" x="863.629" y="-13.8" font-family="Times,serif" font-size="14.00">CarSpareAlloy</text>
</g>
<!-- Family -->
<g id="node5" class="node"><title>Family</title>
<ellipse fill="none" stroke="black" cx="472.629" cy="-164" rx="35.3303" ry="18"/>
<text text-anchor="middle" x="472.629" y="-159.8" font-family="Times,serif" font-size="14.00">Family</text>
</g>
<!-- FamilyGenericSpareAlloy -->
<g id="node6" class="node"><title>FamilyGenericSpareAlloy</title>
<ellipse fill="none" stroke="black" cx="410.629" cy="-91" rx="103.359" ry="18"/>
<text text-anchor="middle" x="410.629" y="-86.8" font-family="Times,serif" font-size="14.00">FamilyGenericSpareAlloy</text>
</g>
<!-- Family&#45;&gt;FamilyGenericSpareAlloy -->
<g id="edge3" class="edge"><title>Family&#45;&gt;FamilyGenericSpareAlloy</title>
<path fill="none" stroke="#eefaec" d="M453.483,-141.075C446.709,-133.317 439.045,-124.541 432.091,-116.578"/>
<ellipse fill="none" stroke="#eefaec" cx="456.238" cy="-144.23" rx="4.00002" ry="4.00002"/>
<polygon fill="#eefaec" stroke="#eefaec" points="432.01,-116.485 428.822,-105.993 428.721,-112.719 425.432,-108.953 425.432,-108.953 425.432,-108.953 428.721,-112.719 422.043,-111.913 432.01,-116.485 432.01,-116.485"/>
</g>
<!-- GenericSpare -->
<g id="node11" class="node"><title>GenericSpare</title>
<ellipse fill="none" stroke="black" cx="590.629" cy="-91" rx="58.4563" ry="18"/>
<text text-anchor="middle" x="590.629" y="-86.8" font-family="Times,serif" font-size="14.00">GenericSpare</text>
</g>
<!-- Family&#45;&gt;GenericSpare -->
<g id="edge4" class="edge"><title>Family&#45;&gt;GenericSpare</title>
<path fill="none" stroke="#93086e" d="M503.238,-144.583C519.459,-134.822 539.44,-122.8 556.2,-112.715"/>
<polygon fill="#93086e" stroke="#93086e" points="503.115,-144.656 492.227,-145.956 498.831,-147.234 494.547,-149.812 494.547,-149.812 494.547,-149.812 498.831,-147.234 496.867,-153.668 503.115,-144.656 503.115,-144.656"/>
<polygon fill="#93086e" stroke="#93086e" points="556.567,-112.495 567.456,-111.195 560.851,-109.917 565.136,-107.339 565.136,-107.339 565.136,-107.339 560.851,-109.917 562.816,-103.483 556.567,-112.495 556.567,-112.495"/>
</g>
<!-- Generation -->
<g id="node7" class="node"><title>Generation</title>
<ellipse fill="none" stroke="black" cx="1031.63" cy="-255.5" rx="49.286" ry="18"/>
<text text-anchor="middle" x="1031.63" y="-251.3" font-family="Times,serif" font-size="14.00">Generation</text>
</g>
<!-- Generation&#45;&gt;GenericCar -->
<g id="edge5" class="edge"><title>Generation&#45;&gt;GenericCar</title>
<path fill="none" stroke="#93412f" d="M1007.16,-231.201C993.225,-217.935 975.831,-201.374 961.927,-188.135"/>
<polygon fill="#93412f" stroke="#93412f" points="1007.58,-231.604 1011.72,-241.758 1011.2,-235.051 1014.82,-238.499 1014.82,-238.499 1014.82,-238.499 1011.2,-235.051 1017.93,-235.24 1007.58,-231.604 1007.58,-231.604"/>
<polygon fill="#93412f" stroke="#93412f" points="961.848,-188.06 957.708,-177.905 958.226,-184.612 954.605,-181.164 954.605,-181.164 954.605,-181.164 958.226,-184.612 951.502,-184.423 961.848,-188.06 961.848,-188.06"/>
</g>
<!-- GenericCarGeneration -->
<g id="node9" class="node"><title>GenericCarGeneration</title>
<ellipse fill="none" stroke="black" cx="1143.63" cy="-91" rx="90.2944" ry="18"/>
<text text-anchor="middle" x="1143.63" y="-86.8" font-family="Times,serif" font-size="14.00">GenericCarGeneration</text>
</g>
<!-- Generation&#45;&gt;GenericCarGeneration -->
<g id="edge6" class="edge"><title>Generation&#45;&gt;GenericCarGeneration</title>
<path fill="none" stroke="#9b6d16" d="M1047.78,-231.072C1068.57,-200.898 1104.59,-148.64 1126.06,-117.495"/>
<ellipse fill="none" stroke="#9b6d16" cx="1045.46" cy="-234.428" rx="4.00002" ry="4.00002"/>
<polygon fill="#9b6d16" stroke="#9b6d16" points="1126.28,-117.164 1135.66,-111.484 1129.12,-113.047 1131.96,-108.93 1131.96,-108.93 1131.96,-108.93 1129.12,-113.047 1128.25,-106.377 1126.28,-117.164 1126.28,-117.164"/>
</g>
<!-- GenericCar&#45;&gt;Car -->
<g id="edge7" class="edge"><title>GenericCar&#45;&gt;Car</title>
<path fill="none" stroke="#103a66" d="M887.165,-152.483C874.016,-150.043 859.833,-147.673 846.629,-146 604.455,-115.311 534.888,-170.41 298.629,-109 296.454,-108.435 294.252,-107.739 292.064,-106.955"/>
<ellipse fill="none" stroke="#103a66" cx="891.269" cy="-153.261" rx="4.00001" ry="4.00001"/>
<polygon fill="#103a66" stroke="#103a66" points="291.933,-106.902 284.408,-98.9254 287.312,-104.993 282.691,-103.085 282.691,-103.085 282.691,-103.085 287.312,-104.993 280.973,-107.244 291.933,-106.902 291.933,-106.902"/>
</g>
<!-- GenericCar&#45;&gt;CarSpareAlloy -->
<g id="edge8" class="edge"><title>GenericCar&#45;&gt;CarSpareAlloy</title>
<path fill="none" stroke="#147c92" d="M972.88,-144.568C985.991,-135.72 999.423,-123.789 1006.63,-109 1013.64,-94.6164 1015.73,-86.1613 1006.63,-73 989.552,-48.2984 959.632,-34.8835 931.559,-27.6035"/>
<ellipse fill="none" stroke="#147c92" cx="969.457" cy="-146.758" rx="4.00002" ry="4.00002"/>
<polygon fill="#147c92" stroke="#147c92" points="931.462,-27.5804 922.768,-20.897 926.596,-26.4281 921.731,-25.2759 921.731,-25.2759 921.731,-25.2759 926.596,-26.4281 920.694,-29.6548 931.462,-27.5804 931.462,-27.5804"/>
</g>
<!-- GenericCar&#45;&gt;GenericCarGeneration -->
<g id="edge11" class="edge"><title>GenericCar&#45;&gt;GenericCarGeneration</title>
<path fill="none" stroke="#16f0b9" d="M980.629,-148.274C998.833,-142.032 1020.27,-134.672 1039.63,-128 1056.39,-122.223 1074.66,-115.905 1091.15,-110.196"/>
<ellipse fill="none" stroke="#16f0b9" cx="976.824" cy="-149.578" rx="4.00001" ry="4.00001"/>
<polygon fill="#16f0b9" stroke="#16f0b9" points="1091.18,-110.187 1102.1,-111.166 1095.9,-108.55 1100.63,-106.914 1100.63,-106.914 1100.63,-106.914 1095.9,-108.55 1099.16,-102.662 1091.18,-110.187 1091.18,-110.187"/>
</g>
<!-- GenericImage -->
<g id="node10" class="node"><title>GenericImage</title>
<ellipse fill="none" stroke="black" cx="937.629" cy="-91" rx="60.3768" ry="18"/>
<text text-anchor="middle" x="937.629" y="-86.8" font-family="Times,serif" font-size="14.00">GenericImage</text>
</g>
<!-- GenericCar&#45;&gt;GenericImage -->
<g id="edge9" class="edge"><title>GenericCar&#45;&gt;GenericImage</title>
<path fill="none" stroke="#2708a4" d="M937.629,-137.791C937.629,-131.832 937.629,-125.45 937.629,-119.399"/>
<ellipse fill="none" stroke="#2708a4" cx="937.629" cy="-141.813" rx="4" ry="4"/>
<polygon fill="#2708a4" stroke="#2708a4" points="937.629,-119.029 942.129,-109.029 937.629,-114.029 937.629,-109.029 937.629,-109.029 937.629,-109.029 937.629,-114.029 933.129,-109.029 937.629,-119.029 937.629,-119.029"/>
</g>
<!-- GenericCar&#45;&gt;GenericSpare -->
<g id="edge10" class="edge"><title>GenericCar&#45;&gt;GenericSpare</title>
<path fill="none" stroke="#b05c8c" d="M898.841,-145.206C882.953,-138.568 864.2,-131.547 846.629,-127 786.748,-111.505 769.907,-117.41 708.629,-109 690.203,-106.471 670.173,-103.623 651.937,-100.991"/>
<polygon fill="#b05c8c" stroke="#b05c8c" points="899.134,-145.331 906.558,-153.402 903.731,-147.298 908.328,-149.265 908.328,-149.265 908.328,-149.265 903.731,-147.298 910.098,-145.127 899.134,-145.331 899.134,-145.331"/>
<polygon fill="#b05c8c" stroke="#b05c8c" points="651.908,-100.987 642.656,-95.1014 646.959,-100.271 642.011,-99.555 642.011,-99.555 642.011,-99.555 646.959,-100.271 641.366,-104.009 651.908,-100.987 651.908,-100.987"/>
</g>
<!-- GenericSpare&#45;&gt;CarSpareAlloy -->
<g id="edge12" class="edge"><title>GenericSpare&#45;&gt;CarSpareAlloy</title>
<path fill="none" stroke="#d580fe" d="M641.517,-76.7653C689.136,-64.381 760.065,-45.9342 808.891,-33.2357"/>
<ellipse fill="none" stroke="#d580fe" cx="637.456" cy="-77.8213" rx="4.00001" ry="4.00001"/>
<polygon fill="#d580fe" stroke="#d580fe" points="808.975,-33.2139 819.786,-35.052 813.814,-31.9554 818.653,-30.6969 818.653,-30.6969 818.653,-30.6969 813.814,-31.9554 817.521,-26.3417 808.975,-33.2139 808.975,-33.2139"/>
</g>
<!-- GenericSpare&#45;&gt;GenericSpare -->
<g id="edge14" class="edge"><title>GenericSpare&#45;&gt;GenericSpare</title>
<path fill="none" stroke="#a50189" d="M655.238,-96.6633C662.302,-95.5822 666.856,-93.6944 666.856,-91 666.856,-88.3056 662.302,-86.4178 655.238,-85.3367"/>
<polygon fill="#a50189" stroke="#a50189" points="655.059,-96.6797 644.687,-93.1204 650.08,-97.1405 645.102,-97.6013 645.102,-97.6013 645.102,-97.6013 650.08,-97.1405 645.516,-102.082 655.059,-96.6797 655.059,-96.6797"/>
<polygon fill="#a50189" stroke="#a50189" points="655.059,-85.3203 645.516,-79.9179 650.08,-84.8595 645.102,-84.3987 645.102,-84.3987 645.102,-84.3987 650.08,-84.8595 644.687,-88.8796 655.059,-85.3203 655.059,-85.3203"/>
<text text-anchor="middle" x="683.577" y="-86.8" font-family="Times,serif" font-size="14.00">childs</text>
</g>
<!-- GenericSpareFamily -->
<g id="node12" class="node"><title>GenericSpareFamily</title>
<ellipse fill="none" stroke="black" cx="458.629" cy="-18" rx="83.0718" ry="18"/>
<text text-anchor="middle" x="458.629" y="-13.8" font-family="Times,serif" font-size="14.00">GenericSpareFamily</text>
</g>
<!-- GenericSpare&#45;&gt;GenericSpareFamily -->
<g id="edge13" class="edge"><title>GenericSpare&#45;&gt;GenericSpareFamily</title>
<path fill="none" stroke="#13e15b" d="M555.752,-71.2405C537.724,-61.5439 515.679,-49.686 497.15,-39.72"/>
<ellipse fill="none" stroke="#13e15b" cx="559.434" cy="-73.2212" rx="4.00002" ry="4.00002"/>
<polygon fill="#13e15b" stroke="#13e15b" points="496.904,-39.5873 490.228,-30.8872 492.5,-37.2188 488.097,-34.8502 488.097,-34.8502 488.097,-34.8502 492.5,-37.2188 485.965,-38.8133 496.904,-39.5873 496.904,-39.5873"/>
</g>
<!-- Spare -->
<g id="node18" class="node"><title>Spare</title>
<ellipse fill="none" stroke="black" cx="590.629" cy="-18" rx="30.4862" ry="18"/>
<text text-anchor="middle" x="590.629" y="-13.8" font-family="Times,serif" font-size="14.00">Spare</text>
</g>
<!-- GenericSpare&#45;&gt;Spare -->
<g id="edge15" class="edge"><title>GenericSpare&#45;&gt;Spare</title>
<path fill="none" stroke="#8e2a78" d="M590.629,-64.791C590.629,-58.832 590.629,-52.4496 590.629,-46.3988"/>
<ellipse fill="none" stroke="#8e2a78" cx="590.629" cy="-68.8129" rx="4" ry="4"/>
<polygon fill="#8e2a78" stroke="#8e2a78" points="590.629,-46.0288 595.129,-36.0288 590.629,-41.0288 590.629,-36.0288 590.629,-36.0288 590.629,-36.0288 590.629,-41.0288 586.129,-36.0289 590.629,-46.0288 590.629,-46.0288"/>
</g>
<!-- Insured -->
<g id="node13" class="node"><title>Insured</title>
<ellipse fill="none" stroke="black" cx="36.6286" cy="-91" rx="36.7576" ry="18"/>
<text text-anchor="middle" x="36.6286" y="-86.8" font-family="Times,serif" font-size="14.00">Insured</text>
</g>
<!-- MoldComponent -->
<g id="node15" class="node"><title>MoldComponent</title>
<ellipse fill="none" stroke="black" cx="788.629" cy="-91" rx="70.5772" ry="18"/>
<text text-anchor="middle" x="788.629" y="-86.8" font-family="Times,serif" font-size="14.00">MoldComponent</text>
</g>
<!-- MoldSpare -->
<g id="node16" class="node"><title>MoldSpare</title>
<ellipse fill="none" stroke="black" cx="788.629" cy="-164" rx="49.3119" ry="18"/>
<text text-anchor="middle" x="788.629" y="-159.8" font-family="Times,serif" font-size="14.00">MoldSpare</text>
</g>
<!-- MoldSpare&#45;&gt;GenericSpare -->
<g id="edge16" class="edge"><title>MoldSpare&#45;&gt;GenericSpare</title>
<path fill="none" stroke="#5cdb1b" d="M746.822,-148.009C714.58,-136.447 670.018,-120.468 636.742,-108.535"/>
<ellipse fill="none" stroke="#5cdb1b" cx="750.826" cy="-149.444" rx="4.00001" ry="4.00001"/>
<polygon fill="#5cdb1b" stroke="#5cdb1b" points="636.653,-108.504 628.759,-100.892 631.946,-106.816 627.24,-105.128 627.24,-105.128 627.24,-105.128 631.946,-106.816 625.721,-109.364 636.653,-108.504 636.653,-108.504"/>
</g>
<!-- MoldSpare&#45;&gt;MoldComponent -->
<g id="edge17" class="edge"><title>MoldSpare&#45;&gt;MoldComponent</title>
<path fill="none" stroke="#0b641f" d="M788.629,-137.791C788.629,-131.832 788.629,-125.45 788.629,-119.399"/>
<ellipse fill="none" stroke="#0b641f" cx="788.629" cy="-141.813" rx="4" ry="4"/>
<polygon fill="#0b641f" stroke="#0b641f" points="788.629,-119.029 793.129,-109.029 788.629,-114.029 788.629,-109.029 788.629,-109.029 788.629,-109.029 788.629,-114.029 784.129,-109.029 788.629,-119.029 788.629,-119.029"/>
</g>
<!-- Prevaluation -->
<g id="node17" class="node"><title>Prevaluation</title>
<ellipse fill="none" stroke="black" cx="135.629" cy="-164" rx="54.6076" ry="18"/>
<text text-anchor="middle" x="135.629" y="-159.8" font-family="Times,serif" font-size="14.00">Prevaluation</text>
</g>
<!-- Prevaluation&#45;&gt;Car -->
<g id="edge18" class="edge"><title>Prevaluation&#45;&gt;Car</title>
<path fill="none" stroke="#970511" d="M169.267,-144.194C189.368,-132.957 214.638,-118.829 233.818,-108.107"/>
<ellipse fill="none" stroke="#970511" cx="165.743" cy="-146.164" rx="4.00002" ry="4.00002"/>
<polygon fill="#970511" stroke="#970511" points="233.966,-108.024 244.89,-107.072 238.33,-105.584 242.694,-103.144 242.694,-103.144 242.694,-103.144 238.33,-105.584 240.498,-99.2165 233.966,-108.024 233.966,-108.024"/>
</g>
<!-- Prevaluation&#45;&gt;Insured -->
<g id="edge19" class="edge"><title>Prevaluation&#45;&gt;Insured</title>
<path fill="none" stroke="#426b2d" d="M106.974,-142.45C93.7059,-132.934 77.993,-121.665 64.7868,-112.194"/>
<ellipse fill="none" stroke="#426b2d" cx="110.407" cy="-144.912" rx="4.00002" ry="4.00002"/>
<polygon fill="#426b2d" stroke="#426b2d" points="64.6476,-112.094 59.1439,-102.61 60.5844,-109.18 56.5213,-106.267 56.5213,-106.267 56.5213,-106.267 60.5844,-109.18 53.8987,-109.923 64.6476,-112.094 64.6476,-112.094"/>
</g>
<!-- Valuation -->
<g id="node20" class="node"><title>Valuation</title>
<ellipse fill="none" stroke="black" cx="135.629" cy="-91" rx="43.9992" ry="18"/>
<text text-anchor="middle" x="135.629" y="-86.8" font-family="Times,serif" font-size="14.00">Valuation</text>
</g>
<!-- Prevaluation&#45;&gt;Valuation -->
<g id="edge20" class="edge"><title>Prevaluation&#45;&gt;Valuation</title>
<path fill="none" stroke="#342584" d="M135.629,-137.791C135.629,-131.087 135.629,-123.847 135.629,-117.147"/>
<ellipse fill="none" stroke="#342584" cx="135.629" cy="-141.813" rx="4" ry="4"/>
<ellipse fill="#342584" stroke="#342584" cx="135.629" cy="-113.029" rx="4" ry="4"/>
</g>
<!-- User -->
<g id="node19" class="node"><title>User</title>
<ellipse fill="none" stroke="black" cx="1125.63" cy="-255.5" rx="27" ry="18"/>
<text text-anchor="middle" x="1125.63" y="-251.3" font-family="Times,serif" font-size="14.00">User</text>
</g>
<!-- Warehouse -->
<g id="node21" class="node"><title>Warehouse</title>
<ellipse fill="none" stroke="black" cx="259.629" cy="-164" rx="49.3546" ry="18"/>
<text text-anchor="middle" x="259.629" y="-159.8" font-family="Times,serif" font-size="14.00">Warehouse</text>
</g>
<!-- Warehouse&#45;&gt;Car -->
<g id="edge22" class="edge"><title>Warehouse&#45;&gt;Car</title>
<path fill="none" stroke="#116edc" d="M260.694,-137.791C260.946,-131.832 261.215,-125.45 261.471,-119.399"/>
<ellipse fill="none" stroke="#116edc" cx="260.524" cy="-141.816" rx="4" ry="4"/>
<polygon fill="#116edc" stroke="#116edc" points="261.487,-119.02 266.405,-109.219 261.698,-114.024 261.909,-109.029 261.909,-109.029 261.909,-109.029 261.698,-114.024 257.413,-108.839 261.487,-119.02 261.487,-119.02"/>
</g>
<!-- Warehouse&#45;&gt;Spare -->
<g id="edge21" class="edge"><title>Warehouse&#45;&gt;Spare</title>
<path fill="none" stroke="#702945" d="M239.591,-140.139C224.722,-120.337 209.705,-91.9658 226.629,-73 274.877,-18.9285 480.555,-54.4751 550.629,-36 553.118,-35.3435 555.655,-34.56 558.182,-33.695"/>
<ellipse fill="none" stroke="#702945" cx="242.112" cy="-143.353" rx="4.00002" ry="4.00002"/>
<polygon fill="#702945" stroke="#702945" points="558.414,-33.607 569.36,-34.2568 563.087,-31.8289 567.76,-30.0509 567.76,-30.0509 567.76,-30.0509 563.087,-31.8289 566.16,-25.845 558.414,-33.607 558.414,-33.607"/>
</g>
</g>
</svg>
