<?xml version="1.0" encoding="UTF-8" standalone="no"?>
<!DOCTYPE svg PUBLIC "-//W3C//DTD SVG 1.1//EN"
 "http://www.w3.org/Graphics/SVG/1.1/DTD/svg11.dtd">
<!-- Generated by graphviz version 2.38.0 (20140413.2041)
 -->
<!-- Title: models_diagram Pages: 1 -->
<svg width="1370pt" height="446pt"
 viewBox="0.00 0.00 1370.15 446.00" xmlns="http://www.w3.org/2000/svg" xmlns:xlink="http://www.w3.org/1999/xlink">
<g id="graph0" class="graph" transform="scale(1 1) rotate(0) translate(4 442)">
<title>models_diagram</title>
<polygon fill="white" stroke="none" points="-4,4 -4,-442 1366.15,-442 1366.15,4 -4,4"/>
<!-- _diagram_info -->
<g id="node1" class="node"><title>_diagram_info</title>
<text text-anchor="start" x="183.459" y="-423.6" font-family="Times,serif" font-size="13.00">Models diagram</text>
<text text-anchor="start" x="183.459" y="-410.6" font-family="Times,serif" font-size="13.00">Date: Mar 09 2015 &#45; 18:10</text>
<text text-anchor="start" x="183.459" y="-397.6" font-family="Times,serif" font-size="13.00">Migration version: 20150305181843</text>
<text text-anchor="start" x="183.459" y="-384.6" font-family="Times,serif" font-size="13.00">Generated by RailRoady 1.3.0</text>
<text text-anchor="start" x="183.459" y="-371.6" font-family="Times,serif" font-size="13.00">http://railroady.prestonlee.com</text>
</g>
<!-- Brand -->
<g id="node2" class="node"><title>Brand</title>
<ellipse fill="none" stroke="black" cx="188.147" cy="-310" rx="31.9393" ry="18"/>
<text text-anchor="middle" x="188.147" y="-305.8" font-family="Times,serif" font-size="14.00">Brand</text>
</g>
<!-- ModelAcronym -->
<g id="node13" class="node"><title>ModelAcronym</title>
<ellipse fill="none" stroke="black" cx="188.147" cy="-237" rx="66.6925" ry="18"/>
<text text-anchor="middle" x="188.147" y="-232.8" font-family="Times,serif" font-size="14.00">ModelAcronym</text>
</g>
<!-- Brand&#45;&gt;ModelAcronym -->
<g id="edge1" class="edge"><title>Brand&#45;&gt;ModelAcronym</title>
<path fill="none" stroke="#730a3d" d="M188.147,-283.791C188.147,-277.832 188.147,-271.45 188.147,-265.399"/>
<ellipse fill="none" stroke="#730a3d" cx="188.147" cy="-287.813" rx="4" ry="4"/>
<polygon fill="#730a3d" stroke="#730a3d" points="188.147,-265.029 192.647,-255.029 188.147,-260.029 188.147,-255.029 188.147,-255.029 188.147,-255.029 188.147,-260.029 183.647,-255.029 188.147,-265.029 188.147,-265.029"/>
</g>
<!-- CarType -->
<g id="node3" class="node"><title>CarType</title>
<ellipse fill="none" stroke="black" cx="441.147" cy="-401.5" rx="40.3571" ry="18"/>
<text text-anchor="middle" x="441.147" y="-397.3" font-family="Times,serif" font-size="14.00">CarType</text>
</g>
<!-- GenericCar -->
<g id="node5" class="node"><title>GenericCar</title>
<ellipse fill="none" stroke="black" cx="283.147" cy="-164" rx="50.7224" ry="18"/>
<text text-anchor="middle" x="283.147" y="-159.8" font-family="Times,serif" font-size="14.00">GenericCar</text>
</g>
<!-- CarType&#45;&gt;GenericCar -->
<g id="edge2" class="edge"><title>CarType&#45;&gt;GenericCar</title>
<path fill="none" stroke="#78c543" d="M414.569,-380.738C382.514,-355.365 329.535,-308.214 302.147,-255 292.067,-235.415 287.334,-210.808 285.112,-192.276"/>
<ellipse fill="none" stroke="#78c543" cx="417.922" cy="-383.354" rx="4.00002" ry="4.00002"/>
<polygon fill="#78c543" stroke="#78c543" points="285.093,-192.098 288.548,-181.691 284.583,-187.124 284.072,-182.151 284.072,-182.151 284.072,-182.151 284.583,-187.124 279.595,-182.61 285.093,-192.098 285.093,-192.098"/>
</g>
<!-- GenericFamily -->
<g id="node8" class="node"><title>GenericFamily</title>
<ellipse fill="none" stroke="black" cx="441.147" cy="-310" rx="63.301" ry="18"/>
<text text-anchor="middle" x="441.147" y="-305.8" font-family="Times,serif" font-size="14.00">GenericFamily</text>
</g>
<!-- CarType&#45;&gt;GenericFamily -->
<g id="edge4" class="edge"><title>CarType&#45;&gt;GenericFamily</title>
<path fill="none" stroke="#ab585f" d="M441.147,-373.21C441.147,-362.106 441.147,-349.301 441.147,-338.206"/>
<polygon fill="#ab585f" stroke="#ab585f" points="441.147,-373.243 436.647,-383.243 441.147,-378.243 441.147,-383.243 441.147,-383.243 441.147,-383.243 441.147,-378.243 445.647,-383.244 441.147,-373.243 441.147,-373.243"/>
<polygon fill="#ab585f" stroke="#ab585f" points="441.147,-338.204 445.647,-328.203 441.147,-333.204 441.147,-328.204 441.147,-328.204 441.147,-328.204 441.147,-333.204 436.647,-328.204 441.147,-338.204 441.147,-338.204"/>
</g>
<!-- TypeLikelihood -->
<g id="node24" class="node"><title>TypeLikelihood</title>
<ellipse fill="none" stroke="black" cx="543.147" cy="-237" rx="66.4333" ry="18"/>
<text text-anchor="middle" x="543.147" y="-232.8" font-family="Times,serif" font-size="14.00">TypeLikelihood</text>
</g>
<!-- CarType&#45;&gt;TypeLikelihood -->
<g id="edge3" class="edge"><title>CarType&#45;&gt;TypeLikelihood</title>
<path fill="none" stroke="#a35723" d="M466.729,-380.763C474.119,-375.395 482.308,-369.756 490.147,-365 521.585,-345.928 544.815,-359.279 564.147,-328 576.198,-308.501 568.259,-282.737 558.887,-263.772"/>
<ellipse fill="none" stroke="#a35723" cx="463.418" cy="-383.207" rx="4.00002" ry="4.00002"/>
<polygon fill="#a35723" stroke="#a35723" points="558.811,-263.629 558.075,-252.688 556.458,-259.217 554.105,-254.805 554.105,-254.805 554.105,-254.805 556.458,-259.217 550.134,-256.923 558.811,-263.629 558.811,-263.629"/>
</g>
<!-- Generation -->
<g id="node4" class="node"><title>Generation</title>
<ellipse fill="none" stroke="black" cx="54.1471" cy="-237" rx="49.286" ry="18"/>
<text text-anchor="middle" x="54.1471" y="-232.8" font-family="Times,serif" font-size="14.00">Generation</text>
</g>
<!-- Generation&#45;&gt;GenericCar -->
<g id="edge6" class="edge"><title>Generation&#45;&gt;GenericCar</title>
<path fill="none" stroke="#b9322c" d="M100.088,-221.756C139.723,-209.468 196.708,-191.8 236.537,-179.451"/>
<polygon fill="#b9322c" stroke="#b9322c" points="99.9843,-221.788 89.1002,-220.452 95.2086,-223.269 90.4328,-224.75 90.4328,-224.75 90.4328,-224.75 95.2086,-223.269 91.7655,-229.048 99.9843,-221.788 99.9843,-221.788"/>
<polygon fill="#b9322c" stroke="#b9322c" points="236.721,-179.394 247.605,-180.731 241.497,-177.913 246.273,-176.433 246.273,-176.433 246.273,-176.433 241.497,-177.913 244.94,-172.134 236.721,-179.394 236.721,-179.394"/>
</g>
<!-- GenericCarGeneration -->
<g id="node6" class="node"><title>GenericCarGeneration</title>
<ellipse fill="none" stroke="black" cx="90.1471" cy="-91" rx="90.2944" ry="18"/>
<text text-anchor="middle" x="90.1471" y="-86.8" font-family="Times,serif" font-size="14.00">GenericCarGeneration</text>
</g>
<!-- Generation&#45;&gt;GenericCarGeneration -->
<g id="edge5" class="edge"><title>Generation&#45;&gt;GenericCarGeneration</title>
<path fill="none" stroke="#f2b771" d="M60.4377,-210.838C66.8827,-185.058 76.866,-145.124 83.4539,-118.773"/>
<ellipse fill="none" stroke="#f2b771" cx="59.3883" cy="-215.035" rx="4.00001" ry="4.00001"/>
<polygon fill="#f2b771" stroke="#f2b771" points="83.4562,-118.763 90.2473,-110.153 84.6689,-113.913 85.8816,-109.062 85.8816,-109.062 85.8816,-109.062 84.6689,-113.913 81.516,-107.97 83.4562,-118.763 83.4562,-118.763"/>
</g>
<!-- GenericCar&#45;&gt;GenericCarGeneration -->
<g id="edge9" class="edge"><title>GenericCar&#45;&gt;GenericCarGeneration</title>
<path fill="none" stroke="#0b73b3" d="M241.495,-147.677C211.928,-136.8 172.076,-122.14 140.688,-110.593"/>
<ellipse fill="none" stroke="#0b73b3" cx="245.333" cy="-149.089" rx="4.00001" ry="4.00001"/>
<polygon fill="#0b73b3" stroke="#0b73b3" points="140.625,-110.57 132.794,-102.894 135.932,-108.843 131.24,-107.117 131.24,-107.117 131.24,-107.117 135.932,-108.843 129.686,-111.34 140.625,-110.57 140.625,-110.57"/>
</g>
<!-- GenericCarImage -->
<g id="node7" class="node"><title>GenericCarImage</title>
<ellipse fill="none" stroke="black" cx="283.147" cy="-91" rx="72.9135" ry="18"/>
<text text-anchor="middle" x="283.147" y="-86.8" font-family="Times,serif" font-size="14.00">GenericCarImage</text>
</g>
<!-- GenericCar&#45;&gt;GenericCarImage -->
<g id="edge10" class="edge"><title>GenericCar&#45;&gt;GenericCarImage</title>
<path fill="none" stroke="#3d4c3a" d="M283.147,-137.791C283.147,-131.832 283.147,-125.45 283.147,-119.399"/>
<ellipse fill="none" stroke="#3d4c3a" cx="283.147" cy="-141.813" rx="4" ry="4"/>
<polygon fill="#3d4c3a" stroke="#3d4c3a" points="283.147,-119.029 287.647,-109.029 283.147,-114.029 283.147,-109.029 283.147,-109.029 283.147,-109.029 283.147,-114.029 278.647,-109.029 283.147,-119.029 283.147,-119.029"/>
</g>
<!-- GenericFittable -->
<g id="node9" class="node"><title>GenericFittable</title>
<ellipse fill="none" stroke="black" cx="568.147" cy="-91" rx="65.2217" ry="18"/>
<text text-anchor="middle" x="568.147" y="-86.8" font-family="Times,serif" font-size="14.00">GenericFittable</text>
</g>
<!-- GenericCar&#45;&gt;GenericFittable -->
<g id="edge8" class="edge"><title>GenericCar&#45;&gt;GenericFittable</title>
<path fill="none" stroke="#635a96" d="M331.286,-151.008C381.118,-138.593 458.914,-119.212 511.633,-106.079"/>
<ellipse fill="none" stroke="#635a96" cx="327.258" cy="-152.011" rx="4.00001" ry="4.00001"/>
<polygon fill="#635a96" stroke="#635a96" points="511.795,-106.039 522.587,-107.988 516.647,-104.83 521.499,-103.621 521.499,-103.621 521.499,-103.621 516.647,-104.83 520.411,-99.2546 511.795,-106.039 511.795,-106.039"/>
</g>
<!-- StockCar -->
<g id="node19" class="node"><title>StockCar</title>
<ellipse fill="none" stroke="black" cx="949.147" cy="-91" rx="43.0387" ry="18"/>
<text text-anchor="middle" x="949.147" y="-86.8" font-family="Times,serif" font-size="14.00">StockCar</text>
</g>
<!-- GenericCar&#45;&gt;StockCar -->
<g id="edge7" class="edge"><title>GenericCar&#45;&gt;StockCar</title>
<path fill="none" stroke="#88c1ec" d="M333.436,-152.208C345.725,-149.869 358.872,-147.616 371.147,-146 601.301,-115.708 663.774,-150.645 892.147,-109 896.973,-108.12 901.97,-106.981 906.909,-105.71"/>
<ellipse fill="none" stroke="#88c1ec" cx="329.427" cy="-152.988" rx="4.00001" ry="4.00001"/>
<polygon fill="#88c1ec" stroke="#88c1ec" points="907.252,-105.616 918.089,-107.294 912.072,-104.286 916.891,-102.956 916.891,-102.956 916.891,-102.956 912.072,-104.286 915.694,-98.6178 907.252,-105.616 907.252,-105.616"/>
</g>
<!-- GenericFamily&#45;&gt;GenericFamily -->
<g id="edge11" class="edge"><title>GenericFamily&#45;&gt;GenericFamily</title>
<path fill="none" stroke="#ece96c" d="M508.317,-315.878C516.749,-314.841 522.297,-312.882 522.297,-310 522.297,-307.38 517.712,-305.522 510.543,-304.428"/>
<ellipse fill="none" stroke="#ece96c" cx="504.218" cy="-316.219" rx="4" ry="4"/>
<polygon fill="#ece96c" stroke="#ece96c" points="510.188,-304.394 500.657,-298.97 505.21,-303.922 500.232,-303.449 500.232,-303.449 500.232,-303.449 505.21,-303.922 499.807,-307.929 510.188,-304.394 510.188,-304.394"/>
<text text-anchor="middle" x="539.018" y="-305.8" font-family="Times,serif" font-size="14.00">childs</text>
</g>
<!-- GenericSpare -->
<g id="node10" class="node"><title>GenericSpare</title>
<ellipse fill="none" stroke="black" cx="686.147" cy="-237" rx="58.4563" ry="18"/>
<text text-anchor="middle" x="686.147" y="-232.8" font-family="Times,serif" font-size="14.00">GenericSpare</text>
</g>
<!-- GenericFamily&#45;&gt;GenericSpare -->
<g id="edge13" class="edge"><title>GenericFamily&#45;&gt;GenericSpare</title>
<path fill="none" stroke="#446c24" d="M493.475,-293.835C535.456,-281.67 594.026,-264.696 635.544,-252.665"/>
<polygon fill="#446c24" stroke="#446c24" points="493.428,-293.849 482.57,-292.311 488.625,-295.241 483.823,-296.633 483.823,-296.633 483.823,-296.633 488.625,-295.241 485.075,-300.955 493.428,-293.849 493.428,-293.849"/>
<polygon fill="#446c24" stroke="#446c24" points="635.578,-252.655 646.435,-254.193 640.38,-251.263 645.183,-249.871 645.183,-249.871 645.183,-249.871 640.38,-251.263 643.93,-245.549 635.578,-252.655 635.578,-252.655"/>
</g>
<!-- SpareLikelihood -->
<g id="node18" class="node"><title>SpareLikelihood</title>
<ellipse fill="none" stroke="black" cx="449.147" cy="-164" rx="69.0978" ry="18"/>
<text text-anchor="middle" x="449.147" y="-159.8" font-family="Times,serif" font-size="14.00">SpareLikelihood</text>
</g>
<!-- GenericFamily&#45;&gt;SpareLikelihood -->
<g id="edge12" class="edge"><title>GenericFamily&#45;&gt;SpareLikelihood</title>
<path fill="none" stroke="#35f45a" d="M442.545,-283.838C443.971,-258.172 446.176,-218.477 447.64,-192.124"/>
<ellipse fill="none" stroke="#35f45a" cx="442.318" cy="-287.922" rx="4" ry="4"/>
<polygon fill="#35f45a" stroke="#35f45a" points="447.644,-192.047 452.692,-182.312 447.922,-187.054 448.199,-182.062 448.199,-182.062 448.199,-182.062 447.922,-187.054 443.706,-181.812 447.644,-192.047 447.644,-192.047"/>
</g>
<!-- StockFamily -->
<g id="node21" class="node"><title>StockFamily</title>
<ellipse fill="none" stroke="black" cx="366.147" cy="-237" rx="55.118" ry="18"/>
<text text-anchor="middle" x="366.147" y="-232.8" font-family="Times,serif" font-size="14.00">StockFamily</text>
</g>
<!-- GenericFamily&#45;&gt;StockFamily -->
<g id="edge14" class="edge"><title>GenericFamily&#45;&gt;StockFamily</title>
<path fill="none" stroke="#d9532e" d="M417.768,-286.867C409.111,-278.673 399.28,-269.366 390.536,-261.088"/>
<ellipse fill="none" stroke="#d9532e" cx="420.847" cy="-289.783" rx="4.00002" ry="4.00002"/>
<polygon fill="#d9532e" stroke="#d9532e" points="390.451,-261.008 386.283,-250.865 386.82,-257.571 383.189,-254.133 383.189,-254.133 383.189,-254.133 386.82,-257.571 380.096,-257.401 390.451,-261.008 390.451,-261.008"/>
</g>
<!-- GenericFamily&#45;&gt;TypeLikelihood -->
<g id="edge15" class="edge"><title>GenericFamily&#45;&gt;TypeLikelihood</title>
<path fill="none" stroke="#9ec1d7" d="M470.966,-288.244C483.667,-279.403 498.499,-269.078 511.404,-260.096"/>
<ellipse fill="none" stroke="#9ec1d7" cx="467.321" cy="-290.781" rx="4.00002" ry="4.00002"/>
<polygon fill="#9ec1d7" stroke="#9ec1d7" points="511.772,-259.839 522.551,-257.82 515.876,-256.983 519.98,-254.126 519.98,-254.126 519.98,-254.126 515.876,-256.983 517.409,-250.433 511.772,-259.839 511.772,-259.839"/>
</g>
<!-- GenericSpare&#45;&gt;GenericCar -->
<g id="edge17" class="edge"><title>GenericSpare&#45;&gt;GenericCar</title>
<path fill="none" stroke="#47723a" d="M633.562,-222.322C628.369,-221.131 623.165,-220.001 618.147,-219 509.288,-197.292 480.554,-200.754 371.147,-182 359.878,-180.068 347.829,-177.845 336.375,-175.657"/>
<polygon fill="#47723a" stroke="#47723a" points="633.754,-222.367 642.45,-229.047 638.62,-223.517 643.485,-224.668 643.485,-224.668 643.485,-224.668 638.62,-223.517 644.521,-220.289 633.754,-222.367 633.754,-222.367"/>
<polygon fill="#47723a" stroke="#47723a" points="336.317,-175.646 327.35,-169.332 331.407,-174.698 326.498,-173.751 326.498,-173.751 326.498,-173.751 331.407,-174.698 325.645,-178.169 336.317,-175.646 336.317,-175.646"/>
</g>
<!-- GenericSpare&#45;&gt;GenericFittable -->
<g id="edge16" class="edge"><title>GenericSpare&#45;&gt;GenericFittable</title>
<path fill="none" stroke="#4b2d25" d="M700.48,-212.015C709.983,-192.68 718.475,-165.579 705.147,-146 689.393,-122.856 662.047,-109.632 635.911,-102.075"/>
<ellipse fill="none" stroke="#4b2d25" cx="698.543" cy="-215.724" rx="4.00002" ry="4.00002"/>
<polygon fill="#4b2d25" stroke="#4b2d25" points="635.647,-102.005 627.13,-95.0971 630.813,-100.726 625.979,-99.4474 625.979,-99.4474 625.979,-99.4474 630.813,-100.726 624.828,-103.798 635.647,-102.005 635.647,-102.005"/>
</g>
<!-- GenericSpareImage -->
<g id="node11" class="node"><title>GenericSpareImage</title>
<ellipse fill="none" stroke="black" cx="616.147" cy="-164" rx="80.1472" ry="18"/>
<text text-anchor="middle" x="616.147" y="-159.8" font-family="Times,serif" font-size="14.00">GenericSpareImage</text>
</g>
<!-- GenericSpare&#45;&gt;GenericSpareImage -->
<g id="edge20" class="edge"><title>GenericSpare&#45;&gt;GenericSpareImage</title>
<path fill="none" stroke="#ca8ea1" d="M664.166,-213.704C656.555,-205.986 647.988,-197.295 640.218,-189.415"/>
<ellipse fill="none" stroke="#ca8ea1" cx="667.103" cy="-216.684" rx="4.00002" ry="4.00002"/>
<polygon fill="#ca8ea1" stroke="#ca8ea1" points="639.801,-188.992 635.985,-178.712 636.291,-185.432 632.78,-181.871 632.78,-181.871 632.78,-181.871 636.291,-185.432 629.576,-185.03 639.801,-188.992 639.801,-188.992"/>
</g>
<!-- GenericSpare&#45;&gt;SpareLikelihood -->
<g id="edge18" class="edge"><title>GenericSpare&#45;&gt;SpareLikelihood</title>
<path fill="none" stroke="#dd150a" d="M638.227,-221.644C598.903,-209.864 543.265,-193.196 502.524,-180.991"/>
<ellipse fill="none" stroke="#dd150a" cx="642.112" cy="-222.808" rx="4.00001" ry="4.00001"/>
<polygon fill="#dd150a" stroke="#dd150a" points="502.347,-180.938 494.059,-173.757 497.557,-179.503 492.768,-178.068 492.768,-178.068 492.768,-178.068 497.557,-179.503 491.476,-182.378 502.347,-180.938 502.347,-180.938"/>
</g>
<!-- StockSpare -->
<g id="node22" class="node"><title>StockSpare</title>
<ellipse fill="none" stroke="black" cx="811.147" cy="-164" rx="50.2723" ry="18"/>
<text text-anchor="middle" x="811.147" y="-159.8" font-family="Times,serif" font-size="14.00">StockSpare</text>
</g>
<!-- GenericSpare&#45;&gt;StockSpare -->
<g id="edge19" class="edge"><title>GenericSpare&#45;&gt;StockSpare</title>
<path fill="none" stroke="#05e12f" d="M719.726,-216.927C737.34,-206.922 758.886,-194.684 776.636,-184.602"/>
<ellipse fill="none" stroke="#05e12f" cx="716.134" cy="-218.967" rx="4.00002" ry="4.00002"/>
<polygon fill="#05e12f" stroke="#05e12f" points="776.836,-184.489 787.753,-183.463 781.183,-182.019 785.531,-179.55 785.531,-179.55 785.531,-179.55 781.183,-182.019 783.308,-175.637 776.836,-184.489 776.836,-184.489"/>
</g>
<!-- Insured -->
<g id="node12" class="node"><title>Insured</title>
<ellipse fill="none" stroke="black" cx="1047.15" cy="-91" rx="36.7576" ry="18"/>
<text text-anchor="middle" x="1047.15" y="-86.8" font-family="Times,serif" font-size="14.00">Insured</text>
</g>
<!-- ModelAcronym&#45;&gt;GenericCar -->
<g id="edge21" class="edge"><title>ModelAcronym&#45;&gt;GenericCar</title>
<path fill="none" stroke="#5134d9" d="M216.251,-214.996C228.135,-206.114 241.975,-195.771 253.972,-186.804"/>
<ellipse fill="none" stroke="#5134d9" cx="212.908" cy="-217.494" rx="4.00002" ry="4.00002"/>
<polygon fill="#5134d9" stroke="#5134d9" points="254.318,-186.546 265.022,-184.164 258.323,-183.553 262.328,-180.559 262.328,-180.559 262.328,-180.559 258.323,-183.553 259.634,-176.955 254.318,-186.546 254.318,-186.546"/>
</g>
<!-- MoldComponent -->
<g id="node14" class="node"><title>MoldComponent</title>
<ellipse fill="none" stroke="black" cx="833.147" cy="-237" rx="70.5772" ry="18"/>
<text text-anchor="middle" x="833.147" y="-232.8" font-family="Times,serif" font-size="14.00">MoldComponent</text>
</g>
<!-- MoldSpare -->
<g id="node15" class="node"><title>MoldSpare</title>
<ellipse fill="none" stroke="black" cx="790.147" cy="-310" rx="49.3119" ry="18"/>
<text text-anchor="middle" x="790.147" y="-305.8" font-family="Times,serif" font-size="14.00">MoldSpare</text>
</g>
<!-- MoldSpare&#45;&gt;GenericSpare -->
<g id="edge22" class="edge"><title>MoldSpare&#45;&gt;GenericSpare</title>
<path fill="none" stroke="#e04b83" d="M761.062,-289.144C747.472,-279.866 731.272,-268.806 717.418,-259.349"/>
<ellipse fill="none" stroke="#e04b83" cx="764.533" cy="-291.513" rx="4.00002" ry="4.00002"/>
<polygon fill="#e04b83" stroke="#e04b83" points="717.399,-259.336 711.678,-249.981 713.27,-256.517 709.14,-253.697 709.14,-253.697 709.14,-253.697 713.27,-256.517 706.603,-257.414 717.399,-259.336 717.399,-259.336"/>
</g>
<!-- MoldSpare&#45;&gt;MoldComponent -->
<g id="edge23" class="edge"><title>MoldSpare&#45;&gt;MoldComponent</title>
<path fill="none" stroke="#bea1c4" d="M804.503,-285.296C808.603,-278.526 813.095,-271.11 817.28,-264.2"/>
<ellipse fill="none" stroke="#bea1c4" cx="802.41" cy="-288.753" rx="4.00002" ry="4.00002"/>
<polygon fill="#bea1c4" stroke="#bea1c4" points="817.551,-263.752 826.58,-257.53 820.141,-259.475 822.731,-255.198 822.731,-255.198 822.731,-255.198 820.141,-259.475 818.882,-252.867 817.551,-263.752 817.551,-263.752"/>
</g>
<!-- Prevaluation -->
<g id="node16" class="node"><title>Prevaluation</title>
<ellipse fill="none" stroke="black" cx="1113.15" cy="-164" rx="54.6076" ry="18"/>
<text text-anchor="middle" x="1113.15" y="-159.8" font-family="Times,serif" font-size="14.00">Prevaluation</text>
</g>
<!-- Prevaluation&#45;&gt;Insured -->
<g id="edge25" class="edge"><title>Prevaluation&#45;&gt;Insured</title>
<path fill="none" stroke="#7e3440" d="M1092.26,-140.529C1084.86,-132.571 1076.52,-123.599 1069.04,-115.554"/>
<ellipse fill="none" stroke="#7e3440" cx="1095.12" cy="-143.603" rx="4.00002" ry="4.00002"/>
<polygon fill="#7e3440" stroke="#7e3440" points="1068.73,-115.214 1065.21,-104.826 1065.32,-111.552 1061.92,-107.89 1061.92,-107.89 1061.92,-107.89 1065.32,-111.552 1058.62,-110.953 1068.73,-115.214 1068.73,-115.214"/>
</g>
<!-- PrevaluationImage -->
<g id="node17" class="node"><title>PrevaluationImage</title>
<ellipse fill="none" stroke="black" cx="1179.15" cy="-91" rx="76.7985" ry="18"/>
<text text-anchor="middle" x="1179.15" y="-86.8" font-family="Times,serif" font-size="14.00">PrevaluationImage</text>
</g>
<!-- Prevaluation&#45;&gt;PrevaluationImage -->
<g id="edge27" class="edge"><title>Prevaluation&#45;&gt;PrevaluationImage</title>
<path fill="none" stroke="#f5bcd6" d="M1134.14,-140.415C1141.27,-132.745 1149.27,-124.143 1156.52,-116.342"/>
<ellipse fill="none" stroke="#f5bcd6" cx="1131.18" cy="-143.603" rx="4.00002" ry="4.00002"/>
<polygon fill="#f5bcd6" stroke="#f5bcd6" points="1156.66,-116.195 1166.76,-111.935 1160.06,-112.533 1163.46,-108.871 1163.46,-108.871 1163.46,-108.871 1160.06,-112.533 1160.17,-105.807 1156.66,-116.195 1156.66,-116.195"/>
</g>
<!-- Prevaluation&#45;&gt;StockCar -->
<g id="edge24" class="edge"><title>Prevaluation&#45;&gt;StockCar</title>
<path fill="none" stroke="#13e1ed" d="M1073.5,-145.836C1047.39,-134.531 1013.38,-119.808 987.53,-108.617"/>
<ellipse fill="none" stroke="#13e1ed" cx="1077.47" cy="-147.553" rx="4.00002" ry="4.00002"/>
<polygon fill="#13e1ed" stroke="#13e1ed" points="987.232,-108.488 979.843,-100.385 982.643,-106.501 978.055,-104.515 978.055,-104.515 978.055,-104.515 982.643,-106.501 976.267,-108.645 987.232,-108.488 987.232,-108.488"/>
</g>
<!-- Valuation -->
<g id="node26" class="node"><title>Valuation</title>
<ellipse fill="none" stroke="black" cx="1318.15" cy="-91" rx="43.9992" ry="18"/>
<text text-anchor="middle" x="1318.15" y="-86.8" font-family="Times,serif" font-size="14.00">Valuation</text>
</g>
<!-- Prevaluation&#45;&gt;Valuation -->
<g id="edge26" class="edge"><title>Prevaluation&#45;&gt;Valuation</title>
<path fill="none" stroke="#6aaaae" d="M1157.3,-147.709C1193.18,-135.281 1243.37,-117.897 1278.1,-105.868"/>
<ellipse fill="none" stroke="#6aaaae" cx="1153.1" cy="-149.161" rx="4.00001" ry="4.00001"/>
<ellipse fill="#6aaaae" stroke="#6aaaae" cx="1281.93" cy="-104.545" rx="4.00001" ry="4.00001"/>
</g>
<!-- StockCarImage -->
<g id="node20" class="node"><title>StockCarImage</title>
<ellipse fill="none" stroke="black" cx="949.147" cy="-18" rx="65.2304" ry="18"/>
<text text-anchor="middle" x="949.147" y="-13.8" font-family="Times,serif" font-size="14.00">StockCarImage</text>
</g>
<!-- StockCar&#45;&gt;StockCarImage -->
<g id="edge28" class="edge"><title>StockCar&#45;&gt;StockCarImage</title>
<path fill="none" stroke="#c7fc3c" d="M949.147,-64.791C949.147,-58.832 949.147,-52.4496 949.147,-46.3988"/>
<ellipse fill="none" stroke="#c7fc3c" cx="949.147" cy="-68.8129" rx="4" ry="4"/>
<polygon fill="#c7fc3c" stroke="#c7fc3c" points="949.147,-46.0288 953.647,-36.0288 949.147,-41.0288 949.147,-36.0288 949.147,-36.0288 949.147,-36.0288 949.147,-41.0288 944.647,-36.0289 949.147,-46.0288 949.147,-46.0288"/>
</g>
<!-- StockSpareImage -->
<g id="node23" class="node"><title>StockSpareImage</title>
<ellipse fill="none" stroke="black" cx="811.147" cy="-91" rx="72.4635" ry="18"/>
<text text-anchor="middle" x="811.147" y="-86.8" font-family="Times,serif" font-size="14.00">StockSpareImage</text>
</g>
<!-- StockSpare&#45;&gt;StockSpareImage -->
<g id="edge29" class="edge"><title>StockSpare&#45;&gt;StockSpareImage</title>
<path fill="none" stroke="#55d49b" d="M811.147,-137.791C811.147,-131.832 811.147,-125.45 811.147,-119.399"/>
<ellipse fill="none" stroke="#55d49b" cx="811.147" cy="-141.813" rx="4" ry="4"/>
<polygon fill="#55d49b" stroke="#55d49b" points="811.147,-119.029 815.647,-109.029 811.147,-114.029 811.147,-109.029 811.147,-109.029 811.147,-109.029 811.147,-114.029 806.647,-109.029 811.147,-119.029 811.147,-119.029"/>
</g>
<!-- User -->
<g id="node25" class="node"><title>User</title>
<ellipse fill="none" stroke="black" cx="526.147" cy="-401.5" rx="27" ry="18"/>
<text text-anchor="middle" x="526.147" y="-397.3" font-family="Times,serif" font-size="14.00">User</text>
</g>
<!-- Warehouse -->
<g id="node27" class="node"><title>Warehouse</title>
<ellipse fill="none" stroke="black" cx="971.147" cy="-237" rx="49.3546" ry="18"/>
<text text-anchor="middle" x="971.147" y="-232.8" font-family="Times,serif" font-size="14.00">Warehouse</text>
</g>
<!-- Warehouse&#45;&gt;StockCar -->
<g id="edge31" class="edge"><title>Warehouse&#45;&gt;StockCar</title>
<path fill="none" stroke="#16bbd7" d="M967.303,-210.838C963.382,-185.172 957.317,-145.477 953.291,-119.124"/>
<ellipse fill="none" stroke="#16bbd7" cx="967.933" cy="-214.962" rx="4.00001" ry="4.00001"/>
<polygon fill="#16bbd7" stroke="#16bbd7" points="953.264,-118.947 956.202,-108.382 952.509,-114.005 951.754,-109.062 951.754,-109.062 951.754,-109.062 952.509,-114.005 947.305,-109.742 953.264,-118.947 953.264,-118.947"/>
</g>
<!-- Warehouse&#45;&gt;StockSpare -->
<g id="edge30" class="edge"><title>Warehouse&#45;&gt;StockSpare</title>
<path fill="none" stroke="#54b8e6" d="M933.407,-219.253C908.501,-208.201 875.931,-193.748 850.671,-182.539"/>
<ellipse fill="none" stroke="#54b8e6" cx="937.396" cy="-221.023" rx="4.00002" ry="4.00002"/>
<polygon fill="#54b8e6" stroke="#54b8e6" points="850.519,-182.471 843.204,-174.302 845.949,-180.443 841.379,-178.415 841.379,-178.415 841.379,-178.415 845.949,-180.443 839.553,-182.528 850.519,-182.471 850.519,-182.471"/>
</g>
</g>
</svg>
