<?xml version="1.0" encoding="UTF-8" standalone="no"?>
<!DOCTYPE svg PUBLIC "-//W3C//DTD SVG 1.1//EN"
 "http://www.w3.org/Graphics/SVG/1.1/DTD/svg11.dtd">
<!-- Generated by graphviz version 2.36.0 (20140111.2315)
 -->
<!-- Title: models_diagram Pages: 1 -->
<svg width="1354pt" height="514pt"
 viewBox="0.00 0.00 1354.00 514.00" xmlns="http://www.w3.org/2000/svg" xmlns:xlink="http://www.w3.org/1999/xlink">
<g id="graph0" class="graph" transform="scale(1 1) rotate(0) translate(4 510)">
<title>models_diagram</title>
<polygon fill="white" stroke="none" points="-4,4 -4,-510 1350,-510 1350,4 -4,4"/>
<!-- _diagram_info -->
<g id="node1" class="node"><title>_diagram_info</title>
<text text-anchor="start" x="568.312" y="-491.1" font-family="Times,serif" font-size="13.00">Models diagram</text>
<text text-anchor="start" x="568.312" y="-478.1" font-family="Times,serif" font-size="13.00">Date: Feb 21 2015 &#45; 22:34</text>
<text text-anchor="start" x="568.312" y="-465.1" font-family="Times,serif" font-size="13.00">Migration version: 20150222015316</text>
<text text-anchor="start" x="568.312" y="-452.1" font-family="Times,serif" font-size="13.00">Generated by RailRoady 1.3.0</text>
<text text-anchor="start" x="568.312" y="-439.1" font-family="Times,serif" font-size="13.00">http://railroady.prestonlee.com</text>
</g>
<!-- Brand -->
<g id="node2" class="node"><title>Brand</title>
<ellipse fill="none" stroke="black" cx="817" cy="-469" rx="31.5774" ry="18"/>
<text text-anchor="middle" x="817" y="-464.8" font-family="Times,serif" font-size="14.00">Brand</text>
</g>
<!-- GenericCar -->
<g id="node6" class="node"><title>GenericCar</title>
<ellipse fill="none" stroke="black" cx="455" cy="-378" rx="50.2931" ry="18"/>
<text text-anchor="middle" x="455" y="-373.8" font-family="Times,serif" font-size="14.00">GenericCar</text>
</g>
<!-- Brand&#45;&gt;GenericCar -->
<g id="edge1" class="edge"><title>Brand&#45;&gt;GenericCar</title>
<path fill="none" stroke="#a49528" d="M797.359,-446.821C791.061,-441.18 783.706,-435.647 776,-432 691.8,-392.145 582.859,-381.645 516.003,-379.218"/>
<ellipse fill="none" stroke="#a49528" cx="800.376" cy="-449.681" rx="4.00002" ry="4.00002"/>
<polygon fill="#a49528" stroke="#a49528" points="515.64,-379.207 505.785,-374.397 510.642,-379.051 505.645,-378.895 505.645,-378.895 505.645,-378.895 510.642,-379.051 505.504,-383.393 515.64,-379.207 515.64,-379.207"/>
</g>
<!-- ModelAcronym -->
<g id="node14" class="node"><title>ModelAcronym</title>
<ellipse fill="none" stroke="black" cx="1178" cy="-378" rx="66.394" ry="18"/>
<text text-anchor="middle" x="1178" y="-373.8" font-family="Times,serif" font-size="14.00">ModelAcronym</text>
</g>
<!-- Brand&#45;&gt;ModelAcronym -->
<g id="edge2" class="edge"><title>Brand&#45;&gt;ModelAcronym</title>
<path fill="none" stroke="#3e427e" d="M836.602,-446.737C842.899,-441.094 850.263,-435.581 858,-432 957.478,-385.953 994.217,-415.978 1102,-396 1107.71,-394.942 1113.64,-393.761 1119.55,-392.528"/>
<ellipse fill="none" stroke="#3e427e" cx="833.585" cy="-449.603" rx="4.00002" ry="4.00002"/>
<polygon fill="#3e427e" stroke="#3e427e" points="1119.68,-392.502 1130.4,-394.818 1124.57,-391.459 1129.46,-390.417 1129.46,-390.417 1129.46,-390.417 1124.57,-391.459 1128.52,-386.016 1119.68,-392.502 1119.68,-392.502"/>
</g>
<!-- CarLikelihood -->
<g id="node3" class="node"><title>CarLikelihood</title>
<ellipse fill="none" stroke="black" cx="87" cy="-162" rx="61.5228" ry="18"/>
<text text-anchor="middle" x="87" y="-157.8" font-family="Times,serif" font-size="14.00">CarLikelihood</text>
</g>
<!-- Generation -->
<g id="node5" class="node"><title>Generation</title>
<ellipse fill="none" stroke="black" cx="49" cy="-90" rx="49.09" ry="18"/>
<text text-anchor="middle" x="49" y="-85.8" font-family="Times,serif" font-size="14.00">Generation</text>
</g>
<!-- CarLikelihood&#45;&gt;Generation -->
<g id="edge4" class="edge"><title>CarLikelihood&#45;&gt;Generation</title>
<path fill="none" stroke="#97df70" d="M72.8866,-135.002C69.6453,-129.031 66.2004,-122.685 62.9654,-116.726"/>
<polygon fill="#97df70" stroke="#97df70" points="73.0303,-135.266 73.8464,-146.202 75.4158,-139.661 77.8013,-144.055 77.8013,-144.055 77.8013,-144.055 75.4158,-139.661 81.7561,-141.908 73.0303,-135.266 73.0303,-135.266"/>
<polygon fill="#97df70" stroke="#97df70" points="62.885,-116.578 62.0689,-105.642 60.4995,-112.183 58.114,-107.789 58.114,-107.789 58.114,-107.789 60.4995,-112.183 54.1592,-109.936 62.885,-116.578 62.885,-116.578"/>
</g>
<!-- GenericCarGeneration -->
<g id="node7" class="node"><title>GenericCarGeneration</title>
<ellipse fill="none" stroke="black" cx="126" cy="-18" rx="90.2208" ry="18"/>
<text text-anchor="middle" x="126" y="-13.8" font-family="Times,serif" font-size="14.00">GenericCarGeneration</text>
</g>
<!-- CarLikelihood&#45;&gt;GenericCarGeneration -->
<g id="edge3" class="edge"><title>CarLikelihood&#45;&gt;GenericCarGeneration</title>
<path fill="none" stroke="#e1bc8f" d="M97.1907,-136.331C100.606,-127.493 104.242,-117.392 107,-108 112.999,-87.5664 117.948,-63.9774 121.29,-46.2203"/>
<ellipse fill="none" stroke="#e1bc8f" cx="95.6172" cy="-140.316" rx="4.00001" ry="4.00001"/>
<polygon fill="#e1bc8f" stroke="#e1bc8f" points="121.314,-46.0899 127.539,-37.0626 122.213,-41.1715 123.113,-36.2531 123.113,-36.2531 123.113,-36.2531 122.213,-41.1715 118.686,-35.4436 121.314,-46.0899 121.314,-46.0899"/>
</g>
<!-- CarType -->
<g id="node4" class="node"><title>CarType</title>
<ellipse fill="none" stroke="black" cx="185" cy="-306" rx="40.1433" ry="18"/>
<text text-anchor="middle" x="185" y="-301.8" font-family="Times,serif" font-size="14.00">CarType</text>
</g>
<!-- CarType&#45;&gt;CarLikelihood -->
<g id="edge5" class="edge"><title>CarType&#45;&gt;CarLikelihood</title>
<path fill="none" stroke="#58bd12" d="M169.051,-281.891C151.338,-256.224 122.829,-214.916 104.509,-188.371"/>
<ellipse fill="none" stroke="#58bd12" cx="171.486" cy="-285.419" rx="4.00002" ry="4.00002"/>
<polygon fill="#58bd12" stroke="#58bd12" points="104.398,-188.209 102.421,-177.423 101.558,-184.094 98.7177,-179.979 98.7177,-179.979 98.7177,-179.979 101.558,-184.094 95.0141,-182.535 104.398,-188.209 104.398,-188.209"/>
</g>
<!-- GenericFamily -->
<g id="node9" class="node"><title>GenericFamily</title>
<ellipse fill="none" stroke="black" cx="253" cy="-234" rx="63.2257" ry="18"/>
<text text-anchor="middle" x="253" y="-229.8" font-family="Times,serif" font-size="14.00">GenericFamily</text>
</g>
<!-- CarType&#45;&gt;GenericFamily -->
<g id="edge7" class="edge"><title>CarType&#45;&gt;GenericFamily</title>
<path fill="none" stroke="#ea7936" d="M207.409,-281.932C214.428,-274.706 222.195,-266.711 229.3,-259.397"/>
<polygon fill="#ea7936" stroke="#ea7936" points="207.398,-281.943 197.202,-285.98 203.914,-285.53 200.43,-289.116 200.43,-289.116 200.43,-289.116 203.914,-285.53 203.658,-292.251 207.398,-281.943 207.398,-281.943"/>
<polygon fill="#ea7936" stroke="#ea7936" points="229.715,-258.97 239.91,-254.933 233.199,-255.384 236.683,-251.797 236.683,-251.797 236.683,-251.797 233.199,-255.384 233.455,-248.662 229.715,-258.97 229.715,-258.97"/>
</g>
<!-- TypeLikelihood -->
<g id="node25" class="node"><title>TypeLikelihood</title>
<ellipse fill="none" stroke="black" cx="399" cy="-162" rx="66.2001" ry="18"/>
<text text-anchor="middle" x="399" y="-157.8" font-family="Times,serif" font-size="14.00">TypeLikelihood</text>
</g>
<!-- CarType&#45;&gt;TypeLikelihood -->
<g id="edge6" class="edge"><title>CarType&#45;&gt;TypeLikelihood</title>
<path fill="none" stroke="#294123" d="M228.187,-294.877C257.386,-286.604 295.796,-272.829 325,-252 348.977,-234.9 369.753,-208.211 383.136,-188.515"/>
<ellipse fill="none" stroke="#294123" cx="224.069" cy="-296.007" rx="4.00001" ry="4.00001"/>
<polygon fill="#294123" stroke="#294123" points="383.237,-188.362 392.504,-182.498 385.993,-184.19 388.749,-180.018 388.749,-180.018 388.749,-180.018 385.993,-184.19 384.994,-177.538 383.237,-188.362 383.237,-188.362"/>
</g>
<!-- Generation&#45;&gt;GenericCarGeneration -->
<g id="edge8" class="edge"><title>Generation&#45;&gt;GenericCarGeneration</title>
<path fill="none" stroke="#e73a51" d="M72.4825,-67.6522C81.1825,-59.7432 91.0957,-50.7312 100.006,-42.6307"/>
<ellipse fill="none" stroke="#e73a51" cx="69.4323" cy="-70.4252" rx="4.00002" ry="4.00002"/>
<polygon fill="#e73a51" stroke="#e73a51" points="100.123,-42.5241 110.55,-39.1271 103.823,-39.1607 107.523,-35.7973 107.523,-35.7973 107.523,-35.7973 103.823,-39.1607 104.496,-32.4676 100.123,-42.5241 100.123,-42.5241"/>
</g>
<!-- GenericCar&#45;&gt;CarLikelihood -->
<g id="edge15" class="edge"><title>GenericCar&#45;&gt;CarLikelihood</title>
<path fill="none" stroke="#64ae6e" d="M396.827,-374.537C315.604,-369.925 173.898,-357.239 136,-324 97.3815,-290.129 88.696,-226.845 87.0439,-190.524"/>
<ellipse fill="none" stroke="#64ae6e" cx="400.98" cy="-374.765" rx="4" ry="4"/>
<polygon fill="#64ae6e" stroke="#64ae6e" points="87.0335,-190.175 91.2296,-180.044 86.8826,-185.177 86.7317,-180.179 86.7317,-180.179 86.7317,-180.179 86.8826,-185.177 82.2337,-180.315 87.0335,-190.175 87.0335,-190.175"/>
</g>
<!-- GenericCar&#45;&gt;CarType -->
<g id="edge14" class="edge"><title>GenericCar&#45;&gt;CarType</title>
<path fill="none" stroke="#2a9a32" d="M403.515,-365.351C359.6,-355.18 294.886,-339.636 239,-324 234.9,-322.853 230.642,-321.608 226.397,-320.33"/>
<polygon fill="#2a9a32" stroke="#2a9a32" points="403.64,-365.38 412.373,-372.012 408.513,-366.503 413.385,-367.627 413.385,-367.627 413.385,-367.627 408.513,-366.503 414.396,-363.242 403.64,-365.38 403.64,-365.38"/>
<polygon fill="#2a9a32" stroke="#2a9a32" points="226.153,-320.255 217.914,-313.019 221.373,-318.788 216.593,-317.32 216.593,-317.32 216.593,-317.32 221.373,-318.788 215.273,-321.622 226.153,-320.255 226.153,-320.255"/>
</g>
<!-- GenericCar&#45;&gt;Generation -->
<g id="edge12" class="edge"><title>GenericCar&#45;&gt;Generation</title>
<path fill="none" stroke="#883f7d" d="M395.164,-373.897C308.267,-368.401 152.445,-354.526 106,-324 42.9308,-282.548 36.8063,-252.547 16,-180 11.5891,-164.62 11.6021,-159.384 16,-144 18.8304,-134.099 24.1045,-124.248 29.6189,-115.773"/>
<polygon fill="#883f7d" stroke="#883f7d" points="395.426,-373.913 405.132,-379.017 400.417,-374.219 405.408,-374.526 405.408,-374.526 405.408,-374.526 400.417,-374.219 405.683,-370.034 395.426,-373.913 395.426,-373.913"/>
<polygon fill="#883f7d" stroke="#883f7d" points="29.6611,-115.712 39.0579,-110.06 32.5107,-111.604 35.3602,-107.495 35.3602,-107.495 35.3602,-107.495 32.5107,-111.604 31.6624,-104.931 29.6611,-115.712 29.6611,-115.712"/>
</g>
<!-- GenericCar&#45;&gt;GenericCarGeneration -->
<g id="edge11" class="edge"><title>GenericCar&#45;&gt;GenericCarGeneration</title>
<path fill="none" stroke="#7383fd" d="M466.262,-352.808C485.599,-307.315 518.917,-207.861 474,-144 473.441,-143.205 274.203,-71.9452 177.485,-37.3882"/>
<ellipse fill="none" stroke="#7383fd" cx="464.663" cy="-356.478" rx="4.00002" ry="4.00002"/>
<polygon fill="#7383fd" stroke="#7383fd" points="177.312,-37.3265 169.409,-29.7243 172.604,-35.6442 167.895,-33.9619 167.895,-33.9619 167.895,-33.9619 172.604,-35.6442 166.381,-38.1996 177.312,-37.3265 177.312,-37.3265"/>
</g>
<!-- GenericCarImage -->
<g id="node8" class="node"><title>GenericCarImage</title>
<ellipse fill="none" stroke="black" cx="354" cy="-306" rx="72.4354" ry="18"/>
<text text-anchor="middle" x="354" y="-301.8" font-family="Times,serif" font-size="14.00">GenericCarImage</text>
</g>
<!-- GenericCar&#45;&gt;GenericCarImage -->
<g id="edge17" class="edge"><title>GenericCar&#45;&gt;GenericCarImage</title>
<path fill="none" stroke="#cf2955" d="M425.775,-356.745C413.286,-348.089 398.672,-337.961 385.903,-329.111"/>
<ellipse fill="none" stroke="#cf2955" cx="429.297" cy="-359.186" rx="4.00002" ry="4.00002"/>
<polygon fill="#cf2955" stroke="#cf2955" points="385.624,-328.918 379.969,-319.523 381.515,-326.07 377.405,-323.222 377.405,-323.222 377.405,-323.222 381.515,-326.07 374.842,-326.92 385.624,-328.918 385.624,-328.918"/>
</g>
<!-- GenericCar&#45;&gt;GenericFamily -->
<g id="edge16" class="edge"><title>GenericCar&#45;&gt;GenericFamily</title>
<path fill="none" stroke="#397e87" d="M394.671,-374.97C354.395,-370.338 303.268,-357.59 272,-324 256.65,-307.51 252.505,-281.777 251.845,-262.214"/>
<polygon fill="#397e87" stroke="#397e87" points="394.709,-374.973 404.206,-380.457 399.684,-375.477 404.659,-375.98 404.659,-375.98 404.659,-375.98 399.684,-375.477 405.112,-371.503 394.709,-374.973 394.709,-374.973"/>
<polygon fill="#397e87" stroke="#397e87" points="251.845,-262.079 256.288,-252.053 251.816,-257.079 251.788,-252.079 251.788,-252.079 251.788,-252.079 251.816,-257.079 247.288,-252.104 251.845,-262.079 251.845,-262.079"/>
</g>
<!-- GenericFittable -->
<g id="node10" class="node"><title>GenericFittable</title>
<ellipse fill="none" stroke="black" cx="783" cy="-90" rx="65.1662" ry="18"/>
<text text-anchor="middle" x="783" y="-85.8" font-family="Times,serif" font-size="14.00">GenericFittable</text>
</g>
<!-- GenericCar&#45;&gt;GenericFittable -->
<g id="edge10" class="edge"><title>GenericCar&#45;&gt;GenericFittable</title>
<path fill="none" stroke="#372dd5" d="M500.025,-363.245C558.195,-344.14 661.001,-305.753 737,-252 772.936,-226.583 788.738,-220.902 805,-180 813.137,-159.534 806.05,-135.19 797.819,-117.139"/>
<ellipse fill="none" stroke="#372dd5" cx="495.924" cy="-364.577" rx="4.00001" ry="4.00001"/>
<polygon fill="#372dd5" stroke="#372dd5" points="797.646,-116.79 797.253,-105.831 795.432,-112.307 793.218,-107.823 793.218,-107.823 793.218,-107.823 795.432,-112.307 789.183,-109.816 797.646,-116.79 797.646,-116.79"/>
</g>
<!-- StockCar -->
<g id="node20" class="node"><title>StockCar</title>
<ellipse fill="none" stroke="black" cx="934" cy="-306" rx="43.0291" ry="18"/>
<text text-anchor="middle" x="934" y="-301.8" font-family="Times,serif" font-size="14.00">StockCar</text>
</g>
<!-- GenericCar&#45;&gt;StockCar -->
<g id="edge9" class="edge"><title>GenericCar&#45;&gt;StockCar</title>
<path fill="none" stroke="#4ce1dd" d="M510.136,-370.093C584.809,-360.578 722.194,-342.504 839,-324 854.194,-321.593 870.709,-318.726 885.643,-316.038"/>
<ellipse fill="none" stroke="#4ce1dd" cx="505.755" cy="-370.65" rx="4.00001" ry="4.00001"/>
<polygon fill="#4ce1dd" stroke="#4ce1dd" points="885.854,-316 896.497,-318.642 890.774,-315.107 895.693,-314.214 895.693,-314.214 895.693,-314.214 890.774,-315.107 894.89,-309.787 885.854,-316 885.854,-316"/>
</g>
<!-- GenericCar&#45;&gt;TypeLikelihood -->
<g id="edge13" class="edge"><title>GenericCar&#45;&gt;TypeLikelihood</title>
<path fill="none" stroke="#b8dc94" d="M449.726,-351.669C445.906,-333.808 440.47,-309.358 435,-288 426.283,-253.966 414.867,-215.136 407.25,-189.907"/>
<ellipse fill="none" stroke="#b8dc94" cx="450.635" cy="-355.953" rx="4.00001" ry="4.00001"/>
<polygon fill="#b8dc94" stroke="#b8dc94" points="407.239,-189.871 408.642,-178.995 405.787,-185.086 404.336,-180.302 404.336,-180.302 404.336,-180.302 405.787,-185.086 400.029,-181.608 407.239,-189.871 407.239,-189.871"/>
</g>
<!-- GenericFamily&#45;&gt;CarLikelihood -->
<g id="edge18" class="edge"><title>GenericFamily&#45;&gt;CarLikelihood</title>
<path fill="none" stroke="#0f2d20" d="M211.342,-215.433C186.492,-204.955 155.003,-191.676 129.931,-181.104"/>
<ellipse fill="none" stroke="#0f2d20" cx="215.321" cy="-217.111" rx="4.00001" ry="4.00001"/>
<polygon fill="#0f2d20" stroke="#0f2d20" points="129.878,-181.081 122.412,-173.049 125.271,-179.138 120.664,-177.196 120.664,-177.196 120.664,-177.196 125.271,-179.138 118.915,-181.342 129.878,-181.081 129.878,-181.081"/>
</g>
<!-- GenericSpare -->
<g id="node11" class="node"><title>GenericSpare</title>
<ellipse fill="none" stroke="black" cx="579" cy="-162" rx="58.342" ry="18"/>
<text text-anchor="middle" x="579" y="-157.8" font-family="Times,serif" font-size="14.00">GenericSpare</text>
</g>
<!-- GenericFamily&#45;&gt;GenericSpare -->
<g id="edge20" class="edge"><title>GenericFamily&#45;&gt;GenericSpare</title>
<path fill="none" stroke="#b95d8f" d="M311.653,-220.406C371.559,-207.543 463.908,-187.713 522.879,-175.051"/>
<polygon fill="#b95d8f" stroke="#b95d8f" points="311.583,-220.421 300.861,-218.121 306.694,-221.471 301.805,-222.52 301.805,-222.52 301.805,-222.52 306.694,-221.471 302.75,-226.92 311.583,-220.421 311.583,-220.421"/>
<polygon fill="#b95d8f" stroke="#b95d8f" points="522.989,-175.027 533.711,-177.327 527.877,-173.977 532.766,-172.928 532.766,-172.928 532.766,-172.928 527.877,-173.977 531.821,-168.528 522.989,-175.027 522.989,-175.027"/>
</g>
<!-- SpareLikelihood -->
<g id="node19" class="node"><title>SpareLikelihood</title>
<ellipse fill="none" stroke="black" cx="453" cy="-90" rx="69.0733" ry="18"/>
<text text-anchor="middle" x="453" y="-85.8" font-family="Times,serif" font-size="14.00">SpareLikelihood</text>
</g>
<!-- GenericFamily&#45;&gt;SpareLikelihood -->
<g id="edge19" class="edge"><title>GenericFamily&#45;&gt;SpareLikelihood</title>
<path fill="none" stroke="#8c2dcf" d="M267.108,-209.214C279.844,-189.479 300.202,-161.853 324,-144 345.789,-127.654 373.34,-115.439 397.381,-106.881"/>
<ellipse fill="none" stroke="#8c2dcf" cx="264.902" cy="-212.712" rx="4.00002" ry="4.00002"/>
<polygon fill="#8c2dcf" stroke="#8c2dcf" points="397.634,-106.795 408.553,-107.808 402.364,-105.173 407.093,-103.551 407.093,-103.551 407.093,-103.551 402.364,-105.173 405.634,-99.2946 397.634,-106.795 397.634,-106.795"/>
</g>
<!-- StockFamily -->
<g id="node22" class="node"><title>StockFamily</title>
<ellipse fill="none" stroke="black" cx="222" cy="-162" rx="54.9642" ry="18"/>
<text text-anchor="middle" x="222" y="-157.8" font-family="Times,serif" font-size="14.00">StockFamily</text>
</g>
<!-- GenericFamily&#45;&gt;StockFamily -->
<g id="edge21" class="edge"><title>GenericFamily&#45;&gt;StockFamily</title>
<path fill="none" stroke="#4f6f67" d="M242.171,-208.548C239.461,-202.428 236.541,-195.835 233.787,-189.616"/>
<ellipse fill="none" stroke="#4f6f67" cx="243.876" cy="-212.398" rx="4.00002" ry="4.00002"/>
<polygon fill="#4f6f67" stroke="#4f6f67" points="233.7,-189.419 233.765,-178.453 231.675,-184.847 229.65,-180.275 229.65,-180.275 229.65,-180.275 231.675,-184.847 225.536,-182.097 233.7,-189.419 233.7,-189.419"/>
</g>
<!-- GenericFamily&#45;&gt;TypeLikelihood -->
<g id="edge22" class="edge"><title>GenericFamily&#45;&gt;TypeLikelihood</title>
<path fill="none" stroke="#86971a" d="M291.458,-214.561C312.123,-204.653 337.587,-192.444 358.55,-182.394"/>
<ellipse fill="none" stroke="#86971a" cx="287.57" cy="-216.425" rx="4.00002" ry="4.00002"/>
<polygon fill="#86971a" stroke="#86971a" points="358.813,-182.268 369.776,-182.002 363.322,-180.106 367.83,-177.944 367.83,-177.944 367.83,-177.944 363.322,-180.106 365.885,-173.887 358.813,-182.268 358.813,-182.268"/>
</g>
<!-- GenericSpare&#45;&gt;GenericCar -->
<g id="edge24" class="edge"><title>GenericSpare&#45;&gt;GenericCar</title>
<path fill="none" stroke="#4971e2" d="M570.3,-189.892C558.821,-223.134 536.563,-280.621 507,-324 499.627,-334.819 489.92,-345.395 480.891,-354.218"/>
<polygon fill="#4971e2" stroke="#4971e2" points="570.441,-189.473 577.907,-181.441 572.043,-184.737 573.644,-180 573.644,-180 573.644,-180 572.043,-184.737 569.38,-178.559 570.441,-189.473 570.441,-189.473"/>
<polygon fill="#4971e2" stroke="#4971e2" points="480.794,-354.31 470.439,-357.917 477.163,-357.747 473.532,-361.185 473.532,-361.185 473.532,-361.185 477.163,-357.747 476.626,-364.453 480.794,-354.31 480.794,-354.31"/>
</g>
<!-- GenericSpare&#45;&gt;GenericFittable -->
<g id="edge23" class="edge"><title>GenericSpare&#45;&gt;GenericFittable</title>
<path fill="none" stroke="#f25bc5" d="M624.295,-145.458C656.89,-134.273 700.808,-119.203 734.181,-107.752"/>
<ellipse fill="none" stroke="#f25bc5" cx="620.2" cy="-146.863" rx="4.00001" ry="4.00001"/>
<polygon fill="#f25bc5" stroke="#f25bc5" points="734.276,-107.719 745.195,-108.73 739.005,-106.096 743.735,-104.473 743.735,-104.473 743.735,-104.473 739.005,-106.096 742.274,-100.217 734.276,-107.719 734.276,-107.719"/>
</g>
<!-- GenericSpareImage -->
<g id="node12" class="node"><title>GenericSpareImage</title>
<ellipse fill="none" stroke="black" cx="620" cy="-90" rx="79.9859" ry="18"/>
<text text-anchor="middle" x="620" y="-85.8" font-family="Times,serif" font-size="14.00">GenericSpareImage</text>
</g>
<!-- GenericSpare&#45;&gt;GenericSpareImage -->
<g id="edge27" class="edge"><title>GenericSpare&#45;&gt;GenericSpareImage</title>
<path fill="none" stroke="#340298" d="M592.995,-137.106C596.807,-130.599 600.952,-123.52 604.826,-116.907"/>
<ellipse fill="none" stroke="#340298" cx="590.947" cy="-140.603" rx="4.00002" ry="4.00002"/>
<polygon fill="#340298" stroke="#340298" points="604.828,-116.904 613.765,-110.55 607.355,-112.59 609.882,-108.275 609.882,-108.275 609.882,-108.275 607.355,-112.59 605.999,-106.001 604.828,-116.904 604.828,-116.904"/>
</g>
<!-- GenericSpare&#45;&gt;SpareLikelihood -->
<g id="edge25" class="edge"><title>GenericSpare&#45;&gt;SpareLikelihood</title>
<path fill="none" stroke="#ad24cb" d="M544.823,-142.013C527.735,-132.52 507.041,-121.023 489.628,-111.349"/>
<ellipse fill="none" stroke="#ad24cb" cx="548.473" cy="-144.041" rx="4.00002" ry="4.00002"/>
<polygon fill="#ad24cb" stroke="#ad24cb" points="489.599,-111.333 483.043,-102.543 485.228,-108.904 480.857,-106.476 480.857,-106.476 480.857,-106.476 485.228,-108.904 478.672,-110.41 489.599,-111.333 489.599,-111.333"/>
</g>
<!-- StockSpare -->
<g id="node23" class="node"><title>StockSpare</title>
<ellipse fill="none" stroke="black" cx="916" cy="-90" rx="50.0798" ry="18"/>
<text text-anchor="middle" x="916" y="-85.8" font-family="Times,serif" font-size="14.00">StockSpare</text>
</g>
<!-- GenericSpare&#45;&gt;StockSpare -->
<g id="edge26" class="edge"><title>GenericSpare&#45;&gt;StockSpare</title>
<path fill="none" stroke="#2dd565" d="M629.745,-147.673C635.217,-146.371 640.715,-145.119 646,-144 739.068,-124.286 764.26,-129.203 857,-108 861.033,-107.078 865.2,-106.045 869.366,-104.955"/>
<ellipse fill="none" stroke="#2dd565" cx="625.659" cy="-148.665" rx="4.00001" ry="4.00001"/>
<polygon fill="#2dd565" stroke="#2dd565" points="869.374,-104.953 880.203,-106.68 874.2,-103.645 879.026,-102.337 879.026,-102.337 879.026,-102.337 874.2,-103.645 877.848,-97.9934 869.374,-104.953 869.374,-104.953"/>
</g>
<!-- Insured -->
<g id="node13" class="node"><title>Insured</title>
<ellipse fill="none" stroke="black" cx="1138" cy="-306" rx="36.4422" ry="18"/>
<text text-anchor="middle" x="1138" y="-301.8" font-family="Times,serif" font-size="14.00">Insured</text>
</g>
<!-- MoldComponent -->
<g id="node15" class="node"><title>MoldComponent</title>
<ellipse fill="none" stroke="black" cx="726" cy="-162" rx="70.3078" ry="18"/>
<text text-anchor="middle" x="726" y="-157.8" font-family="Times,serif" font-size="14.00">MoldComponent</text>
</g>
<!-- MoldSpare -->
<g id="node16" class="node"><title>MoldSpare</title>
<ellipse fill="none" stroke="black" cx="679" cy="-234" rx="49.1093" ry="18"/>
<text text-anchor="middle" x="679" y="-229.8" font-family="Times,serif" font-size="14.00">MoldSpare</text>
</g>
<!-- MoldSpare&#45;&gt;GenericSpare -->
<g id="edge28" class="edge"><title>MoldSpare&#45;&gt;GenericSpare</title>
<path fill="none" stroke="#2569b8" d="M650.412,-212.989C637.632,-204.042 622.55,-193.485 609.548,-184.383"/>
<ellipse fill="none" stroke="#2569b8" cx="654.025" cy="-215.517" rx="4.00002" ry="4.00002"/>
<polygon fill="#2569b8" stroke="#2569b8" points="609.541,-184.379 603.929,-174.957 605.445,-181.511 601.349,-178.644 601.349,-178.644 601.349,-178.644 605.445,-181.511 598.768,-182.331 609.541,-184.379 609.541,-184.379"/>
</g>
<!-- MoldSpare&#45;&gt;MoldComponent -->
<g id="edge29" class="edge"><title>MoldSpare&#45;&gt;MoldComponent</title>
<path fill="none" stroke="#b76751" d="M694.692,-209.63C699.275,-202.803 704.306,-195.311 708.968,-188.367"/>
<ellipse fill="none" stroke="#b76751" cx="692.368" cy="-213.09" rx="4.00002" ry="4.00002"/>
<polygon fill="#b76751" stroke="#b76751" points="709.041,-188.258 718.351,-182.465 711.828,-184.107 714.615,-179.956 714.615,-179.956 714.615,-179.956 711.828,-184.107 710.879,-177.448 709.041,-188.258 709.041,-188.258"/>
</g>
<!-- Prevaluation -->
<g id="node17" class="node"><title>Prevaluation</title>
<ellipse fill="none" stroke="black" cx="1039" cy="-378" rx="54.2073" ry="18"/>
<text text-anchor="middle" x="1039" y="-373.8" font-family="Times,serif" font-size="14.00">Prevaluation</text>
</g>
<!-- Prevaluation&#45;&gt;Insured -->
<g id="edge31" class="edge"><title>Prevaluation&#45;&gt;Insured</title>
<path fill="none" stroke="#530b24" d="M1067.65,-356.739C1080.92,-347.358 1096.64,-336.248 1109.84,-326.91"/>
<ellipse fill="none" stroke="#530b24" cx="1064.24" cy="-359.155" rx="4.00002" ry="4.00002"/>
<polygon fill="#530b24" stroke="#530b24" points="1109.94,-326.839 1120.71,-324.74 1114.02,-323.952 1118.11,-321.066 1118.11,-321.066 1118.11,-321.066 1114.02,-323.952 1115.51,-317.391 1109.94,-326.839 1109.94,-326.839"/>
</g>
<!-- PrevaluationImage -->
<g id="node18" class="node"><title>PrevaluationImage</title>
<ellipse fill="none" stroke="black" cx="1270" cy="-306" rx="76.3495" ry="18"/>
<text text-anchor="middle" x="1270" y="-301.8" font-family="Times,serif" font-size="14.00">PrevaluationImage</text>
</g>
<!-- Prevaluation&#45;&gt;PrevaluationImage -->
<g id="edge33" class="edge"><title>Prevaluation&#45;&gt;PrevaluationImage</title>
<path fill="none" stroke="#52b034" d="M1085.53,-362.899C1122.97,-351.556 1175.64,-335.593 1215.13,-323.628"/>
<ellipse fill="none" stroke="#52b034" cx="1081.49" cy="-364.124" rx="4.00001" ry="4.00001"/>
<polygon fill="#52b034" stroke="#52b034" points="1215.3,-323.577 1226.17,-324.984 1220.08,-322.127 1224.87,-320.677 1224.87,-320.677 1224.87,-320.677 1220.08,-322.127 1223.56,-316.371 1215.3,-323.577 1215.3,-323.577"/>
</g>
<!-- Prevaluation&#45;&gt;StockCar -->
<g id="edge30" class="edge"><title>Prevaluation&#45;&gt;StockCar</title>
<path fill="none" stroke="#1d70ca" d="M1008.97,-356.979C994.956,-347.637 978.313,-336.542 964.271,-327.181"/>
<ellipse fill="none" stroke="#1d70ca" cx="1012.63" cy="-359.419" rx="4.00002" ry="4.00002"/>
<polygon fill="#1d70ca" stroke="#1d70ca" points="964.232,-327.155 958.408,-317.863 960.072,-324.381 955.912,-321.608 955.912,-321.608 955.912,-321.608 960.072,-324.381 953.415,-325.352 964.232,-327.155 964.232,-327.155"/>
</g>
<!-- Valuation -->
<g id="node27" class="node"><title>Valuation</title>
<ellipse fill="none" stroke="black" cx="1039" cy="-306" rx="43.4994" ry="18"/>
<text text-anchor="middle" x="1039" y="-301.8" font-family="Times,serif" font-size="14.00">Valuation</text>
</g>
<!-- Prevaluation&#45;&gt;Valuation -->
<g id="edge32" class="edge"><title>Prevaluation&#45;&gt;Valuation</title>
<path fill="none" stroke="#3a05ec" d="M1039,-351.64C1039,-345.348 1039,-338.605 1039,-332.316"/>
<ellipse fill="none" stroke="#3a05ec" cx="1039" cy="-355.697" rx="4" ry="4"/>
<ellipse fill="#3a05ec" stroke="#3a05ec" cx="1039" cy="-328.104" rx="4" ry="4"/>
</g>
<!-- StockCarImage -->
<g id="node21" class="node"><title>StockCarImage</title>
<ellipse fill="none" stroke="black" cx="956" cy="-234" rx="65.1727" ry="18"/>
<text text-anchor="middle" x="956" y="-229.8" font-family="Times,serif" font-size="14.00">StockCarImage</text>
</g>
<!-- StockCar&#45;&gt;StockCarImage -->
<g id="edge34" class="edge"><title>StockCar&#45;&gt;StockCarImage</title>
<path fill="none" stroke="#7b15f9" d="M941.773,-280.267C943.636,-274.34 945.634,-267.981 947.527,-261.959"/>
<ellipse fill="none" stroke="#7b15f9" cx="940.525" cy="-284.239" rx="4.00001" ry="4.00001"/>
<polygon fill="#7b15f9" stroke="#7b15f9" points="947.572,-261.815 954.864,-253.625 949.071,-257.045 950.571,-252.275 950.571,-252.275 950.571,-252.275 949.071,-257.045 946.278,-250.926 947.572,-261.815 947.572,-261.815"/>
</g>
<!-- StockSpareImage -->
<g id="node24" class="node"><title>StockSpareImage</title>
<ellipse fill="none" stroke="black" cx="916" cy="-18" rx="72.2227" ry="18"/>
<text text-anchor="middle" x="916" y="-13.8" font-family="Times,serif" font-size="14.00">StockSpareImage</text>
</g>
<!-- StockSpare&#45;&gt;StockSpareImage -->
<g id="edge35" class="edge"><title>StockSpare&#45;&gt;StockSpareImage</title>
<path fill="none" stroke="#2992d4" d="M916,-63.6398C916,-58.0629 916,-52.1319 916,-46.4761"/>
<ellipse fill="none" stroke="#2992d4" cx="916" cy="-67.6966" rx="4" ry="4"/>
<polygon fill="#2992d4" stroke="#2992d4" points="916,-46.1043 920.5,-36.1043 916,-41.1043 916,-36.1043 916,-36.1043 916,-36.1043 916,-41.1043 911.5,-36.1044 916,-46.1043 916,-46.1043"/>
</g>
<!-- User -->
<g id="node26" class="node"><title>User</title>
<ellipse fill="none" stroke="black" cx="894" cy="-469" rx="27" ry="18"/>
<text text-anchor="middle" x="894" y="-464.8" font-family="Times,serif" font-size="14.00">User</text>
</g>
<!-- Warehouse -->
<g id="node28" class="node"><title>Warehouse</title>
<ellipse fill="none" stroke="black" cx="890" cy="-378" rx="49.2658" ry="18"/>
<text text-anchor="middle" x="890" y="-373.8" font-family="Times,serif" font-size="14.00">Warehouse</text>
</g>
<!-- Warehouse&#45;&gt;StockCar -->
<g id="edge37" class="edge"><title>Warehouse&#45;&gt;StockCar</title>
<path fill="none" stroke="#816d48" d="M904.91,-353.28C909.095,-346.622 913.664,-339.354 917.914,-332.591"/>
<ellipse fill="none" stroke="#816d48" cx="902.78" cy="-356.668" rx="4.00002" ry="4.00002"/>
<polygon fill="#816d48" stroke="#816d48" points="918.125,-332.255 927.257,-326.184 920.786,-328.022 923.447,-323.789 923.447,-323.789 923.447,-323.789 920.786,-328.022 919.637,-321.394 918.125,-332.255 918.125,-332.255"/>
</g>
<!-- Warehouse&#45;&gt;StockSpare -->
<g id="edge36" class="edge"><title>Warehouse&#45;&gt;StockSpare</title>
<path fill="none" stroke="#87b728" d="M885.421,-351.884C884.029,-343.096 882.686,-333.142 882,-324 878.408,-276.135 875.645,-263.577 882,-216 886.632,-181.321 898.19,-142.63 906.546,-117.609"/>
<ellipse fill="none" stroke="#87b728" cx="886.096" cy="-355.942" rx="4.00001" ry="4.00001"/>
<polygon fill="#87b728" stroke="#87b728" points="906.563,-117.557 914.05,-109.544 908.177,-112.825 909.791,-108.092 909.791,-108.092 909.791,-108.092 908.177,-112.825 905.531,-106.64 906.563,-117.557 906.563,-117.557"/>
</g>
</g>
</svg>
