<?xml version="1.0" encoding="UTF-8" standalone="no"?>
<!DOCTYPE svg PUBLIC "-//W3C//DTD SVG 1.1//EN"
 "http://www.w3.org/Graphics/SVG/1.1/DTD/svg11.dtd">
<!-- Generated by graphviz version 2.38.0 (20140413.2041)
 -->
<!-- Title: models_diagram Pages: 1 -->
<svg width="1567pt" height="519pt"
 viewBox="0.00 0.00 1567.15 519.00" xmlns="http://www.w3.org/2000/svg" xmlns:xlink="http://www.w3.org/1999/xlink">
<g id="graph0" class="graph" transform="scale(1 1) rotate(0) translate(4 515)">
<title>models_diagram</title>
<polygon fill="white" stroke="none" points="-4,4 -4,-515 1563.15,-515 1563.15,4 -4,4"/>
<!-- _diagram_info -->
<g id="node1" class="node"><title>_diagram_info</title>
<text text-anchor="start" x="98.4594" y="-496.6" font-family="Times,serif" font-size="13.00">Models diagram</text>
<text text-anchor="start" x="98.4594" y="-483.6" font-family="Times,serif" font-size="13.00">Date: Mar 17 2015 &#45; 13:39</text>
<text text-anchor="start" x="98.4594" y="-470.6" font-family="Times,serif" font-size="13.00">Migration version: 20150316214530</text>
<text text-anchor="start" x="98.4594" y="-457.6" font-family="Times,serif" font-size="13.00">Generated by RailRoady 1.3.0</text>
<text text-anchor="start" x="98.4594" y="-444.6" font-family="Times,serif" font-size="13.00">http://railroady.prestonlee.com</text>
</g>
<!-- Brand -->
<g id="node2" class="node"><title>Brand</title>
<ellipse fill="none" stroke="black" cx="347.147" cy="-474.5" rx="31.9393" ry="18"/>
<text text-anchor="middle" x="347.147" y="-470.3" font-family="Times,serif" font-size="14.00">Brand</text>
</g>
<!-- ModelAcronym -->
<g id="node14" class="node"><title>ModelAcronym</title>
<ellipse fill="none" stroke="black" cx="347.147" cy="-383" rx="66.6925" ry="18"/>
<text text-anchor="middle" x="347.147" y="-378.8" font-family="Times,serif" font-size="14.00">ModelAcronym</text>
</g>
<!-- Brand&#45;&gt;ModelAcronym -->
<g id="edge1" class="edge"><title>Brand&#45;&gt;ModelAcronym</title>
<path fill="none" stroke="#1b71e4" d="M347.147,-447.903C347.147,-436.441 347.147,-422.914 347.147,-411.263"/>
<ellipse fill="none" stroke="#1b71e4" cx="347.147" cy="-452.243" rx="4" ry="4"/>
<polygon fill="#1b71e4" stroke="#1b71e4" points="347.147,-411.204 351.647,-401.203 347.147,-406.204 347.147,-401.204 347.147,-401.204 347.147,-401.204 347.147,-406.204 342.647,-401.204 347.147,-411.204 347.147,-411.204"/>
</g>
<!-- CarType -->
<g id="node3" class="node"><title>CarType</title>
<ellipse fill="none" stroke="black" cx="501.147" cy="-383" rx="40.3571" ry="18"/>
<text text-anchor="middle" x="501.147" y="-378.8" font-family="Times,serif" font-size="14.00">CarType</text>
</g>
<!-- GenericCar -->
<g id="node6" class="node"><title>GenericCar</title>
<ellipse fill="none" stroke="black" cx="347.147" cy="-310" rx="50.7224" ry="18"/>
<text text-anchor="middle" x="347.147" y="-305.8" font-family="Times,serif" font-size="14.00">GenericCar</text>
</g>
<!-- CarType&#45;&gt;GenericCar -->
<g id="edge2" class="edge"><title>CarType&#45;&gt;GenericCar</title>
<path fill="none" stroke="#38e627" d="M466.653,-366.097C442.751,-355.077 410.891,-340.388 386.078,-328.949"/>
<ellipse fill="none" stroke="#38e627" cx="470.337" cy="-367.795" rx="4.00002" ry="4.00002"/>
<polygon fill="#38e627" stroke="#38e627" points="386.026,-328.925 378.829,-320.651 381.485,-326.831 376.945,-324.738 376.945,-324.738 376.945,-324.738 381.485,-326.831 375.061,-328.824 386.026,-328.925 386.026,-328.925"/>
</g>
<!-- GenericFamily -->
<g id="node9" class="node"><title>GenericFamily</title>
<ellipse fill="none" stroke="black" cx="501.147" cy="-237" rx="63.301" ry="18"/>
<text text-anchor="middle" x="501.147" y="-232.8" font-family="Times,serif" font-size="14.00">GenericFamily</text>
</g>
<!-- CarType&#45;&gt;GenericFamily -->
<g id="edge4" class="edge"><title>CarType&#45;&gt;GenericFamily</title>
<path fill="none" stroke="#16be78" d="M501.147,-354.546C501.147,-328.878 501.147,-290.767 501.147,-265.185"/>
<polygon fill="#16be78" stroke="#16be78" points="501.147,-354.916 496.647,-364.916 501.147,-359.916 501.147,-364.916 501.147,-364.916 501.147,-364.916 501.147,-359.916 505.647,-364.916 501.147,-354.916 501.147,-354.916"/>
<polygon fill="#16be78" stroke="#16be78" points="501.147,-265.062 505.647,-255.062 501.147,-260.062 501.147,-255.062 501.147,-255.062 501.147,-255.062 501.147,-260.062 496.647,-255.062 501.147,-265.062 501.147,-265.062"/>
</g>
<!-- TypeLikelihood -->
<g id="node25" class="node"><title>TypeLikelihood</title>
<ellipse fill="none" stroke="black" cx="821.147" cy="-164" rx="66.4333" ry="18"/>
<text text-anchor="middle" x="821.147" y="-159.8" font-family="Times,serif" font-size="14.00">TypeLikelihood</text>
</g>
<!-- CarType&#45;&gt;TypeLikelihood -->
<g id="edge3" class="edge"><title>CarType&#45;&gt;TypeLikelihood</title>
<path fill="none" stroke="#34ef11" d="M529.183,-362.988C588.546,-322.733 726.605,-229.111 789.234,-186.641"/>
<ellipse fill="none" stroke="#34ef11" cx="525.702" cy="-365.349" rx="4.00002" ry="4.00002"/>
<polygon fill="#34ef11" stroke="#34ef11" points="789.278,-186.611 800.08,-184.723 793.416,-183.805 797.554,-180.999 797.554,-180.999 797.554,-180.999 793.416,-183.805 795.029,-177.274 789.278,-186.611 789.278,-186.611"/>
</g>
<!-- FamilyLikelihood -->
<g id="node4" class="node"><title>FamilyLikelihood</title>
<ellipse fill="none" stroke="black" cx="310.147" cy="-164" rx="73.943" ry="18"/>
<text text-anchor="middle" x="310.147" y="-159.8" font-family="Times,serif" font-size="14.00">FamilyLikelihood</text>
</g>
<!-- Generation -->
<g id="node5" class="node"><title>Generation</title>
<ellipse fill="none" stroke="black" cx="160.147" cy="-383" rx="49.286" ry="18"/>
<text text-anchor="middle" x="160.147" y="-378.8" font-family="Times,serif" font-size="14.00">Generation</text>
</g>
<!-- Generation&#45;&gt;GenericCar -->
<g id="edge6" class="edge"><title>Generation&#45;&gt;GenericCar</title>
<path fill="none" stroke="#4e4968" d="M202.73,-365.832C233.139,-354.286 273.887,-338.815 304.345,-327.251"/>
<polygon fill="#4e4968" stroke="#4e4968" points="202.497,-365.92 191.551,-365.263 197.823,-367.695 193.148,-369.47 193.148,-369.47 193.148,-369.47 197.823,-367.695 194.746,-373.677 202.497,-365.92 202.497,-365.92"/>
<polygon fill="#4e4968" stroke="#4e4968" points="304.498,-327.193 315.444,-327.85 309.172,-325.418 313.847,-323.643 313.847,-323.643 313.847,-323.643 309.172,-325.418 312.249,-319.437 304.498,-327.193 304.498,-327.193"/>
</g>
<!-- GenericCarGeneration -->
<g id="node7" class="node"><title>GenericCarGeneration</title>
<ellipse fill="none" stroke="black" cx="90.1471" cy="-237" rx="90.2944" ry="18"/>
<text text-anchor="middle" x="90.1471" y="-232.8" font-family="Times,serif" font-size="14.00">GenericCarGeneration</text>
</g>
<!-- Generation&#45;&gt;GenericCarGeneration -->
<g id="edge5" class="edge"><title>Generation&#45;&gt;GenericCarGeneration</title>
<path fill="none" stroke="#352324" d="M148.428,-357.891C135.84,-331.996 115.901,-290.979 102.92,-264.276"/>
<ellipse fill="none" stroke="#352324" cx="150.231" cy="-361.602" rx="4.00002" ry="4.00002"/>
<polygon fill="#352324" stroke="#352324" points="102.851,-264.133 102.526,-253.172 100.665,-259.637 98.4789,-255.14 98.4789,-255.14 98.4789,-255.14 100.665,-259.637 94.4318,-257.107 102.851,-264.133 102.851,-264.133"/>
</g>
<!-- GenericCar&#45;&gt;FamilyLikelihood -->
<g id="edge11" class="edge"><title>GenericCar&#45;&gt;FamilyLikelihood</title>
<path fill="none" stroke="#7e0d2a" d="M306.292,-292.48C290.471,-283.828 274.052,-271.527 265.147,-255 257.558,-240.915 259.7,-234.044 265.147,-219 269.155,-207.931 276.532,-197.536 284.17,-188.879"/>
<ellipse fill="none" stroke="#7e0d2a" cx="309.936" cy="-294.364" rx="4.00002" ry="4.00002"/>
<polygon fill="#7e0d2a" stroke="#7e0d2a" points="284.313,-188.727 294.445,-184.533 287.741,-185.088 291.169,-181.448 291.169,-181.448 291.169,-181.448 287.741,-185.088 287.894,-178.362 284.313,-188.727 284.313,-188.727"/>
</g>
<!-- GenericCar&#45;&gt;GenericCarGeneration -->
<g id="edge9" class="edge"><title>GenericCar&#45;&gt;GenericCarGeneration</title>
<path fill="none" stroke="#7bc1c5" d="M295.772,-298.701C265.907,-292.353 227.668,-283.605 194.147,-274 176.49,-268.94 157.428,-262.604 140.507,-256.664"/>
<ellipse fill="none" stroke="#7bc1c5" cx="300.048" cy="-299.602" rx="4.00001" ry="4.00001"/>
<polygon fill="#7bc1c5" stroke="#7bc1c5" points="140.242,-256.57 132.324,-248.984 135.53,-254.897 130.818,-253.224 130.818,-253.224 130.818,-253.224 135.53,-254.897 129.313,-257.465 140.242,-256.57 140.242,-256.57"/>
</g>
<!-- GenericCarImage -->
<g id="node8" class="node"><title>GenericCarImage</title>
<ellipse fill="none" stroke="black" cx="347.147" cy="-237" rx="72.9135" ry="18"/>
<text text-anchor="middle" x="347.147" y="-232.8" font-family="Times,serif" font-size="14.00">GenericCarImage</text>
</g>
<!-- GenericCar&#45;&gt;GenericCarImage -->
<g id="edge10" class="edge"><title>GenericCar&#45;&gt;GenericCarImage</title>
<path fill="none" stroke="#3a608d" d="M347.147,-283.791C347.147,-277.832 347.147,-271.45 347.147,-265.399"/>
<ellipse fill="none" stroke="#3a608d" cx="347.147" cy="-287.813" rx="4" ry="4"/>
<polygon fill="#3a608d" stroke="#3a608d" points="347.147,-265.029 351.647,-255.029 347.147,-260.029 347.147,-255.029 347.147,-255.029 347.147,-255.029 347.147,-260.029 342.647,-255.029 347.147,-265.029 347.147,-265.029"/>
</g>
<!-- GenericCar&#45;&gt;GenericFamily -->
<g id="edge12" class="edge"><title>GenericCar&#45;&gt;GenericFamily</title>
<path fill="none" stroke="#791dc0" d="M385.967,-291.102C408.643,-280.648 437.233,-267.467 460.256,-256.852"/>
<polygon fill="#791dc0" stroke="#791dc0" points="385.921,-291.124 374.956,-291.224 381.381,-293.217 376.84,-295.31 376.84,-295.31 376.84,-295.31 381.381,-293.217 378.724,-299.397 385.921,-291.124 385.921,-291.124"/>
<polygon fill="#791dc0" stroke="#791dc0" points="460.344,-256.812 471.309,-256.712 464.884,-254.719 469.425,-252.625 469.425,-252.625 469.425,-252.625 464.884,-254.719 467.541,-248.539 460.344,-256.812 460.344,-256.812"/>
</g>
<!-- GenericFittable -->
<g id="node10" class="node"><title>GenericFittable</title>
<ellipse fill="none" stroke="black" cx="234.147" cy="-91" rx="65.2217" ry="18"/>
<text text-anchor="middle" x="234.147" y="-86.8" font-family="Times,serif" font-size="14.00">GenericFittable</text>
</g>
<!-- GenericCar&#45;&gt;GenericFittable -->
<g id="edge8" class="edge"><title>GenericCar&#45;&gt;GenericFittable</title>
<path fill="none" stroke="#426e56" d="M304.305,-293.482C286.579,-284.87 267.542,-272.325 256.147,-255 228.601,-213.117 223.918,-196.026 227.147,-146 227.704,-137.377 228.755,-128.027 229.877,-119.569"/>
<ellipse fill="none" stroke="#426e56" cx="308.162" cy="-295.261" rx="4.00002" ry="4.00002"/>
<polygon fill="#426e56" stroke="#426e56" points="229.907,-119.356 235.76,-110.083 230.606,-114.405 231.304,-109.454 231.304,-109.454 231.304,-109.454 230.606,-114.405 226.849,-108.826 229.907,-119.356 229.907,-119.356"/>
</g>
<!-- StockCar -->
<g id="node20" class="node"><title>StockCar</title>
<ellipse fill="none" stroke="black" cx="1146.15" cy="-237" rx="43.0387" ry="18"/>
<text text-anchor="middle" x="1146.15" y="-232.8" font-family="Times,serif" font-size="14.00">StockCar</text>
</g>
<!-- GenericCar&#45;&gt;StockCar -->
<g id="edge7" class="edge"><title>GenericCar&#45;&gt;StockCar</title>
<path fill="none" stroke="#6fe711" d="M404.401,-304.421C515.349,-295.478 767.355,-274.827 979.147,-255 1017.9,-251.372 1061.66,-246.903 1094.67,-243.458"/>
<ellipse fill="none" stroke="#6fe711" cx="400.327" cy="-304.749" rx="4" ry="4"/>
<polygon fill="#6fe711" stroke="#6fe711" points="1095.04,-243.419 1105.46,-246.853 1100.01,-242.898 1104.99,-242.378 1104.99,-242.378 1104.99,-242.378 1100.01,-242.898 1104.52,-237.902 1095.04,-243.419 1095.04,-243.419"/>
</g>
<!-- GenericFamily&#45;&gt;FamilyLikelihood -->
<g id="edge18" class="edge"><title>GenericFamily&#45;&gt;FamilyLikelihood</title>
<path fill="none" stroke="#c805e1" d="M453.032,-220.324C435.655,-214.485 415.941,-207.656 398.147,-201 383.952,-195.69 368.62,-189.559 354.793,-183.878"/>
<ellipse fill="none" stroke="#c805e1" cx="457.043" cy="-221.665" rx="4.00001" ry="4.00001"/>
<polygon fill="#c805e1" stroke="#c805e1" points="354.734,-183.853 347.212,-175.874 350.113,-181.943 345.492,-180.032 345.492,-180.032 345.492,-180.032 350.113,-181.943 343.773,-184.191 354.734,-183.853 354.734,-183.853"/>
</g>
<!-- GenericFamily&#45;&gt;GenericFamily -->
<g id="edge13" class="edge"><title>GenericFamily&#45;&gt;GenericFamily</title>
<path fill="none" stroke="#f48f85" d="M568.317,-242.878C576.749,-241.841 582.297,-239.882 582.297,-237 582.297,-234.38 577.712,-232.522 570.543,-231.428"/>
<ellipse fill="none" stroke="#f48f85" cx="564.218" cy="-243.219" rx="4" ry="4"/>
<polygon fill="#f48f85" stroke="#f48f85" points="570.188,-231.394 560.657,-225.97 565.21,-230.922 560.232,-230.449 560.232,-230.449 560.232,-230.449 565.21,-230.922 559.807,-234.929 570.188,-231.394 570.188,-231.394"/>
<text text-anchor="middle" x="599.018" y="-232.8" font-family="Times,serif" font-size="14.00">childs</text>
</g>
<!-- GenericSpare -->
<g id="node11" class="node"><title>GenericSpare</title>
<ellipse fill="none" stroke="black" cx="627.147" cy="-164" rx="58.4563" ry="18"/>
<text text-anchor="middle" x="627.147" y="-159.8" font-family="Times,serif" font-size="14.00">GenericSpare</text>
</g>
<!-- GenericFamily&#45;&gt;GenericSpare -->
<g id="edge15" class="edge"><title>GenericFamily&#45;&gt;GenericSpare</title>
<path fill="none" stroke="#c80f81" d="M537.356,-215.597C554.288,-206.056 574.393,-194.726 591.282,-185.21"/>
<polygon fill="#c80f81" stroke="#c80f81" points="537.199,-215.685 526.278,-216.674 532.843,-218.139 528.487,-220.594 528.487,-220.594 528.487,-220.594 532.843,-218.139 530.696,-224.514 537.199,-215.685 537.199,-215.685"/>
<polygon fill="#c80f81" stroke="#c80f81" points="591.581,-185.041 602.502,-184.052 595.937,-182.587 600.293,-180.132 600.293,-180.132 600.293,-180.132 595.937,-182.587 598.084,-176.212 591.581,-185.041 591.581,-185.041"/>
</g>
<!-- SpareLikelihood -->
<g id="node19" class="node"><title>SpareLikelihood</title>
<ellipse fill="none" stroke="black" cx="436.147" cy="-91" rx="69.0978" ry="18"/>
<text text-anchor="middle" x="436.147" y="-86.8" font-family="Times,serif" font-size="14.00">SpareLikelihood</text>
</g>
<!-- GenericFamily&#45;&gt;SpareLikelihood -->
<g id="edge14" class="edge"><title>GenericFamily&#45;&gt;SpareLikelihood</title>
<path fill="none" stroke="#afb6cf" d="M463.785,-216.591C451.008,-207.875 438.174,-196.295 431.147,-182 421.581,-162.538 423.836,-137.775 427.918,-119.152"/>
<ellipse fill="none" stroke="#afb6cf" cx="467.479" cy="-218.971" rx="4.00002" ry="4.00002"/>
<polygon fill="#afb6cf" stroke="#afb6cf" points="427.968,-118.951 434.75,-110.334 429.175,-114.099 430.383,-109.248 430.383,-109.248 430.383,-109.248 429.175,-114.099 426.016,-108.161 427.968,-118.951 427.968,-118.951"/>
</g>
<!-- StockFamily -->
<g id="node22" class="node"><title>StockFamily</title>
<ellipse fill="none" stroke="black" cx="495.147" cy="-164" rx="55.118" ry="18"/>
<text text-anchor="middle" x="495.147" y="-159.8" font-family="Times,serif" font-size="14.00">StockFamily</text>
</g>
<!-- GenericFamily&#45;&gt;StockFamily -->
<g id="edge16" class="edge"><title>GenericFamily&#45;&gt;StockFamily</title>
<path fill="none" stroke="#a378be" d="M499.017,-210.791C498.513,-204.832 497.974,-198.45 497.462,-192.399"/>
<ellipse fill="none" stroke="#a378be" cx="499.358" cy="-214.827" rx="4" ry="4"/>
<polygon fill="#a378be" stroke="#a378be" points="497.428,-191.993 501.07,-181.65 497.007,-187.011 496.586,-182.029 496.586,-182.029 496.586,-182.029 497.007,-187.011 492.102,-182.408 497.428,-191.993 497.428,-191.993"/>
</g>
<!-- GenericFamily&#45;&gt;TypeLikelihood -->
<g id="edge17" class="edge"><title>GenericFamily&#45;&gt;TypeLikelihood</title>
<path fill="none" stroke="#0e3c86" d="M557.792,-223.502C607.25,-212.58 680.96,-196.282 745.147,-182 750.509,-180.807 756.083,-179.565 761.666,-178.318"/>
<ellipse fill="none" stroke="#0e3c86" cx="553.67" cy="-224.412" rx="4.00001" ry="4.00001"/>
<polygon fill="#0e3c86" stroke="#0e3c86" points="761.924,-178.261 772.665,-180.473 766.804,-177.171 771.684,-176.081 771.684,-176.081 771.684,-176.081 766.804,-177.171 770.703,-171.689 761.924,-178.261 761.924,-178.261"/>
</g>
<!-- GenericSpare&#45;&gt;GenericCar -->
<g id="edge21" class="edge"><title>GenericSpare&#45;&gt;GenericCar</title>
<path fill="none" stroke="#803684" d="M634.367,-192.075C637.882,-211.804 638.674,-237.955 624.147,-255 596.678,-287.232 479.998,-300.557 407.115,-305.812"/>
<polygon fill="#803684" stroke="#803684" points="634.338,-191.937 636.685,-181.225 633.31,-187.044 632.281,-182.151 632.281,-182.151 632.281,-182.151 633.31,-187.044 627.877,-183.077 634.338,-191.937 634.338,-191.937"/>
<polygon fill="#803684" stroke="#803684" points="407.112,-305.812 396.826,-302.012 402.124,-306.156 397.136,-306.501 397.136,-306.501 397.136,-306.501 402.124,-306.156 397.446,-310.99 407.112,-305.812 407.112,-305.812"/>
</g>
<!-- GenericSpare&#45;&gt;GenericFittable -->
<g id="edge20" class="edge"><title>GenericSpare&#45;&gt;GenericFittable</title>
<path fill="none" stroke="#16827d" d="M576.286,-149.813C570.521,-148.458 564.717,-147.157 559.147,-146 470.374,-127.559 366.926,-111.251 301.015,-101.505"/>
<ellipse fill="none" stroke="#16827d" cx="580.21" cy="-150.752" rx="4.00001" ry="4.00001"/>
<polygon fill="#16827d" stroke="#16827d" points="300.66,-101.453 291.422,-95.5457 295.714,-100.725 290.767,-99.9978 290.767,-99.9978 290.767,-99.9978 295.714,-100.725 290.112,-104.45 300.66,-101.453 300.66,-101.453"/>
</g>
<!-- GenericSpare&#45;&gt;GenericSpare -->
<g id="edge19" class="edge"><title>GenericSpare&#45;&gt;GenericSpare</title>
<path fill="none" stroke="#e9012f" d="M689.814,-169.932C697.974,-168.911 703.375,-166.934 703.375,-164 703.375,-161.306 698.82,-159.418 691.756,-158.337"/>
<ellipse fill="none" stroke="#e9012f" cx="685.607" cy="-170.276" rx="4" ry="4"/>
<polygon fill="#e9012f" stroke="#e9012f" points="691.578,-158.32 682.035,-152.918 686.599,-157.86 681.62,-157.399 681.62,-157.399 681.62,-157.399 686.599,-157.86 681.205,-161.88 691.578,-158.32 691.578,-158.32"/>
<text text-anchor="middle" x="720.096" y="-159.8" font-family="Times,serif" font-size="14.00">childs</text>
</g>
<!-- GenericSpareImage -->
<g id="node12" class="node"><title>GenericSpareImage</title>
<ellipse fill="none" stroke="black" cx="627.147" cy="-91" rx="80.1472" ry="18"/>
<text text-anchor="middle" x="627.147" y="-86.8" font-family="Times,serif" font-size="14.00">GenericSpareImage</text>
</g>
<!-- GenericSpare&#45;&gt;GenericSpareImage -->
<g id="edge24" class="edge"><title>GenericSpare&#45;&gt;GenericSpareImage</title>
<path fill="none" stroke="#40da4c" d="M627.147,-137.791C627.147,-131.832 627.147,-125.45 627.147,-119.399"/>
<ellipse fill="none" stroke="#40da4c" cx="627.147" cy="-141.813" rx="4" ry="4"/>
<polygon fill="#40da4c" stroke="#40da4c" points="627.147,-119.029 631.647,-109.029 627.147,-114.029 627.147,-109.029 627.147,-109.029 627.147,-109.029 627.147,-114.029 622.647,-109.029 627.147,-119.029 627.147,-119.029"/>
</g>
<!-- GenericSpare&#45;&gt;SpareLikelihood -->
<g id="edge22" class="edge"><title>GenericSpare&#45;&gt;SpareLikelihood</title>
<path fill="none" stroke="#bb8589" d="M583.532,-146.787C553.778,-135.727 514.374,-121.079 483.796,-109.713"/>
<ellipse fill="none" stroke="#bb8589" cx="587.472" cy="-148.252" rx="4.00001" ry="4.00001"/>
<polygon fill="#bb8589" stroke="#bb8589" points="483.575,-109.63 475.77,-101.928 478.889,-107.888 474.202,-106.146 474.202,-106.146 474.202,-106.146 478.889,-107.888 472.634,-110.364 483.575,-109.63 483.575,-109.63"/>
</g>
<!-- StockSpare -->
<g id="node23" class="node"><title>StockSpare</title>
<ellipse fill="none" stroke="black" cx="925.147" cy="-91" rx="50.2723" ry="18"/>
<text text-anchor="middle" x="925.147" y="-86.8" font-family="Times,serif" font-size="14.00">StockSpare</text>
</g>
<!-- GenericSpare&#45;&gt;StockSpare -->
<g id="edge23" class="edge"><title>GenericSpare&#45;&gt;StockSpare</title>
<path fill="none" stroke="#e7a17a" d="M679.774,-150.461C734.828,-137.345 820.624,-116.903 874.807,-103.994"/>
<ellipse fill="none" stroke="#e7a17a" cx="675.652" cy="-151.443" rx="4.00001" ry="4.00001"/>
<polygon fill="#e7a17a" stroke="#e7a17a" points="874.814,-103.992 885.585,-106.052 879.678,-102.833 884.542,-101.674 884.542,-101.674 884.542,-101.674 879.678,-102.833 883.499,-97.297 874.814,-103.992 874.814,-103.992"/>
</g>
<!-- Insured -->
<g id="node13" class="node"><title>Insured</title>
<ellipse fill="none" stroke="black" cx="1244.15" cy="-237" rx="36.7576" ry="18"/>
<text text-anchor="middle" x="1244.15" y="-232.8" font-family="Times,serif" font-size="14.00">Insured</text>
</g>
<!-- ModelAcronym&#45;&gt;GenericCar -->
<g id="edge25" class="edge"><title>ModelAcronym&#45;&gt;GenericCar</title>
<path fill="none" stroke="#d6c37f" d="M347.147,-356.791C347.147,-350.832 347.147,-344.45 347.147,-338.399"/>
<ellipse fill="none" stroke="#d6c37f" cx="347.147" cy="-360.813" rx="4" ry="4"/>
<polygon fill="#d6c37f" stroke="#d6c37f" points="347.147,-338.029 351.647,-328.029 347.147,-333.029 347.147,-328.029 347.147,-328.029 347.147,-328.029 347.147,-333.029 342.647,-328.029 347.147,-338.029 347.147,-338.029"/>
</g>
<!-- MoldComponent -->
<g id="node15" class="node"><title>MoldComponent</title>
<ellipse fill="none" stroke="black" cx="976.147" cy="-164" rx="70.5772" ry="18"/>
<text text-anchor="middle" x="976.147" y="-159.8" font-family="Times,serif" font-size="14.00">MoldComponent</text>
</g>
<!-- MoldSpare -->
<g id="node16" class="node"><title>MoldSpare</title>
<ellipse fill="none" stroke="black" cx="921.147" cy="-237" rx="49.3119" ry="18"/>
<text text-anchor="middle" x="921.147" y="-232.8" font-family="Times,serif" font-size="14.00">MoldSpare</text>
</g>
<!-- MoldSpare&#45;&gt;GenericSpare -->
<g id="edge26" class="edge"><title>MoldSpare&#45;&gt;GenericSpare</title>
<path fill="none" stroke="#8ed58a" d="M873.232,-224.429C820.748,-211.754 736.736,-191.465 681.743,-178.185"/>
<ellipse fill="none" stroke="#8ed58a" cx="877.303" cy="-225.412" rx="4.00001" ry="4.00001"/>
<polygon fill="#8ed58a" stroke="#8ed58a" points="681.547,-178.138 672.883,-171.416 676.687,-176.964 671.827,-175.79 671.827,-175.79 671.827,-175.79 676.687,-176.964 670.77,-180.164 681.547,-178.138 681.547,-178.138"/>
</g>
<!-- MoldSpare&#45;&gt;MoldComponent -->
<g id="edge27" class="edge"><title>MoldSpare&#45;&gt;MoldComponent</title>
<path fill="none" stroke="#61b5d2" d="M938.867,-213.126C944.524,-205.822 950.817,-197.699 956.597,-190.237"/>
<ellipse fill="none" stroke="#61b5d2" cx="936.353" cy="-216.371" rx="4.00002" ry="4.00002"/>
<polygon fill="#61b5d2" stroke="#61b5d2" points="956.954,-189.777 966.635,-184.627 960.016,-185.824 963.078,-181.871 963.078,-181.871 963.078,-181.871 960.016,-185.824 959.521,-179.115 956.954,-189.777 956.954,-189.777"/>
</g>
<!-- Prevaluation -->
<g id="node17" class="node"><title>Prevaluation</title>
<ellipse fill="none" stroke="black" cx="1250.15" cy="-310" rx="54.6076" ry="18"/>
<text text-anchor="middle" x="1250.15" y="-305.8" font-family="Times,serif" font-size="14.00">Prevaluation</text>
</g>
<!-- Prevaluation&#45;&gt;Insured -->
<g id="edge29" class="edge"><title>Prevaluation&#45;&gt;Insured</title>
<path fill="none" stroke="#217f04" d="M1248.02,-283.791C1247.51,-277.832 1246.97,-271.45 1246.46,-265.399"/>
<ellipse fill="none" stroke="#217f04" cx="1248.36" cy="-287.827" rx="4" ry="4"/>
<polygon fill="#217f04" stroke="#217f04" points="1246.43,-264.993 1250.07,-254.65 1246.01,-260.011 1245.59,-255.029 1245.59,-255.029 1245.59,-255.029 1246.01,-260.011 1241.1,-255.408 1246.43,-264.993 1246.43,-264.993"/>
</g>
<!-- PrevaluationImage -->
<g id="node18" class="node"><title>PrevaluationImage</title>
<ellipse fill="none" stroke="black" cx="1376.15" cy="-237" rx="76.7985" ry="18"/>
<text text-anchor="middle" x="1376.15" y="-232.8" font-family="Times,serif" font-size="14.00">PrevaluationImage</text>
</g>
<!-- Prevaluation&#45;&gt;PrevaluationImage -->
<g id="edge31" class="edge"><title>Prevaluation&#45;&gt;PrevaluationImage</title>
<path fill="none" stroke="#8945a3" d="M1283.7,-290.092C1300.8,-280.46 1321.62,-268.725 1339.17,-258.834"/>
<ellipse fill="none" stroke="#8945a3" cx="1280.05" cy="-292.152" rx="4.00002" ry="4.00002"/>
<polygon fill="#8945a3" stroke="#8945a3" points="1339.31,-258.759 1350.23,-257.771 1343.66,-256.305 1348.02,-253.85 1348.02,-253.85 1348.02,-253.85 1343.66,-256.305 1345.81,-249.93 1339.31,-258.759 1339.31,-258.759"/>
</g>
<!-- Prevaluation&#45;&gt;StockCar -->
<g id="edge28" class="edge"><title>Prevaluation&#45;&gt;StockCar</title>
<path fill="none" stroke="#6926e6" d="M1220.61,-288.835C1206.63,-279.288 1189.96,-267.909 1175.94,-258.34"/>
<ellipse fill="none" stroke="#6926e6" cx="1224.28" cy="-291.339" rx="4.00002" ry="4.00002"/>
<polygon fill="#6926e6" stroke="#6926e6" points="1175.86,-258.286 1170.14,-248.931 1171.73,-255.467 1167.6,-252.648 1167.6,-252.648 1167.6,-252.648 1171.73,-255.467 1165.07,-256.365 1175.86,-258.286 1175.86,-258.286"/>
</g>
<!-- Valuation -->
<g id="node27" class="node"><title>Valuation</title>
<ellipse fill="none" stroke="black" cx="1515.15" cy="-237" rx="43.9992" ry="18"/>
<text text-anchor="middle" x="1515.15" y="-232.8" font-family="Times,serif" font-size="14.00">Valuation</text>
</g>
<!-- Prevaluation&#45;&gt;Valuation -->
<g id="edge30" class="edge"><title>Prevaluation&#45;&gt;Valuation</title>
<path fill="none" stroke="#b3f9b1" d="M1301.2,-296.922C1344.29,-286.506 1407.51,-270.706 1462.15,-255 1466.11,-253.861 1470.22,-252.63 1474.33,-251.369"/>
<ellipse fill="none" stroke="#b3f9b1" cx="1297.28" cy="-297.865" rx="4.00001" ry="4.00001"/>
<ellipse fill="#b3f9b1" stroke="#b3f9b1" cx="1478.35" cy="-250.114" rx="4.00001" ry="4.00001"/>
</g>
<!-- StockCarImage -->
<g id="node21" class="node"><title>StockCarImage</title>
<ellipse fill="none" stroke="black" cx="1168.15" cy="-164" rx="65.2304" ry="18"/>
<text text-anchor="middle" x="1168.15" y="-159.8" font-family="Times,serif" font-size="14.00">StockCarImage</text>
</g>
<!-- StockCar&#45;&gt;StockCarImage -->
<g id="edge32" class="edge"><title>StockCar&#45;&gt;StockCarImage</title>
<path fill="none" stroke="#ed4062" d="M1153.87,-211.08C1155.82,-204.774 1157.93,-197.979 1159.91,-191.594"/>
<ellipse fill="none" stroke="#ed4062" cx="1152.66" cy="-214.992" rx="4.00001" ry="4.00001"/>
<polygon fill="#ed4062" stroke="#ed4062" points="1159.91,-191.581 1167.17,-183.361 1161.39,-186.805 1162.87,-182.029 1162.87,-182.029 1162.87,-182.029 1161.39,-186.805 1158.57,-180.697 1159.91,-191.581 1159.91,-191.581"/>
</g>
<!-- StockSpareImage -->
<g id="node24" class="node"><title>StockSpareImage</title>
<ellipse fill="none" stroke="black" cx="925.147" cy="-18" rx="72.4635" ry="18"/>
<text text-anchor="middle" x="925.147" y="-13.8" font-family="Times,serif" font-size="14.00">StockSpareImage</text>
</g>
<!-- StockSpare&#45;&gt;StockSpareImage -->
<g id="edge33" class="edge"><title>StockSpare&#45;&gt;StockSpareImage</title>
<path fill="none" stroke="#b6b68b" d="M925.147,-64.791C925.147,-58.832 925.147,-52.4496 925.147,-46.3988"/>
<ellipse fill="none" stroke="#b6b68b" cx="925.147" cy="-68.8129" rx="4" ry="4"/>
<polygon fill="#b6b68b" stroke="#b6b68b" points="925.147,-46.0288 929.647,-36.0288 925.147,-41.0288 925.147,-36.0288 925.147,-36.0288 925.147,-36.0288 925.147,-41.0288 920.647,-36.0289 925.147,-46.0288 925.147,-46.0288"/>
</g>
<!-- User -->
<g id="node26" class="node"><title>User</title>
<ellipse fill="none" stroke="black" cx="424.147" cy="-474.5" rx="27" ry="18"/>
<text text-anchor="middle" x="424.147" y="-470.3" font-family="Times,serif" font-size="14.00">User</text>
</g>
<!-- Warehouse -->
<g id="node28" class="node"><title>Warehouse</title>
<ellipse fill="none" stroke="black" cx="1108.15" cy="-310" rx="49.3546" ry="18"/>
<text text-anchor="middle" x="1108.15" y="-305.8" font-family="Times,serif" font-size="14.00">Warehouse</text>
</g>
<!-- Warehouse&#45;&gt;StockCar -->
<g id="edge35" class="edge"><title>Warehouse&#45;&gt;StockCar</title>
<path fill="none" stroke="#c22e13" d="M1121.05,-284.898C1124.7,-278.071 1128.69,-270.613 1132.39,-263.695"/>
<ellipse fill="none" stroke="#c22e13" cx="1119.04" cy="-288.647" rx="4.00002" ry="4.00002"/>
<polygon fill="#c22e13" stroke="#c22e13" points="1132.49,-263.522 1141.17,-256.829 1134.85,-259.114 1137.21,-254.705 1137.21,-254.705 1137.21,-254.705 1134.85,-259.114 1133.24,-252.582 1132.49,-263.522 1132.49,-263.522"/>
</g>
<!-- Warehouse&#45;&gt;StockSpare -->
<g id="edge34" class="edge"><title>Warehouse&#45;&gt;StockSpare</title>
<path fill="none" stroke="#106ade" d="M1101.51,-284.316C1089.78,-241.352 1065.72,-156.391 1056.15,-146 1035.9,-124.019 1005.37,-110.74 978.877,-102.853"/>
<ellipse fill="none" stroke="#106ade" cx="1102.57" cy="-288.208" rx="4.00001" ry="4.00001"/>
<polygon fill="#106ade" stroke="#106ade" points="978.583,-102.771 970.158,-95.7527 973.767,-101.429 968.95,-100.088 968.95,-100.088 968.95,-100.088 973.767,-101.429 967.742,-104.423 978.583,-102.771 978.583,-102.771"/>
</g>
</g>
</svg>
