<?xml version="1.0" encoding="UTF-8" standalone="no"?>
<!DOCTYPE svg PUBLIC "-//W3C//DTD SVG 1.1//EN"
 "http://www.w3.org/Graphics/SVG/1.1/DTD/svg11.dtd">
<!-- Generated by graphviz version 2.38.0 (20140413.2041)
 -->
<!-- Title: models_diagram Pages: 1 -->
<svg width="1017pt" height="1083pt"
 viewBox="0.00 0.00 1016.83 1083.00" xmlns="http://www.w3.org/2000/svg" xmlns:xlink="http://www.w3.org/1999/xlink">
<g id="graph0" class="graph" transform="scale(1 1) rotate(0) translate(4 1079)">
<title>models_diagram</title>
<polygon fill="white" stroke="none" points="-4,4 -4,-1079 1012.83,-1079 1012.83,4 -4,4"/>
<!-- _diagram_info -->
<g id="node1" class="node"><title>_diagram_info</title>
<text text-anchor="start" x="214.079" y="-1060.6" font-family="Times,serif" font-size="13.00">Models diagram</text>
<text text-anchor="start" x="214.079" y="-1047.6" font-family="Times,serif" font-size="13.00">Date: Sep 12 2014 &#45; 18:36</text>
<text text-anchor="start" x="214.079" y="-1034.6" font-family="Times,serif" font-size="13.00">Migration version: 20140912232245</text>
<text text-anchor="start" x="214.079" y="-1021.6" font-family="Times,serif" font-size="13.00">Generated by RailRoady 1.1.2</text>
<text text-anchor="start" x="214.079" y="-1008.6" font-family="Times,serif" font-size="13.00">http://railroady.prestonlee.com</text>
</g>
<!-- Car -->
<g id="node2" class="node"><title>Car</title>
<path fill="none" stroke="black" d="M184.144,-0.5C184.144,-0.5 327.389,-0.5 327.389,-0.5 333.389,-0.5 339.389,-6.5 339.389,-12.5 339.389,-12.5 339.389,-214.5 339.389,-214.5 339.389,-220.5 333.389,-226.5 327.389,-226.5 327.389,-226.5 184.144,-226.5 184.144,-226.5 178.144,-226.5 172.144,-220.5 172.144,-214.5 172.144,-214.5 172.144,-12.5 172.144,-12.5 172.144,-6.5 178.144,-0.5 184.144,-0.5"/>
<text text-anchor="middle" x="255.767" y="-211.3" font-family="Times,serif" font-size="14.00">Car</text>
<polyline fill="none" stroke="black" points="172.144,-204.5 339.389,-204.5 "/>
<text text-anchor="start" x="180.144" y="-189.3" font-family="Times,serif" font-size="14.00">id :integer</text>
<text text-anchor="start" x="180.144" y="-175.3" font-family="Times,serif" font-size="14.00">prevaluation_id :integer</text>
<text text-anchor="start" x="180.144" y="-161.3" font-family="Times,serif" font-size="14.00">generic_car_id :integer</text>
<text text-anchor="start" x="180.144" y="-147.3" font-family="Times,serif" font-size="14.00">warehouse_id :integer</text>
<text text-anchor="start" x="180.144" y="-133.3" font-family="Times,serif" font-size="14.00">color :string</text>
<text text-anchor="start" x="180.144" y="-119.3" font-family="Times,serif" font-size="14.00">door_number :integer</text>
<text text-anchor="start" x="180.144" y="-105.3" font-family="Times,serif" font-size="14.00">serie :string</text>
<text text-anchor="start" x="180.144" y="-91.3" font-family="Times,serif" font-size="14.00">motor :string</text>
<text text-anchor="start" x="180.144" y="-77.3" font-family="Times,serif" font-size="14.00">license_plates :string</text>
<text text-anchor="start" x="180.144" y="-63.3" font-family="Times,serif" font-size="14.00">inventory_description :text</text>
<text text-anchor="start" x="180.144" y="-49.3" font-family="Times,serif" font-size="14.00">special_equipment :text</text>
<text text-anchor="start" x="180.144" y="-35.3" font-family="Times,serif" font-size="14.00">economic_number :string</text>
<text text-anchor="start" x="180.144" y="-21.3" font-family="Times,serif" font-size="14.00">created_at :datetime</text>
<text text-anchor="start" x="180.144" y="-7.3" font-family="Times,serif" font-size="14.00">updated_at :datetime</text>
</g>
<!-- GenericCar -->
<g id="node3" class="node"><title>GenericCar</title>
<path fill="none" stroke="black" d="M72.2614,-543.5C72.2614,-543.5 181.272,-543.5 181.272,-543.5 187.272,-543.5 193.272,-549.5 193.272,-555.5 193.272,-555.5 193.272,-673.5 193.272,-673.5 193.272,-679.5 187.272,-685.5 181.272,-685.5 181.272,-685.5 72.2614,-685.5 72.2614,-685.5 66.2614,-685.5 60.2614,-679.5 60.2614,-673.5 60.2614,-673.5 60.2614,-555.5 60.2614,-555.5 60.2614,-549.5 66.2614,-543.5 72.2614,-543.5"/>
<text text-anchor="middle" x="126.767" y="-670.3" font-family="Times,serif" font-size="14.00">GenericCar</text>
<polyline fill="none" stroke="black" points="60.2614,-663.5 193.272,-663.5 "/>
<text text-anchor="start" x="68.2614" y="-648.3" font-family="Times,serif" font-size="14.00">id :integer</text>
<text text-anchor="start" x="68.2614" y="-634.3" font-family="Times,serif" font-size="14.00">brand :string</text>
<text text-anchor="start" x="68.2614" y="-620.3" font-family="Times,serif" font-size="14.00">type :string</text>
<text text-anchor="start" x="68.2614" y="-606.3" font-family="Times,serif" font-size="14.00">year :integer</text>
<text text-anchor="start" x="68.2614" y="-592.3" font-family="Times,serif" font-size="14.00">generation :string</text>
<text text-anchor="start" x="68.2614" y="-578.3" font-family="Times,serif" font-size="14.00">model :string</text>
<text text-anchor="start" x="68.2614" y="-564.3" font-family="Times,serif" font-size="14.00">created_at :datetime</text>
<text text-anchor="start" x="68.2614" y="-550.3" font-family="Times,serif" font-size="14.00">updated_at :datetime</text>
</g>
<!-- GenericCar&#45;&gt;Car -->
<g id="edge2" class="edge"><title>GenericCar&#45;&gt;Car</title>
<path fill="none" stroke="#032c35" d="M142.866,-535.147C158.001,-463.795 182.114,-355.736 207.767,-263 210.154,-254.37 212.725,-245.494 215.392,-236.578"/>
<ellipse fill="none" stroke="#032c35" cx="141.984" cy="-539.317" rx="4.00001" ry="4.00001"/>
<polygon fill="#032c35" stroke="#032c35" points="215.424,-236.47 222.627,-228.201 216.872,-231.684 218.32,-226.898 218.32,-226.898 218.32,-226.898 216.872,-231.684 214.012,-225.596 215.424,-236.47 215.424,-236.47"/>
</g>
<!-- GenericSpare -->
<g id="node5" class="node"><title>GenericSpare</title>
<path fill="none" stroke="black" d="M22.2614,-42.5C22.2614,-42.5 131.272,-42.5 131.272,-42.5 137.272,-42.5 143.272,-48.5 143.272,-54.5 143.272,-54.5 143.272,-172.5 143.272,-172.5 143.272,-178.5 137.272,-184.5 131.272,-184.5 131.272,-184.5 22.2614,-184.5 22.2614,-184.5 16.2614,-184.5 10.2614,-178.5 10.2614,-172.5 10.2614,-172.5 10.2614,-54.5 10.2614,-54.5 10.2614,-48.5 16.2614,-42.5 22.2614,-42.5"/>
<text text-anchor="middle" x="76.7668" y="-169.3" font-family="Times,serif" font-size="14.00">GenericSpare</text>
<polyline fill="none" stroke="black" points="10.2614,-162.5 143.272,-162.5 "/>
<text text-anchor="start" x="18.2614" y="-147.3" font-family="Times,serif" font-size="14.00">id :integer</text>
<text text-anchor="start" x="18.2614" y="-133.3" font-family="Times,serif" font-size="14.00">brand :string</text>
<text text-anchor="start" x="18.2614" y="-119.3" font-family="Times,serif" font-size="14.00">type :string</text>
<text text-anchor="start" x="18.2614" y="-105.3" font-family="Times,serif" font-size="14.00">name :string</text>
<text text-anchor="start" x="18.2614" y="-91.3" font-family="Times,serif" font-size="14.00">region :string</text>
<text text-anchor="start" x="18.2614" y="-77.3" font-family="Times,serif" font-size="14.00">description :text</text>
<text text-anchor="start" x="18.2614" y="-63.3" font-family="Times,serif" font-size="14.00">created_at :datetime</text>
<text text-anchor="start" x="18.2614" y="-49.3" font-family="Times,serif" font-size="14.00">updated_at :datetime</text>
</g>
<!-- GenericCar&#45;&gt;GenericSpare -->
<g id="edge3" class="edge"><title>GenericCar&#45;&gt;GenericSpare</title>
<path fill="none" stroke="#108e2a" d="M118.734,-533.331C109.417,-440.345 94.1457,-287.942 84.8199,-194.87"/>
<polygon fill="#108e2a" stroke="#108e2a" points="118.738,-533.377 115.258,-543.776 119.237,-538.352 119.735,-543.327 119.735,-543.327 119.735,-543.327 119.237,-538.352 124.213,-542.879 118.738,-533.377 118.738,-533.377"/>
<polygon fill="#108e2a" stroke="#108e2a" points="84.7938,-194.609 88.2743,-184.21 84.2953,-189.634 83.7967,-184.659 83.7967,-184.659 83.7967,-184.659 84.2953,-189.634 79.3192,-185.108 84.7938,-194.609 84.7938,-194.609"/>
</g>
<!-- GenericCarsGenericSpares -->
<g id="node4" class="node"><title>GenericCarsGenericSpares</title>
<path fill="none" stroke="black" d="M608.97,-564.5C608.97,-564.5 752.564,-564.5 752.564,-564.5 758.564,-564.5 764.564,-570.5 764.564,-576.5 764.564,-576.5 764.564,-652.5 764.564,-652.5 764.564,-658.5 758.564,-664.5 752.564,-664.5 752.564,-664.5 608.97,-664.5 608.97,-664.5 602.97,-664.5 596.97,-658.5 596.97,-652.5 596.97,-652.5 596.97,-576.5 596.97,-576.5 596.97,-570.5 602.97,-564.5 608.97,-564.5"/>
<text text-anchor="middle" x="680.767" y="-649.3" font-family="Times,serif" font-size="14.00">GenericCarsGenericSpares</text>
<polyline fill="none" stroke="black" points="596.97,-642.5 764.564,-642.5 "/>
<text text-anchor="start" x="604.97" y="-627.3" font-family="Times,serif" font-size="14.00">id :integer</text>
<text text-anchor="start" x="604.97" y="-613.3" font-family="Times,serif" font-size="14.00">generic_car_id :integer</text>
<text text-anchor="start" x="604.97" y="-599.3" font-family="Times,serif" font-size="14.00">generic_spare_id :integer</text>
<text text-anchor="start" x="604.97" y="-585.3" font-family="Times,serif" font-size="14.00">created_at :datetime</text>
<text text-anchor="start" x="604.97" y="-571.3" font-family="Times,serif" font-size="14.00">updated_at :datetime</text>
</g>
<!-- Insured -->
<g id="node6" class="node"><title>Insured</title>
<path fill="none" stroke="black" d="M503.706,-42.5C503.706,-42.5 629.827,-42.5 629.827,-42.5 635.827,-42.5 641.827,-48.5 641.827,-54.5 641.827,-54.5 641.827,-172.5 641.827,-172.5 641.827,-178.5 635.827,-184.5 629.827,-184.5 629.827,-184.5 503.706,-184.5 503.706,-184.5 497.706,-184.5 491.706,-178.5 491.706,-172.5 491.706,-172.5 491.706,-54.5 491.706,-54.5 491.706,-48.5 497.706,-42.5 503.706,-42.5"/>
<text text-anchor="middle" x="566.767" y="-169.3" font-family="Times,serif" font-size="14.00">Insured</text>
<polyline fill="none" stroke="black" points="491.706,-162.5 641.827,-162.5 "/>
<text text-anchor="start" x="499.706" y="-147.3" font-family="Times,serif" font-size="14.00">id :integer</text>
<text text-anchor="start" x="499.706" y="-133.3" font-family="Times,serif" font-size="14.00">prevaluation_id :integer</text>
<text text-anchor="start" x="499.706" y="-119.3" font-family="Times,serif" font-size="14.00">third :boolean</text>
<text text-anchor="start" x="499.706" y="-105.3" font-family="Times,serif" font-size="14.00">name :string</text>
<text text-anchor="start" x="499.706" y="-91.3" font-family="Times,serif" font-size="14.00">telephone :integer</text>
<text text-anchor="start" x="499.706" y="-77.3" font-family="Times,serif" font-size="14.00">email :string</text>
<text text-anchor="start" x="499.706" y="-63.3" font-family="Times,serif" font-size="14.00">created_at :datetime</text>
<text text-anchor="start" x="499.706" y="-49.3" font-family="Times,serif" font-size="14.00">updated_at :datetime</text>
</g>
<!-- Prevaluation -->
<g id="node7" class="node"><title>Prevaluation</title>
<path fill="none" stroke="black" d="M261.317,-263.5C261.317,-263.5 416.217,-263.5 416.217,-263.5 422.217,-263.5 428.217,-269.5 428.217,-275.5 428.217,-275.5 428.217,-953.5 428.217,-953.5 428.217,-959.5 422.217,-965.5 416.217,-965.5 416.217,-965.5 261.317,-965.5 261.317,-965.5 255.317,-965.5 249.317,-959.5 249.317,-953.5 249.317,-953.5 249.317,-275.5 249.317,-275.5 249.317,-269.5 255.317,-263.5 261.317,-263.5"/>
<text text-anchor="middle" x="338.767" y="-950.3" font-family="Times,serif" font-size="14.00">Prevaluation</text>
<polyline fill="none" stroke="black" points="249.317,-943.5 428.217,-943.5 "/>
<text text-anchor="start" x="257.317" y="-928.3" font-family="Times,serif" font-size="14.00">id :integer</text>
<text text-anchor="start" x="257.317" y="-914.3" font-family="Times,serif" font-size="14.00">number :string</text>
<text text-anchor="start" x="257.317" y="-900.3" font-family="Times,serif" font-size="14.00">policy :string</text>
<text text-anchor="start" x="257.317" y="-886.3" font-family="Times,serif" font-size="14.00">subsection :string</text>
<text text-anchor="start" x="257.317" y="-872.3" font-family="Times,serif" font-size="14.00">expedition_date :date</text>
<text text-anchor="start" x="257.317" y="-858.3" font-family="Times,serif" font-size="14.00">valuation_date :date</text>
<text text-anchor="start" x="257.317" y="-844.3" font-family="Times,serif" font-size="14.00">deductible_value :float</text>
<text text-anchor="start" x="257.317" y="-830.3" font-family="Times,serif" font-size="14.00">commercial_value :float</text>
<text text-anchor="start" x="257.317" y="-816.3" font-family="Times,serif" font-size="14.00">requires_crane :boolean</text>
<text text-anchor="start" x="257.317" y="-802.3" font-family="Times,serif" font-size="14.00">collection_status :boolean</text>
<text text-anchor="start" x="257.317" y="-788.3" font-family="Times,serif" font-size="14.00">special_conditions :string</text>
<text text-anchor="start" x="257.317" y="-774.3" font-family="Times,serif" font-size="14.00">third_insured :boolean</text>
<text text-anchor="start" x="257.317" y="-760.3" font-family="Times,serif" font-size="14.00">agent_name :string</text>
<text text-anchor="start" x="257.317" y="-746.3" font-family="Times,serif" font-size="14.00">comment :text</text>
<text text-anchor="start" x="257.317" y="-732.3" font-family="Times,serif" font-size="14.00">photo1_file_name :string</text>
<text text-anchor="start" x="257.317" y="-718.3" font-family="Times,serif" font-size="14.00">photo1_content_type :string</text>
<text text-anchor="start" x="257.317" y="-704.3" font-family="Times,serif" font-size="14.00">photo1_file_size :integer</text>
<text text-anchor="start" x="257.317" y="-690.3" font-family="Times,serif" font-size="14.00">photo1_updated_at :datetime</text>
<text text-anchor="start" x="257.317" y="-676.3" font-family="Times,serif" font-size="14.00">photo2_file_name :string</text>
<text text-anchor="start" x="257.317" y="-662.3" font-family="Times,serif" font-size="14.00">photo2_content_type :string</text>
<text text-anchor="start" x="257.317" y="-648.3" font-family="Times,serif" font-size="14.00">photo2_file_size :integer</text>
<text text-anchor="start" x="257.317" y="-634.3" font-family="Times,serif" font-size="14.00">photo2_updated_at :datetime</text>
<text text-anchor="start" x="257.317" y="-620.3" font-family="Times,serif" font-size="14.00">photo3_file_name :string</text>
<text text-anchor="start" x="257.317" y="-606.3" font-family="Times,serif" font-size="14.00">photo3_content_type :string</text>
<text text-anchor="start" x="257.317" y="-592.3" font-family="Times,serif" font-size="14.00">photo3_file_size :integer</text>
<text text-anchor="start" x="257.317" y="-578.3" font-family="Times,serif" font-size="14.00">photo3_updated_at :datetime</text>
<text text-anchor="start" x="257.317" y="-564.3" font-family="Times,serif" font-size="14.00">photo4_file_name :string</text>
<text text-anchor="start" x="257.317" y="-550.3" font-family="Times,serif" font-size="14.00">photo4_content_type :string</text>
<text text-anchor="start" x="257.317" y="-536.3" font-family="Times,serif" font-size="14.00">photo4_file_size :integer</text>
<text text-anchor="start" x="257.317" y="-522.3" font-family="Times,serif" font-size="14.00">photo4_updated_at :datetime</text>
<text text-anchor="start" x="257.317" y="-508.3" font-family="Times,serif" font-size="14.00">doc1_file_name :string</text>
<text text-anchor="start" x="257.317" y="-494.3" font-family="Times,serif" font-size="14.00">doc1_content_type :string</text>
<text text-anchor="start" x="257.317" y="-480.3" font-family="Times,serif" font-size="14.00">doc1_file_size :integer</text>
<text text-anchor="start" x="257.317" y="-466.3" font-family="Times,serif" font-size="14.00">doc1_updated_at :datetime</text>
<text text-anchor="start" x="257.317" y="-452.3" font-family="Times,serif" font-size="14.00">doc2_file_name :string</text>
<text text-anchor="start" x="257.317" y="-438.3" font-family="Times,serif" font-size="14.00">doc2_content_type :string</text>
<text text-anchor="start" x="257.317" y="-424.3" font-family="Times,serif" font-size="14.00">doc2_file_size :integer</text>
<text text-anchor="start" x="257.317" y="-410.3" font-family="Times,serif" font-size="14.00">doc2_updated_at :datetime</text>
<text text-anchor="start" x="257.317" y="-396.3" font-family="Times,serif" font-size="14.00">doc3_file_name :string</text>
<text text-anchor="start" x="257.317" y="-382.3" font-family="Times,serif" font-size="14.00">doc3_content_type :string</text>
<text text-anchor="start" x="257.317" y="-368.3" font-family="Times,serif" font-size="14.00">doc3_file_size :integer</text>
<text text-anchor="start" x="257.317" y="-354.3" font-family="Times,serif" font-size="14.00">doc3_updated_at :datetime</text>
<text text-anchor="start" x="257.317" y="-340.3" font-family="Times,serif" font-size="14.00">doc4_file_name :string</text>
<text text-anchor="start" x="257.317" y="-326.3" font-family="Times,serif" font-size="14.00">doc4_content_type :string</text>
<text text-anchor="start" x="257.317" y="-312.3" font-family="Times,serif" font-size="14.00">doc4_file_size :integer</text>
<text text-anchor="start" x="257.317" y="-298.3" font-family="Times,serif" font-size="14.00">doc4_updated_at :datetime</text>
<text text-anchor="start" x="257.317" y="-284.3" font-family="Times,serif" font-size="14.00">created_at :datetime</text>
<text text-anchor="start" x="257.317" y="-270.3" font-family="Times,serif" font-size="14.00">updated_at :datetime</text>
</g>
<!-- Prevaluation&#45;&gt;Car -->
<g id="edge8" class="edge"><title>Prevaluation&#45;&gt;Car</title>
<path fill="none" stroke="#6e6204" d="M279.173,-255.222C278.121,-248.895 277.088,-242.683 276.077,-236.609"/>
<ellipse fill="none" stroke="#6e6204" cx="279.845" cy="-259.257" rx="4.00001" ry="4.00001"/>
<polygon fill="#6e6204" stroke="#6e6204" points="276.04,-236.385 278.838,-225.782 275.22,-231.453 274.399,-226.521 274.399,-226.521 274.399,-226.521 275.22,-231.453 269.96,-227.259 276.04,-236.385 276.04,-236.385"/>
</g>
<!-- Prevaluation&#45;&gt;Insured -->
<g id="edge9" class="edge"><title>Prevaluation&#45;&gt;Insured</title>
<path fill="none" stroke="#fad4ec" d="M432.15,-271.741C433.666,-268.802 435.205,-265.887 436.767,-263 450.197,-238.172 468.446,-213.945 487.022,-192.503"/>
<ellipse fill="none" stroke="#fad4ec" cx="430.234" cy="-275.528" rx="4.00002" ry="4.00002"/>
<polygon fill="#fad4ec" stroke="#fad4ec" points="487.259,-192.234 497.248,-187.709 490.566,-188.484 493.872,-184.733 493.872,-184.733 493.872,-184.733 490.566,-188.484 490.497,-181.757 487.259,-192.234 487.259,-192.234"/>
</g>
<!-- Spare -->
<g id="node8" class="node"><title>Spare</title>
<path fill="none" stroke="black" d="M738.761,-35.5C738.761,-35.5 854.772,-35.5 854.772,-35.5 860.772,-35.5 866.772,-41.5 866.772,-47.5 866.772,-47.5 866.772,-179.5 866.772,-179.5 866.772,-185.5 860.772,-191.5 854.772,-191.5 854.772,-191.5 738.761,-191.5 738.761,-191.5 732.761,-191.5 726.761,-185.5 726.761,-179.5 726.761,-179.5 726.761,-47.5 726.761,-47.5 726.761,-41.5 732.761,-35.5 738.761,-35.5"/>
<text text-anchor="middle" x="796.767" y="-176.3" font-family="Times,serif" font-size="14.00">Spare</text>
<polyline fill="none" stroke="black" points="726.761,-169.5 866.772,-169.5 "/>
<text text-anchor="start" x="734.761" y="-154.3" font-family="Times,serif" font-size="14.00">id :integer</text>
<text text-anchor="start" x="734.761" y="-140.3" font-family="Times,serif" font-size="14.00">car_id :integer</text>
<text text-anchor="start" x="734.761" y="-126.3" font-family="Times,serif" font-size="14.00">warehouse_id :integer</text>
<text text-anchor="start" x="734.761" y="-112.3" font-family="Times,serif" font-size="14.00">status :string</text>
<text text-anchor="start" x="734.761" y="-98.3" font-family="Times,serif" font-size="14.00">description :text</text>
<text text-anchor="start" x="734.761" y="-84.3" font-family="Times,serif" font-size="14.00">code :string</text>
<text text-anchor="start" x="734.761" y="-70.3" font-family="Times,serif" font-size="14.00">color :string</text>
<text text-anchor="start" x="734.761" y="-56.3" font-family="Times,serif" font-size="14.00">created_at :datetime</text>
<text text-anchor="start" x="734.761" y="-42.3" font-family="Times,serif" font-size="14.00">updated_at :datetime</text>
</g>
<!-- User -->
<g id="node9" class="node"><title>User</title>
<path fill="none" stroke="black" d="M870.703,-536.5C870.703,-536.5 996.831,-536.5 996.831,-536.5 1002.83,-536.5 1008.83,-542.5 1008.83,-548.5 1008.83,-548.5 1008.83,-680.5 1008.83,-680.5 1008.83,-686.5 1002.83,-692.5 996.831,-692.5 996.831,-692.5 870.703,-692.5 870.703,-692.5 864.703,-692.5 858.703,-686.5 858.703,-680.5 858.703,-680.5 858.703,-548.5 858.703,-548.5 858.703,-542.5 864.703,-536.5 870.703,-536.5"/>
<text text-anchor="middle" x="933.767" y="-677.3" font-family="Times,serif" font-size="14.00">User</text>
<polyline fill="none" stroke="black" points="858.703,-670.5 1008.83,-670.5 "/>
<text text-anchor="start" x="866.703" y="-655.3" font-family="Times,serif" font-size="14.00">id :integer</text>
<text text-anchor="start" x="866.703" y="-641.3" font-family="Times,serif" font-size="14.00">name :string</text>
<text text-anchor="start" x="866.703" y="-627.3" font-family="Times,serif" font-size="14.00">email :string</text>
<text text-anchor="start" x="866.703" y="-613.3" font-family="Times,serif" font-size="14.00">username :string</text>
<text text-anchor="start" x="866.703" y="-599.3" font-family="Times,serif" font-size="14.00">privileges :string</text>
<text text-anchor="start" x="866.703" y="-585.3" font-family="Times,serif" font-size="14.00">created_at :datetime</text>
<text text-anchor="start" x="866.703" y="-571.3" font-family="Times,serif" font-size="14.00">updated_at :datetime</text>
<text text-anchor="start" x="866.703" y="-557.3" font-family="Times,serif" font-size="14.00">password_digest :string</text>
<text text-anchor="start" x="866.703" y="-543.3" font-family="Times,serif" font-size="14.00">remember_token :string</text>
</g>
<!-- Warehouse -->
<g id="node10" class="node"><title>Warehouse</title>
<path fill="none" stroke="black" d="M458.261,-557.5C458.261,-557.5 567.272,-557.5 567.272,-557.5 573.272,-557.5 579.272,-563.5 579.272,-569.5 579.272,-569.5 579.272,-659.5 579.272,-659.5 579.272,-665.5 573.272,-671.5 567.272,-671.5 567.272,-671.5 458.261,-671.5 458.261,-671.5 452.261,-671.5 446.261,-665.5 446.261,-659.5 446.261,-659.5 446.261,-569.5 446.261,-569.5 446.261,-563.5 452.261,-557.5 458.261,-557.5"/>
<text text-anchor="middle" x="512.767" y="-656.3" font-family="Times,serif" font-size="14.00">Warehouse</text>
<polyline fill="none" stroke="black" points="446.261,-649.5 579.272,-649.5 "/>
<text text-anchor="start" x="454.261" y="-634.3" font-family="Times,serif" font-size="14.00">id :integer</text>
<text text-anchor="start" x="454.261" y="-620.3" font-family="Times,serif" font-size="14.00">branch :string</text>
<text text-anchor="start" x="454.261" y="-606.3" font-family="Times,serif" font-size="14.00">location :string</text>
<text text-anchor="start" x="454.261" y="-592.3" font-family="Times,serif" font-size="14.00">geolocation :string</text>
<text text-anchor="start" x="454.261" y="-578.3" font-family="Times,serif" font-size="14.00">created_at :datetime</text>
<text text-anchor="start" x="454.261" y="-564.3" font-family="Times,serif" font-size="14.00">updated_at :datetime</text>
</g>
<!-- Warehouse&#45;&gt;Car -->
<g id="edge14" class="edge"><title>Warehouse&#45;&gt;Car</title>
<path fill="none" stroke="#94f42b" d="M511.321,-549.078C506.962,-474.993 491.249,-352.139 436.767,-263 414.685,-226.872 380.603,-195.557 347.944,-171.12"/>
<ellipse fill="none" stroke="#94f42b" cx="511.558" cy="-553.427" rx="4" ry="4"/>
<polygon fill="#94f42b" stroke="#94f42b" points="347.743,-170.973 342.342,-161.429 343.711,-168.015 339.68,-165.057 339.68,-165.057 339.68,-165.057 343.711,-168.015 337.018,-168.686 347.743,-170.973 347.743,-170.973"/>
</g>
<!-- Warehouse&#45;&gt;Spare -->
<g id="edge13" class="edge"><title>Warehouse&#45;&gt;Spare</title>
<path fill="none" stroke="#c61845" d="M511.353,-549.431C512.849,-473.947 525.584,-348.067 587.767,-263 606.798,-236.965 623.931,-244.884 650.767,-227 673.316,-211.973 696.922,-194.577 718.419,-178.025"/>
<ellipse fill="none" stroke="#c61845" cx="511.293" cy="-553.478" rx="4" ry="4"/>
<polygon fill="#c61845" stroke="#c61845" points="718.642,-177.852 729.304,-175.287 722.595,-174.791 726.548,-171.729 726.548,-171.729 726.548,-171.729 722.595,-174.791 723.793,-168.171 718.642,-177.852 718.642,-177.852"/>
</g>
<!-- ActiveRecord::Base -->
<g id="node11" class="node"><title>ActiveRecord::Base</title>
<ellipse fill="none" stroke="black" cx="512.767" cy="-1038.5" rx="81.1422" ry="18"/>
<text text-anchor="middle" x="512.767" y="-1034.3" font-family="Times,serif" font-size="14.00">ActiveRecord::Base</text>
</g>
<!-- ActiveRecord::Base&#45;&gt;Car -->
<g id="edge1" class="edge"><title>ActiveRecord::Base&#45;&gt;Car</title>
<path fill="none" stroke="black" d="M478.231,-1022.18C461.694,-1015.29 441.462,-1007.49 422.767,-1002 343.648,-978.778 293.11,-1029.71 240.767,-966 191.181,-905.646 236.837,-341.012 240.767,-263 241.36,-251.225 242.216,-238.944 243.223,-226.71"/>
</g>
<!-- ActiveRecord::Base&#45;&gt;GenericCar -->
<g id="edge4" class="edge"><title>ActiveRecord::Base&#45;&gt;GenericCar</title>
<path fill="none" stroke="black" d="M478.728,-1022.12C462.129,-1015.12 441.703,-1007.26 422.767,-1002 329.412,-976.082 278.34,-1032.38 207.767,-966 131.339,-894.113 120.339,-765.63 121.807,-685.792"/>
</g>
<!-- ActiveRecord::Base&#45;&gt;GenericCarsGenericSpares -->
<g id="edge5" class="edge"><title>ActiveRecord::Base&#45;&gt;GenericCarsGenericSpares</title>
<path fill="none" stroke="black" d="M536.381,-1021.02C553.367,-1007.97 575.53,-988.269 588.767,-966 646.467,-868.927 668.483,-735.663 676.488,-664.686"/>
</g>
<!-- ActiveRecord::Base&#45;&gt;GenericSpare -->
<g id="edge6" class="edge"><title>ActiveRecord::Base&#45;&gt;GenericSpare</title>
<path fill="none" stroke="black" d="M479.725,-1021.9C463.014,-1014.67 442.2,-1006.68 422.767,-1002 342.018,-982.574 106.594,-1027.49 50.7668,-966 -51.9423,-852.872 28.0854,-367.646 62.7762,-184.682"/>
</g>
<!-- ActiveRecord::Base&#45;&gt;Insured -->
<g id="edge7" class="edge"><title>ActiveRecord::Base&#45;&gt;Insured</title>
<path fill="none" stroke="black" d="M580.294,-1028.35C649.55,-1017.42 750.364,-996.676 773.767,-966 821.145,-903.898 811.197,-331.559 773.767,-263 759.588,-237.03 742.089,-243.849 717.767,-227 692.775,-209.687 666.013,-190.107 642.066,-172.19"/>
</g>
<!-- ActiveRecord::Base&#45;&gt;Prevaluation -->
<g id="edge10" class="edge"><title>ActiveRecord::Base&#45;&gt;Prevaluation</title>
<path fill="none" stroke="black" d="M489.611,-1021.23C472.633,-1008.15 450.274,-988.317 436.767,-966 433.904,-961.27 431.123,-956.454 428.42,-951.564"/>
</g>
<!-- ActiveRecord::Base&#45;&gt;Spare -->
<g id="edge11" class="edge"><title>ActiveRecord::Base&#45;&gt;Spare</title>
<path fill="none" stroke="black" d="M584.212,-1029.9C661.135,-1020.07 776.105,-1000.03 802.767,-966 849.775,-905.994 817.143,-389.973 802.685,-191.677"/>
</g>
<!-- ActiveRecord::Base&#45;&gt;User -->
<g id="edge12" class="edge"><title>ActiveRecord::Base&#45;&gt;User</title>
<path fill="none" stroke="black" d="M586.262,-1030.66C672.534,-1021.14 808.475,-1000.99 844.767,-966 918.438,-894.973 934.375,-772.298 936.232,-692.541"/>
</g>
<!-- ActiveRecord::Base&#45;&gt;Warehouse -->
<g id="edge15" class="edge"><title>ActiveRecord::Base&#45;&gt;Warehouse</title>
<path fill="none" stroke="black" d="M512.767,-1020.43C512.767,-962.07 512.767,-768.701 512.767,-671.83"/>
</g>
</g>
</svg>
