<?xml version="1.0" encoding="UTF-8" standalone="no"?>
<!DOCTYPE svg PUBLIC "-//W3C//DTD SVG 1.1//EN"
 "http://www.w3.org/Graphics/SVG/1.1/DTD/svg11.dtd">
<!-- Generated by graphviz version 2.38.0 (20140413.2041)
 -->
<!-- Title: models_diagram Pages: 1 -->
<svg width="1942pt" height="1270pt"
 viewBox="0.00 0.00 1942.19 1270.00" xmlns="http://www.w3.org/2000/svg" xmlns:xlink="http://www.w3.org/1999/xlink">
<g id="graph0" class="graph" transform="scale(1 1) rotate(0) translate(4 1266)">
<title>models_diagram</title>
<polygon fill="white" stroke="none" points="-4,4 -4,-1266 1938.19,-1266 1938.19,4 -4,4"/>
<!-- _diagram_info -->
<g id="node1" class="node"><title>_diagram_info</title>
<text text-anchor="start" x="8" y="-1205.6" font-family="Times,serif" font-size="13.00">Models diagram</text>
<text text-anchor="start" x="8" y="-1192.6" font-family="Times,serif" font-size="13.00">Date: Feb 16 2015 &#45; 23:23</text>
<text text-anchor="start" x="8" y="-1179.6" font-family="Times,serif" font-size="13.00">Migration version: 20150212192743</text>
<text text-anchor="start" x="8" y="-1166.6" font-family="Times,serif" font-size="13.00">Generated by RailRoady 1.3.0</text>
<text text-anchor="start" x="8" y="-1153.6" font-family="Times,serif" font-size="13.00">http://railroady.prestonlee.com</text>
</g>
<!-- Brand -->
<g id="node2" class="node"><title>Brand</title>
<path fill="none" stroke="black" d="M1051.18,-1133.5C1051.18,-1133.5 1160.19,-1133.5 1160.19,-1133.5 1166.19,-1133.5 1172.19,-1139.5 1172.19,-1145.5 1172.19,-1145.5 1172.19,-1221.5 1172.19,-1221.5 1172.19,-1227.5 1166.19,-1233.5 1160.19,-1233.5 1160.19,-1233.5 1051.18,-1233.5 1051.18,-1233.5 1045.18,-1233.5 1039.18,-1227.5 1039.18,-1221.5 1039.18,-1221.5 1039.18,-1145.5 1039.18,-1145.5 1039.18,-1139.5 1045.18,-1133.5 1051.18,-1133.5"/>
<text text-anchor="middle" x="1105.69" y="-1218.3" font-family="Times,serif" font-size="14.00">Brand</text>
<polyline fill="none" stroke="black" points="1039.18,-1211.5 1172.19,-1211.5 "/>
<text text-anchor="start" x="1047.18" y="-1196.3" font-family="Times,serif" font-size="14.00">id :integer</text>
<text text-anchor="start" x="1047.18" y="-1182.3" font-family="Times,serif" font-size="14.00">name :string</text>
<text text-anchor="start" x="1047.18" y="-1168.3" font-family="Times,serif" font-size="14.00">acronym :string</text>
<text text-anchor="start" x="1047.18" y="-1154.3" font-family="Times,serif" font-size="14.00">created_at :datetime</text>
<text text-anchor="start" x="1047.18" y="-1140.3" font-family="Times,serif" font-size="14.00">updated_at :datetime</text>
</g>
<!-- GenericCar -->
<g id="node7" class="node"><title>GenericCar</title>
<path fill="none" stroke="black" d="M421.293,-849.5C421.293,-849.5 580.083,-849.5 580.083,-849.5 586.083,-849.5 592.083,-855.5 592.083,-861.5 592.083,-861.5 592.083,-1021.5 592.083,-1021.5 592.083,-1027.5 586.083,-1033.5 580.083,-1033.5 580.083,-1033.5 421.293,-1033.5 421.293,-1033.5 415.293,-1033.5 409.293,-1027.5 409.293,-1021.5 409.293,-1021.5 409.293,-861.5 409.293,-861.5 409.293,-855.5 415.293,-849.5 421.293,-849.5"/>
<text text-anchor="middle" x="500.688" y="-1018.3" font-family="Times,serif" font-size="14.00">GenericCar</text>
<polyline fill="none" stroke="black" points="409.293,-1011.5 592.083,-1011.5 "/>
<text text-anchor="start" x="417.293" y="-996.3" font-family="Times,serif" font-size="14.00">id :integer</text>
<text text-anchor="start" x="417.293" y="-982.3" font-family="Times,serif" font-size="14.00">brand_id :string</text>
<text text-anchor="start" x="417.293" y="-968.3" font-family="Times,serif" font-size="14.00">model :string</text>
<text text-anchor="start" x="417.293" y="-954.3" font-family="Times,serif" font-size="14.00">doors_id :integer</text>
<text text-anchor="start" x="417.293" y="-940.3" font-family="Times,serif" font-size="14.00">first_generation_year :integer</text>
<text text-anchor="start" x="417.293" y="-926.3" font-family="Times,serif" font-size="14.00">last_generation_year :integer</text>
<text text-anchor="start" x="417.293" y="-912.3" font-family="Times,serif" font-size="14.00">code :string</text>
<text text-anchor="start" x="417.293" y="-898.3" font-family="Times,serif" font-size="14.00">number_of_generation :string</text>
<text text-anchor="start" x="417.293" y="-884.3" font-family="Times,serif" font-size="14.00">created_at :datetime</text>
<text text-anchor="start" x="417.293" y="-870.3" font-family="Times,serif" font-size="14.00">updated_at :datetime</text>
<text text-anchor="start" x="417.293" y="-856.3" font-family="Times,serif" font-size="14.00">gen_continues :boolean</text>
</g>
<!-- Brand&#45;&gt;GenericCar -->
<g id="edge1" class="edge"><title>Brand&#45;&gt;GenericCar</title>
<path fill="none" stroke="#ac72ba" d="M1031.44,-1153.05C923.48,-1110.22 722.848,-1030.63 601.576,-982.522"/>
<ellipse fill="none" stroke="#ac72ba" cx="1035.2" cy="-1154.54" rx="4.00001" ry="4.00001"/>
<polygon fill="#ac72ba" stroke="#ac72ba" points="601.558,-982.515 593.922,-974.644 596.91,-980.671 592.263,-978.827 592.263,-978.827 592.263,-978.827 596.91,-980.671 590.603,-983.01 601.558,-982.515 601.558,-982.515"/>
</g>
<!-- ModelAcronym -->
<g id="node15" class="node"><title>ModelAcronym</title>
<path fill="none" stroke="black" d="M1657.18,-884.5C1657.18,-884.5 1766.19,-884.5 1766.19,-884.5 1772.19,-884.5 1778.19,-890.5 1778.19,-896.5 1778.19,-896.5 1778.19,-986.5 1778.19,-986.5 1778.19,-992.5 1772.19,-998.5 1766.19,-998.5 1766.19,-998.5 1657.18,-998.5 1657.18,-998.5 1651.18,-998.5 1645.18,-992.5 1645.18,-986.5 1645.18,-986.5 1645.18,-896.5 1645.18,-896.5 1645.18,-890.5 1651.18,-884.5 1657.18,-884.5"/>
<text text-anchor="middle" x="1711.69" y="-983.3" font-family="Times,serif" font-size="14.00">ModelAcronym</text>
<polyline fill="none" stroke="black" points="1645.18,-976.5 1778.19,-976.5 "/>
<text text-anchor="start" x="1653.18" y="-961.3" font-family="Times,serif" font-size="14.00">id :integer</text>
<text text-anchor="start" x="1653.18" y="-947.3" font-family="Times,serif" font-size="14.00">brand_id :integer</text>
<text text-anchor="start" x="1653.18" y="-933.3" font-family="Times,serif" font-size="14.00">initials :string</text>
<text text-anchor="start" x="1653.18" y="-919.3" font-family="Times,serif" font-size="14.00">model :string</text>
<text text-anchor="start" x="1653.18" y="-905.3" font-family="Times,serif" font-size="14.00">created_at :datetime</text>
<text text-anchor="start" x="1653.18" y="-891.3" font-family="Times,serif" font-size="14.00">updated_at :datetime</text>
</g>
<!-- Brand&#45;&gt;ModelAcronym -->
<g id="edge2" class="edge"><title>Brand&#45;&gt;ModelAcronym</title>
<path fill="none" stroke="#ca331a" d="M1149.35,-1127.56C1159.04,-1118.61 1169.95,-1110.48 1181.69,-1105 1273.58,-1062.07 1550.61,-1122.64 1636.69,-1069 1659.45,-1054.81 1676.16,-1030.97 1687.95,-1007.78"/>
<ellipse fill="none" stroke="#ca331a" cx="1146.36" cy="-1130.45" rx="4.00002" ry="4.00002"/>
<polygon fill="#ca331a" stroke="#ca331a" points="1688.04,-1007.61 1696.44,-1000.56 1690.22,-1003.1 1692.39,-998.604 1692.39,-998.604 1692.39,-998.604 1690.22,-1003.1 1688.34,-996.644 1688.04,-1007.61 1688.04,-1007.61"/>
</g>
<!-- CarLikelihood -->
<g id="node3" class="node"><title>CarLikelihood</title>
<path fill="none" stroke="black" d="M262.972,-379.5C262.972,-379.5 384.404,-379.5 384.404,-379.5 390.404,-379.5 396.404,-385.5 396.404,-391.5 396.404,-391.5 396.404,-481.5 396.404,-481.5 396.404,-487.5 390.404,-493.5 384.404,-493.5 384.404,-493.5 262.972,-493.5 262.972,-493.5 256.972,-493.5 250.972,-487.5 250.972,-481.5 250.972,-481.5 250.972,-391.5 250.972,-391.5 250.972,-385.5 256.972,-379.5 262.972,-379.5"/>
<text text-anchor="middle" x="323.688" y="-478.3" font-family="Times,serif" font-size="14.00">CarLikelihood</text>
<polyline fill="none" stroke="black" points="250.972,-471.5 396.404,-471.5 "/>
<text text-anchor="start" x="258.972" y="-456.3" font-family="Times,serif" font-size="14.00">id :integer</text>
<text text-anchor="start" x="258.972" y="-442.3" font-family="Times,serif" font-size="14.00">car_type_id :integer</text>
<text text-anchor="start" x="258.972" y="-428.3" font-family="Times,serif" font-size="14.00">generic_car_id :integer</text>
<text text-anchor="start" x="258.972" y="-414.3" font-family="Times,serif" font-size="14.00">door_id :integer</text>
<text text-anchor="start" x="258.972" y="-400.3" font-family="Times,serif" font-size="14.00">created_at :datetime</text>
<text text-anchor="start" x="258.972" y="-386.3" font-family="Times,serif" font-size="14.00">updated_at :datetime</text>
</g>
<!-- Generation -->
<g id="node6" class="node"><title>Generation</title>
<path fill="none" stroke="black" d="M313.182,-186.5C313.182,-186.5 422.193,-186.5 422.193,-186.5 428.193,-186.5 434.193,-192.5 434.193,-198.5 434.193,-198.5 434.193,-260.5 434.193,-260.5 434.193,-266.5 428.193,-272.5 422.193,-272.5 422.193,-272.5 313.182,-272.5 313.182,-272.5 307.182,-272.5 301.182,-266.5 301.182,-260.5 301.182,-260.5 301.182,-198.5 301.182,-198.5 301.182,-192.5 307.182,-186.5 313.182,-186.5"/>
<text text-anchor="middle" x="367.688" y="-257.3" font-family="Times,serif" font-size="14.00">Generation</text>
<polyline fill="none" stroke="black" points="301.182,-250.5 434.193,-250.5 "/>
<text text-anchor="start" x="309.182" y="-235.3" font-family="Times,serif" font-size="14.00">id :integer</text>
<text text-anchor="start" x="309.182" y="-221.3" font-family="Times,serif" font-size="14.00">year :integer</text>
<text text-anchor="start" x="309.182" y="-207.3" font-family="Times,serif" font-size="14.00">created_at :datetime</text>
<text text-anchor="start" x="309.182" y="-193.3" font-family="Times,serif" font-size="14.00">updated_at :datetime</text>
</g>
<!-- CarLikelihood&#45;&gt;Generation -->
<g id="edge4" class="edge"><title>CarLikelihood&#45;&gt;Generation</title>
<path fill="none" stroke="#10c79c" d="M337.876,-369.395C343.91,-341.281 350.846,-308.969 356.508,-282.589"/>
<polygon fill="#10c79c" stroke="#10c79c" points="337.81,-369.706 331.311,-378.538 336.76,-374.594 335.711,-379.483 335.711,-379.483 335.711,-379.483 336.76,-374.594 340.111,-380.427 337.81,-369.706 337.81,-369.706"/>
<polygon fill="#10c79c" stroke="#10c79c" points="356.512,-282.567 363.011,-273.734 357.562,-277.678 358.611,-272.79 358.611,-272.79 358.611,-272.79 357.562,-277.678 354.211,-271.845 356.512,-282.567 356.512,-282.567"/>
</g>
<!-- GenericCarGeneration -->
<g id="node8" class="node"><title>GenericCarGeneration</title>
<path fill="none" stroke="black" d="M306.972,-0.5C306.972,-0.5 428.404,-0.5 428.404,-0.5 434.404,-0.5 440.404,-6.5 440.404,-12.5 440.404,-12.5 440.404,-88.5 440.404,-88.5 440.404,-94.5 434.404,-100.5 428.404,-100.5 428.404,-100.5 306.972,-100.5 306.972,-100.5 300.972,-100.5 294.972,-94.5 294.972,-88.5 294.972,-88.5 294.972,-12.5 294.972,-12.5 294.972,-6.5 300.972,-0.5 306.972,-0.5"/>
<text text-anchor="middle" x="367.688" y="-85.3" font-family="Times,serif" font-size="14.00">GenericCarGeneration</text>
<polyline fill="none" stroke="black" points="294.972,-78.5 440.404,-78.5 "/>
<text text-anchor="start" x="302.972" y="-63.3" font-family="Times,serif" font-size="14.00">id :integer</text>
<text text-anchor="start" x="302.972" y="-49.3" font-family="Times,serif" font-size="14.00">generation_id :integer</text>
<text text-anchor="start" x="302.972" y="-35.3" font-family="Times,serif" font-size="14.00">created_at :datetime</text>
<text text-anchor="start" x="302.972" y="-21.3" font-family="Times,serif" font-size="14.00">updated_at :datetime</text>
<text text-anchor="start" x="302.972" y="-7.3" font-family="Times,serif" font-size="14.00">generic_car_id :integer</text>
</g>
<!-- CarLikelihood&#45;&gt;GenericCarGeneration -->
<g id="edge3" class="edge"><title>CarLikelihood&#45;&gt;GenericCarGeneration</title>
<path fill="none" stroke="#3043d8" d="M300.341,-371.592C281.469,-309.629 262.424,-213.97 291.688,-137 295.432,-127.152 300.887,-117.715 307.185,-108.94"/>
<ellipse fill="none" stroke="#3043d8" cx="301.568" cy="-375.534" rx="4.00001" ry="4.00001"/>
<polygon fill="#3043d8" stroke="#3043d8" points="307.38,-108.684 317.027,-103.471 310.416,-104.712 313.452,-100.739 313.452,-100.739 313.452,-100.739 310.416,-104.712 309.876,-98.0064 307.38,-108.684 307.38,-108.684"/>
</g>
<!-- CarType -->
<g id="node4" class="node"><title>CarType</title>
<path fill="none" stroke="black" d="M237.182,-1133.5C237.182,-1133.5 346.193,-1133.5 346.193,-1133.5 352.193,-1133.5 358.193,-1139.5 358.193,-1145.5 358.193,-1145.5 358.193,-1221.5 358.193,-1221.5 358.193,-1227.5 352.193,-1233.5 346.193,-1233.5 346.193,-1233.5 237.182,-1233.5 237.182,-1233.5 231.182,-1233.5 225.182,-1227.5 225.182,-1221.5 225.182,-1221.5 225.182,-1145.5 225.182,-1145.5 225.182,-1139.5 231.182,-1133.5 237.182,-1133.5"/>
<text text-anchor="middle" x="291.688" y="-1218.3" font-family="Times,serif" font-size="14.00">CarType</text>
<polyline fill="none" stroke="black" points="225.182,-1211.5 358.193,-1211.5 "/>
<text text-anchor="start" x="233.182" y="-1196.3" font-family="Times,serif" font-size="14.00">id :integer</text>
<text text-anchor="start" x="233.182" y="-1182.3" font-family="Times,serif" font-size="14.00">name :string</text>
<text text-anchor="start" x="233.182" y="-1168.3" font-family="Times,serif" font-size="14.00">doors :string</text>
<text text-anchor="start" x="233.182" y="-1154.3" font-family="Times,serif" font-size="14.00">created_at :datetime</text>
<text text-anchor="start" x="233.182" y="-1140.3" font-family="Times,serif" font-size="14.00">updated_at :datetime</text>
</g>
<!-- CarType&#45;&gt;CarLikelihood -->
<g id="edge5" class="edge"><title>CarType&#45;&gt;CarLikelihood</title>
<path fill="none" stroke="#46d99a" d="M267.026,-1125.69C221.495,-1012.09 135.852,-750.717 215.688,-551 222.91,-532.933 234.528,-516.102 247.522,-501.225"/>
<ellipse fill="none" stroke="#46d99a" cx="268.599" cy="-1129.57" rx="4.00001" ry="4.00001"/>
<polygon fill="#46d99a" stroke="#46d99a" points="247.7,-501.028 257.756,-496.654 251.063,-497.328 254.426,-493.628 254.426,-493.628 254.426,-493.628 251.063,-497.328 251.096,-490.601 247.7,-501.028 247.7,-501.028"/>
</g>
<!-- CarType&#45;&gt;GenericCar -->
<g id="edge7" class="edge"><title>CarType&#45;&gt;GenericCar</title>
<path fill="none" stroke="#ec974d" d="M341.077,-1125.79C363.013,-1100.6 389.487,-1070.19 414.513,-1041.46"/>
<polygon fill="#ec974d" stroke="#ec974d" points="341.054,-1125.81 331.093,-1130.4 337.77,-1129.58 334.486,-1133.35 334.486,-1133.35 334.486,-1133.35 337.77,-1129.58 337.88,-1136.31 341.054,-1125.81 341.054,-1125.81"/>
<polygon fill="#ec974d" stroke="#ec974d" points="414.616,-1041.34 424.577,-1036.75 417.9,-1037.57 421.184,-1033.8 421.184,-1033.8 421.184,-1033.8 417.9,-1037.57 417.79,-1030.84 414.616,-1041.34 414.616,-1041.34"/>
</g>
<!-- TypeLikelihood -->
<g id="node26" class="node"><title>TypeLikelihood</title>
<path fill="none" stroke="black" d="M237.182,-614.5C237.182,-614.5 346.193,-614.5 346.193,-614.5 352.193,-614.5 358.193,-620.5 358.193,-626.5 358.193,-626.5 358.193,-702.5 358.193,-702.5 358.193,-708.5 352.193,-714.5 346.193,-714.5 346.193,-714.5 237.182,-714.5 237.182,-714.5 231.182,-714.5 225.182,-708.5 225.182,-702.5 225.182,-702.5 225.182,-626.5 225.182,-626.5 225.182,-620.5 231.182,-614.5 237.182,-614.5"/>
<text text-anchor="middle" x="291.688" y="-699.3" font-family="Times,serif" font-size="14.00">TypeLikelihood</text>
<polyline fill="none" stroke="black" points="225.182,-692.5 358.193,-692.5 "/>
<text text-anchor="start" x="233.182" y="-677.3" font-family="Times,serif" font-size="14.00">id :integer</text>
<text text-anchor="start" x="233.182" y="-663.3" font-family="Times,serif" font-size="14.00">generic_car :integer</text>
<text text-anchor="start" x="233.182" y="-649.3" font-family="Times,serif" font-size="14.00">car_type :integer</text>
<text text-anchor="start" x="233.182" y="-635.3" font-family="Times,serif" font-size="14.00">created_at :datetime</text>
<text text-anchor="start" x="233.182" y="-621.3" font-family="Times,serif" font-size="14.00">updated_at :datetime</text>
</g>
<!-- CarType&#45;&gt;TypeLikelihood -->
<g id="edge6" class="edge"><title>CarType&#45;&gt;TypeLikelihood</title>
<path fill="none" stroke="#a46f7d" d="M291.688,-1125.34C291.688,-1026.62 291.688,-825.159 291.688,-724.908"/>
<ellipse fill="none" stroke="#a46f7d" cx="291.688" cy="-1129.4" rx="4" ry="4"/>
<polygon fill="#a46f7d" stroke="#a46f7d" points="291.688,-724.654 296.188,-714.654 291.688,-719.654 291.688,-714.654 291.688,-714.654 291.688,-714.654 291.688,-719.654 287.188,-714.654 291.688,-724.654 291.688,-724.654"/>
</g>
<!-- FamilyAcronym -->
<g id="node5" class="node"><title>FamilyAcronym</title>
<path fill="none" stroke="black" d="M540.244,-386.5C540.244,-386.5 681.131,-386.5 681.131,-386.5 687.131,-386.5 693.131,-392.5 693.131,-398.5 693.131,-398.5 693.131,-474.5 693.131,-474.5 693.131,-480.5 687.131,-486.5 681.131,-486.5 681.131,-486.5 540.244,-486.5 540.244,-486.5 534.244,-486.5 528.244,-480.5 528.244,-474.5 528.244,-474.5 528.244,-398.5 528.244,-398.5 528.244,-392.5 534.244,-386.5 540.244,-386.5"/>
<text text-anchor="middle" x="610.688" y="-471.3" font-family="Times,serif" font-size="14.00">FamilyAcronym</text>
<polyline fill="none" stroke="black" points="528.244,-464.5 693.131,-464.5 "/>
<text text-anchor="start" x="536.244" y="-449.3" font-family="Times,serif" font-size="14.00">id :integer</text>
<text text-anchor="start" x="536.244" y="-435.3" font-family="Times,serif" font-size="14.00">code :string</text>
<text text-anchor="start" x="536.244" y="-421.3" font-family="Times,serif" font-size="14.00">generic_family_id :integer</text>
<text text-anchor="start" x="536.244" y="-407.3" font-family="Times,serif" font-size="14.00">created_at :datetime</text>
<text text-anchor="start" x="536.244" y="-393.3" font-family="Times,serif" font-size="14.00">updated_at :datetime</text>
</g>
<!-- Generation&#45;&gt;GenericCarGeneration -->
<g id="edge8" class="edge"><title>Generation&#45;&gt;GenericCarGeneration</title>
<path fill="none" stroke="#a2d337" d="M367.688,-178.074C367.688,-157.139 367.688,-132.691 367.688,-110.893"/>
<ellipse fill="none" stroke="#a2d337" cx="367.688" cy="-182.104" rx="4" ry="4"/>
<polygon fill="#a2d337" stroke="#a2d337" points="367.688,-110.761 372.188,-100.761 367.688,-105.761 367.688,-100.761 367.688,-100.761 367.688,-100.761 367.688,-105.761 363.188,-100.761 367.688,-110.761 367.688,-110.761"/>
</g>
<!-- GenericCar&#45;&gt;CarLikelihood -->
<g id="edge15" class="edge"><title>GenericCar&#45;&gt;CarLikelihood</title>
<path fill="none" stroke="#4c69ac" d="M439.645,-842.016C428.752,-821.42 418.427,-799.436 410.688,-778 375.816,-681.42 395.919,-649.726 367.688,-551 363.189,-535.267 357.386,-518.668 351.48,-503.166"/>
<ellipse fill="none" stroke="#4c69ac" cx="441.628" cy="-845.715" rx="4.00002" ry="4.00002"/>
<polygon fill="#4c69ac" stroke="#4c69ac" points="351.415,-502.997 351.996,-492.047 349.607,-498.335 347.8,-493.673 347.8,-493.673 347.8,-493.673 349.607,-498.335 343.604,-495.3 351.415,-502.997 351.415,-502.997"/>
</g>
<!-- GenericCar&#45;&gt;Generation -->
<g id="edge13" class="edge"><title>GenericCar&#45;&gt;Generation</title>
<path fill="none" stroke="#522ee2" d="M464.918,-839.884C458.722,-819.599 452.922,-798.275 448.688,-778 410.331,-594.32 442.201,-542.056 405.688,-358 400.654,-332.625 392.751,-305.049 385.453,-282.055"/>
<polygon fill="#522ee2" stroke="#522ee2" points="464.919,-839.886 463.589,-850.772 466.403,-844.661 467.887,-849.436 467.887,-849.436 467.887,-849.436 466.403,-844.661 472.184,-848.1 464.919,-839.886 464.919,-839.886"/>
<polygon fill="#522ee2" stroke="#522ee2" points="385.442,-282.018 386.656,-271.119 383.907,-277.259 382.373,-272.5 382.373,-272.5 382.373,-272.5 383.907,-277.259 378.09,-273.881 385.442,-282.018 385.442,-282.018"/>
</g>
<!-- GenericCar&#45;&gt;GenericCarGeneration -->
<g id="edge12" class="edge"><title>GenericCar&#45;&gt;GenericCarGeneration</title>
<path fill="none" stroke="#4eebac" d="M487.391,-840.877C484.912,-820.124 482.527,-798.368 480.688,-778 467.855,-635.897 498.217,-268.851 443.688,-137 439.562,-127.024 433.761,-117.429 427.183,-108.504"/>
<ellipse fill="none" stroke="#4eebac" cx="487.903" cy="-845.112" rx="4.00001" ry="4.00001"/>
<polygon fill="#4eebac" stroke="#4eebac" points="427.096,-108.392 424.499,-97.7376 424.023,-104.448 420.95,-100.503 420.95,-100.503 420.95,-100.503 424.023,-104.448 417.4,-103.269 427.096,-108.392 427.096,-108.392"/>
</g>
<!-- GenericCarImage -->
<g id="node9" class="node"><title>GenericCarImage</title>
<path fill="none" stroke="black" d="M1069.74,-593.5C1069.74,-593.5 1217.64,-593.5 1217.64,-593.5 1223.64,-593.5 1229.64,-599.5 1229.64,-605.5 1229.64,-605.5 1229.64,-723.5 1229.64,-723.5 1229.64,-729.5 1223.64,-735.5 1217.64,-735.5 1217.64,-735.5 1069.74,-735.5 1069.74,-735.5 1063.74,-735.5 1057.74,-729.5 1057.74,-723.5 1057.74,-723.5 1057.74,-605.5 1057.74,-605.5 1057.74,-599.5 1063.74,-593.5 1069.74,-593.5"/>
<text text-anchor="middle" x="1143.69" y="-720.3" font-family="Times,serif" font-size="14.00">GenericCarImage</text>
<polyline fill="none" stroke="black" points="1057.74,-713.5 1229.64,-713.5 "/>
<text text-anchor="start" x="1065.74" y="-698.3" font-family="Times,serif" font-size="14.00">id :integer</text>
<text text-anchor="start" x="1065.74" y="-684.3" font-family="Times,serif" font-size="14.00">generic_car_id :integer</text>
<text text-anchor="start" x="1065.74" y="-670.3" font-family="Times,serif" font-size="14.00">created_at :datetime</text>
<text text-anchor="start" x="1065.74" y="-656.3" font-family="Times,serif" font-size="14.00">updated_at :datetime</text>
<text text-anchor="start" x="1065.74" y="-642.3" font-family="Times,serif" font-size="14.00">photo_file_name :string</text>
<text text-anchor="start" x="1065.74" y="-628.3" font-family="Times,serif" font-size="14.00">photo_content_type :string</text>
<text text-anchor="start" x="1065.74" y="-614.3" font-family="Times,serif" font-size="14.00">photo_file_size :integer</text>
<text text-anchor="start" x="1065.74" y="-600.3" font-family="Times,serif" font-size="14.00">photo_updated_at :datetime</text>
</g>
<!-- GenericCar&#45;&gt;GenericCarImage -->
<g id="edge11" class="edge"><title>GenericCar&#45;&gt;GenericCarImage</title>
<path fill="none" stroke="#0797a4" d="M600.788,-928.667C716.812,-911.126 909.944,-869.808 1049.69,-778 1064,-768.596 1077.29,-756.362 1089.09,-743.436"/>
<ellipse fill="none" stroke="#0797a4" cx="596.526" cy="-929.301" rx="4.00001" ry="4.00001"/>
<polygon fill="#0797a4" stroke="#0797a4" points="1089.25,-743.258 1099.24,-738.741 1092.56,-739.51 1095.87,-735.762 1095.87,-735.762 1095.87,-735.762 1092.56,-739.51 1092.5,-732.783 1089.25,-743.258 1089.25,-743.258"/>
</g>
<!-- GenericFamily -->
<g id="node10" class="node"><title>GenericFamily</title>
<path fill="none" stroke="black" d="M583.748,-614.5C583.748,-614.5 717.628,-614.5 717.628,-614.5 723.628,-614.5 729.628,-620.5 729.628,-626.5 729.628,-626.5 729.628,-702.5 729.628,-702.5 729.628,-708.5 723.628,-714.5 717.628,-714.5 717.628,-714.5 583.748,-714.5 583.748,-714.5 577.748,-714.5 571.748,-708.5 571.748,-702.5 571.748,-702.5 571.748,-626.5 571.748,-626.5 571.748,-620.5 577.748,-614.5 583.748,-614.5"/>
<text text-anchor="middle" x="650.688" y="-699.3" font-family="Times,serif" font-size="14.00">GenericFamily</text>
<polyline fill="none" stroke="black" points="571.748,-692.5 729.628,-692.5 "/>
<text text-anchor="start" x="579.748" y="-677.3" font-family="Times,serif" font-size="14.00">id :integer</text>
<text text-anchor="start" x="579.748" y="-663.3" font-family="Times,serif" font-size="14.00">generic_spare_id :integer</text>
<text text-anchor="start" x="579.748" y="-649.3" font-family="Times,serif" font-size="14.00">description :text</text>
<text text-anchor="start" x="579.748" y="-635.3" font-family="Times,serif" font-size="14.00">created_at :datetime</text>
<text text-anchor="start" x="579.748" y="-621.3" font-family="Times,serif" font-size="14.00">updated_at :datetime</text>
</g>
<!-- GenericCar&#45;&gt;GenericFamily -->
<g id="edge16" class="edge"><title>GenericCar&#45;&gt;GenericFamily</title>
<path fill="none" stroke="#a432df" d="M555.353,-840.28C576.745,-801.061 600.525,-757.465 618.983,-723.625"/>
<polygon fill="#a432df" stroke="#a432df" points="555.216,-840.532 546.477,-847.156 552.822,-844.921 550.427,-849.311 550.427,-849.311 550.427,-849.311 552.822,-844.921 554.378,-851.466 555.216,-840.532 555.216,-840.532"/>
<polygon fill="#a432df" stroke="#a432df" points="619.01,-723.575 627.749,-716.951 621.404,-719.186 623.799,-714.797 623.799,-714.797 623.799,-714.797 621.404,-719.186 619.848,-712.642 619.01,-723.575 619.01,-723.575"/>
</g>
<!-- GenericFittable -->
<g id="node11" class="node"><title>GenericFittable</title>
<path fill="none" stroke="black" d="M521.748,-179.5C521.748,-179.5 655.628,-179.5 655.628,-179.5 661.628,-179.5 667.628,-185.5 667.628,-191.5 667.628,-191.5 667.628,-267.5 667.628,-267.5 667.628,-273.5 661.628,-279.5 655.628,-279.5 655.628,-279.5 521.748,-279.5 521.748,-279.5 515.748,-279.5 509.748,-273.5 509.748,-267.5 509.748,-267.5 509.748,-191.5 509.748,-191.5 509.748,-185.5 515.748,-179.5 521.748,-179.5"/>
<text text-anchor="middle" x="588.688" y="-264.3" font-family="Times,serif" font-size="14.00">GenericFittable</text>
<polyline fill="none" stroke="black" points="509.748,-257.5 667.628,-257.5 "/>
<text text-anchor="start" x="517.748" y="-242.3" font-family="Times,serif" font-size="14.00">id :integer</text>
<text text-anchor="start" x="517.748" y="-228.3" font-family="Times,serif" font-size="14.00">generic_car_id :integer</text>
<text text-anchor="start" x="517.748" y="-214.3" font-family="Times,serif" font-size="14.00">generic_spare_id :integer</text>
<text text-anchor="start" x="517.748" y="-200.3" font-family="Times,serif" font-size="14.00">created_at :datetime</text>
<text text-anchor="start" x="517.748" y="-186.3" font-family="Times,serif" font-size="14.00">updated_at :datetime</text>
</g>
<!-- GenericCar&#45;&gt;GenericFittable -->
<g id="edge10" class="edge"><title>GenericCar&#45;&gt;GenericFittable</title>
<path fill="none" stroke="#04bb0a" d="M490.251,-840.966C481.022,-723.335 475.092,-522.767 519.688,-358 526.189,-333.978 537.962,-309.493 549.964,-288.485"/>
<ellipse fill="none" stroke="#04bb0a" cx="490.6" cy="-845.304" rx="4" ry="4"/>
<polygon fill="#04bb0a" stroke="#04bb0a" points="550.052,-288.335 558.989,-281.981 552.579,-284.021 555.107,-279.706 555.107,-279.706 555.107,-279.706 552.579,-284.021 551.224,-277.432 550.052,-288.335 550.052,-288.335"/>
</g>
<!-- StockCar -->
<g id="node21" class="node"><title>StockCar</title>
<path fill="none" stroke="black" d="M1298.07,-551.5C1298.07,-551.5 1441.31,-551.5 1441.31,-551.5 1447.31,-551.5 1453.31,-557.5 1453.31,-563.5 1453.31,-563.5 1453.31,-765.5 1453.31,-765.5 1453.31,-771.5 1447.31,-777.5 1441.31,-777.5 1441.31,-777.5 1298.07,-777.5 1298.07,-777.5 1292.07,-777.5 1286.07,-771.5 1286.07,-765.5 1286.07,-765.5 1286.07,-563.5 1286.07,-563.5 1286.07,-557.5 1292.07,-551.5 1298.07,-551.5"/>
<text text-anchor="middle" x="1369.69" y="-762.3" font-family="Times,serif" font-size="14.00">StockCar</text>
<polyline fill="none" stroke="black" points="1286.07,-755.5 1453.31,-755.5 "/>
<text text-anchor="start" x="1294.07" y="-740.3" font-family="Times,serif" font-size="14.00">id :integer</text>
<text text-anchor="start" x="1294.07" y="-726.3" font-family="Times,serif" font-size="14.00">prevaluation_id :integer</text>
<text text-anchor="start" x="1294.07" y="-712.3" font-family="Times,serif" font-size="14.00">generic_car_id :integer</text>
<text text-anchor="start" x="1294.07" y="-698.3" font-family="Times,serif" font-size="14.00">warehouse_id :integer</text>
<text text-anchor="start" x="1294.07" y="-684.3" font-family="Times,serif" font-size="14.00">color :string</text>
<text text-anchor="start" x="1294.07" y="-670.3" font-family="Times,serif" font-size="14.00">door_number :integer</text>
<text text-anchor="start" x="1294.07" y="-656.3" font-family="Times,serif" font-size="14.00">serie :string</text>
<text text-anchor="start" x="1294.07" y="-642.3" font-family="Times,serif" font-size="14.00">motor :string</text>
<text text-anchor="start" x="1294.07" y="-628.3" font-family="Times,serif" font-size="14.00">license_plates :string</text>
<text text-anchor="start" x="1294.07" y="-614.3" font-family="Times,serif" font-size="14.00">inventory_description :text</text>
<text text-anchor="start" x="1294.07" y="-600.3" font-family="Times,serif" font-size="14.00">special_equipment :text</text>
<text text-anchor="start" x="1294.07" y="-586.3" font-family="Times,serif" font-size="14.00">economic_number :string</text>
<text text-anchor="start" x="1294.07" y="-572.3" font-family="Times,serif" font-size="14.00">created_at :datetime</text>
<text text-anchor="start" x="1294.07" y="-558.3" font-family="Times,serif" font-size="14.00">updated_at :datetime</text>
</g>
<!-- GenericCar&#45;&gt;StockCar -->
<g id="edge9" class="edge"><title>GenericCar&#45;&gt;StockCar</title>
<path fill="none" stroke="#74d392" d="M600.504,-934.007C747.333,-921.122 1027.02,-883.704 1238.69,-778 1252.11,-771.298 1265.29,-762.918 1277.81,-753.771"/>
<ellipse fill="none" stroke="#74d392" cx="596.306" cy="-934.368" rx="4" ry="4"/>
<polygon fill="#74d392" stroke="#74d392" points="1277.94,-753.67 1288.64,-751.257 1281.94,-750.665 1285.93,-747.66 1285.93,-747.66 1285.93,-747.66 1281.94,-750.665 1283.23,-744.064 1277.94,-753.67 1277.94,-753.67"/>
</g>
<!-- GenericCar&#45;&gt;TypeLikelihood -->
<g id="edge14" class="edge"><title>GenericCar&#45;&gt;TypeLikelihood</title>
<path fill="none" stroke="#f02860" d="M422.434,-842.557C405.839,-821.398 388.549,-799.056 372.688,-778 359.372,-760.324 345.172,-740.831 332.44,-723.108"/>
<ellipse fill="none" stroke="#f02860" cx="425.088" cy="-845.937" rx="4.00002" ry="4.00002"/>
<polygon fill="#f02860" stroke="#f02860" points="332.143,-722.693 329.976,-711.944 329.231,-718.629 326.318,-714.565 326.318,-714.565 326.318,-714.565 329.231,-718.629 322.661,-717.186 332.143,-722.693 332.143,-722.693"/>
</g>
<!-- GenericFamily&#45;&gt;CarLikelihood -->
<g id="edge17" class="edge"><title>GenericFamily&#45;&gt;CarLikelihood</title>
<path fill="none" stroke="#dc097f" d="M572.966,-609.784C522.292,-574.762 456.282,-529.14 404.92,-493.642"/>
<ellipse fill="none" stroke="#dc097f" cx="576.443" cy="-612.187" rx="4.00002" ry="4.00002"/>
<polygon fill="#dc097f" stroke="#dc097f" points="404.71,-493.497 399.042,-484.109 400.597,-490.654 396.483,-487.811 396.483,-487.811 396.483,-487.811 400.597,-490.654 393.925,-491.513 404.71,-493.497 404.71,-493.497"/>
</g>
<!-- GenericFamily&#45;&gt;FamilyAcronym -->
<g id="edge20" class="edge"><title>GenericFamily&#45;&gt;FamilyAcronym</title>
<path fill="none" stroke="#95a9d9" d="M640.562,-606.292C634.652,-572.896 627.205,-530.821 621.225,-497.033"/>
<ellipse fill="none" stroke="#95a9d9" cx="641.311" cy="-610.523" rx="4.00001" ry="4.00001"/>
<polygon fill="#95a9d9" stroke="#95a9d9" points="621.162,-496.68 623.85,-486.048 620.291,-491.756 619.419,-486.833 619.419,-486.833 619.419,-486.833 620.291,-491.756 614.988,-487.617 621.162,-496.68 621.162,-496.68"/>
</g>
<!-- GenericSpare -->
<g id="node12" class="node"><title>GenericSpare</title>
<path fill="none" stroke="black" d="M943.396,-358.5C943.396,-358.5 1053.98,-358.5 1053.98,-358.5 1059.98,-358.5 1065.98,-364.5 1065.98,-370.5 1065.98,-370.5 1065.98,-502.5 1065.98,-502.5 1065.98,-508.5 1059.98,-514.5 1053.98,-514.5 1053.98,-514.5 943.396,-514.5 943.396,-514.5 937.396,-514.5 931.396,-508.5 931.396,-502.5 931.396,-502.5 931.396,-370.5 931.396,-370.5 931.396,-364.5 937.396,-358.5 943.396,-358.5"/>
<text text-anchor="middle" x="998.688" y="-499.3" font-family="Times,serif" font-size="14.00">GenericSpare</text>
<polyline fill="none" stroke="black" points="931.396,-492.5 1065.98,-492.5 "/>
<text text-anchor="start" x="939.396" y="-477.3" font-family="Times,serif" font-size="14.00">id :integer</text>
<text text-anchor="start" x="939.396" y="-463.3" font-family="Times,serif" font-size="14.00">brand :string</text>
<text text-anchor="start" x="939.396" y="-449.3" font-family="Times,serif" font-size="14.00">type_of_spare :string</text>
<text text-anchor="start" x="939.396" y="-435.3" font-family="Times,serif" font-size="14.00">name :string</text>
<text text-anchor="start" x="939.396" y="-421.3" font-family="Times,serif" font-size="14.00">region :string</text>
<text text-anchor="start" x="939.396" y="-407.3" font-family="Times,serif" font-size="14.00">description :text</text>
<text text-anchor="start" x="939.396" y="-393.3" font-family="Times,serif" font-size="14.00">code :string</text>
<text text-anchor="start" x="939.396" y="-379.3" font-family="Times,serif" font-size="14.00">created_at :datetime</text>
<text text-anchor="start" x="939.396" y="-365.3" font-family="Times,serif" font-size="14.00">updated_at :datetime</text>
</g>
<!-- GenericFamily&#45;&gt;GenericSpare -->
<g id="edge19" class="edge"><title>GenericFamily&#45;&gt;GenericSpare</title>
<path fill="none" stroke="#0b786b" d="M726.981,-608.6C756.345,-588.9 790.742,-567.5 823.688,-551 865.177,-530.221 882.631,-540.053 921.688,-515 922.087,-514.744 922.486,-514.486 922.884,-514.225"/>
<polygon fill="#0b786b" stroke="#0b786b" points="726.722,-608.775 715.918,-610.65 722.58,-611.577 718.439,-614.378 718.439,-614.378 718.439,-614.378 722.58,-611.577 720.96,-618.105 726.722,-608.775 726.722,-608.775"/>
<polygon fill="#0b786b" stroke="#0b786b" points="922.97,-514.164 933.744,-512.121 927.067,-511.299 931.165,-508.433 931.165,-508.433 931.165,-508.433 927.067,-511.299 928.586,-504.745 922.97,-514.164 922.97,-514.164"/>
</g>
<!-- SpareLikelihood -->
<g id="node20" class="node"><title>SpareLikelihood</title>
<path fill="none" stroke="black" d="M734.244,-179.5C734.244,-179.5 875.131,-179.5 875.131,-179.5 881.131,-179.5 887.131,-185.5 887.131,-191.5 887.131,-191.5 887.131,-267.5 887.131,-267.5 887.131,-273.5 881.131,-279.5 875.131,-279.5 875.131,-279.5 734.244,-279.5 734.244,-279.5 728.244,-279.5 722.244,-273.5 722.244,-267.5 722.244,-267.5 722.244,-191.5 722.244,-191.5 722.244,-185.5 728.244,-179.5 734.244,-179.5"/>
<text text-anchor="middle" x="804.688" y="-264.3" font-family="Times,serif" font-size="14.00">SpareLikelihood</text>
<polyline fill="none" stroke="black" points="722.244,-257.5 887.131,-257.5 "/>
<text text-anchor="start" x="730.244" y="-242.3" font-family="Times,serif" font-size="14.00">id :integer</text>
<text text-anchor="start" x="730.244" y="-228.3" font-family="Times,serif" font-size="14.00">generic_spare_id :integer</text>
<text text-anchor="start" x="730.244" y="-214.3" font-family="Times,serif" font-size="14.00">generic_family_id :integer</text>
<text text-anchor="start" x="730.244" y="-200.3" font-family="Times,serif" font-size="14.00">created_at :datetime</text>
<text text-anchor="start" x="730.244" y="-186.3" font-family="Times,serif" font-size="14.00">updated_at :datetime</text>
</g>
<!-- GenericFamily&#45;&gt;SpareLikelihood -->
<g id="edge18" class="edge"><title>GenericFamily&#45;&gt;SpareLikelihood</title>
<path fill="none" stroke="#66ae3f" d="M671.559,-606.779C681.326,-579.264 692.747,-545.615 701.688,-515 721.814,-446.086 714.769,-425.329 739.688,-358 748.365,-334.553 760.264,-309.84 771.51,-288.478"/>
<ellipse fill="none" stroke="#66ae3f" cx="670.196" cy="-610.602" rx="4.00001" ry="4.00001"/>
<polygon fill="#66ae3f" stroke="#66ae3f" points="771.571,-288.364 780.249,-281.66 773.925,-283.953 776.279,-279.542 776.279,-279.542 776.279,-279.542 773.925,-283.953 772.309,-277.423 771.571,-288.364 771.571,-288.364"/>
</g>
<!-- StockFamily -->
<g id="node23" class="node"><title>StockFamily</title>
<path fill="none" stroke="black" d="M760.244,-393.5C760.244,-393.5 901.131,-393.5 901.131,-393.5 907.131,-393.5 913.131,-399.5 913.131,-405.5 913.131,-405.5 913.131,-467.5 913.131,-467.5 913.131,-473.5 907.131,-479.5 901.131,-479.5 901.131,-479.5 760.244,-479.5 760.244,-479.5 754.244,-479.5 748.244,-473.5 748.244,-467.5 748.244,-467.5 748.244,-405.5 748.244,-405.5 748.244,-399.5 754.244,-393.5 760.244,-393.5"/>
<text text-anchor="middle" x="830.688" y="-464.3" font-family="Times,serif" font-size="14.00">StockFamily</text>
<polyline fill="none" stroke="black" points="748.244,-457.5 913.131,-457.5 "/>
<text text-anchor="start" x="756.244" y="-442.3" font-family="Times,serif" font-size="14.00">id :integer</text>
<text text-anchor="start" x="756.244" y="-428.3" font-family="Times,serif" font-size="14.00">generic_family_id :integer</text>
<text text-anchor="start" x="756.244" y="-414.3" font-family="Times,serif" font-size="14.00">created_at :datetime</text>
<text text-anchor="start" x="756.244" y="-400.3" font-family="Times,serif" font-size="14.00">updated_at :datetime</text>
</g>
<!-- GenericFamily&#45;&gt;StockFamily -->
<g id="edge21" class="edge"><title>GenericFamily&#45;&gt;StockFamily</title>
<path fill="none" stroke="#3dc276" d="M695.115,-607.72C724.448,-570.89 762.556,-523.043 790.896,-487.46"/>
<ellipse fill="none" stroke="#3dc276" cx="692.237" cy="-611.332" rx="4.00002" ry="4.00002"/>
<polygon fill="#3dc276" stroke="#3dc276" points="790.921,-487.429 800.671,-482.411 794.036,-483.518 797.151,-479.607 797.151,-479.607 797.151,-479.607 794.036,-483.518 793.631,-476.804 790.921,-487.429 790.921,-487.429"/>
</g>
<!-- GenericSpare&#45;&gt;GenericCar -->
<g id="edge23" class="edge"><title>GenericSpare&#45;&gt;GenericCar</title>
<path fill="none" stroke="#5a0e52" d="M924.436,-518.67C915.237,-529.383 906.114,-540.345 897.688,-551 821.284,-647.616 826.305,-691.423 738.688,-778 697.898,-818.305 645.927,-855.092 600.962,-883.432"/>
<polygon fill="#5a0e52" stroke="#5a0e52" points="924.597,-518.484 934.543,-513.865 927.868,-514.703 931.139,-510.921 931.139,-510.921 931.139,-510.921 927.868,-514.703 927.736,-507.977 924.597,-518.484 924.597,-518.484"/>
<polygon fill="#5a0e52" stroke="#5a0e52" points="600.842,-883.508 589.977,-884.989 596.601,-886.156 592.361,-888.805 592.361,-888.805 592.361,-888.805 596.601,-886.156 594.745,-892.622 600.842,-883.508 600.842,-883.508"/>
</g>
<!-- GenericSpare&#45;&gt;GenericFittable -->
<g id="edge22" class="edge"><title>GenericSpare&#45;&gt;GenericFittable</title>
<path fill="none" stroke="#a9531c" d="M924.075,-359.281C923.283,-358.843 922.487,-358.416 921.688,-358 838.471,-314.676 800.041,-358.676 713.688,-322 692.232,-312.888 670.977,-299.457 652.245,-285.677"/>
<ellipse fill="none" stroke="#a9531c" cx="927.684" cy="-361.442" rx="4.00002" ry="4.00002"/>
<polygon fill="#a9531c" stroke="#a9531c" points="652.092,-285.562 646.808,-275.953 648.097,-282.555 644.102,-279.549 644.102,-279.549 644.102,-279.549 648.097,-282.555 641.396,-283.144 652.092,-285.562 652.092,-285.562"/>
</g>
<!-- GenericSpareImage -->
<g id="node13" class="node"><title>GenericSpareImage</title>
<path fill="none" stroke="black" d="M935.238,-186.5C935.238,-186.5 1062.14,-186.5 1062.14,-186.5 1068.14,-186.5 1074.14,-192.5 1074.14,-198.5 1074.14,-198.5 1074.14,-260.5 1074.14,-260.5 1074.14,-266.5 1068.14,-272.5 1062.14,-272.5 1062.14,-272.5 935.238,-272.5 935.238,-272.5 929.238,-272.5 923.238,-266.5 923.238,-260.5 923.238,-260.5 923.238,-198.5 923.238,-198.5 923.238,-192.5 929.238,-186.5 935.238,-186.5"/>
<text text-anchor="middle" x="998.688" y="-257.3" font-family="Times,serif" font-size="14.00">GenericSpareImage</text>
<polyline fill="none" stroke="black" points="923.238,-250.5 1074.14,-250.5 "/>
<text text-anchor="start" x="931.238" y="-235.3" font-family="Times,serif" font-size="14.00">id :integer</text>
<text text-anchor="start" x="931.238" y="-221.3" font-family="Times,serif" font-size="14.00">generic_spare_id :string</text>
<text text-anchor="start" x="931.238" y="-207.3" font-family="Times,serif" font-size="14.00">created_at :datetime</text>
<text text-anchor="start" x="931.238" y="-193.3" font-family="Times,serif" font-size="14.00">updated_at :datetime</text>
</g>
<!-- GenericSpare&#45;&gt;GenericSpareImage -->
<g id="edge26" class="edge"><title>GenericSpare&#45;&gt;GenericSpareImage</title>
<path fill="none" stroke="#bb146f" d="M998.688,-350.051C998.688,-327.174 998.688,-303.13 998.688,-282.654"/>
<ellipse fill="none" stroke="#bb146f" cx="998.688" cy="-354.29" rx="4" ry="4"/>
<polygon fill="#bb146f" stroke="#bb146f" points="998.688,-282.603 1003.19,-272.603 998.688,-277.603 998.688,-272.603 998.688,-272.603 998.688,-272.603 998.688,-277.603 994.188,-272.604 998.688,-282.603 998.688,-282.603"/>
</g>
<!-- GenericSpare&#45;&gt;SpareLikelihood -->
<g id="edge24" class="edge"><title>GenericSpare&#45;&gt;SpareLikelihood</title>
<path fill="none" stroke="#26bd7a" d="M925.749,-358.425C903.281,-334.684 878.975,-308.999 858.079,-286.918"/>
<ellipse fill="none" stroke="#26bd7a" cx="928.631" cy="-361.471" rx="4.00002" ry="4.00002"/>
<polygon fill="#26bd7a" stroke="#26bd7a" points="858.004,-286.839 854.399,-276.483 854.567,-283.208 851.131,-279.576 851.131,-279.576 851.131,-279.576 854.567,-283.208 847.862,-282.669 858.004,-286.839 858.004,-286.839"/>
</g>
<!-- StockSpare -->
<g id="node24" class="node"><title>StockSpare</title>
<path fill="none" stroke="black" d="M1146.75,-137.5C1146.75,-137.5 1280.63,-137.5 1280.63,-137.5 1286.63,-137.5 1292.63,-143.5 1292.63,-149.5 1292.63,-149.5 1292.63,-309.5 1292.63,-309.5 1292.63,-315.5 1286.63,-321.5 1280.63,-321.5 1280.63,-321.5 1146.75,-321.5 1146.75,-321.5 1140.75,-321.5 1134.75,-315.5 1134.75,-309.5 1134.75,-309.5 1134.75,-149.5 1134.75,-149.5 1134.75,-143.5 1140.75,-137.5 1146.75,-137.5"/>
<text text-anchor="middle" x="1213.69" y="-306.3" font-family="Times,serif" font-size="14.00">StockSpare</text>
<polyline fill="none" stroke="black" points="1134.75,-299.5 1292.63,-299.5 "/>
<text text-anchor="start" x="1142.75" y="-284.3" font-family="Times,serif" font-size="14.00">id :integer</text>
<text text-anchor="start" x="1142.75" y="-270.3" font-family="Times,serif" font-size="14.00">car_id :integer</text>
<text text-anchor="start" x="1142.75" y="-256.3" font-family="Times,serif" font-size="14.00">warehouse_id :integer</text>
<text text-anchor="start" x="1142.75" y="-242.3" font-family="Times,serif" font-size="14.00">generic_spare_id :integer</text>
<text text-anchor="start" x="1142.75" y="-228.3" font-family="Times,serif" font-size="14.00">status :string</text>
<text text-anchor="start" x="1142.75" y="-214.3" font-family="Times,serif" font-size="14.00">description :text</text>
<text text-anchor="start" x="1142.75" y="-200.3" font-family="Times,serif" font-size="14.00">code :string</text>
<text text-anchor="start" x="1142.75" y="-186.3" font-family="Times,serif" font-size="14.00">color :string</text>
<text text-anchor="start" x="1142.75" y="-172.3" font-family="Times,serif" font-size="14.00">created_at :datetime</text>
<text text-anchor="start" x="1142.75" y="-158.3" font-family="Times,serif" font-size="14.00">updated_at :datetime</text>
<text text-anchor="start" x="1142.75" y="-144.3" font-family="Times,serif" font-size="14.00">stock_family_id :integer</text>
</g>
<!-- GenericSpare&#45;&gt;StockSpare -->
<g id="edge25" class="edge"><title>GenericSpare&#45;&gt;StockSpare</title>
<path fill="none" stroke="#46b0ad" d="M1072.01,-360.599C1072.91,-359.726 1073.8,-358.86 1074.69,-358 1091.47,-341.765 1109.69,-324.681 1127.25,-308.482"/>
<ellipse fill="none" stroke="#46b0ad" cx="1068.91" cy="-363.636" rx="4.00002" ry="4.00002"/>
<polygon fill="#46b0ad" stroke="#46b0ad" points="1127.37,-308.372 1137.77,-304.908 1131.04,-304.985 1134.72,-301.598 1134.72,-301.598 1134.72,-301.598 1131.04,-304.985 1131.67,-298.288 1127.37,-308.372 1127.37,-308.372"/>
</g>
<!-- Insured -->
<g id="node14" class="node"><title>Insured</title>
<path fill="none" stroke="black" d="M1483.63,-593.5C1483.63,-593.5 1609.75,-593.5 1609.75,-593.5 1615.75,-593.5 1621.75,-599.5 1621.75,-605.5 1621.75,-605.5 1621.75,-723.5 1621.75,-723.5 1621.75,-729.5 1615.75,-735.5 1609.75,-735.5 1609.75,-735.5 1483.63,-735.5 1483.63,-735.5 1477.63,-735.5 1471.63,-729.5 1471.63,-723.5 1471.63,-723.5 1471.63,-605.5 1471.63,-605.5 1471.63,-599.5 1477.63,-593.5 1483.63,-593.5"/>
<text text-anchor="middle" x="1546.69" y="-720.3" font-family="Times,serif" font-size="14.00">Insured</text>
<polyline fill="none" stroke="black" points="1471.63,-713.5 1621.75,-713.5 "/>
<text text-anchor="start" x="1479.63" y="-698.3" font-family="Times,serif" font-size="14.00">id :integer</text>
<text text-anchor="start" x="1479.63" y="-684.3" font-family="Times,serif" font-size="14.00">prevaluation_id :integer</text>
<text text-anchor="start" x="1479.63" y="-670.3" font-family="Times,serif" font-size="14.00">third :boolean</text>
<text text-anchor="start" x="1479.63" y="-656.3" font-family="Times,serif" font-size="14.00">name :string</text>
<text text-anchor="start" x="1479.63" y="-642.3" font-family="Times,serif" font-size="14.00">telephone :integer</text>
<text text-anchor="start" x="1479.63" y="-628.3" font-family="Times,serif" font-size="14.00">email :string</text>
<text text-anchor="start" x="1479.63" y="-614.3" font-family="Times,serif" font-size="14.00">created_at :datetime</text>
<text text-anchor="start" x="1479.63" y="-600.3" font-family="Times,serif" font-size="14.00">updated_at :datetime</text>
</g>
<!-- MoldComponent -->
<g id="node16" class="node"><title>MoldComponent</title>
<path fill="none" stroke="black" d="M1095.95,-386.5C1095.95,-386.5 1217.42,-386.5 1217.42,-386.5 1223.42,-386.5 1229.42,-392.5 1229.42,-398.5 1229.42,-398.5 1229.42,-474.5 1229.42,-474.5 1229.42,-480.5 1223.42,-486.5 1217.42,-486.5 1217.42,-486.5 1095.95,-486.5 1095.95,-486.5 1089.95,-486.5 1083.95,-480.5 1083.95,-474.5 1083.95,-474.5 1083.95,-398.5 1083.95,-398.5 1083.95,-392.5 1089.95,-386.5 1095.95,-386.5"/>
<text text-anchor="middle" x="1156.69" y="-471.3" font-family="Times,serif" font-size="14.00">MoldComponent</text>
<polyline fill="none" stroke="black" points="1083.95,-464.5 1229.42,-464.5 "/>
<text text-anchor="start" x="1091.95" y="-449.3" font-family="Times,serif" font-size="14.00">id :integer</text>
<text text-anchor="start" x="1091.95" y="-435.3" font-family="Times,serif" font-size="14.00">name :string</text>
<text text-anchor="start" x="1091.95" y="-421.3" font-family="Times,serif" font-size="14.00">mold_spare_id :integer</text>
<text text-anchor="start" x="1091.95" y="-407.3" font-family="Times,serif" font-size="14.00">created_at :datetime</text>
<text text-anchor="start" x="1091.95" y="-393.3" font-family="Times,serif" font-size="14.00">updated_at :datetime</text>
</g>
<!-- MoldSpare -->
<g id="node17" class="node"><title>MoldSpare</title>
<path fill="none" stroke="black" d="M919.182,-600.5C919.182,-600.5 1028.19,-600.5 1028.19,-600.5 1034.19,-600.5 1040.19,-606.5 1040.19,-612.5 1040.19,-612.5 1040.19,-716.5 1040.19,-716.5 1040.19,-722.5 1034.19,-728.5 1028.19,-728.5 1028.19,-728.5 919.182,-728.5 919.182,-728.5 913.182,-728.5 907.182,-722.5 907.182,-716.5 907.182,-716.5 907.182,-612.5 907.182,-612.5 907.182,-606.5 913.182,-600.5 919.182,-600.5"/>
<text text-anchor="middle" x="973.688" y="-713.3" font-family="Times,serif" font-size="14.00">MoldSpare</text>
<polyline fill="none" stroke="black" points="907.182,-706.5 1040.19,-706.5 "/>
<text text-anchor="start" x="915.182" y="-691.3" font-family="Times,serif" font-size="14.00">id :integer</text>
<text text-anchor="start" x="915.182" y="-677.3" font-family="Times,serif" font-size="14.00">name :string</text>
<text text-anchor="start" x="915.182" y="-663.3" font-family="Times,serif" font-size="14.00">comment :string</text>
<text text-anchor="start" x="915.182" y="-649.3" font-family="Times,serif" font-size="14.00">mold_type :string</text>
<text text-anchor="start" x="915.182" y="-635.3" font-family="Times,serif" font-size="14.00">code :string</text>
<text text-anchor="start" x="915.182" y="-621.3" font-family="Times,serif" font-size="14.00">created_at :datetime</text>
<text text-anchor="start" x="915.182" y="-607.3" font-family="Times,serif" font-size="14.00">updated_at :datetime</text>
</g>
<!-- MoldSpare&#45;&gt;GenericSpare -->
<g id="edge27" class="edge"><title>MoldSpare&#45;&gt;GenericSpare</title>
<path fill="none" stroke="#186551" d="M981.593,-592.036C983.951,-570.723 986.562,-547.121 989.018,-524.91"/>
<ellipse fill="none" stroke="#186551" cx="981.125" cy="-596.27" rx="4.00001" ry="4.00001"/>
<polygon fill="#186551" stroke="#186551" points="989.035,-524.756 994.608,-515.311 989.585,-519.786 990.135,-514.816 990.135,-514.816 990.135,-514.816 989.585,-519.786 985.662,-514.322 989.035,-524.756 989.035,-524.756"/>
</g>
<!-- MoldSpare&#45;&gt;MoldComponent -->
<g id="edge28" class="edge"><title>MoldSpare&#45;&gt;MoldComponent</title>
<path fill="none" stroke="#29c480" d="M1017.8,-593.264C1027.53,-578.954 1038.11,-564.237 1048.69,-551 1064.14,-531.665 1082.26,-511.734 1099.19,-494.074"/>
<ellipse fill="none" stroke="#29c480" cx="1015.33" cy="-596.931" rx="4.00002" ry="4.00002"/>
<polygon fill="#29c480" stroke="#29c480" points="1099.41,-493.844 1109.59,-489.781 1102.88,-490.249 1106.36,-486.653 1106.36,-486.653 1106.36,-486.653 1102.88,-490.249 1103.12,-483.526 1099.41,-493.844 1099.41,-493.844"/>
</g>
<!-- Prevaluation -->
<g id="node18" class="node"><title>Prevaluation</title>
<path fill="none" stroke="black" d="M1477.79,-814.5C1477.79,-814.5 1615.59,-814.5 1615.59,-814.5 1621.59,-814.5 1627.59,-820.5 1627.59,-826.5 1627.59,-826.5 1627.59,-1056.5 1627.59,-1056.5 1627.59,-1062.5 1621.59,-1068.5 1615.59,-1068.5 1615.59,-1068.5 1477.79,-1068.5 1477.79,-1068.5 1471.79,-1068.5 1465.79,-1062.5 1465.79,-1056.5 1465.79,-1056.5 1465.79,-826.5 1465.79,-826.5 1465.79,-820.5 1471.79,-814.5 1477.79,-814.5"/>
<text text-anchor="middle" x="1546.69" y="-1053.3" font-family="Times,serif" font-size="14.00">Prevaluation</text>
<polyline fill="none" stroke="black" points="1465.79,-1046.5 1627.59,-1046.5 "/>
<text text-anchor="start" x="1473.79" y="-1031.3" font-family="Times,serif" font-size="14.00">id :integer</text>
<text text-anchor="start" x="1473.79" y="-1017.3" font-family="Times,serif" font-size="14.00">number :string</text>
<text text-anchor="start" x="1473.79" y="-1003.3" font-family="Times,serif" font-size="14.00">policy :string</text>
<text text-anchor="start" x="1473.79" y="-989.3" font-family="Times,serif" font-size="14.00">subsection :string</text>
<text text-anchor="start" x="1473.79" y="-975.3" font-family="Times,serif" font-size="14.00">expedition_date :date</text>
<text text-anchor="start" x="1473.79" y="-961.3" font-family="Times,serif" font-size="14.00">valuation_date :date</text>
<text text-anchor="start" x="1473.79" y="-947.3" font-family="Times,serif" font-size="14.00">deductible_value :float</text>
<text text-anchor="start" x="1473.79" y="-933.3" font-family="Times,serif" font-size="14.00">commercial_value :float</text>
<text text-anchor="start" x="1473.79" y="-919.3" font-family="Times,serif" font-size="14.00">requires_crane :boolean</text>
<text text-anchor="start" x="1473.79" y="-905.3" font-family="Times,serif" font-size="14.00">collection_status :boolean</text>
<text text-anchor="start" x="1473.79" y="-891.3" font-family="Times,serif" font-size="14.00">special_conditions :string</text>
<text text-anchor="start" x="1473.79" y="-877.3" font-family="Times,serif" font-size="14.00">third_insured :boolean</text>
<text text-anchor="start" x="1473.79" y="-863.3" font-family="Times,serif" font-size="14.00">agent_name :string</text>
<text text-anchor="start" x="1473.79" y="-849.3" font-family="Times,serif" font-size="14.00">comment :text</text>
<text text-anchor="start" x="1473.79" y="-835.3" font-family="Times,serif" font-size="14.00">created_at :datetime</text>
<text text-anchor="start" x="1473.79" y="-821.3" font-family="Times,serif" font-size="14.00">updated_at :datetime</text>
</g>
<!-- Prevaluation&#45;&gt;Insured -->
<g id="edge30" class="edge"><title>Prevaluation&#45;&gt;Insured</title>
<path fill="none" stroke="#cc8068" d="M1546.69,-806.037C1546.69,-785.442 1546.69,-764.755 1546.69,-745.828"/>
<ellipse fill="none" stroke="#cc8068" cx="1546.69" cy="-810.268" rx="4" ry="4"/>
<polygon fill="#cc8068" stroke="#cc8068" points="1546.69,-745.803 1551.19,-735.803 1546.69,-740.803 1546.69,-735.803 1546.69,-735.803 1546.69,-735.803 1546.69,-740.803 1542.19,-735.803 1546.69,-745.803 1546.69,-745.803"/>
</g>
<!-- PrevaluationImage -->
<g id="node19" class="node"><title>PrevaluationImage</title>
<path fill="none" stroke="black" d="M1652.12,-621.5C1652.12,-621.5 1771.26,-621.5 1771.26,-621.5 1777.26,-621.5 1783.26,-627.5 1783.26,-633.5 1783.26,-633.5 1783.26,-695.5 1783.26,-695.5 1783.26,-701.5 1777.26,-707.5 1771.26,-707.5 1771.26,-707.5 1652.12,-707.5 1652.12,-707.5 1646.12,-707.5 1640.12,-701.5 1640.12,-695.5 1640.12,-695.5 1640.12,-633.5 1640.12,-633.5 1640.12,-627.5 1646.12,-621.5 1652.12,-621.5"/>
<text text-anchor="middle" x="1711.69" y="-692.3" font-family="Times,serif" font-size="14.00">PrevaluationImage</text>
<polyline fill="none" stroke="black" points="1640.12,-685.5 1783.26,-685.5 "/>
<text text-anchor="start" x="1648.12" y="-670.3" font-family="Times,serif" font-size="14.00">id :integer</text>
<text text-anchor="start" x="1648.12" y="-656.3" font-family="Times,serif" font-size="14.00">prevaluation_id :string</text>
<text text-anchor="start" x="1648.12" y="-642.3" font-family="Times,serif" font-size="14.00">created_at :datetime</text>
<text text-anchor="start" x="1648.12" y="-628.3" font-family="Times,serif" font-size="14.00">updated_at :datetime</text>
</g>
<!-- Prevaluation&#45;&gt;PrevaluationImage -->
<g id="edge32" class="edge"><title>Prevaluation&#45;&gt;PrevaluationImage</title>
<path fill="none" stroke="#1b26bf" d="M1626.75,-807.056C1646.13,-774.764 1665.68,-742.174 1681.14,-716.417"/>
<ellipse fill="none" stroke="#1b26bf" cx="1624.48" cy="-810.838" rx="4.00002" ry="4.00002"/>
<polygon fill="#1b26bf" stroke="#1b26bf" points="1681.28,-716.178 1690.28,-709.919 1683.85,-711.891 1686.43,-707.603 1686.43,-707.603 1686.43,-707.603 1683.85,-711.891 1682.57,-705.288 1681.28,-716.178 1681.28,-716.178"/>
</g>
<!-- Prevaluation&#45;&gt;StockCar -->
<g id="edge29" class="edge"><title>Prevaluation&#45;&gt;StockCar</title>
<path fill="none" stroke="#5deb59" d="M1461.24,-807.738C1456.7,-800.69 1452.15,-793.625 1447.64,-786.618"/>
<ellipse fill="none" stroke="#5deb59" cx="1463.53" cy="-811.306" rx="4.00002" ry="4.00002"/>
<polygon fill="#5deb59" stroke="#5deb59" points="1447.37,-786.187 1445.74,-775.343 1444.66,-781.983 1441.95,-777.778 1441.95,-777.778 1441.95,-777.778 1444.66,-781.983 1438.17,-780.214 1447.37,-786.187 1447.37,-786.187"/>
</g>
<!-- Valuation -->
<g id="node28" class="node"><title>Valuation</title>
<path fill="none" stroke="black" d="M1813.18,-614.5C1813.18,-614.5 1922.19,-614.5 1922.19,-614.5 1928.19,-614.5 1934.19,-620.5 1934.19,-626.5 1934.19,-626.5 1934.19,-702.5 1934.19,-702.5 1934.19,-708.5 1928.19,-714.5 1922.19,-714.5 1922.19,-714.5 1813.18,-714.5 1813.18,-714.5 1807.18,-714.5 1801.18,-708.5 1801.18,-702.5 1801.18,-702.5 1801.18,-626.5 1801.18,-626.5 1801.18,-620.5 1807.18,-614.5 1813.18,-614.5"/>
<text text-anchor="middle" x="1867.69" y="-699.3" font-family="Times,serif" font-size="14.00">Valuation</text>
<polyline fill="none" stroke="black" points="1801.18,-692.5 1934.19,-692.5 "/>
<text text-anchor="start" x="1809.18" y="-677.3" font-family="Times,serif" font-size="14.00">id :integer</text>
<text text-anchor="start" x="1809.18" y="-663.3" font-family="Times,serif" font-size="14.00">client_code :string</text>
<text text-anchor="start" x="1809.18" y="-649.3" font-family="Times,serif" font-size="14.00">edited_by :string</text>
<text text-anchor="start" x="1809.18" y="-635.3" font-family="Times,serif" font-size="14.00">created_at :datetime</text>
<text text-anchor="start" x="1809.18" y="-621.3" font-family="Times,serif" font-size="14.00">updated_at :datetime</text>
</g>
<!-- Prevaluation&#45;&gt;Valuation -->
<g id="edge31" class="edge"><title>Prevaluation&#45;&gt;Valuation</title>
<path fill="none" stroke="#68fb60" d="M1634.69,-814.679C1635.02,-814.451 1635.35,-814.225 1635.69,-814 1695.11,-774.079 1733.77,-818.664 1792.69,-778 1813.08,-763.926 1829.41,-742.332 1841.55,-721.812"/>
<ellipse fill="none" stroke="#68fb60" cx="1631.06" cy="-817.34" rx="4.00002" ry="4.00002"/>
<ellipse fill="#68fb60" stroke="#68fb60" cx="1843.69" cy="-718.084" rx="4.00002" ry="4.00002"/>
</g>
<!-- StockCarImage -->
<g id="node22" class="node"><title>StockCarImage</title>
<path fill="none" stroke="black" d="M1314.79,-393.5C1314.79,-393.5 1424.58,-393.5 1424.58,-393.5 1430.58,-393.5 1436.58,-399.5 1436.58,-405.5 1436.58,-405.5 1436.58,-467.5 1436.58,-467.5 1436.58,-473.5 1430.58,-479.5 1424.58,-479.5 1424.58,-479.5 1314.79,-479.5 1314.79,-479.5 1308.79,-479.5 1302.79,-473.5 1302.79,-467.5 1302.79,-467.5 1302.79,-405.5 1302.79,-405.5 1302.79,-399.5 1308.79,-393.5 1314.79,-393.5"/>
<text text-anchor="middle" x="1369.69" y="-464.3" font-family="Times,serif" font-size="14.00">StockCarImage</text>
<polyline fill="none" stroke="black" points="1302.79,-457.5 1436.58,-457.5 "/>
<text text-anchor="start" x="1310.79" y="-442.3" font-family="Times,serif" font-size="14.00">id :integer</text>
<text text-anchor="start" x="1310.79" y="-428.3" font-family="Times,serif" font-size="14.00">stock_car_id :integer</text>
<text text-anchor="start" x="1310.79" y="-414.3" font-family="Times,serif" font-size="14.00">created_at :datetime</text>
<text text-anchor="start" x="1310.79" y="-400.3" font-family="Times,serif" font-size="14.00">updated_at :datetime</text>
</g>
<!-- StockCar&#45;&gt;StockCarImage -->
<g id="edge33" class="edge"><title>StockCar&#45;&gt;StockCarImage</title>
<path fill="none" stroke="#f160c4" d="M1369.69,-543.385C1369.69,-524.603 1369.69,-506.084 1369.69,-489.915"/>
<ellipse fill="none" stroke="#f160c4" cx="1369.69" cy="-547.493" rx="4" ry="4"/>
<polygon fill="#f160c4" stroke="#f160c4" points="1369.69,-489.65 1374.19,-479.65 1369.69,-484.65 1369.69,-479.65 1369.69,-479.65 1369.69,-479.65 1369.69,-484.65 1365.19,-479.65 1369.69,-489.65 1369.69,-489.65"/>
</g>
<!-- StockSpareImage -->
<g id="node25" class="node"><title>StockSpareImage</title>
<path fill="none" stroke="black" d="M1152.57,-7.5C1152.57,-7.5 1274.81,-7.5 1274.81,-7.5 1280.81,-7.5 1286.81,-13.5 1286.81,-19.5 1286.81,-19.5 1286.81,-81.5 1286.81,-81.5 1286.81,-87.5 1280.81,-93.5 1274.81,-93.5 1274.81,-93.5 1152.57,-93.5 1152.57,-93.5 1146.57,-93.5 1140.57,-87.5 1140.57,-81.5 1140.57,-81.5 1140.57,-19.5 1140.57,-19.5 1140.57,-13.5 1146.57,-7.5 1152.57,-7.5"/>
<text text-anchor="middle" x="1213.69" y="-78.3" font-family="Times,serif" font-size="14.00">StockSpareImage</text>
<polyline fill="none" stroke="black" points="1140.57,-71.5 1286.81,-71.5 "/>
<text text-anchor="start" x="1148.57" y="-56.3" font-family="Times,serif" font-size="14.00">id :integer</text>
<text text-anchor="start" x="1148.57" y="-42.3" font-family="Times,serif" font-size="14.00">stock_spare_id :integer</text>
<text text-anchor="start" x="1148.57" y="-28.3" font-family="Times,serif" font-size="14.00">created_at :datetime</text>
<text text-anchor="start" x="1148.57" y="-14.3" font-family="Times,serif" font-size="14.00">updated_at :datetime</text>
</g>
<!-- StockSpare&#45;&gt;StockSpareImage -->
<g id="edge34" class="edge"><title>StockSpare&#45;&gt;StockSpareImage</title>
<path fill="none" stroke="#83fed7" d="M1213.69,-129.209C1213.69,-120.567 1213.69,-112.064 1213.69,-104.037"/>
<ellipse fill="none" stroke="#83fed7" cx="1213.69" cy="-133.408" rx="4" ry="4"/>
<polygon fill="#83fed7" stroke="#83fed7" points="1213.69,-103.787 1218.19,-93.7869 1213.69,-98.7869 1213.69,-93.7869 1213.69,-93.7869 1213.69,-93.7869 1213.69,-98.7869 1209.19,-93.787 1213.69,-103.787 1213.69,-103.787"/>
</g>
<!-- User -->
<g id="node27" class="node"><title>User</title>
<path fill="none" stroke="black" d="M1202.62,-1105.5C1202.62,-1105.5 1328.75,-1105.5 1328.75,-1105.5 1334.75,-1105.5 1340.75,-1111.5 1340.75,-1117.5 1340.75,-1117.5 1340.75,-1249.5 1340.75,-1249.5 1340.75,-1255.5 1334.75,-1261.5 1328.75,-1261.5 1328.75,-1261.5 1202.62,-1261.5 1202.62,-1261.5 1196.62,-1261.5 1190.62,-1255.5 1190.62,-1249.5 1190.62,-1249.5 1190.62,-1117.5 1190.62,-1117.5 1190.62,-1111.5 1196.62,-1105.5 1202.62,-1105.5"/>
<text text-anchor="middle" x="1265.69" y="-1246.3" font-family="Times,serif" font-size="14.00">User</text>
<polyline fill="none" stroke="black" points="1190.62,-1239.5 1340.75,-1239.5 "/>
<text text-anchor="start" x="1198.62" y="-1224.3" font-family="Times,serif" font-size="14.00">id :integer</text>
<text text-anchor="start" x="1198.62" y="-1210.3" font-family="Times,serif" font-size="14.00">name :string</text>
<text text-anchor="start" x="1198.62" y="-1196.3" font-family="Times,serif" font-size="14.00">email :string</text>
<text text-anchor="start" x="1198.62" y="-1182.3" font-family="Times,serif" font-size="14.00">username :string</text>
<text text-anchor="start" x="1198.62" y="-1168.3" font-family="Times,serif" font-size="14.00">privileges :string</text>
<text text-anchor="start" x="1198.62" y="-1154.3" font-family="Times,serif" font-size="14.00">created_at :datetime</text>
<text text-anchor="start" x="1198.62" y="-1140.3" font-family="Times,serif" font-size="14.00">updated_at :datetime</text>
<text text-anchor="start" x="1198.62" y="-1126.3" font-family="Times,serif" font-size="14.00">password_digest :string</text>
<text text-anchor="start" x="1198.62" y="-1112.3" font-family="Times,serif" font-size="14.00">remember_token :string</text>
</g>
<!-- Warehouse -->
<g id="node29" class="node"><title>Warehouse</title>
<path fill="none" stroke="black" d="M1259.18,-884.5C1259.18,-884.5 1368.19,-884.5 1368.19,-884.5 1374.19,-884.5 1380.19,-890.5 1380.19,-896.5 1380.19,-896.5 1380.19,-986.5 1380.19,-986.5 1380.19,-992.5 1374.19,-998.5 1368.19,-998.5 1368.19,-998.5 1259.18,-998.5 1259.18,-998.5 1253.18,-998.5 1247.18,-992.5 1247.18,-986.5 1247.18,-986.5 1247.18,-896.5 1247.18,-896.5 1247.18,-890.5 1253.18,-884.5 1259.18,-884.5"/>
<text text-anchor="middle" x="1313.69" y="-983.3" font-family="Times,serif" font-size="14.00">Warehouse</text>
<polyline fill="none" stroke="black" points="1247.18,-976.5 1380.19,-976.5 "/>
<text text-anchor="start" x="1255.18" y="-961.3" font-family="Times,serif" font-size="14.00">id :integer</text>
<text text-anchor="start" x="1255.18" y="-947.3" font-family="Times,serif" font-size="14.00">branch :string</text>
<text text-anchor="start" x="1255.18" y="-933.3" font-family="Times,serif" font-size="14.00">location :string</text>
<text text-anchor="start" x="1255.18" y="-919.3" font-family="Times,serif" font-size="14.00">geolocation :string</text>
<text text-anchor="start" x="1255.18" y="-905.3" font-family="Times,serif" font-size="14.00">created_at :datetime</text>
<text text-anchor="start" x="1255.18" y="-891.3" font-family="Times,serif" font-size="14.00">updated_at :datetime</text>
</g>
<!-- Warehouse&#45;&gt;StockCar -->
<g id="edge36" class="edge"><title>Warehouse&#45;&gt;StockCar</title>
<path fill="none" stroke="#8015f3" d="M1326.8,-876.086C1332.19,-849.62 1338.62,-818.062 1344.84,-787.533"/>
<ellipse fill="none" stroke="#8015f3" cx="1325.95" cy="-880.266" rx="4.00001" ry="4.00001"/>
<polygon fill="#8015f3" stroke="#8015f3" points="1344.85,-787.464 1351.26,-778.563 1345.85,-782.565 1346.85,-777.665 1346.85,-777.665 1346.85,-777.665 1345.85,-782.565 1342.44,-776.767 1344.85,-787.464 1344.85,-787.464"/>
</g>
<!-- Warehouse&#45;&gt;StockSpare -->
<g id="edge35" class="edge"><title>Warehouse&#45;&gt;StockSpare</title>
<path fill="none" stroke="#42bc6c" d="M1297.07,-876.626C1289.85,-846.835 1281.88,-810.792 1276.69,-778 1247.37,-592.878 1265.2,-543.545 1238.69,-358 1237.46,-349.401 1236.03,-340.504 1234.5,-331.594"/>
<ellipse fill="none" stroke="#42bc6c" cx="1298.03" cy="-880.571" rx="4.00001" ry="4.00001"/>
<polygon fill="#42bc6c" stroke="#42bc6c" points="1234.46,-331.391 1237.16,-320.761 1233.6,-326.467 1232.73,-321.543 1232.73,-321.543 1232.73,-321.543 1233.6,-326.467 1228.3,-322.325 1234.46,-331.391 1234.46,-331.391"/>
</g>
</g>
</svg>
