<?xml version="1.0" encoding="UTF-8" standalone="no"?>
<!DOCTYPE svg PUBLIC "-//W3C//DTD SVG 1.1//EN"
 "http://www.w3.org/Graphics/SVG/1.1/DTD/svg11.dtd">
<!-- Generated by graphviz version 2.38.0 (20140413.2041)
 -->
<!-- Title: models_diagram Pages: 1 -->
<svg width="2180pt" height="1637pt"
 viewBox="0.00 0.00 2180.40 1637.00" xmlns="http://www.w3.org/2000/svg" xmlns:xlink="http://www.w3.org/1999/xlink">
<g id="graph0" class="graph" transform="scale(1 1) rotate(0) translate(4 1633)">
<title>models_diagram</title>
<polygon fill="white" stroke="none" points="-4,4 -4,-1633 2176.4,-1633 2176.4,4 -4,4"/>
<!-- _diagram_info -->
<g id="node1" class="node"><title>_diagram_info</title>
<text text-anchor="start" x="1384" y="-1572.6" font-family="Times,serif" font-size="13.00">Models diagram</text>
<text text-anchor="start" x="1384" y="-1559.6" font-family="Times,serif" font-size="13.00">Date: Jun 19 2015 &#45; 13:33</text>
<text text-anchor="start" x="1384" y="-1546.6" font-family="Times,serif" font-size="13.00">Migration version: 20150603212943</text>
<text text-anchor="start" x="1384" y="-1533.6" font-family="Times,serif" font-size="13.00">Generated by RailRoady 1.3.0</text>
<text text-anchor="start" x="1384" y="-1520.6" font-family="Times,serif" font-size="13.00">http://railroady.prestonlee.com</text>
</g>
<!-- Brand -->
<g id="node2" class="node"><title>Brand</title>
<path fill="none" stroke="black" d="M1613.18,-1500.5C1613.18,-1500.5 1722.19,-1500.5 1722.19,-1500.5 1728.19,-1500.5 1734.19,-1506.5 1734.19,-1512.5 1734.19,-1512.5 1734.19,-1588.5 1734.19,-1588.5 1734.19,-1594.5 1728.19,-1600.5 1722.19,-1600.5 1722.19,-1600.5 1613.18,-1600.5 1613.18,-1600.5 1607.18,-1600.5 1601.18,-1594.5 1601.18,-1588.5 1601.18,-1588.5 1601.18,-1512.5 1601.18,-1512.5 1601.18,-1506.5 1607.18,-1500.5 1613.18,-1500.5"/>
<text text-anchor="middle" x="1667.69" y="-1585.3" font-family="Times,serif" font-size="14.00">Brand</text>
<polyline fill="none" stroke="black" points="1601.18,-1578.5 1734.19,-1578.5 "/>
<text text-anchor="start" x="1609.18" y="-1563.3" font-family="Times,serif" font-size="14.00">id :integer</text>
<text text-anchor="start" x="1609.18" y="-1549.3" font-family="Times,serif" font-size="14.00">name :string</text>
<text text-anchor="start" x="1609.18" y="-1535.3" font-family="Times,serif" font-size="14.00">acronym :string</text>
<text text-anchor="start" x="1609.18" y="-1521.3" font-family="Times,serif" font-size="14.00">created_at :datetime</text>
<text text-anchor="start" x="1609.18" y="-1507.3" font-family="Times,serif" font-size="14.00">updated_at :datetime</text>
</g>
<!-- ModelAcronym -->
<g id="node14" class="node"><title>ModelAcronym</title>
<path fill="none" stroke="black" d="M1613.18,-1313.5C1613.18,-1313.5 1722.19,-1313.5 1722.19,-1313.5 1728.19,-1313.5 1734.19,-1319.5 1734.19,-1325.5 1734.19,-1325.5 1734.19,-1415.5 1734.19,-1415.5 1734.19,-1421.5 1728.19,-1427.5 1722.19,-1427.5 1722.19,-1427.5 1613.18,-1427.5 1613.18,-1427.5 1607.18,-1427.5 1601.18,-1421.5 1601.18,-1415.5 1601.18,-1415.5 1601.18,-1325.5 1601.18,-1325.5 1601.18,-1319.5 1607.18,-1313.5 1613.18,-1313.5"/>
<text text-anchor="middle" x="1667.69" y="-1412.3" font-family="Times,serif" font-size="14.00">ModelAcronym</text>
<polyline fill="none" stroke="black" points="1601.18,-1405.5 1734.19,-1405.5 "/>
<text text-anchor="start" x="1609.18" y="-1390.3" font-family="Times,serif" font-size="14.00">id :integer</text>
<text text-anchor="start" x="1609.18" y="-1376.3" font-family="Times,serif" font-size="14.00">brand_id :integer</text>
<text text-anchor="start" x="1609.18" y="-1362.3" font-family="Times,serif" font-size="14.00">initials :string</text>
<text text-anchor="start" x="1609.18" y="-1348.3" font-family="Times,serif" font-size="14.00">model :string</text>
<text text-anchor="start" x="1609.18" y="-1334.3" font-family="Times,serif" font-size="14.00">created_at :datetime</text>
<text text-anchor="start" x="1609.18" y="-1320.3" font-family="Times,serif" font-size="14.00">updated_at :datetime</text>
</g>
<!-- Brand&#45;&gt;ModelAcronym -->
<g id="edge1" class="edge"><title>Brand&#45;&gt;ModelAcronym</title>
<path fill="none" stroke="#453dd6" d="M1667.69,-1492.3C1667.69,-1474.93 1667.69,-1455.69 1667.69,-1437.76"/>
<ellipse fill="none" stroke="#453dd6" cx="1667.69" cy="-1496.39" rx="4" ry="4"/>
<polygon fill="#453dd6" stroke="#453dd6" points="1667.69,-1437.68 1672.19,-1427.68 1667.69,-1432.68 1667.69,-1427.68 1667.69,-1427.68 1667.69,-1427.68 1667.69,-1432.68 1663.19,-1427.68 1667.69,-1437.68 1667.69,-1437.68"/>
</g>
<!-- CarType -->
<g id="node3" class="node"><title>CarType</title>
<path fill="none" stroke="black" d="M1352.18,-1320.5C1352.18,-1320.5 1461.19,-1320.5 1461.19,-1320.5 1467.19,-1320.5 1473.19,-1326.5 1473.19,-1332.5 1473.19,-1332.5 1473.19,-1408.5 1473.19,-1408.5 1473.19,-1414.5 1467.19,-1420.5 1461.19,-1420.5 1461.19,-1420.5 1352.18,-1420.5 1352.18,-1420.5 1346.18,-1420.5 1340.18,-1414.5 1340.18,-1408.5 1340.18,-1408.5 1340.18,-1332.5 1340.18,-1332.5 1340.18,-1326.5 1346.18,-1320.5 1352.18,-1320.5"/>
<text text-anchor="middle" x="1406.69" y="-1405.3" font-family="Times,serif" font-size="14.00">CarType</text>
<polyline fill="none" stroke="black" points="1340.18,-1398.5 1473.19,-1398.5 "/>
<text text-anchor="start" x="1348.18" y="-1383.3" font-family="Times,serif" font-size="14.00">id :integer</text>
<text text-anchor="start" x="1348.18" y="-1369.3" font-family="Times,serif" font-size="14.00">name :string</text>
<text text-anchor="start" x="1348.18" y="-1355.3" font-family="Times,serif" font-size="14.00">doors :string</text>
<text text-anchor="start" x="1348.18" y="-1341.3" font-family="Times,serif" font-size="14.00">created_at :datetime</text>
<text text-anchor="start" x="1348.18" y="-1327.3" font-family="Times,serif" font-size="14.00">updated_at :datetime</text>
</g>
<!-- GenericCar -->
<g id="node6" class="node"><title>GenericCar</title>
<path fill="none" stroke="black" d="M1588.29,-1056.5C1588.29,-1056.5 1747.08,-1056.5 1747.08,-1056.5 1753.08,-1056.5 1759.08,-1062.5 1759.08,-1068.5 1759.08,-1068.5 1759.08,-1214.5 1759.08,-1214.5 1759.08,-1220.5 1753.08,-1226.5 1747.08,-1226.5 1747.08,-1226.5 1588.29,-1226.5 1588.29,-1226.5 1582.29,-1226.5 1576.29,-1220.5 1576.29,-1214.5 1576.29,-1214.5 1576.29,-1068.5 1576.29,-1068.5 1576.29,-1062.5 1582.29,-1056.5 1588.29,-1056.5"/>
<text text-anchor="middle" x="1667.69" y="-1211.3" font-family="Times,serif" font-size="14.00">GenericCar</text>
<polyline fill="none" stroke="black" points="1576.29,-1204.5 1759.08,-1204.5 "/>
<text text-anchor="start" x="1584.29" y="-1189.3" font-family="Times,serif" font-size="14.00">id :integer</text>
<text text-anchor="start" x="1584.29" y="-1175.3" font-family="Times,serif" font-size="14.00">first_generation_year :integer</text>
<text text-anchor="start" x="1584.29" y="-1161.3" font-family="Times,serif" font-size="14.00">last_generation_year :integer</text>
<text text-anchor="start" x="1584.29" y="-1147.3" font-family="Times,serif" font-size="14.00">number_of_generation :string</text>
<text text-anchor="start" x="1584.29" y="-1133.3" font-family="Times,serif" font-size="14.00">years :string</text>
<text text-anchor="start" x="1584.29" y="-1119.3" font-family="Times,serif" font-size="14.00">created_at :datetime</text>
<text text-anchor="start" x="1584.29" y="-1105.3" font-family="Times,serif" font-size="14.00">updated_at :datetime</text>
<text text-anchor="start" x="1584.29" y="-1091.3" font-family="Times,serif" font-size="14.00">gen_continues :boolean</text>
<text text-anchor="start" x="1584.29" y="-1077.3" font-family="Times,serif" font-size="14.00">model_acronym_id :integer</text>
<text text-anchor="start" x="1584.29" y="-1063.3" font-family="Times,serif" font-size="14.00">car_type_id :integer</text>
</g>
<!-- CarType&#45;&gt;GenericCar -->
<g id="edge2" class="edge"><title>CarType&#45;&gt;GenericCar</title>
<path fill="none" stroke="#a72739" d="M1469.61,-1314.77C1499.21,-1289.03 1535.21,-1257.72 1568.36,-1228.89"/>
<ellipse fill="none" stroke="#a72739" cx="1466.34" cy="-1317.62" rx="4.00002" ry="4.00002"/>
<polygon fill="#a72739" stroke="#a72739" points="1568.73,-1228.57 1579.23,-1225.4 1572.5,-1225.28 1576.28,-1222 1576.28,-1222 1576.28,-1222 1572.5,-1225.28 1573.32,-1218.61 1568.73,-1228.57 1568.73,-1228.57"/>
</g>
<!-- GenericFamily -->
<g id="node9" class="node"><title>GenericFamily</title>
<path fill="none" stroke="black" d="M1352.18,-785.5C1352.18,-785.5 1461.19,-785.5 1461.19,-785.5 1467.19,-785.5 1473.19,-791.5 1473.19,-797.5 1473.19,-797.5 1473.19,-929.5 1473.19,-929.5 1473.19,-935.5 1467.19,-941.5 1461.19,-941.5 1461.19,-941.5 1352.18,-941.5 1352.18,-941.5 1346.18,-941.5 1340.18,-935.5 1340.18,-929.5 1340.18,-929.5 1340.18,-797.5 1340.18,-797.5 1340.18,-791.5 1346.18,-785.5 1352.18,-785.5"/>
<text text-anchor="middle" x="1406.69" y="-926.3" font-family="Times,serif" font-size="14.00">GenericFamily</text>
<polyline fill="none" stroke="black" points="1340.18,-919.5 1473.19,-919.5 "/>
<text text-anchor="start" x="1348.18" y="-904.3" font-family="Times,serif" font-size="14.00">id :integer</text>
<text text-anchor="start" x="1348.18" y="-890.3" font-family="Times,serif" font-size="14.00">name :string</text>
<text text-anchor="start" x="1348.18" y="-876.3" font-family="Times,serif" font-size="14.00">description :text</text>
<text text-anchor="start" x="1348.18" y="-862.3" font-family="Times,serif" font-size="14.00">created_at :datetime</text>
<text text-anchor="start" x="1348.18" y="-848.3" font-family="Times,serif" font-size="14.00">updated_at :datetime</text>
<text text-anchor="start" x="1348.18" y="-834.3" font-family="Times,serif" font-size="14.00">code :string</text>
<text text-anchor="start" x="1348.18" y="-820.3" font-family="Times,serif" font-size="14.00">mold :boolean</text>
<text text-anchor="start" x="1348.18" y="-806.3" font-family="Times,serif" font-size="14.00">father_id :integer</text>
<text text-anchor="start" x="1348.18" y="-792.3" font-family="Times,serif" font-size="14.00">active :boolean</text>
</g>
<!-- CarType&#45;&gt;GenericFamily -->
<g id="edge4" class="edge"><title>CarType&#45;&gt;GenericFamily</title>
<path fill="none" stroke="#d6d8af" d="M1406.69,-1309.96C1406.69,-1221.38 1406.69,-1054.38 1406.69,-951.921"/>
<polygon fill="#d6d8af" stroke="#d6d8af" points="1406.69,-1310.16 1402.19,-1320.16 1406.69,-1315.16 1406.69,-1320.16 1406.69,-1320.16 1406.69,-1320.16 1406.69,-1315.16 1411.19,-1320.16 1406.69,-1310.16 1406.69,-1310.16"/>
<polygon fill="#d6d8af" stroke="#d6d8af" points="1406.69,-951.905 1411.19,-941.905 1406.69,-946.905 1406.69,-941.905 1406.69,-941.905 1406.69,-941.905 1406.69,-946.905 1402.19,-941.905 1406.69,-951.905 1406.69,-951.905"/>
</g>
<!-- TypeLikelihood -->
<g id="node33" class="node"><title>TypeLikelihood</title>
<path fill="none" stroke="black" d="M1230.24,-507.5C1230.24,-507.5 1371.13,-507.5 1371.13,-507.5 1377.13,-507.5 1383.13,-513.5 1383.13,-519.5 1383.13,-519.5 1383.13,-623.5 1383.13,-623.5 1383.13,-629.5 1377.13,-635.5 1371.13,-635.5 1371.13,-635.5 1230.24,-635.5 1230.24,-635.5 1224.24,-635.5 1218.24,-629.5 1218.24,-623.5 1218.24,-623.5 1218.24,-519.5 1218.24,-519.5 1218.24,-513.5 1224.24,-507.5 1230.24,-507.5"/>
<text text-anchor="middle" x="1300.69" y="-620.3" font-family="Times,serif" font-size="14.00">TypeLikelihood</text>
<polyline fill="none" stroke="black" points="1218.24,-613.5 1383.13,-613.5 "/>
<text text-anchor="start" x="1226.24" y="-598.3" font-family="Times,serif" font-size="14.00">id :integer</text>
<text text-anchor="start" x="1226.24" y="-584.3" font-family="Times,serif" font-size="14.00">generic_family_id :integer</text>
<text text-anchor="start" x="1226.24" y="-570.3" font-family="Times,serif" font-size="14.00">car_type_id :integer</text>
<text text-anchor="start" x="1226.24" y="-556.3" font-family="Times,serif" font-size="14.00">created_at :datetime</text>
<text text-anchor="start" x="1226.24" y="-542.3" font-family="Times,serif" font-size="14.00">updated_at :datetime</text>
<text text-anchor="start" x="1226.24" y="-528.3" font-family="Times,serif" font-size="14.00">active :boolean</text>
<text text-anchor="start" x="1226.24" y="-514.3" font-family="Times,serif" font-size="14.00">years :string</text>
</g>
<!-- CarType&#45;&gt;TypeLikelihood -->
<g id="edge3" class="edge"><title>CarType&#45;&gt;TypeLikelihood</title>
<path fill="none" stroke="#f6b4d7" d="M1393.4,-1312.17C1376.25,-1236.03 1346.72,-1097.15 1330.69,-977 1315.33,-861.868 1307.31,-727.173 1303.54,-645.921"/>
<ellipse fill="none" stroke="#f6b4d7" cx="1394.34" cy="-1316.34" rx="4.00001" ry="4.00001"/>
<polygon fill="#f6b4d7" stroke="#f6b4d7" points="1303.54,-645.784 1307.58,-635.591 1303.31,-640.789 1303.08,-635.795 1303.08,-635.795 1303.08,-635.795 1303.31,-640.789 1298.59,-635.999 1303.54,-645.784 1303.54,-645.784"/>
</g>
<!-- FamilyLikelihood -->
<g id="node4" class="node"><title>FamilyLikelihood</title>
<path fill="none" stroke="black" d="M1654.24,-528.5C1654.24,-528.5 1795.13,-528.5 1795.13,-528.5 1801.13,-528.5 1807.13,-534.5 1807.13,-540.5 1807.13,-540.5 1807.13,-602.5 1807.13,-602.5 1807.13,-608.5 1801.13,-614.5 1795.13,-614.5 1795.13,-614.5 1654.24,-614.5 1654.24,-614.5 1648.24,-614.5 1642.24,-608.5 1642.24,-602.5 1642.24,-602.5 1642.24,-540.5 1642.24,-540.5 1642.24,-534.5 1648.24,-528.5 1654.24,-528.5"/>
<text text-anchor="middle" x="1724.69" y="-599.3" font-family="Times,serif" font-size="14.00">FamilyLikelihood</text>
<polyline fill="none" stroke="black" points="1642.24,-592.5 1807.13,-592.5 "/>
<text text-anchor="start" x="1650.24" y="-577.3" font-family="Times,serif" font-size="14.00">id :integer</text>
<text text-anchor="start" x="1650.24" y="-563.3" font-family="Times,serif" font-size="14.00">generic_car_id :integer</text>
<text text-anchor="start" x="1650.24" y="-549.3" font-family="Times,serif" font-size="14.00">generic_family_id :integer</text>
<text text-anchor="start" x="1650.24" y="-535.3" font-family="Times,serif" font-size="14.00">years :string</text>
</g>
<!-- Generation -->
<g id="node5" class="node"><title>Generation</title>
<path fill="none" stroke="black" d="M1898.18,-1327.5C1898.18,-1327.5 2007.19,-1327.5 2007.19,-1327.5 2013.19,-1327.5 2019.19,-1333.5 2019.19,-1339.5 2019.19,-1339.5 2019.19,-1401.5 2019.19,-1401.5 2019.19,-1407.5 2013.19,-1413.5 2007.19,-1413.5 2007.19,-1413.5 1898.18,-1413.5 1898.18,-1413.5 1892.18,-1413.5 1886.18,-1407.5 1886.18,-1401.5 1886.18,-1401.5 1886.18,-1339.5 1886.18,-1339.5 1886.18,-1333.5 1892.18,-1327.5 1898.18,-1327.5"/>
<text text-anchor="middle" x="1952.69" y="-1398.3" font-family="Times,serif" font-size="14.00">Generation</text>
<polyline fill="none" stroke="black" points="1886.18,-1391.5 2019.19,-1391.5 "/>
<text text-anchor="start" x="1894.18" y="-1376.3" font-family="Times,serif" font-size="14.00">id :integer</text>
<text text-anchor="start" x="1894.18" y="-1362.3" font-family="Times,serif" font-size="14.00">year :integer</text>
<text text-anchor="start" x="1894.18" y="-1348.3" font-family="Times,serif" font-size="14.00">created_at :datetime</text>
<text text-anchor="start" x="1894.18" y="-1334.3" font-family="Times,serif" font-size="14.00">updated_at :datetime</text>
</g>
<!-- Generation&#45;&gt;GenericCar -->
<g id="edge6" class="edge"><title>Generation&#45;&gt;GenericCar</title>
<path fill="none" stroke="#cc8856" d="M1891.71,-1320.93C1855.5,-1292.09 1808.7,-1254.81 1767.25,-1221.8"/>
<polygon fill="#cc8856" stroke="#cc8856" points="1891.93,-1321.1 1896.95,-1330.85 1895.84,-1324.22 1899.75,-1327.34 1899.75,-1327.34 1899.75,-1327.34 1895.84,-1324.22 1902.55,-1323.82 1891.93,-1321.1 1891.93,-1321.1"/>
<polygon fill="#cc8856" stroke="#cc8856" points="1767.12,-1221.7 1762.1,-1211.95 1763.21,-1218.58 1759.3,-1215.47 1759.3,-1215.47 1759.3,-1215.47 1763.21,-1218.58 1756.5,-1218.99 1767.12,-1221.7 1767.12,-1221.7"/>
</g>
<!-- GenericCarGeneration -->
<g id="node7" class="node"><title>GenericCarGeneration</title>
<path fill="none" stroke="black" d="M2038.97,-813.5C2038.97,-813.5 2160.4,-813.5 2160.4,-813.5 2166.4,-813.5 2172.4,-819.5 2172.4,-825.5 2172.4,-825.5 2172.4,-901.5 2172.4,-901.5 2172.4,-907.5 2166.4,-913.5 2160.4,-913.5 2160.4,-913.5 2038.97,-913.5 2038.97,-913.5 2032.97,-913.5 2026.97,-907.5 2026.97,-901.5 2026.97,-901.5 2026.97,-825.5 2026.97,-825.5 2026.97,-819.5 2032.97,-813.5 2038.97,-813.5"/>
<text text-anchor="middle" x="2099.69" y="-898.3" font-family="Times,serif" font-size="14.00">GenericCarGeneration</text>
<polyline fill="none" stroke="black" points="2026.97,-891.5 2172.4,-891.5 "/>
<text text-anchor="start" x="2034.97" y="-876.3" font-family="Times,serif" font-size="14.00">id :integer</text>
<text text-anchor="start" x="2034.97" y="-862.3" font-family="Times,serif" font-size="14.00">generation_id :integer</text>
<text text-anchor="start" x="2034.97" y="-848.3" font-family="Times,serif" font-size="14.00">created_at :datetime</text>
<text text-anchor="start" x="2034.97" y="-834.3" font-family="Times,serif" font-size="14.00">updated_at :datetime</text>
<text text-anchor="start" x="2034.97" y="-820.3" font-family="Times,serif" font-size="14.00">generic_car_id :integer</text>
</g>
<!-- Generation&#45;&gt;GenericCarGeneration -->
<g id="edge5" class="edge"><title>Generation&#45;&gt;GenericCarGeneration</title>
<path fill="none" stroke="#d8eb3c" d="M1967.27,-1319.41C1994.61,-1225.47 2053.45,-1023.34 2082.6,-923.196"/>
<ellipse fill="none" stroke="#d8eb3c" cx="1966.09" cy="-1323.47" rx="4.00001" ry="4.00001"/>
<polygon fill="#d8eb3c" stroke="#d8eb3c" points="2082.62,-923.14 2089.73,-914.796 2084.02,-918.339 2085.41,-913.539 2085.41,-913.539 2085.41,-913.539 2084.02,-918.339 2081.09,-912.281 2082.62,-923.14 2082.62,-923.14"/>
</g>
<!-- GenericCar&#45;&gt;FamilyLikelihood -->
<g id="edge11" class="edge"><title>GenericCar&#45;&gt;FamilyLikelihood</title>
<path fill="none" stroke="#9ad2cf" d="M1732.64,-1049.17C1745.43,-1026.59 1756.96,-1001.76 1763.69,-977 1797.17,-853.858 1763.87,-702.793 1741.44,-624.74"/>
<ellipse fill="none" stroke="#9ad2cf" cx="1730.64" cy="-1052.63" rx="4.00002" ry="4.00002"/>
<polygon fill="#9ad2cf" stroke="#9ad2cf" points="1741.3,-624.274 1742.81,-613.412 1739.9,-619.476 1738.49,-614.677 1738.49,-614.677 1738.49,-614.677 1739.9,-619.476 1734.17,-615.942 1741.3,-624.274 1741.3,-624.274"/>
</g>
<!-- GenericCar&#45;&gt;GenericCarGeneration -->
<g id="edge9" class="edge"><title>GenericCar&#45;&gt;GenericCarGeneration</title>
<path fill="none" stroke="#81dd4d" d="M1767.39,-1115.75C1841.17,-1093.64 1940.9,-1055.43 2012.69,-996 2036.74,-976.091 2056.63,-947.821 2071.29,-922.591"/>
<ellipse fill="none" stroke="#81dd4d" cx="1763.27" cy="-1116.96" rx="4.00001" ry="4.00001"/>
<polygon fill="#81dd4d" stroke="#81dd4d" points="2071.33,-922.516 2080.17,-916.028 2073.79,-918.164 2076.25,-913.813 2076.25,-913.813 2076.25,-913.813 2073.79,-918.164 2072.34,-911.597 2071.33,-922.516 2071.33,-922.516"/>
</g>
<!-- GenericCarImage -->
<g id="node8" class="node"><title>GenericCarImage</title>
<path fill="none" stroke="black" d="M1592.58,-792.5C1592.58,-792.5 1742.8,-792.5 1742.8,-792.5 1748.8,-792.5 1754.8,-798.5 1754.8,-804.5 1754.8,-804.5 1754.8,-922.5 1754.8,-922.5 1754.8,-928.5 1748.8,-934.5 1742.8,-934.5 1742.8,-934.5 1592.58,-934.5 1592.58,-934.5 1586.58,-934.5 1580.58,-928.5 1580.58,-922.5 1580.58,-922.5 1580.58,-804.5 1580.58,-804.5 1580.58,-798.5 1586.58,-792.5 1592.58,-792.5"/>
<text text-anchor="middle" x="1667.69" y="-919.3" font-family="Times,serif" font-size="14.00">GenericCarImage</text>
<polyline fill="none" stroke="black" points="1580.58,-912.5 1754.8,-912.5 "/>
<text text-anchor="start" x="1588.58" y="-897.3" font-family="Times,serif" font-size="14.00">id :integer</text>
<text text-anchor="start" x="1588.58" y="-883.3" font-family="Times,serif" font-size="14.00">generic_car_id :integer</text>
<text text-anchor="start" x="1588.58" y="-869.3" font-family="Times,serif" font-size="14.00">created_at :datetime</text>
<text text-anchor="start" x="1588.58" y="-855.3" font-family="Times,serif" font-size="14.00">updated_at :datetime</text>
<text text-anchor="start" x="1588.58" y="-841.3" font-family="Times,serif" font-size="14.00">image_file_name :string</text>
<text text-anchor="start" x="1588.58" y="-827.3" font-family="Times,serif" font-size="14.00">image_content_type :string</text>
<text text-anchor="start" x="1588.58" y="-813.3" font-family="Times,serif" font-size="14.00">image_file_size :integer</text>
<text text-anchor="start" x="1588.58" y="-799.3" font-family="Times,serif" font-size="14.00">image_updated_at :datetime</text>
</g>
<!-- GenericCar&#45;&gt;GenericCarImage -->
<g id="edge10" class="edge"><title>GenericCar&#45;&gt;GenericCarImage</title>
<path fill="none" stroke="#4f0bf1" d="M1667.69,-1047.9C1667.69,-1014.59 1667.69,-977.308 1667.69,-945.1"/>
<ellipse fill="none" stroke="#4f0bf1" cx="1667.69" cy="-1052.19" rx="4" ry="4"/>
<polygon fill="#4f0bf1" stroke="#4f0bf1" points="1667.69,-944.833 1672.19,-934.833 1667.69,-939.833 1667.69,-934.833 1667.69,-934.833 1667.69,-934.833 1667.69,-939.833 1663.19,-934.833 1667.69,-944.833 1667.69,-944.833"/>
</g>
<!-- GenericCar&#45;&gt;GenericFamily -->
<g id="edge12" class="edge"><title>GenericCar&#45;&gt;GenericFamily</title>
<path fill="none" stroke="#f734bb" d="M1581,-1048.83C1548.35,-1014.3 1511.55,-975.391 1480.21,-942.249"/>
<polygon fill="#f734bb" stroke="#f734bb" points="1581.09,-1048.93 1584.69,-1059.28 1584.53,-1052.56 1587.96,-1056.19 1587.96,-1056.19 1587.96,-1056.19 1584.53,-1052.56 1591.23,-1053.1 1581.09,-1048.93 1581.09,-1048.93"/>
<polygon fill="#f734bb" stroke="#f734bb" points="1480.07,-942.098 1476.47,-931.741 1476.63,-938.466 1473.2,-934.833 1473.2,-934.833 1473.2,-934.833 1476.63,-938.466 1469.93,-937.925 1480.07,-942.098 1480.07,-942.098"/>
</g>
<!-- GenericFittable -->
<g id="node10" class="node"><title>GenericFittable</title>
<path fill="none" stroke="black" d="M1811.75,-208.5C1811.75,-208.5 1945.63,-208.5 1945.63,-208.5 1951.63,-208.5 1957.63,-214.5 1957.63,-220.5 1957.63,-220.5 1957.63,-296.5 1957.63,-296.5 1957.63,-302.5 1951.63,-308.5 1945.63,-308.5 1945.63,-308.5 1811.75,-308.5 1811.75,-308.5 1805.75,-308.5 1799.75,-302.5 1799.75,-296.5 1799.75,-296.5 1799.75,-220.5 1799.75,-220.5 1799.75,-214.5 1805.75,-208.5 1811.75,-208.5"/>
<text text-anchor="middle" x="1878.69" y="-293.3" font-family="Times,serif" font-size="14.00">GenericFittable</text>
<polyline fill="none" stroke="black" points="1799.75,-286.5 1957.63,-286.5 "/>
<text text-anchor="start" x="1807.75" y="-271.3" font-family="Times,serif" font-size="14.00">id :integer</text>
<text text-anchor="start" x="1807.75" y="-257.3" font-family="Times,serif" font-size="14.00">generic_car_id :integer</text>
<text text-anchor="start" x="1807.75" y="-243.3" font-family="Times,serif" font-size="14.00">generic_spare_id :integer</text>
<text text-anchor="start" x="1807.75" y="-229.3" font-family="Times,serif" font-size="14.00">created_at :datetime</text>
<text text-anchor="start" x="1807.75" y="-215.3" font-family="Times,serif" font-size="14.00">updated_at :datetime</text>
</g>
<!-- GenericCar&#45;&gt;GenericFittable -->
<g id="edge8" class="edge"><title>GenericCar&#45;&gt;GenericFittable</title>
<path fill="none" stroke="#339684" d="M1767.18,-1113.85C1835.44,-1089.94 1921.4,-1047.49 1965.69,-977 2030.38,-874.041 2011.82,-547.274 1979.69,-430 1968.55,-389.336 1944.93,-348.533 1923.33,-317.042"/>
<ellipse fill="none" stroke="#339684" cx="1763.15" cy="-1115.23" rx="4.00001" ry="4.00001"/>
<polygon fill="#339684" stroke="#339684" points="1923.32,-317.03 1921.29,-306.254 1920.46,-312.929 1917.6,-308.829 1917.6,-308.829 1917.6,-308.829 1920.46,-312.929 1913.91,-311.405 1923.32,-317.03 1923.32,-317.03"/>
</g>
<!-- StockCar -->
<g id="node24" class="node"><title>StockCar</title>
<path fill="none" stroke="black" d="M1079.07,-750.5C1079.07,-750.5 1222.31,-750.5 1222.31,-750.5 1228.31,-750.5 1234.31,-756.5 1234.31,-762.5 1234.31,-762.5 1234.31,-964.5 1234.31,-964.5 1234.31,-970.5 1228.31,-976.5 1222.31,-976.5 1222.31,-976.5 1079.07,-976.5 1079.07,-976.5 1073.07,-976.5 1067.07,-970.5 1067.07,-964.5 1067.07,-964.5 1067.07,-762.5 1067.07,-762.5 1067.07,-756.5 1073.07,-750.5 1079.07,-750.5"/>
<text text-anchor="middle" x="1150.69" y="-961.3" font-family="Times,serif" font-size="14.00">StockCar</text>
<polyline fill="none" stroke="black" points="1067.07,-954.5 1234.31,-954.5 "/>
<text text-anchor="start" x="1075.07" y="-939.3" font-family="Times,serif" font-size="14.00">id :integer</text>
<text text-anchor="start" x="1075.07" y="-925.3" font-family="Times,serif" font-size="14.00">prevaluation_id :integer</text>
<text text-anchor="start" x="1075.07" y="-911.3" font-family="Times,serif" font-size="14.00">generic_car_id :integer</text>
<text text-anchor="start" x="1075.07" y="-897.3" font-family="Times,serif" font-size="14.00">warehouse_id :integer</text>
<text text-anchor="start" x="1075.07" y="-883.3" font-family="Times,serif" font-size="14.00">color :string</text>
<text text-anchor="start" x="1075.07" y="-869.3" font-family="Times,serif" font-size="14.00">door_number :integer</text>
<text text-anchor="start" x="1075.07" y="-855.3" font-family="Times,serif" font-size="14.00">serie :string</text>
<text text-anchor="start" x="1075.07" y="-841.3" font-family="Times,serif" font-size="14.00">motor :string</text>
<text text-anchor="start" x="1075.07" y="-827.3" font-family="Times,serif" font-size="14.00">license_plates :string</text>
<text text-anchor="start" x="1075.07" y="-813.3" font-family="Times,serif" font-size="14.00">inventory_description :text</text>
<text text-anchor="start" x="1075.07" y="-799.3" font-family="Times,serif" font-size="14.00">special_equipment :text</text>
<text text-anchor="start" x="1075.07" y="-785.3" font-family="Times,serif" font-size="14.00">economic_number :string</text>
<text text-anchor="start" x="1075.07" y="-771.3" font-family="Times,serif" font-size="14.00">created_at :datetime</text>
<text text-anchor="start" x="1075.07" y="-757.3" font-family="Times,serif" font-size="14.00">updated_at :datetime</text>
</g>
<!-- GenericCar&#45;&gt;StockCar -->
<g id="edge7" class="edge"><title>GenericCar&#45;&gt;StockCar</title>
<path fill="none" stroke="#faaabf" d="M1568.91,-1095.97C1500.98,-1064.53 1409.2,-1020.42 1330.69,-977 1301.75,-961 1270.99,-942.396 1243.24,-924.98"/>
<ellipse fill="none" stroke="#faaabf" cx="1572.61" cy="-1097.68" rx="4.00002" ry="4.00002"/>
<polygon fill="#faaabf" stroke="#faaabf" points="1243.19,-924.948 1237.13,-915.81 1238.96,-922.283 1234.73,-919.618 1234.73,-919.618 1234.73,-919.618 1238.96,-922.283 1232.33,-923.425 1243.19,-924.948 1243.19,-924.948"/>
</g>
<!-- GenericFamily&#45;&gt;FamilyLikelihood -->
<g id="edge18" class="edge"><title>GenericFamily&#45;&gt;FamilyLikelihood</title>
<path fill="none" stroke="#818d04" d="M1480.31,-811.076C1508.65,-791.605 1541.46,-769.454 1571.69,-750 1598.35,-732.84 1609.88,-735.031 1632.69,-713 1659.37,-687.226 1682.25,-652.367 1698.52,-623.82"/>
<ellipse fill="none" stroke="#818d04" cx="1476.88" cy="-813.437" rx="4.00002" ry="4.00002"/>
<polygon fill="#818d04" stroke="#818d04" points="1698.69,-623.521 1707.5,-616.989 1701.13,-619.157 1703.57,-614.792 1703.57,-614.792 1703.57,-614.792 1701.13,-619.157 1699.64,-612.596 1698.69,-623.521 1698.69,-623.521"/>
</g>
<!-- GenericFamily&#45;&gt;GenericFamily -->
<g id="edge13" class="edge"><title>GenericFamily&#45;&gt;GenericFamily</title>
<path fill="none" stroke="#ee55ae" d="M1480.97,-882.732C1487.27,-878.62 1491.19,-872.209 1491.19,-863.5 1491.19,-855.532 1487.91,-849.488 1482.53,-845.368"/>
<ellipse fill="none" stroke="#ee55ae" cx="1476.92" cy="-884.611" rx="4.00002" ry="4.00002"/>
<polygon fill="#ee55ae" stroke="#ee55ae" points="1482.22,-845.21 1475.31,-836.69 1477.75,-842.959 1473.29,-840.708 1473.29,-840.708 1473.29,-840.708 1477.75,-842.959 1471.26,-844.726 1482.22,-845.21 1482.22,-845.21"/>
<text text-anchor="middle" x="1507.91" y="-859.3" font-family="Times,serif" font-size="14.00">childs</text>
</g>
<!-- GenericSpare -->
<g id="node11" class="node"><title>GenericSpare</title>
<path fill="none" stroke="black" d="M1450.4,-486.5C1450.4,-486.5 1560.98,-486.5 1560.98,-486.5 1566.98,-486.5 1572.98,-492.5 1572.98,-498.5 1572.98,-498.5 1572.98,-644.5 1572.98,-644.5 1572.98,-650.5 1566.98,-656.5 1560.98,-656.5 1560.98,-656.5 1450.4,-656.5 1450.4,-656.5 1444.4,-656.5 1438.4,-650.5 1438.4,-644.5 1438.4,-644.5 1438.4,-498.5 1438.4,-498.5 1438.4,-492.5 1444.4,-486.5 1450.4,-486.5"/>
<text text-anchor="middle" x="1505.69" y="-641.3" font-family="Times,serif" font-size="14.00">GenericSpare</text>
<polyline fill="none" stroke="black" points="1438.4,-634.5 1572.98,-634.5 "/>
<text text-anchor="start" x="1446.4" y="-619.3" font-family="Times,serif" font-size="14.00">id :integer</text>
<text text-anchor="start" x="1446.4" y="-605.3" font-family="Times,serif" font-size="14.00">brand :string</text>
<text text-anchor="start" x="1446.4" y="-591.3" font-family="Times,serif" font-size="14.00">type_of_spare :string</text>
<text text-anchor="start" x="1446.4" y="-577.3" font-family="Times,serif" font-size="14.00">name :string</text>
<text text-anchor="start" x="1446.4" y="-563.3" font-family="Times,serif" font-size="14.00">region :string</text>
<text text-anchor="start" x="1446.4" y="-549.3" font-family="Times,serif" font-size="14.00">description :text</text>
<text text-anchor="start" x="1446.4" y="-535.3" font-family="Times,serif" font-size="14.00">code :string</text>
<text text-anchor="start" x="1446.4" y="-521.3" font-family="Times,serif" font-size="14.00">created_at :datetime</text>
<text text-anchor="start" x="1446.4" y="-507.3" font-family="Times,serif" font-size="14.00">updated_at :datetime</text>
<text text-anchor="start" x="1446.4" y="-493.3" font-family="Times,serif" font-size="14.00">father_id :integer</text>
</g>
<!-- GenericFamily&#45;&gt;GenericSpare -->
<g id="edge15" class="edge"><title>GenericFamily&#45;&gt;GenericSpare</title>
<path fill="none" stroke="#f7c88f" d="M1436.47,-775.255C1448.19,-740.927 1461.67,-701.436 1473.61,-666.479"/>
<polygon fill="#f7c88f" stroke="#f7c88f" points="1436.32,-775.703 1428.83,-783.712 1434.7,-780.434 1433.09,-785.166 1433.09,-785.166 1433.09,-785.166 1434.7,-780.434 1437.35,-786.62 1436.32,-775.703 1436.32,-775.703"/>
<polygon fill="#f7c88f" stroke="#f7c88f" points="1473.7,-666.212 1481.19,-658.202 1475.31,-661.48 1476.93,-656.748 1476.93,-656.748 1476.93,-656.748 1475.31,-661.48 1472.67,-655.294 1473.7,-666.212 1473.7,-666.212"/>
</g>
<!-- SpareLikelihood -->
<g id="node23" class="node"><title>SpareLikelihood</title>
<path fill="none" stroke="black" d="M1340.24,-208.5C1340.24,-208.5 1481.13,-208.5 1481.13,-208.5 1487.13,-208.5 1493.13,-214.5 1493.13,-220.5 1493.13,-220.5 1493.13,-296.5 1493.13,-296.5 1493.13,-302.5 1487.13,-308.5 1481.13,-308.5 1481.13,-308.5 1340.24,-308.5 1340.24,-308.5 1334.24,-308.5 1328.24,-302.5 1328.24,-296.5 1328.24,-296.5 1328.24,-220.5 1328.24,-220.5 1328.24,-214.5 1334.24,-208.5 1340.24,-208.5"/>
<text text-anchor="middle" x="1410.69" y="-293.3" font-family="Times,serif" font-size="14.00">SpareLikelihood</text>
<polyline fill="none" stroke="black" points="1328.24,-286.5 1493.13,-286.5 "/>
<text text-anchor="start" x="1336.24" y="-271.3" font-family="Times,serif" font-size="14.00">id :integer</text>
<text text-anchor="start" x="1336.24" y="-257.3" font-family="Times,serif" font-size="14.00">generic_spare_id :integer</text>
<text text-anchor="start" x="1336.24" y="-243.3" font-family="Times,serif" font-size="14.00">generic_family_id :integer</text>
<text text-anchor="start" x="1336.24" y="-229.3" font-family="Times,serif" font-size="14.00">created_at :datetime</text>
<text text-anchor="start" x="1336.24" y="-215.3" font-family="Times,serif" font-size="14.00">updated_at :datetime</text>
</g>
<!-- GenericFamily&#45;&gt;SpareLikelihood -->
<g id="edge14" class="edge"><title>GenericFamily&#45;&gt;SpareLikelihood</title>
<path fill="none" stroke="#318aa3" d="M1407.26,-776.936C1408.08,-652.874 1409.58,-426.182 1410.29,-318.855"/>
<ellipse fill="none" stroke="#318aa3" cx="1407.23" cy="-781.21" rx="4" ry="4"/>
<polygon fill="#318aa3" stroke="#318aa3" points="1410.29,-318.848 1414.86,-308.878 1410.33,-313.848 1410.36,-308.848 1410.36,-308.848 1410.36,-308.848 1410.33,-313.848 1405.86,-308.818 1410.29,-318.848 1410.29,-318.848"/>
</g>
<!-- StockFamily -->
<g id="node26" class="node"><title>StockFamily</title>
<path fill="none" stroke="black" d="M315.617,-430.5C315.617,-430.5 469.759,-430.5 469.759,-430.5 475.759,-430.5 481.759,-436.5 481.759,-442.5 481.759,-442.5 481.759,-700.5 481.759,-700.5 481.759,-706.5 475.759,-712.5 469.759,-712.5 469.759,-712.5 315.617,-712.5 315.617,-712.5 309.617,-712.5 303.617,-706.5 303.617,-700.5 303.617,-700.5 303.617,-442.5 303.617,-442.5 303.617,-436.5 309.617,-430.5 315.617,-430.5"/>
<text text-anchor="middle" x="392.688" y="-697.3" font-family="Times,serif" font-size="14.00">StockFamily</text>
<polyline fill="none" stroke="black" points="303.617,-690.5 481.759,-690.5 "/>
<text text-anchor="start" x="311.617" y="-675.3" font-family="Times,serif" font-size="14.00">id :integer</text>
<text text-anchor="start" x="311.617" y="-661.3" font-family="Times,serif" font-size="14.00">generic_family_id :integer</text>
<text text-anchor="start" x="311.617" y="-647.3" font-family="Times,serif" font-size="14.00">created_at :datetime</text>
<text text-anchor="start" x="311.617" y="-633.3" font-family="Times,serif" font-size="14.00">updated_at :datetime</text>
<text text-anchor="start" x="311.617" y="-619.3" font-family="Times,serif" font-size="14.00">price_id :integer</text>
<text text-anchor="start" x="311.617" y="-605.3" font-family="Times,serif" font-size="14.00">supplier_id :integer</text>
<text text-anchor="start" x="311.617" y="-591.3" font-family="Times,serif" font-size="14.00">order_id :integer</text>
<text text-anchor="start" x="311.617" y="-577.3" font-family="Times,serif" font-size="14.00">code :string</text>
<text text-anchor="start" x="311.617" y="-563.3" font-family="Times,serif" font-size="14.00">status :string</text>
<text text-anchor="start" x="311.617" y="-549.3" font-family="Times,serif" font-size="14.00">supplier_code :integer</text>
<text text-anchor="start" x="311.617" y="-535.3" font-family="Times,serif" font-size="14.00">quantity :integer</text>
<text text-anchor="start" x="311.617" y="-521.3" font-family="Times,serif" font-size="14.00">car_order_id :integer</text>
<text text-anchor="start" x="311.617" y="-507.3" font-family="Times,serif" font-size="14.00">subsection_id_integer :string</text>
<text text-anchor="start" x="311.617" y="-493.3" font-family="Times,serif" font-size="14.00">subsection_id :integer</text>
<text text-anchor="start" x="311.617" y="-479.3" font-family="Times,serif" font-size="14.00">photo_file_name :string</text>
<text text-anchor="start" x="311.617" y="-465.3" font-family="Times,serif" font-size="14.00">photo_content_type :string</text>
<text text-anchor="start" x="311.617" y="-451.3" font-family="Times,serif" font-size="14.00">photo_file_size :integer</text>
<text text-anchor="start" x="311.617" y="-437.3" font-family="Times,serif" font-size="14.00">photo_updated_at :datetime</text>
</g>
<!-- GenericFamily&#45;&gt;StockFamily -->
<g id="edge16" class="edge"><title>GenericFamily&#45;&gt;StockFamily</title>
<path fill="none" stroke="#b7a220" d="M1333.42,-802.486C1306.58,-783.134 1275.07,-763.277 1243.69,-750 1166.06,-717.159 1140.26,-729.934 1057.69,-713 856.592,-671.756 621.71,-621.684 491.829,-593.829"/>
<ellipse fill="none" stroke="#b7a220" cx="1336.91" cy="-805.033" rx="4.00002" ry="4.00002"/>
<polygon fill="#b7a220" stroke="#b7a220" points="491.672,-593.796 482.838,-587.298 486.783,-592.747 481.894,-591.698 481.894,-591.698 481.894,-591.698 486.783,-592.747 480.95,-596.098 491.672,-593.796 491.672,-593.796"/>
</g>
<!-- GenericFamily&#45;&gt;TypeLikelihood -->
<g id="edge17" class="edge"><title>GenericFamily&#45;&gt;TypeLikelihood</title>
<path fill="none" stroke="#8955d9" d="M1375.59,-777.41C1360.27,-735.505 1341.99,-685.501 1327.33,-645.38"/>
<ellipse fill="none" stroke="#8955d9" cx="1377.05" cy="-781.409" rx="4.00001" ry="4.00001"/>
<polygon fill="#8955d9" stroke="#8955d9" points="1327.31,-645.323 1328.1,-634.385 1325.59,-640.626 1323.87,-635.93 1323.87,-635.93 1323.87,-635.93 1325.59,-640.626 1319.65,-637.475 1327.31,-645.323 1327.31,-645.323"/>
</g>
<!-- GenericSpare&#45;&gt;GenericCar -->
<g id="edge21" class="edge"><title>GenericSpare&#45;&gt;GenericCar</title>
<path fill="none" stroke="#ad72a0" d="M1520.64,-666.847C1539.29,-784.069 1569.05,-969.694 1571.69,-977 1580.32,-1000.92 1592.48,-1025.29 1605.26,-1047.66"/>
<polygon fill="#ad72a0" stroke="#ad72a0" points="1520.61,-666.654 1523.49,-656.071 1519.83,-661.716 1519.04,-656.778 1519.04,-656.778 1519.04,-656.778 1519.83,-661.716 1514.6,-657.485 1520.61,-666.654 1520.61,-666.654"/>
<polygon fill="#ad72a0" stroke="#ad72a0" points="1605.35,-1047.81 1606.48,-1058.72 1607.86,-1052.13 1610.37,-1056.46 1610.37,-1056.46 1610.37,-1056.46 1607.86,-1052.13 1614.26,-1054.2 1605.35,-1047.81 1605.35,-1047.81"/>
</g>
<!-- GenericSpare&#45;&gt;GenericFittable -->
<g id="edge20" class="edge"><title>GenericSpare&#45;&gt;GenericFittable</title>
<path fill="none" stroke="#76c67a" d="M1578.94,-483.929C1596.16,-465.368 1614.97,-446.419 1633.69,-430 1682.66,-387.05 1742.61,-345.17 1790.95,-313.666"/>
<ellipse fill="none" stroke="#76c67a" cx="1575.88" cy="-487.26" rx="4.00002" ry="4.00002"/>
<polygon fill="#76c67a" stroke="#76c67a" points="1791.14,-313.545 1801.98,-311.881 1795.33,-310.825 1799.53,-308.105 1799.53,-308.105 1799.53,-308.105 1795.33,-310.825 1797.08,-304.329 1791.14,-313.545 1791.14,-313.545"/>
</g>
<!-- GenericSpare&#45;&gt;GenericSpare -->
<g id="edge19" class="edge"><title>GenericSpare&#45;&gt;GenericSpare</title>
<path fill="none" stroke="#32ed96" d="M1580.47,-594.963C1586.94,-589.985 1590.98,-582.164 1590.98,-571.5 1590.98,-561.725 1587.58,-554.338 1582.04,-549.341"/>
<ellipse fill="none" stroke="#32ed96" cx="1576.75" cy="-597.043" rx="4.00002" ry="4.00002"/>
<polygon fill="#32ed96" stroke="#32ed96" points="1581.8,-549.199 1575.59,-540.161 1577.53,-546.603 1573.26,-544.007 1573.26,-544.007 1573.26,-544.007 1577.53,-546.603 1570.92,-547.853 1581.8,-549.199 1581.8,-549.199"/>
<text text-anchor="middle" x="1607.7" y="-567.3" font-family="Times,serif" font-size="14.00">childs</text>
</g>
<!-- GenericSpareImage -->
<g id="node12" class="node"><title>GenericSpareImage</title>
<path fill="none" stroke="black" d="M1523.24,-215.5C1523.24,-215.5 1650.14,-215.5 1650.14,-215.5 1656.14,-215.5 1662.14,-221.5 1662.14,-227.5 1662.14,-227.5 1662.14,-289.5 1662.14,-289.5 1662.14,-295.5 1656.14,-301.5 1650.14,-301.5 1650.14,-301.5 1523.24,-301.5 1523.24,-301.5 1517.24,-301.5 1511.24,-295.5 1511.24,-289.5 1511.24,-289.5 1511.24,-227.5 1511.24,-227.5 1511.24,-221.5 1517.24,-215.5 1523.24,-215.5"/>
<text text-anchor="middle" x="1586.69" y="-286.3" font-family="Times,serif" font-size="14.00">GenericSpareImage</text>
<polyline fill="none" stroke="black" points="1511.24,-279.5 1662.14,-279.5 "/>
<text text-anchor="start" x="1519.24" y="-264.3" font-family="Times,serif" font-size="14.00">id :integer</text>
<text text-anchor="start" x="1519.24" y="-250.3" font-family="Times,serif" font-size="14.00">generic_spare_id :string</text>
<text text-anchor="start" x="1519.24" y="-236.3" font-family="Times,serif" font-size="14.00">created_at :datetime</text>
<text text-anchor="start" x="1519.24" y="-222.3" font-family="Times,serif" font-size="14.00">updated_at :datetime</text>
</g>
<!-- GenericSpare&#45;&gt;GenericSpareImage -->
<g id="edge24" class="edge"><title>GenericSpare&#45;&gt;GenericSpareImage</title>
<path fill="none" stroke="#0193ce" d="M1529.64,-478.545C1543.81,-424.115 1561.26,-357.14 1573.1,-311.682"/>
<ellipse fill="none" stroke="#0193ce" cx="1528.62" cy="-482.468" rx="4.00001" ry="4.00001"/>
<polygon fill="#0193ce" stroke="#0193ce" points="1573.16,-311.428 1580.04,-302.886 1574.42,-306.59 1575.68,-301.751 1575.68,-301.751 1575.68,-301.751 1574.42,-306.59 1571.33,-300.617 1573.16,-311.428 1573.16,-311.428"/>
</g>
<!-- GenericSpare&#45;&gt;SpareLikelihood -->
<g id="edge22" class="edge"><title>GenericSpare&#45;&gt;SpareLikelihood</title>
<path fill="none" stroke="#55bdb7" d="M1481.23,-478.453C1475.09,-456.295 1468.34,-432.745 1461.69,-411 1452.28,-380.258 1440.94,-346.317 1431.35,-318.366"/>
<ellipse fill="none" stroke="#55bdb7" cx="1482.32" cy="-482.371" rx="4.00001" ry="4.00001"/>
<polygon fill="#55bdb7" stroke="#55bdb7" points="1431.29,-318.199 1432.29,-307.278 1429.67,-313.472 1428.04,-308.744 1428.04,-308.744 1428.04,-308.744 1429.67,-313.472 1423.78,-310.21 1431.29,-318.199 1431.29,-318.199"/>
</g>
<!-- StockSpare -->
<g id="node28" class="node"><title>StockSpare</title>
<path fill="none" stroke="black" d="M736.738,-124.5C736.738,-124.5 884.638,-124.5 884.638,-124.5 890.638,-124.5 896.638,-130.5 896.638,-136.5 896.638,-136.5 896.638,-380.5 896.638,-380.5 896.638,-386.5 890.638,-392.5 884.638,-392.5 884.638,-392.5 736.738,-392.5 736.738,-392.5 730.738,-392.5 724.738,-386.5 724.738,-380.5 724.738,-380.5 724.738,-136.5 724.738,-136.5 724.738,-130.5 730.738,-124.5 736.738,-124.5"/>
<text text-anchor="middle" x="810.688" y="-377.3" font-family="Times,serif" font-size="14.00">StockSpare</text>
<polyline fill="none" stroke="black" points="724.738,-370.5 896.638,-370.5 "/>
<text text-anchor="start" x="732.738" y="-355.3" font-family="Times,serif" font-size="14.00">id :integer</text>
<text text-anchor="start" x="732.738" y="-341.3" font-family="Times,serif" font-size="14.00">car_id :integer</text>
<text text-anchor="start" x="732.738" y="-327.3" font-family="Times,serif" font-size="14.00">warehouse_id :integer</text>
<text text-anchor="start" x="732.738" y="-313.3" font-family="Times,serif" font-size="14.00">generic_spare_id :integer</text>
<text text-anchor="start" x="732.738" y="-299.3" font-family="Times,serif" font-size="14.00">status :string</text>
<text text-anchor="start" x="732.738" y="-285.3" font-family="Times,serif" font-size="14.00">description :text</text>
<text text-anchor="start" x="732.738" y="-271.3" font-family="Times,serif" font-size="14.00">code :string</text>
<text text-anchor="start" x="732.738" y="-257.3" font-family="Times,serif" font-size="14.00">color :string</text>
<text text-anchor="start" x="732.738" y="-243.3" font-family="Times,serif" font-size="14.00">created_at :datetime</text>
<text text-anchor="start" x="732.738" y="-229.3" font-family="Times,serif" font-size="14.00">updated_at :datetime</text>
<text text-anchor="start" x="732.738" y="-215.3" font-family="Times,serif" font-size="14.00">stock_family_id :integer</text>
<text text-anchor="start" x="732.738" y="-201.3" font-family="Times,serif" font-size="14.00">supplier_code :string</text>
<text text-anchor="start" x="732.738" y="-187.3" font-family="Times,serif" font-size="14.00">subsection_id :integer</text>
<text text-anchor="start" x="732.738" y="-173.3" font-family="Times,serif" font-size="14.00">photo_file_name :string</text>
<text text-anchor="start" x="732.738" y="-159.3" font-family="Times,serif" font-size="14.00">photo_content_type :string</text>
<text text-anchor="start" x="732.738" y="-145.3" font-family="Times,serif" font-size="14.00">photo_file_size :integer</text>
<text text-anchor="start" x="732.738" y="-131.3" font-family="Times,serif" font-size="14.00">photo_updated_at :datetime</text>
</g>
<!-- GenericSpare&#45;&gt;StockSpare -->
<g id="edge23" class="edge"><title>GenericSpare&#45;&gt;StockSpare</title>
<path fill="none" stroke="#0643be" d="M1445.84,-480.01C1430.07,-461.367 1411.77,-443.37 1391.69,-430 1311.79,-376.813 1050.23,-312.746 906.843,-280.387"/>
<ellipse fill="none" stroke="#0643be" cx="1448.54" cy="-483.271" rx="4.00002" ry="4.00002"/>
<polygon fill="#0643be" stroke="#0643be" points="906.484,-280.306 897.715,-273.722 901.605,-279.209 896.727,-278.112 896.727,-278.112 896.727,-278.112 901.605,-279.209 895.74,-282.503 906.484,-280.306 906.484,-280.306"/>
</g>
<!-- Insured -->
<g id="node13" class="node"><title>Insured</title>
<path fill="none" stroke="black" d="M559.627,-792.5C559.627,-792.5 685.749,-792.5 685.749,-792.5 691.749,-792.5 697.749,-798.5 697.749,-804.5 697.749,-804.5 697.749,-922.5 697.749,-922.5 697.749,-928.5 691.749,-934.5 685.749,-934.5 685.749,-934.5 559.627,-934.5 559.627,-934.5 553.627,-934.5 547.627,-928.5 547.627,-922.5 547.627,-922.5 547.627,-804.5 547.627,-804.5 547.627,-798.5 553.627,-792.5 559.627,-792.5"/>
<text text-anchor="middle" x="622.688" y="-919.3" font-family="Times,serif" font-size="14.00">Insured</text>
<polyline fill="none" stroke="black" points="547.627,-912.5 697.749,-912.5 "/>
<text text-anchor="start" x="555.627" y="-897.3" font-family="Times,serif" font-size="14.00">id :integer</text>
<text text-anchor="start" x="555.627" y="-883.3" font-family="Times,serif" font-size="14.00">prevaluation_id :integer</text>
<text text-anchor="start" x="555.627" y="-869.3" font-family="Times,serif" font-size="14.00">third :boolean</text>
<text text-anchor="start" x="555.627" y="-855.3" font-family="Times,serif" font-size="14.00">name :string</text>
<text text-anchor="start" x="555.627" y="-841.3" font-family="Times,serif" font-size="14.00">telephone :integer</text>
<text text-anchor="start" x="555.627" y="-827.3" font-family="Times,serif" font-size="14.00">email :string</text>
<text text-anchor="start" x="555.627" y="-813.3" font-family="Times,serif" font-size="14.00">created_at :datetime</text>
<text text-anchor="start" x="555.627" y="-799.3" font-family="Times,serif" font-size="14.00">updated_at :datetime</text>
</g>
<!-- ModelAcronym&#45;&gt;GenericCar -->
<g id="edge25" class="edge"><title>ModelAcronym&#45;&gt;GenericCar</title>
<path fill="none" stroke="#f48f3b" d="M1667.69,-1305.27C1667.69,-1284.01 1667.69,-1259.89 1667.69,-1236.86"/>
<ellipse fill="none" stroke="#f48f3b" cx="1667.69" cy="-1309.39" rx="4" ry="4"/>
<polygon fill="#f48f3b" stroke="#f48f3b" points="1667.69,-1236.72 1672.19,-1226.72 1667.69,-1231.72 1667.69,-1226.72 1667.69,-1226.72 1667.69,-1226.72 1667.69,-1231.72 1663.19,-1226.72 1667.69,-1236.72 1667.69,-1236.72"/>
</g>
<!-- MoldComponent -->
<g id="node15" class="node"><title>MoldComponent</title>
<path fill="none" stroke="black" d="M1836.96,-521.5C1836.96,-521.5 1958.42,-521.5 1958.42,-521.5 1964.42,-521.5 1970.42,-527.5 1970.42,-533.5 1970.42,-533.5 1970.42,-609.5 1970.42,-609.5 1970.42,-615.5 1964.42,-621.5 1958.42,-621.5 1958.42,-621.5 1836.96,-621.5 1836.96,-621.5 1830.96,-621.5 1824.96,-615.5 1824.96,-609.5 1824.96,-609.5 1824.96,-533.5 1824.96,-533.5 1824.96,-527.5 1830.96,-521.5 1836.96,-521.5"/>
<text text-anchor="middle" x="1897.69" y="-606.3" font-family="Times,serif" font-size="14.00">MoldComponent</text>
<polyline fill="none" stroke="black" points="1824.96,-599.5 1970.42,-599.5 "/>
<text text-anchor="start" x="1832.96" y="-584.3" font-family="Times,serif" font-size="14.00">id :integer</text>
<text text-anchor="start" x="1832.96" y="-570.3" font-family="Times,serif" font-size="14.00">name :string</text>
<text text-anchor="start" x="1832.96" y="-556.3" font-family="Times,serif" font-size="14.00">mold_spare_id :integer</text>
<text text-anchor="start" x="1832.96" y="-542.3" font-family="Times,serif" font-size="14.00">created_at :datetime</text>
<text text-anchor="start" x="1832.96" y="-528.3" font-family="Times,serif" font-size="14.00">updated_at :datetime</text>
</g>
<!-- MoldSpare -->
<g id="node16" class="node"><title>MoldSpare</title>
<path fill="none" stroke="black" d="M1835.18,-799.5C1835.18,-799.5 1944.19,-799.5 1944.19,-799.5 1950.19,-799.5 1956.19,-805.5 1956.19,-811.5 1956.19,-811.5 1956.19,-915.5 1956.19,-915.5 1956.19,-921.5 1950.19,-927.5 1944.19,-927.5 1944.19,-927.5 1835.18,-927.5 1835.18,-927.5 1829.18,-927.5 1823.18,-921.5 1823.18,-915.5 1823.18,-915.5 1823.18,-811.5 1823.18,-811.5 1823.18,-805.5 1829.18,-799.5 1835.18,-799.5"/>
<text text-anchor="middle" x="1889.69" y="-912.3" font-family="Times,serif" font-size="14.00">MoldSpare</text>
<polyline fill="none" stroke="black" points="1823.18,-905.5 1956.19,-905.5 "/>
<text text-anchor="start" x="1831.18" y="-890.3" font-family="Times,serif" font-size="14.00">id :integer</text>
<text text-anchor="start" x="1831.18" y="-876.3" font-family="Times,serif" font-size="14.00">name :string</text>
<text text-anchor="start" x="1831.18" y="-862.3" font-family="Times,serif" font-size="14.00">comment :string</text>
<text text-anchor="start" x="1831.18" y="-848.3" font-family="Times,serif" font-size="14.00">mold_type :string</text>
<text text-anchor="start" x="1831.18" y="-834.3" font-family="Times,serif" font-size="14.00">code :string</text>
<text text-anchor="start" x="1831.18" y="-820.3" font-family="Times,serif" font-size="14.00">created_at :datetime</text>
<text text-anchor="start" x="1831.18" y="-806.3" font-family="Times,serif" font-size="14.00">updated_at :datetime</text>
</g>
<!-- MoldSpare&#45;&gt;GenericSpare -->
<g id="edge26" class="edge"><title>MoldSpare&#45;&gt;GenericSpare</title>
<path fill="none" stroke="#eec7fa" d="M1824.12,-793.948C1805.81,-777.727 1785.04,-761.75 1763.69,-750 1711.06,-721.038 1684.76,-744.634 1633.69,-713 1612.7,-700 1593.05,-682.599 1575.75,-664.48"/>
<ellipse fill="none" stroke="#eec7fa" cx="1827.26" cy="-796.776" rx="4.00002" ry="4.00002"/>
<polygon fill="#eec7fa" stroke="#eec7fa" points="1575.29,-663.996 1571.77,-653.613 1571.89,-660.339 1568.48,-656.682 1568.48,-656.682 1568.48,-656.682 1571.89,-660.339 1565.18,-659.75 1575.29,-663.996 1575.29,-663.996"/>
</g>
<!-- MoldSpare&#45;&gt;MoldComponent -->
<g id="edge27" class="edge"><title>MoldSpare&#45;&gt;MoldComponent</title>
<path fill="none" stroke="#0c3213" d="M1891.66,-790.929C1893.01,-742.013 1894.78,-677.95 1896.05,-631.868"/>
<ellipse fill="none" stroke="#0c3213" cx="1891.54" cy="-795.218" rx="4" ry="4"/>
<polygon fill="#0c3213" stroke="#0c3213" points="1896.05,-631.732 1900.83,-621.86 1896.19,-626.734 1896.33,-621.736 1896.33,-621.736 1896.33,-621.736 1896.19,-626.734 1891.83,-621.611 1896.05,-631.732 1896.05,-631.732"/>
</g>
<!-- Order -->
<g id="node17" class="node"><title>Order</title>
<path fill="none" stroke="black" d="M240.683,-1091.5C240.683,-1091.5 356.693,-1091.5 356.693,-1091.5 362.693,-1091.5 368.693,-1097.5 368.693,-1103.5 368.693,-1103.5 368.693,-1179.5 368.693,-1179.5 368.693,-1185.5 362.693,-1191.5 356.693,-1191.5 356.693,-1191.5 240.683,-1191.5 240.683,-1191.5 234.683,-1191.5 228.683,-1185.5 228.683,-1179.5 228.683,-1179.5 228.683,-1103.5 228.683,-1103.5 228.683,-1097.5 234.683,-1091.5 240.683,-1091.5"/>
<text text-anchor="middle" x="298.688" y="-1176.3" font-family="Times,serif" font-size="14.00">Order</text>
<polyline fill="none" stroke="black" points="228.683,-1169.5 368.693,-1169.5 "/>
<text text-anchor="start" x="236.683" y="-1154.3" font-family="Times,serif" font-size="14.00">id :integer</text>
<text text-anchor="start" x="236.683" y="-1140.3" font-family="Times,serif" font-size="14.00">entrance_date :date</text>
<text text-anchor="start" x="236.683" y="-1126.3" font-family="Times,serif" font-size="14.00">warehouse_id :integer</text>
<text text-anchor="start" x="236.683" y="-1112.3" font-family="Times,serif" font-size="14.00">created_at :datetime</text>
<text text-anchor="start" x="236.683" y="-1098.3" font-family="Times,serif" font-size="14.00">updated_at :datetime</text>
</g>
<!-- OrderSupplier -->
<g id="node18" class="node"><title>OrderSupplier</title>
<path fill="none" stroke="black" d="M79.1826,-521.5C79.1826,-521.5 188.193,-521.5 188.193,-521.5 194.193,-521.5 200.193,-527.5 200.193,-533.5 200.193,-533.5 200.193,-609.5 200.193,-609.5 200.193,-615.5 194.193,-621.5 188.193,-621.5 188.193,-621.5 79.1826,-621.5 79.1826,-621.5 73.1826,-621.5 67.1826,-615.5 67.1826,-609.5 67.1826,-609.5 67.1826,-533.5 67.1826,-533.5 67.1826,-527.5 73.1826,-521.5 79.1826,-521.5"/>
<text text-anchor="middle" x="133.688" y="-606.3" font-family="Times,serif" font-size="14.00">OrderSupplier</text>
<polyline fill="none" stroke="black" points="67.1826,-599.5 200.193,-599.5 "/>
<text text-anchor="start" x="75.1826" y="-584.3" font-family="Times,serif" font-size="14.00">id :integer</text>
<text text-anchor="start" x="75.1826" y="-570.3" font-family="Times,serif" font-size="14.00">order_id :integer</text>
<text text-anchor="start" x="75.1826" y="-556.3" font-family="Times,serif" font-size="14.00">supplier_id :integer</text>
<text text-anchor="start" x="75.1826" y="-542.3" font-family="Times,serif" font-size="14.00">created_at :datetime</text>
<text text-anchor="start" x="75.1826" y="-528.3" font-family="Times,serif" font-size="14.00">updated_at :datetime</text>
</g>
<!-- Order&#45;&gt;OrderSupplier -->
<g id="edge28" class="edge"><title>Order&#45;&gt;OrderSupplier</title>
<path fill="none" stroke="#b316b9" d="M255.933,-1084.64C234.851,-1054.34 210.949,-1015.33 196.688,-977 190.724,-960.968 158.094,-740.241 142.283,-631.792"/>
<ellipse fill="none" stroke="#b316b9" cx="258.361" cy="-1088.09" rx="4.00002" ry="4.00002"/>
<polygon fill="#b316b9" stroke="#b316b9" points="142.249,-631.554 145.26,-621.009 141.528,-626.606 140.807,-621.658 140.807,-621.658 140.807,-621.658 141.528,-626.606 136.354,-622.307 142.249,-631.554 142.249,-631.554"/>
</g>
<!-- Order&#45;&gt;StockFamily -->
<g id="edge29" class="edge"><title>Order&#45;&gt;StockFamily</title>
<path fill="none" stroke="#253594" d="M318.955,-1083.67C329.322,-1052.54 341.284,-1013.05 348.688,-977 365.791,-893.725 376.538,-799.353 383.124,-722.72"/>
<ellipse fill="none" stroke="#253594" cx="317.632" cy="-1087.61" rx="4.00001" ry="4.00001"/>
<polygon fill="#253594" stroke="#253594" points="383.145,-722.472 388.471,-712.886 383.566,-717.49 383.987,-712.508 383.987,-712.508 383.987,-712.508 383.566,-717.49 379.502,-712.129 383.145,-722.472 383.145,-722.472"/>
</g>
<!-- Supplier -->
<g id="node31" class="node"><title>Supplier</title>
<path fill="none" stroke="black" d="M12,-813.5C12,-813.5 137.376,-813.5 137.376,-813.5 143.376,-813.5 149.376,-819.5 149.376,-825.5 149.376,-825.5 149.376,-901.5 149.376,-901.5 149.376,-907.5 143.376,-913.5 137.376,-913.5 137.376,-913.5 12,-913.5 12,-913.5 6,-913.5 0,-907.5 0,-901.5 0,-901.5 0,-825.5 0,-825.5 0,-819.5 6,-813.5 12,-813.5"/>
<text text-anchor="middle" x="74.688" y="-898.3" font-family="Times,serif" font-size="14.00">Supplier</text>
<polyline fill="none" stroke="black" points="0,-891.5 149.376,-891.5 "/>
<text text-anchor="start" x="8" y="-876.3" font-family="Times,serif" font-size="14.00">id :integer</text>
<text text-anchor="start" x="8" y="-862.3" font-family="Times,serif" font-size="14.00">name :string</text>
<text text-anchor="start" x="8" y="-848.3" font-family="Times,serif" font-size="14.00">supplier_type_id :string</text>
<text text-anchor="start" x="8" y="-834.3" font-family="Times,serif" font-size="14.00">created_at :datetime</text>
<text text-anchor="start" x="8" y="-820.3" font-family="Times,serif" font-size="14.00">updated_at :datetime</text>
</g>
<!-- Order&#45;&gt;Supplier -->
<g id="edge30" class="edge"><title>Order&#45;&gt;Supplier</title>
<path fill="none" stroke="#4bd20e" d="M241.926,-1083.9C216.942,-1057.96 187.846,-1026.29 163.688,-996 145.089,-972.678 126.311,-945.576 110.829,-922.058"/>
<polygon fill="#4bd20e" stroke="#4bd20e" points="242.24,-1084.23 245.963,-1094.54 245.718,-1087.82 249.196,-1091.41 249.196,-1091.41 249.196,-1091.41 245.718,-1087.82 252.429,-1088.28 242.24,-1084.23 242.24,-1084.23"/>
<polygon fill="#4bd20e" stroke="#4bd20e" points="110.752,-921.939 109.048,-911.107 108.017,-917.754 105.281,-913.569 105.281,-913.569 105.281,-913.569 108.017,-917.754 101.514,-916.031 110.752,-921.939 110.752,-921.939"/>
</g>
<!-- Prevaluation -->
<g id="node19" class="node"><title>Prevaluation</title>
<path fill="none" stroke="black" d="M789.79,-1014.5C789.79,-1014.5 927.586,-1014.5 927.586,-1014.5 933.586,-1014.5 939.586,-1020.5 939.586,-1026.5 939.586,-1026.5 939.586,-1256.5 939.586,-1256.5 939.586,-1262.5 933.586,-1268.5 927.586,-1268.5 927.586,-1268.5 789.79,-1268.5 789.79,-1268.5 783.79,-1268.5 777.79,-1262.5 777.79,-1256.5 777.79,-1256.5 777.79,-1026.5 777.79,-1026.5 777.79,-1020.5 783.79,-1014.5 789.79,-1014.5"/>
<text text-anchor="middle" x="858.688" y="-1253.3" font-family="Times,serif" font-size="14.00">Prevaluation</text>
<polyline fill="none" stroke="black" points="777.79,-1246.5 939.586,-1246.5 "/>
<text text-anchor="start" x="785.79" y="-1231.3" font-family="Times,serif" font-size="14.00">id :integer</text>
<text text-anchor="start" x="785.79" y="-1217.3" font-family="Times,serif" font-size="14.00">number :string</text>
<text text-anchor="start" x="785.79" y="-1203.3" font-family="Times,serif" font-size="14.00">policy :string</text>
<text text-anchor="start" x="785.79" y="-1189.3" font-family="Times,serif" font-size="14.00">subsection :string</text>
<text text-anchor="start" x="785.79" y="-1175.3" font-family="Times,serif" font-size="14.00">expedition_date :date</text>
<text text-anchor="start" x="785.79" y="-1161.3" font-family="Times,serif" font-size="14.00">valuation_date :date</text>
<text text-anchor="start" x="785.79" y="-1147.3" font-family="Times,serif" font-size="14.00">deductible_value :float</text>
<text text-anchor="start" x="785.79" y="-1133.3" font-family="Times,serif" font-size="14.00">commercial_value :float</text>
<text text-anchor="start" x="785.79" y="-1119.3" font-family="Times,serif" font-size="14.00">requires_crane :boolean</text>
<text text-anchor="start" x="785.79" y="-1105.3" font-family="Times,serif" font-size="14.00">collection_status :boolean</text>
<text text-anchor="start" x="785.79" y="-1091.3" font-family="Times,serif" font-size="14.00">special_conditions :string</text>
<text text-anchor="start" x="785.79" y="-1077.3" font-family="Times,serif" font-size="14.00">third_insured :boolean</text>
<text text-anchor="start" x="785.79" y="-1063.3" font-family="Times,serif" font-size="14.00">agent_name :string</text>
<text text-anchor="start" x="785.79" y="-1049.3" font-family="Times,serif" font-size="14.00">comment :text</text>
<text text-anchor="start" x="785.79" y="-1035.3" font-family="Times,serif" font-size="14.00">created_at :datetime</text>
<text text-anchor="start" x="785.79" y="-1021.3" font-family="Times,serif" font-size="14.00">updated_at :datetime</text>
</g>
<!-- Prevaluation&#45;&gt;Insured -->
<g id="edge32" class="edge"><title>Prevaluation&#45;&gt;Insured</title>
<path fill="none" stroke="#ba99f2" d="M772.099,-1050.84C750.238,-1027.27 727.17,-1001.56 706.688,-977 697.618,-966.126 688.339,-954.393 679.413,-942.752"/>
<ellipse fill="none" stroke="#ba99f2" cx="774.903" cy="-1053.85" rx="4.00002" ry="4.00002"/>
<polygon fill="#ba99f2" stroke="#ba99f2" points="679.354,-942.676 676.876,-931.993 676.325,-938.697 673.296,-934.719 673.296,-934.719 673.296,-934.719 676.325,-938.697 669.716,-937.446 679.354,-942.676 679.354,-942.676"/>
</g>
<!-- PrevaluationImage -->
<g id="node20" class="node"><title>PrevaluationImage</title>
<path fill="none" stroke="black" d="M728.117,-820.5C728.117,-820.5 847.259,-820.5 847.259,-820.5 853.259,-820.5 859.259,-826.5 859.259,-832.5 859.259,-832.5 859.259,-894.5 859.259,-894.5 859.259,-900.5 853.259,-906.5 847.259,-906.5 847.259,-906.5 728.117,-906.5 728.117,-906.5 722.117,-906.5 716.117,-900.5 716.117,-894.5 716.117,-894.5 716.117,-832.5 716.117,-832.5 716.117,-826.5 722.117,-820.5 728.117,-820.5"/>
<text text-anchor="middle" x="787.688" y="-891.3" font-family="Times,serif" font-size="14.00">PrevaluationImage</text>
<polyline fill="none" stroke="black" points="716.117,-884.5 859.259,-884.5 "/>
<text text-anchor="start" x="724.117" y="-869.3" font-family="Times,serif" font-size="14.00">id :integer</text>
<text text-anchor="start" x="724.117" y="-855.3" font-family="Times,serif" font-size="14.00">prevaluation_id :string</text>
<text text-anchor="start" x="724.117" y="-841.3" font-family="Times,serif" font-size="14.00">created_at :datetime</text>
<text text-anchor="start" x="724.117" y="-827.3" font-family="Times,serif" font-size="14.00">updated_at :datetime</text>
</g>
<!-- Prevaluation&#45;&gt;PrevaluationImage -->
<g id="edge34" class="edge"><title>Prevaluation&#45;&gt;PrevaluationImage</title>
<path fill="none" stroke="#b2192b" d="M824.095,-1006.02C815.889,-974.127 807.619,-941.979 801.04,-916.402"/>
<ellipse fill="none" stroke="#b2192b" cx="825.204" cy="-1010.34" rx="4.00001" ry="4.00001"/>
<polygon fill="#b2192b" stroke="#b2192b" points="801.004,-916.264 802.871,-905.459 799.759,-911.422 798.513,-906.58 798.513,-906.58 798.513,-906.58 799.759,-911.422 794.155,-907.701 801.004,-916.264 801.004,-916.264"/>
</g>
<!-- Prevaluation&#45;&gt;StockCar -->
<g id="edge31" class="edge"><title>Prevaluation&#45;&gt;StockCar</title>
<path fill="none" stroke="#5b40f3" d="M945.741,-1058.22C981.579,-1024.34 1023.11,-985.086 1059.38,-950.804"/>
<ellipse fill="none" stroke="#5b40f3" cx="942.545" cy="-1061.24" rx="4.00002" ry="4.00002"/>
<polygon fill="#5b40f3" stroke="#5b40f3" points="1059.77,-950.437 1070.13,-946.838 1063.4,-947.003 1067.04,-943.568 1067.04,-943.568 1067.04,-943.568 1063.4,-947.003 1063.95,-940.298 1059.77,-950.437 1059.77,-950.437"/>
</g>
<!-- Valuation -->
<g id="node35" class="node"><title>Valuation</title>
<path fill="none" stroke="black" d="M889.183,-813.5C889.183,-813.5 998.193,-813.5 998.193,-813.5 1004.19,-813.5 1010.19,-819.5 1010.19,-825.5 1010.19,-825.5 1010.19,-901.5 1010.19,-901.5 1010.19,-907.5 1004.19,-913.5 998.193,-913.5 998.193,-913.5 889.183,-913.5 889.183,-913.5 883.183,-913.5 877.183,-907.5 877.183,-901.5 877.183,-901.5 877.183,-825.5 877.183,-825.5 877.183,-819.5 883.183,-813.5 889.183,-813.5"/>
<text text-anchor="middle" x="943.688" y="-898.3" font-family="Times,serif" font-size="14.00">Valuation</text>
<polyline fill="none" stroke="black" points="877.183,-891.5 1010.19,-891.5 "/>
<text text-anchor="start" x="885.183" y="-876.3" font-family="Times,serif" font-size="14.00">id :integer</text>
<text text-anchor="start" x="885.183" y="-862.3" font-family="Times,serif" font-size="14.00">client_code :string</text>
<text text-anchor="start" x="885.183" y="-848.3" font-family="Times,serif" font-size="14.00">edited_by :string</text>
<text text-anchor="start" x="885.183" y="-834.3" font-family="Times,serif" font-size="14.00">created_at :datetime</text>
<text text-anchor="start" x="885.183" y="-820.3" font-family="Times,serif" font-size="14.00">updated_at :datetime</text>
</g>
<!-- Prevaluation&#45;&gt;Valuation -->
<g id="edge33" class="edge"><title>Prevaluation&#45;&gt;Valuation</title>
<path fill="none" stroke="#85bb5a" d="M900.028,-1006.27C909.221,-976.418 918.485,-946.335 926.101,-921.607"/>
<ellipse fill="none" stroke="#85bb5a" cx="898.758" cy="-1010.39" rx="4.00001" ry="4.00001"/>
<ellipse fill="#85bb5a" stroke="#85bb5a" cx="927.336" cy="-917.597" rx="4.00001" ry="4.00001"/>
</g>
<!-- Price -->
<g id="node21" class="node"><title>Price</title>
<path fill="none" stroke="black" d="M218.183,-813.5C218.183,-813.5 327.193,-813.5 327.193,-813.5 333.193,-813.5 339.193,-819.5 339.193,-825.5 339.193,-825.5 339.193,-901.5 339.193,-901.5 339.193,-907.5 333.193,-913.5 327.193,-913.5 327.193,-913.5 218.183,-913.5 218.183,-913.5 212.183,-913.5 206.183,-907.5 206.183,-901.5 206.183,-901.5 206.183,-825.5 206.183,-825.5 206.183,-819.5 212.183,-813.5 218.183,-813.5"/>
<text text-anchor="middle" x="272.688" y="-898.3" font-family="Times,serif" font-size="14.00">Price</text>
<polyline fill="none" stroke="black" points="206.183,-891.5 339.193,-891.5 "/>
<text text-anchor="start" x="214.183" y="-876.3" font-family="Times,serif" font-size="14.00">id :integer</text>
<text text-anchor="start" x="214.183" y="-862.3" font-family="Times,serif" font-size="14.00">entrance :string</text>
<text text-anchor="start" x="214.183" y="-848.3" font-family="Times,serif" font-size="14.00">departure :string</text>
<text text-anchor="start" x="214.183" y="-834.3" font-family="Times,serif" font-size="14.00">created_at :datetime</text>
<text text-anchor="start" x="214.183" y="-820.3" font-family="Times,serif" font-size="14.00">updated_at :datetime</text>
</g>
<!-- Price&#45;&gt;StockFamily -->
<g id="edge35" class="edge"><title>Price&#45;&gt;StockFamily</title>
<path fill="none" stroke="#9f3cbd" d="M296.103,-805.913C306.343,-781.166 318.883,-750.861 331.493,-720.387"/>
<ellipse fill="none" stroke="#9f3cbd" cx="294.574" cy="-809.609" rx="4.00002" ry="4.00002"/>
<ellipse fill="#9f3cbd" stroke="#9f3cbd" cx="333.17" cy="-716.335" rx="4.00001" ry="4.00001"/>
</g>
<!-- Section -->
<g id="node22" class="node"><title>Section</title>
<path fill="none" stroke="black" d="M482.683,-1084.5C482.683,-1084.5 598.693,-1084.5 598.693,-1084.5 604.693,-1084.5 610.693,-1090.5 610.693,-1096.5 610.693,-1096.5 610.693,-1186.5 610.693,-1186.5 610.693,-1192.5 604.693,-1198.5 598.693,-1198.5 598.693,-1198.5 482.683,-1198.5 482.683,-1198.5 476.683,-1198.5 470.683,-1192.5 470.683,-1186.5 470.683,-1186.5 470.683,-1096.5 470.683,-1096.5 470.683,-1090.5 476.683,-1084.5 482.683,-1084.5"/>
<text text-anchor="middle" x="540.688" y="-1183.3" font-family="Times,serif" font-size="14.00">Section</text>
<polyline fill="none" stroke="black" points="470.683,-1176.5 610.693,-1176.5 "/>
<text text-anchor="start" x="478.683" y="-1161.3" font-family="Times,serif" font-size="14.00">id :integer</text>
<text text-anchor="start" x="478.683" y="-1147.3" font-family="Times,serif" font-size="14.00">code :string</text>
<text text-anchor="start" x="478.683" y="-1133.3" font-family="Times,serif" font-size="14.00">warehouse_id :integer</text>
<text text-anchor="start" x="478.683" y="-1119.3" font-family="Times,serif" font-size="14.00">name :string</text>
<text text-anchor="start" x="478.683" y="-1105.3" font-family="Times,serif" font-size="14.00">created_at :datetime</text>
<text text-anchor="start" x="478.683" y="-1091.3" font-family="Times,serif" font-size="14.00">updated_at :datetime</text>
</g>
<!-- Subsection -->
<g id="node30" class="node"><title>Subsection</title>
<path fill="none" stroke="black" d="M408.183,-806.5C408.183,-806.5 517.193,-806.5 517.193,-806.5 523.193,-806.5 529.193,-812.5 529.193,-818.5 529.193,-818.5 529.193,-908.5 529.193,-908.5 529.193,-914.5 523.193,-920.5 517.193,-920.5 517.193,-920.5 408.183,-920.5 408.183,-920.5 402.183,-920.5 396.183,-914.5 396.183,-908.5 396.183,-908.5 396.183,-818.5 396.183,-818.5 396.183,-812.5 402.183,-806.5 408.183,-806.5"/>
<text text-anchor="middle" x="462.688" y="-905.3" font-family="Times,serif" font-size="14.00">Subsection</text>
<polyline fill="none" stroke="black" points="396.183,-898.5 529.193,-898.5 "/>
<text text-anchor="start" x="404.183" y="-883.3" font-family="Times,serif" font-size="14.00">id :integer</text>
<text text-anchor="start" x="404.183" y="-869.3" font-family="Times,serif" font-size="14.00">code :string</text>
<text text-anchor="start" x="404.183" y="-855.3" font-family="Times,serif" font-size="14.00">name :string</text>
<text text-anchor="start" x="404.183" y="-841.3" font-family="Times,serif" font-size="14.00">section_id :integer</text>
<text text-anchor="start" x="404.183" y="-827.3" font-family="Times,serif" font-size="14.00">created_at :datetime</text>
<text text-anchor="start" x="404.183" y="-813.3" font-family="Times,serif" font-size="14.00">updated_at :datetime</text>
</g>
<!-- Section&#45;&gt;Subsection -->
<g id="edge36" class="edge"><title>Section&#45;&gt;Subsection</title>
<path fill="none" stroke="#34e417" d="M522.628,-1076.59C510.233,-1032.74 493.828,-974.686 481.313,-930.405"/>
<ellipse fill="none" stroke="#34e417" cx="523.722" cy="-1080.47" rx="4.00001" ry="4.00001"/>
<polygon fill="#34e417" stroke="#34e417" points="481.264,-930.23 482.875,-919.383 479.904,-925.418 478.544,-920.607 478.544,-920.607 478.544,-920.607 479.904,-925.418 474.214,-921.831 481.264,-930.23 481.264,-930.23"/>
</g>
<!-- StockCarImage -->
<g id="node25" class="node"><title>StockCarImage</title>
<path fill="none" stroke="black" d="M1078.79,-528.5C1078.79,-528.5 1188.58,-528.5 1188.58,-528.5 1194.58,-528.5 1200.58,-534.5 1200.58,-540.5 1200.58,-540.5 1200.58,-602.5 1200.58,-602.5 1200.58,-608.5 1194.58,-614.5 1188.58,-614.5 1188.58,-614.5 1078.79,-614.5 1078.79,-614.5 1072.79,-614.5 1066.79,-608.5 1066.79,-602.5 1066.79,-602.5 1066.79,-540.5 1066.79,-540.5 1066.79,-534.5 1072.79,-528.5 1078.79,-528.5"/>
<text text-anchor="middle" x="1133.69" y="-599.3" font-family="Times,serif" font-size="14.00">StockCarImage</text>
<polyline fill="none" stroke="black" points="1066.79,-592.5 1200.58,-592.5 "/>
<text text-anchor="start" x="1074.79" y="-577.3" font-family="Times,serif" font-size="14.00">id :integer</text>
<text text-anchor="start" x="1074.79" y="-563.3" font-family="Times,serif" font-size="14.00">stock_car_id :integer</text>
<text text-anchor="start" x="1074.79" y="-549.3" font-family="Times,serif" font-size="14.00">created_at :datetime</text>
<text text-anchor="start" x="1074.79" y="-535.3" font-family="Times,serif" font-size="14.00">updated_at :datetime</text>
</g>
<!-- StockCar&#45;&gt;StockCarImage -->
<g id="edge37" class="edge"><title>StockCar&#45;&gt;StockCarImage</title>
<path fill="none" stroke="#7978ec" d="M1143.64,-742.264C1141.24,-701.413 1138.69,-657.86 1136.77,-625.097"/>
<ellipse fill="none" stroke="#7978ec" cx="1143.88" cy="-746.385" rx="4" ry="4"/>
<polygon fill="#7978ec" stroke="#7978ec" points="1136.76,-624.838 1140.66,-614.592 1136.46,-619.847 1136.17,-614.855 1136.17,-614.855 1136.17,-614.855 1136.46,-619.847 1131.68,-615.119 1136.76,-624.838 1136.76,-624.838"/>
</g>
<!-- StockFamilyImage -->
<g id="node27" class="node"><title>StockFamilyImage</title>
<path fill="none" stroke="black" d="M317.579,-187.5C317.579,-187.5 467.797,-187.5 467.797,-187.5 473.797,-187.5 479.797,-193.5 479.797,-199.5 479.797,-199.5 479.797,-317.5 479.797,-317.5 479.797,-323.5 473.797,-329.5 467.797,-329.5 467.797,-329.5 317.579,-329.5 317.579,-329.5 311.579,-329.5 305.579,-323.5 305.579,-317.5 305.579,-317.5 305.579,-199.5 305.579,-199.5 305.579,-193.5 311.579,-187.5 317.579,-187.5"/>
<text text-anchor="middle" x="392.688" y="-314.3" font-family="Times,serif" font-size="14.00">StockFamilyImage</text>
<polyline fill="none" stroke="black" points="305.579,-307.5 479.797,-307.5 "/>
<text text-anchor="start" x="313.579" y="-292.3" font-family="Times,serif" font-size="14.00">id :integer</text>
<text text-anchor="start" x="313.579" y="-278.3" font-family="Times,serif" font-size="14.00">created_at :datetime</text>
<text text-anchor="start" x="313.579" y="-264.3" font-family="Times,serif" font-size="14.00">updated_at :datetime</text>
<text text-anchor="start" x="313.579" y="-250.3" font-family="Times,serif" font-size="14.00">image_file_name :string</text>
<text text-anchor="start" x="313.579" y="-236.3" font-family="Times,serif" font-size="14.00">image_content_type :string</text>
<text text-anchor="start" x="313.579" y="-222.3" font-family="Times,serif" font-size="14.00">image_file_size :integer</text>
<text text-anchor="start" x="313.579" y="-208.3" font-family="Times,serif" font-size="14.00">image_updated_at :datetime</text>
<text text-anchor="start" x="313.579" y="-194.3" font-family="Times,serif" font-size="14.00">stock_family_id :integer</text>
</g>
<!-- StockFamily&#45;&gt;StockFamilyImage -->
<g id="edge38" class="edge"><title>StockFamily&#45;&gt;StockFamilyImage</title>
<path fill="none" stroke="#ac64aa" d="M392.688,-422.251C392.688,-393.806 392.688,-365.036 392.688,-339.761"/>
<ellipse fill="none" stroke="#ac64aa" cx="392.688" cy="-426.466" rx="4" ry="4"/>
<polygon fill="#ac64aa" stroke="#ac64aa" points="392.688,-339.523 397.188,-329.523 392.688,-334.523 392.688,-329.523 392.688,-329.523 392.688,-329.523 392.688,-334.523 388.188,-329.523 392.688,-339.523 392.688,-339.523"/>
</g>
<!-- StockFamily&#45;&gt;StockSpare -->
<g id="edge39" class="edge"><title>StockFamily&#45;&gt;StockSpare</title>
<path fill="none" stroke="#1d7b13" d="M487.726,-452.389C502.023,-437.632 517.194,-423.394 532.688,-411 588.391,-366.442 659.06,-328.127 715.206,-301.176"/>
<ellipse fill="none" stroke="#1d7b13" cx="484.845" cy="-455.4" rx="4.00002" ry="4.00002"/>
<polygon fill="#1d7b13" stroke="#1d7b13" points="715.413,-301.078 726.376,-300.845 719.928,-298.93 724.443,-296.782 724.443,-296.782 724.443,-296.782 719.928,-298.93 722.51,-292.718 715.413,-301.078 715.413,-301.078"/>
</g>
<!-- StockSpareImage -->
<g id="node29" class="node"><title>StockSpareImage</title>
<path fill="none" stroke="black" d="M749.569,-0.5C749.569,-0.5 871.807,-0.5 871.807,-0.5 877.807,-0.5 883.807,-6.5 883.807,-12.5 883.807,-12.5 883.807,-74.5 883.807,-74.5 883.807,-80.5 877.807,-86.5 871.807,-86.5 871.807,-86.5 749.569,-86.5 749.569,-86.5 743.569,-86.5 737.569,-80.5 737.569,-74.5 737.569,-74.5 737.569,-12.5 737.569,-12.5 737.569,-6.5 743.569,-0.5 749.569,-0.5"/>
<text text-anchor="middle" x="810.688" y="-71.3" font-family="Times,serif" font-size="14.00">StockSpareImage</text>
<polyline fill="none" stroke="black" points="737.569,-64.5 883.807,-64.5 "/>
<text text-anchor="start" x="745.569" y="-49.3" font-family="Times,serif" font-size="14.00">id :integer</text>
<text text-anchor="start" x="745.569" y="-35.3" font-family="Times,serif" font-size="14.00">stock_spare_id :integer</text>
<text text-anchor="start" x="745.569" y="-21.3" font-family="Times,serif" font-size="14.00">created_at :datetime</text>
<text text-anchor="start" x="745.569" y="-7.3" font-family="Times,serif" font-size="14.00">updated_at :datetime</text>
</g>
<!-- StockSpare&#45;&gt;StockSpareImage -->
<g id="edge40" class="edge"><title>StockSpare&#45;&gt;StockSpareImage</title>
<path fill="none" stroke="#321867" d="M810.688,-116.303C810.688,-109.579 810.688,-103.063 810.688,-96.8782"/>
<ellipse fill="none" stroke="#321867" cx="810.688" cy="-120.419" rx="4" ry="4"/>
<polygon fill="#321867" stroke="#321867" points="810.688,-96.8047 815.188,-86.8047 810.688,-91.8047 810.688,-86.8047 810.688,-86.8047 810.688,-86.8047 810.688,-91.8047 806.188,-86.8048 810.688,-96.8047 810.688,-96.8047"/>
</g>
<!-- Subsection&#45;&gt;StockFamily -->
<g id="edge41" class="edge"><title>Subsection&#45;&gt;StockFamily</title>
<path fill="none" stroke="#166bd7" d="M447.16,-798.168C441.697,-775.537 435.306,-749.061 428.862,-722.364"/>
<ellipse fill="none" stroke="#166bd7" cx="448.17" cy="-802.353" rx="4.00001" ry="4.00001"/>
<polygon fill="#166bd7" stroke="#166bd7" points="428.834,-722.246 430.862,-711.47 427.661,-717.386 426.487,-712.526 426.487,-712.526 426.487,-712.526 427.661,-717.386 422.113,-713.582 428.834,-722.246 428.834,-722.246"/>
</g>
<!-- Subsection&#45;&gt;StockSpare -->
<g id="edge42" class="edge"><title>Subsection&#45;&gt;StockSpare</title>
<path fill="none" stroke="#fd7967" d="M499.171,-799.284C553.2,-705.665 655.919,-527.678 728.612,-401.718"/>
<ellipse fill="none" stroke="#fd7967" cx="497.114" cy="-802.848" rx="4.00002" ry="4.00002"/>
<polygon fill="#fd7967" stroke="#fd7967" points="728.794,-401.402 737.69,-394.991 731.293,-397.072 733.793,-392.741 733.793,-392.741 733.793,-392.741 731.293,-397.072 729.895,-390.492 728.794,-401.402 728.794,-401.402"/>
</g>
<!-- Supplier&#45;&gt;OrderSupplier -->
<g id="edge44" class="edge"><title>Supplier&#45;&gt;OrderSupplier</title>
<path fill="none" stroke="#6e9cd3" d="M86.3299,-805.277C96.5319,-755.132 111.303,-682.529 121.627,-631.781"/>
<ellipse fill="none" stroke="#6e9cd3" cx="85.494" cy="-809.386" rx="4.00001" ry="4.00001"/>
<polygon fill="#6e9cd3" stroke="#6e9cd3" points="121.637,-631.735 128.04,-622.833 122.633,-626.836 123.63,-621.936 123.63,-621.936 123.63,-621.936 122.633,-626.836 119.221,-621.039 121.637,-631.735 121.637,-631.735"/>
</g>
<!-- Supplier&#45;&gt;StockFamily -->
<g id="edge43" class="edge"><title>Supplier&#45;&gt;StockFamily</title>
<path fill="none" stroke="#b51c46" d="M133.84,-807.756C153.771,-789.363 176.161,-768.759 196.688,-750 228.846,-720.613 264.094,-688.623 295.723,-659.999"/>
<ellipse fill="none" stroke="#b51c46" cx="130.678" cy="-810.675" rx="4.00002" ry="4.00002"/>
<polygon fill="#b51c46" stroke="#b51c46" points="295.841,-659.892 306.275,-656.519 299.549,-656.537 303.256,-653.182 303.256,-653.182 303.256,-653.182 299.549,-656.537 300.237,-649.845 295.841,-659.892 295.841,-659.892"/>
</g>
<!-- SupplierType -->
<g id="node32" class="node"><title>SupplierType</title>
<path fill="none" stroke="black" d="M20.1826,-1098.5C20.1826,-1098.5 129.193,-1098.5 129.193,-1098.5 135.193,-1098.5 141.193,-1104.5 141.193,-1110.5 141.193,-1110.5 141.193,-1172.5 141.193,-1172.5 141.193,-1178.5 135.193,-1184.5 129.193,-1184.5 129.193,-1184.5 20.1826,-1184.5 20.1826,-1184.5 14.1826,-1184.5 8.18262,-1178.5 8.18262,-1172.5 8.18262,-1172.5 8.18262,-1110.5 8.18262,-1110.5 8.18262,-1104.5 14.1826,-1098.5 20.1826,-1098.5"/>
<text text-anchor="middle" x="74.688" y="-1169.3" font-family="Times,serif" font-size="14.00">SupplierType</text>
<polyline fill="none" stroke="black" points="8.18262,-1162.5 141.193,-1162.5 "/>
<text text-anchor="start" x="16.1826" y="-1147.3" font-family="Times,serif" font-size="14.00">id :integer</text>
<text text-anchor="start" x="16.1826" y="-1133.3" font-family="Times,serif" font-size="14.00">name :string</text>
<text text-anchor="start" x="16.1826" y="-1119.3" font-family="Times,serif" font-size="14.00">created_at :datetime</text>
<text text-anchor="start" x="16.1826" y="-1105.3" font-family="Times,serif" font-size="14.00">updated_at :datetime</text>
</g>
<!-- SupplierType&#45;&gt;Supplier -->
<g id="edge45" class="edge"><title>SupplierType&#45;&gt;Supplier</title>
<path fill="none" stroke="#edc9cf" d="M74.688,-1090.16C74.688,-1043.33 74.688,-973.514 74.688,-923.959"/>
<ellipse fill="none" stroke="#edc9cf" cx="74.688" cy="-1094.28" rx="4" ry="4"/>
<polygon fill="#edc9cf" stroke="#edc9cf" points="74.6881,-923.707 79.188,-913.707 74.688,-918.707 74.688,-913.707 74.688,-913.707 74.688,-913.707 74.688,-918.707 70.188,-913.707 74.6881,-923.707 74.6881,-923.707"/>
</g>
<!-- User -->
<g id="node34" class="node"><title>User</title>
<path fill="none" stroke="black" d="M1764.62,-1472.5C1764.62,-1472.5 1890.75,-1472.5 1890.75,-1472.5 1896.75,-1472.5 1902.75,-1478.5 1902.75,-1484.5 1902.75,-1484.5 1902.75,-1616.5 1902.75,-1616.5 1902.75,-1622.5 1896.75,-1628.5 1890.75,-1628.5 1890.75,-1628.5 1764.62,-1628.5 1764.62,-1628.5 1758.62,-1628.5 1752.62,-1622.5 1752.62,-1616.5 1752.62,-1616.5 1752.62,-1484.5 1752.62,-1484.5 1752.62,-1478.5 1758.62,-1472.5 1764.62,-1472.5"/>
<text text-anchor="middle" x="1827.69" y="-1613.3" font-family="Times,serif" font-size="14.00">User</text>
<polyline fill="none" stroke="black" points="1752.62,-1606.5 1902.75,-1606.5 "/>
<text text-anchor="start" x="1760.62" y="-1591.3" font-family="Times,serif" font-size="14.00">id :integer</text>
<text text-anchor="start" x="1760.62" y="-1577.3" font-family="Times,serif" font-size="14.00">name :string</text>
<text text-anchor="start" x="1760.62" y="-1563.3" font-family="Times,serif" font-size="14.00">email :string</text>
<text text-anchor="start" x="1760.62" y="-1549.3" font-family="Times,serif" font-size="14.00">username :string</text>
<text text-anchor="start" x="1760.62" y="-1535.3" font-family="Times,serif" font-size="14.00">privileges :string</text>
<text text-anchor="start" x="1760.62" y="-1521.3" font-family="Times,serif" font-size="14.00">created_at :datetime</text>
<text text-anchor="start" x="1760.62" y="-1507.3" font-family="Times,serif" font-size="14.00">updated_at :datetime</text>
<text text-anchor="start" x="1760.62" y="-1493.3" font-family="Times,serif" font-size="14.00">password_digest :string</text>
<text text-anchor="start" x="1760.62" y="-1479.3" font-family="Times,serif" font-size="14.00">remember_token :string</text>
</g>
<!-- Warehouse -->
<g id="node36" class="node"><title>Warehouse</title>
<path fill="none" stroke="black" d="M885.183,-1306.5C885.183,-1306.5 994.193,-1306.5 994.193,-1306.5 1000.19,-1306.5 1006.19,-1312.5 1006.19,-1318.5 1006.19,-1318.5 1006.19,-1422.5 1006.19,-1422.5 1006.19,-1428.5 1000.19,-1434.5 994.193,-1434.5 994.193,-1434.5 885.183,-1434.5 885.183,-1434.5 879.183,-1434.5 873.183,-1428.5 873.183,-1422.5 873.183,-1422.5 873.183,-1318.5 873.183,-1318.5 873.183,-1312.5 879.183,-1306.5 885.183,-1306.5"/>
<text text-anchor="middle" x="939.688" y="-1419.3" font-family="Times,serif" font-size="14.00">Warehouse</text>
<polyline fill="none" stroke="black" points="873.183,-1412.5 1006.19,-1412.5 "/>
<text text-anchor="start" x="881.183" y="-1397.3" font-family="Times,serif" font-size="14.00">id :integer</text>
<text text-anchor="start" x="881.183" y="-1383.3" font-family="Times,serif" font-size="14.00">branch :string</text>
<text text-anchor="start" x="881.183" y="-1369.3" font-family="Times,serif" font-size="14.00">location :string</text>
<text text-anchor="start" x="881.183" y="-1355.3" font-family="Times,serif" font-size="14.00">geolocation :string</text>
<text text-anchor="start" x="881.183" y="-1341.3" font-family="Times,serif" font-size="14.00">created_at :datetime</text>
<text text-anchor="start" x="881.183" y="-1327.3" font-family="Times,serif" font-size="14.00">updated_at :datetime</text>
<text text-anchor="start" x="881.183" y="-1313.3" font-family="Times,serif" font-size="14.00">code :string</text>
</g>
<!-- Warehouse&#45;&gt;Order -->
<g id="edge48" class="edge"><title>Warehouse&#45;&gt;Order</title>
<path fill="none" stroke="#62a4fd" d="M864.961,-1364.23C768.017,-1355.11 595.48,-1330.94 461.688,-1269 423.643,-1251.39 386.315,-1223.44 357,-1198.28"/>
<ellipse fill="none" stroke="#62a4fd" cx="868.972" cy="-1364.6" rx="4" ry="4"/>
<polygon fill="#62a4fd" stroke="#62a4fd" points="356.882,-1198.18 352.292,-1188.22 353.11,-1194.9 349.338,-1191.62 349.338,-1191.62 349.338,-1191.62 353.11,-1194.9 346.385,-1195.01 356.882,-1198.18 356.882,-1198.18"/>
</g>
<!-- Warehouse&#45;&gt;Section -->
<g id="edge49" class="edge"><title>Warehouse&#45;&gt;Section</title>
<path fill="none" stroke="#fa1a1a" d="M865.528,-1327.31C795.607,-1287.53 691.159,-1228.11 619.695,-1187.45"/>
<ellipse fill="none" stroke="#fa1a1a" cx="869.428" cy="-1329.53" rx="4.00002" ry="4.00002"/>
<polygon fill="#fa1a1a" stroke="#fa1a1a" points="619.404,-1187.28 612.937,-1178.43 615.058,-1184.81 610.712,-1182.34 610.712,-1182.34 610.712,-1182.34 615.058,-1184.81 608.487,-1186.25 619.404,-1187.28 619.404,-1187.28"/>
</g>
<!-- Warehouse&#45;&gt;StockCar -->
<g id="edge47" class="edge"><title>Warehouse&#45;&gt;StockCar</title>
<path fill="none" stroke="#da11ed" d="M1012.79,-1328.63C1027.88,-1317.22 1042.32,-1303.6 1052.69,-1288 1112.39,-1198.19 1135.97,-1076.7 1145.16,-986.868"/>
<ellipse fill="none" stroke="#da11ed" cx="1009.52" cy="-1331.02" rx="4.00002" ry="4.00002"/>
<polygon fill="#da11ed" stroke="#da11ed" points="1145.16,-986.855 1150.61,-977.34 1145.65,-981.879 1146.14,-976.902 1146.14,-976.902 1146.14,-976.902 1145.65,-981.879 1141.66,-976.465 1145.16,-986.855 1145.16,-986.855"/>
</g>
<!-- Warehouse&#45;&gt;StockSpare -->
<g id="edge46" class="edge"><title>Warehouse&#45;&gt;StockSpare</title>
<path fill="none" stroke="#df91a7" d="M988.158,-1299.06C1013.25,-1255.86 1038.69,-1198.3 1038.69,-1142.5 1038.69,-1142.5 1038.69,-1142.5 1038.69,-570.5 1038.69,-474.643 967.367,-388.727 904.504,-331.616"/>
<ellipse fill="none" stroke="#df91a7" cx="986.011" cy="-1302.69" rx="4.00002" ry="4.00002"/>
<polygon fill="#df91a7" stroke="#df91a7" points="904.336,-331.466 899.887,-321.443 900.61,-328.131 896.885,-324.796 896.885,-324.796 896.885,-324.796 900.61,-328.131 893.884,-328.149 904.336,-331.466 904.336,-331.466"/>
</g>
</g>
</svg>
