<?xml version="1.0" encoding="UTF-8" standalone="no"?>
<!DOCTYPE svg PUBLIC "-//W3C//DTD SVG 1.1//EN"
 "http://www.w3.org/Graphics/SVG/1.1/DTD/svg11.dtd">
<!-- Generated by graphviz version 2.38.0 (20140413.2041)
 -->
<!-- Title: models_diagram Pages: 1 -->
<svg width="1942pt" height="1270pt"
 viewBox="0.00 0.00 1942.19 1270.00" xmlns="http://www.w3.org/2000/svg" xmlns:xlink="http://www.w3.org/1999/xlink">
<g id="graph0" class="graph" transform="scale(1 1) rotate(0) translate(4 1266)">
<title>models_diagram</title>
<polygon fill="white" stroke="none" points="-4,4 -4,-1266 1938.19,-1266 1938.19,4 -4,4"/>
<!-- _diagram_info -->
<g id="node1" class="node"><title>_diagram_info</title>
<text text-anchor="start" x="8" y="-1205.6" font-family="Times,serif" font-size="13.00">Models diagram</text>
<text text-anchor="start" x="8" y="-1192.6" font-family="Times,serif" font-size="13.00">Date: Feb 16 2015 &#45; 23:55</text>
<text text-anchor="start" x="8" y="-1179.6" font-family="Times,serif" font-size="13.00">Migration version: 20150212192743</text>
<text text-anchor="start" x="8" y="-1166.6" font-family="Times,serif" font-size="13.00">Generated by RailRoady 1.3.0</text>
<text text-anchor="start" x="8" y="-1153.6" font-family="Times,serif" font-size="13.00">http://railroady.prestonlee.com</text>
</g>
<!-- Brand -->
<g id="node2" class="node"><title>Brand</title>
<path fill="none" stroke="black" d="M1042.18,-1133.5C1042.18,-1133.5 1151.19,-1133.5 1151.19,-1133.5 1157.19,-1133.5 1163.19,-1139.5 1163.19,-1145.5 1163.19,-1145.5 1163.19,-1221.5 1163.19,-1221.5 1163.19,-1227.5 1157.19,-1233.5 1151.19,-1233.5 1151.19,-1233.5 1042.18,-1233.5 1042.18,-1233.5 1036.18,-1233.5 1030.18,-1227.5 1030.18,-1221.5 1030.18,-1221.5 1030.18,-1145.5 1030.18,-1145.5 1030.18,-1139.5 1036.18,-1133.5 1042.18,-1133.5"/>
<text text-anchor="middle" x="1096.69" y="-1218.3" font-family="Times,serif" font-size="14.00">Brand</text>
<polyline fill="none" stroke="black" points="1030.18,-1211.5 1163.19,-1211.5 "/>
<text text-anchor="start" x="1038.18" y="-1196.3" font-family="Times,serif" font-size="14.00">id :integer</text>
<text text-anchor="start" x="1038.18" y="-1182.3" font-family="Times,serif" font-size="14.00">name :string</text>
<text text-anchor="start" x="1038.18" y="-1168.3" font-family="Times,serif" font-size="14.00">acronym :string</text>
<text text-anchor="start" x="1038.18" y="-1154.3" font-family="Times,serif" font-size="14.00">created_at :datetime</text>
<text text-anchor="start" x="1038.18" y="-1140.3" font-family="Times,serif" font-size="14.00">updated_at :datetime</text>
</g>
<!-- GenericCar -->
<g id="node7" class="node"><title>GenericCar</title>
<path fill="none" stroke="black" d="M402.293,-849.5C402.293,-849.5 561.083,-849.5 561.083,-849.5 567.083,-849.5 573.083,-855.5 573.083,-861.5 573.083,-861.5 573.083,-1021.5 573.083,-1021.5 573.083,-1027.5 567.083,-1033.5 561.083,-1033.5 561.083,-1033.5 402.293,-1033.5 402.293,-1033.5 396.293,-1033.5 390.293,-1027.5 390.293,-1021.5 390.293,-1021.5 390.293,-861.5 390.293,-861.5 390.293,-855.5 396.293,-849.5 402.293,-849.5"/>
<text text-anchor="middle" x="481.688" y="-1018.3" font-family="Times,serif" font-size="14.00">GenericCar</text>
<polyline fill="none" stroke="black" points="390.293,-1011.5 573.083,-1011.5 "/>
<text text-anchor="start" x="398.293" y="-996.3" font-family="Times,serif" font-size="14.00">id :integer</text>
<text text-anchor="start" x="398.293" y="-982.3" font-family="Times,serif" font-size="14.00">brand_id :string</text>
<text text-anchor="start" x="398.293" y="-968.3" font-family="Times,serif" font-size="14.00">model :string</text>
<text text-anchor="start" x="398.293" y="-954.3" font-family="Times,serif" font-size="14.00">doors_id :integer</text>
<text text-anchor="start" x="398.293" y="-940.3" font-family="Times,serif" font-size="14.00">first_generation_year :integer</text>
<text text-anchor="start" x="398.293" y="-926.3" font-family="Times,serif" font-size="14.00">last_generation_year :integer</text>
<text text-anchor="start" x="398.293" y="-912.3" font-family="Times,serif" font-size="14.00">code :string</text>
<text text-anchor="start" x="398.293" y="-898.3" font-family="Times,serif" font-size="14.00">number_of_generation :string</text>
<text text-anchor="start" x="398.293" y="-884.3" font-family="Times,serif" font-size="14.00">created_at :datetime</text>
<text text-anchor="start" x="398.293" y="-870.3" font-family="Times,serif" font-size="14.00">updated_at :datetime</text>
<text text-anchor="start" x="398.293" y="-856.3" font-family="Times,serif" font-size="14.00">gen_continues :boolean</text>
</g>
<!-- Brand&#45;&gt;GenericCar -->
<g id="edge1" class="edge"><title>Brand&#45;&gt;GenericCar</title>
<path fill="none" stroke="#157040" d="M1022.39,-1153.5C912.504,-1110.62 706.383,-1030.19 582.821,-981.967"/>
<ellipse fill="none" stroke="#157040" cx="1026.27" cy="-1155.02" rx="4.00001" ry="4.00001"/>
<polygon fill="#157040" stroke="#157040" points="582.651,-981.9 574.971,-974.073 577.993,-980.083 573.335,-978.265 573.335,-978.265 573.335,-978.265 577.993,-980.083 571.699,-982.457 582.651,-981.9 582.651,-981.9"/>
</g>
<!-- ModelAcronym -->
<g id="node14" class="node"><title>ModelAcronym</title>
<path fill="none" stroke="black" d="M1657.18,-884.5C1657.18,-884.5 1766.19,-884.5 1766.19,-884.5 1772.19,-884.5 1778.19,-890.5 1778.19,-896.5 1778.19,-896.5 1778.19,-986.5 1778.19,-986.5 1778.19,-992.5 1772.19,-998.5 1766.19,-998.5 1766.19,-998.5 1657.18,-998.5 1657.18,-998.5 1651.18,-998.5 1645.18,-992.5 1645.18,-986.5 1645.18,-986.5 1645.18,-896.5 1645.18,-896.5 1645.18,-890.5 1651.18,-884.5 1657.18,-884.5"/>
<text text-anchor="middle" x="1711.69" y="-983.3" font-family="Times,serif" font-size="14.00">ModelAcronym</text>
<polyline fill="none" stroke="black" points="1645.18,-976.5 1778.19,-976.5 "/>
<text text-anchor="start" x="1653.18" y="-961.3" font-family="Times,serif" font-size="14.00">id :integer</text>
<text text-anchor="start" x="1653.18" y="-947.3" font-family="Times,serif" font-size="14.00">brand_id :integer</text>
<text text-anchor="start" x="1653.18" y="-933.3" font-family="Times,serif" font-size="14.00">initials :string</text>
<text text-anchor="start" x="1653.18" y="-919.3" font-family="Times,serif" font-size="14.00">model :string</text>
<text text-anchor="start" x="1653.18" y="-905.3" font-family="Times,serif" font-size="14.00">created_at :datetime</text>
<text text-anchor="start" x="1653.18" y="-891.3" font-family="Times,serif" font-size="14.00">updated_at :datetime</text>
</g>
<!-- Brand&#45;&gt;ModelAcronym -->
<g id="edge2" class="edge"><title>Brand&#45;&gt;ModelAcronym</title>
<path fill="none" stroke="#af9d28" d="M1140.35,-1127.55C1150.03,-1118.6 1160.95,-1110.47 1172.69,-1105 1266.42,-1061.3 1548.87,-1123.63 1636.69,-1069 1659.46,-1054.83 1676.18,-1030.99 1687.97,-1007.8"/>
<ellipse fill="none" stroke="#af9d28" cx="1137.36" cy="-1130.43" rx="4.00002" ry="4.00002"/>
<polygon fill="#af9d28" stroke="#af9d28" points="1688.05,-1007.62 1696.46,-1000.58 1690.23,-1003.12 1692.4,-998.621 1692.4,-998.621 1692.4,-998.621 1690.23,-1003.12 1688.35,-996.661 1688.05,-1007.62 1688.05,-1007.62"/>
</g>
<!-- CarLikelihood -->
<g id="node3" class="node"><title>CarLikelihood</title>
<path fill="none" stroke="black" d="M262.972,-379.5C262.972,-379.5 384.404,-379.5 384.404,-379.5 390.404,-379.5 396.404,-385.5 396.404,-391.5 396.404,-391.5 396.404,-481.5 396.404,-481.5 396.404,-487.5 390.404,-493.5 384.404,-493.5 384.404,-493.5 262.972,-493.5 262.972,-493.5 256.972,-493.5 250.972,-487.5 250.972,-481.5 250.972,-481.5 250.972,-391.5 250.972,-391.5 250.972,-385.5 256.972,-379.5 262.972,-379.5"/>
<text text-anchor="middle" x="323.688" y="-478.3" font-family="Times,serif" font-size="14.00">CarLikelihood</text>
<polyline fill="none" stroke="black" points="250.972,-471.5 396.404,-471.5 "/>
<text text-anchor="start" x="258.972" y="-456.3" font-family="Times,serif" font-size="14.00">id :integer</text>
<text text-anchor="start" x="258.972" y="-442.3" font-family="Times,serif" font-size="14.00">car_type_id :integer</text>
<text text-anchor="start" x="258.972" y="-428.3" font-family="Times,serif" font-size="14.00">generic_car_id :integer</text>
<text text-anchor="start" x="258.972" y="-414.3" font-family="Times,serif" font-size="14.00">door_id :integer</text>
<text text-anchor="start" x="258.972" y="-400.3" font-family="Times,serif" font-size="14.00">created_at :datetime</text>
<text text-anchor="start" x="258.972" y="-386.3" font-family="Times,serif" font-size="14.00">updated_at :datetime</text>
</g>
<!-- Generation -->
<g id="node6" class="node"><title>Generation</title>
<path fill="none" stroke="black" d="M313.182,-186.5C313.182,-186.5 422.193,-186.5 422.193,-186.5 428.193,-186.5 434.193,-192.5 434.193,-198.5 434.193,-198.5 434.193,-260.5 434.193,-260.5 434.193,-266.5 428.193,-272.5 422.193,-272.5 422.193,-272.5 313.182,-272.5 313.182,-272.5 307.182,-272.5 301.182,-266.5 301.182,-260.5 301.182,-260.5 301.182,-198.5 301.182,-198.5 301.182,-192.5 307.182,-186.5 313.182,-186.5"/>
<text text-anchor="middle" x="367.688" y="-257.3" font-family="Times,serif" font-size="14.00">Generation</text>
<polyline fill="none" stroke="black" points="301.182,-250.5 434.193,-250.5 "/>
<text text-anchor="start" x="309.182" y="-235.3" font-family="Times,serif" font-size="14.00">id :integer</text>
<text text-anchor="start" x="309.182" y="-221.3" font-family="Times,serif" font-size="14.00">year :integer</text>
<text text-anchor="start" x="309.182" y="-207.3" font-family="Times,serif" font-size="14.00">created_at :datetime</text>
<text text-anchor="start" x="309.182" y="-193.3" font-family="Times,serif" font-size="14.00">updated_at :datetime</text>
</g>
<!-- CarLikelihood&#45;&gt;Generation -->
<g id="edge4" class="edge"><title>CarLikelihood&#45;&gt;Generation</title>
<path fill="none" stroke="#9a6715" d="M337.876,-369.395C343.91,-341.281 350.846,-308.969 356.508,-282.589"/>
<polygon fill="#9a6715" stroke="#9a6715" points="337.81,-369.706 331.311,-378.538 336.76,-374.594 335.711,-379.483 335.711,-379.483 335.711,-379.483 336.76,-374.594 340.111,-380.427 337.81,-369.706 337.81,-369.706"/>
<polygon fill="#9a6715" stroke="#9a6715" points="356.512,-282.567 363.011,-273.734 357.562,-277.678 358.611,-272.79 358.611,-272.79 358.611,-272.79 357.562,-277.678 354.211,-271.845 356.512,-282.567 356.512,-282.567"/>
</g>
<!-- GenericCarGeneration -->
<g id="node8" class="node"><title>GenericCarGeneration</title>
<path fill="none" stroke="black" d="M306.972,-0.5C306.972,-0.5 428.404,-0.5 428.404,-0.5 434.404,-0.5 440.404,-6.5 440.404,-12.5 440.404,-12.5 440.404,-88.5 440.404,-88.5 440.404,-94.5 434.404,-100.5 428.404,-100.5 428.404,-100.5 306.972,-100.5 306.972,-100.5 300.972,-100.5 294.972,-94.5 294.972,-88.5 294.972,-88.5 294.972,-12.5 294.972,-12.5 294.972,-6.5 300.972,-0.5 306.972,-0.5"/>
<text text-anchor="middle" x="367.688" y="-85.3" font-family="Times,serif" font-size="14.00">GenericCarGeneration</text>
<polyline fill="none" stroke="black" points="294.972,-78.5 440.404,-78.5 "/>
<text text-anchor="start" x="302.972" y="-63.3" font-family="Times,serif" font-size="14.00">id :integer</text>
<text text-anchor="start" x="302.972" y="-49.3" font-family="Times,serif" font-size="14.00">generation_id :integer</text>
<text text-anchor="start" x="302.972" y="-35.3" font-family="Times,serif" font-size="14.00">created_at :datetime</text>
<text text-anchor="start" x="302.972" y="-21.3" font-family="Times,serif" font-size="14.00">updated_at :datetime</text>
<text text-anchor="start" x="302.972" y="-7.3" font-family="Times,serif" font-size="14.00">generic_car_id :integer</text>
</g>
<!-- CarLikelihood&#45;&gt;GenericCarGeneration -->
<g id="edge3" class="edge"><title>CarLikelihood&#45;&gt;GenericCarGeneration</title>
<path fill="none" stroke="#cd6bfa" d="M300.341,-371.592C281.469,-309.629 262.424,-213.97 291.688,-137 295.432,-127.152 300.887,-117.715 307.185,-108.94"/>
<ellipse fill="none" stroke="#cd6bfa" cx="301.568" cy="-375.534" rx="4.00001" ry="4.00001"/>
<polygon fill="#cd6bfa" stroke="#cd6bfa" points="307.38,-108.684 317.027,-103.471 310.416,-104.712 313.452,-100.739 313.452,-100.739 313.452,-100.739 310.416,-104.712 309.876,-98.0064 307.38,-108.684 307.38,-108.684"/>
</g>
<!-- CarType -->
<g id="node4" class="node"><title>CarType</title>
<path fill="none" stroke="black" d="M237.182,-1133.5C237.182,-1133.5 346.193,-1133.5 346.193,-1133.5 352.193,-1133.5 358.193,-1139.5 358.193,-1145.5 358.193,-1145.5 358.193,-1221.5 358.193,-1221.5 358.193,-1227.5 352.193,-1233.5 346.193,-1233.5 346.193,-1233.5 237.182,-1233.5 237.182,-1233.5 231.182,-1233.5 225.182,-1227.5 225.182,-1221.5 225.182,-1221.5 225.182,-1145.5 225.182,-1145.5 225.182,-1139.5 231.182,-1133.5 237.182,-1133.5"/>
<text text-anchor="middle" x="291.688" y="-1218.3" font-family="Times,serif" font-size="14.00">CarType</text>
<polyline fill="none" stroke="black" points="225.182,-1211.5 358.193,-1211.5 "/>
<text text-anchor="start" x="233.182" y="-1196.3" font-family="Times,serif" font-size="14.00">id :integer</text>
<text text-anchor="start" x="233.182" y="-1182.3" font-family="Times,serif" font-size="14.00">name :string</text>
<text text-anchor="start" x="233.182" y="-1168.3" font-family="Times,serif" font-size="14.00">doors :string</text>
<text text-anchor="start" x="233.182" y="-1154.3" font-family="Times,serif" font-size="14.00">created_at :datetime</text>
<text text-anchor="start" x="233.182" y="-1140.3" font-family="Times,serif" font-size="14.00">updated_at :datetime</text>
</g>
<!-- CarType&#45;&gt;CarLikelihood -->
<g id="edge5" class="edge"><title>CarType&#45;&gt;CarLikelihood</title>
<path fill="none" stroke="#24f7b7" d="M267.026,-1125.69C221.495,-1012.09 135.852,-750.717 215.688,-551 222.91,-532.933 234.528,-516.102 247.522,-501.225"/>
<ellipse fill="none" stroke="#24f7b7" cx="268.599" cy="-1129.57" rx="4.00001" ry="4.00001"/>
<polygon fill="#24f7b7" stroke="#24f7b7" points="247.7,-501.028 257.756,-496.654 251.063,-497.328 254.426,-493.628 254.426,-493.628 254.426,-493.628 251.063,-497.328 251.096,-490.601 247.7,-501.028 247.7,-501.028"/>
</g>
<!-- CarType&#45;&gt;GenericCar -->
<g id="edge7" class="edge"><title>CarType&#45;&gt;GenericCar</title>
<path fill="none" stroke="#f2a21a" d="M336.866,-1125.43C356.676,-1100.41 380.516,-1070.3 403.084,-1041.79"/>
<polygon fill="#f2a21a" stroke="#f2a21a" points="336.803,-1125.51 327.067,-1130.56 333.699,-1129.43 330.596,-1133.35 330.596,-1133.35 330.596,-1133.35 333.699,-1129.43 334.124,-1136.15 336.803,-1125.51 336.803,-1125.51"/>
<polygon fill="#f2a21a" stroke="#f2a21a" points="403.204,-1041.64 412.939,-1036.59 406.308,-1037.72 409.411,-1033.8 409.411,-1033.8 409.411,-1033.8 406.308,-1037.72 405.883,-1031 403.204,-1041.64 403.204,-1041.64"/>
</g>
<!-- TypeLikelihood -->
<g id="node25" class="node"><title>TypeLikelihood</title>
<path fill="none" stroke="black" d="M237.182,-614.5C237.182,-614.5 346.193,-614.5 346.193,-614.5 352.193,-614.5 358.193,-620.5 358.193,-626.5 358.193,-626.5 358.193,-702.5 358.193,-702.5 358.193,-708.5 352.193,-714.5 346.193,-714.5 346.193,-714.5 237.182,-714.5 237.182,-714.5 231.182,-714.5 225.182,-708.5 225.182,-702.5 225.182,-702.5 225.182,-626.5 225.182,-626.5 225.182,-620.5 231.182,-614.5 237.182,-614.5"/>
<text text-anchor="middle" x="291.688" y="-699.3" font-family="Times,serif" font-size="14.00">TypeLikelihood</text>
<polyline fill="none" stroke="black" points="225.182,-692.5 358.193,-692.5 "/>
<text text-anchor="start" x="233.182" y="-677.3" font-family="Times,serif" font-size="14.00">id :integer</text>
<text text-anchor="start" x="233.182" y="-663.3" font-family="Times,serif" font-size="14.00">generic_car :integer</text>
<text text-anchor="start" x="233.182" y="-649.3" font-family="Times,serif" font-size="14.00">car_type :integer</text>
<text text-anchor="start" x="233.182" y="-635.3" font-family="Times,serif" font-size="14.00">created_at :datetime</text>
<text text-anchor="start" x="233.182" y="-621.3" font-family="Times,serif" font-size="14.00">updated_at :datetime</text>
</g>
<!-- CarType&#45;&gt;TypeLikelihood -->
<g id="edge6" class="edge"><title>CarType&#45;&gt;TypeLikelihood</title>
<path fill="none" stroke="#df608a" d="M291.688,-1125.34C291.688,-1026.62 291.688,-825.159 291.688,-724.908"/>
<ellipse fill="none" stroke="#df608a" cx="291.688" cy="-1129.4" rx="4" ry="4"/>
<polygon fill="#df608a" stroke="#df608a" points="291.688,-724.654 296.188,-714.654 291.688,-719.654 291.688,-714.654 291.688,-714.654 291.688,-714.654 291.688,-719.654 287.188,-714.654 291.688,-724.654 291.688,-724.654"/>
</g>
<!-- FamilyAcronym -->
<g id="node5" class="node"><title>FamilyAcronym</title>
<path fill="none" stroke="black" d="M723.244,-386.5C723.244,-386.5 864.131,-386.5 864.131,-386.5 870.131,-386.5 876.131,-392.5 876.131,-398.5 876.131,-398.5 876.131,-474.5 876.131,-474.5 876.131,-480.5 870.131,-486.5 864.131,-486.5 864.131,-486.5 723.244,-486.5 723.244,-486.5 717.244,-486.5 711.244,-480.5 711.244,-474.5 711.244,-474.5 711.244,-398.5 711.244,-398.5 711.244,-392.5 717.244,-386.5 723.244,-386.5"/>
<text text-anchor="middle" x="793.688" y="-471.3" font-family="Times,serif" font-size="14.00">FamilyAcronym</text>
<polyline fill="none" stroke="black" points="711.244,-464.5 876.131,-464.5 "/>
<text text-anchor="start" x="719.244" y="-449.3" font-family="Times,serif" font-size="14.00">id :integer</text>
<text text-anchor="start" x="719.244" y="-435.3" font-family="Times,serif" font-size="14.00">code :string</text>
<text text-anchor="start" x="719.244" y="-421.3" font-family="Times,serif" font-size="14.00">generic_family_id :integer</text>
<text text-anchor="start" x="719.244" y="-407.3" font-family="Times,serif" font-size="14.00">created_at :datetime</text>
<text text-anchor="start" x="719.244" y="-393.3" font-family="Times,serif" font-size="14.00">updated_at :datetime</text>
</g>
<!-- Generation&#45;&gt;GenericCarGeneration -->
<g id="edge8" class="edge"><title>Generation&#45;&gt;GenericCarGeneration</title>
<path fill="none" stroke="#ec4b7b" d="M367.688,-178.074C367.688,-157.139 367.688,-132.691 367.688,-110.893"/>
<ellipse fill="none" stroke="#ec4b7b" cx="367.688" cy="-182.104" rx="4" ry="4"/>
<polygon fill="#ec4b7b" stroke="#ec4b7b" points="367.688,-110.761 372.188,-100.761 367.688,-105.761 367.688,-100.761 367.688,-100.761 367.688,-100.761 367.688,-105.761 363.188,-100.761 367.688,-110.761 367.688,-110.761"/>
</g>
<!-- GenericCar&#45;&gt;CarLikelihood -->
<g id="edge14" class="edge"><title>GenericCar&#45;&gt;CarLikelihood</title>
<path fill="none" stroke="#021f78" d="M434.404,-841.891C425.636,-821.112 417.202,-799.09 410.688,-778 380.385,-679.89 395.919,-649.726 367.688,-551 363.189,-535.267 357.386,-518.668 351.48,-503.166"/>
<ellipse fill="none" stroke="#021f78" cx="436.075" cy="-845.807" rx="4.00002" ry="4.00002"/>
<polygon fill="#021f78" stroke="#021f78" points="351.415,-502.997 351.996,-492.047 349.607,-498.335 347.8,-493.673 347.8,-493.673 347.8,-493.673 349.607,-498.335 343.604,-495.3 351.415,-502.997 351.415,-502.997"/>
</g>
<!-- GenericCar&#45;&gt;Generation -->
<g id="edge12" class="edge"><title>GenericCar&#45;&gt;Generation</title>
<path fill="none" stroke="#e4f0b8" d="M459.554,-839.388C455.57,-819.122 451.725,-797.933 448.688,-778 420.426,-592.498 442.201,-542.056 405.688,-358 400.654,-332.625 392.751,-305.049 385.453,-282.055"/>
<polygon fill="#e4f0b8" stroke="#e4f0b8" points="459.565,-839.446 457.104,-850.132 460.541,-844.35 461.518,-849.253 461.518,-849.253 461.518,-849.253 460.541,-844.35 465.931,-848.375 459.565,-839.446 459.565,-839.446"/>
<polygon fill="#e4f0b8" stroke="#e4f0b8" points="385.442,-282.018 386.656,-271.119 383.907,-277.259 382.373,-272.5 382.373,-272.5 382.373,-272.5 383.907,-277.259 378.09,-273.881 385.442,-282.018 385.442,-282.018"/>
</g>
<!-- GenericCar&#45;&gt;GenericCarGeneration -->
<g id="edge11" class="edge"><title>GenericCar&#45;&gt;GenericCarGeneration</title>
<path fill="none" stroke="#adf4a6" d="M477.858,-841.337C469.581,-630.001 450.244,-153.09 443.688,-137 439.671,-127.143 434.005,-117.666 427.557,-108.842"/>
<ellipse fill="none" stroke="#adf4a6" cx="478.015" cy="-845.359" rx="4" ry="4"/>
<polygon fill="#adf4a6" stroke="#adf4a6" points="427.556,-108.841 425,-98.1769 424.498,-104.885 421.44,-100.929 421.44,-100.929 421.44,-100.929 424.498,-104.885 417.88,-103.682 427.556,-108.841 427.556,-108.841"/>
</g>
<!-- GenericFamily -->
<g id="node9" class="node"><title>GenericFamily</title>
<path fill="none" stroke="black" d="M589.748,-614.5C589.748,-614.5 723.628,-614.5 723.628,-614.5 729.628,-614.5 735.628,-620.5 735.628,-626.5 735.628,-626.5 735.628,-702.5 735.628,-702.5 735.628,-708.5 729.628,-714.5 723.628,-714.5 723.628,-714.5 589.748,-714.5 589.748,-714.5 583.748,-714.5 577.748,-708.5 577.748,-702.5 577.748,-702.5 577.748,-626.5 577.748,-626.5 577.748,-620.5 583.748,-614.5 589.748,-614.5"/>
<text text-anchor="middle" x="656.688" y="-699.3" font-family="Times,serif" font-size="14.00">GenericFamily</text>
<polyline fill="none" stroke="black" points="577.748,-692.5 735.628,-692.5 "/>
<text text-anchor="start" x="585.748" y="-677.3" font-family="Times,serif" font-size="14.00">id :integer</text>
<text text-anchor="start" x="585.748" y="-663.3" font-family="Times,serif" font-size="14.00">generic_spare_id :integer</text>
<text text-anchor="start" x="585.748" y="-649.3" font-family="Times,serif" font-size="14.00">description :text</text>
<text text-anchor="start" x="585.748" y="-635.3" font-family="Times,serif" font-size="14.00">created_at :datetime</text>
<text text-anchor="start" x="585.748" y="-621.3" font-family="Times,serif" font-size="14.00">updated_at :datetime</text>
</g>
<!-- GenericCar&#45;&gt;GenericFamily -->
<g id="edge15" class="edge"><title>GenericCar&#45;&gt;GenericFamily</title>
<path fill="none" stroke="#7d2e76" d="M545.123,-840.816C570.159,-801.473 598.045,-757.652 619.675,-723.663"/>
<polygon fill="#7d2e76" stroke="#7d2e76" points="545.086,-840.874 535.921,-846.895 542.402,-845.093 539.717,-849.311 539.717,-849.311 539.717,-849.311 542.402,-845.093 543.514,-851.727 545.086,-840.874 545.086,-840.874"/>
<polygon fill="#7d2e76" stroke="#7d2e76" points="619.948,-723.233 629.114,-717.212 622.633,-719.015 625.317,-714.797 625.317,-714.797 625.317,-714.797 622.633,-719.015 621.521,-712.381 619.948,-723.233 619.948,-723.233"/>
</g>
<!-- GenericFittable -->
<g id="node10" class="node"><title>GenericFittable</title>
<path fill="none" stroke="black" d="M580.748,-179.5C580.748,-179.5 714.628,-179.5 714.628,-179.5 720.628,-179.5 726.628,-185.5 726.628,-191.5 726.628,-191.5 726.628,-267.5 726.628,-267.5 726.628,-273.5 720.628,-279.5 714.628,-279.5 714.628,-279.5 580.748,-279.5 580.748,-279.5 574.748,-279.5 568.748,-273.5 568.748,-267.5 568.748,-267.5 568.748,-191.5 568.748,-191.5 568.748,-185.5 574.748,-179.5 580.748,-179.5"/>
<text text-anchor="middle" x="647.688" y="-264.3" font-family="Times,serif" font-size="14.00">GenericFittable</text>
<polyline fill="none" stroke="black" points="568.748,-257.5 726.628,-257.5 "/>
<text text-anchor="start" x="576.748" y="-242.3" font-family="Times,serif" font-size="14.00">id :integer</text>
<text text-anchor="start" x="576.748" y="-228.3" font-family="Times,serif" font-size="14.00">generic_car_id :integer</text>
<text text-anchor="start" x="576.748" y="-214.3" font-family="Times,serif" font-size="14.00">generic_spare_id :integer</text>
<text text-anchor="start" x="576.748" y="-200.3" font-family="Times,serif" font-size="14.00">created_at :datetime</text>
<text text-anchor="start" x="576.748" y="-186.3" font-family="Times,serif" font-size="14.00">updated_at :datetime</text>
</g>
<!-- GenericCar&#45;&gt;GenericFittable -->
<g id="edge10" class="edge"><title>GenericCar&#45;&gt;GenericFittable</title>
<path fill="none" stroke="#c530ce" d="M479.795,-841.063C478.476,-697.826 481.789,-441.462 519.688,-358 531.926,-331.048 552.537,-306.64 573.683,-286.564"/>
<ellipse fill="none" stroke="#c530ce" cx="479.839" cy="-845.486" rx="4" ry="4"/>
<polygon fill="#c530ce" stroke="#c530ce" points="573.827,-286.431 584.226,-282.952 577.499,-283.039 581.172,-279.646 581.172,-279.646 581.172,-279.646 577.499,-283.039 578.119,-276.34 573.827,-286.431 573.827,-286.431"/>
</g>
<!-- StockCar -->
<g id="node20" class="node"><title>StockCar</title>
<path fill="none" stroke="black" d="M1298.07,-551.5C1298.07,-551.5 1441.31,-551.5 1441.31,-551.5 1447.31,-551.5 1453.31,-557.5 1453.31,-563.5 1453.31,-563.5 1453.31,-765.5 1453.31,-765.5 1453.31,-771.5 1447.31,-777.5 1441.31,-777.5 1441.31,-777.5 1298.07,-777.5 1298.07,-777.5 1292.07,-777.5 1286.07,-771.5 1286.07,-765.5 1286.07,-765.5 1286.07,-563.5 1286.07,-563.5 1286.07,-557.5 1292.07,-551.5 1298.07,-551.5"/>
<text text-anchor="middle" x="1369.69" y="-762.3" font-family="Times,serif" font-size="14.00">StockCar</text>
<polyline fill="none" stroke="black" points="1286.07,-755.5 1453.31,-755.5 "/>
<text text-anchor="start" x="1294.07" y="-740.3" font-family="Times,serif" font-size="14.00">id :integer</text>
<text text-anchor="start" x="1294.07" y="-726.3" font-family="Times,serif" font-size="14.00">prevaluation_id :integer</text>
<text text-anchor="start" x="1294.07" y="-712.3" font-family="Times,serif" font-size="14.00">generic_car_id :integer</text>
<text text-anchor="start" x="1294.07" y="-698.3" font-family="Times,serif" font-size="14.00">warehouse_id :integer</text>
<text text-anchor="start" x="1294.07" y="-684.3" font-family="Times,serif" font-size="14.00">color :string</text>
<text text-anchor="start" x="1294.07" y="-670.3" font-family="Times,serif" font-size="14.00">door_number :integer</text>
<text text-anchor="start" x="1294.07" y="-656.3" font-family="Times,serif" font-size="14.00">serie :string</text>
<text text-anchor="start" x="1294.07" y="-642.3" font-family="Times,serif" font-size="14.00">motor :string</text>
<text text-anchor="start" x="1294.07" y="-628.3" font-family="Times,serif" font-size="14.00">license_plates :string</text>
<text text-anchor="start" x="1294.07" y="-614.3" font-family="Times,serif" font-size="14.00">inventory_description :text</text>
<text text-anchor="start" x="1294.07" y="-600.3" font-family="Times,serif" font-size="14.00">special_equipment :text</text>
<text text-anchor="start" x="1294.07" y="-586.3" font-family="Times,serif" font-size="14.00">economic_number :string</text>
<text text-anchor="start" x="1294.07" y="-572.3" font-family="Times,serif" font-size="14.00">created_at :datetime</text>
<text text-anchor="start" x="1294.07" y="-558.3" font-family="Times,serif" font-size="14.00">updated_at :datetime</text>
</g>
<!-- GenericCar&#45;&gt;StockCar -->
<g id="edge9" class="edge"><title>GenericCar&#45;&gt;StockCar</title>
<path fill="none" stroke="#362bdb" d="M581.4,-924.221C714.629,-900.718 956.775,-851.831 1153.69,-778 1195.56,-762.3 1239.71,-740.368 1277.1,-720.035"/>
<ellipse fill="none" stroke="#362bdb" cx="577.116" cy="-924.973" rx="4.00001" ry="4.00001"/>
<polygon fill="#362bdb" stroke="#362bdb" points="1277.19,-719.987 1288.12,-719.126 1281.57,-717.583 1285.96,-715.18 1285.96,-715.18 1285.96,-715.18 1281.57,-717.583 1283.79,-711.234 1277.19,-719.987 1277.19,-719.987"/>
</g>
<!-- GenericCar&#45;&gt;TypeLikelihood -->
<g id="edge13" class="edge"><title>GenericCar&#45;&gt;TypeLikelihood</title>
<path fill="none" stroke="#76c779" d="M414.108,-842.687C386.515,-802.75 355.546,-757.927 331.661,-723.356"/>
<ellipse fill="none" stroke="#76c779" cx="416.411" cy="-846.02" rx="4.00002" ry="4.00002"/>
<polygon fill="#76c779" stroke="#76c779" points="331.432,-723.024 329.449,-712.239 328.589,-718.91 325.747,-714.797 325.747,-714.797 325.747,-714.797 328.589,-718.91 322.045,-717.354 331.432,-723.024 331.432,-723.024"/>
</g>
<!-- GenericFamily&#45;&gt;CarLikelihood -->
<g id="edge16" class="edge"><title>GenericFamily&#45;&gt;CarLikelihood</title>
<path fill="none" stroke="#c075a0" d="M577.492,-609.751C525.413,-574.407 457.444,-528.277 404.952,-492.652"/>
<ellipse fill="none" stroke="#c075a0" cx="581.122" cy="-612.215" rx="4.00002" ry="4.00002"/>
<polygon fill="#c075a0" stroke="#c075a0" points="404.939,-492.644 399.192,-483.304 400.802,-489.836 396.665,-487.028 396.665,-487.028 396.665,-487.028 400.802,-489.836 394.138,-490.751 404.939,-492.644 404.939,-492.644"/>
</g>
<!-- GenericFamily&#45;&gt;FamilyAcronym -->
<g id="edge19" class="edge"><title>GenericFamily&#45;&gt;FamilyAcronym</title>
<path fill="none" stroke="#89f1f7" d="M690.805,-607.218C711.383,-573.272 737.55,-530.107 758.344,-495.804"/>
<ellipse fill="none" stroke="#89f1f7" cx="688.488" cy="-611.041" rx="4.00002" ry="4.00002"/>
<polygon fill="#89f1f7" stroke="#89f1f7" points="758.599,-495.384 767.631,-489.165 761.191,-491.108 763.783,-486.833 763.783,-486.833 763.783,-486.833 761.191,-491.108 759.934,-484.5 758.599,-495.384 758.599,-495.384"/>
</g>
<!-- GenericSpare -->
<g id="node11" class="node"><title>GenericSpare</title>
<path fill="none" stroke="black" d="M943.396,-358.5C943.396,-358.5 1053.98,-358.5 1053.98,-358.5 1059.98,-358.5 1065.98,-364.5 1065.98,-370.5 1065.98,-370.5 1065.98,-502.5 1065.98,-502.5 1065.98,-508.5 1059.98,-514.5 1053.98,-514.5 1053.98,-514.5 943.396,-514.5 943.396,-514.5 937.396,-514.5 931.396,-508.5 931.396,-502.5 931.396,-502.5 931.396,-370.5 931.396,-370.5 931.396,-364.5 937.396,-358.5 943.396,-358.5"/>
<text text-anchor="middle" x="998.688" y="-499.3" font-family="Times,serif" font-size="14.00">GenericSpare</text>
<polyline fill="none" stroke="black" points="931.396,-492.5 1065.98,-492.5 "/>
<text text-anchor="start" x="939.396" y="-477.3" font-family="Times,serif" font-size="14.00">id :integer</text>
<text text-anchor="start" x="939.396" y="-463.3" font-family="Times,serif" font-size="14.00">brand :string</text>
<text text-anchor="start" x="939.396" y="-449.3" font-family="Times,serif" font-size="14.00">type_of_spare :string</text>
<text text-anchor="start" x="939.396" y="-435.3" font-family="Times,serif" font-size="14.00">name :string</text>
<text text-anchor="start" x="939.396" y="-421.3" font-family="Times,serif" font-size="14.00">region :string</text>
<text text-anchor="start" x="939.396" y="-407.3" font-family="Times,serif" font-size="14.00">description :text</text>
<text text-anchor="start" x="939.396" y="-393.3" font-family="Times,serif" font-size="14.00">code :string</text>
<text text-anchor="start" x="939.396" y="-379.3" font-family="Times,serif" font-size="14.00">created_at :datetime</text>
<text text-anchor="start" x="939.396" y="-365.3" font-family="Times,serif" font-size="14.00">updated_at :datetime</text>
</g>
<!-- GenericFamily&#45;&gt;GenericSpare -->
<g id="edge18" class="edge"><title>GenericFamily&#45;&gt;GenericSpare</title>
<path fill="none" stroke="#9dd23e" d="M742.652,-609.137C773.785,-590.083 809.462,-568.968 842.688,-551 875.211,-533.412 887.285,-536.042 917.688,-515 919.368,-513.837 921.047,-512.639 922.721,-511.411"/>
<polygon fill="#9dd23e" stroke="#9dd23e" points="742.519,-609.219 731.643,-610.618 738.258,-611.836 733.998,-614.453 733.998,-614.453 733.998,-614.453 738.258,-611.836 736.353,-618.287 742.519,-609.219 742.519,-609.219"/>
<polygon fill="#9dd23e" stroke="#9dd23e" points="923.104,-511.118 933.78,-508.615 927.075,-508.08 931.046,-505.041 931.046,-505.041 931.046,-505.041 927.075,-508.08 928.311,-501.468 923.104,-511.118 923.104,-511.118"/>
</g>
<!-- SpareLikelihood -->
<g id="node19" class="node"><title>SpareLikelihood</title>
<path fill="none" stroke="black" d="M833.244,-179.5C833.244,-179.5 974.131,-179.5 974.131,-179.5 980.131,-179.5 986.131,-185.5 986.131,-191.5 986.131,-191.5 986.131,-267.5 986.131,-267.5 986.131,-273.5 980.131,-279.5 974.131,-279.5 974.131,-279.5 833.244,-279.5 833.244,-279.5 827.244,-279.5 821.244,-273.5 821.244,-267.5 821.244,-267.5 821.244,-191.5 821.244,-191.5 821.244,-185.5 827.244,-179.5 833.244,-179.5"/>
<text text-anchor="middle" x="903.688" y="-264.3" font-family="Times,serif" font-size="14.00">SpareLikelihood</text>
<polyline fill="none" stroke="black" points="821.244,-257.5 986.131,-257.5 "/>
<text text-anchor="start" x="829.244" y="-242.3" font-family="Times,serif" font-size="14.00">id :integer</text>
<text text-anchor="start" x="829.244" y="-228.3" font-family="Times,serif" font-size="14.00">generic_spare_id :integer</text>
<text text-anchor="start" x="829.244" y="-214.3" font-family="Times,serif" font-size="14.00">generic_family_id :integer</text>
<text text-anchor="start" x="829.244" y="-200.3" font-family="Times,serif" font-size="14.00">created_at :datetime</text>
<text text-anchor="start" x="829.244" y="-186.3" font-family="Times,serif" font-size="14.00">updated_at :datetime</text>
</g>
<!-- GenericFamily&#45;&gt;SpareLikelihood -->
<g id="edge17" class="edge"><title>GenericFamily&#45;&gt;SpareLikelihood</title>
<path fill="none" stroke="#3f5081" d="M742.729,-612.59C803.639,-575.703 876.006,-529.814 884.688,-515 925.147,-445.962 922.087,-350.676 914.335,-289.817"/>
<ellipse fill="none" stroke="#3f5081" cx="739.165" cy="-614.743" rx="4.00002" ry="4.00002"/>
<polygon fill="#3f5081" stroke="#3f5081" points="914.295,-289.521 917.409,-279.006 913.622,-284.566 912.95,-279.612 912.95,-279.612 912.95,-279.612 913.622,-284.566 908.491,-280.217 914.295,-289.521 914.295,-289.521"/>
</g>
<!-- StockFamily -->
<g id="node22" class="node"><title>StockFamily</title>
<path fill="none" stroke="black" d="M540.244,-393.5C540.244,-393.5 681.131,-393.5 681.131,-393.5 687.131,-393.5 693.131,-399.5 693.131,-405.5 693.131,-405.5 693.131,-467.5 693.131,-467.5 693.131,-473.5 687.131,-479.5 681.131,-479.5 681.131,-479.5 540.244,-479.5 540.244,-479.5 534.244,-479.5 528.244,-473.5 528.244,-467.5 528.244,-467.5 528.244,-405.5 528.244,-405.5 528.244,-399.5 534.244,-393.5 540.244,-393.5"/>
<text text-anchor="middle" x="610.688" y="-464.3" font-family="Times,serif" font-size="14.00">StockFamily</text>
<polyline fill="none" stroke="black" points="528.244,-457.5 693.131,-457.5 "/>
<text text-anchor="start" x="536.244" y="-442.3" font-family="Times,serif" font-size="14.00">id :integer</text>
<text text-anchor="start" x="536.244" y="-428.3" font-family="Times,serif" font-size="14.00">generic_family_id :integer</text>
<text text-anchor="start" x="536.244" y="-414.3" font-family="Times,serif" font-size="14.00">created_at :datetime</text>
<text text-anchor="start" x="536.244" y="-400.3" font-family="Times,serif" font-size="14.00">updated_at :datetime</text>
</g>
<!-- GenericFamily&#45;&gt;StockFamily -->
<g id="edge20" class="edge"><title>GenericFamily&#45;&gt;StockFamily</title>
<path fill="none" stroke="#cae022" d="M645.033,-606.24C637.728,-570.351 628.386,-524.454 621.29,-489.589"/>
<ellipse fill="none" stroke="#cae022" cx="645.909" cy="-610.542" rx="4.00001" ry="4.00001"/>
<polygon fill="#cae022" stroke="#cae022" points="621.253,-489.406 623.668,-478.71 620.256,-484.507 619.258,-479.607 619.258,-479.607 619.258,-479.607 620.256,-484.507 614.849,-480.505 621.253,-489.406 621.253,-489.406"/>
</g>
<!-- GenericSpare&#45;&gt;GenericCar -->
<g id="edge22" class="edge"><title>GenericSpare&#45;&gt;GenericCar</title>
<path fill="none" stroke="#b9c7cf" d="M947.533,-523.534C900.989,-597.007 827.12,-702.479 744.688,-778 696.241,-822.385 633.988,-861.479 582.211,-890.194"/>
<polygon fill="#b9c7cf" stroke="#b9c7cf" points="947.744,-523.198 956.881,-517.134 950.409,-518.967 953.073,-514.736 953.073,-514.736 953.073,-514.736 950.409,-518.967 949.265,-512.338 947.744,-523.198 947.744,-523.198"/>
<polygon fill="#b9c7cf" stroke="#b9c7cf" points="582.099,-890.256 571.167,-891.128 577.717,-892.664 573.335,-895.072 573.335,-895.072 573.335,-895.072 577.717,-892.664 575.502,-899.016 582.099,-890.256 582.099,-890.256"/>
</g>
<!-- GenericSpare&#45;&gt;GenericFittable -->
<g id="edge21" class="edge"><title>GenericSpare&#45;&gt;GenericFittable</title>
<path fill="none" stroke="#065d1d" d="M924.451,-382.955C911.392,-374.313 897.785,-365.68 884.688,-358 853.825,-339.903 844.339,-338.679 812.688,-322 787.653,-308.808 760.725,-294.099 736.032,-280.4"/>
<ellipse fill="none" stroke="#065d1d" cx="927.897" cy="-385.252" rx="4.00002" ry="4.00002"/>
<polygon fill="#065d1d" stroke="#065d1d" points="735.783,-280.262 729.229,-271.47 731.413,-277.832 727.043,-275.403 727.043,-275.403 727.043,-275.403 731.413,-277.832 724.856,-279.336 735.783,-280.262 735.783,-280.262"/>
</g>
<!-- GenericSpareImage -->
<g id="node12" class="node"><title>GenericSpareImage</title>
<path fill="none" stroke="black" d="M1016.24,-186.5C1016.24,-186.5 1143.14,-186.5 1143.14,-186.5 1149.14,-186.5 1155.14,-192.5 1155.14,-198.5 1155.14,-198.5 1155.14,-260.5 1155.14,-260.5 1155.14,-266.5 1149.14,-272.5 1143.14,-272.5 1143.14,-272.5 1016.24,-272.5 1016.24,-272.5 1010.24,-272.5 1004.24,-266.5 1004.24,-260.5 1004.24,-260.5 1004.24,-198.5 1004.24,-198.5 1004.24,-192.5 1010.24,-186.5 1016.24,-186.5"/>
<text text-anchor="middle" x="1079.69" y="-257.3" font-family="Times,serif" font-size="14.00">GenericSpareImage</text>
<polyline fill="none" stroke="black" points="1004.24,-250.5 1155.14,-250.5 "/>
<text text-anchor="start" x="1012.24" y="-235.3" font-family="Times,serif" font-size="14.00">id :integer</text>
<text text-anchor="start" x="1012.24" y="-221.3" font-family="Times,serif" font-size="14.00">generic_spare_id :string</text>
<text text-anchor="start" x="1012.24" y="-207.3" font-family="Times,serif" font-size="14.00">created_at :datetime</text>
<text text-anchor="start" x="1012.24" y="-193.3" font-family="Times,serif" font-size="14.00">updated_at :datetime</text>
</g>
<!-- GenericSpare&#45;&gt;GenericSpareImage -->
<g id="edge25" class="edge"><title>GenericSpare&#45;&gt;GenericSpareImage</title>
<path fill="none" stroke="#8f8c6c" d="M1032.18,-350.742C1041.37,-327.481 1051.06,-302.963 1059.27,-282.178"/>
<ellipse fill="none" stroke="#8f8c6c" cx="1030.66" cy="-354.57" rx="4.00001" ry="4.00001"/>
<polygon fill="#8f8c6c" stroke="#8f8c6c" points="1059.38,-281.904 1067.24,-274.257 1061.21,-277.254 1063.05,-272.603 1063.05,-272.603 1063.05,-272.603 1061.21,-277.254 1058.87,-270.95 1059.38,-281.904 1059.38,-281.904"/>
</g>
<!-- GenericSpare&#45;&gt;SpareLikelihood -->
<g id="edge23" class="edge"><title>GenericSpare&#45;&gt;SpareLikelihood</title>
<path fill="none" stroke="#cf2316" d="M959.45,-350.828C949.809,-330.026 939.701,-308.213 930.779,-288.959"/>
<ellipse fill="none" stroke="#cf2316" cx="961.226" cy="-354.661" rx="4.00002" ry="4.00002"/>
<polygon fill="#cf2316" stroke="#cf2316" points="930.706,-288.802 930.584,-277.837 928.603,-284.265 926.501,-279.729 926.501,-279.729 926.501,-279.729 928.603,-284.265 922.418,-281.621 930.706,-288.802 930.706,-288.802"/>
</g>
<!-- StockSpare -->
<g id="node23" class="node"><title>StockSpare</title>
<path fill="none" stroke="black" d="M1187.75,-137.5C1187.75,-137.5 1321.63,-137.5 1321.63,-137.5 1327.63,-137.5 1333.63,-143.5 1333.63,-149.5 1333.63,-149.5 1333.63,-309.5 1333.63,-309.5 1333.63,-315.5 1327.63,-321.5 1321.63,-321.5 1321.63,-321.5 1187.75,-321.5 1187.75,-321.5 1181.75,-321.5 1175.75,-315.5 1175.75,-309.5 1175.75,-309.5 1175.75,-149.5 1175.75,-149.5 1175.75,-143.5 1181.75,-137.5 1187.75,-137.5"/>
<text text-anchor="middle" x="1254.69" y="-306.3" font-family="Times,serif" font-size="14.00">StockSpare</text>
<polyline fill="none" stroke="black" points="1175.75,-299.5 1333.63,-299.5 "/>
<text text-anchor="start" x="1183.75" y="-284.3" font-family="Times,serif" font-size="14.00">id :integer</text>
<text text-anchor="start" x="1183.75" y="-270.3" font-family="Times,serif" font-size="14.00">car_id :integer</text>
<text text-anchor="start" x="1183.75" y="-256.3" font-family="Times,serif" font-size="14.00">warehouse_id :integer</text>
<text text-anchor="start" x="1183.75" y="-242.3" font-family="Times,serif" font-size="14.00">generic_spare_id :integer</text>
<text text-anchor="start" x="1183.75" y="-228.3" font-family="Times,serif" font-size="14.00">status :string</text>
<text text-anchor="start" x="1183.75" y="-214.3" font-family="Times,serif" font-size="14.00">description :text</text>
<text text-anchor="start" x="1183.75" y="-200.3" font-family="Times,serif" font-size="14.00">code :string</text>
<text text-anchor="start" x="1183.75" y="-186.3" font-family="Times,serif" font-size="14.00">color :string</text>
<text text-anchor="start" x="1183.75" y="-172.3" font-family="Times,serif" font-size="14.00">created_at :datetime</text>
<text text-anchor="start" x="1183.75" y="-158.3" font-family="Times,serif" font-size="14.00">updated_at :datetime</text>
<text text-anchor="start" x="1183.75" y="-144.3" font-family="Times,serif" font-size="14.00">stock_family_id :integer</text>
</g>
<!-- GenericSpare&#45;&gt;StockSpare -->
<g id="edge24" class="edge"><title>GenericSpare&#45;&gt;StockSpare</title>
<path fill="none" stroke="#31c8e6" d="M1072.84,-359.255C1073.46,-358.831 1074.07,-358.413 1074.69,-358 1110.15,-334.269 1128.14,-345.606 1163.69,-322 1164.94,-321.167 1166.19,-320.315 1167.44,-319.445"/>
<ellipse fill="none" stroke="#31c8e6" cx="1069.54" cy="-361.642" rx="4.00002" ry="4.00002"/>
<polygon fill="#31c8e6" stroke="#31c8e6" points="1167.54,-319.373 1178.27,-317.094 1171.57,-316.418 1175.61,-313.464 1175.61,-313.464 1175.61,-313.464 1171.57,-316.418 1172.95,-309.834 1167.54,-319.373 1167.54,-319.373"/>
</g>
<!-- Insured -->
<g id="node13" class="node"><title>Insured</title>
<path fill="none" stroke="black" d="M1483.63,-593.5C1483.63,-593.5 1609.75,-593.5 1609.75,-593.5 1615.75,-593.5 1621.75,-599.5 1621.75,-605.5 1621.75,-605.5 1621.75,-723.5 1621.75,-723.5 1621.75,-729.5 1615.75,-735.5 1609.75,-735.5 1609.75,-735.5 1483.63,-735.5 1483.63,-735.5 1477.63,-735.5 1471.63,-729.5 1471.63,-723.5 1471.63,-723.5 1471.63,-605.5 1471.63,-605.5 1471.63,-599.5 1477.63,-593.5 1483.63,-593.5"/>
<text text-anchor="middle" x="1546.69" y="-720.3" font-family="Times,serif" font-size="14.00">Insured</text>
<polyline fill="none" stroke="black" points="1471.63,-713.5 1621.75,-713.5 "/>
<text text-anchor="start" x="1479.63" y="-698.3" font-family="Times,serif" font-size="14.00">id :integer</text>
<text text-anchor="start" x="1479.63" y="-684.3" font-family="Times,serif" font-size="14.00">prevaluation_id :integer</text>
<text text-anchor="start" x="1479.63" y="-670.3" font-family="Times,serif" font-size="14.00">third :boolean</text>
<text text-anchor="start" x="1479.63" y="-656.3" font-family="Times,serif" font-size="14.00">name :string</text>
<text text-anchor="start" x="1479.63" y="-642.3" font-family="Times,serif" font-size="14.00">telephone :integer</text>
<text text-anchor="start" x="1479.63" y="-628.3" font-family="Times,serif" font-size="14.00">email :string</text>
<text text-anchor="start" x="1479.63" y="-614.3" font-family="Times,serif" font-size="14.00">created_at :datetime</text>
<text text-anchor="start" x="1479.63" y="-600.3" font-family="Times,serif" font-size="14.00">updated_at :datetime</text>
</g>
<!-- MoldComponent -->
<g id="node15" class="node"><title>MoldComponent</title>
<path fill="none" stroke="black" d="M1095.95,-386.5C1095.95,-386.5 1217.42,-386.5 1217.42,-386.5 1223.42,-386.5 1229.42,-392.5 1229.42,-398.5 1229.42,-398.5 1229.42,-474.5 1229.42,-474.5 1229.42,-480.5 1223.42,-486.5 1217.42,-486.5 1217.42,-486.5 1095.95,-486.5 1095.95,-486.5 1089.95,-486.5 1083.95,-480.5 1083.95,-474.5 1083.95,-474.5 1083.95,-398.5 1083.95,-398.5 1083.95,-392.5 1089.95,-386.5 1095.95,-386.5"/>
<text text-anchor="middle" x="1156.69" y="-471.3" font-family="Times,serif" font-size="14.00">MoldComponent</text>
<polyline fill="none" stroke="black" points="1083.95,-464.5 1229.42,-464.5 "/>
<text text-anchor="start" x="1091.95" y="-449.3" font-family="Times,serif" font-size="14.00">id :integer</text>
<text text-anchor="start" x="1091.95" y="-435.3" font-family="Times,serif" font-size="14.00">name :string</text>
<text text-anchor="start" x="1091.95" y="-421.3" font-family="Times,serif" font-size="14.00">mold_spare_id :integer</text>
<text text-anchor="start" x="1091.95" y="-407.3" font-family="Times,serif" font-size="14.00">created_at :datetime</text>
<text text-anchor="start" x="1091.95" y="-393.3" font-family="Times,serif" font-size="14.00">updated_at :datetime</text>
</g>
<!-- MoldSpare -->
<g id="node16" class="node"><title>MoldSpare</title>
<path fill="none" stroke="black" d="M1023.18,-600.5C1023.18,-600.5 1132.19,-600.5 1132.19,-600.5 1138.19,-600.5 1144.19,-606.5 1144.19,-612.5 1144.19,-612.5 1144.19,-716.5 1144.19,-716.5 1144.19,-722.5 1138.19,-728.5 1132.19,-728.5 1132.19,-728.5 1023.18,-728.5 1023.18,-728.5 1017.18,-728.5 1011.18,-722.5 1011.18,-716.5 1011.18,-716.5 1011.18,-612.5 1011.18,-612.5 1011.18,-606.5 1017.18,-600.5 1023.18,-600.5"/>
<text text-anchor="middle" x="1077.69" y="-713.3" font-family="Times,serif" font-size="14.00">MoldSpare</text>
<polyline fill="none" stroke="black" points="1011.18,-706.5 1144.19,-706.5 "/>
<text text-anchor="start" x="1019.18" y="-691.3" font-family="Times,serif" font-size="14.00">id :integer</text>
<text text-anchor="start" x="1019.18" y="-677.3" font-family="Times,serif" font-size="14.00">name :string</text>
<text text-anchor="start" x="1019.18" y="-663.3" font-family="Times,serif" font-size="14.00">comment :string</text>
<text text-anchor="start" x="1019.18" y="-649.3" font-family="Times,serif" font-size="14.00">mold_type :string</text>
<text text-anchor="start" x="1019.18" y="-635.3" font-family="Times,serif" font-size="14.00">code :string</text>
<text text-anchor="start" x="1019.18" y="-621.3" font-family="Times,serif" font-size="14.00">created_at :datetime</text>
<text text-anchor="start" x="1019.18" y="-607.3" font-family="Times,serif" font-size="14.00">updated_at :datetime</text>
</g>
<!-- MoldSpare&#45;&gt;GenericSpare -->
<g id="edge26" class="edge"><title>MoldSpare&#45;&gt;GenericSpare</title>
<path fill="none" stroke="#f08837" d="M1052.93,-592.676C1045.36,-571.032 1036.96,-546.977 1029.06,-524.394"/>
<ellipse fill="none" stroke="#f08837" cx="1054.26" cy="-596.47" rx="4.00001" ry="4.00001"/>
<polygon fill="#f08837" stroke="#f08837" points="1029.01,-524.256 1029.96,-513.331 1027.36,-519.536 1025.71,-514.816 1025.71,-514.816 1025.71,-514.816 1027.36,-519.536 1021.47,-516.301 1029.01,-524.256 1029.01,-524.256"/>
</g>
<!-- MoldSpare&#45;&gt;MoldComponent -->
<g id="edge27" class="edge"><title>MoldSpare&#45;&gt;MoldComponent</title>
<path fill="none" stroke="#e43c82" d="M1102.49,-592.554C1113.29,-561.655 1125.8,-525.864 1136.08,-496.458"/>
<ellipse fill="none" stroke="#e43c82" cx="1101.12" cy="-596.47" rx="4.00001" ry="4.00001"/>
<polygon fill="#e43c82" stroke="#e43c82" points="1136.17,-496.187 1143.72,-488.232 1137.82,-491.467 1139.47,-486.747 1139.47,-486.747 1139.47,-486.747 1137.82,-491.467 1135.23,-485.262 1136.17,-496.187 1136.17,-496.187"/>
</g>
<!-- Prevaluation -->
<g id="node17" class="node"><title>Prevaluation</title>
<path fill="none" stroke="black" d="M1477.79,-814.5C1477.79,-814.5 1615.59,-814.5 1615.59,-814.5 1621.59,-814.5 1627.59,-820.5 1627.59,-826.5 1627.59,-826.5 1627.59,-1056.5 1627.59,-1056.5 1627.59,-1062.5 1621.59,-1068.5 1615.59,-1068.5 1615.59,-1068.5 1477.79,-1068.5 1477.79,-1068.5 1471.79,-1068.5 1465.79,-1062.5 1465.79,-1056.5 1465.79,-1056.5 1465.79,-826.5 1465.79,-826.5 1465.79,-820.5 1471.79,-814.5 1477.79,-814.5"/>
<text text-anchor="middle" x="1546.69" y="-1053.3" font-family="Times,serif" font-size="14.00">Prevaluation</text>
<polyline fill="none" stroke="black" points="1465.79,-1046.5 1627.59,-1046.5 "/>
<text text-anchor="start" x="1473.79" y="-1031.3" font-family="Times,serif" font-size="14.00">id :integer</text>
<text text-anchor="start" x="1473.79" y="-1017.3" font-family="Times,serif" font-size="14.00">number :string</text>
<text text-anchor="start" x="1473.79" y="-1003.3" font-family="Times,serif" font-size="14.00">policy :string</text>
<text text-anchor="start" x="1473.79" y="-989.3" font-family="Times,serif" font-size="14.00">subsection :string</text>
<text text-anchor="start" x="1473.79" y="-975.3" font-family="Times,serif" font-size="14.00">expedition_date :date</text>
<text text-anchor="start" x="1473.79" y="-961.3" font-family="Times,serif" font-size="14.00">valuation_date :date</text>
<text text-anchor="start" x="1473.79" y="-947.3" font-family="Times,serif" font-size="14.00">deductible_value :float</text>
<text text-anchor="start" x="1473.79" y="-933.3" font-family="Times,serif" font-size="14.00">commercial_value :float</text>
<text text-anchor="start" x="1473.79" y="-919.3" font-family="Times,serif" font-size="14.00">requires_crane :boolean</text>
<text text-anchor="start" x="1473.79" y="-905.3" font-family="Times,serif" font-size="14.00">collection_status :boolean</text>
<text text-anchor="start" x="1473.79" y="-891.3" font-family="Times,serif" font-size="14.00">special_conditions :string</text>
<text text-anchor="start" x="1473.79" y="-877.3" font-family="Times,serif" font-size="14.00">third_insured :boolean</text>
<text text-anchor="start" x="1473.79" y="-863.3" font-family="Times,serif" font-size="14.00">agent_name :string</text>
<text text-anchor="start" x="1473.79" y="-849.3" font-family="Times,serif" font-size="14.00">comment :text</text>
<text text-anchor="start" x="1473.79" y="-835.3" font-family="Times,serif" font-size="14.00">created_at :datetime</text>
<text text-anchor="start" x="1473.79" y="-821.3" font-family="Times,serif" font-size="14.00">updated_at :datetime</text>
</g>
<!-- Prevaluation&#45;&gt;Insured -->
<g id="edge29" class="edge"><title>Prevaluation&#45;&gt;Insured</title>
<path fill="none" stroke="#4ac30f" d="M1546.69,-806.037C1546.69,-785.442 1546.69,-764.755 1546.69,-745.828"/>
<ellipse fill="none" stroke="#4ac30f" cx="1546.69" cy="-810.268" rx="4" ry="4"/>
<polygon fill="#4ac30f" stroke="#4ac30f" points="1546.69,-745.803 1551.19,-735.803 1546.69,-740.803 1546.69,-735.803 1546.69,-735.803 1546.69,-735.803 1546.69,-740.803 1542.19,-735.803 1546.69,-745.803 1546.69,-745.803"/>
</g>
<!-- PrevaluationImage -->
<g id="node18" class="node"><title>PrevaluationImage</title>
<path fill="none" stroke="black" d="M1652.12,-621.5C1652.12,-621.5 1771.26,-621.5 1771.26,-621.5 1777.26,-621.5 1783.26,-627.5 1783.26,-633.5 1783.26,-633.5 1783.26,-695.5 1783.26,-695.5 1783.26,-701.5 1777.26,-707.5 1771.26,-707.5 1771.26,-707.5 1652.12,-707.5 1652.12,-707.5 1646.12,-707.5 1640.12,-701.5 1640.12,-695.5 1640.12,-695.5 1640.12,-633.5 1640.12,-633.5 1640.12,-627.5 1646.12,-621.5 1652.12,-621.5"/>
<text text-anchor="middle" x="1711.69" y="-692.3" font-family="Times,serif" font-size="14.00">PrevaluationImage</text>
<polyline fill="none" stroke="black" points="1640.12,-685.5 1783.26,-685.5 "/>
<text text-anchor="start" x="1648.12" y="-670.3" font-family="Times,serif" font-size="14.00">id :integer</text>
<text text-anchor="start" x="1648.12" y="-656.3" font-family="Times,serif" font-size="14.00">prevaluation_id :string</text>
<text text-anchor="start" x="1648.12" y="-642.3" font-family="Times,serif" font-size="14.00">created_at :datetime</text>
<text text-anchor="start" x="1648.12" y="-628.3" font-family="Times,serif" font-size="14.00">updated_at :datetime</text>
</g>
<!-- Prevaluation&#45;&gt;PrevaluationImage -->
<g id="edge31" class="edge"><title>Prevaluation&#45;&gt;PrevaluationImage</title>
<path fill="none" stroke="#f8a981" d="M1626.75,-807.056C1646.13,-774.764 1665.68,-742.174 1681.14,-716.417"/>
<ellipse fill="none" stroke="#f8a981" cx="1624.48" cy="-810.838" rx="4.00002" ry="4.00002"/>
<polygon fill="#f8a981" stroke="#f8a981" points="1681.28,-716.178 1690.28,-709.919 1683.85,-711.891 1686.43,-707.603 1686.43,-707.603 1686.43,-707.603 1683.85,-711.891 1682.57,-705.288 1681.28,-716.178 1681.28,-716.178"/>
</g>
<!-- Prevaluation&#45;&gt;StockCar -->
<g id="edge28" class="edge"><title>Prevaluation&#45;&gt;StockCar</title>
<path fill="none" stroke="#770c53" d="M1461.24,-807.738C1456.7,-800.69 1452.15,-793.625 1447.64,-786.618"/>
<ellipse fill="none" stroke="#770c53" cx="1463.53" cy="-811.306" rx="4.00002" ry="4.00002"/>
<polygon fill="#770c53" stroke="#770c53" points="1447.37,-786.187 1445.74,-775.343 1444.66,-781.983 1441.95,-777.778 1441.95,-777.778 1441.95,-777.778 1444.66,-781.983 1438.17,-780.214 1447.37,-786.187 1447.37,-786.187"/>
</g>
<!-- Valuation -->
<g id="node27" class="node"><title>Valuation</title>
<path fill="none" stroke="black" d="M1813.18,-614.5C1813.18,-614.5 1922.19,-614.5 1922.19,-614.5 1928.19,-614.5 1934.19,-620.5 1934.19,-626.5 1934.19,-626.5 1934.19,-702.5 1934.19,-702.5 1934.19,-708.5 1928.19,-714.5 1922.19,-714.5 1922.19,-714.5 1813.18,-714.5 1813.18,-714.5 1807.18,-714.5 1801.18,-708.5 1801.18,-702.5 1801.18,-702.5 1801.18,-626.5 1801.18,-626.5 1801.18,-620.5 1807.18,-614.5 1813.18,-614.5"/>
<text text-anchor="middle" x="1867.69" y="-699.3" font-family="Times,serif" font-size="14.00">Valuation</text>
<polyline fill="none" stroke="black" points="1801.18,-692.5 1934.19,-692.5 "/>
<text text-anchor="start" x="1809.18" y="-677.3" font-family="Times,serif" font-size="14.00">id :integer</text>
<text text-anchor="start" x="1809.18" y="-663.3" font-family="Times,serif" font-size="14.00">client_code :string</text>
<text text-anchor="start" x="1809.18" y="-649.3" font-family="Times,serif" font-size="14.00">edited_by :string</text>
<text text-anchor="start" x="1809.18" y="-635.3" font-family="Times,serif" font-size="14.00">created_at :datetime</text>
<text text-anchor="start" x="1809.18" y="-621.3" font-family="Times,serif" font-size="14.00">updated_at :datetime</text>
</g>
<!-- Prevaluation&#45;&gt;Valuation -->
<g id="edge30" class="edge"><title>Prevaluation&#45;&gt;Valuation</title>
<path fill="none" stroke="#78f0b6" d="M1634.69,-814.679C1635.02,-814.451 1635.35,-814.225 1635.69,-814 1695.11,-774.079 1733.77,-818.664 1792.69,-778 1813.08,-763.926 1829.41,-742.332 1841.55,-721.812"/>
<ellipse fill="none" stroke="#78f0b6" cx="1631.06" cy="-817.34" rx="4.00002" ry="4.00002"/>
<ellipse fill="#78f0b6" stroke="#78f0b6" cx="1843.69" cy="-718.084" rx="4.00002" ry="4.00002"/>
</g>
<!-- StockCarImage -->
<g id="node21" class="node"><title>StockCarImage</title>
<path fill="none" stroke="black" d="M1314.79,-393.5C1314.79,-393.5 1424.58,-393.5 1424.58,-393.5 1430.58,-393.5 1436.58,-399.5 1436.58,-405.5 1436.58,-405.5 1436.58,-467.5 1436.58,-467.5 1436.58,-473.5 1430.58,-479.5 1424.58,-479.5 1424.58,-479.5 1314.79,-479.5 1314.79,-479.5 1308.79,-479.5 1302.79,-473.5 1302.79,-467.5 1302.79,-467.5 1302.79,-405.5 1302.79,-405.5 1302.79,-399.5 1308.79,-393.5 1314.79,-393.5"/>
<text text-anchor="middle" x="1369.69" y="-464.3" font-family="Times,serif" font-size="14.00">StockCarImage</text>
<polyline fill="none" stroke="black" points="1302.79,-457.5 1436.58,-457.5 "/>
<text text-anchor="start" x="1310.79" y="-442.3" font-family="Times,serif" font-size="14.00">id :integer</text>
<text text-anchor="start" x="1310.79" y="-428.3" font-family="Times,serif" font-size="14.00">stock_car_id :integer</text>
<text text-anchor="start" x="1310.79" y="-414.3" font-family="Times,serif" font-size="14.00">created_at :datetime</text>
<text text-anchor="start" x="1310.79" y="-400.3" font-family="Times,serif" font-size="14.00">updated_at :datetime</text>
</g>
<!-- StockCar&#45;&gt;StockCarImage -->
<g id="edge32" class="edge"><title>StockCar&#45;&gt;StockCarImage</title>
<path fill="none" stroke="#447722" d="M1369.69,-543.385C1369.69,-524.603 1369.69,-506.084 1369.69,-489.915"/>
<ellipse fill="none" stroke="#447722" cx="1369.69" cy="-547.493" rx="4" ry="4"/>
<polygon fill="#447722" stroke="#447722" points="1369.69,-489.65 1374.19,-479.65 1369.69,-484.65 1369.69,-479.65 1369.69,-479.65 1369.69,-479.65 1369.69,-484.65 1365.19,-479.65 1369.69,-489.65 1369.69,-489.65"/>
</g>
<!-- StockSpareImage -->
<g id="node24" class="node"><title>StockSpareImage</title>
<path fill="none" stroke="black" d="M1193.57,-7.5C1193.57,-7.5 1315.81,-7.5 1315.81,-7.5 1321.81,-7.5 1327.81,-13.5 1327.81,-19.5 1327.81,-19.5 1327.81,-81.5 1327.81,-81.5 1327.81,-87.5 1321.81,-93.5 1315.81,-93.5 1315.81,-93.5 1193.57,-93.5 1193.57,-93.5 1187.57,-93.5 1181.57,-87.5 1181.57,-81.5 1181.57,-81.5 1181.57,-19.5 1181.57,-19.5 1181.57,-13.5 1187.57,-7.5 1193.57,-7.5"/>
<text text-anchor="middle" x="1254.69" y="-78.3" font-family="Times,serif" font-size="14.00">StockSpareImage</text>
<polyline fill="none" stroke="black" points="1181.57,-71.5 1327.81,-71.5 "/>
<text text-anchor="start" x="1189.57" y="-56.3" font-family="Times,serif" font-size="14.00">id :integer</text>
<text text-anchor="start" x="1189.57" y="-42.3" font-family="Times,serif" font-size="14.00">stock_spare_id :integer</text>
<text text-anchor="start" x="1189.57" y="-28.3" font-family="Times,serif" font-size="14.00">created_at :datetime</text>
<text text-anchor="start" x="1189.57" y="-14.3" font-family="Times,serif" font-size="14.00">updated_at :datetime</text>
</g>
<!-- StockSpare&#45;&gt;StockSpareImage -->
<g id="edge33" class="edge"><title>StockSpare&#45;&gt;StockSpareImage</title>
<path fill="none" stroke="#fa4757" d="M1254.69,-129.209C1254.69,-120.567 1254.69,-112.064 1254.69,-104.037"/>
<ellipse fill="none" stroke="#fa4757" cx="1254.69" cy="-133.408" rx="4" ry="4"/>
<polygon fill="#fa4757" stroke="#fa4757" points="1254.69,-103.787 1259.19,-93.7869 1254.69,-98.7869 1254.69,-93.7869 1254.69,-93.7869 1254.69,-93.7869 1254.69,-98.7869 1250.19,-93.787 1254.69,-103.787 1254.69,-103.787"/>
</g>
<!-- User -->
<g id="node26" class="node"><title>User</title>
<path fill="none" stroke="black" d="M1193.62,-1105.5C1193.62,-1105.5 1319.75,-1105.5 1319.75,-1105.5 1325.75,-1105.5 1331.75,-1111.5 1331.75,-1117.5 1331.75,-1117.5 1331.75,-1249.5 1331.75,-1249.5 1331.75,-1255.5 1325.75,-1261.5 1319.75,-1261.5 1319.75,-1261.5 1193.62,-1261.5 1193.62,-1261.5 1187.62,-1261.5 1181.62,-1255.5 1181.62,-1249.5 1181.62,-1249.5 1181.62,-1117.5 1181.62,-1117.5 1181.62,-1111.5 1187.62,-1105.5 1193.62,-1105.5"/>
<text text-anchor="middle" x="1256.69" y="-1246.3" font-family="Times,serif" font-size="14.00">User</text>
<polyline fill="none" stroke="black" points="1181.62,-1239.5 1331.75,-1239.5 "/>
<text text-anchor="start" x="1189.62" y="-1224.3" font-family="Times,serif" font-size="14.00">id :integer</text>
<text text-anchor="start" x="1189.62" y="-1210.3" font-family="Times,serif" font-size="14.00">name :string</text>
<text text-anchor="start" x="1189.62" y="-1196.3" font-family="Times,serif" font-size="14.00">email :string</text>
<text text-anchor="start" x="1189.62" y="-1182.3" font-family="Times,serif" font-size="14.00">username :string</text>
<text text-anchor="start" x="1189.62" y="-1168.3" font-family="Times,serif" font-size="14.00">privileges :string</text>
<text text-anchor="start" x="1189.62" y="-1154.3" font-family="Times,serif" font-size="14.00">created_at :datetime</text>
<text text-anchor="start" x="1189.62" y="-1140.3" font-family="Times,serif" font-size="14.00">updated_at :datetime</text>
<text text-anchor="start" x="1189.62" y="-1126.3" font-family="Times,serif" font-size="14.00">password_digest :string</text>
<text text-anchor="start" x="1189.62" y="-1112.3" font-family="Times,serif" font-size="14.00">remember_token :string</text>
</g>
<!-- Warehouse -->
<g id="node28" class="node"><title>Warehouse</title>
<path fill="none" stroke="black" d="M1259.18,-884.5C1259.18,-884.5 1368.19,-884.5 1368.19,-884.5 1374.19,-884.5 1380.19,-890.5 1380.19,-896.5 1380.19,-896.5 1380.19,-986.5 1380.19,-986.5 1380.19,-992.5 1374.19,-998.5 1368.19,-998.5 1368.19,-998.5 1259.18,-998.5 1259.18,-998.5 1253.18,-998.5 1247.18,-992.5 1247.18,-986.5 1247.18,-986.5 1247.18,-896.5 1247.18,-896.5 1247.18,-890.5 1253.18,-884.5 1259.18,-884.5"/>
<text text-anchor="middle" x="1313.69" y="-983.3" font-family="Times,serif" font-size="14.00">Warehouse</text>
<polyline fill="none" stroke="black" points="1247.18,-976.5 1380.19,-976.5 "/>
<text text-anchor="start" x="1255.18" y="-961.3" font-family="Times,serif" font-size="14.00">id :integer</text>
<text text-anchor="start" x="1255.18" y="-947.3" font-family="Times,serif" font-size="14.00">branch :string</text>
<text text-anchor="start" x="1255.18" y="-933.3" font-family="Times,serif" font-size="14.00">location :string</text>
<text text-anchor="start" x="1255.18" y="-919.3" font-family="Times,serif" font-size="14.00">geolocation :string</text>
<text text-anchor="start" x="1255.18" y="-905.3" font-family="Times,serif" font-size="14.00">created_at :datetime</text>
<text text-anchor="start" x="1255.18" y="-891.3" font-family="Times,serif" font-size="14.00">updated_at :datetime</text>
</g>
<!-- Warehouse&#45;&gt;StockCar -->
<g id="edge35" class="edge"><title>Warehouse&#45;&gt;StockCar</title>
<path fill="none" stroke="#5d7f9f" d="M1326.8,-876.086C1332.19,-849.62 1338.62,-818.062 1344.84,-787.533"/>
<ellipse fill="none" stroke="#5d7f9f" cx="1325.95" cy="-880.266" rx="4.00001" ry="4.00001"/>
<polygon fill="#5d7f9f" stroke="#5d7f9f" points="1344.85,-787.464 1351.26,-778.563 1345.85,-782.565 1346.85,-777.665 1346.85,-777.665 1346.85,-777.665 1345.85,-782.565 1342.44,-776.767 1344.85,-787.464 1344.85,-787.464"/>
</g>
<!-- Warehouse&#45;&gt;StockSpare -->
<g id="edge34" class="edge"><title>Warehouse&#45;&gt;StockSpare</title>
<path fill="none" stroke="#db18de" d="M1296.23,-876.378C1288.88,-846.679 1281.04,-810.78 1276.69,-778 1256.14,-623.227 1252.89,-441.87 1253.21,-331.632"/>
<ellipse fill="none" stroke="#db18de" cx="1297.21" cy="-880.305" rx="4.00001" ry="4.00001"/>
<polygon fill="#db18de" stroke="#db18de" points="1253.21,-331.518 1257.75,-321.536 1253.23,-326.518 1253.25,-321.518 1253.25,-321.518 1253.25,-321.518 1253.23,-326.518 1248.75,-321.5 1253.21,-331.518 1253.21,-331.518"/>
</g>
</g>
</svg>
