<?xml version="1.0" encoding="UTF-8" standalone="no"?>
<!DOCTYPE svg PUBLIC "-//W3C//DTD SVG 1.1//EN"
 "http://www.w3.org/Graphics/SVG/1.1/DTD/svg11.dtd">
<!-- Generated by graphviz version 2.38.0 (20140413.2041)
 -->
<!-- Title: models_diagram Pages: 1 -->
<svg width="905pt" height="1234pt"
 viewBox="0.00 0.00 905.36 1234.00" xmlns="http://www.w3.org/2000/svg" xmlns:xlink="http://www.w3.org/1999/xlink">
<g id="graph0" class="graph" transform="scale(1 1) rotate(0) translate(4 1230)">
<title>models_diagram</title>
<polygon fill="white" stroke="none" points="-4,4 -4,-1230 901.355,-1230 901.355,4 -4,4"/>
<!-- _diagram_info -->
<g id="node1" class="node"><title>_diagram_info</title>
<text text-anchor="start" x="249.604" y="-1211.6" font-family="Times,serif" font-size="13.00">Models diagram</text>
<text text-anchor="start" x="249.604" y="-1198.6" font-family="Times,serif" font-size="13.00">Date: Sep 17 2014 &#45; 13:06</text>
<text text-anchor="start" x="249.604" y="-1185.6" font-family="Times,serif" font-size="13.00">Migration version: 20140913200623</text>
<text text-anchor="start" x="249.604" y="-1172.6" font-family="Times,serif" font-size="13.00">Generated by RailRoady 1.1.2</text>
<text text-anchor="start" x="249.604" y="-1159.6" font-family="Times,serif" font-size="13.00">http://railroady.prestonlee.com</text>
</g>
<!-- Car -->
<g id="node2" class="node"><title>Car</title>
<path fill="none" stroke="black" d="M203.669,-151.5C203.669,-151.5 346.914,-151.5 346.914,-151.5 352.914,-151.5 358.914,-157.5 358.914,-163.5 358.914,-163.5 358.914,-365.5 358.914,-365.5 358.914,-371.5 352.914,-377.5 346.914,-377.5 346.914,-377.5 203.669,-377.5 203.669,-377.5 197.669,-377.5 191.669,-371.5 191.669,-365.5 191.669,-365.5 191.669,-163.5 191.669,-163.5 191.669,-157.5 197.669,-151.5 203.669,-151.5"/>
<text text-anchor="middle" x="275.292" y="-362.3" font-family="Times,serif" font-size="14.00">Car</text>
<polyline fill="none" stroke="black" points="191.669,-355.5 358.914,-355.5 "/>
<text text-anchor="start" x="199.669" y="-340.3" font-family="Times,serif" font-size="14.00">id :integer</text>
<text text-anchor="start" x="199.669" y="-326.3" font-family="Times,serif" font-size="14.00">prevaluation_id :integer</text>
<text text-anchor="start" x="199.669" y="-312.3" font-family="Times,serif" font-size="14.00">generic_car_id :integer</text>
<text text-anchor="start" x="199.669" y="-298.3" font-family="Times,serif" font-size="14.00">warehouse_id :integer</text>
<text text-anchor="start" x="199.669" y="-284.3" font-family="Times,serif" font-size="14.00">color :string</text>
<text text-anchor="start" x="199.669" y="-270.3" font-family="Times,serif" font-size="14.00">door_number :integer</text>
<text text-anchor="start" x="199.669" y="-256.3" font-family="Times,serif" font-size="14.00">serie :string</text>
<text text-anchor="start" x="199.669" y="-242.3" font-family="Times,serif" font-size="14.00">motor :string</text>
<text text-anchor="start" x="199.669" y="-228.3" font-family="Times,serif" font-size="14.00">license_plates :string</text>
<text text-anchor="start" x="199.669" y="-214.3" font-family="Times,serif" font-size="14.00">inventory_description :text</text>
<text text-anchor="start" x="199.669" y="-200.3" font-family="Times,serif" font-size="14.00">special_equipment :text</text>
<text text-anchor="start" x="199.669" y="-186.3" font-family="Times,serif" font-size="14.00">economic_number :string</text>
<text text-anchor="start" x="199.669" y="-172.3" font-family="Times,serif" font-size="14.00">created_at :datetime</text>
<text text-anchor="start" x="199.669" y="-158.3" font-family="Times,serif" font-size="14.00">updated_at :datetime</text>
</g>
<!-- CarSpareAlloy -->
<g id="node3" class="node"><title>CarSpareAlloy</title>
<path fill="none" stroke="black" d="M95.3516,-0.5C95.3516,-0.5 229.231,-0.5 229.231,-0.5 235.231,-0.5 241.231,-6.5 241.231,-12.5 241.231,-12.5 241.231,-102.5 241.231,-102.5 241.231,-108.5 235.231,-114.5 229.231,-114.5 229.231,-114.5 95.3516,-114.5 95.3516,-114.5 89.3516,-114.5 83.3516,-108.5 83.3516,-102.5 83.3516,-102.5 83.3516,-12.5 83.3516,-12.5 83.3516,-6.5 89.3516,-0.5 95.3516,-0.5"/>
<text text-anchor="middle" x="162.292" y="-99.3" font-family="Times,serif" font-size="14.00">CarSpareAlloy</text>
<polyline fill="none" stroke="black" points="83.3516,-92.5 241.231,-92.5 "/>
<text text-anchor="start" x="91.3516" y="-77.3" font-family="Times,serif" font-size="14.00">id :integer</text>
<text text-anchor="start" x="91.3516" y="-63.3" font-family="Times,serif" font-size="14.00">generic_car_id :integer</text>
<text text-anchor="start" x="91.3516" y="-49.3" font-family="Times,serif" font-size="14.00">generic_spare_id :integer</text>
<text text-anchor="start" x="91.3516" y="-35.3" font-family="Times,serif" font-size="14.00">relation :string</text>
<text text-anchor="start" x="91.3516" y="-21.3" font-family="Times,serif" font-size="14.00">created_at :datetime</text>
<text text-anchor="start" x="91.3516" y="-7.3" font-family="Times,serif" font-size="14.00">updated_at :datetime</text>
</g>
<!-- GenericCar -->
<g id="node4" class="node"><title>GenericCar</title>
<path fill="none" stroke="black" d="M107.786,-694.5C107.786,-694.5 216.797,-694.5 216.797,-694.5 222.797,-694.5 228.797,-700.5 228.797,-706.5 228.797,-706.5 228.797,-824.5 228.797,-824.5 228.797,-830.5 222.797,-836.5 216.797,-836.5 216.797,-836.5 107.786,-836.5 107.786,-836.5 101.786,-836.5 95.7861,-830.5 95.7861,-824.5 95.7861,-824.5 95.7861,-706.5 95.7861,-706.5 95.7861,-700.5 101.786,-694.5 107.786,-694.5"/>
<text text-anchor="middle" x="162.292" y="-821.3" font-family="Times,serif" font-size="14.00">GenericCar</text>
<polyline fill="none" stroke="black" points="95.7861,-814.5 228.797,-814.5 "/>
<text text-anchor="start" x="103.786" y="-799.3" font-family="Times,serif" font-size="14.00">id :integer</text>
<text text-anchor="start" x="103.786" y="-785.3" font-family="Times,serif" font-size="14.00">brand :string</text>
<text text-anchor="start" x="103.786" y="-771.3" font-family="Times,serif" font-size="14.00">type_of_car :string</text>
<text text-anchor="start" x="103.786" y="-757.3" font-family="Times,serif" font-size="14.00">year :integer</text>
<text text-anchor="start" x="103.786" y="-743.3" font-family="Times,serif" font-size="14.00">generation :string</text>
<text text-anchor="start" x="103.786" y="-729.3" font-family="Times,serif" font-size="14.00">model :string</text>
<text text-anchor="start" x="103.786" y="-715.3" font-family="Times,serif" font-size="14.00">created_at :datetime</text>
<text text-anchor="start" x="103.786" y="-701.3" font-family="Times,serif" font-size="14.00">updated_at :datetime</text>
</g>
<!-- GenericCar&#45;&gt;Car -->
<g id="edge3" class="edge"><title>GenericCar&#45;&gt;Car</title>
<path fill="none" stroke="#3dd95d" d="M179.965,-686.455C198.108,-606.335 226.597,-480.534 247.709,-387.301"/>
<ellipse fill="none" stroke="#3dd95d" cx="179.066" cy="-690.426" rx="4.00001" ry="4.00001"/>
<polygon fill="#3dd95d" stroke="#3dd95d" points="247.714,-387.282 254.311,-378.523 248.818,-382.405 249.922,-377.529 249.922,-377.529 249.922,-377.529 248.818,-382.405 245.533,-376.535 247.714,-387.282 247.714,-387.282"/>
</g>
<!-- GenericCar&#45;&gt;CarSpareAlloy -->
<g id="edge4" class="edge"><title>GenericCar&#45;&gt;CarSpareAlloy</title>
<path fill="none" stroke="#4083ae" d="M162.292,-685.816C162.292,-545.696 162.292,-255.414 162.292,-124.764"/>
<ellipse fill="none" stroke="#4083ae" cx="162.292" cy="-690.225" rx="4" ry="4"/>
<polygon fill="#4083ae" stroke="#4083ae" points="162.292,-124.507 166.792,-114.507 162.292,-119.507 162.292,-114.507 162.292,-114.507 162.292,-114.507 162.292,-119.507 157.792,-114.507 162.292,-124.507 162.292,-124.507"/>
</g>
<!-- GenericSpare -->
<g id="node5" class="node"><title>GenericSpare</title>
<path fill="none" stroke="black" d="M12,-193.5C12,-193.5 122.583,-193.5 122.583,-193.5 128.583,-193.5 134.583,-199.5 134.583,-205.5 134.583,-205.5 134.583,-323.5 134.583,-323.5 134.583,-329.5 128.583,-335.5 122.583,-335.5 122.583,-335.5 12,-335.5 12,-335.5 6,-335.5 0,-329.5 0,-323.5 0,-323.5 0,-205.5 0,-205.5 0,-199.5 6,-193.5 12,-193.5"/>
<text text-anchor="middle" x="67.2915" y="-320.3" font-family="Times,serif" font-size="14.00">GenericSpare</text>
<polyline fill="none" stroke="black" points="0,-313.5 134.583,-313.5 "/>
<text text-anchor="start" x="8" y="-298.3" font-family="Times,serif" font-size="14.00">id :integer</text>
<text text-anchor="start" x="8" y="-284.3" font-family="Times,serif" font-size="14.00">brand :string</text>
<text text-anchor="start" x="8" y="-270.3" font-family="Times,serif" font-size="14.00">type_of_spare :string</text>
<text text-anchor="start" x="8" y="-256.3" font-family="Times,serif" font-size="14.00">name :string</text>
<text text-anchor="start" x="8" y="-242.3" font-family="Times,serif" font-size="14.00">region :string</text>
<text text-anchor="start" x="8" y="-228.3" font-family="Times,serif" font-size="14.00">description :text</text>
<text text-anchor="start" x="8" y="-214.3" font-family="Times,serif" font-size="14.00">created_at :datetime</text>
<text text-anchor="start" x="8" y="-200.3" font-family="Times,serif" font-size="14.00">updated_at :datetime</text>
</g>
<!-- GenericCar&#45;&gt;GenericSpare -->
<g id="edge5" class="edge"><title>GenericCar&#45;&gt;GenericSpare</title>
<path fill="none" stroke="#de5c25" d="M147.029,-684.331C129.308,-591.251 100.253,-438.633 82.5385,-345.587"/>
<polygon fill="#de5c25" stroke="#de5c25" points="147.062,-684.504 144.511,-695.169 147.997,-689.416 148.932,-694.327 148.932,-694.327 148.932,-694.327 147.997,-689.416 153.353,-693.486 147.062,-684.504 147.062,-684.504"/>
<polygon fill="#de5c25" stroke="#de5c25" points="82.5187,-345.483 85.0691,-334.817 81.5836,-340.571 80.6485,-335.659 80.6485,-335.659 80.6485,-335.659 81.5836,-340.571 76.2279,-336.501 82.5187,-345.483 82.5187,-345.483"/>
</g>
<!-- GenericSpare&#45;&gt;CarSpareAlloy -->
<g id="edge7" class="edge"><title>GenericSpare&#45;&gt;CarSpareAlloy</title>
<path fill="none" stroke="#a14ffb" d="M103.224,-185.96C112.691,-165.532 122.81,-143.696 131.95,-123.973"/>
<ellipse fill="none" stroke="#a14ffb" cx="101.534" cy="-189.608" rx="4.00002" ry="4.00002"/>
<polygon fill="#a14ffb" stroke="#a14ffb" points="132.008,-123.848 140.296,-116.667 134.11,-119.312 136.213,-114.775 136.213,-114.775 136.213,-114.775 134.11,-119.312 132.13,-112.883 132.008,-123.848 132.008,-123.848"/>
</g>
<!-- Insured -->
<g id="node6" class="node"><title>Insured</title>
<path fill="none" stroke="black" d="M392.231,-193.5C392.231,-193.5 518.352,-193.5 518.352,-193.5 524.352,-193.5 530.352,-199.5 530.352,-205.5 530.352,-205.5 530.352,-323.5 530.352,-323.5 530.352,-329.5 524.352,-335.5 518.352,-335.5 518.352,-335.5 392.231,-335.5 392.231,-335.5 386.231,-335.5 380.231,-329.5 380.231,-323.5 380.231,-323.5 380.231,-205.5 380.231,-205.5 380.231,-199.5 386.231,-193.5 392.231,-193.5"/>
<text text-anchor="middle" x="455.292" y="-320.3" font-family="Times,serif" font-size="14.00">Insured</text>
<polyline fill="none" stroke="black" points="380.231,-313.5 530.352,-313.5 "/>
<text text-anchor="start" x="388.231" y="-298.3" font-family="Times,serif" font-size="14.00">id :integer</text>
<text text-anchor="start" x="388.231" y="-284.3" font-family="Times,serif" font-size="14.00">prevaluation_id :integer</text>
<text text-anchor="start" x="388.231" y="-270.3" font-family="Times,serif" font-size="14.00">third :boolean</text>
<text text-anchor="start" x="388.231" y="-256.3" font-family="Times,serif" font-size="14.00">name :string</text>
<text text-anchor="start" x="388.231" y="-242.3" font-family="Times,serif" font-size="14.00">telephone :integer</text>
<text text-anchor="start" x="388.231" y="-228.3" font-family="Times,serif" font-size="14.00">email :string</text>
<text text-anchor="start" x="388.231" y="-214.3" font-family="Times,serif" font-size="14.00">created_at :datetime</text>
<text text-anchor="start" x="388.231" y="-200.3" font-family="Times,serif" font-size="14.00">updated_at :datetime</text>
</g>
<!-- Prevaluation -->
<g id="node7" class="node"><title>Prevaluation</title>
<path fill="none" stroke="black" d="M296.841,-414.5C296.841,-414.5 451.742,-414.5 451.742,-414.5 457.742,-414.5 463.742,-420.5 463.742,-426.5 463.742,-426.5 463.742,-1104.5 463.742,-1104.5 463.742,-1110.5 457.742,-1116.5 451.742,-1116.5 451.742,-1116.5 296.841,-1116.5 296.841,-1116.5 290.841,-1116.5 284.841,-1110.5 284.841,-1104.5 284.841,-1104.5 284.841,-426.5 284.841,-426.5 284.841,-420.5 290.841,-414.5 296.841,-414.5"/>
<text text-anchor="middle" x="374.292" y="-1101.3" font-family="Times,serif" font-size="14.00">Prevaluation</text>
<polyline fill="none" stroke="black" points="284.841,-1094.5 463.742,-1094.5 "/>
<text text-anchor="start" x="292.841" y="-1079.3" font-family="Times,serif" font-size="14.00">id :integer</text>
<text text-anchor="start" x="292.841" y="-1065.3" font-family="Times,serif" font-size="14.00">number :string</text>
<text text-anchor="start" x="292.841" y="-1051.3" font-family="Times,serif" font-size="14.00">policy :string</text>
<text text-anchor="start" x="292.841" y="-1037.3" font-family="Times,serif" font-size="14.00">subsection :string</text>
<text text-anchor="start" x="292.841" y="-1023.3" font-family="Times,serif" font-size="14.00">expedition_date :date</text>
<text text-anchor="start" x="292.841" y="-1009.3" font-family="Times,serif" font-size="14.00">valuation_date :date</text>
<text text-anchor="start" x="292.841" y="-995.3" font-family="Times,serif" font-size="14.00">deductible_value :float</text>
<text text-anchor="start" x="292.841" y="-981.3" font-family="Times,serif" font-size="14.00">commercial_value :float</text>
<text text-anchor="start" x="292.841" y="-967.3" font-family="Times,serif" font-size="14.00">requires_crane :boolean</text>
<text text-anchor="start" x="292.841" y="-953.3" font-family="Times,serif" font-size="14.00">collection_status :boolean</text>
<text text-anchor="start" x="292.841" y="-939.3" font-family="Times,serif" font-size="14.00">special_conditions :string</text>
<text text-anchor="start" x="292.841" y="-925.3" font-family="Times,serif" font-size="14.00">third_insured :boolean</text>
<text text-anchor="start" x="292.841" y="-911.3" font-family="Times,serif" font-size="14.00">agent_name :string</text>
<text text-anchor="start" x="292.841" y="-897.3" font-family="Times,serif" font-size="14.00">comment :text</text>
<text text-anchor="start" x="292.841" y="-883.3" font-family="Times,serif" font-size="14.00">photo1_file_name :string</text>
<text text-anchor="start" x="292.841" y="-869.3" font-family="Times,serif" font-size="14.00">photo1_content_type :string</text>
<text text-anchor="start" x="292.841" y="-855.3" font-family="Times,serif" font-size="14.00">photo1_file_size :integer</text>
<text text-anchor="start" x="292.841" y="-841.3" font-family="Times,serif" font-size="14.00">photo1_updated_at :datetime</text>
<text text-anchor="start" x="292.841" y="-827.3" font-family="Times,serif" font-size="14.00">photo2_file_name :string</text>
<text text-anchor="start" x="292.841" y="-813.3" font-family="Times,serif" font-size="14.00">photo2_content_type :string</text>
<text text-anchor="start" x="292.841" y="-799.3" font-family="Times,serif" font-size="14.00">photo2_file_size :integer</text>
<text text-anchor="start" x="292.841" y="-785.3" font-family="Times,serif" font-size="14.00">photo2_updated_at :datetime</text>
<text text-anchor="start" x="292.841" y="-771.3" font-family="Times,serif" font-size="14.00">photo3_file_name :string</text>
<text text-anchor="start" x="292.841" y="-757.3" font-family="Times,serif" font-size="14.00">photo3_content_type :string</text>
<text text-anchor="start" x="292.841" y="-743.3" font-family="Times,serif" font-size="14.00">photo3_file_size :integer</text>
<text text-anchor="start" x="292.841" y="-729.3" font-family="Times,serif" font-size="14.00">photo3_updated_at :datetime</text>
<text text-anchor="start" x="292.841" y="-715.3" font-family="Times,serif" font-size="14.00">photo4_file_name :string</text>
<text text-anchor="start" x="292.841" y="-701.3" font-family="Times,serif" font-size="14.00">photo4_content_type :string</text>
<text text-anchor="start" x="292.841" y="-687.3" font-family="Times,serif" font-size="14.00">photo4_file_size :integer</text>
<text text-anchor="start" x="292.841" y="-673.3" font-family="Times,serif" font-size="14.00">photo4_updated_at :datetime</text>
<text text-anchor="start" x="292.841" y="-659.3" font-family="Times,serif" font-size="14.00">doc1_file_name :string</text>
<text text-anchor="start" x="292.841" y="-645.3" font-family="Times,serif" font-size="14.00">doc1_content_type :string</text>
<text text-anchor="start" x="292.841" y="-631.3" font-family="Times,serif" font-size="14.00">doc1_file_size :integer</text>
<text text-anchor="start" x="292.841" y="-617.3" font-family="Times,serif" font-size="14.00">doc1_updated_at :datetime</text>
<text text-anchor="start" x="292.841" y="-603.3" font-family="Times,serif" font-size="14.00">doc2_file_name :string</text>
<text text-anchor="start" x="292.841" y="-589.3" font-family="Times,serif" font-size="14.00">doc2_content_type :string</text>
<text text-anchor="start" x="292.841" y="-575.3" font-family="Times,serif" font-size="14.00">doc2_file_size :integer</text>
<text text-anchor="start" x="292.841" y="-561.3" font-family="Times,serif" font-size="14.00">doc2_updated_at :datetime</text>
<text text-anchor="start" x="292.841" y="-547.3" font-family="Times,serif" font-size="14.00">doc3_file_name :string</text>
<text text-anchor="start" x="292.841" y="-533.3" font-family="Times,serif" font-size="14.00">doc3_content_type :string</text>
<text text-anchor="start" x="292.841" y="-519.3" font-family="Times,serif" font-size="14.00">doc3_file_size :integer</text>
<text text-anchor="start" x="292.841" y="-505.3" font-family="Times,serif" font-size="14.00">doc3_updated_at :datetime</text>
<text text-anchor="start" x="292.841" y="-491.3" font-family="Times,serif" font-size="14.00">doc4_file_name :string</text>
<text text-anchor="start" x="292.841" y="-477.3" font-family="Times,serif" font-size="14.00">doc4_content_type :string</text>
<text text-anchor="start" x="292.841" y="-463.3" font-family="Times,serif" font-size="14.00">doc4_file_size :integer</text>
<text text-anchor="start" x="292.841" y="-449.3" font-family="Times,serif" font-size="14.00">doc4_updated_at :datetime</text>
<text text-anchor="start" x="292.841" y="-435.3" font-family="Times,serif" font-size="14.00">created_at :datetime</text>
<text text-anchor="start" x="292.841" y="-421.3" font-family="Times,serif" font-size="14.00">updated_at :datetime</text>
</g>
<!-- Prevaluation&#45;&gt;Car -->
<g id="edge10" class="edge"><title>Prevaluation&#45;&gt;Car</title>
<path fill="none" stroke="#055580" d="M303.21,-406.222C301.955,-399.895 300.723,-393.683 299.518,-387.609"/>
<ellipse fill="none" stroke="#055580" cx="304.015" cy="-410.279" rx="4.00001" ry="4.00001"/>
<polygon fill="#055580" stroke="#055580" points="299.462,-387.329 301.93,-376.645 298.489,-382.425 297.516,-377.521 297.516,-377.521 297.516,-377.521 298.489,-382.425 293.102,-378.396 299.462,-387.329 299.462,-387.329"/>
</g>
<!-- Prevaluation&#45;&gt;Insured -->
<g id="edge11" class="edge"><title>Prevaluation&#45;&gt;Insured</title>
<path fill="none" stroke="#cde05f" d="M432.467,-406.109C435.996,-384.372 439.302,-364.006 442.243,-345.888"/>
<ellipse fill="none" stroke="#cde05f" cx="431.794" cy="-410.255" rx="4.00001" ry="4.00001"/>
<polygon fill="#cde05f" stroke="#cde05f" points="442.282,-345.645 448.326,-336.495 443.083,-340.71 443.884,-335.774 443.884,-335.774 443.884,-335.774 443.083,-340.71 439.442,-335.053 442.282,-345.645 442.282,-345.645"/>
</g>
<!-- Spare -->
<g id="node8" class="node"><title>Spare</title>
<path fill="none" stroke="black" d="M562.286,-186.5C562.286,-186.5 678.297,-186.5 678.297,-186.5 684.297,-186.5 690.297,-192.5 690.297,-198.5 690.297,-198.5 690.297,-330.5 690.297,-330.5 690.297,-336.5 684.297,-342.5 678.297,-342.5 678.297,-342.5 562.286,-342.5 562.286,-342.5 556.286,-342.5 550.286,-336.5 550.286,-330.5 550.286,-330.5 550.286,-198.5 550.286,-198.5 550.286,-192.5 556.286,-186.5 562.286,-186.5"/>
<text text-anchor="middle" x="620.292" y="-327.3" font-family="Times,serif" font-size="14.00">Spare</text>
<polyline fill="none" stroke="black" points="550.286,-320.5 690.297,-320.5 "/>
<text text-anchor="start" x="558.286" y="-305.3" font-family="Times,serif" font-size="14.00">id :integer</text>
<text text-anchor="start" x="558.286" y="-291.3" font-family="Times,serif" font-size="14.00">car_id :integer</text>
<text text-anchor="start" x="558.286" y="-277.3" font-family="Times,serif" font-size="14.00">warehouse_id :integer</text>
<text text-anchor="start" x="558.286" y="-263.3" font-family="Times,serif" font-size="14.00">status :string</text>
<text text-anchor="start" x="558.286" y="-249.3" font-family="Times,serif" font-size="14.00">description :text</text>
<text text-anchor="start" x="558.286" y="-235.3" font-family="Times,serif" font-size="14.00">code :string</text>
<text text-anchor="start" x="558.286" y="-221.3" font-family="Times,serif" font-size="14.00">color :string</text>
<text text-anchor="start" x="558.286" y="-207.3" font-family="Times,serif" font-size="14.00">created_at :datetime</text>
<text text-anchor="start" x="558.286" y="-193.3" font-family="Times,serif" font-size="14.00">updated_at :datetime</text>
</g>
<!-- User -->
<g id="node9" class="node"><title>User</title>
<path fill="none" stroke="black" d="M759.228,-687.5C759.228,-687.5 885.355,-687.5 885.355,-687.5 891.355,-687.5 897.355,-693.5 897.355,-699.5 897.355,-699.5 897.355,-831.5 897.355,-831.5 897.355,-837.5 891.355,-843.5 885.355,-843.5 885.355,-843.5 759.228,-843.5 759.228,-843.5 753.228,-843.5 747.228,-837.5 747.228,-831.5 747.228,-831.5 747.228,-699.5 747.228,-699.5 747.228,-693.5 753.228,-687.5 759.228,-687.5"/>
<text text-anchor="middle" x="822.292" y="-828.3" font-family="Times,serif" font-size="14.00">User</text>
<polyline fill="none" stroke="black" points="747.228,-821.5 897.355,-821.5 "/>
<text text-anchor="start" x="755.228" y="-806.3" font-family="Times,serif" font-size="14.00">id :integer</text>
<text text-anchor="start" x="755.228" y="-792.3" font-family="Times,serif" font-size="14.00">name :string</text>
<text text-anchor="start" x="755.228" y="-778.3" font-family="Times,serif" font-size="14.00">email :string</text>
<text text-anchor="start" x="755.228" y="-764.3" font-family="Times,serif" font-size="14.00">username :string</text>
<text text-anchor="start" x="755.228" y="-750.3" font-family="Times,serif" font-size="14.00">privileges :string</text>
<text text-anchor="start" x="755.228" y="-736.3" font-family="Times,serif" font-size="14.00">created_at :datetime</text>
<text text-anchor="start" x="755.228" y="-722.3" font-family="Times,serif" font-size="14.00">updated_at :datetime</text>
<text text-anchor="start" x="755.228" y="-708.3" font-family="Times,serif" font-size="14.00">password_digest :string</text>
<text text-anchor="start" x="755.228" y="-694.3" font-family="Times,serif" font-size="14.00">remember_token :string</text>
</g>
<!-- Warehouse -->
<g id="node10" class="node"><title>Warehouse</title>
<path fill="none" stroke="black" d="M493.786,-708.5C493.786,-708.5 602.797,-708.5 602.797,-708.5 608.797,-708.5 614.797,-714.5 614.797,-720.5 614.797,-720.5 614.797,-810.5 614.797,-810.5 614.797,-816.5 608.797,-822.5 602.797,-822.5 602.797,-822.5 493.786,-822.5 493.786,-822.5 487.786,-822.5 481.786,-816.5 481.786,-810.5 481.786,-810.5 481.786,-720.5 481.786,-720.5 481.786,-714.5 487.786,-708.5 493.786,-708.5"/>
<text text-anchor="middle" x="548.292" y="-807.3" font-family="Times,serif" font-size="14.00">Warehouse</text>
<polyline fill="none" stroke="black" points="481.786,-800.5 614.797,-800.5 "/>
<text text-anchor="start" x="489.786" y="-785.3" font-family="Times,serif" font-size="14.00">id :integer</text>
<text text-anchor="start" x="489.786" y="-771.3" font-family="Times,serif" font-size="14.00">branch :string</text>
<text text-anchor="start" x="489.786" y="-757.3" font-family="Times,serif" font-size="14.00">location :string</text>
<text text-anchor="start" x="489.786" y="-743.3" font-family="Times,serif" font-size="14.00">geolocation :string</text>
<text text-anchor="start" x="489.786" y="-729.3" font-family="Times,serif" font-size="14.00">created_at :datetime</text>
<text text-anchor="start" x="489.786" y="-715.3" font-family="Times,serif" font-size="14.00">updated_at :datetime</text>
</g>
<!-- Warehouse&#45;&gt;Car -->
<g id="edge16" class="edge"><title>Warehouse&#45;&gt;Car</title>
<path fill="none" stroke="#7bf4a6" d="M551.972,-700.06C552.818,-622.796 542.384,-493.762 472.292,-414 440.834,-378.203 410.532,-405.041 371.292,-378 369.874,-377.023 368.466,-376.021 367.066,-374.994"/>
<ellipse fill="none" stroke="#7bf4a6" cx="551.903" cy="-704.295" rx="4" ry="4"/>
<polygon fill="#7bf4a6" stroke="#7bf4a6" points="367.058,-374.988 361.904,-365.309 363.104,-371.928 359.15,-368.867 359.15,-368.867 359.15,-368.867 363.104,-371.928 356.395,-372.426 367.058,-374.988 367.058,-374.988"/>
</g>
<!-- Warehouse&#45;&gt;Spare -->
<g id="edge15" class="edge"><title>Warehouse&#45;&gt;Spare</title>
<path fill="none" stroke="#c22b8a" d="M557.577,-700.149C570.35,-611.621 593.385,-451.979 607.7,-352.764"/>
<ellipse fill="none" stroke="#c22b8a" cx="556.982" cy="-704.269" rx="4.00001" ry="4.00001"/>
<polygon fill="#c22b8a" stroke="#c22b8a" points="607.715,-352.659 613.597,-343.404 608.43,-347.71 609.144,-342.761 609.144,-342.761 609.144,-342.761 608.43,-347.71 604.69,-342.118 607.715,-352.659 607.715,-352.659"/>
</g>
<!-- ActiveRecord::Base -->
<g id="node11" class="node"><title>ActiveRecord::Base</title>
<ellipse fill="none" stroke="black" cx="548.292" cy="-1189.5" rx="81.1422" ry="18"/>
<text text-anchor="middle" x="548.292" y="-1185.3" font-family="Times,serif" font-size="14.00">ActiveRecord::Base</text>
</g>
<!-- ActiveRecord::Base&#45;&gt;Car -->
<g id="edge1" class="edge"><title>ActiveRecord::Base&#45;&gt;Car</title>
<path fill="none" stroke="black" d="M513.756,-1173.18C497.219,-1166.29 476.987,-1158.49 458.292,-1153 379.173,-1129.78 328.673,-1180.68 276.292,-1117 230.481,-1061.31 253.924,-595.826 267.663,-377.599"/>
</g>
<!-- ActiveRecord::Base&#45;&gt;CarSpareAlloy -->
<g id="edge2" class="edge"><title>ActiveRecord::Base&#45;&gt;CarSpareAlloy</title>
<path fill="none" stroke="black" d="M602.351,-1175.95C633.514,-1165.66 670.196,-1147.63 689.292,-1117 717.687,-1071.46 733.871,-192.045 699.292,-151 641.654,-82.5849 376.094,-64.7711 241.283,-60.1328"/>
</g>
<!-- ActiveRecord::Base&#45;&gt;GenericCar -->
<g id="edge6" class="edge"><title>ActiveRecord::Base&#45;&gt;GenericCar</title>
<path fill="none" stroke="black" d="M514.253,-1173.12C497.654,-1166.12 477.227,-1158.26 458.292,-1153 364.937,-1127.08 313.864,-1183.38 243.292,-1117 166.864,-1045.11 155.864,-916.63 157.332,-836.792"/>
</g>
<!-- ActiveRecord::Base&#45;&gt;GenericSpare -->
<g id="edge8" class="edge"><title>ActiveRecord::Base&#45;&gt;GenericSpare</title>
<path fill="none" stroke="black" d="M515.25,-1172.9C498.539,-1165.67 477.725,-1157.68 458.292,-1153 377.543,-1133.57 142.801,-1177.86 86.2915,-1117 -17.6505,-1005.05 33.819,-519.1 57.5395,-335.814"/>
</g>
<!-- ActiveRecord::Base&#45;&gt;Insured -->
<g id="edge9" class="edge"><title>ActiveRecord::Base&#45;&gt;Insured</title>
<path fill="none" stroke="black" d="M574.387,-1172.37C592.132,-1159.76 614.158,-1140.45 624.292,-1117 655.28,-1045.3 667.149,-479.304 624.292,-414 602.23,-380.383 572.966,-402.77 541.292,-378 526.089,-366.112 512.124,-350.936 500.066,-335.607"/>
</g>
<!-- ActiveRecord::Base&#45;&gt;Prevaluation -->
<g id="edge12" class="edge"><title>ActiveRecord::Base&#45;&gt;Prevaluation</title>
<path fill="none" stroke="black" d="M525.136,-1172.23C508.157,-1159.15 485.799,-1139.32 472.292,-1117 469.429,-1112.27 466.647,-1107.45 463.945,-1102.56"/>
</g>
<!-- ActiveRecord::Base&#45;&gt;Spare -->
<g id="edge13" class="edge"><title>ActiveRecord::Base&#45;&gt;Spare</title>
<path fill="none" stroke="black" d="M588.322,-1173.82C613.038,-1162.43 642.721,-1143.98 657.292,-1117 731.519,-979.538 676.318,-569.059 657.292,-414 654.412,-390.529 649.062,-365.43 643.308,-342.67"/>
</g>
<!-- ActiveRecord::Base&#45;&gt;User -->
<g id="edge14" class="edge"><title>ActiveRecord::Base&#45;&gt;User</title>
<path fill="none" stroke="black" d="M613.885,-1178.68C653.797,-1169.36 702.797,-1151.4 733.292,-1117 800.554,-1041.13 818.37,-921.493 822.359,-843.506"/>
</g>
<!-- ActiveRecord::Base&#45;&gt;Warehouse -->
<g id="edge17" class="edge"><title>ActiveRecord::Base&#45;&gt;Warehouse</title>
<path fill="none" stroke="black" d="M548.292,-1171.43C548.292,-1113.07 548.292,-919.701 548.292,-822.83"/>
</g>
</g>
</svg>
