<?xml version="1.0" encoding="UTF-8" standalone="no"?>
<!DOCTYPE svg PUBLIC "-//W3C//DTD SVG 1.1//EN"
 "http://www.w3.org/Graphics/SVG/1.1/DTD/svg11.dtd">
<!-- Generated by graphviz version 2.38.0 (20140413.2041)
 -->
<!-- Title: models_diagram Pages: 1 -->
<svg width="1516pt" height="519pt"
 viewBox="0.00 0.00 1516.15 519.00" xmlns="http://www.w3.org/2000/svg" xmlns:xlink="http://www.w3.org/1999/xlink">
<g id="graph0" class="graph" transform="scale(1 1) rotate(0) translate(4 515)">
<title>models_diagram</title>
<polygon fill="white" stroke="none" points="-4,4 -4,-515 1512.15,-515 1512.15,4 -4,4"/>
<!-- _diagram_info -->
<g id="node1" class="node"><title>_diagram_info</title>
<text text-anchor="start" x="98.4594" y="-496.6" font-family="Times,serif" font-size="13.00">Models diagram</text>
<text text-anchor="start" x="98.4594" y="-483.6" font-family="Times,serif" font-size="13.00">Date: Mar 09 2015 &#45; 20:08</text>
<text text-anchor="start" x="98.4594" y="-470.6" font-family="Times,serif" font-size="13.00">Migration version: 20150310020100</text>
<text text-anchor="start" x="98.4594" y="-457.6" font-family="Times,serif" font-size="13.00">Generated by RailRoady 1.3.0</text>
<text text-anchor="start" x="98.4594" y="-444.6" font-family="Times,serif" font-size="13.00">http://railroady.prestonlee.com</text>
</g>
<!-- Brand -->
<g id="node2" class="node"><title>Brand</title>
<ellipse fill="none" stroke="black" cx="347.147" cy="-474.5" rx="31.9393" ry="18"/>
<text text-anchor="middle" x="347.147" y="-470.3" font-family="Times,serif" font-size="14.00">Brand</text>
</g>
<!-- ModelAcronym -->
<g id="node14" class="node"><title>ModelAcronym</title>
<ellipse fill="none" stroke="black" cx="347.147" cy="-383" rx="66.6925" ry="18"/>
<text text-anchor="middle" x="347.147" y="-378.8" font-family="Times,serif" font-size="14.00">ModelAcronym</text>
</g>
<!-- Brand&#45;&gt;ModelAcronym -->
<g id="edge1" class="edge"><title>Brand&#45;&gt;ModelAcronym</title>
<path fill="none" stroke="#f6ae9b" d="M347.147,-447.903C347.147,-436.441 347.147,-422.914 347.147,-411.263"/>
<ellipse fill="none" stroke="#f6ae9b" cx="347.147" cy="-452.243" rx="4" ry="4"/>
<polygon fill="#f6ae9b" stroke="#f6ae9b" points="347.147,-411.204 351.647,-401.203 347.147,-406.204 347.147,-401.204 347.147,-401.204 347.147,-401.204 347.147,-406.204 342.647,-401.204 347.147,-411.204 347.147,-411.204"/>
</g>
<!-- CarType -->
<g id="node3" class="node"><title>CarType</title>
<ellipse fill="none" stroke="black" cx="501.147" cy="-383" rx="40.3571" ry="18"/>
<text text-anchor="middle" x="501.147" y="-378.8" font-family="Times,serif" font-size="14.00">CarType</text>
</g>
<!-- GenericCar -->
<g id="node6" class="node"><title>GenericCar</title>
<ellipse fill="none" stroke="black" cx="347.147" cy="-310" rx="50.7224" ry="18"/>
<text text-anchor="middle" x="347.147" y="-305.8" font-family="Times,serif" font-size="14.00">GenericCar</text>
</g>
<!-- CarType&#45;&gt;GenericCar -->
<g id="edge2" class="edge"><title>CarType&#45;&gt;GenericCar</title>
<path fill="none" stroke="#a8dfbc" d="M466.653,-366.097C442.751,-355.077 410.891,-340.388 386.078,-328.949"/>
<ellipse fill="none" stroke="#a8dfbc" cx="470.337" cy="-367.795" rx="4.00002" ry="4.00002"/>
<polygon fill="#a8dfbc" stroke="#a8dfbc" points="386.026,-328.925 378.829,-320.651 381.485,-326.831 376.945,-324.738 376.945,-324.738 376.945,-324.738 381.485,-326.831 375.061,-328.824 386.026,-328.925 386.026,-328.925"/>
</g>
<!-- GenericFamily -->
<g id="node9" class="node"><title>GenericFamily</title>
<ellipse fill="none" stroke="black" cx="501.147" cy="-237" rx="63.301" ry="18"/>
<text text-anchor="middle" x="501.147" y="-232.8" font-family="Times,serif" font-size="14.00">GenericFamily</text>
</g>
<!-- CarType&#45;&gt;GenericFamily -->
<g id="edge4" class="edge"><title>CarType&#45;&gt;GenericFamily</title>
<path fill="none" stroke="#0e8ab6" d="M501.147,-354.546C501.147,-328.878 501.147,-290.767 501.147,-265.185"/>
<polygon fill="#0e8ab6" stroke="#0e8ab6" points="501.147,-354.916 496.647,-364.916 501.147,-359.916 501.147,-364.916 501.147,-364.916 501.147,-364.916 501.147,-359.916 505.647,-364.916 501.147,-354.916 501.147,-354.916"/>
<polygon fill="#0e8ab6" stroke="#0e8ab6" points="501.147,-265.062 505.647,-255.062 501.147,-260.062 501.147,-255.062 501.147,-255.062 501.147,-255.062 501.147,-260.062 496.647,-255.062 501.147,-265.062 501.147,-265.062"/>
</g>
<!-- TypeLikelihood -->
<g id="node25" class="node"><title>TypeLikelihood</title>
<ellipse fill="none" stroke="black" cx="770.147" cy="-164" rx="66.4333" ry="18"/>
<text text-anchor="middle" x="770.147" y="-159.8" font-family="Times,serif" font-size="14.00">TypeLikelihood</text>
</g>
<!-- CarType&#45;&gt;TypeLikelihood -->
<g id="edge3" class="edge"><title>CarType&#45;&gt;TypeLikelihood</title>
<path fill="none" stroke="#76346d" d="M526.481,-361.563C576.84,-320.94 689.198,-230.301 741.872,-187.809"/>
<ellipse fill="none" stroke="#76346d" cx="523.176" cy="-364.23" rx="4.00002" ry="4.00002"/>
<polygon fill="#76346d" stroke="#76346d" points="742.012,-187.697 752.62,-184.92 745.903,-184.557 749.795,-181.418 749.795,-181.418 749.795,-181.418 745.903,-184.557 746.969,-177.916 742.012,-187.697 742.012,-187.697"/>
</g>
<!-- FamilyLikelihood -->
<g id="node4" class="node"><title>FamilyLikelihood</title>
<ellipse fill="none" stroke="black" cx="310.147" cy="-164" rx="73.943" ry="18"/>
<text text-anchor="middle" x="310.147" y="-159.8" font-family="Times,serif" font-size="14.00">FamilyLikelihood</text>
</g>
<!-- Generation -->
<g id="node5" class="node"><title>Generation</title>
<ellipse fill="none" stroke="black" cx="160.147" cy="-383" rx="49.286" ry="18"/>
<text text-anchor="middle" x="160.147" y="-378.8" font-family="Times,serif" font-size="14.00">Generation</text>
</g>
<!-- Generation&#45;&gt;GenericCar -->
<g id="edge6" class="edge"><title>Generation&#45;&gt;GenericCar</title>
<path fill="none" stroke="#9252fb" d="M202.73,-365.832C233.139,-354.286 273.887,-338.815 304.345,-327.251"/>
<polygon fill="#9252fb" stroke="#9252fb" points="202.497,-365.92 191.551,-365.263 197.823,-367.695 193.148,-369.47 193.148,-369.47 193.148,-369.47 197.823,-367.695 194.746,-373.677 202.497,-365.92 202.497,-365.92"/>
<polygon fill="#9252fb" stroke="#9252fb" points="304.498,-327.193 315.444,-327.85 309.172,-325.418 313.847,-323.643 313.847,-323.643 313.847,-323.643 309.172,-325.418 312.249,-319.437 304.498,-327.193 304.498,-327.193"/>
</g>
<!-- GenericCarGeneration -->
<g id="node7" class="node"><title>GenericCarGeneration</title>
<ellipse fill="none" stroke="black" cx="90.1471" cy="-237" rx="90.2944" ry="18"/>
<text text-anchor="middle" x="90.1471" y="-232.8" font-family="Times,serif" font-size="14.00">GenericCarGeneration</text>
</g>
<!-- Generation&#45;&gt;GenericCarGeneration -->
<g id="edge5" class="edge"><title>Generation&#45;&gt;GenericCarGeneration</title>
<path fill="none" stroke="#9e3fcd" d="M148.428,-357.891C135.84,-331.996 115.901,-290.979 102.92,-264.276"/>
<ellipse fill="none" stroke="#9e3fcd" cx="150.231" cy="-361.602" rx="4.00002" ry="4.00002"/>
<polygon fill="#9e3fcd" stroke="#9e3fcd" points="102.851,-264.133 102.526,-253.172 100.665,-259.637 98.4789,-255.14 98.4789,-255.14 98.4789,-255.14 100.665,-259.637 94.4318,-257.107 102.851,-264.133 102.851,-264.133"/>
</g>
<!-- GenericCar&#45;&gt;FamilyLikelihood -->
<g id="edge11" class="edge"><title>GenericCar&#45;&gt;FamilyLikelihood</title>
<path fill="none" stroke="#b513ec" d="M306.292,-292.48C290.471,-283.828 274.052,-271.527 265.147,-255 257.558,-240.915 259.7,-234.044 265.147,-219 269.155,-207.931 276.532,-197.536 284.17,-188.879"/>
<ellipse fill="none" stroke="#b513ec" cx="309.936" cy="-294.364" rx="4.00002" ry="4.00002"/>
<polygon fill="#b513ec" stroke="#b513ec" points="284.313,-188.727 294.445,-184.533 287.741,-185.088 291.169,-181.448 291.169,-181.448 291.169,-181.448 287.741,-185.088 287.894,-178.362 284.313,-188.727 284.313,-188.727"/>
</g>
<!-- GenericCar&#45;&gt;GenericCarGeneration -->
<g id="edge9" class="edge"><title>GenericCar&#45;&gt;GenericCarGeneration</title>
<path fill="none" stroke="#19e8c3" d="M295.772,-298.701C265.907,-292.353 227.668,-283.605 194.147,-274 176.49,-268.94 157.428,-262.604 140.507,-256.664"/>
<ellipse fill="none" stroke="#19e8c3" cx="300.048" cy="-299.602" rx="4.00001" ry="4.00001"/>
<polygon fill="#19e8c3" stroke="#19e8c3" points="140.242,-256.57 132.324,-248.984 135.53,-254.897 130.818,-253.224 130.818,-253.224 130.818,-253.224 135.53,-254.897 129.313,-257.465 140.242,-256.57 140.242,-256.57"/>
</g>
<!-- GenericCarImage -->
<g id="node8" class="node"><title>GenericCarImage</title>
<ellipse fill="none" stroke="black" cx="347.147" cy="-237" rx="72.9135" ry="18"/>
<text text-anchor="middle" x="347.147" y="-232.8" font-family="Times,serif" font-size="14.00">GenericCarImage</text>
</g>
<!-- GenericCar&#45;&gt;GenericCarImage -->
<g id="edge10" class="edge"><title>GenericCar&#45;&gt;GenericCarImage</title>
<path fill="none" stroke="#bd7443" d="M347.147,-283.791C347.147,-277.832 347.147,-271.45 347.147,-265.399"/>
<ellipse fill="none" stroke="#bd7443" cx="347.147" cy="-287.813" rx="4" ry="4"/>
<polygon fill="#bd7443" stroke="#bd7443" points="347.147,-265.029 351.647,-255.029 347.147,-260.029 347.147,-255.029 347.147,-255.029 347.147,-255.029 347.147,-260.029 342.647,-255.029 347.147,-265.029 347.147,-265.029"/>
</g>
<!-- GenericCar&#45;&gt;GenericFamily -->
<g id="edge12" class="edge"><title>GenericCar&#45;&gt;GenericFamily</title>
<path fill="none" stroke="#aa0d52" d="M385.967,-291.102C408.643,-280.648 437.233,-267.467 460.256,-256.852"/>
<polygon fill="#aa0d52" stroke="#aa0d52" points="385.921,-291.124 374.956,-291.224 381.381,-293.217 376.84,-295.31 376.84,-295.31 376.84,-295.31 381.381,-293.217 378.724,-299.397 385.921,-291.124 385.921,-291.124"/>
<polygon fill="#aa0d52" stroke="#aa0d52" points="460.344,-256.812 471.309,-256.712 464.884,-254.719 469.425,-252.625 469.425,-252.625 469.425,-252.625 464.884,-254.719 467.541,-248.539 460.344,-256.812 460.344,-256.812"/>
</g>
<!-- GenericFittable -->
<g id="node10" class="node"><title>GenericFittable</title>
<ellipse fill="none" stroke="black" cx="234.147" cy="-91" rx="65.2217" ry="18"/>
<text text-anchor="middle" x="234.147" y="-86.8" font-family="Times,serif" font-size="14.00">GenericFittable</text>
</g>
<!-- GenericCar&#45;&gt;GenericFittable -->
<g id="edge8" class="edge"><title>GenericCar&#45;&gt;GenericFittable</title>
<path fill="none" stroke="#2b6812" d="M304.305,-293.482C286.579,-284.87 267.542,-272.325 256.147,-255 228.601,-213.117 223.918,-196.026 227.147,-146 227.704,-137.377 228.755,-128.027 229.877,-119.569"/>
<ellipse fill="none" stroke="#2b6812" cx="308.162" cy="-295.261" rx="4.00002" ry="4.00002"/>
<polygon fill="#2b6812" stroke="#2b6812" points="229.907,-119.356 235.76,-110.083 230.606,-114.405 231.304,-109.454 231.304,-109.454 231.304,-109.454 230.606,-114.405 226.849,-108.826 229.907,-119.356 229.907,-119.356"/>
</g>
<!-- StockCar -->
<g id="node20" class="node"><title>StockCar</title>
<ellipse fill="none" stroke="black" cx="1095.15" cy="-237" rx="43.0387" ry="18"/>
<text text-anchor="middle" x="1095.15" y="-232.8" font-family="Times,serif" font-size="14.00">StockCar</text>
</g>
<!-- GenericCar&#45;&gt;StockCar -->
<g id="edge7" class="edge"><title>GenericCar&#45;&gt;StockCar</title>
<path fill="none" stroke="#8a3dbd" d="M404.114,-304.016C509.015,-294.781 739.796,-274.199 934.147,-255 970.837,-251.376 1012.2,-247.002 1043.81,-243.599"/>
<ellipse fill="none" stroke="#8a3dbd" cx="399.856" cy="-304.391" rx="4" ry="4"/>
<polygon fill="#8a3dbd" stroke="#8a3dbd" points="1044.19,-243.557 1054.62,-246.958 1049.16,-243.021 1054.14,-242.484 1054.14,-242.484 1054.14,-242.484 1049.16,-243.021 1053.65,-238.01 1044.19,-243.557 1044.19,-243.557"/>
</g>
<!-- GenericFamily&#45;&gt;FamilyLikelihood -->
<g id="edge18" class="edge"><title>GenericFamily&#45;&gt;FamilyLikelihood</title>
<path fill="none" stroke="#c03f78" d="M453.032,-220.324C435.655,-214.485 415.941,-207.656 398.147,-201 383.952,-195.69 368.62,-189.559 354.793,-183.878"/>
<ellipse fill="none" stroke="#c03f78" cx="457.043" cy="-221.665" rx="4.00001" ry="4.00001"/>
<polygon fill="#c03f78" stroke="#c03f78" points="354.734,-183.853 347.212,-175.874 350.113,-181.943 345.492,-180.032 345.492,-180.032 345.492,-180.032 350.113,-181.943 343.773,-184.191 354.734,-183.853 354.734,-183.853"/>
</g>
<!-- GenericFamily&#45;&gt;GenericFamily -->
<g id="edge13" class="edge"><title>GenericFamily&#45;&gt;GenericFamily</title>
<path fill="none" stroke="#5305b8" d="M568.317,-242.878C576.749,-241.841 582.297,-239.882 582.297,-237 582.297,-234.38 577.712,-232.522 570.543,-231.428"/>
<ellipse fill="none" stroke="#5305b8" cx="564.218" cy="-243.219" rx="4" ry="4"/>
<polygon fill="#5305b8" stroke="#5305b8" points="570.188,-231.394 560.657,-225.97 565.21,-230.922 560.232,-230.449 560.232,-230.449 560.232,-230.449 565.21,-230.922 559.807,-234.929 570.188,-231.394 570.188,-231.394"/>
<text text-anchor="middle" x="599.018" y="-232.8" font-family="Times,serif" font-size="14.00">childs</text>
</g>
<!-- GenericSpare -->
<g id="node11" class="node"><title>GenericSpare</title>
<ellipse fill="none" stroke="black" cx="627.147" cy="-164" rx="58.4563" ry="18"/>
<text text-anchor="middle" x="627.147" y="-159.8" font-family="Times,serif" font-size="14.00">GenericSpare</text>
</g>
<!-- GenericFamily&#45;&gt;GenericSpare -->
<g id="edge15" class="edge"><title>GenericFamily&#45;&gt;GenericSpare</title>
<path fill="none" stroke="#e6f242" d="M537.356,-215.597C554.288,-206.056 574.393,-194.726 591.282,-185.21"/>
<polygon fill="#e6f242" stroke="#e6f242" points="537.199,-215.685 526.278,-216.674 532.843,-218.139 528.487,-220.594 528.487,-220.594 528.487,-220.594 532.843,-218.139 530.696,-224.514 537.199,-215.685 537.199,-215.685"/>
<polygon fill="#e6f242" stroke="#e6f242" points="591.581,-185.041 602.502,-184.052 595.937,-182.587 600.293,-180.132 600.293,-180.132 600.293,-180.132 595.937,-182.587 598.084,-176.212 591.581,-185.041 591.581,-185.041"/>
</g>
<!-- SpareLikelihood -->
<g id="node19" class="node"><title>SpareLikelihood</title>
<ellipse fill="none" stroke="black" cx="436.147" cy="-91" rx="69.0978" ry="18"/>
<text text-anchor="middle" x="436.147" y="-86.8" font-family="Times,serif" font-size="14.00">SpareLikelihood</text>
</g>
<!-- GenericFamily&#45;&gt;SpareLikelihood -->
<g id="edge14" class="edge"><title>GenericFamily&#45;&gt;SpareLikelihood</title>
<path fill="none" stroke="#5b9926" d="M463.785,-216.591C451.008,-207.875 438.174,-196.295 431.147,-182 421.581,-162.538 423.836,-137.775 427.918,-119.152"/>
<ellipse fill="none" stroke="#5b9926" cx="467.479" cy="-218.971" rx="4.00002" ry="4.00002"/>
<polygon fill="#5b9926" stroke="#5b9926" points="427.968,-118.951 434.75,-110.334 429.175,-114.099 430.383,-109.248 430.383,-109.248 430.383,-109.248 429.175,-114.099 426.016,-108.161 427.968,-118.951 427.968,-118.951"/>
</g>
<!-- StockFamily -->
<g id="node22" class="node"><title>StockFamily</title>
<ellipse fill="none" stroke="black" cx="495.147" cy="-164" rx="55.118" ry="18"/>
<text text-anchor="middle" x="495.147" y="-159.8" font-family="Times,serif" font-size="14.00">StockFamily</text>
</g>
<!-- GenericFamily&#45;&gt;StockFamily -->
<g id="edge16" class="edge"><title>GenericFamily&#45;&gt;StockFamily</title>
<path fill="none" stroke="#860085" d="M499.017,-210.791C498.513,-204.832 497.974,-198.45 497.462,-192.399"/>
<ellipse fill="none" stroke="#860085" cx="499.358" cy="-214.827" rx="4" ry="4"/>
<polygon fill="#860085" stroke="#860085" points="497.428,-191.993 501.07,-181.65 497.007,-187.011 496.586,-182.029 496.586,-182.029 496.586,-182.029 497.007,-187.011 492.102,-182.408 497.428,-191.993 497.428,-191.993"/>
</g>
<!-- GenericFamily&#45;&gt;TypeLikelihood -->
<g id="edge17" class="edge"><title>GenericFamily&#45;&gt;TypeLikelihood</title>
<path fill="none" stroke="#e509d8" d="M553.625,-222.149C599.994,-209.91 667.403,-192.118 714.655,-179.646"/>
<ellipse fill="none" stroke="#e509d8" cx="549.736" cy="-223.175" rx="4.00001" ry="4.00001"/>
<polygon fill="#e509d8" stroke="#e509d8" points="714.749,-179.622 725.566,-181.421 719.583,-178.346 724.418,-177.07 724.418,-177.07 724.418,-177.07 719.583,-178.346 723.269,-172.719 714.749,-179.622 714.749,-179.622"/>
</g>
<!-- GenericSpare&#45;&gt;GenericCar -->
<g id="edge20" class="edge"><title>GenericSpare&#45;&gt;GenericCar</title>
<path fill="none" stroke="#532174" d="M634.367,-192.075C637.882,-211.804 638.674,-237.955 624.147,-255 596.678,-287.232 479.998,-300.557 407.115,-305.812"/>
<polygon fill="#532174" stroke="#532174" points="634.338,-191.937 636.685,-181.225 633.31,-187.044 632.281,-182.151 632.281,-182.151 632.281,-182.151 633.31,-187.044 627.877,-183.077 634.338,-191.937 634.338,-191.937"/>
<polygon fill="#532174" stroke="#532174" points="407.112,-305.812 396.826,-302.012 402.124,-306.156 397.136,-306.501 397.136,-306.501 397.136,-306.501 402.124,-306.156 397.446,-310.99 407.112,-305.812 407.112,-305.812"/>
</g>
<!-- GenericSpare&#45;&gt;GenericFittable -->
<g id="edge19" class="edge"><title>GenericSpare&#45;&gt;GenericFittable</title>
<path fill="none" stroke="#bee670" d="M576.286,-149.813C570.521,-148.458 564.717,-147.157 559.147,-146 470.374,-127.559 366.926,-111.251 301.015,-101.505"/>
<ellipse fill="none" stroke="#bee670" cx="580.21" cy="-150.752" rx="4.00001" ry="4.00001"/>
<polygon fill="#bee670" stroke="#bee670" points="300.66,-101.453 291.422,-95.5457 295.714,-100.725 290.767,-99.9978 290.767,-99.9978 290.767,-99.9978 295.714,-100.725 290.112,-104.45 300.66,-101.453 300.66,-101.453"/>
</g>
<!-- GenericSpareImage -->
<g id="node12" class="node"><title>GenericSpareImage</title>
<ellipse fill="none" stroke="black" cx="627.147" cy="-91" rx="80.1472" ry="18"/>
<text text-anchor="middle" x="627.147" y="-86.8" font-family="Times,serif" font-size="14.00">GenericSpareImage</text>
</g>
<!-- GenericSpare&#45;&gt;GenericSpareImage -->
<g id="edge23" class="edge"><title>GenericSpare&#45;&gt;GenericSpareImage</title>
<path fill="none" stroke="#13459f" d="M627.147,-137.791C627.147,-131.832 627.147,-125.45 627.147,-119.399"/>
<ellipse fill="none" stroke="#13459f" cx="627.147" cy="-141.813" rx="4" ry="4"/>
<polygon fill="#13459f" stroke="#13459f" points="627.147,-119.029 631.647,-109.029 627.147,-114.029 627.147,-109.029 627.147,-109.029 627.147,-109.029 627.147,-114.029 622.647,-109.029 627.147,-119.029 627.147,-119.029"/>
</g>
<!-- GenericSpare&#45;&gt;SpareLikelihood -->
<g id="edge21" class="edge"><title>GenericSpare&#45;&gt;SpareLikelihood</title>
<path fill="none" stroke="#bf011d" d="M583.532,-146.787C553.778,-135.727 514.374,-121.079 483.796,-109.713"/>
<ellipse fill="none" stroke="#bf011d" cx="587.472" cy="-148.252" rx="4.00001" ry="4.00001"/>
<polygon fill="#bf011d" stroke="#bf011d" points="483.575,-109.63 475.77,-101.928 478.889,-107.888 474.202,-106.146 474.202,-106.146 474.202,-106.146 478.889,-107.888 472.634,-110.364 483.575,-109.63 483.575,-109.63"/>
</g>
<!-- StockSpare -->
<g id="node23" class="node"><title>StockSpare</title>
<ellipse fill="none" stroke="black" cx="900.147" cy="-91" rx="50.2723" ry="18"/>
<text text-anchor="middle" x="900.147" y="-86.8" font-family="Times,serif" font-size="14.00">StockSpare</text>
</g>
<!-- GenericSpare&#45;&gt;StockSpare -->
<g id="edge22" class="edge"><title>GenericSpare&#45;&gt;StockSpare</title>
<path fill="none" stroke="#a978b4" d="M678.002,-149.774C727.411,-136.924 801.94,-117.541 850.823,-104.828"/>
<ellipse fill="none" stroke="#a978b4" cx="673.975" cy="-150.821" rx="4.00001" ry="4.00001"/>
<polygon fill="#a978b4" stroke="#a978b4" points="850.866,-104.817 861.677,-106.655 855.705,-103.558 860.544,-102.3 860.544,-102.3 860.544,-102.3 855.705,-103.558 859.411,-97.9446 850.866,-104.817 850.866,-104.817"/>
</g>
<!-- Insured -->
<g id="node13" class="node"><title>Insured</title>
<ellipse fill="none" stroke="black" cx="1193.15" cy="-237" rx="36.7576" ry="18"/>
<text text-anchor="middle" x="1193.15" y="-232.8" font-family="Times,serif" font-size="14.00">Insured</text>
</g>
<!-- ModelAcronym&#45;&gt;GenericCar -->
<g id="edge24" class="edge"><title>ModelAcronym&#45;&gt;GenericCar</title>
<path fill="none" stroke="#c1dde0" d="M347.147,-356.791C347.147,-350.832 347.147,-344.45 347.147,-338.399"/>
<ellipse fill="none" stroke="#c1dde0" cx="347.147" cy="-360.813" rx="4" ry="4"/>
<polygon fill="#c1dde0" stroke="#c1dde0" points="347.147,-338.029 351.647,-328.029 347.147,-333.029 347.147,-328.029 347.147,-328.029 347.147,-328.029 347.147,-333.029 342.647,-328.029 347.147,-338.029 347.147,-338.029"/>
</g>
<!-- MoldComponent -->
<g id="node15" class="node"><title>MoldComponent</title>
<ellipse fill="none" stroke="black" cx="925.147" cy="-164" rx="70.5772" ry="18"/>
<text text-anchor="middle" x="925.147" y="-159.8" font-family="Times,serif" font-size="14.00">MoldComponent</text>
</g>
<!-- MoldSpare -->
<g id="node16" class="node"><title>MoldSpare</title>
<ellipse fill="none" stroke="black" cx="876.147" cy="-237" rx="49.3119" ry="18"/>
<text text-anchor="middle" x="876.147" y="-232.8" font-family="Times,serif" font-size="14.00">MoldSpare</text>
</g>
<!-- MoldSpare&#45;&gt;GenericSpare -->
<g id="edge25" class="edge"><title>MoldSpare&#45;&gt;GenericSpare</title>
<path fill="none" stroke="#f790b7" d="M830.817,-223.075C787.728,-210.788 723.015,-192.336 678.145,-179.542"/>
<ellipse fill="none" stroke="#f790b7" cx="834.753" cy="-224.197" rx="4.00001" ry="4.00001"/>
<polygon fill="#f790b7" stroke="#f790b7" points="677.939,-179.483 669.557,-172.413 673.131,-178.112 668.323,-176.741 668.323,-176.741 668.323,-176.741 673.131,-178.112 667.089,-181.068 677.939,-179.483 677.939,-179.483"/>
</g>
<!-- MoldSpare&#45;&gt;MoldComponent -->
<g id="edge26" class="edge"><title>MoldSpare&#45;&gt;MoldComponent</title>
<path fill="none" stroke="#1610cb" d="M892.309,-212.582C897.12,-205.61 902.419,-197.932 907.33,-190.816"/>
<ellipse fill="none" stroke="#1610cb" cx="890.031" cy="-215.882" rx="4.00002" ry="4.00002"/>
<polygon fill="#1610cb" stroke="#1610cb" points="907.598,-190.429 916.981,-184.754 910.438,-186.314 913.278,-182.198 913.278,-182.198 913.278,-182.198 910.438,-186.314 909.574,-179.642 907.598,-190.429 907.598,-190.429"/>
</g>
<!-- Prevaluation -->
<g id="node17" class="node"><title>Prevaluation</title>
<ellipse fill="none" stroke="black" cx="1199.15" cy="-310" rx="54.6076" ry="18"/>
<text text-anchor="middle" x="1199.15" y="-305.8" font-family="Times,serif" font-size="14.00">Prevaluation</text>
</g>
<!-- Prevaluation&#45;&gt;Insured -->
<g id="edge28" class="edge"><title>Prevaluation&#45;&gt;Insured</title>
<path fill="none" stroke="#44823c" d="M1197.02,-283.791C1196.51,-277.832 1195.97,-271.45 1195.46,-265.399"/>
<ellipse fill="none" stroke="#44823c" cx="1197.36" cy="-287.827" rx="4" ry="4"/>
<polygon fill="#44823c" stroke="#44823c" points="1195.43,-264.993 1199.07,-254.65 1195.01,-260.011 1194.59,-255.029 1194.59,-255.029 1194.59,-255.029 1195.01,-260.011 1190.1,-255.408 1195.43,-264.993 1195.43,-264.993"/>
</g>
<!-- PrevaluationImage -->
<g id="node18" class="node"><title>PrevaluationImage</title>
<ellipse fill="none" stroke="black" cx="1325.15" cy="-237" rx="76.7985" ry="18"/>
<text text-anchor="middle" x="1325.15" y="-232.8" font-family="Times,serif" font-size="14.00">PrevaluationImage</text>
</g>
<!-- Prevaluation&#45;&gt;PrevaluationImage -->
<g id="edge30" class="edge"><title>Prevaluation&#45;&gt;PrevaluationImage</title>
<path fill="none" stroke="#fa5878" d="M1232.7,-290.092C1249.8,-280.46 1270.62,-268.725 1288.17,-258.834"/>
<ellipse fill="none" stroke="#fa5878" cx="1229.05" cy="-292.152" rx="4.00002" ry="4.00002"/>
<polygon fill="#fa5878" stroke="#fa5878" points="1288.31,-258.759 1299.23,-257.771 1292.66,-256.305 1297.02,-253.85 1297.02,-253.85 1297.02,-253.85 1292.66,-256.305 1294.81,-249.93 1288.31,-258.759 1288.31,-258.759"/>
</g>
<!-- Prevaluation&#45;&gt;StockCar -->
<g id="edge27" class="edge"><title>Prevaluation&#45;&gt;StockCar</title>
<path fill="none" stroke="#e875c9" d="M1169.61,-288.835C1155.63,-279.288 1138.96,-267.909 1124.94,-258.34"/>
<ellipse fill="none" stroke="#e875c9" cx="1173.28" cy="-291.339" rx="4.00002" ry="4.00002"/>
<polygon fill="#e875c9" stroke="#e875c9" points="1124.86,-258.286 1119.14,-248.931 1120.73,-255.467 1116.6,-252.648 1116.6,-252.648 1116.6,-252.648 1120.73,-255.467 1114.07,-256.365 1124.86,-258.286 1124.86,-258.286"/>
</g>
<!-- Valuation -->
<g id="node27" class="node"><title>Valuation</title>
<ellipse fill="none" stroke="black" cx="1464.15" cy="-237" rx="43.9992" ry="18"/>
<text text-anchor="middle" x="1464.15" y="-232.8" font-family="Times,serif" font-size="14.00">Valuation</text>
</g>
<!-- Prevaluation&#45;&gt;Valuation -->
<g id="edge29" class="edge"><title>Prevaluation&#45;&gt;Valuation</title>
<path fill="none" stroke="#4c96bc" d="M1250.2,-296.922C1293.29,-286.506 1356.51,-270.706 1411.15,-255 1415.11,-253.861 1419.22,-252.63 1423.33,-251.369"/>
<ellipse fill="none" stroke="#4c96bc" cx="1246.28" cy="-297.865" rx="4.00001" ry="4.00001"/>
<ellipse fill="#4c96bc" stroke="#4c96bc" cx="1427.35" cy="-250.114" rx="4.00001" ry="4.00001"/>
</g>
<!-- StockCarImage -->
<g id="node21" class="node"><title>StockCarImage</title>
<ellipse fill="none" stroke="black" cx="1117.15" cy="-164" rx="65.2304" ry="18"/>
<text text-anchor="middle" x="1117.15" y="-159.8" font-family="Times,serif" font-size="14.00">StockCarImage</text>
</g>
<!-- StockCar&#45;&gt;StockCarImage -->
<g id="edge31" class="edge"><title>StockCar&#45;&gt;StockCarImage</title>
<path fill="none" stroke="#2b5cc4" d="M1102.87,-211.08C1104.82,-204.774 1106.93,-197.979 1108.91,-191.594"/>
<ellipse fill="none" stroke="#2b5cc4" cx="1101.66" cy="-214.992" rx="4.00001" ry="4.00001"/>
<polygon fill="#2b5cc4" stroke="#2b5cc4" points="1108.91,-191.581 1116.17,-183.361 1110.39,-186.805 1111.87,-182.029 1111.87,-182.029 1111.87,-182.029 1110.39,-186.805 1107.57,-180.697 1108.91,-191.581 1108.91,-191.581"/>
</g>
<!-- StockSpareImage -->
<g id="node24" class="node"><title>StockSpareImage</title>
<ellipse fill="none" stroke="black" cx="900.147" cy="-18" rx="72.4635" ry="18"/>
<text text-anchor="middle" x="900.147" y="-13.8" font-family="Times,serif" font-size="14.00">StockSpareImage</text>
</g>
<!-- StockSpare&#45;&gt;StockSpareImage -->
<g id="edge32" class="edge"><title>StockSpare&#45;&gt;StockSpareImage</title>
<path fill="none" stroke="#8ee38c" d="M900.147,-64.791C900.147,-58.832 900.147,-52.4496 900.147,-46.3988"/>
<ellipse fill="none" stroke="#8ee38c" cx="900.147" cy="-68.8129" rx="4" ry="4"/>
<polygon fill="#8ee38c" stroke="#8ee38c" points="900.147,-46.0288 904.647,-36.0288 900.147,-41.0288 900.147,-36.0288 900.147,-36.0288 900.147,-36.0288 900.147,-41.0288 895.647,-36.0289 900.147,-46.0288 900.147,-46.0288"/>
</g>
<!-- User -->
<g id="node26" class="node"><title>User</title>
<ellipse fill="none" stroke="black" cx="424.147" cy="-474.5" rx="27" ry="18"/>
<text text-anchor="middle" x="424.147" y="-470.3" font-family="Times,serif" font-size="14.00">User</text>
</g>
<!-- Warehouse -->
<g id="node28" class="node"><title>Warehouse</title>
<ellipse fill="none" stroke="black" cx="1057.15" cy="-310" rx="49.3546" ry="18"/>
<text text-anchor="middle" x="1057.15" y="-305.8" font-family="Times,serif" font-size="14.00">Warehouse</text>
</g>
<!-- Warehouse&#45;&gt;StockCar -->
<g id="edge34" class="edge"><title>Warehouse&#45;&gt;StockCar</title>
<path fill="none" stroke="#570b2c" d="M1070.05,-284.898C1073.7,-278.071 1077.69,-270.613 1081.39,-263.695"/>
<ellipse fill="none" stroke="#570b2c" cx="1068.04" cy="-288.647" rx="4.00002" ry="4.00002"/>
<polygon fill="#570b2c" stroke="#570b2c" points="1081.49,-263.522 1090.17,-256.829 1083.85,-259.114 1086.21,-254.705 1086.21,-254.705 1086.21,-254.705 1083.85,-259.114 1082.24,-252.582 1081.49,-263.522 1081.49,-263.522"/>
</g>
<!-- Warehouse&#45;&gt;StockSpare -->
<g id="edge33" class="edge"><title>Warehouse&#45;&gt;StockSpare</title>
<path fill="none" stroke="#8c2040" d="M1050.33,-284.075C1038.43,-241.136 1014.25,-156.757 1005.15,-146 990.001,-128.101 967.427,-115.417 947.087,-106.86"/>
<ellipse fill="none" stroke="#8c2040" cx="1051.41" cy="-287.975" rx="4.00001" ry="4.00001"/>
<polygon fill="#8c2040" stroke="#8c2040" points="946.923,-106.795 939.292,-98.9191 942.276,-104.948 937.63,-103.101 937.63,-103.101 937.63,-103.101 942.276,-104.948 935.968,-107.283 946.923,-106.795 946.923,-106.795"/>
</g>
</g>
</svg>
