<?xml version="1.0" encoding="UTF-8" standalone="no"?>
<!DOCTYPE svg PUBLIC "-//W3C//DTD SVG 1.1//EN"
 "http://www.w3.org/Graphics/SVG/1.1/DTD/svg11.dtd">
<!-- Generated by graphviz version 2.38.0 (20140413.2041)
 -->
<!-- Title: models_diagram Pages: 1 -->
<svg width="1558pt" height="369pt"
 viewBox="0.00 0.00 1557.78 369.00" xmlns="http://www.w3.org/2000/svg" xmlns:xlink="http://www.w3.org/1999/xlink">
<g id="graph0" class="graph" transform="scale(1 1) rotate(0) translate(4 365)">
<title>models_diagram</title>
<polygon fill="white" stroke="none" points="-4,4 -4,-365 1553.78,-365 1553.78,4 -4,4"/>
<!-- _diagram_info -->
<g id="node1" class="node"><title>_diagram_info</title>
<text text-anchor="start" x="248.459" y="-346.6" font-family="Times,serif" font-size="13.00">Models diagram</text>
<text text-anchor="start" x="248.459" y="-333.6" font-family="Times,serif" font-size="13.00">Date: Feb 12 2015 &#45; 12:49</text>
<text text-anchor="start" x="248.459" y="-320.6" font-family="Times,serif" font-size="13.00">Migration version: 20150212181944</text>
<text text-anchor="start" x="248.459" y="-307.6" font-family="Times,serif" font-size="13.00">Generated by RailRoady 1.3.0</text>
<text text-anchor="start" x="248.459" y="-294.6" font-family="Times,serif" font-size="13.00">http://railroady.prestonlee.com</text>
</g>
<!-- Brand -->
<g id="node2" class="node"><title>Brand</title>
<ellipse fill="none" stroke="black" cx="630.147" cy="-234" rx="31.9393" ry="18"/>
<text text-anchor="middle" x="630.147" y="-229.8" font-family="Times,serif" font-size="14.00">Brand</text>
</g>
<!-- GenericCar -->
<g id="node8" class="node"><title>GenericCar</title>
<ellipse fill="none" stroke="black" cx="416.147" cy="-162" rx="50.7224" ry="18"/>
<text text-anchor="middle" x="416.147" y="-157.8" font-family="Times,serif" font-size="14.00">GenericCar</text>
</g>
<!-- Brand&#45;&gt;GenericCar -->
<g id="edge1" class="edge"><title>Brand&#45;&gt;GenericCar</title>
<path fill="none" stroke="#8906af" d="M596.862,-220.483C592.594,-218.942 588.275,-217.413 584.147,-216 543.59,-202.117 497.082,-187.549 463.298,-177.207"/>
<ellipse fill="none" stroke="#8906af" cx="600.679" cy="-221.877" rx="4.00001" ry="4.00001"/>
<polygon fill="#8906af" stroke="#8906af" points="463.248,-177.192 454.997,-169.968 458.465,-175.732 453.683,-174.273 453.683,-174.273 453.683,-174.273 458.465,-175.732 452.369,-178.577 463.248,-177.192 463.248,-177.192"/>
</g>
<!-- ModelAcronym -->
<g id="node16" class="node"><title>ModelAcronym</title>
<ellipse fill="none" stroke="black" cx="551.147" cy="-162" rx="66.6925" ry="18"/>
<text text-anchor="middle" x="551.147" y="-157.8" font-family="Times,serif" font-size="14.00">ModelAcronym</text>
</g>
<!-- Brand&#45;&gt;ModelAcronym -->
<g id="edge2" class="edge"><title>Brand&#45;&gt;ModelAcronym</title>
<path fill="none" stroke="#b56c43" d="M607.761,-213.164C598.274,-204.758 587.154,-194.905 577.293,-186.167"/>
<ellipse fill="none" stroke="#b56c43" cx="610.784" cy="-215.843" rx="4.00002" ry="4.00002"/>
<polygon fill="#b56c43" stroke="#b56c43" points="577.194,-186.08 572.694,-176.08 573.452,-182.764 569.71,-179.448 569.71,-179.448 569.71,-179.448 573.452,-182.764 566.725,-182.816 577.194,-186.08 577.194,-186.08"/>
</g>
<!-- CarLikelihood -->
<g id="node3" class="node"><title>CarLikelihood</title>
<ellipse fill="none" stroke="black" cx="128.147" cy="-162" rx="61.8649" ry="18"/>
<text text-anchor="middle" x="128.147" y="-157.8" font-family="Times,serif" font-size="14.00">CarLikelihood</text>
</g>
<!-- Generation -->
<g id="node7" class="node"><title>Generation</title>
<ellipse fill="none" stroke="black" cx="128.147" cy="-90" rx="49.286" ry="18"/>
<text text-anchor="middle" x="128.147" y="-85.8" font-family="Times,serif" font-size="14.00">Generation</text>
</g>
<!-- CarLikelihood&#45;&gt;Generation -->
<g id="edge4" class="edge"><title>CarLikelihood&#45;&gt;Generation</title>
<path fill="none" stroke="#8fba7b" d="M128.147,-133.665C128.147,-128.687 128.147,-123.491 128.147,-118.507"/>
<polygon fill="#8fba7b" stroke="#8fba7b" points="128.147,-133.697 123.647,-143.697 128.147,-138.697 128.147,-143.697 128.147,-143.697 128.147,-143.697 128.147,-138.697 132.647,-143.697 128.147,-133.697 128.147,-133.697"/>
<polygon fill="#8fba7b" stroke="#8fba7b" points="128.147,-118.104 132.647,-108.104 128.147,-113.104 128.147,-108.104 128.147,-108.104 128.147,-108.104 128.147,-113.104 123.647,-108.104 128.147,-118.104 128.147,-118.104"/>
</g>
<!-- GenericCarGeneration -->
<g id="node9" class="node"><title>GenericCarGeneration</title>
<ellipse fill="none" stroke="black" cx="90.1471" cy="-18" rx="90.2944" ry="18"/>
<text text-anchor="middle" x="90.1471" y="-13.8" font-family="Times,serif" font-size="14.00">GenericCarGeneration</text>
</g>
<!-- CarLikelihood&#45;&gt;GenericCarGeneration -->
<g id="edge3" class="edge"><title>CarLikelihood&#45;&gt;GenericCarGeneration</title>
<path fill="none" stroke="#64554f" d="M96.4825,-140.322C86.0785,-131.701 75.7516,-120.713 70.1471,-108 61.3074,-87.9479 67.8673,-63.5701 75.7617,-45.4015"/>
<ellipse fill="none" stroke="#64554f" cx="99.7816" cy="-142.91" rx="4.00002" ry="4.00002"/>
<polygon fill="#64554f" stroke="#64554f" points="75.9249,-45.0559 84.2645,-37.9354 78.0602,-40.5348 80.1954,-36.0136 80.1954,-36.0136 80.1954,-36.0136 78.0602,-40.5348 76.1264,-34.0919 75.9249,-45.0559 75.9249,-45.0559"/>
</g>
<!-- CarType -->
<g id="node4" class="node"><title>CarType</title>
<ellipse fill="none" stroke="black" cx="218.147" cy="-234" rx="40.3571" ry="18"/>
<text text-anchor="middle" x="218.147" y="-229.8" font-family="Times,serif" font-size="14.00">CarType</text>
</g>
<!-- CarType&#45;&gt;CarLikelihood -->
<g id="edge5" class="edge"><title>CarType&#45;&gt;CarLikelihood</title>
<path fill="none" stroke="#9e47a8" d="M192.133,-212.767C181.075,-204.166 168.142,-194.108 156.81,-185.293"/>
<ellipse fill="none" stroke="#9e47a8" cx="195.461" cy="-215.355" rx="4.00002" ry="4.00002"/>
<polygon fill="#9e47a8" stroke="#9e47a8" points="156.784,-185.273 151.653,-175.581 152.837,-182.203 148.89,-179.134 148.89,-179.134 148.89,-179.134 152.837,-182.203 146.128,-182.686 156.784,-185.273 156.784,-185.273"/>
</g>
<!-- CarType&#45;&gt;GenericCar -->
<g id="edge7" class="edge"><title>CarType&#45;&gt;GenericCar</title>
<path fill="none" stroke="#ecdbd9" d="M258.822,-218.62C291.716,-206.991 337.96,-190.642 371.798,-178.679"/>
<polygon fill="#ecdbd9" stroke="#ecdbd9" points="258.513,-218.729 247.585,-217.82 253.799,-220.396 249.085,-222.062 249.085,-222.062 249.085,-222.062 253.799,-220.396 250.585,-226.305 258.513,-218.729 258.513,-218.729"/>
<polygon fill="#ecdbd9" stroke="#ecdbd9" points="372.003,-178.606 382.932,-179.516 376.717,-176.94 381.432,-175.273 381.432,-175.273 381.432,-175.273 376.717,-176.94 379.932,-171.031 372.003,-178.606 372.003,-178.606"/>
</g>
<!-- TypeLikelihood -->
<g id="node27" class="node"><title>TypeLikelihood</title>
<ellipse fill="none" stroke="black" cx="262.147" cy="-90" rx="66.4333" ry="18"/>
<text text-anchor="middle" x="262.147" y="-85.8" font-family="Times,serif" font-size="14.00">TypeLikelihood</text>
</g>
<!-- CarType&#45;&gt;TypeLikelihood -->
<g id="edge6" class="edge"><title>CarType&#45;&gt;TypeLikelihood</title>
<path fill="none" stroke="#b2b208" d="M225.916,-207.929C233.76,-182.613 245.833,-143.65 253.858,-117.75"/>
<ellipse fill="none" stroke="#b2b208" cx="224.638" cy="-212.051" rx="4.00001" ry="4.00001"/>
<polygon fill="#b2b208" stroke="#b2b208" points="253.861,-117.741 261.119,-109.521 255.341,-112.965 256.821,-108.189 256.821,-108.189 256.821,-108.189 255.341,-112.965 252.522,-106.857 253.861,-117.741 253.861,-117.741"/>
</g>
<!-- Door -->
<g id="node5" class="node"><title>Door</title>
<ellipse fill="none" stroke="black" cx="131.147" cy="-234" rx="28.0651" ry="18"/>
<text text-anchor="middle" x="131.147" y="-229.8" font-family="Times,serif" font-size="14.00">Door</text>
</g>
<!-- Door&#45;&gt;CarLikelihood -->
<g id="edge8" class="edge"><title>Door&#45;&gt;CarLikelihood</title>
<path fill="none" stroke="#190864" d="M130.06,-207.64C129.821,-202.063 129.567,-196.132 129.325,-190.476"/>
<ellipse fill="none" stroke="#190864" cx="130.234" cy="-211.7" rx="4" ry="4"/>
<polygon fill="#190864" stroke="#190864" points="129.308,-190.095 133.376,-179.912 129.094,-185.1 128.88,-180.104 128.88,-180.104 128.88,-180.104 129.094,-185.1 124.384,-180.297 129.308,-190.095 129.308,-190.095"/>
</g>
<!-- FamilyAcronym -->
<g id="node6" class="node"><title>FamilyAcronym</title>
<ellipse fill="none" stroke="black" cx="345.147" cy="-234" rx="68.6305" ry="18"/>
<text text-anchor="middle" x="345.147" y="-229.8" font-family="Times,serif" font-size="14.00">FamilyAcronym</text>
</g>
<!-- Generation&#45;&gt;GenericCarGeneration -->
<g id="edge9" class="edge"><title>Generation&#45;&gt;GenericCarGeneration</title>
<path fill="none" stroke="#177a8d" d="M115.025,-64.8269C111.598,-58.5146 107.888,-51.6811 104.406,-45.2658"/>
<ellipse fill="none" stroke="#177a8d" cx="117.04" cy="-68.5395" rx="4.00002" ry="4.00002"/>
<polygon fill="#177a8d" stroke="#177a8d" points="104.296,-45.0638 103.48,-34.1284 101.911,-40.6696 99.5251,-36.2753 99.5251,-36.2753 99.5251,-36.2753 101.911,-40.6696 95.5703,-38.4222 104.296,-45.0638 104.296,-45.0638"/>
</g>
<!-- GenericCarImage -->
<g id="node10" class="node"><title>GenericCarImage</title>
<ellipse fill="none" stroke="black" cx="419.147" cy="-90" rx="72.9135" ry="18"/>
<text text-anchor="middle" x="419.147" y="-85.8" font-family="Times,serif" font-size="14.00">GenericCarImage</text>
</g>
<!-- GenericCar&#45;&gt;GenericCarImage -->
<g id="edge12" class="edge"><title>GenericCar&#45;&gt;GenericCarImage</title>
<path fill="none" stroke="#64872d" d="M417.234,-135.64C417.473,-130.063 417.727,-124.132 417.97,-118.476"/>
<ellipse fill="none" stroke="#64872d" cx="417.06" cy="-139.7" rx="4" ry="4"/>
<polygon fill="#64872d" stroke="#64872d" points="417.986,-118.095 422.91,-108.297 418.2,-113.1 418.414,-108.104 418.414,-108.104 418.414,-108.104 418.2,-113.1 413.918,-107.912 417.986,-118.095 417.986,-118.095"/>
</g>
<!-- GenericFittable -->
<g id="node12" class="node"><title>GenericFittable</title>
<ellipse fill="none" stroke="black" cx="693.147" cy="-90" rx="65.2217" ry="18"/>
<text text-anchor="middle" x="693.147" y="-85.8" font-family="Times,serif" font-size="14.00">GenericFittable</text>
</g>
<!-- GenericCar&#45;&gt;GenericFittable -->
<g id="edge11" class="edge"><title>GenericCar&#45;&gt;GenericFittable</title>
<path fill="none" stroke="#243143" d="M461.873,-147.62C466.351,-146.371 470.833,-145.145 475.147,-144 529.106,-129.674 590.983,-114.775 634.995,-104.436"/>
<ellipse fill="none" stroke="#243143" cx="457.701" cy="-148.796" rx="4.00001" ry="4.00001"/>
<polygon fill="#243143" stroke="#243143" points="635.206,-104.387 645.969,-106.487 640.074,-103.246 644.942,-102.106 644.942,-102.106 644.942,-102.106 640.074,-103.246 643.916,-97.7242 635.206,-104.387 635.206,-104.387"/>
</g>
<!-- StockCar -->
<g id="node22" class="node"><title>StockCar</title>
<ellipse fill="none" stroke="black" cx="1137.15" cy="-90" rx="43.0387" ry="18"/>
<text text-anchor="middle" x="1137.15" y="-85.8" font-family="Times,serif" font-size="14.00">StockCar</text>
</g>
<!-- GenericCar&#45;&gt;StockCar -->
<g id="edge10" class="edge"><title>GenericCar&#45;&gt;StockCar</title>
<path fill="none" stroke="#0f9090" d="M460.168,-147.169C465.184,-145.936 470.252,-144.839 475.147,-144 742.387,-98.184 817.62,-157.799 1084.15,-108 1088.04,-107.272 1092.05,-106.341 1096.04,-105.291"/>
<ellipse fill="none" stroke="#0f9090" cx="456.234" cy="-148.193" rx="4.00001" ry="4.00001"/>
<polygon fill="#0f9090" stroke="#0f9090" points="1096.2,-105.243 1107.06,-106.806 1101.01,-103.862 1105.81,-102.481 1105.81,-102.481 1105.81,-102.481 1101.01,-103.862 1104.57,-98.1563 1096.2,-105.243 1096.2,-105.243"/>
</g>
<!-- GenericCar&#45;&gt;TypeLikelihood -->
<g id="edge13" class="edge"><title>GenericCar&#45;&gt;TypeLikelihood</title>
<path fill="none" stroke="#7a786e" d="M378.742,-143.998C356.19,-133.747 327.413,-120.666 304.09,-110.065"/>
<ellipse fill="none" stroke="#7a786e" cx="382.447" cy="-145.682" rx="4.00002" ry="4.00002"/>
<polygon fill="#7a786e" stroke="#7a786e" points="303.895,-109.977 296.654,-101.742 299.344,-107.908 294.792,-105.839 294.792,-105.839 294.792,-105.839 299.344,-107.908 292.93,-109.935 303.895,-109.977 303.895,-109.977"/>
</g>
<!-- GenericFamily -->
<g id="node11" class="node"><title>GenericFamily</title>
<ellipse fill="none" stroke="black" cx="529.147" cy="-324.5" rx="63.301" ry="18"/>
<text text-anchor="middle" x="529.147" y="-320.3" font-family="Times,serif" font-size="14.00">GenericFamily</text>
</g>
<!-- GenericFamily&#45;&gt;CarLikelihood -->
<g id="edge14" class="edge"><title>GenericFamily&#45;&gt;CarLikelihood</title>
<path fill="none" stroke="#e0b18c" d="M496.226,-304.17C484.291,-298.008 470.463,-291.807 457.147,-288 379.207,-265.718 148.565,-312.082 94.1471,-252 77.7274,-233.871 91.6215,-206.99 106.287,-187.517"/>
<ellipse fill="none" stroke="#e0b18c" cx="499.859" cy="-306.102" rx="4.00002" ry="4.00002"/>
<polygon fill="#e0b18c" stroke="#e0b18c" points="106.305,-187.495 116.054,-182.475 109.419,-183.583 112.534,-179.672 112.534,-179.672 112.534,-179.672 109.419,-183.583 109.013,-176.869 106.305,-187.495 106.305,-187.495"/>
</g>
<!-- GenericFamily&#45;&gt;FamilyAcronym -->
<g id="edge18" class="edge"><title>GenericFamily&#45;&gt;FamilyAcronym</title>
<path fill="none" stroke="#0b3a21" d="M491.601,-304.846C480.523,-299.38 468.363,-293.418 457.147,-288 433.694,-276.67 407.371,-264.201 386.14,-254.205"/>
<ellipse fill="none" stroke="#0b3a21" cx="495.487" cy="-306.766" rx="4.00002" ry="4.00002"/>
<polygon fill="#0b3a21" stroke="#0b3a21" points="386.124,-254.198 378.99,-245.87 381.599,-252.07 377.075,-249.942 377.075,-249.942 377.075,-249.942 381.599,-252.07 375.159,-254.014 386.124,-254.198 386.124,-254.198"/>
</g>
<!-- GenericFamily&#45;&gt;GenericCar -->
<g id="edge15" class="edge"><title>GenericFamily&#45;&gt;GenericCar</title>
<path fill="none" stroke="#59fc63" d="M544.556,-297.757C556.252,-274.522 567.746,-240.348 551.147,-216 545.744,-208.074 498.941,-190.805 461.938,-178.124"/>
<polygon fill="#59fc63" stroke="#59fc63" points="544.498,-297.865 535.814,-304.561 542.14,-302.274 539.783,-306.683 539.783,-306.683 539.783,-306.683 542.14,-302.274 543.751,-308.805 544.498,-297.865 544.498,-297.865"/>
<polygon fill="#59fc63" stroke="#59fc63" points="461.757,-178.063 453.737,-170.584 457.023,-176.454 452.289,-174.845 452.289,-174.845 452.289,-174.845 457.023,-176.454 450.841,-179.105 461.757,-178.063 461.757,-178.063"/>
</g>
<!-- GenericSpare -->
<g id="node13" class="node"><title>GenericSpare</title>
<ellipse fill="none" stroke="black" cx="802.147" cy="-234" rx="58.4563" ry="18"/>
<text text-anchor="middle" x="802.147" y="-229.8" font-family="Times,serif" font-size="14.00">GenericSpare</text>
</g>
<!-- GenericFamily&#45;&gt;GenericSpare -->
<g id="edge17" class="edge"><title>GenericFamily&#45;&gt;GenericSpare</title>
<path fill="none" stroke="#8739c8" d="M578.68,-307.443C628.329,-291.348 704.282,-266.726 753.584,-250.743"/>
<polygon fill="#8739c8" stroke="#8739c8" points="578.649,-307.453 567.748,-306.256 573.892,-308.995 569.136,-310.537 569.136,-310.537 569.136,-310.537 573.892,-308.995 570.524,-314.817 578.649,-307.453 578.649,-307.453"/>
<polygon fill="#8739c8" stroke="#8739c8" points="753.864,-250.652 764.765,-251.849 758.621,-249.11 763.377,-247.568 763.377,-247.568 763.377,-247.568 758.621,-249.11 761.989,-243.288 753.864,-250.652 753.864,-250.652"/>
</g>
<!-- SpareLikelihood -->
<g id="node21" class="node"><title>SpareLikelihood</title>
<ellipse fill="none" stroke="black" cx="705.147" cy="-162" rx="69.0978" ry="18"/>
<text text-anchor="middle" x="705.147" y="-157.8" font-family="Times,serif" font-size="14.00">SpareLikelihood</text>
</g>
<!-- GenericFamily&#45;&gt;SpareLikelihood -->
<g id="edge16" class="edge"><title>GenericFamily&#45;&gt;SpareLikelihood</title>
<path fill="none" stroke="#fa65a2" d="M579.816,-308.386C609.887,-297.127 646.775,-278.981 671.147,-252 686.863,-234.601 695.599,-209.183 700.267,-189.961"/>
<ellipse fill="none" stroke="#fa65a2" cx="575.693" cy="-309.879" rx="4.00001" ry="4.00001"/>
<polygon fill="#fa65a2" stroke="#fa65a2" points="700.307,-189.775 706.854,-180.978 701.383,-184.893 702.459,-180.01 702.459,-180.01 702.459,-180.01 701.383,-184.893 698.065,-179.041 700.307,-189.775 700.307,-189.775"/>
</g>
<!-- StockFamily -->
<g id="node24" class="node"><title>StockFamily</title>
<ellipse fill="none" stroke="black" cx="487.147" cy="-234" rx="55.118" ry="18"/>
<text text-anchor="middle" x="487.147" y="-229.8" font-family="Times,serif" font-size="14.00">StockFamily</text>
</g>
<!-- GenericFamily&#45;&gt;StockFamily -->
<g id="edge19" class="edge"><title>GenericFamily&#45;&gt;StockFamily</title>
<path fill="none" stroke="#e9656d" d="M517.527,-299.015C511.931,-287.224 505.217,-273.075 499.525,-261.082"/>
<ellipse fill="none" stroke="#e9656d" cx="519.334" cy="-302.823" rx="4.00002" ry="4.00002"/>
<polygon fill="#e9656d" stroke="#e9656d" points="499.508,-261.046 499.286,-250.082 497.364,-256.528 495.22,-252.011 495.22,-252.011 495.22,-252.011 497.364,-256.528 491.155,-253.941 499.508,-261.046 499.508,-261.046"/>
</g>
<!-- GenericSpare&#45;&gt;GenericCar -->
<g id="edge21" class="edge"><title>GenericSpare&#45;&gt;GenericCar</title>
<path fill="none" stroke="#fe5342" d="M738.837,-225.031C672.649,-216.165 565.969,-200.368 475.147,-180 471.11,-179.095 466.941,-178.073 462.773,-176.991"/>
<polygon fill="#fe5342" stroke="#fe5342" points="739.191,-225.078 748.511,-230.855 744.147,-225.736 749.104,-226.394 749.104,-226.394 749.104,-226.394 744.147,-225.736 749.696,-221.933 739.191,-225.078 739.191,-225.078"/>
<polygon fill="#fe5342" stroke="#fe5342" points="462.765,-176.989 454.283,-170.04 457.938,-175.687 453.11,-174.384 453.11,-174.384 453.11,-174.384 457.938,-175.687 451.938,-178.729 462.765,-176.989 462.765,-176.989"/>
</g>
<!-- GenericSpare&#45;&gt;GenericFittable -->
<g id="edge20" class="edge"><title>GenericSpare&#45;&gt;GenericFittable</title>
<path fill="none" stroke="#49e42e" d="M802.078,-207.725C800.847,-188.605 796.525,-162.563 783.147,-144 772.424,-129.12 756.124,-117.725 740.329,-109.383"/>
<ellipse fill="none" stroke="#49e42e" cx="802.269" cy="-211.974" rx="4" ry="4"/>
<polygon fill="#49e42e" stroke="#49e42e" points="740.091,-109.265 733.133,-100.79 735.612,-107.043 731.133,-104.821 731.133,-104.821 731.133,-104.821 735.612,-107.043 729.133,-108.853 740.091,-109.265 740.091,-109.265"/>
</g>
<!-- GenericSpareImage -->
<g id="node14" class="node"><title>GenericSpareImage</title>
<ellipse fill="none" stroke="black" cx="910.147" cy="-162" rx="80.1472" ry="18"/>
<text text-anchor="middle" x="910.147" y="-157.8" font-family="Times,serif" font-size="14.00">GenericSpareImage</text>
</g>
<!-- GenericSpare&#45;&gt;GenericSpareImage -->
<g id="edge24" class="edge"><title>GenericSpare&#45;&gt;GenericSpareImage</title>
<path fill="none" stroke="#0961ce" d="M832.954,-213.033C846.507,-204.248 862.466,-193.904 876.345,-184.909"/>
<ellipse fill="none" stroke="#0961ce" cx="829.472" cy="-215.289" rx="4.00002" ry="4.00002"/>
<polygon fill="#0961ce" stroke="#0961ce" points="876.728,-184.661 887.567,-182.998 880.924,-181.941 885.12,-179.222 885.12,-179.222 885.12,-179.222 880.924,-181.941 882.672,-175.445 876.728,-184.661 876.728,-184.661"/>
</g>
<!-- GenericSpare&#45;&gt;SpareLikelihood -->
<g id="edge22" class="edge"><title>GenericSpare&#45;&gt;SpareLikelihood</title>
<path fill="none" stroke="#2757ca" d="M773.596,-212.396C761.73,-203.833 747.935,-193.878 735.851,-185.157"/>
<ellipse fill="none" stroke="#2757ca" cx="776.893" cy="-214.775" rx="4.00002" ry="4.00002"/>
<polygon fill="#2757ca" stroke="#2757ca" points="735.516,-184.915 730.04,-175.414 731.461,-181.989 727.407,-179.064 727.407,-179.064 727.407,-179.064 731.461,-181.989 724.773,-182.713 735.516,-184.915 735.516,-184.915"/>
</g>
<!-- StockSpare -->
<g id="node25" class="node"><title>StockSpare</title>
<ellipse fill="none" stroke="black" cx="1059.15" cy="-162" rx="50.2723" ry="18"/>
<text text-anchor="middle" x="1059.15" y="-157.8" font-family="Times,serif" font-size="14.00">StockSpare</text>
</g>
<!-- GenericSpare&#45;&gt;StockSpare -->
<g id="edge23" class="edge"><title>GenericSpare&#45;&gt;StockSpare</title>
<path fill="none" stroke="#cba147" d="M852.827,-219.563C892.646,-208.959 949.482,-193.716 999.147,-180 1003.14,-178.898 1007.28,-177.745 1011.43,-176.582"/>
<ellipse fill="none" stroke="#cba147" cx="848.713" cy="-220.658" rx="4.00001" ry="4.00001"/>
<polygon fill="#cba147" stroke="#cba147" points="1011.45,-176.575 1022.3,-178.2 1016.27,-175.222 1021.08,-173.868 1021.08,-173.868 1021.08,-173.868 1016.27,-175.222 1019.86,-169.536 1011.45,-176.575 1011.45,-176.575"/>
</g>
<!-- Insured -->
<g id="node15" class="node"><title>Insured</title>
<ellipse fill="none" stroke="black" cx="1513.15" cy="-90" rx="36.7576" ry="18"/>
<text text-anchor="middle" x="1513.15" y="-85.8" font-family="Times,serif" font-size="14.00">Insured</text>
</g>
<!-- MoldComponent -->
<g id="node17" class="node"><title>MoldComponent</title>
<ellipse fill="none" stroke="black" cx="1197.15" cy="-234" rx="70.5772" ry="18"/>
<text text-anchor="middle" x="1197.15" y="-229.8" font-family="Times,serif" font-size="14.00">MoldComponent</text>
</g>
<!-- MoldSpare -->
<g id="node18" class="node"><title>MoldSpare</title>
<ellipse fill="none" stroke="black" cx="1000.15" cy="-324.5" rx="49.3119" ry="18"/>
<text text-anchor="middle" x="1000.15" y="-320.3" font-family="Times,serif" font-size="14.00">MoldSpare</text>
</g>
<!-- MoldSpare&#45;&gt;GenericSpare -->
<g id="edge25" class="edge"><title>MoldSpare&#45;&gt;GenericSpare</title>
<path fill="none" stroke="#85b649" d="M962.429,-306.641C928.371,-291.418 878.363,-269.066 843.287,-253.388"/>
<ellipse fill="none" stroke="#85b649" cx="966.423" cy="-308.426" rx="4.00002" ry="4.00002"/>
<polygon fill="#85b649" stroke="#85b649" points="842.945,-253.235 835.651,-245.046 838.38,-251.195 833.815,-249.155 833.815,-249.155 833.815,-249.155 838.38,-251.195 831.979,-253.263 842.945,-253.235 842.945,-253.235"/>
</g>
<!-- MoldSpare&#45;&gt;MoldComponent -->
<g id="edge26" class="edge"><title>MoldSpare&#45;&gt;MoldComponent</title>
<path fill="none" stroke="#7fbcfc" d="M1029.67,-303.981C1038.62,-298.459 1048.62,-292.684 1058.15,-288 1086.43,-274.102 1119.33,-261.412 1146.02,-251.936"/>
<ellipse fill="none" stroke="#7fbcfc" cx="1026.12" cy="-306.203" rx="4.00002" ry="4.00002"/>
<polygon fill="#7fbcfc" stroke="#7fbcfc" points="1146.11,-251.902 1157.04,-252.84 1150.83,-250.248 1155.55,-248.594 1155.55,-248.594 1155.55,-248.594 1150.83,-250.248 1154.06,-244.347 1146.11,-251.902 1146.11,-251.902"/>
</g>
<!-- Prevaluation -->
<g id="node19" class="node"><title>Prevaluation</title>
<ellipse fill="none" stroke="black" cx="1344.15" cy="-162" rx="54.6076" ry="18"/>
<text text-anchor="middle" x="1344.15" y="-157.8" font-family="Times,serif" font-size="14.00">Prevaluation</text>
</g>
<!-- Prevaluation&#45;&gt;Insured -->
<g id="edge28" class="edge"><title>Prevaluation&#45;&gt;Insured</title>
<path fill="none" stroke="#34527e" d="M1384.45,-144.307C1412.39,-132.732 1449.31,-117.439 1476.44,-106.203"/>
<ellipse fill="none" stroke="#34527e" cx="1380.43" cy="-145.973" rx="4.00001" ry="4.00001"/>
<polygon fill="#34527e" stroke="#34527e" points="1476.72,-106.088 1487.68,-106.419 1481.34,-104.175 1485.96,-102.261 1485.96,-102.261 1485.96,-102.261 1481.34,-104.175 1484.24,-98.1038 1476.72,-106.088 1476.72,-106.088"/>
</g>
<!-- PrevaluationImage -->
<g id="node20" class="node"><title>PrevaluationImage</title>
<ellipse fill="none" stroke="black" cx="1275.15" cy="-90" rx="76.7985" ry="18"/>
<text text-anchor="middle" x="1275.15" y="-85.8" font-family="Times,serif" font-size="14.00">PrevaluationImage</text>
</g>
<!-- Prevaluation&#45;&gt;PrevaluationImage -->
<g id="edge30" class="edge"><title>Prevaluation&#45;&gt;PrevaluationImage</title>
<path fill="none" stroke="#5c9e0a" d="M1322.48,-139.019C1314.98,-131.408 1306.53,-122.841 1298.87,-115.071"/>
<ellipse fill="none" stroke="#5c9e0a" cx="1325.34" cy="-141.916" rx="4.00002" ry="4.00002"/>
<polygon fill="#5c9e0a" stroke="#5c9e0a" points="1298.56,-114.755 1294.75,-104.474 1295.05,-111.194 1291.54,-107.633 1291.54,-107.633 1291.54,-107.633 1295.05,-111.194 1288.34,-110.792 1298.56,-114.755 1298.56,-114.755"/>
</g>
<!-- Prevaluation&#45;&gt;StockCar -->
<g id="edge27" class="edge"><title>Prevaluation&#45;&gt;StockCar</title>
<path fill="none" stroke="#bec8e8" d="M1299.54,-145.917C1263.91,-133.865 1214.3,-117.091 1179.32,-105.261"/>
<ellipse fill="none" stroke="#bec8e8" cx="1303.35" cy="-147.204" rx="4.00001" ry="4.00001"/>
<polygon fill="#bec8e8" stroke="#bec8e8" points="1178.89,-105.115 1170.86,-97.6488 1174.15,-103.513 1169.41,-101.912 1169.41,-101.912 1169.41,-101.912 1174.15,-103.513 1167.97,-106.175 1178.89,-105.115 1178.89,-105.115"/>
</g>
<!-- Valuation -->
<g id="node29" class="node"><title>Valuation</title>
<ellipse fill="none" stroke="black" cx="1414.15" cy="-90" rx="43.9992" ry="18"/>
<text text-anchor="middle" x="1414.15" y="-85.8" font-family="Times,serif" font-size="14.00">Valuation</text>
</g>
<!-- Prevaluation&#45;&gt;Valuation -->
<g id="edge29" class="edge"><title>Prevaluation&#45;&gt;Valuation</title>
<path fill="none" stroke="#4c5b1b" d="M1366.22,-138.932C1374.43,-130.721 1383.74,-121.405 1391.96,-113.184"/>
<ellipse fill="none" stroke="#4c5b1b" cx="1363.21" cy="-141.936" rx="4.00002" ry="4.00002"/>
<ellipse fill="#4c5b1b" stroke="#4c5b1b" cx="1395.17" cy="-109.976" rx="4.00002" ry="4.00002"/>
</g>
<!-- StockCarImage -->
<g id="node23" class="node"><title>StockCarImage</title>
<ellipse fill="none" stroke="black" cx="1137.15" cy="-18" rx="65.2304" ry="18"/>
<text text-anchor="middle" x="1137.15" y="-13.8" font-family="Times,serif" font-size="14.00">StockCarImage</text>
</g>
<!-- StockCar&#45;&gt;StockCarImage -->
<g id="edge31" class="edge"><title>StockCar&#45;&gt;StockCarImage</title>
<path fill="none" stroke="#2e04da" d="M1137.15,-63.6398C1137.15,-58.0629 1137.15,-52.1319 1137.15,-46.4761"/>
<ellipse fill="none" stroke="#2e04da" cx="1137.15" cy="-67.6966" rx="4" ry="4"/>
<polygon fill="#2e04da" stroke="#2e04da" points="1137.15,-46.1043 1141.65,-36.1043 1137.15,-41.1043 1137.15,-36.1043 1137.15,-36.1043 1137.15,-36.1043 1137.15,-41.1043 1132.65,-36.1044 1137.15,-46.1043 1137.15,-46.1043"/>
</g>
<!-- StockSpareImage -->
<g id="node26" class="node"><title>StockSpareImage</title>
<ellipse fill="none" stroke="black" cx="1003.15" cy="-90" rx="72.4635" ry="18"/>
<text text-anchor="middle" x="1003.15" y="-85.8" font-family="Times,serif" font-size="14.00">StockSpareImage</text>
</g>
<!-- StockSpare&#45;&gt;StockSpareImage -->
<g id="edge32" class="edge"><title>StockSpare&#45;&gt;StockSpareImage</title>
<path fill="none" stroke="#1f329e" d="M1040.68,-137.912C1035.06,-130.885 1028.85,-123.131 1023.14,-115.985"/>
<ellipse fill="none" stroke="#1f329e" cx="1043.38" cy="-141.287" rx="4.00002" ry="4.00002"/>
<polygon fill="#1f329e" stroke="#1f329e" points="1022.96,-115.765 1020.23,-105.145 1019.84,-111.861 1016.71,-107.956 1016.71,-107.956 1016.71,-107.956 1019.84,-111.861 1013.2,-110.767 1022.96,-115.765 1022.96,-115.765"/>
</g>
<!-- User -->
<g id="node28" class="node"><title>User</title>
<ellipse fill="none" stroke="black" cx="1094.15" cy="-324.5" rx="27" ry="18"/>
<text text-anchor="middle" x="1094.15" y="-320.3" font-family="Times,serif" font-size="14.00">User</text>
</g>
<!-- Warehouse -->
<g id="node30" class="node"><title>Warehouse</title>
<ellipse fill="none" stroke="black" cx="1059.15" cy="-234" rx="49.3546" ry="18"/>
<text text-anchor="middle" x="1059.15" y="-229.8" font-family="Times,serif" font-size="14.00">Warehouse</text>
</g>
<!-- Warehouse&#45;&gt;StockCar -->
<g id="edge34" class="edge"><title>Warehouse&#45;&gt;StockCar</title>
<path fill="none" stroke="#d0957d" d="M1088.34,-212.996C1099.25,-204.102 1110.77,-192.751 1118.15,-180 1129.06,-161.138 1133.73,-136.766 1135.72,-118.296"/>
<ellipse fill="none" stroke="#d0957d" cx="1085.18" cy="-215.475" rx="4.00002" ry="4.00002"/>
<polygon fill="#d0957d" stroke="#d0957d" points="1135.73,-118.151 1141.08,-108.582 1136.16,-113.17 1136.6,-108.189 1136.6,-108.189 1136.6,-108.189 1136.16,-113.17 1132.12,-107.797 1135.73,-118.151 1135.73,-118.151"/>
</g>
<!-- Warehouse&#45;&gt;StockSpare -->
<g id="edge33" class="edge"><title>Warehouse&#45;&gt;StockSpare</title>
<path fill="none" stroke="#c693f8" d="M1059.15,-207.64C1059.15,-202.063 1059.15,-196.132 1059.15,-190.476"/>
<ellipse fill="none" stroke="#c693f8" cx="1059.15" cy="-211.697" rx="4" ry="4"/>
<polygon fill="#c693f8" stroke="#c693f8" points="1059.15,-190.104 1063.65,-180.104 1059.15,-185.104 1059.15,-180.104 1059.15,-180.104 1059.15,-180.104 1059.15,-185.104 1054.65,-180.104 1059.15,-190.104 1059.15,-190.104"/>
</g>
</g>
</svg>
