<?xml version="1.0" encoding="UTF-8" standalone="no"?>
<!DOCTYPE svg PUBLIC "-//W3C//DTD SVG 1.1//EN"
 "http://www.w3.org/Graphics/SVG/1.1/DTD/svg11.dtd">
<!-- Generated by graphviz version 2.38.0 (20140413.2041)
 -->
<!-- Title: models_diagram Pages: 1 -->
<svg width="1095pt" height="1234pt"
 viewBox="0.00 0.00 1094.80 1234.00" xmlns="http://www.w3.org/2000/svg" xmlns:xlink="http://www.w3.org/1999/xlink">
<g id="graph0" class="graph" transform="scale(1 1) rotate(0) translate(4 1230)">
<title>models_diagram</title>
<polygon fill="white" stroke="none" points="-4,4 -4,-1230 1090.8,-1230 1090.8,4 -4,4"/>
<!-- _diagram_info -->
<g id="node1" class="node"><title>_diagram_info</title>
<text text-anchor="start" x="278.842" y="-1211.6" font-family="Times,serif" font-size="13.00">Models diagram</text>
<text text-anchor="start" x="278.842" y="-1198.6" font-family="Times,serif" font-size="13.00">Date: Nov 05 2014 &#45; 11:35</text>
<text text-anchor="start" x="278.842" y="-1185.6" font-family="Times,serif" font-size="13.00">Migration version: 20141103232822</text>
<text text-anchor="start" x="278.842" y="-1172.6" font-family="Times,serif" font-size="13.00">Generated by RailRoady 1.1.2</text>
<text text-anchor="start" x="278.842" y="-1159.6" font-family="Times,serif" font-size="13.00">http://railroady.prestonlee.com</text>
</g>
<!-- Car -->
<g id="node2" class="node"><title>Car</title>
<path fill="none" stroke="black" d="M209.669,-151.5C209.669,-151.5 352.914,-151.5 352.914,-151.5 358.914,-151.5 364.914,-157.5 364.914,-163.5 364.914,-163.5 364.914,-365.5 364.914,-365.5 364.914,-371.5 358.914,-377.5 352.914,-377.5 352.914,-377.5 209.669,-377.5 209.669,-377.5 203.669,-377.5 197.669,-371.5 197.669,-365.5 197.669,-365.5 197.669,-163.5 197.669,-163.5 197.669,-157.5 203.669,-151.5 209.669,-151.5"/>
<text text-anchor="middle" x="281.292" y="-362.3" font-family="Times,serif" font-size="14.00">Car</text>
<polyline fill="none" stroke="black" points="197.669,-355.5 364.914,-355.5 "/>
<text text-anchor="start" x="205.669" y="-340.3" font-family="Times,serif" font-size="14.00">id :integer</text>
<text text-anchor="start" x="205.669" y="-326.3" font-family="Times,serif" font-size="14.00">prevaluation_id :integer</text>
<text text-anchor="start" x="205.669" y="-312.3" font-family="Times,serif" font-size="14.00">generic_car_id :integer</text>
<text text-anchor="start" x="205.669" y="-298.3" font-family="Times,serif" font-size="14.00">warehouse_id :integer</text>
<text text-anchor="start" x="205.669" y="-284.3" font-family="Times,serif" font-size="14.00">color :string</text>
<text text-anchor="start" x="205.669" y="-270.3" font-family="Times,serif" font-size="14.00">door_number :integer</text>
<text text-anchor="start" x="205.669" y="-256.3" font-family="Times,serif" font-size="14.00">serie :string</text>
<text text-anchor="start" x="205.669" y="-242.3" font-family="Times,serif" font-size="14.00">motor :string</text>
<text text-anchor="start" x="205.669" y="-228.3" font-family="Times,serif" font-size="14.00">license_plates :string</text>
<text text-anchor="start" x="205.669" y="-214.3" font-family="Times,serif" font-size="14.00">inventory_description :text</text>
<text text-anchor="start" x="205.669" y="-200.3" font-family="Times,serif" font-size="14.00">special_equipment :text</text>
<text text-anchor="start" x="205.669" y="-186.3" font-family="Times,serif" font-size="14.00">economic_number :string</text>
<text text-anchor="start" x="205.669" y="-172.3" font-family="Times,serif" font-size="14.00">created_at :datetime</text>
<text text-anchor="start" x="205.669" y="-158.3" font-family="Times,serif" font-size="14.00">updated_at :datetime</text>
</g>
<!-- CarSpareAlloy -->
<g id="node3" class="node"><title>CarSpareAlloy</title>
<path fill="none" stroke="black" d="M95.3516,-0.5C95.3516,-0.5 229.231,-0.5 229.231,-0.5 235.231,-0.5 241.231,-6.5 241.231,-12.5 241.231,-12.5 241.231,-102.5 241.231,-102.5 241.231,-108.5 235.231,-114.5 229.231,-114.5 229.231,-114.5 95.3516,-114.5 95.3516,-114.5 89.3516,-114.5 83.3516,-108.5 83.3516,-102.5 83.3516,-102.5 83.3516,-12.5 83.3516,-12.5 83.3516,-6.5 89.3516,-0.5 95.3516,-0.5"/>
<text text-anchor="middle" x="162.292" y="-99.3" font-family="Times,serif" font-size="14.00">CarSpareAlloy</text>
<polyline fill="none" stroke="black" points="83.3516,-92.5 241.231,-92.5 "/>
<text text-anchor="start" x="91.3516" y="-77.3" font-family="Times,serif" font-size="14.00">id :integer</text>
<text text-anchor="start" x="91.3516" y="-63.3" font-family="Times,serif" font-size="14.00">generic_car_id :integer</text>
<text text-anchor="start" x="91.3516" y="-49.3" font-family="Times,serif" font-size="14.00">generic_spare_id :integer</text>
<text text-anchor="start" x="91.3516" y="-35.3" font-family="Times,serif" font-size="14.00">relation :string</text>
<text text-anchor="start" x="91.3516" y="-21.3" font-family="Times,serif" font-size="14.00">created_at :datetime</text>
<text text-anchor="start" x="91.3516" y="-7.3" font-family="Times,serif" font-size="14.00">updated_at :datetime</text>
</g>
<!-- GenericCar -->
<g id="node4" class="node"><title>GenericCar</title>
<path fill="none" stroke="black" d="M82.8413,-575.5C82.8413,-575.5 237.742,-575.5 237.742,-575.5 243.742,-575.5 249.742,-581.5 249.742,-587.5 249.742,-587.5 249.742,-943.5 249.742,-943.5 249.742,-949.5 243.742,-955.5 237.742,-955.5 237.742,-955.5 82.8413,-955.5 82.8413,-955.5 76.8413,-955.5 70.8413,-949.5 70.8413,-943.5 70.8413,-943.5 70.8413,-587.5 70.8413,-587.5 70.8413,-581.5 76.8413,-575.5 82.8413,-575.5"/>
<text text-anchor="middle" x="160.292" y="-940.3" font-family="Times,serif" font-size="14.00">GenericCar</text>
<polyline fill="none" stroke="black" points="70.8413,-933.5 249.742,-933.5 "/>
<text text-anchor="start" x="78.8413" y="-918.3" font-family="Times,serif" font-size="14.00">id :integer</text>
<text text-anchor="start" x="78.8413" y="-904.3" font-family="Times,serif" font-size="14.00">brand :string</text>
<text text-anchor="start" x="78.8413" y="-890.3" font-family="Times,serif" font-size="14.00">type_of_car :string</text>
<text text-anchor="start" x="78.8413" y="-876.3" font-family="Times,serif" font-size="14.00">year :integer</text>
<text text-anchor="start" x="78.8413" y="-862.3" font-family="Times,serif" font-size="14.00">generation :string</text>
<text text-anchor="start" x="78.8413" y="-848.3" font-family="Times,serif" font-size="14.00">model :string</text>
<text text-anchor="start" x="78.8413" y="-834.3" font-family="Times,serif" font-size="14.00">doors :integer</text>
<text text-anchor="start" x="78.8413" y="-820.3" font-family="Times,serif" font-size="14.00">created_at :datetime</text>
<text text-anchor="start" x="78.8413" y="-806.3" font-family="Times,serif" font-size="14.00">updated_at :datetime</text>
<text text-anchor="start" x="78.8413" y="-792.3" font-family="Times,serif" font-size="14.00">photo1_file_name :string</text>
<text text-anchor="start" x="78.8413" y="-778.3" font-family="Times,serif" font-size="14.00">photo1_content_type :string</text>
<text text-anchor="start" x="78.8413" y="-764.3" font-family="Times,serif" font-size="14.00">photo1_file_size :integer</text>
<text text-anchor="start" x="78.8413" y="-750.3" font-family="Times,serif" font-size="14.00">photo1_updated_at :datetime</text>
<text text-anchor="start" x="78.8413" y="-736.3" font-family="Times,serif" font-size="14.00">photo2_file_name :string</text>
<text text-anchor="start" x="78.8413" y="-722.3" font-family="Times,serif" font-size="14.00">photo2_content_type :string</text>
<text text-anchor="start" x="78.8413" y="-708.3" font-family="Times,serif" font-size="14.00">photo2_file_size :integer</text>
<text text-anchor="start" x="78.8413" y="-694.3" font-family="Times,serif" font-size="14.00">photo2_updated_at :datetime</text>
<text text-anchor="start" x="78.8413" y="-680.3" font-family="Times,serif" font-size="14.00">photo3_file_name :string</text>
<text text-anchor="start" x="78.8413" y="-666.3" font-family="Times,serif" font-size="14.00">photo3_content_type :string</text>
<text text-anchor="start" x="78.8413" y="-652.3" font-family="Times,serif" font-size="14.00">photo3_file_size :integer</text>
<text text-anchor="start" x="78.8413" y="-638.3" font-family="Times,serif" font-size="14.00">photo3_updated_at :datetime</text>
<text text-anchor="start" x="78.8413" y="-624.3" font-family="Times,serif" font-size="14.00">photo4_file_name :string</text>
<text text-anchor="start" x="78.8413" y="-610.3" font-family="Times,serif" font-size="14.00">photo4_content_type :string</text>
<text text-anchor="start" x="78.8413" y="-596.3" font-family="Times,serif" font-size="14.00">photo4_file_size :integer</text>
<text text-anchor="start" x="78.8413" y="-582.3" font-family="Times,serif" font-size="14.00">photo4_updated_at :datetime</text>
</g>
<!-- GenericCar&#45;&gt;Car -->
<g id="edge3" class="edge"><title>GenericCar&#45;&gt;Car</title>
<path fill="none" stroke="#343f2e" d="M208.026,-567.644C222.768,-506.848 238.57,-441.684 251.71,-387.493"/>
<ellipse fill="none" stroke="#343f2e" cx="207.065" cy="-571.606" rx="4.00001" ry="4.00001"/>
<polygon fill="#343f2e" stroke="#343f2e" points="251.775,-387.224 258.505,-378.566 252.953,-382.365 254.132,-377.506 254.132,-377.506 254.132,-377.506 252.953,-382.365 249.758,-376.445 251.775,-387.224 251.775,-387.224"/>
</g>
<!-- GenericCar&#45;&gt;CarSpareAlloy -->
<g id="edge4" class="edge"><title>GenericCar&#45;&gt;CarSpareAlloy</title>
<path fill="none" stroke="#b7f030" d="M160.851,-567.125C161.27,-419.084 161.819,-225.386 162.103,-125.121"/>
<ellipse fill="none" stroke="#b7f030" cx="160.839" cy="-571.305" rx="4" ry="4"/>
<polygon fill="#b7f030" stroke="#b7f030" points="162.103,-124.833 166.632,-114.846 162.118,-119.833 162.132,-114.833 162.132,-114.833 162.132,-114.833 162.118,-119.833 157.632,-114.821 162.103,-124.833 162.103,-124.833"/>
</g>
<!-- GenericSpare -->
<g id="node5" class="node"><title>GenericSpare</title>
<path fill="none" stroke="black" d="M12,-193.5C12,-193.5 122.583,-193.5 122.583,-193.5 128.583,-193.5 134.583,-199.5 134.583,-205.5 134.583,-205.5 134.583,-323.5 134.583,-323.5 134.583,-329.5 128.583,-335.5 122.583,-335.5 122.583,-335.5 12,-335.5 12,-335.5 6,-335.5 0,-329.5 0,-323.5 0,-323.5 0,-205.5 0,-205.5 0,-199.5 6,-193.5 12,-193.5"/>
<text text-anchor="middle" x="67.2915" y="-320.3" font-family="Times,serif" font-size="14.00">GenericSpare</text>
<polyline fill="none" stroke="black" points="0,-313.5 134.583,-313.5 "/>
<text text-anchor="start" x="8" y="-298.3" font-family="Times,serif" font-size="14.00">id :integer</text>
<text text-anchor="start" x="8" y="-284.3" font-family="Times,serif" font-size="14.00">brand :string</text>
<text text-anchor="start" x="8" y="-270.3" font-family="Times,serif" font-size="14.00">type_of_spare :string</text>
<text text-anchor="start" x="8" y="-256.3" font-family="Times,serif" font-size="14.00">name :string</text>
<text text-anchor="start" x="8" y="-242.3" font-family="Times,serif" font-size="14.00">region :string</text>
<text text-anchor="start" x="8" y="-228.3" font-family="Times,serif" font-size="14.00">description :text</text>
<text text-anchor="start" x="8" y="-214.3" font-family="Times,serif" font-size="14.00">created_at :datetime</text>
<text text-anchor="start" x="8" y="-200.3" font-family="Times,serif" font-size="14.00">updated_at :datetime</text>
</g>
<!-- GenericCar&#45;&gt;GenericSpare -->
<g id="edge5" class="edge"><title>GenericCar&#45;&gt;GenericSpare</title>
<path fill="none" stroke="#a52d4f" d="M123.224,-565.608C108.885,-488.673 93.2973,-405.036 82.2286,-345.646"/>
<polygon fill="#a52d4f" stroke="#a52d4f" points="123.234,-565.663 120.642,-576.318 124.15,-570.578 125.066,-575.494 125.066,-575.494 125.066,-575.494 124.15,-570.578 129.49,-574.669 123.234,-565.663 123.234,-565.663"/>
<polygon fill="#a52d4f" stroke="#a52d4f" points="82.1863,-345.419 84.7779,-334.764 81.2702,-340.504 80.3541,-335.588 80.3541,-335.588 80.3541,-335.588 81.2702,-340.504 75.9302,-336.413 82.1863,-345.419 82.1863,-345.419"/>
</g>
<!-- GenericSpare&#45;&gt;CarSpareAlloy -->
<g id="edge7" class="edge"><title>GenericSpare&#45;&gt;CarSpareAlloy</title>
<path fill="none" stroke="#a65f60" d="M103.224,-185.96C112.691,-165.532 122.81,-143.696 131.95,-123.973"/>
<ellipse fill="none" stroke="#a65f60" cx="101.534" cy="-189.608" rx="4.00002" ry="4.00002"/>
<polygon fill="#a65f60" stroke="#a65f60" points="132.008,-123.848 140.296,-116.667 134.11,-119.312 136.213,-114.775 136.213,-114.775 136.213,-114.775 134.11,-119.312 132.13,-112.883 132.008,-123.848 132.008,-123.848"/>
</g>
<!-- Insured -->
<g id="node6" class="node"><title>Insured</title>
<path fill="none" stroke="black" d="M403.231,-193.5C403.231,-193.5 529.352,-193.5 529.352,-193.5 535.352,-193.5 541.352,-199.5 541.352,-205.5 541.352,-205.5 541.352,-323.5 541.352,-323.5 541.352,-329.5 535.352,-335.5 529.352,-335.5 529.352,-335.5 403.231,-335.5 403.231,-335.5 397.231,-335.5 391.231,-329.5 391.231,-323.5 391.231,-323.5 391.231,-205.5 391.231,-205.5 391.231,-199.5 397.231,-193.5 403.231,-193.5"/>
<text text-anchor="middle" x="466.292" y="-320.3" font-family="Times,serif" font-size="14.00">Insured</text>
<polyline fill="none" stroke="black" points="391.231,-313.5 541.352,-313.5 "/>
<text text-anchor="start" x="399.231" y="-298.3" font-family="Times,serif" font-size="14.00">id :integer</text>
<text text-anchor="start" x="399.231" y="-284.3" font-family="Times,serif" font-size="14.00">prevaluation_id :integer</text>
<text text-anchor="start" x="399.231" y="-270.3" font-family="Times,serif" font-size="14.00">third :boolean</text>
<text text-anchor="start" x="399.231" y="-256.3" font-family="Times,serif" font-size="14.00">name :string</text>
<text text-anchor="start" x="399.231" y="-242.3" font-family="Times,serif" font-size="14.00">telephone :integer</text>
<text text-anchor="start" x="399.231" y="-228.3" font-family="Times,serif" font-size="14.00">email :string</text>
<text text-anchor="start" x="399.231" y="-214.3" font-family="Times,serif" font-size="14.00">created_at :datetime</text>
<text text-anchor="start" x="399.231" y="-200.3" font-family="Times,serif" font-size="14.00">updated_at :datetime</text>
</g>
<!-- Prevaluation -->
<g id="node7" class="node"><title>Prevaluation</title>
<path fill="none" stroke="black" d="M316.841,-414.5C316.841,-414.5 471.742,-414.5 471.742,-414.5 477.742,-414.5 483.742,-420.5 483.742,-426.5 483.742,-426.5 483.742,-1104.5 483.742,-1104.5 483.742,-1110.5 477.742,-1116.5 471.742,-1116.5 471.742,-1116.5 316.841,-1116.5 316.841,-1116.5 310.841,-1116.5 304.841,-1110.5 304.841,-1104.5 304.841,-1104.5 304.841,-426.5 304.841,-426.5 304.841,-420.5 310.841,-414.5 316.841,-414.5"/>
<text text-anchor="middle" x="394.292" y="-1101.3" font-family="Times,serif" font-size="14.00">Prevaluation</text>
<polyline fill="none" stroke="black" points="304.841,-1094.5 483.742,-1094.5 "/>
<text text-anchor="start" x="312.841" y="-1079.3" font-family="Times,serif" font-size="14.00">id :integer</text>
<text text-anchor="start" x="312.841" y="-1065.3" font-family="Times,serif" font-size="14.00">number :string</text>
<text text-anchor="start" x="312.841" y="-1051.3" font-family="Times,serif" font-size="14.00">policy :string</text>
<text text-anchor="start" x="312.841" y="-1037.3" font-family="Times,serif" font-size="14.00">subsection :string</text>
<text text-anchor="start" x="312.841" y="-1023.3" font-family="Times,serif" font-size="14.00">expedition_date :date</text>
<text text-anchor="start" x="312.841" y="-1009.3" font-family="Times,serif" font-size="14.00">valuation_date :date</text>
<text text-anchor="start" x="312.841" y="-995.3" font-family="Times,serif" font-size="14.00">deductible_value :float</text>
<text text-anchor="start" x="312.841" y="-981.3" font-family="Times,serif" font-size="14.00">commercial_value :float</text>
<text text-anchor="start" x="312.841" y="-967.3" font-family="Times,serif" font-size="14.00">requires_crane :boolean</text>
<text text-anchor="start" x="312.841" y="-953.3" font-family="Times,serif" font-size="14.00">collection_status :boolean</text>
<text text-anchor="start" x="312.841" y="-939.3" font-family="Times,serif" font-size="14.00">special_conditions :string</text>
<text text-anchor="start" x="312.841" y="-925.3" font-family="Times,serif" font-size="14.00">third_insured :boolean</text>
<text text-anchor="start" x="312.841" y="-911.3" font-family="Times,serif" font-size="14.00">agent_name :string</text>
<text text-anchor="start" x="312.841" y="-897.3" font-family="Times,serif" font-size="14.00">comment :text</text>
<text text-anchor="start" x="312.841" y="-883.3" font-family="Times,serif" font-size="14.00">photo1_file_name :string</text>
<text text-anchor="start" x="312.841" y="-869.3" font-family="Times,serif" font-size="14.00">photo1_content_type :string</text>
<text text-anchor="start" x="312.841" y="-855.3" font-family="Times,serif" font-size="14.00">photo1_file_size :integer</text>
<text text-anchor="start" x="312.841" y="-841.3" font-family="Times,serif" font-size="14.00">photo1_updated_at :datetime</text>
<text text-anchor="start" x="312.841" y="-827.3" font-family="Times,serif" font-size="14.00">photo2_file_name :string</text>
<text text-anchor="start" x="312.841" y="-813.3" font-family="Times,serif" font-size="14.00">photo2_content_type :string</text>
<text text-anchor="start" x="312.841" y="-799.3" font-family="Times,serif" font-size="14.00">photo2_file_size :integer</text>
<text text-anchor="start" x="312.841" y="-785.3" font-family="Times,serif" font-size="14.00">photo2_updated_at :datetime</text>
<text text-anchor="start" x="312.841" y="-771.3" font-family="Times,serif" font-size="14.00">photo3_file_name :string</text>
<text text-anchor="start" x="312.841" y="-757.3" font-family="Times,serif" font-size="14.00">photo3_content_type :string</text>
<text text-anchor="start" x="312.841" y="-743.3" font-family="Times,serif" font-size="14.00">photo3_file_size :integer</text>
<text text-anchor="start" x="312.841" y="-729.3" font-family="Times,serif" font-size="14.00">photo3_updated_at :datetime</text>
<text text-anchor="start" x="312.841" y="-715.3" font-family="Times,serif" font-size="14.00">photo4_file_name :string</text>
<text text-anchor="start" x="312.841" y="-701.3" font-family="Times,serif" font-size="14.00">photo4_content_type :string</text>
<text text-anchor="start" x="312.841" y="-687.3" font-family="Times,serif" font-size="14.00">photo4_file_size :integer</text>
<text text-anchor="start" x="312.841" y="-673.3" font-family="Times,serif" font-size="14.00">photo4_updated_at :datetime</text>
<text text-anchor="start" x="312.841" y="-659.3" font-family="Times,serif" font-size="14.00">doc1_file_name :string</text>
<text text-anchor="start" x="312.841" y="-645.3" font-family="Times,serif" font-size="14.00">doc1_content_type :string</text>
<text text-anchor="start" x="312.841" y="-631.3" font-family="Times,serif" font-size="14.00">doc1_file_size :integer</text>
<text text-anchor="start" x="312.841" y="-617.3" font-family="Times,serif" font-size="14.00">doc1_updated_at :datetime</text>
<text text-anchor="start" x="312.841" y="-603.3" font-family="Times,serif" font-size="14.00">doc2_file_name :string</text>
<text text-anchor="start" x="312.841" y="-589.3" font-family="Times,serif" font-size="14.00">doc2_content_type :string</text>
<text text-anchor="start" x="312.841" y="-575.3" font-family="Times,serif" font-size="14.00">doc2_file_size :integer</text>
<text text-anchor="start" x="312.841" y="-561.3" font-family="Times,serif" font-size="14.00">doc2_updated_at :datetime</text>
<text text-anchor="start" x="312.841" y="-547.3" font-family="Times,serif" font-size="14.00">doc3_file_name :string</text>
<text text-anchor="start" x="312.841" y="-533.3" font-family="Times,serif" font-size="14.00">doc3_content_type :string</text>
<text text-anchor="start" x="312.841" y="-519.3" font-family="Times,serif" font-size="14.00">doc3_file_size :integer</text>
<text text-anchor="start" x="312.841" y="-505.3" font-family="Times,serif" font-size="14.00">doc3_updated_at :datetime</text>
<text text-anchor="start" x="312.841" y="-491.3" font-family="Times,serif" font-size="14.00">doc4_file_name :string</text>
<text text-anchor="start" x="312.841" y="-477.3" font-family="Times,serif" font-size="14.00">doc4_content_type :string</text>
<text text-anchor="start" x="312.841" y="-463.3" font-family="Times,serif" font-size="14.00">doc4_file_size :integer</text>
<text text-anchor="start" x="312.841" y="-449.3" font-family="Times,serif" font-size="14.00">doc4_updated_at :datetime</text>
<text text-anchor="start" x="312.841" y="-435.3" font-family="Times,serif" font-size="14.00">created_at :datetime</text>
<text text-anchor="start" x="312.841" y="-421.3" font-family="Times,serif" font-size="14.00">updated_at :datetime</text>
</g>
<!-- Prevaluation&#45;&gt;Car -->
<g id="edge10" class="edge"><title>Prevaluation&#45;&gt;Car</title>
<path fill="none" stroke="#fc0bcd" d="M313.158,-406.222C311.726,-399.895 310.319,-393.683 308.943,-387.609"/>
<ellipse fill="none" stroke="#fc0bcd" cx="314.082" cy="-410.302" rx="4.00001" ry="4.00001"/>
<polygon fill="#fc0bcd" stroke="#fc0bcd" points="308.868,-387.274 311.048,-376.527 307.763,-382.397 306.659,-377.521 306.659,-377.521 306.659,-377.521 307.763,-382.397 302.27,-378.514 308.868,-387.274 308.868,-387.274"/>
</g>
<!-- Prevaluation&#45;&gt;Insured -->
<g id="edge11" class="edge"><title>Prevaluation&#45;&gt;Insured</title>
<path fill="none" stroke="#059ab2" d="M446.003,-406.109C449.14,-384.372 452.078,-364.006 454.692,-345.888"/>
<ellipse fill="none" stroke="#059ab2" cx="445.407" cy="-410.244" rx="4.00001" ry="4.00001"/>
<polygon fill="#059ab2" stroke="#059ab2" points="454.724,-345.672 460.606,-336.417 455.438,-340.723 456.152,-335.774 456.152,-335.774 456.152,-335.774 455.438,-340.723 451.698,-335.132 454.724,-345.672 454.724,-345.672"/>
</g>
<!-- Prevaluation&#45;&gt;Prevaluation -->
<g id="edge12" class="edge"><title>Prevaluation&#45;&gt;Prevaluation</title>
<path fill="none" stroke="#436beb" d="M488.771,-827.239C496.762,-814.029 501.742,-793.449 501.742,-765.5 501.742,-737.551 496.762,-716.971 488.771,-703.761"/>
<ellipse fill="none" stroke="#436beb" cx="486.371" cy="-830.574" rx="4.00002" ry="4.00002"/>
<ellipse fill="#436beb" stroke="#436beb" cx="486.371" cy="-700.426" rx="4.00002" ry="4.00002"/>
</g>
<!-- Spare -->
<g id="node8" class="node"><title>Spare</title>
<path fill="none" stroke="black" d="M575.286,-179.5C575.286,-179.5 691.297,-179.5 691.297,-179.5 697.297,-179.5 703.297,-185.5 703.297,-191.5 703.297,-191.5 703.297,-337.5 703.297,-337.5 703.297,-343.5 697.297,-349.5 691.297,-349.5 691.297,-349.5 575.286,-349.5 575.286,-349.5 569.286,-349.5 563.286,-343.5 563.286,-337.5 563.286,-337.5 563.286,-191.5 563.286,-191.5 563.286,-185.5 569.286,-179.5 575.286,-179.5"/>
<text text-anchor="middle" x="633.292" y="-334.3" font-family="Times,serif" font-size="14.00">Spare</text>
<polyline fill="none" stroke="black" points="563.286,-327.5 703.297,-327.5 "/>
<text text-anchor="start" x="571.286" y="-312.3" font-family="Times,serif" font-size="14.00">id :integer</text>
<text text-anchor="start" x="571.286" y="-298.3" font-family="Times,serif" font-size="14.00">car_id :integer</text>
<text text-anchor="start" x="571.286" y="-284.3" font-family="Times,serif" font-size="14.00">warehouse_id :integer</text>
<text text-anchor="start" x="571.286" y="-270.3" font-family="Times,serif" font-size="14.00">spare_id :integer</text>
<text text-anchor="start" x="571.286" y="-256.3" font-family="Times,serif" font-size="14.00">status :string</text>
<text text-anchor="start" x="571.286" y="-242.3" font-family="Times,serif" font-size="14.00">description :text</text>
<text text-anchor="start" x="571.286" y="-228.3" font-family="Times,serif" font-size="14.00">code :string</text>
<text text-anchor="start" x="571.286" y="-214.3" font-family="Times,serif" font-size="14.00">color :string</text>
<text text-anchor="start" x="571.286" y="-200.3" font-family="Times,serif" font-size="14.00">created_at :datetime</text>
<text text-anchor="start" x="571.286" y="-186.3" font-family="Times,serif" font-size="14.00">updated_at :datetime</text>
</g>
<!-- Spare&#45;&gt;Spare -->
<g id="edge14" class="edge"><title>Spare&#45;&gt;Spare</title>
<path fill="none" stroke="#fe2441" d="M710.261,-294.893C717.046,-288.493 721.297,-278.362 721.297,-264.5 721.297,-251.487 717.551,-241.762 711.478,-235.325"/>
<ellipse fill="none" stroke="#fe2441" cx="706.643" cy="-297.426" rx="4.00002" ry="4.00002"/>
<polygon fill="#fe2441" stroke="#fe2441" points="711.385,-235.255 706.056,-225.671 707.376,-232.267 703.367,-229.279 703.367,-229.279 703.367,-229.279 707.376,-232.267 700.677,-232.887 711.385,-235.255 711.385,-235.255"/>
</g>
<!-- User -->
<g id="node9" class="node"><title>User</title>
<path fill="none" stroke="black" d="M797.228,-687.5C797.228,-687.5 923.355,-687.5 923.355,-687.5 929.355,-687.5 935.355,-693.5 935.355,-699.5 935.355,-699.5 935.355,-831.5 935.355,-831.5 935.355,-837.5 929.355,-843.5 923.355,-843.5 923.355,-843.5 797.228,-843.5 797.228,-843.5 791.228,-843.5 785.228,-837.5 785.228,-831.5 785.228,-831.5 785.228,-699.5 785.228,-699.5 785.228,-693.5 791.228,-687.5 797.228,-687.5"/>
<text text-anchor="middle" x="860.292" y="-828.3" font-family="Times,serif" font-size="14.00">User</text>
<polyline fill="none" stroke="black" points="785.228,-821.5 935.355,-821.5 "/>
<text text-anchor="start" x="793.228" y="-806.3" font-family="Times,serif" font-size="14.00">id :integer</text>
<text text-anchor="start" x="793.228" y="-792.3" font-family="Times,serif" font-size="14.00">name :string</text>
<text text-anchor="start" x="793.228" y="-778.3" font-family="Times,serif" font-size="14.00">email :string</text>
<text text-anchor="start" x="793.228" y="-764.3" font-family="Times,serif" font-size="14.00">username :string</text>
<text text-anchor="start" x="793.228" y="-750.3" font-family="Times,serif" font-size="14.00">privileges :string</text>
<text text-anchor="start" x="793.228" y="-736.3" font-family="Times,serif" font-size="14.00">created_at :datetime</text>
<text text-anchor="start" x="793.228" y="-722.3" font-family="Times,serif" font-size="14.00">updated_at :datetime</text>
<text text-anchor="start" x="793.228" y="-708.3" font-family="Times,serif" font-size="14.00">password_digest :string</text>
<text text-anchor="start" x="793.228" y="-694.3" font-family="Times,serif" font-size="14.00">remember_token :string</text>
</g>
<!-- Valuation -->
<g id="node10" class="node"><title>Valuation</title>
<path fill="none" stroke="black" d="M965.786,-715.5C965.786,-715.5 1074.8,-715.5 1074.8,-715.5 1080.8,-715.5 1086.8,-721.5 1086.8,-727.5 1086.8,-727.5 1086.8,-803.5 1086.8,-803.5 1086.8,-809.5 1080.8,-815.5 1074.8,-815.5 1074.8,-815.5 965.786,-815.5 965.786,-815.5 959.786,-815.5 953.786,-809.5 953.786,-803.5 953.786,-803.5 953.786,-727.5 953.786,-727.5 953.786,-721.5 959.786,-715.5 965.786,-715.5"/>
<text text-anchor="middle" x="1020.29" y="-800.3" font-family="Times,serif" font-size="14.00">Valuation</text>
<polyline fill="none" stroke="black" points="953.786,-793.5 1086.8,-793.5 "/>
<text text-anchor="start" x="961.786" y="-778.3" font-family="Times,serif" font-size="14.00">id :integer</text>
<text text-anchor="start" x="961.786" y="-764.3" font-family="Times,serif" font-size="14.00">client_code :string</text>
<text text-anchor="start" x="961.786" y="-750.3" font-family="Times,serif" font-size="14.00">edited_by :string</text>
<text text-anchor="start" x="961.786" y="-736.3" font-family="Times,serif" font-size="14.00">created_at :datetime</text>
<text text-anchor="start" x="961.786" y="-722.3" font-family="Times,serif" font-size="14.00">updated_at :datetime</text>
</g>
<!-- Warehouse -->
<g id="node11" class="node"><title>Warehouse</title>
<path fill="none" stroke="black" d="M569.786,-708.5C569.786,-708.5 678.797,-708.5 678.797,-708.5 684.797,-708.5 690.797,-714.5 690.797,-720.5 690.797,-720.5 690.797,-810.5 690.797,-810.5 690.797,-816.5 684.797,-822.5 678.797,-822.5 678.797,-822.5 569.786,-822.5 569.786,-822.5 563.786,-822.5 557.786,-816.5 557.786,-810.5 557.786,-810.5 557.786,-720.5 557.786,-720.5 557.786,-714.5 563.786,-708.5 569.786,-708.5"/>
<text text-anchor="middle" x="624.292" y="-807.3" font-family="Times,serif" font-size="14.00">Warehouse</text>
<polyline fill="none" stroke="black" points="557.786,-800.5 690.797,-800.5 "/>
<text text-anchor="start" x="565.786" y="-785.3" font-family="Times,serif" font-size="14.00">id :integer</text>
<text text-anchor="start" x="565.786" y="-771.3" font-family="Times,serif" font-size="14.00">branch :string</text>
<text text-anchor="start" x="565.786" y="-757.3" font-family="Times,serif" font-size="14.00">location :string</text>
<text text-anchor="start" x="565.786" y="-743.3" font-family="Times,serif" font-size="14.00">geolocation :string</text>
<text text-anchor="start" x="565.786" y="-729.3" font-family="Times,serif" font-size="14.00">created_at :datetime</text>
<text text-anchor="start" x="565.786" y="-715.3" font-family="Times,serif" font-size="14.00">updated_at :datetime</text>
</g>
<!-- Warehouse&#45;&gt;Car -->
<g id="edge19" class="edge"><title>Warehouse&#45;&gt;Car</title>
<path fill="none" stroke="#67f505" d="M621.099,-699.996C613.703,-621.489 589.437,-490.02 510.292,-414 467.671,-373.063 432.465,-409.225 382.292,-378 379.247,-376.105 376.239,-374.092 373.273,-371.978"/>
<ellipse fill="none" stroke="#67f505" cx="621.488" cy="-704.377" rx="4" ry="4"/>
<polygon fill="#67f505" stroke="#67f505" points="373.019,-371.787 367.737,-362.177 369.025,-368.78 365.031,-365.772 365.031,-365.772 365.031,-365.772 369.025,-368.78 362.324,-369.367 373.019,-371.787 373.019,-371.787"/>
</g>
<!-- Warehouse&#45;&gt;Spare -->
<g id="edge18" class="edge"><title>Warehouse&#45;&gt;Spare</title>
<path fill="none" stroke="#e310a2" d="M625.454,-700.068C627.013,-613.602 629.794,-459.402 631.59,-359.848"/>
<ellipse fill="none" stroke="#e310a2" cx="625.379" cy="-704.229" rx="4" ry="4"/>
<polygon fill="#e310a2" stroke="#e310a2" points="631.591,-359.787 636.271,-349.87 631.681,-354.788 631.771,-349.789 631.771,-349.789 631.771,-349.789 631.681,-354.788 627.272,-349.708 631.591,-359.787 631.591,-359.787"/>
</g>
<!-- ActiveRecord::Base -->
<g id="node12" class="node"><title>ActiveRecord::Base</title>
<ellipse fill="none" stroke="black" cx="577.292" cy="-1189.5" rx="81.1422" ry="18"/>
<text text-anchor="middle" x="577.292" y="-1185.3" font-family="Times,serif" font-size="14.00">ActiveRecord::Base</text>
</g>
<!-- ActiveRecord::Base&#45;&gt;Car -->
<g id="edge1" class="edge"><title>ActiveRecord::Base&#45;&gt;Car</title>
<path fill="none" stroke="black" d="M542.376,-1173.13C525.656,-1166.23 505.199,-1158.43 486.292,-1153 403.682,-1129.28 351.698,-1182.7 296.292,-1117 249.796,-1061.86 265.464,-596.091 275.545,-377.693"/>
</g>
<!-- ActiveRecord::Base&#45;&gt;CarSpareAlloy -->
<g id="edge2" class="edge"><title>ActiveRecord::Base&#45;&gt;CarSpareAlloy</title>
<path fill="none" stroke="black" d="M634.403,-1176.61C667.029,-1166.58 705.316,-1148.6 725.292,-1117 782.648,-1026.28 799.822,-232.77 730.292,-151 668.443,-78.2641 382.35,-62.5768 241.32,-59.297"/>
</g>
<!-- ActiveRecord::Base&#45;&gt;GenericCar -->
<g id="edge6" class="edge"><title>ActiveRecord::Base&#45;&gt;GenericCar</title>
<path fill="none" stroke="black" d="M542.872,-1173.08C526.088,-1166.08 505.435,-1158.22 486.292,-1153 389.428,-1126.61 338.602,-1183.39 263.292,-1117 216.785,-1076 190.777,-1015.21 176.394,-955.72"/>
</g>
<!-- ActiveRecord::Base&#45;&gt;GenericSpare -->
<g id="edge8" class="edge"><title>ActiveRecord::Base&#45;&gt;GenericSpare</title>
<path fill="none" stroke="black" d="M544.314,-1172.99C527.347,-1165.69 506.113,-1157.61 486.292,-1153 440.238,-1142.3 94.2785,-1151.82 62.2915,-1117 -41.0352,-1004.53 25.6913,-518.899 55.2742,-335.755"/>
</g>
<!-- ActiveRecord::Base&#45;&gt;Insured -->
<g id="edge9" class="edge"><title>ActiveRecord::Base&#45;&gt;Insured</title>
<path fill="none" stroke="black" d="M568.469,-1171.39C561.629,-1157.22 552.611,-1136.35 548.292,-1117 480.111,-811.618 563.546,-722.335 510.292,-414 505.807,-388.033 498.307,-360.185 490.759,-335.702"/>
</g>
<!-- ActiveRecord::Base&#45;&gt;Prevaluation -->
<g id="edge13" class="edge"><title>ActiveRecord::Base&#45;&gt;Prevaluation</title>
<path fill="none" stroke="black" d="M559.428,-1171.75C545.761,-1158.11 527.281,-1137.78 515.292,-1117 504.03,-1097.49 493.586,-1076.75 483.947,-1055.51"/>
</g>
<!-- ActiveRecord::Base&#45;&gt;Spare -->
<g id="edge15" class="edge"><title>ActiveRecord::Base&#45;&gt;Spare</title>
<path fill="none" stroke="black" d="M623.534,-1174.69C651.104,-1163.8 683.847,-1145.58 700.292,-1117 739.247,-1049.3 716.721,-490.364 700.292,-414 695.651,-392.432 687.619,-370.221 678.692,-349.761"/>
</g>
<!-- ActiveRecord::Base&#45;&gt;User -->
<g id="edge16" class="edge"><title>ActiveRecord::Base&#45;&gt;User</title>
<path fill="none" stroke="black" d="M645.544,-1179.61C687.457,-1170.66 739.102,-1152.74 771.292,-1117 839.147,-1041.66 856.808,-921.885 860.601,-843.723"/>
</g>
<!-- ActiveRecord::Base&#45;&gt;Valuation -->
<g id="edge17" class="edge"><title>ActiveRecord::Base&#45;&gt;Valuation</title>
<path fill="none" stroke="black" d="M654.122,-1183.32C749.341,-1175.29 903.997,-1156.45 944.292,-1117 1025.93,-1037.07 1029.58,-891.639 1025.1,-815.679"/>
</g>
<!-- ActiveRecord::Base&#45;&gt;Warehouse -->
<g id="edge20" class="edge"><title>ActiveRecord::Base&#45;&gt;Warehouse</title>
<path fill="none" stroke="black" d="M579.192,-1171.43C585.692,-1113.07 607.229,-919.701 618.018,-822.83"/>
</g>
</g>
</svg>
