<?xml version="1.0" encoding="UTF-8" standalone="no"?>
<!DOCTYPE svg PUBLIC "-//W3C//DTD SVG 1.1//EN"
 "http://www.w3.org/Graphics/SVG/1.1/DTD/svg11.dtd">
<!-- Generated by graphviz version 2.38.0 (20140413.2041)
 -->
<!-- Title: models_diagram Pages: 1 -->
<svg width="1035pt" height="300pt"
 viewBox="0.00 0.00 1034.54 300.00" xmlns="http://www.w3.org/2000/svg" xmlns:xlink="http://www.w3.org/1999/xlink">
<g id="graph0" class="graph" transform="scale(1 1) rotate(0) translate(4 296)">
<title>models_diagram</title>
<polygon fill="white" stroke="none" points="-4,4 -4,-296 1030.54,-296 1030.54,4 -4,4"/>
<!-- _diagram_info -->
<g id="node1" class="node"><title>_diagram_info</title>
<text text-anchor="start" x="168.312" y="-277.6" font-family="Times,serif" font-size="13.00">Models diagram</text>
<text text-anchor="start" x="168.312" y="-264.6" font-family="Times,serif" font-size="13.00">Date: Jan 06 2015 &#45; 12:27</text>
<text text-anchor="start" x="168.312" y="-251.6" font-family="Times,serif" font-size="13.00">Migration version: 20141217154326</text>
<text text-anchor="start" x="168.312" y="-238.6" font-family="Times,serif" font-size="13.00">Generated by RailRoady 1.3.0</text>
<text text-anchor="start" x="168.312" y="-225.6" font-family="Times,serif" font-size="13.00">http://railroady.prestonlee.com</text>
</g>
<!-- Brand -->
<g id="node2" class="node"><title>Brand</title>
<ellipse fill="none" stroke="black" cx="555" cy="-255.5" rx="31.9393" ry="18"/>
<text text-anchor="middle" x="555" y="-251.3" font-family="Times,serif" font-size="14.00">Brand</text>
</g>
<!-- GenericCar -->
<g id="node7" class="node"><title>GenericCar</title>
<ellipse fill="none" stroke="black" cx="555" cy="-164" rx="50.7224" ry="18"/>
<text text-anchor="middle" x="555" y="-159.8" font-family="Times,serif" font-size="14.00">GenericCar</text>
</g>
<!-- Brand&#45;&gt;GenericCar -->
<g id="edge1" class="edge"><title>Brand&#45;&gt;GenericCar</title>
<path fill="none" stroke="#973f30" d="M555,-228.903C555,-217.441 555,-203.914 555,-192.263"/>
<ellipse fill="none" stroke="#973f30" cx="555" cy="-233.243" rx="4" ry="4"/>
<polygon fill="#973f30" stroke="#973f30" points="555,-192.204 559.5,-182.203 555,-187.204 555,-182.204 555,-182.204 555,-182.204 555,-187.204 550.5,-182.204 555,-192.204 555,-192.204"/>
</g>
<!-- Car -->
<g id="node3" class="node"><title>Car</title>
<ellipse fill="none" stroke="black" cx="225" cy="-91" rx="27" ry="18"/>
<text text-anchor="middle" x="225" y="-86.8" font-family="Times,serif" font-size="14.00">Car</text>
</g>
<!-- CarSpareAlloy -->
<g id="node4" class="node"><title>CarSpareAlloy</title>
<ellipse fill="none" stroke="black" cx="837" cy="-18" rx="63.3097" ry="18"/>
<text text-anchor="middle" x="837" y="-13.8" font-family="Times,serif" font-size="14.00">CarSpareAlloy</text>
</g>
<!-- Family -->
<g id="node5" class="node"><title>Family</title>
<ellipse fill="none" stroke="black" cx="702" cy="-18" rx="35.3303" ry="18"/>
<text text-anchor="middle" x="702" y="-13.8" font-family="Times,serif" font-size="14.00">Family</text>
</g>
<!-- Generation -->
<g id="node6" class="node"><title>Generation</title>
<ellipse fill="none" stroke="black" cx="435" cy="-255.5" rx="49.286" ry="18"/>
<text text-anchor="middle" x="435" y="-251.3" font-family="Times,serif" font-size="14.00">Generation</text>
</g>
<!-- Generation&#45;&gt;GenericCar -->
<g id="edge2" class="edge"><title>Generation&#45;&gt;GenericCar</title>
<path fill="none" stroke="#fb25f2" d="M463.835,-232.994C482.661,-218.952 507.155,-200.684 526.012,-186.62"/>
<polygon fill="#fb25f2" stroke="#fb25f2" points="463.644,-233.136 452.938,-235.507 459.636,-236.125 455.628,-239.114 455.628,-239.114 455.628,-239.114 459.636,-236.125 458.319,-242.722 463.644,-233.136 463.644,-233.136"/>
<polygon fill="#fb25f2" stroke="#fb25f2" points="526.222,-186.463 536.929,-184.092 530.23,-183.474 534.238,-180.484 534.238,-180.484 534.238,-180.484 530.23,-183.474 531.548,-176.877 526.222,-186.463 526.222,-186.463"/>
</g>
<!-- GenericCarGeneration -->
<g id="node8" class="node"><title>GenericCarGeneration</title>
<ellipse fill="none" stroke="black" cx="398" cy="-91" rx="90.2944" ry="18"/>
<text text-anchor="middle" x="398" y="-86.8" font-family="Times,serif" font-size="14.00">GenericCarGeneration</text>
</g>
<!-- Generation&#45;&gt;GenericCarGeneration -->
<g id="edge3" class="edge"><title>Generation&#45;&gt;GenericCarGeneration</title>
<path fill="none" stroke="#bb2b26" d="M429.312,-229.522C422.534,-199.754 411.247,-150.181 404.236,-119.389"/>
<ellipse fill="none" stroke="#bb2b26" cx="430.222" cy="-233.517" rx="4.00001" ry="4.00001"/>
<polygon fill="#bb2b26" stroke="#bb2b26" points="404.169,-119.094 406.336,-108.344 403.059,-114.219 401.949,-109.343 401.949,-109.343 401.949,-109.343 403.059,-114.219 397.561,-110.342 404.169,-119.094 404.169,-119.094"/>
</g>
<!-- GenericCar&#45;&gt;Car -->
<g id="edge4" class="edge"><title>GenericCar&#45;&gt;Car</title>
<path fill="none" stroke="#fcec18" d="M503.887,-152.499C452.172,-141.809 369.948,-124.631 299,-109 286.227,-106.186 272.239,-103 259.897,-100.152"/>
<ellipse fill="none" stroke="#fcec18" cx="508.001" cy="-153.349" rx="4.00001" ry="4.00001"/>
<polygon fill="#fcec18" stroke="#fcec18" points="259.721,-100.112 250.994,-93.4718 254.85,-98.9837 249.979,-97.8558 249.979,-97.8558 249.979,-97.8558 254.85,-98.9837 248.964,-102.24 259.721,-100.112 259.721,-100.112"/>
</g>
<!-- GenericCar&#45;&gt;CarSpareAlloy -->
<g id="edge5" class="edge"><title>GenericCar&#45;&gt;CarSpareAlloy</title>
<path fill="none" stroke="#c6f2d6" d="M613.681,-160.332C688.093,-155.575 810.102,-142.724 838,-109 852.268,-91.7519 850.254,-65.6251 845.713,-45.9574"/>
<ellipse fill="none" stroke="#c6f2d6" cx="609.291" cy="-160.601" rx="4" ry="4"/>
<polygon fill="#c6f2d6" stroke="#c6f2d6" points="845.655,-45.7362 847.45,-34.9183 844.377,-40.9022 843.1,-36.0681 843.1,-36.0681 843.1,-36.0681 844.377,-40.9022 838.749,-37.2179 845.655,-45.7362 845.655,-45.7362"/>
</g>
<!-- GenericCar&#45;&gt;GenericCarGeneration -->
<g id="edge8" class="edge"><title>GenericCar&#45;&gt;GenericCarGeneration</title>
<path fill="none" stroke="#075623" d="M517.374,-145.985C494.697,-135.73 465.709,-122.62 441.977,-111.888"/>
<ellipse fill="none" stroke="#075623" cx="521.084" cy="-147.662" rx="4.00002" ry="4.00002"/>
<polygon fill="#075623" stroke="#075623" points="441.942,-111.872 434.685,-103.651 437.387,-109.812 432.831,-107.752 432.831,-107.752 432.831,-107.752 437.387,-109.812 430.977,-111.852 441.942,-111.872 441.942,-111.872"/>
</g>
<!-- GenericImage -->
<g id="node9" class="node"><title>GenericImage</title>
<ellipse fill="none" stroke="black" cx="566" cy="-91" rx="60.3768" ry="18"/>
<text text-anchor="middle" x="566" y="-86.8" font-family="Times,serif" font-size="14.00">GenericImage</text>
</g>
<!-- GenericCar&#45;&gt;GenericImage -->
<g id="edge6" class="edge"><title>GenericCar&#45;&gt;GenericImage</title>
<path fill="none" stroke="#da09a6" d="M558.905,-137.791C559.851,-131.683 560.867,-125.13 561.825,-118.946"/>
<ellipse fill="none" stroke="#da09a6" cx="558.275" cy="-141.86" rx="4.00001" ry="4.00001"/>
<polygon fill="#da09a6" stroke="#da09a6" points="561.83,-118.911 567.808,-109.718 562.596,-113.97 563.361,-109.029 563.361,-109.029 563.361,-109.029 562.596,-113.97 558.914,-108.34 561.83,-118.911 561.83,-118.911"/>
</g>
<!-- GenericSpare -->
<g id="node10" class="node"><title>GenericSpare</title>
<ellipse fill="none" stroke="black" cx="702" cy="-91" rx="58.4563" ry="18"/>
<text text-anchor="middle" x="702" y="-86.8" font-family="Times,serif" font-size="14.00">GenericSpare</text>
</g>
<!-- GenericCar&#45;&gt;GenericSpare -->
<g id="edge7" class="edge"><title>GenericCar&#45;&gt;GenericSpare</title>
<path fill="none" stroke="#cb0e28" d="M593.092,-144.602C614.508,-134.258 641.193,-121.369 662.789,-110.938"/>
<polygon fill="#cb0e28" stroke="#cb0e28" points="593.047,-144.623 582.085,-144.921 588.544,-146.798 584.042,-148.973 584.042,-148.973 584.042,-148.973 588.544,-146.798 585.999,-153.025 593.047,-144.623 593.047,-144.623"/>
<polygon fill="#cb0e28" stroke="#cb0e28" points="663.004,-110.835 673.965,-110.538 667.506,-108.66 672.008,-106.486 672.008,-106.486 672.008,-106.486 667.506,-108.66 670.051,-102.434 663.004,-110.835 663.004,-110.835"/>
</g>
<!-- GenericSpare&#45;&gt;CarSpareAlloy -->
<g id="edge10" class="edge"><title>GenericSpare&#45;&gt;CarSpareAlloy</title>
<path fill="none" stroke="#d8b461" d="M737.539,-71.3091C756.592,-61.2884 780.063,-48.9445 799.419,-38.7647"/>
<ellipse fill="none" stroke="#d8b461" cx="733.84" cy="-73.2541" rx="4.00002" ry="4.00002"/>
<polygon fill="#d8b461" stroke="#d8b461" points="799.421,-38.7637 810.366,-38.0916 803.846,-36.4363 808.271,-34.1089 808.271,-34.1089 808.271,-34.1089 803.846,-36.4363 806.177,-30.1261 799.421,-38.7637 799.421,-38.7637"/>
</g>
<!-- GenericSpare&#45;&gt;Family -->
<g id="edge12" class="edge"><title>GenericSpare&#45;&gt;Family</title>
<path fill="none" stroke="#a7d4e8" d="M702,-64.791C702,-58.832 702,-52.4496 702,-46.3988"/>
<ellipse fill="none" stroke="#a7d4e8" cx="702" cy="-68.8129" rx="4" ry="4"/>
<polygon fill="#a7d4e8" stroke="#a7d4e8" points="702,-46.0288 706.5,-36.0288 702,-41.0288 702,-36.0288 702,-36.0288 702,-36.0288 702,-41.0288 697.5,-36.0289 702,-46.0288 702,-46.0288"/>
</g>
<!-- GenericSpare&#45;&gt;GenericSpare -->
<g id="edge9" class="edge"><title>GenericSpare&#45;&gt;GenericSpare</title>
<path fill="none" stroke="#dc01f6" d="M767.897,-93.7261C774.221,-93.1721 778.227,-92.2634 778.227,-91 778.227,-89.8464 774.888,-88.9886 769.493,-88.4264"/>
<ellipse fill="none" stroke="#dc01f6" cx="763.501" cy="-93.9814" rx="4" ry="4"/>
<polygon fill="#dc01f6" stroke="#dc01f6" points="769.487,-88.4262 759.796,-83.2957 764.498,-88.1063 759.508,-87.7865 759.508,-87.7865 759.508,-87.7865 764.498,-88.1063 759.22,-92.2773 769.487,-88.4262 769.487,-88.4262"/>
</g>
<!-- GenericSpare&#45;&gt;GenericSpare -->
<g id="edge13" class="edge"><title>GenericSpare&#45;&gt;GenericSpare</title>
<path fill="none" stroke="#b3ed02" d="M766.582,-97.6842C783.471,-97.2837 796.227,-95.0556 796.227,-91 796.227,-86.9444 783.471,-84.7163 766.582,-84.3158"/>
<polygon fill="#b3ed02" stroke="#b3ed02" points="766.225,-97.6849 756.214,-93.2088 761.225,-97.6969 756.225,-97.7088 756.225,-97.7088 756.225,-97.7088 761.225,-97.6969 756.235,-102.209 766.225,-97.6849 766.225,-97.6849"/>
<polygon fill="#b3ed02" stroke="#b3ed02" points="766.225,-84.3151 756.235,-79.7912 761.225,-84.3031 756.225,-84.2912 756.225,-84.2912 756.225,-84.2912 761.225,-84.3031 756.214,-88.7912 766.225,-84.3151 766.225,-84.3151"/>
<text text-anchor="middle" x="812.948" y="-86.8" font-family="Times,serif" font-size="14.00">childs</text>
</g>
<!-- Spare -->
<g id="node15" class="node"><title>Spare</title>
<ellipse fill="none" stroke="black" cx="441" cy="-18" rx="30.4862" ry="18"/>
<text text-anchor="middle" x="441" y="-13.8" font-family="Times,serif" font-size="14.00">Spare</text>
</g>
<!-- GenericSpare&#45;&gt;Spare -->
<g id="edge11" class="edge"><title>GenericSpare&#45;&gt;Spare</title>
<path fill="none" stroke="#8cd61e" d="M651.925,-76.3781C600.983,-62.5204 523.242,-41.3725 477.734,-28.993"/>
<ellipse fill="none" stroke="#8cd61e" cx="655.916" cy="-77.4637" rx="4.00001" ry="4.00001"/>
<polygon fill="#8cd61e" stroke="#8cd61e" points="477.637,-28.9666 469.169,-21.9994 472.812,-27.6541 467.988,-26.3416 467.988,-26.3416 467.988,-26.3416 472.812,-27.6541 466.806,-30.6838 477.637,-28.9666 477.637,-28.9666"/>
</g>
<!-- Insured -->
<g id="node11" class="node"><title>Insured</title>
<ellipse fill="none" stroke="black" cx="143" cy="-91" rx="36.7576" ry="18"/>
<text text-anchor="middle" x="143" y="-86.8" font-family="Times,serif" font-size="14.00">Insured</text>
</g>
<!-- MoldComponent -->
<g id="node12" class="node"><title>MoldComponent</title>
<ellipse fill="none" stroke="black" cx="956" cy="-91" rx="70.5772" ry="18"/>
<text text-anchor="middle" x="956" y="-86.8" font-family="Times,serif" font-size="14.00">MoldComponent</text>
</g>
<!-- MoldSpare -->
<g id="node13" class="node"><title>MoldSpare</title>
<ellipse fill="none" stroke="black" cx="931" cy="-164" rx="49.3119" ry="18"/>
<text text-anchor="middle" x="931" y="-159.8" font-family="Times,serif" font-size="14.00">MoldSpare</text>
</g>
<!-- MoldSpare&#45;&gt;GenericSpare -->
<g id="edge14" class="edge"><title>MoldSpare&#45;&gt;GenericSpare</title>
<path fill="none" stroke="#174e4e" d="M886.851,-149.312C847.993,-137.264 791.486,-119.745 751.19,-107.251"/>
<ellipse fill="none" stroke="#174e4e" cx="890.893" cy="-150.565" rx="4.00001" ry="4.00001"/>
<polygon fill="#174e4e" stroke="#174e4e" points="751.124,-107.231 742.905,-99.9713 746.349,-105.75 741.573,-104.269 741.573,-104.269 741.573,-104.269 746.349,-105.75 740.24,-108.568 751.124,-107.231 751.124,-107.231"/>
</g>
<!-- MoldSpare&#45;&gt;MoldComponent -->
<g id="edge15" class="edge"><title>MoldSpare&#45;&gt;MoldComponent</title>
<path fill="none" stroke="#66cc89" d="M939.774,-138.08C941.995,-131.774 944.387,-124.979 946.635,-118.594"/>
<ellipse fill="none" stroke="#66cc89" cx="938.38" cy="-142.04" rx="4.00001" ry="4.00001"/>
<polygon fill="#66cc89" stroke="#66cc89" points="946.682,-118.461 954.248,-110.523 948.343,-113.745 950.004,-109.029 950.004,-109.029 950.004,-109.029 948.343,-113.745 945.759,-107.534 946.682,-118.461 946.682,-118.461"/>
</g>
<!-- Prevaluation -->
<g id="node14" class="node"><title>Prevaluation</title>
<ellipse fill="none" stroke="black" cx="143" cy="-164" rx="54.6076" ry="18"/>
<text text-anchor="middle" x="143" y="-159.8" font-family="Times,serif" font-size="14.00">Prevaluation</text>
</g>
<!-- Prevaluation&#45;&gt;Car -->
<g id="edge16" class="edge"><title>Prevaluation&#45;&gt;Car</title>
<path fill="none" stroke="#500dc0" d="M167.949,-141.397C178.652,-132.131 191.087,-121.363 201.611,-112.251"/>
<ellipse fill="none" stroke="#500dc0" cx="164.631" cy="-144.271" rx="4.00002" ry="4.00002"/>
<polygon fill="#500dc0" stroke="#500dc0" points="201.666,-112.204 212.171,-109.06 205.446,-108.931 209.226,-105.658 209.226,-105.658 209.226,-105.658 205.446,-108.931 206.28,-102.256 201.666,-112.204 201.666,-112.204"/>
</g>
<!-- Prevaluation&#45;&gt;Insured -->
<g id="edge17" class="edge"><title>Prevaluation&#45;&gt;Insured</title>
<path fill="none" stroke="#76be94" d="M143,-137.791C143,-131.832 143,-125.45 143,-119.399"/>
<ellipse fill="none" stroke="#76be94" cx="143" cy="-141.813" rx="4" ry="4"/>
<polygon fill="#76be94" stroke="#76be94" points="143,-119.029 147.5,-109.029 143,-114.029 143,-109.029 143,-109.029 143,-109.029 143,-114.029 138.5,-109.029 143,-119.029 143,-119.029"/>
</g>
<!-- Valuation -->
<g id="node17" class="node"><title>Valuation</title>
<ellipse fill="none" stroke="black" cx="43.9996" cy="-91" rx="43.9992" ry="18"/>
<text text-anchor="middle" x="43.9996" y="-86.8" font-family="Times,serif" font-size="14.00">Valuation</text>
</g>
<!-- Prevaluation&#45;&gt;Valuation -->
<g id="edge18" class="edge"><title>Prevaluation&#45;&gt;Valuation</title>
<path fill="none" stroke="#32830c" d="M114.483,-142.549C101.003,-132.881 84.9741,-121.386 71.6105,-111.802"/>
<ellipse fill="none" stroke="#32830c" cx="117.778" cy="-144.912" rx="4.00002" ry="4.00002"/>
<ellipse fill="#32830c" stroke="#32830c" cx="68.1433" cy="-109.315" rx="4.00002" ry="4.00002"/>
</g>
<!-- Spare&#45;&gt;Spare -->
<g id="edge19" class="edge"><title>Spare&#45;&gt;Spare</title>
<path fill="none" stroke="#8a8101" d="M477.421,-24.4241C484.347,-23.6526 489.242,-21.5112 489.242,-18 489.242,-14.8623 485.333,-12.8185 479.559,-11.8686"/>
<ellipse fill="none" stroke="#8a8101" cx="473.242" cy="-24.5772" rx="4" ry="4"/>
<polygon fill="#8a8101" stroke="#8a8101" points="479.228,-11.8497 469.502,-6.78377 474.236,-11.563 469.244,-11.2764 469.244,-11.2764 469.244,-11.2764 474.236,-11.563 468.986,-15.769 479.228,-11.8497 479.228,-11.8497"/>
</g>
<!-- User -->
<g id="node16" class="node"><title>User</title>
<ellipse fill="none" stroke="black" cx="632" cy="-255.5" rx="27" ry="18"/>
<text text-anchor="middle" x="632" y="-251.3" font-family="Times,serif" font-size="14.00">User</text>
</g>
<!-- Warehouse -->
<g id="node18" class="node"><title>Warehouse</title>
<ellipse fill="none" stroke="black" cx="273" cy="-164" rx="49.3546" ry="18"/>
<text text-anchor="middle" x="273" y="-159.8" font-family="Times,serif" font-size="14.00">Warehouse</text>
</g>
<!-- Warehouse&#45;&gt;Car -->
<g id="edge21" class="edge"><title>Warehouse&#45;&gt;Car</title>
<path fill="none" stroke="#76c9b3" d="M256.963,-139.279C251.917,-131.816 246.342,-123.569 241.28,-116.082"/>
<ellipse fill="none" stroke="#76c9b3" cx="259.384" cy="-142.86" rx="4.00002" ry="4.00002"/>
<polygon fill="#76c9b3" stroke="#76c9b3" points="241.236,-116.017 239.364,-105.212 238.436,-111.875 235.636,-107.732 235.636,-107.732 235.636,-107.732 238.436,-111.875 231.908,-110.253 241.236,-116.017 241.236,-116.017"/>
</g>
<!-- Warehouse&#45;&gt;Spare -->
<g id="edge20" class="edge"><title>Warehouse&#45;&gt;Spare</title>
<path fill="none" stroke="#484d5a" d="M274.276,-137.864C276.561,-117.973 282.706,-90.6902 299,-73 325.684,-44.028 369.558,-30.4816 401.486,-24.2228"/>
<ellipse fill="none" stroke="#484d5a" cx="273.893" cy="-141.904" rx="4" ry="4"/>
<polygon fill="#484d5a" stroke="#484d5a" points="401.554,-24.2106 412.194,-26.8651 406.475,-23.3236 411.395,-22.4365 411.395,-22.4365 411.395,-22.4365 406.475,-23.3236 410.597,-18.0079 401.554,-24.2106 401.554,-24.2106"/>
</g>
</g>
</svg>
