<?xml version="1.0" encoding="UTF-8" standalone="no"?>
<!DOCTYPE svg PUBLIC "-//W3C//DTD SVG 1.1//EN"
 "http://www.w3.org/Graphics/SVG/1.1/DTD/svg11.dtd">
<!-- Generated by graphviz version 2.38.0 (20140413.2041)
 -->
<!-- Title: models_diagram Pages: 1 -->
<svg width="1310pt" height="1377pt"
 viewBox="0.00 0.00 1310.24 1377.00" xmlns="http://www.w3.org/2000/svg" xmlns:xlink="http://www.w3.org/1999/xlink">
<g id="graph0" class="graph" transform="scale(1 1) rotate(0) translate(4 1373)">
<title>models_diagram</title>
<polygon fill="white" stroke="none" points="-4,4 -4,-1373 1306.24,-1373 1306.24,4 -4,4"/>
<!-- _diagram_info -->
<g id="node1" class="node"><title>_diagram_info</title>
<text text-anchor="start" x="348.818" y="-1312.6" font-family="Times,serif" font-size="13.00">Models diagram</text>
<text text-anchor="start" x="348.818" y="-1299.6" font-family="Times,serif" font-size="13.00">Date: Jan 06 2015 &#45; 12:27</text>
<text text-anchor="start" x="348.818" y="-1286.6" font-family="Times,serif" font-size="13.00">Migration version: 20141217154326</text>
<text text-anchor="start" x="348.818" y="-1273.6" font-family="Times,serif" font-size="13.00">Generated by RailRoady 1.3.0</text>
<text text-anchor="start" x="348.818" y="-1260.6" font-family="Times,serif" font-size="13.00">http://railroady.prestonlee.com</text>
</g>
<!-- Brand -->
<g id="node2" class="node"><title>Brand</title>
<path fill="none" stroke="black" d="M735,-1240.5C735,-1240.5 844.011,-1240.5 844.011,-1240.5 850.011,-1240.5 856.011,-1246.5 856.011,-1252.5 856.011,-1252.5 856.011,-1328.5 856.011,-1328.5 856.011,-1334.5 850.011,-1340.5 844.011,-1340.5 844.011,-1340.5 735,-1340.5 735,-1340.5 729,-1340.5 723,-1334.5 723,-1328.5 723,-1328.5 723,-1252.5 723,-1252.5 723,-1246.5 729,-1240.5 735,-1240.5"/>
<text text-anchor="middle" x="789.505" y="-1325.3" font-family="Times,serif" font-size="14.00">Brand</text>
<polyline fill="none" stroke="black" points="723,-1318.5 856.011,-1318.5 "/>
<text text-anchor="start" x="731" y="-1303.3" font-family="Times,serif" font-size="14.00">id :integer</text>
<text text-anchor="start" x="731" y="-1289.3" font-family="Times,serif" font-size="14.00">name :string</text>
<text text-anchor="start" x="731" y="-1275.3" font-family="Times,serif" font-size="14.00">acronym :string</text>
<text text-anchor="start" x="731" y="-1261.3" font-family="Times,serif" font-size="14.00">created_at :datetime</text>
<text text-anchor="start" x="731" y="-1247.3" font-family="Times,serif" font-size="14.00">updated_at :datetime</text>
</g>
<!-- GenericCar -->
<g id="node7" class="node"><title>GenericCar</title>
<path fill="none" stroke="black" d="M710.11,-717.5C710.11,-717.5 868.9,-717.5 868.9,-717.5 874.9,-717.5 880.9,-723.5 880.9,-729.5 880.9,-729.5 880.9,-917.5 880.9,-917.5 880.9,-923.5 874.9,-929.5 868.9,-929.5 868.9,-929.5 710.11,-929.5 710.11,-929.5 704.11,-929.5 698.11,-923.5 698.11,-917.5 698.11,-917.5 698.11,-729.5 698.11,-729.5 698.11,-723.5 704.11,-717.5 710.11,-717.5"/>
<text text-anchor="middle" x="789.505" y="-914.3" font-family="Times,serif" font-size="14.00">GenericCar</text>
<polyline fill="none" stroke="black" points="698.11,-907.5 880.9,-907.5 "/>
<text text-anchor="start" x="706.11" y="-892.3" font-family="Times,serif" font-size="14.00">id :integer</text>
<text text-anchor="start" x="706.11" y="-878.3" font-family="Times,serif" font-size="14.00">brand_id :string</text>
<text text-anchor="start" x="706.11" y="-864.3" font-family="Times,serif" font-size="14.00">type_of_car :string</text>
<text text-anchor="start" x="706.11" y="-850.3" font-family="Times,serif" font-size="14.00">year :integer</text>
<text text-anchor="start" x="706.11" y="-836.3" font-family="Times,serif" font-size="14.00">model :string</text>
<text text-anchor="start" x="706.11" y="-822.3" font-family="Times,serif" font-size="14.00">doors :integer</text>
<text text-anchor="start" x="706.11" y="-808.3" font-family="Times,serif" font-size="14.00">first_generation_year :integer</text>
<text text-anchor="start" x="706.11" y="-794.3" font-family="Times,serif" font-size="14.00">last_generation_year :integer</text>
<text text-anchor="start" x="706.11" y="-780.3" font-family="Times,serif" font-size="14.00">code :string</text>
<text text-anchor="start" x="706.11" y="-766.3" font-family="Times,serif" font-size="14.00">gen_continues :boolean</text>
<text text-anchor="start" x="706.11" y="-752.3" font-family="Times,serif" font-size="14.00">number_of_generation :string</text>
<text text-anchor="start" x="706.11" y="-738.3" font-family="Times,serif" font-size="14.00">created_at :datetime</text>
<text text-anchor="start" x="706.11" y="-724.3" font-family="Times,serif" font-size="14.00">updated_at :datetime</text>
</g>
<!-- Brand&#45;&gt;GenericCar -->
<g id="edge1" class="edge"><title>Brand&#45;&gt;GenericCar</title>
<path fill="none" stroke="#6ce190" d="M789.505,-1231.72C789.505,-1158.98 789.505,-1032.32 789.505,-939.527"/>
<ellipse fill="none" stroke="#6ce190" cx="789.505" cy="-1236.18" rx="4" ry="4"/>
<polygon fill="#6ce190" stroke="#6ce190" points="789.505,-939.523 794.005,-929.523 789.505,-934.523 789.505,-929.523 789.505,-929.523 789.505,-929.523 789.505,-934.523 785.005,-929.523 789.505,-939.523 789.505,-939.523"/>
</g>
<!-- Car -->
<g id="node3" class="node"><title>Car</title>
<path fill="none" stroke="black" d="M331.883,-208.5C331.883,-208.5 475.128,-208.5 475.128,-208.5 481.128,-208.5 487.128,-214.5 487.128,-220.5 487.128,-220.5 487.128,-422.5 487.128,-422.5 487.128,-428.5 481.128,-434.5 475.128,-434.5 475.128,-434.5 331.883,-434.5 331.883,-434.5 325.883,-434.5 319.883,-428.5 319.883,-422.5 319.883,-422.5 319.883,-220.5 319.883,-220.5 319.883,-214.5 325.883,-208.5 331.883,-208.5"/>
<text text-anchor="middle" x="403.505" y="-419.3" font-family="Times,serif" font-size="14.00">Car</text>
<polyline fill="none" stroke="black" points="319.883,-412.5 487.128,-412.5 "/>
<text text-anchor="start" x="327.883" y="-397.3" font-family="Times,serif" font-size="14.00">id :integer</text>
<text text-anchor="start" x="327.883" y="-383.3" font-family="Times,serif" font-size="14.00">prevaluation_id :integer</text>
<text text-anchor="start" x="327.883" y="-369.3" font-family="Times,serif" font-size="14.00">generic_car_id :integer</text>
<text text-anchor="start" x="327.883" y="-355.3" font-family="Times,serif" font-size="14.00">warehouse_id :integer</text>
<text text-anchor="start" x="327.883" y="-341.3" font-family="Times,serif" font-size="14.00">color :string</text>
<text text-anchor="start" x="327.883" y="-327.3" font-family="Times,serif" font-size="14.00">door_number :integer</text>
<text text-anchor="start" x="327.883" y="-313.3" font-family="Times,serif" font-size="14.00">serie :string</text>
<text text-anchor="start" x="327.883" y="-299.3" font-family="Times,serif" font-size="14.00">motor :string</text>
<text text-anchor="start" x="327.883" y="-285.3" font-family="Times,serif" font-size="14.00">license_plates :string</text>
<text text-anchor="start" x="327.883" y="-271.3" font-family="Times,serif" font-size="14.00">inventory_description :text</text>
<text text-anchor="start" x="327.883" y="-257.3" font-family="Times,serif" font-size="14.00">special_equipment :text</text>
<text text-anchor="start" x="327.883" y="-243.3" font-family="Times,serif" font-size="14.00">economic_number :string</text>
<text text-anchor="start" x="327.883" y="-229.3" font-family="Times,serif" font-size="14.00">created_at :datetime</text>
<text text-anchor="start" x="327.883" y="-215.3" font-family="Times,serif" font-size="14.00">updated_at :datetime</text>
</g>
<!-- CarSpareAlloy -->
<g id="node4" class="node"><title>CarSpareAlloy</title>
<path fill="none" stroke="black" d="M1061.57,-28.5C1061.57,-28.5 1195.45,-28.5 1195.45,-28.5 1201.45,-28.5 1207.45,-34.5 1207.45,-40.5 1207.45,-40.5 1207.45,-130.5 1207.45,-130.5 1207.45,-136.5 1201.45,-142.5 1195.45,-142.5 1195.45,-142.5 1061.57,-142.5 1061.57,-142.5 1055.57,-142.5 1049.57,-136.5 1049.57,-130.5 1049.57,-130.5 1049.57,-40.5 1049.57,-40.5 1049.57,-34.5 1055.57,-28.5 1061.57,-28.5"/>
<text text-anchor="middle" x="1128.51" y="-127.3" font-family="Times,serif" font-size="14.00">CarSpareAlloy</text>
<polyline fill="none" stroke="black" points="1049.57,-120.5 1207.45,-120.5 "/>
<text text-anchor="start" x="1057.57" y="-105.3" font-family="Times,serif" font-size="14.00">id :integer</text>
<text text-anchor="start" x="1057.57" y="-91.3" font-family="Times,serif" font-size="14.00">generic_car_id :integer</text>
<text text-anchor="start" x="1057.57" y="-77.3" font-family="Times,serif" font-size="14.00">generic_spare_id :integer</text>
<text text-anchor="start" x="1057.57" y="-63.3" font-family="Times,serif" font-size="14.00">relation :string</text>
<text text-anchor="start" x="1057.57" y="-49.3" font-family="Times,serif" font-size="14.00">created_at :datetime</text>
<text text-anchor="start" x="1057.57" y="-35.3" font-family="Times,serif" font-size="14.00">updated_at :datetime</text>
</g>
<!-- Family -->
<g id="node5" class="node"><title>Family</title>
<path fill="none" stroke="black" d="M885.565,-21.5C885.565,-21.5 1019.45,-21.5 1019.45,-21.5 1025.45,-21.5 1031.45,-27.5 1031.45,-33.5 1031.45,-33.5 1031.45,-137.5 1031.45,-137.5 1031.45,-143.5 1025.45,-149.5 1019.45,-149.5 1019.45,-149.5 885.565,-149.5 885.565,-149.5 879.565,-149.5 873.565,-143.5 873.565,-137.5 873.565,-137.5 873.565,-33.5 873.565,-33.5 873.565,-27.5 879.565,-21.5 885.565,-21.5"/>
<text text-anchor="middle" x="952.505" y="-134.3" font-family="Times,serif" font-size="14.00">Family</text>
<polyline fill="none" stroke="black" points="873.565,-127.5 1031.45,-127.5 "/>
<text text-anchor="start" x="881.565" y="-112.3" font-family="Times,serif" font-size="14.00">id :integer</text>
<text text-anchor="start" x="881.565" y="-98.3" font-family="Times,serif" font-size="14.00">generic_spare_id :integer</text>
<text text-anchor="start" x="881.565" y="-84.3" font-family="Times,serif" font-size="14.00">child_id :integer</text>
<text text-anchor="start" x="881.565" y="-70.3" font-family="Times,serif" font-size="14.00">create :string</text>
<text text-anchor="start" x="881.565" y="-56.3" font-family="Times,serif" font-size="14.00">destroy :string</text>
<text text-anchor="start" x="881.565" y="-42.3" font-family="Times,serif" font-size="14.00">created_at :datetime</text>
<text text-anchor="start" x="881.565" y="-28.3" font-family="Times,serif" font-size="14.00">updated_at :datetime</text>
</g>
<!-- Generation -->
<g id="node6" class="node"><title>Generation</title>
<path fill="none" stroke="black" d="M578,-1247.5C578,-1247.5 687.011,-1247.5 687.011,-1247.5 693.011,-1247.5 699.011,-1253.5 699.011,-1259.5 699.011,-1259.5 699.011,-1321.5 699.011,-1321.5 699.011,-1327.5 693.011,-1333.5 687.011,-1333.5 687.011,-1333.5 578,-1333.5 578,-1333.5 572,-1333.5 566,-1327.5 566,-1321.5 566,-1321.5 566,-1259.5 566,-1259.5 566,-1253.5 572,-1247.5 578,-1247.5"/>
<text text-anchor="middle" x="632.505" y="-1318.3" font-family="Times,serif" font-size="14.00">Generation</text>
<polyline fill="none" stroke="black" points="566,-1311.5 699.011,-1311.5 "/>
<text text-anchor="start" x="574" y="-1296.3" font-family="Times,serif" font-size="14.00">id :integer</text>
<text text-anchor="start" x="574" y="-1282.3" font-family="Times,serif" font-size="14.00">year :integer</text>
<text text-anchor="start" x="574" y="-1268.3" font-family="Times,serif" font-size="14.00">created_at :datetime</text>
<text text-anchor="start" x="574" y="-1254.3" font-family="Times,serif" font-size="14.00">updated_at :datetime</text>
</g>
<!-- Generation&#45;&gt;GenericCar -->
<g id="edge2" class="edge"><title>Generation&#45;&gt;GenericCar</title>
<path fill="none" stroke="#332595" d="M649.951,-1237.83C674.141,-1166.18 718.526,-1034.72 750.761,-939.252"/>
<polygon fill="#332595" stroke="#332595" points="649.914,-1237.94 642.451,-1245.97 648.314,-1242.68 646.715,-1247.41 646.715,-1247.41 646.715,-1247.41 648.314,-1242.68 650.979,-1248.85 649.914,-1237.94 649.914,-1237.94"/>
<polygon fill="#332595" stroke="#332595" points="750.839,-939.022 758.301,-930.987 752.438,-934.284 754.038,-929.547 754.038,-929.547 754.038,-929.547 752.438,-934.284 749.774,-928.108 750.839,-939.022 750.839,-939.022"/>
</g>
<!-- GenericCarGeneration -->
<g id="node8" class="node"><title>GenericCarGeneration</title>
<path fill="none" stroke="black" d="M555.79,-271.5C555.79,-271.5 677.221,-271.5 677.221,-271.5 683.221,-271.5 689.221,-277.5 689.221,-283.5 689.221,-283.5 689.221,-359.5 689.221,-359.5 689.221,-365.5 683.221,-371.5 677.221,-371.5 677.221,-371.5 555.79,-371.5 555.79,-371.5 549.79,-371.5 543.79,-365.5 543.79,-359.5 543.79,-359.5 543.79,-283.5 543.79,-283.5 543.79,-277.5 549.79,-271.5 555.79,-271.5"/>
<text text-anchor="middle" x="616.505" y="-356.3" font-family="Times,serif" font-size="14.00">GenericCarGeneration</text>
<polyline fill="none" stroke="black" points="543.79,-349.5 689.221,-349.5 "/>
<text text-anchor="start" x="551.79" y="-334.3" font-family="Times,serif" font-size="14.00">id :integer</text>
<text text-anchor="start" x="551.79" y="-320.3" font-family="Times,serif" font-size="14.00">generic_car_id :integer</text>
<text text-anchor="start" x="551.79" y="-306.3" font-family="Times,serif" font-size="14.00">generation_id :integer</text>
<text text-anchor="start" x="551.79" y="-292.3" font-family="Times,serif" font-size="14.00">created_at :datetime</text>
<text text-anchor="start" x="551.79" y="-278.3" font-family="Times,serif" font-size="14.00">updated_at :datetime</text>
</g>
<!-- Generation&#45;&gt;GenericCarGeneration -->
<g id="edge3" class="edge"><title>Generation&#45;&gt;GenericCarGeneration</title>
<path fill="none" stroke="#b42f97" d="M631.673,-1239.18C628.963,-1075.38 620.399,-557.823 617.486,-381.787"/>
<ellipse fill="none" stroke="#b42f97" cx="631.741" cy="-1243.33" rx="4" ry="4"/>
<polygon fill="#b42f97" stroke="#b42f97" points="617.485,-381.677 621.818,-371.604 617.402,-376.678 617.319,-371.679 617.319,-371.679 617.319,-371.679 617.402,-376.678 612.82,-371.753 617.485,-381.677 617.485,-381.677"/>
</g>
<!-- GenericCar&#45;&gt;Car -->
<g id="edge4" class="edge"><title>GenericCar&#45;&gt;Car</title>
<path fill="none" stroke="#a06a52" d="M723.176,-710.01C679.35,-639.096 618.697,-547.073 556.505,-472 537.668,-449.26 515.772,-426.224 494.535,-405.27"/>
<ellipse fill="none" stroke="#a06a52" cx="725.533" cy="-713.834" rx="4.00002" ry="4.00002"/>
<polygon fill="#a06a52" stroke="#a06a52" points="494.508,-405.243 490.512,-395.031 490.936,-401.745 487.364,-398.246 487.364,-398.246 487.364,-398.246 490.936,-401.745 484.215,-401.461 494.508,-405.243 494.508,-405.243"/>
</g>
<!-- GenericCar&#45;&gt;CarSpareAlloy -->
<g id="edge5" class="edge"><title>GenericCar&#45;&gt;CarSpareAlloy</title>
<path fill="none" stroke="#739ee1" d="M887.011,-738.216C962.724,-666.208 1062.48,-555.392 1109.51,-435 1145.7,-342.338 1143.28,-225.195 1136.9,-153.081"/>
<ellipse fill="none" stroke="#739ee1" cx="884.05" cy="-741.016" rx="4.00002" ry="4.00002"/>
<polygon fill="#739ee1" stroke="#739ee1" points="1136.86,-152.733 1140.41,-142.356 1136.4,-147.755 1135.93,-142.777 1135.93,-142.777 1135.93,-142.777 1136.4,-147.755 1131.45,-143.197 1136.86,-152.733 1136.86,-152.733"/>
</g>
<!-- GenericCar&#45;&gt;GenericCarGeneration -->
<g id="edge8" class="edge"><title>GenericCar&#45;&gt;GenericCarGeneration</title>
<path fill="none" stroke="#608fe8" d="M777.108,-709.336C766.001,-634.239 745.668,-534.815 709.505,-453 705.84,-444.708 681.795,-411.025 659.075,-379.959"/>
<ellipse fill="none" stroke="#608fe8" cx="777.711" cy="-713.488" rx="4.00001" ry="4.00001"/>
<polygon fill="#608fe8" stroke="#608fe8" points="658.943,-379.779 656.661,-369.053 655.987,-375.746 653.032,-371.714 653.032,-371.714 653.032,-371.714 655.987,-375.746 649.402,-374.374 658.943,-379.779 658.943,-379.779"/>
</g>
<!-- GenericImage -->
<g id="node9" class="node"><title>GenericImage</title>
<path fill="none" stroke="black" d="M719.555,-250.5C719.555,-250.5 867.456,-250.5 867.456,-250.5 873.456,-250.5 879.456,-256.5 879.456,-262.5 879.456,-262.5 879.456,-380.5 879.456,-380.5 879.456,-386.5 873.456,-392.5 867.456,-392.5 867.456,-392.5 719.555,-392.5 719.555,-392.5 713.555,-392.5 707.555,-386.5 707.555,-380.5 707.555,-380.5 707.555,-262.5 707.555,-262.5 707.555,-256.5 713.555,-250.5 719.555,-250.5"/>
<text text-anchor="middle" x="793.505" y="-377.3" font-family="Times,serif" font-size="14.00">GenericImage</text>
<polyline fill="none" stroke="black" points="707.555,-370.5 879.456,-370.5 "/>
<text text-anchor="start" x="715.555" y="-355.3" font-family="Times,serif" font-size="14.00">id :integer</text>
<text text-anchor="start" x="715.555" y="-341.3" font-family="Times,serif" font-size="14.00">generic_id :integer</text>
<text text-anchor="start" x="715.555" y="-327.3" font-family="Times,serif" font-size="14.00">created_at :datetime</text>
<text text-anchor="start" x="715.555" y="-313.3" font-family="Times,serif" font-size="14.00">updated_at :datetime</text>
<text text-anchor="start" x="715.555" y="-299.3" font-family="Times,serif" font-size="14.00">photo_file_name :string</text>
<text text-anchor="start" x="715.555" y="-285.3" font-family="Times,serif" font-size="14.00">photo_content_type :string</text>
<text text-anchor="start" x="715.555" y="-271.3" font-family="Times,serif" font-size="14.00">photo_file_size :integer</text>
<text text-anchor="start" x="715.555" y="-257.3" font-family="Times,serif" font-size="14.00">photo_updated_at :datetime</text>
</g>
<!-- GenericCar&#45;&gt;GenericImage -->
<g id="edge6" class="edge"><title>GenericCar&#45;&gt;GenericImage</title>
<path fill="none" stroke="#a78d25" d="M790.411,-709.268C791.159,-615.839 792.201,-485.596 792.864,-402.658"/>
<ellipse fill="none" stroke="#a78d25" cx="790.378" cy="-713.379" rx="4" ry="4"/>
<polygon fill="#a78d25" stroke="#a78d25" points="792.865,-402.533 797.445,-392.569 792.905,-397.533 792.945,-392.533 792.945,-392.533 792.945,-392.533 792.905,-397.533 788.445,-392.497 792.865,-402.533 792.865,-402.533"/>
</g>
<!-- GenericSpare -->
<g id="node10" class="node"><title>GenericSpare</title>
<path fill="none" stroke="black" d="M909.214,-250.5C909.214,-250.5 1019.8,-250.5 1019.8,-250.5 1025.8,-250.5 1031.8,-256.5 1031.8,-262.5 1031.8,-262.5 1031.8,-380.5 1031.8,-380.5 1031.8,-386.5 1025.8,-392.5 1019.8,-392.5 1019.8,-392.5 909.214,-392.5 909.214,-392.5 903.214,-392.5 897.214,-386.5 897.214,-380.5 897.214,-380.5 897.214,-262.5 897.214,-262.5 897.214,-256.5 903.214,-250.5 909.214,-250.5"/>
<text text-anchor="middle" x="964.505" y="-377.3" font-family="Times,serif" font-size="14.00">GenericSpare</text>
<polyline fill="none" stroke="black" points="897.214,-370.5 1031.8,-370.5 "/>
<text text-anchor="start" x="905.214" y="-355.3" font-family="Times,serif" font-size="14.00">id :integer</text>
<text text-anchor="start" x="905.214" y="-341.3" font-family="Times,serif" font-size="14.00">brand :string</text>
<text text-anchor="start" x="905.214" y="-327.3" font-family="Times,serif" font-size="14.00">type_of_spare :string</text>
<text text-anchor="start" x="905.214" y="-313.3" font-family="Times,serif" font-size="14.00">name :string</text>
<text text-anchor="start" x="905.214" y="-299.3" font-family="Times,serif" font-size="14.00">region :string</text>
<text text-anchor="start" x="905.214" y="-285.3" font-family="Times,serif" font-size="14.00">description :text</text>
<text text-anchor="start" x="905.214" y="-271.3" font-family="Times,serif" font-size="14.00">created_at :datetime</text>
<text text-anchor="start" x="905.214" y="-257.3" font-family="Times,serif" font-size="14.00">updated_at :datetime</text>
</g>
<!-- GenericCar&#45;&gt;GenericSpare -->
<g id="edge7" class="edge"><title>GenericCar&#45;&gt;GenericSpare</title>
<path fill="none" stroke="#2a3da9" d="M829.651,-707.799C862.386,-614.269 907.777,-484.581 936.644,-402.103"/>
<polygon fill="#2a3da9" stroke="#2a3da9" points="829.601,-707.94 822.05,-715.892 827.95,-712.66 826.298,-717.379 826.298,-717.379 826.298,-717.379 827.95,-712.66 830.545,-718.865 829.601,-707.94 829.601,-707.94"/>
<polygon fill="#2a3da9" stroke="#2a3da9" points="936.69,-401.972 944.241,-394.02 938.342,-397.253 939.994,-392.533 939.994,-392.533 939.994,-392.533 938.342,-397.253 935.746,-391.047 936.69,-401.972 936.69,-401.972"/>
</g>
<!-- GenericSpare&#45;&gt;CarSpareAlloy -->
<g id="edge10" class="edge"><title>GenericSpare&#45;&gt;CarSpareAlloy</title>
<path fill="none" stroke="#8e50b0" d="M1018.58,-243.345C1039.58,-213.386 1063.35,-179.469 1083.4,-150.858"/>
<ellipse fill="none" stroke="#8e50b0" cx="1016.01" cy="-247.017" rx="4.00002" ry="4.00002"/>
<polygon fill="#8e50b0" stroke="#8e50b0" points="1083.48,-150.738 1092.91,-145.132 1086.35,-146.643 1089.22,-142.549 1089.22,-142.549 1089.22,-142.549 1086.35,-146.643 1085.54,-139.966 1083.48,-150.738 1083.48,-150.738"/>
</g>
<!-- GenericSpare&#45;&gt;Family -->
<g id="edge12" class="edge"><title>GenericSpare&#45;&gt;Family</title>
<path fill="none" stroke="#daab68" d="M960.477,-241.951C959.121,-215.506 957.614,-186.112 956.278,-160.065"/>
<ellipse fill="none" stroke="#daab68" cx="960.7" cy="-246.298" rx="4" ry="4"/>
<polygon fill="#daab68" stroke="#daab68" points="956.268,-159.871 960.25,-149.654 956.012,-154.877 955.756,-149.884 955.756,-149.884 955.756,-149.884 956.012,-154.877 951.262,-150.115 956.268,-159.871 956.268,-159.871"/>
</g>
<!-- GenericSpare&#45;&gt;GenericSpare -->
<g id="edge9" class="edge"><title>GenericSpare&#45;&gt;GenericSpare</title>
<path fill="none" stroke="#14a430" d="M1040.08,-330.916C1046.09,-328.854 1049.8,-325.716 1049.8,-321.5 1049.8,-317.743 1046.85,-314.841 1041.96,-312.795"/>
<ellipse fill="none" stroke="#14a430" cx="1035.96" cy="-331.906" rx="4.00001" ry="4.00001"/>
<polygon fill="#14a430" stroke="#14a430" points="1041.74,-312.735 1033.23,-305.811 1036.9,-311.447 1032.07,-310.159 1032.07,-310.159 1032.07,-310.159 1036.9,-311.447 1030.91,-314.507 1041.74,-312.735 1041.74,-312.735"/>
</g>
<!-- GenericSpare&#45;&gt;GenericSpare -->
<g id="edge13" class="edge"><title>GenericSpare&#45;&gt;GenericSpare</title>
<path fill="none" stroke="#54268a" d="M1042.4,-345.072C1057.27,-342.258 1067.8,-334.401 1067.8,-321.5 1067.8,-308.599 1057.27,-300.742 1042.4,-297.928"/>
<polygon fill="#54268a" stroke="#54268a" points="1042,-345.115 1031.57,-341.722 1037.03,-345.655 1032.06,-346.196 1032.06,-346.196 1032.06,-346.196 1037.03,-345.655 1032.55,-350.669 1042,-345.115 1042,-345.115"/>
<polygon fill="#54268a" stroke="#54268a" points="1042,-297.885 1032.55,-292.331 1037.03,-297.345 1032.06,-296.804 1032.06,-296.804 1032.06,-296.804 1037.03,-297.345 1031.57,-301.278 1042,-297.885 1042,-297.885"/>
<text text-anchor="middle" x="1084.52" y="-317.3" font-family="Times,serif" font-size="14.00">childs</text>
</g>
<!-- Spare -->
<g id="node15" class="node"><title>Spare</title>
<path fill="none" stroke="black" d="M583.5,-0.5C583.5,-0.5 699.511,-0.5 699.511,-0.5 705.511,-0.5 711.511,-6.5 711.511,-12.5 711.511,-12.5 711.511,-158.5 711.511,-158.5 711.511,-164.5 705.511,-170.5 699.511,-170.5 699.511,-170.5 583.5,-170.5 583.5,-170.5 577.5,-170.5 571.5,-164.5 571.5,-158.5 571.5,-158.5 571.5,-12.5 571.5,-12.5 571.5,-6.5 577.5,-0.5 583.5,-0.5"/>
<text text-anchor="middle" x="641.505" y="-155.3" font-family="Times,serif" font-size="14.00">Spare</text>
<polyline fill="none" stroke="black" points="571.5,-148.5 711.511,-148.5 "/>
<text text-anchor="start" x="579.5" y="-133.3" font-family="Times,serif" font-size="14.00">id :integer</text>
<text text-anchor="start" x="579.5" y="-119.3" font-family="Times,serif" font-size="14.00">car_id :integer</text>
<text text-anchor="start" x="579.5" y="-105.3" font-family="Times,serif" font-size="14.00">warehouse_id :integer</text>
<text text-anchor="start" x="579.5" y="-91.3" font-family="Times,serif" font-size="14.00">spare_id :integer</text>
<text text-anchor="start" x="579.5" y="-77.3" font-family="Times,serif" font-size="14.00">status :string</text>
<text text-anchor="start" x="579.5" y="-63.3" font-family="Times,serif" font-size="14.00">description :text</text>
<text text-anchor="start" x="579.5" y="-49.3" font-family="Times,serif" font-size="14.00">code :string</text>
<text text-anchor="start" x="579.5" y="-35.3" font-family="Times,serif" font-size="14.00">color :string</text>
<text text-anchor="start" x="579.5" y="-21.3" font-family="Times,serif" font-size="14.00">created_at :datetime</text>
<text text-anchor="start" x="579.5" y="-7.3" font-family="Times,serif" font-size="14.00">updated_at :datetime</text>
</g>
<!-- GenericSpare&#45;&gt;Spare -->
<g id="edge11" class="edge"><title>GenericSpare&#45;&gt;Spare</title>
<path fill="none" stroke="#8e35db" d="M920.616,-243.714C911.101,-230.809 900.307,-218.287 888.505,-208 839.499,-165.285 772.83,-133.659 721.108,-113.397"/>
<ellipse fill="none" stroke="#8e35db" cx="923.142" cy="-247.237" rx="4.00002" ry="4.00002"/>
<polygon fill="#8e35db" stroke="#8e35db" points="720.963,-113.342 713.25,-105.547 716.298,-111.544 711.632,-109.746 711.632,-109.746 711.632,-109.746 716.298,-111.544 710.014,-113.946 720.963,-113.342 720.963,-113.342"/>
</g>
<!-- Insured -->
<g id="node11" class="node"><title>Insured</title>
<path fill="none" stroke="black" d="M163.445,-250.5C163.445,-250.5 289.566,-250.5 289.566,-250.5 295.566,-250.5 301.566,-256.5 301.566,-262.5 301.566,-262.5 301.566,-380.5 301.566,-380.5 301.566,-386.5 295.566,-392.5 289.566,-392.5 289.566,-392.5 163.445,-392.5 163.445,-392.5 157.445,-392.5 151.445,-386.5 151.445,-380.5 151.445,-380.5 151.445,-262.5 151.445,-262.5 151.445,-256.5 157.445,-250.5 163.445,-250.5"/>
<text text-anchor="middle" x="226.505" y="-377.3" font-family="Times,serif" font-size="14.00">Insured</text>
<polyline fill="none" stroke="black" points="151.445,-370.5 301.566,-370.5 "/>
<text text-anchor="start" x="159.445" y="-355.3" font-family="Times,serif" font-size="14.00">id :integer</text>
<text text-anchor="start" x="159.445" y="-341.3" font-family="Times,serif" font-size="14.00">prevaluation_id :integer</text>
<text text-anchor="start" x="159.445" y="-327.3" font-family="Times,serif" font-size="14.00">third :boolean</text>
<text text-anchor="start" x="159.445" y="-313.3" font-family="Times,serif" font-size="14.00">name :string</text>
<text text-anchor="start" x="159.445" y="-299.3" font-family="Times,serif" font-size="14.00">telephone :integer</text>
<text text-anchor="start" x="159.445" y="-285.3" font-family="Times,serif" font-size="14.00">email :string</text>
<text text-anchor="start" x="159.445" y="-271.3" font-family="Times,serif" font-size="14.00">created_at :datetime</text>
<text text-anchor="start" x="159.445" y="-257.3" font-family="Times,serif" font-size="14.00">updated_at :datetime</text>
</g>
<!-- MoldComponent -->
<g id="node12" class="node"><title>MoldComponent</title>
<path fill="none" stroke="black" d="M1168.77,-271.5C1168.77,-271.5 1290.24,-271.5 1290.24,-271.5 1296.24,-271.5 1302.24,-277.5 1302.24,-283.5 1302.24,-283.5 1302.24,-359.5 1302.24,-359.5 1302.24,-365.5 1296.24,-371.5 1290.24,-371.5 1290.24,-371.5 1168.77,-371.5 1168.77,-371.5 1162.77,-371.5 1156.77,-365.5 1156.77,-359.5 1156.77,-359.5 1156.77,-283.5 1156.77,-283.5 1156.77,-277.5 1162.77,-271.5 1168.77,-271.5"/>
<text text-anchor="middle" x="1229.51" y="-356.3" font-family="Times,serif" font-size="14.00">MoldComponent</text>
<polyline fill="none" stroke="black" points="1156.77,-349.5 1302.24,-349.5 "/>
<text text-anchor="start" x="1164.77" y="-334.3" font-family="Times,serif" font-size="14.00">id :integer</text>
<text text-anchor="start" x="1164.77" y="-320.3" font-family="Times,serif" font-size="14.00">name :string</text>
<text text-anchor="start" x="1164.77" y="-306.3" font-family="Times,serif" font-size="14.00">mold_spare_id :integer</text>
<text text-anchor="start" x="1164.77" y="-292.3" font-family="Times,serif" font-size="14.00">created_at :datetime</text>
<text text-anchor="start" x="1164.77" y="-278.3" font-family="Times,serif" font-size="14.00">updated_at :datetime</text>
</g>
<!-- MoldSpare -->
<g id="node13" class="node"><title>MoldSpare</title>
<path fill="none" stroke="black" d="M1150,-759.5C1150,-759.5 1259.01,-759.5 1259.01,-759.5 1265.01,-759.5 1271.01,-765.5 1271.01,-771.5 1271.01,-771.5 1271.01,-875.5 1271.01,-875.5 1271.01,-881.5 1265.01,-887.5 1259.01,-887.5 1259.01,-887.5 1150,-887.5 1150,-887.5 1144,-887.5 1138,-881.5 1138,-875.5 1138,-875.5 1138,-771.5 1138,-771.5 1138,-765.5 1144,-759.5 1150,-759.5"/>
<text text-anchor="middle" x="1204.51" y="-872.3" font-family="Times,serif" font-size="14.00">MoldSpare</text>
<polyline fill="none" stroke="black" points="1138,-865.5 1271.01,-865.5 "/>
<text text-anchor="start" x="1146" y="-850.3" font-family="Times,serif" font-size="14.00">id :integer</text>
<text text-anchor="start" x="1146" y="-836.3" font-family="Times,serif" font-size="14.00">name :string</text>
<text text-anchor="start" x="1146" y="-822.3" font-family="Times,serif" font-size="14.00">comment :string</text>
<text text-anchor="start" x="1146" y="-808.3" font-family="Times,serif" font-size="14.00">comment2 :string</text>
<text text-anchor="start" x="1146" y="-794.3" font-family="Times,serif" font-size="14.00">mold_type :string</text>
<text text-anchor="start" x="1146" y="-780.3" font-family="Times,serif" font-size="14.00">created_at :datetime</text>
<text text-anchor="start" x="1146" y="-766.3" font-family="Times,serif" font-size="14.00">updated_at :datetime</text>
</g>
<!-- MoldSpare&#45;&gt;GenericSpare -->
<g id="edge14" class="edge"><title>MoldSpare&#45;&gt;GenericSpare</title>
<path fill="none" stroke="#4db030" d="M1170.73,-752.133C1126.42,-659.822 1048.88,-498.271 1002.55,-401.75"/>
<ellipse fill="none" stroke="#4db030" cx="1172.5" cy="-755.822" rx="4.00002" ry="4.00002"/>
<polygon fill="#4db030" stroke="#4db030" points="1002.49,-401.632 1002.22,-390.669 1000.33,-397.124 998.161,-392.617 998.161,-392.617 998.161,-392.617 1000.33,-397.124 994.105,-394.564 1002.49,-401.632 1002.49,-401.632"/>
</g>
<!-- MoldSpare&#45;&gt;MoldComponent -->
<g id="edge15" class="edge"><title>MoldSpare&#45;&gt;MoldComponent</title>
<path fill="none" stroke="#be11e2" d="M1208.07,-751.249C1213.03,-651.957 1221.94,-473.803 1226.55,-381.519"/>
<ellipse fill="none" stroke="#be11e2" cx="1207.86" cy="-755.433" rx="4" ry="4"/>
<polygon fill="#be11e2" stroke="#be11e2" points="1226.56,-381.499 1231.55,-371.736 1226.81,-376.505 1227.05,-371.511 1227.05,-371.511 1227.05,-371.511 1226.81,-376.505 1222.56,-371.286 1226.56,-381.499 1226.56,-381.499"/>
</g>
<!-- Prevaluation -->
<g id="node14" class="node"><title>Prevaluation</title>
<path fill="none" stroke="black" d="M149.055,-472.5C149.055,-472.5 303.956,-472.5 303.956,-472.5 309.956,-472.5 315.956,-478.5 315.956,-484.5 315.956,-484.5 315.956,-1162.5 315.956,-1162.5 315.956,-1168.5 309.956,-1174.5 303.956,-1174.5 303.956,-1174.5 149.055,-1174.5 149.055,-1174.5 143.055,-1174.5 137.055,-1168.5 137.055,-1162.5 137.055,-1162.5 137.055,-484.5 137.055,-484.5 137.055,-478.5 143.055,-472.5 149.055,-472.5"/>
<text text-anchor="middle" x="226.505" y="-1159.3" font-family="Times,serif" font-size="14.00">Prevaluation</text>
<polyline fill="none" stroke="black" points="137.055,-1152.5 315.956,-1152.5 "/>
<text text-anchor="start" x="145.055" y="-1137.3" font-family="Times,serif" font-size="14.00">id :integer</text>
<text text-anchor="start" x="145.055" y="-1123.3" font-family="Times,serif" font-size="14.00">number :string</text>
<text text-anchor="start" x="145.055" y="-1109.3" font-family="Times,serif" font-size="14.00">policy :string</text>
<text text-anchor="start" x="145.055" y="-1095.3" font-family="Times,serif" font-size="14.00">subsection :string</text>
<text text-anchor="start" x="145.055" y="-1081.3" font-family="Times,serif" font-size="14.00">expedition_date :date</text>
<text text-anchor="start" x="145.055" y="-1067.3" font-family="Times,serif" font-size="14.00">valuation_date :date</text>
<text text-anchor="start" x="145.055" y="-1053.3" font-family="Times,serif" font-size="14.00">deductible_value :float</text>
<text text-anchor="start" x="145.055" y="-1039.3" font-family="Times,serif" font-size="14.00">commercial_value :float</text>
<text text-anchor="start" x="145.055" y="-1025.3" font-family="Times,serif" font-size="14.00">requires_crane :boolean</text>
<text text-anchor="start" x="145.055" y="-1011.3" font-family="Times,serif" font-size="14.00">collection_status :boolean</text>
<text text-anchor="start" x="145.055" y="-997.3" font-family="Times,serif" font-size="14.00">special_conditions :string</text>
<text text-anchor="start" x="145.055" y="-983.3" font-family="Times,serif" font-size="14.00">third_insured :boolean</text>
<text text-anchor="start" x="145.055" y="-969.3" font-family="Times,serif" font-size="14.00">agent_name :string</text>
<text text-anchor="start" x="145.055" y="-955.3" font-family="Times,serif" font-size="14.00">comment :text</text>
<text text-anchor="start" x="145.055" y="-941.3" font-family="Times,serif" font-size="14.00">photo1_file_name :string</text>
<text text-anchor="start" x="145.055" y="-927.3" font-family="Times,serif" font-size="14.00">photo1_content_type :string</text>
<text text-anchor="start" x="145.055" y="-913.3" font-family="Times,serif" font-size="14.00">photo1_file_size :integer</text>
<text text-anchor="start" x="145.055" y="-899.3" font-family="Times,serif" font-size="14.00">photo1_updated_at :datetime</text>
<text text-anchor="start" x="145.055" y="-885.3" font-family="Times,serif" font-size="14.00">photo2_file_name :string</text>
<text text-anchor="start" x="145.055" y="-871.3" font-family="Times,serif" font-size="14.00">photo2_content_type :string</text>
<text text-anchor="start" x="145.055" y="-857.3" font-family="Times,serif" font-size="14.00">photo2_file_size :integer</text>
<text text-anchor="start" x="145.055" y="-843.3" font-family="Times,serif" font-size="14.00">photo2_updated_at :datetime</text>
<text text-anchor="start" x="145.055" y="-829.3" font-family="Times,serif" font-size="14.00">photo3_file_name :string</text>
<text text-anchor="start" x="145.055" y="-815.3" font-family="Times,serif" font-size="14.00">photo3_content_type :string</text>
<text text-anchor="start" x="145.055" y="-801.3" font-family="Times,serif" font-size="14.00">photo3_file_size :integer</text>
<text text-anchor="start" x="145.055" y="-787.3" font-family="Times,serif" font-size="14.00">photo3_updated_at :datetime</text>
<text text-anchor="start" x="145.055" y="-773.3" font-family="Times,serif" font-size="14.00">photo4_file_name :string</text>
<text text-anchor="start" x="145.055" y="-759.3" font-family="Times,serif" font-size="14.00">photo4_content_type :string</text>
<text text-anchor="start" x="145.055" y="-745.3" font-family="Times,serif" font-size="14.00">photo4_file_size :integer</text>
<text text-anchor="start" x="145.055" y="-731.3" font-family="Times,serif" font-size="14.00">photo4_updated_at :datetime</text>
<text text-anchor="start" x="145.055" y="-717.3" font-family="Times,serif" font-size="14.00">doc1_file_name :string</text>
<text text-anchor="start" x="145.055" y="-703.3" font-family="Times,serif" font-size="14.00">doc1_content_type :string</text>
<text text-anchor="start" x="145.055" y="-689.3" font-family="Times,serif" font-size="14.00">doc1_file_size :integer</text>
<text text-anchor="start" x="145.055" y="-675.3" font-family="Times,serif" font-size="14.00">doc1_updated_at :datetime</text>
<text text-anchor="start" x="145.055" y="-661.3" font-family="Times,serif" font-size="14.00">doc2_file_name :string</text>
<text text-anchor="start" x="145.055" y="-647.3" font-family="Times,serif" font-size="14.00">doc2_content_type :string</text>
<text text-anchor="start" x="145.055" y="-633.3" font-family="Times,serif" font-size="14.00">doc2_file_size :integer</text>
<text text-anchor="start" x="145.055" y="-619.3" font-family="Times,serif" font-size="14.00">doc2_updated_at :datetime</text>
<text text-anchor="start" x="145.055" y="-605.3" font-family="Times,serif" font-size="14.00">doc3_file_name :string</text>
<text text-anchor="start" x="145.055" y="-591.3" font-family="Times,serif" font-size="14.00">doc3_content_type :string</text>
<text text-anchor="start" x="145.055" y="-577.3" font-family="Times,serif" font-size="14.00">doc3_file_size :integer</text>
<text text-anchor="start" x="145.055" y="-563.3" font-family="Times,serif" font-size="14.00">doc3_updated_at :datetime</text>
<text text-anchor="start" x="145.055" y="-549.3" font-family="Times,serif" font-size="14.00">doc4_file_name :string</text>
<text text-anchor="start" x="145.055" y="-535.3" font-family="Times,serif" font-size="14.00">doc4_content_type :string</text>
<text text-anchor="start" x="145.055" y="-521.3" font-family="Times,serif" font-size="14.00">doc4_file_size :integer</text>
<text text-anchor="start" x="145.055" y="-507.3" font-family="Times,serif" font-size="14.00">doc4_updated_at :datetime</text>
<text text-anchor="start" x="145.055" y="-493.3" font-family="Times,serif" font-size="14.00">created_at :datetime</text>
<text text-anchor="start" x="145.055" y="-479.3" font-family="Times,serif" font-size="14.00">updated_at :datetime</text>
</g>
<!-- Prevaluation&#45;&gt;Car -->
<g id="edge16" class="edge"><title>Prevaluation&#45;&gt;Car</title>
<path fill="none" stroke="#7c0648" d="M318.792,-561.804C333.327,-520.743 347.727,-480.067 360.417,-444.218"/>
<ellipse fill="none" stroke="#7c0648" cx="317.377" cy="-565.8" rx="4.00001" ry="4.00001"/>
<polygon fill="#7c0648" stroke="#7c0648" points="360.44,-444.154 368.019,-436.229 362.109,-439.44 363.777,-434.727 363.777,-434.727 363.777,-434.727 362.109,-439.44 359.535,-433.225 360.44,-444.154 360.44,-444.154"/>
</g>
<!-- Prevaluation&#45;&gt;Insured -->
<g id="edge17" class="edge"><title>Prevaluation&#45;&gt;Insured</title>
<path fill="none" stroke="#04a279" d="M226.505,-463.991C226.505,-442.003 226.505,-421.405 226.505,-403.095"/>
<ellipse fill="none" stroke="#04a279" cx="226.505" cy="-468.178" rx="4" ry="4"/>
<polygon fill="#04a279" stroke="#04a279" points="226.505,-402.877 231.005,-392.877 226.505,-397.877 226.505,-392.877 226.505,-392.877 226.505,-392.877 226.505,-397.877 222.005,-392.877 226.505,-402.877 226.505,-402.877"/>
</g>
<!-- Valuation -->
<g id="node17" class="node"><title>Valuation</title>
<path fill="none" stroke="black" d="M12,-271.5C12,-271.5 121.011,-271.5 121.011,-271.5 127.011,-271.5 133.011,-277.5 133.011,-283.5 133.011,-283.5 133.011,-359.5 133.011,-359.5 133.011,-365.5 127.011,-371.5 121.011,-371.5 121.011,-371.5 12,-371.5 12,-371.5 6,-371.5 0,-365.5 0,-359.5 0,-359.5 0,-283.5 0,-283.5 0,-277.5 6,-271.5 12,-271.5"/>
<text text-anchor="middle" x="66.5054" y="-356.3" font-family="Times,serif" font-size="14.00">Valuation</text>
<polyline fill="none" stroke="black" points="0,-349.5 133.011,-349.5 "/>
<text text-anchor="start" x="8" y="-334.3" font-family="Times,serif" font-size="14.00">id :integer</text>
<text text-anchor="start" x="8" y="-320.3" font-family="Times,serif" font-size="14.00">client_code :string</text>
<text text-anchor="start" x="8" y="-306.3" font-family="Times,serif" font-size="14.00">edited_by :string</text>
<text text-anchor="start" x="8" y="-292.3" font-family="Times,serif" font-size="14.00">created_at :datetime</text>
<text text-anchor="start" x="8" y="-278.3" font-family="Times,serif" font-size="14.00">updated_at :datetime</text>
</g>
<!-- Prevaluation&#45;&gt;Valuation -->
<g id="edge18" class="edge"><title>Prevaluation&#45;&gt;Valuation</title>
<path fill="none" stroke="#37e815" d="M134.557,-535.163C115.564,-475.808 97.4898,-419.326 84.748,-379.508"/>
<ellipse fill="none" stroke="#37e815" cx="135.814" cy="-539.089" rx="4.00001" ry="4.00001"/>
<ellipse fill="#37e815" stroke="#37e815" cx="83.4912" cy="-375.581" rx="4.00001" ry="4.00001"/>
</g>
<!-- Spare&#45;&gt;Spare -->
<g id="edge19" class="edge"><title>Spare&#45;&gt;Spare</title>
<path fill="none" stroke="#6d2f8c" d="M719.293,-100.439C725.6,-97.1922 729.511,-92.2126 729.511,-85.5 729.511,-79.5015 726.388,-74.8869 721.223,-71.6562"/>
<ellipse fill="none" stroke="#6d2f8c" cx="715.334" cy="-101.898" rx="4.00001" ry="4.00001"/>
<polygon fill="#6d2f8c" stroke="#6d2f8c" points="720.838,-71.4993 713.282,-63.5526 716.209,-69.609 711.58,-67.7186 711.58,-67.7186 711.58,-67.7186 716.209,-69.609 709.879,-71.8846 720.838,-71.4993 720.838,-71.4993"/>
</g>
<!-- User -->
<g id="node16" class="node"><title>User</title>
<path fill="none" stroke="black" d="M886.441,-1212.5C886.441,-1212.5 1012.57,-1212.5 1012.57,-1212.5 1018.57,-1212.5 1024.57,-1218.5 1024.57,-1224.5 1024.57,-1224.5 1024.57,-1356.5 1024.57,-1356.5 1024.57,-1362.5 1018.57,-1368.5 1012.57,-1368.5 1012.57,-1368.5 886.441,-1368.5 886.441,-1368.5 880.441,-1368.5 874.441,-1362.5 874.441,-1356.5 874.441,-1356.5 874.441,-1224.5 874.441,-1224.5 874.441,-1218.5 880.441,-1212.5 886.441,-1212.5"/>
<text text-anchor="middle" x="949.505" y="-1353.3" font-family="Times,serif" font-size="14.00">User</text>
<polyline fill="none" stroke="black" points="874.441,-1346.5 1024.57,-1346.5 "/>
<text text-anchor="start" x="882.441" y="-1331.3" font-family="Times,serif" font-size="14.00">id :integer</text>
<text text-anchor="start" x="882.441" y="-1317.3" font-family="Times,serif" font-size="14.00">name :string</text>
<text text-anchor="start" x="882.441" y="-1303.3" font-family="Times,serif" font-size="14.00">email :string</text>
<text text-anchor="start" x="882.441" y="-1289.3" font-family="Times,serif" font-size="14.00">username :string</text>
<text text-anchor="start" x="882.441" y="-1275.3" font-family="Times,serif" font-size="14.00">privileges :string</text>
<text text-anchor="start" x="882.441" y="-1261.3" font-family="Times,serif" font-size="14.00">created_at :datetime</text>
<text text-anchor="start" x="882.441" y="-1247.3" font-family="Times,serif" font-size="14.00">updated_at :datetime</text>
<text text-anchor="start" x="882.441" y="-1233.3" font-family="Times,serif" font-size="14.00">password_digest :string</text>
<text text-anchor="start" x="882.441" y="-1219.3" font-family="Times,serif" font-size="14.00">remember_token :string</text>
</g>
<!-- Warehouse -->
<g id="node18" class="node"><title>Warehouse</title>
<path fill="none" stroke="black" d="M426,-766.5C426,-766.5 535.011,-766.5 535.011,-766.5 541.011,-766.5 547.011,-772.5 547.011,-778.5 547.011,-778.5 547.011,-868.5 547.011,-868.5 547.011,-874.5 541.011,-880.5 535.011,-880.5 535.011,-880.5 426,-880.5 426,-880.5 420,-880.5 414,-874.5 414,-868.5 414,-868.5 414,-778.5 414,-778.5 414,-772.5 420,-766.5 426,-766.5"/>
<text text-anchor="middle" x="480.505" y="-865.3" font-family="Times,serif" font-size="14.00">Warehouse</text>
<polyline fill="none" stroke="black" points="414,-858.5 547.011,-858.5 "/>
<text text-anchor="start" x="422" y="-843.3" font-family="Times,serif" font-size="14.00">id :integer</text>
<text text-anchor="start" x="422" y="-829.3" font-family="Times,serif" font-size="14.00">branch :string</text>
<text text-anchor="start" x="422" y="-815.3" font-family="Times,serif" font-size="14.00">location :string</text>
<text text-anchor="start" x="422" y="-801.3" font-family="Times,serif" font-size="14.00">geolocation :string</text>
<text text-anchor="start" x="422" y="-787.3" font-family="Times,serif" font-size="14.00">created_at :datetime</text>
<text text-anchor="start" x="422" y="-773.3" font-family="Times,serif" font-size="14.00">updated_at :datetime</text>
</g>
<!-- Warehouse&#45;&gt;Car -->
<g id="edge21" class="edge"><title>Warehouse&#45;&gt;Car</title>
<path fill="none" stroke="#99ac7e" d="M470.56,-757.919C458.4,-678.96 437.563,-543.654 422.337,-444.784"/>
<ellipse fill="none" stroke="#99ac7e" cx="471.213" cy="-762.162" rx="4.00001" ry="4.00001"/>
<polygon fill="#99ac7e" stroke="#99ac7e" points="422.311,-444.614 425.236,-434.045 421.55,-439.672 420.789,-434.73 420.789,-434.73 420.789,-434.73 421.55,-439.672 416.341,-435.415 422.311,-444.614 422.311,-444.614"/>
</g>
<!-- Warehouse&#45;&gt;Spare -->
<g id="edge20" class="edge"><title>Warehouse&#45;&gt;Spare</title>
<path fill="none" stroke="#ce2e4e" d="M483.879,-758.228C491.937,-610.905 513.224,-257.664 534.505,-208 541.953,-190.62 552.875,-173.984 564.932,-158.901"/>
<ellipse fill="none" stroke="#ce2e4e" cx="483.654" cy="-762.366" rx="4" ry="4"/>
<polygon fill="#ce2e4e" stroke="#ce2e4e" points="564.959,-158.869 574.797,-154.025 568.143,-155.014 571.328,-151.159 571.328,-151.159 571.328,-151.159 568.143,-155.014 567.859,-148.293 564.959,-158.869 564.959,-158.869"/>
</g>
</g>
</svg>
