<?xml version="1.0" encoding="UTF-8" standalone="no"?>
<!DOCTYPE svg PUBLIC "-//W3C//DTD SVG 1.1//EN"
 "http://www.w3.org/Graphics/SVG/1.1/DTD/svg11.dtd">
<!-- Generated by graphviz version 2.38.0 (20140413.2041)
 -->
<!-- Title: models_diagram Pages: 1 -->
<svg width="1322pt" height="441pt"
 viewBox="0.00 0.00 1322.15 441.00" xmlns="http://www.w3.org/2000/svg" xmlns:xlink="http://www.w3.org/1999/xlink">
<g id="graph0" class="graph" transform="scale(1 1) rotate(0) translate(4 437)">
<title>models_diagram</title>
<polygon fill="white" stroke="none" points="-4,4 -4,-437 1318.15,-437 1318.15,4 -4,4"/>
<!-- _diagram_info -->
<g id="node1" class="node"><title>_diagram_info</title>
<text text-anchor="start" x="119.459" y="-418.6" font-family="Times,serif" font-size="13.00">Models diagram</text>
<text text-anchor="start" x="119.459" y="-405.6" font-family="Times,serif" font-size="13.00">Date: Mar 02 2015 &#45; 19:29</text>
<text text-anchor="start" x="119.459" y="-392.6" font-family="Times,serif" font-size="13.00">Migration version: 20150303012824</text>
<text text-anchor="start" x="119.459" y="-379.6" font-family="Times,serif" font-size="13.00">Generated by RailRoady 1.3.0</text>
<text text-anchor="start" x="119.459" y="-366.6" font-family="Times,serif" font-size="13.00">http://railroady.prestonlee.com</text>
</g>
<!-- Brand -->
<g id="node2" class="node"><title>Brand</title>
<ellipse fill="none" stroke="black" cx="188.147" cy="-306" rx="31.9393" ry="18"/>
<text text-anchor="middle" x="188.147" y="-301.8" font-family="Times,serif" font-size="14.00">Brand</text>
</g>
<!-- ModelAcronym -->
<g id="node13" class="node"><title>ModelAcronym</title>
<ellipse fill="none" stroke="black" cx="188.147" cy="-234" rx="66.6925" ry="18"/>
<text text-anchor="middle" x="188.147" y="-229.8" font-family="Times,serif" font-size="14.00">ModelAcronym</text>
</g>
<!-- Brand&#45;&gt;ModelAcronym -->
<g id="edge1" class="edge"><title>Brand&#45;&gt;ModelAcronym</title>
<path fill="none" stroke="#e52112" d="M188.147,-279.64C188.147,-274.063 188.147,-268.132 188.147,-262.476"/>
<ellipse fill="none" stroke="#e52112" cx="188.147" cy="-283.697" rx="4" ry="4"/>
<polygon fill="#e52112" stroke="#e52112" points="188.147,-262.104 192.647,-252.104 188.147,-257.104 188.147,-252.104 188.147,-252.104 188.147,-252.104 188.147,-257.104 183.647,-252.104 188.147,-262.104 188.147,-262.104"/>
</g>
<!-- CarType -->
<g id="node3" class="node"><title>CarType</title>
<ellipse fill="none" stroke="black" cx="377.147" cy="-396.5" rx="40.3571" ry="18"/>
<text text-anchor="middle" x="377.147" y="-392.3" font-family="Times,serif" font-size="14.00">CarType</text>
</g>
<!-- GenericCar -->
<g id="node5" class="node"><title>GenericCar</title>
<ellipse fill="none" stroke="black" cx="283.147" cy="-162" rx="50.7224" ry="18"/>
<text text-anchor="middle" x="283.147" y="-157.8" font-family="Times,serif" font-size="14.00">GenericCar</text>
</g>
<!-- CarType&#45;&gt;GenericCar -->
<g id="edge2" class="edge"><title>CarType&#45;&gt;GenericCar</title>
<path fill="none" stroke="#a55934" d="M362.326,-372.031C345.453,-344.338 318.16,-296.425 302.147,-252 294.881,-231.842 289.981,-208.064 286.98,-190.159"/>
<ellipse fill="none" stroke="#a55934" cx="364.489" cy="-375.547" rx="4.00002" ry="4.00002"/>
<polygon fill="#a55934" stroke="#a55934" points="286.953,-189.988 289.835,-179.408 286.171,-185.049 285.39,-180.111 285.39,-180.111 285.39,-180.111 286.171,-185.049 280.945,-180.814 286.953,-189.988 286.953,-189.988"/>
</g>
<!-- GenericFamily -->
<g id="node8" class="node"><title>GenericFamily</title>
<ellipse fill="none" stroke="black" cx="517.147" cy="-306" rx="63.301" ry="18"/>
<text text-anchor="middle" x="517.147" y="-301.8" font-family="Times,serif" font-size="14.00">GenericFamily</text>
</g>
<!-- CarType&#45;&gt;GenericFamily -->
<g id="edge4" class="edge"><title>CarType&#45;&gt;GenericFamily</title>
<path fill="none" stroke="#82de5d" d="M405.119,-374.503C411.91,-369.61 419.215,-364.514 426.147,-360 443.599,-348.636 463.536,-336.892 480.292,-327.356"/>
<polygon fill="#82de5d" stroke="#82de5d" points="404.935,-374.637 394.205,-376.898 400.897,-377.585 396.858,-380.533 396.858,-380.533 396.858,-380.533 400.897,-377.585 399.511,-384.168 404.935,-374.637 404.935,-374.637"/>
<polygon fill="#82de5d" stroke="#82de5d" points="480.532,-327.221 491.452,-326.22 484.885,-324.762 489.238,-322.302 489.238,-322.302 489.238,-322.302 484.885,-324.762 487.024,-318.384 480.532,-327.221 480.532,-327.221"/>
</g>
<!-- TypeLikelihood -->
<g id="node24" class="node"><title>TypeLikelihood</title>
<ellipse fill="none" stroke="black" cx="377.147" cy="-234" rx="66.4333" ry="18"/>
<text text-anchor="middle" x="377.147" y="-229.8" font-family="Times,serif" font-size="14.00">TypeLikelihood</text>
</g>
<!-- CarType&#45;&gt;TypeLikelihood -->
<g id="edge3" class="edge"><title>CarType&#45;&gt;TypeLikelihood</title>
<path fill="none" stroke="#9c51d8" d="M377.147,-370.079C377.147,-340.675 377.147,-292.455 377.147,-262.284"/>
<ellipse fill="none" stroke="#9c51d8" cx="377.147" cy="-374.324" rx="4" ry="4"/>
<polygon fill="#9c51d8" stroke="#9c51d8" points="377.147,-262.053 381.647,-252.053 377.147,-257.053 377.147,-252.053 377.147,-252.053 377.147,-252.053 377.147,-257.053 372.647,-252.053 377.147,-262.053 377.147,-262.053"/>
</g>
<!-- Generation -->
<g id="node4" class="node"><title>Generation</title>
<ellipse fill="none" stroke="black" cx="54.1471" cy="-234" rx="49.286" ry="18"/>
<text text-anchor="middle" x="54.1471" y="-229.8" font-family="Times,serif" font-size="14.00">Generation</text>
</g>
<!-- Generation&#45;&gt;GenericCar -->
<g id="edge6" class="edge"><title>Generation&#45;&gt;GenericCar</title>
<path fill="none" stroke="#0f3b26" d="M100.32,-218.886C139.854,-206.801 196.523,-189.479 236.261,-177.332"/>
<polygon fill="#0f3b26" stroke="#0f3b26" points="100.249,-218.908 89.3706,-217.527 95.4676,-220.369 90.686,-221.831 90.686,-221.831 90.686,-221.831 95.4676,-220.369 92.0015,-226.134 100.249,-218.908 100.249,-218.908"/>
<polygon fill="#0f3b26" stroke="#0f3b26" points="236.416,-177.285 247.294,-178.665 241.197,-175.823 245.979,-174.362 245.979,-174.362 245.979,-174.362 241.197,-175.823 244.663,-170.058 236.416,-177.285 236.416,-177.285"/>
</g>
<!-- GenericCarGeneration -->
<g id="node6" class="node"><title>GenericCarGeneration</title>
<ellipse fill="none" stroke="black" cx="90.1471" cy="-90" rx="90.2944" ry="18"/>
<text text-anchor="middle" x="90.1471" y="-85.8" font-family="Times,serif" font-size="14.00">GenericCarGeneration</text>
</g>
<!-- Generation&#45;&gt;GenericCarGeneration -->
<g id="edge5" class="edge"><title>Generation&#45;&gt;GenericCarGeneration</title>
<path fill="none" stroke="#404509" d="M60.5032,-207.929C66.8929,-182.725 76.712,-143.994 83.278,-118.095"/>
<ellipse fill="none" stroke="#404509" cx="59.4726" cy="-211.994" rx="4.00001" ry="4.00001"/>
<polygon fill="#404509" stroke="#404509" points="83.3317,-117.883 90.1513,-109.295 84.5605,-113.036 85.7893,-108.189 85.7893,-108.189 85.7893,-108.189 84.5605,-113.036 81.4273,-107.083 83.3317,-117.883 83.3317,-117.883"/>
</g>
<!-- GenericCar&#45;&gt;GenericCarGeneration -->
<g id="edge9" class="edge"><title>GenericCar&#45;&gt;GenericCarGeneration</title>
<path fill="none" stroke="#9c2dac" d="M241.092,-145.747C211.832,-135.134 172.647,-120.922 141.534,-109.638"/>
<ellipse fill="none" stroke="#9c2dac" cx="244.882" cy="-147.122" rx="4.00001" ry="4.00001"/>
<polygon fill="#9c2dac" stroke="#9c2dac" points="141.14,-109.495 133.274,-101.855 136.44,-107.79 131.739,-106.085 131.739,-106.085 131.739,-106.085 136.44,-107.79 130.205,-110.316 141.14,-109.495 141.14,-109.495"/>
</g>
<!-- GenericCarImage -->
<g id="node7" class="node"><title>GenericCarImage</title>
<ellipse fill="none" stroke="black" cx="283.147" cy="-90" rx="72.9135" ry="18"/>
<text text-anchor="middle" x="283.147" y="-85.8" font-family="Times,serif" font-size="14.00">GenericCarImage</text>
</g>
<!-- GenericCar&#45;&gt;GenericCarImage -->
<g id="edge10" class="edge"><title>GenericCar&#45;&gt;GenericCarImage</title>
<path fill="none" stroke="#423d8d" d="M283.147,-135.64C283.147,-130.063 283.147,-124.132 283.147,-118.476"/>
<ellipse fill="none" stroke="#423d8d" cx="283.147" cy="-139.697" rx="4" ry="4"/>
<polygon fill="#423d8d" stroke="#423d8d" points="283.147,-118.104 287.647,-108.104 283.147,-113.104 283.147,-108.104 283.147,-108.104 283.147,-108.104 283.147,-113.104 278.647,-108.104 283.147,-118.104 283.147,-118.104"/>
</g>
<!-- GenericFittable -->
<g id="node9" class="node"><title>GenericFittable</title>
<ellipse fill="none" stroke="black" cx="503.147" cy="-90" rx="65.2217" ry="18"/>
<text text-anchor="middle" x="503.147" y="-85.8" font-family="Times,serif" font-size="14.00">GenericFittable</text>
</g>
<!-- GenericCar&#45;&gt;GenericFittable -->
<g id="edge8" class="edge"><title>GenericCar&#45;&gt;GenericFittable</title>
<path fill="none" stroke="#d2f6b6" d="M328.081,-146.703C364.157,-135.224 414.809,-119.108 452.353,-107.162"/>
<ellipse fill="none" stroke="#d2f6b6" cx="323.782" cy="-148.071" rx="4.00001" ry="4.00001"/>
<polygon fill="#d2f6b6" stroke="#d2f6b6" points="452.555,-107.098 463.449,-108.354 457.32,-105.582 462.084,-104.065 462.084,-104.065 462.084,-104.065 457.32,-105.582 460.72,-99.7773 452.555,-107.098 452.555,-107.098"/>
</g>
<!-- StockCar -->
<g id="node19" class="node"><title>StockCar</title>
<ellipse fill="none" stroke="black" cx="901.147" cy="-90" rx="43.0387" ry="18"/>
<text text-anchor="middle" x="901.147" y="-85.8" font-family="Times,serif" font-size="14.00">StockCar</text>
</g>
<!-- GenericCar&#45;&gt;StockCar -->
<g id="edge7" class="edge"><title>GenericCar&#45;&gt;StockCar</title>
<path fill="none" stroke="#11d04b" d="M335.627,-151.902C353.233,-149.074 373.002,-146.139 391.147,-144 593.486,-120.142 648.248,-147.378 848.147,-108 852.036,-107.234 856.039,-106.277 860.02,-105.21"/>
<ellipse fill="none" stroke="#11d04b" cx="331.652" cy="-152.549" rx="4.00001" ry="4.00001"/>
<polygon fill="#11d04b" stroke="#11d04b" points="860.188,-105.161 871.045,-106.699 864.99,-103.769 869.793,-102.377 869.793,-102.377 869.793,-102.377 864.99,-103.769 868.54,-98.0549 860.188,-105.161 860.188,-105.161"/>
</g>
<!-- GenericSpare -->
<g id="node10" class="node"><title>GenericSpare</title>
<ellipse fill="none" stroke="black" cx="686.147" cy="-234" rx="58.4563" ry="18"/>
<text text-anchor="middle" x="686.147" y="-229.8" font-family="Times,serif" font-size="14.00">GenericSpare</text>
</g>
<!-- GenericFamily&#45;&gt;GenericSpare -->
<g id="edge12" class="edge"><title>GenericFamily&#45;&gt;GenericSpare</title>
<path fill="none" stroke="#cac95c" d="M560.742,-286.943C586.213,-276.393 618.218,-263.136 643.521,-252.656"/>
<polygon fill="#cac95c" stroke="#cac95c" points="560.586,-287.008 549.625,-286.677 555.966,-288.921 551.347,-290.834 551.347,-290.834 551.347,-290.834 555.966,-288.921 553.069,-294.992 560.586,-287.008 560.586,-287.008"/>
<polygon fill="#cac95c" stroke="#cac95c" points="643.623,-252.613 654.584,-252.944 648.243,-250.7 652.862,-248.787 652.862,-248.787 652.862,-248.787 648.243,-250.7 651.14,-244.629 643.623,-252.613 643.623,-252.613"/>
</g>
<!-- SpareLikelihood -->
<g id="node18" class="node"><title>SpareLikelihood</title>
<ellipse fill="none" stroke="black" cx="469.147" cy="-162" rx="69.0978" ry="18"/>
<text text-anchor="middle" x="469.147" y="-157.8" font-family="Times,serif" font-size="14.00">SpareLikelihood</text>
</g>
<!-- GenericFamily&#45;&gt;SpareLikelihood -->
<g id="edge11" class="edge"><title>GenericFamily&#45;&gt;SpareLikelihood</title>
<path fill="none" stroke="#81d524" d="M551.97,-284.989C563.457,-276.431 574.886,-265.314 581.147,-252 587.956,-237.521 589.706,-229.519 581.147,-216 569.525,-197.642 549.639,-185.52 529.819,-177.571"/>
<ellipse fill="none" stroke="#81d524" cx="548.51" cy="-287.426" rx="4.00002" ry="4.00002"/>
<polygon fill="#81d524" stroke="#81d524" points="529.819,-177.571 522.003,-169.879 525.13,-175.835 520.441,-174.1 520.441,-174.1 520.441,-174.1 525.13,-175.835 518.879,-178.32 529.819,-177.571 529.819,-177.571"/>
</g>
<!-- StockFamily -->
<g id="node21" class="node"><title>StockFamily</title>
<ellipse fill="none" stroke="black" cx="517.147" cy="-234" rx="55.118" ry="18"/>
<text text-anchor="middle" x="517.147" y="-229.8" font-family="Times,serif" font-size="14.00">StockFamily</text>
</g>
<!-- GenericFamily&#45;&gt;StockFamily -->
<g id="edge13" class="edge"><title>GenericFamily&#45;&gt;StockFamily</title>
<path fill="none" stroke="#6d53ed" d="M517.147,-279.64C517.147,-274.063 517.147,-268.132 517.147,-262.476"/>
<ellipse fill="none" stroke="#6d53ed" cx="517.147" cy="-283.697" rx="4" ry="4"/>
<polygon fill="#6d53ed" stroke="#6d53ed" points="517.147,-262.104 521.647,-252.104 517.147,-257.104 517.147,-252.104 517.147,-252.104 517.147,-252.104 517.147,-257.104 512.647,-252.104 517.147,-262.104 517.147,-262.104"/>
</g>
<!-- GenericFamily&#45;&gt;TypeLikelihood -->
<g id="edge14" class="edge"><title>GenericFamily&#45;&gt;TypeLikelihood</title>
<path fill="none" stroke="#a6dda5" d="M479.705,-286.279C460.233,-276.543 436.437,-264.645 416.669,-254.761"/>
<ellipse fill="none" stroke="#a6dda5" cx="483.536" cy="-288.194" rx="4.00002" ry="4.00002"/>
<polygon fill="#a6dda5" stroke="#a6dda5" points="416.558,-254.706 409.626,-246.209 412.086,-252.47 407.614,-250.233 407.614,-250.233 407.614,-250.233 412.086,-252.47 405.602,-254.258 416.558,-254.706 416.558,-254.706"/>
</g>
<!-- GenericSpare&#45;&gt;GenericCar -->
<g id="edge16" class="edge"><title>GenericSpare&#45;&gt;GenericCar</title>
<path fill="none" stroke="#4d1e97" d="M626.627,-222.662C548.763,-209.137 413.395,-185.624 337.943,-172.518"/>
<polygon fill="#4d1e97" stroke="#4d1e97" points="626.879,-222.705 635.961,-228.85 631.805,-223.561 636.731,-224.417 636.731,-224.417 636.731,-224.417 631.805,-223.561 637.502,-219.983 626.879,-222.705 626.879,-222.705"/>
<polygon fill="#4d1e97" stroke="#4d1e97" points="337.558,-172.451 328.476,-166.306 332.632,-171.595 327.706,-170.74 327.706,-170.74 327.706,-170.74 332.632,-171.595 326.936,-175.173 337.558,-172.451 337.558,-172.451"/>
</g>
<!-- GenericSpare&#45;&gt;GenericFittable -->
<g id="edge15" class="edge"><title>GenericSpare&#45;&gt;GenericFittable</title>
<path fill="none" stroke="#f6681e" d="M645.611,-215.669C626.361,-206.479 603.589,-194.159 585.147,-180 571.88,-169.814 543.394,-137.868 523.754,-115.172"/>
<ellipse fill="none" stroke="#f6681e" cx="649.449" cy="-217.465" rx="4.00002" ry="4.00002"/>
<polygon fill="#f6681e" stroke="#f6681e" points="523.741,-115.157 520.625,-104.644 520.478,-111.369 517.215,-107.581 517.215,-107.581 517.215,-107.581 520.478,-111.369 513.805,-110.517 523.741,-115.157 523.741,-115.157"/>
</g>
<!-- GenericSpareImage -->
<g id="node11" class="node"><title>GenericSpareImage</title>
<ellipse fill="none" stroke="black" cx="674.147" cy="-162" rx="80.1472" ry="18"/>
<text text-anchor="middle" x="674.147" y="-157.8" font-family="Times,serif" font-size="14.00">GenericSpareImage</text>
</g>
<!-- GenericSpare&#45;&gt;GenericSpareImage -->
<g id="edge19" class="edge"><title>GenericSpare&#45;&gt;GenericSpareImage</title>
<path fill="none" stroke="#f2a40a" d="M681.8,-207.64C680.819,-201.92 679.775,-195.828 678.783,-190.042"/>
<ellipse fill="none" stroke="#f2a40a" cx="682.505" cy="-211.754" rx="4.00001" ry="4.00001"/>
<polygon fill="#f2a40a" stroke="#f2a40a" points="678.769,-189.961 681.515,-179.344 677.924,-185.032 677.079,-180.104 677.079,-180.104 677.079,-180.104 677.924,-185.032 672.644,-180.865 678.769,-189.961 678.769,-189.961"/>
</g>
<!-- GenericSpare&#45;&gt;SpareLikelihood -->
<g id="edge17" class="edge"><title>GenericSpare&#45;&gt;SpareLikelihood</title>
<path fill="none" stroke="#accdf9" d="M639.446,-217.935C604.535,-206.673 556.817,-191.281 520.773,-179.654"/>
<ellipse fill="none" stroke="#accdf9" cx="643.545" cy="-219.257" rx="4.00001" ry="4.00001"/>
<polygon fill="#accdf9" stroke="#accdf9" points="520.454,-179.551 512.318,-172.198 515.695,-178.016 510.937,-176.481 510.937,-176.481 510.937,-176.481 515.695,-178.016 509.555,-180.763 520.454,-179.551 520.454,-179.551"/>
</g>
<!-- StockSpare -->
<g id="node22" class="node"><title>StockSpare</title>
<ellipse fill="none" stroke="black" cx="823.147" cy="-162" rx="50.2723" ry="18"/>
<text text-anchor="middle" x="823.147" y="-157.8" font-family="Times,serif" font-size="14.00">StockSpare</text>
</g>
<!-- GenericSpare&#45;&gt;StockSpare -->
<g id="edge18" class="edge"><title>GenericSpare&#45;&gt;StockSpare</title>
<path fill="none" stroke="#cac0d0" d="M722.069,-214.646C741.859,-204.534 766.379,-192.005 786.313,-181.82"/>
<ellipse fill="none" stroke="#cac0d0" cx="718.429" cy="-216.506" rx="4.00002" ry="4.00002"/>
<polygon fill="#cac0d0" stroke="#cac0d0" points="786.496,-181.727 797.449,-181.184 790.949,-179.452 795.401,-177.177 795.401,-177.177 795.401,-177.177 790.949,-179.452 793.354,-173.17 786.496,-181.727 786.496,-181.727"/>
</g>
<!-- Insured -->
<g id="node12" class="node"><title>Insured</title>
<ellipse fill="none" stroke="black" cx="999.147" cy="-90" rx="36.7576" ry="18"/>
<text text-anchor="middle" x="999.147" y="-85.8" font-family="Times,serif" font-size="14.00">Insured</text>
</g>
<!-- ModelAcronym&#45;&gt;GenericCar -->
<g id="edge20" class="edge"><title>ModelAcronym&#45;&gt;GenericCar</title>
<path fill="none" stroke="#84a9be" d="M216.68,-211.976C228.46,-203.296 242.103,-193.243 253.952,-184.512"/>
<ellipse fill="none" stroke="#84a9be" cx="213.401" cy="-214.392" rx="4.00002" ry="4.00002"/>
<polygon fill="#84a9be" stroke="#84a9be" points="254.16,-184.359 264.88,-182.05 258.185,-181.393 262.211,-178.427 262.211,-178.427 262.211,-178.427 258.185,-181.393 259.541,-174.804 254.16,-184.359 254.16,-184.359"/>
</g>
<!-- MoldComponent -->
<g id="node14" class="node"><title>MoldComponent</title>
<ellipse fill="none" stroke="black" cx="961.147" cy="-234" rx="70.5772" ry="18"/>
<text text-anchor="middle" x="961.147" y="-229.8" font-family="Times,serif" font-size="14.00">MoldComponent</text>
</g>
<!-- MoldSpare -->
<g id="node15" class="node"><title>MoldSpare</title>
<ellipse fill="none" stroke="black" cx="823.147" cy="-306" rx="49.3119" ry="18"/>
<text text-anchor="middle" x="823.147" y="-301.8" font-family="Times,serif" font-size="14.00">MoldSpare</text>
</g>
<!-- MoldSpare&#45;&gt;GenericSpare -->
<g id="edge21" class="edge"><title>MoldSpare&#45;&gt;GenericSpare</title>
<path fill="none" stroke="#ace096" d="M788.617,-287.357C768.88,-277.272 744.104,-264.613 723.86,-254.269"/>
<ellipse fill="none" stroke="#ace096" cx="792.19" cy="-289.183" rx="4.00002" ry="4.00002"/>
<polygon fill="#ace096" stroke="#ace096" points="723.816,-254.247 716.959,-245.69 719.364,-251.972 714.911,-249.697 714.911,-249.697 714.911,-249.697 719.364,-251.972 712.864,-253.704 723.816,-254.247 723.816,-254.247"/>
</g>
<!-- MoldSpare&#45;&gt;MoldComponent -->
<g id="edge22" class="edge"><title>MoldSpare&#45;&gt;MoldComponent</title>
<path fill="none" stroke="#e778cd" d="M858.073,-287.284C877.408,-277.476 901.51,-265.251 921.545,-255.088"/>
<ellipse fill="none" stroke="#e778cd" cx="854.309" cy="-289.193" rx="4.00002" ry="4.00002"/>
<polygon fill="#e778cd" stroke="#e778cd" points="921.804,-254.957 932.758,-254.446 926.263,-252.695 930.722,-250.433 930.722,-250.433 930.722,-250.433 926.263,-252.695 928.687,-246.42 921.804,-254.957 921.804,-254.957"/>
</g>
<!-- Prevaluation -->
<g id="node16" class="node"><title>Prevaluation</title>
<ellipse fill="none" stroke="black" cx="1065.15" cy="-162" rx="54.6076" ry="18"/>
<text text-anchor="middle" x="1065.15" y="-157.8" font-family="Times,serif" font-size="14.00">Prevaluation</text>
</g>
<!-- Prevaluation&#45;&gt;Insured -->
<g id="edge24" class="edge"><title>Prevaluation&#45;&gt;Insured</title>
<path fill="none" stroke="#f090a5" d="M1043.93,-138.495C1036.55,-130.665 1028.26,-121.874 1020.84,-114.004"/>
<ellipse fill="none" stroke="#f090a5" cx="1046.76" cy="-141.501" rx="4.00002" ry="4.00002"/>
<polygon fill="#f090a5" stroke="#f090a5" points="1020.63,-113.787 1017.05,-103.424 1017.2,-110.149 1013.77,-106.511 1013.77,-106.511 1013.77,-106.511 1017.2,-110.149 1010.5,-109.598 1020.63,-113.787 1020.63,-113.787"/>
</g>
<!-- PrevaluationImage -->
<g id="node17" class="node"><title>PrevaluationImage</title>
<ellipse fill="none" stroke="black" cx="1131.15" cy="-90" rx="76.7985" ry="18"/>
<text text-anchor="middle" x="1131.15" y="-85.8" font-family="Times,serif" font-size="14.00">PrevaluationImage</text>
</g>
<!-- Prevaluation&#45;&gt;PrevaluationImage -->
<g id="edge26" class="edge"><title>Prevaluation&#45;&gt;PrevaluationImage</title>
<path fill="none" stroke="#cd70db" d="M1086.39,-138.474C1093.25,-131.198 1100.89,-123.095 1107.88,-115.672"/>
<ellipse fill="none" stroke="#cd70db" cx="1083.53" cy="-141.501" rx="4.00002" ry="4.00002"/>
<polygon fill="#cd70db" stroke="#cd70db" points="1108.3,-115.232 1118.43,-111.043 1111.73,-111.594 1115.16,-107.956 1115.16,-107.956 1115.16,-107.956 1111.73,-111.594 1111.89,-104.869 1108.3,-115.232 1108.3,-115.232"/>
</g>
<!-- Prevaluation&#45;&gt;StockCar -->
<g id="edge23" class="edge"><title>Prevaluation&#45;&gt;StockCar</title>
<path fill="none" stroke="#ab98bf" d="M1025.5,-144.077C999.389,-132.932 965.38,-118.417 939.53,-107.383"/>
<ellipse fill="none" stroke="#ab98bf" cx="1029.46" cy="-145.767" rx="4.00002" ry="4.00002"/>
<polygon fill="#ab98bf" stroke="#ab98bf" points="939.252,-107.264 931.821,-99.1999 934.654,-105.302 930.055,-103.339 930.055,-103.339 930.055,-103.339 934.654,-105.302 928.288,-107.477 939.252,-107.264 939.252,-107.264"/>
</g>
<!-- Valuation -->
<g id="node26" class="node"><title>Valuation</title>
<ellipse fill="none" stroke="black" cx="1270.15" cy="-90" rx="43.9992" ry="18"/>
<text text-anchor="middle" x="1270.15" y="-85.8" font-family="Times,serif" font-size="14.00">Valuation</text>
</g>
<!-- Prevaluation&#45;&gt;Valuation -->
<g id="edge25" class="edge"><title>Prevaluation&#45;&gt;Valuation</title>
<path fill="none" stroke="#43030d" d="M1109.76,-145.768C1145.56,-133.542 1195.38,-116.529 1229.96,-104.722"/>
<ellipse fill="none" stroke="#43030d" cx="1105.58" cy="-147.193" rx="4.00001" ry="4.00001"/>
<ellipse fill="#43030d" stroke="#43030d" cx="1233.75" cy="-103.43" rx="4.00001" ry="4.00001"/>
</g>
<!-- StockCarImage -->
<g id="node20" class="node"><title>StockCarImage</title>
<ellipse fill="none" stroke="black" cx="901.147" cy="-18" rx="65.2304" ry="18"/>
<text text-anchor="middle" x="901.147" y="-13.8" font-family="Times,serif" font-size="14.00">StockCarImage</text>
</g>
<!-- StockCar&#45;&gt;StockCarImage -->
<g id="edge27" class="edge"><title>StockCar&#45;&gt;StockCarImage</title>
<path fill="none" stroke="#9dcb51" d="M901.147,-63.6398C901.147,-58.0629 901.147,-52.1319 901.147,-46.4761"/>
<ellipse fill="none" stroke="#9dcb51" cx="901.147" cy="-67.6966" rx="4" ry="4"/>
<polygon fill="#9dcb51" stroke="#9dcb51" points="901.147,-46.1043 905.647,-36.1043 901.147,-41.1043 901.147,-36.1043 901.147,-36.1043 901.147,-36.1043 901.147,-41.1043 896.647,-36.1044 901.147,-46.1043 901.147,-46.1043"/>
</g>
<!-- StockSpareImage -->
<g id="node23" class="node"><title>StockSpareImage</title>
<ellipse fill="none" stroke="black" cx="767.147" cy="-90" rx="72.4635" ry="18"/>
<text text-anchor="middle" x="767.147" y="-85.8" font-family="Times,serif" font-size="14.00">StockSpareImage</text>
</g>
<!-- StockSpare&#45;&gt;StockSpareImage -->
<g id="edge28" class="edge"><title>StockSpare&#45;&gt;StockSpareImage</title>
<path fill="none" stroke="#f2aa84" d="M804.677,-137.912C799.055,-130.885 792.852,-123.131 787.135,-115.985"/>
<ellipse fill="none" stroke="#f2aa84" cx="807.377" cy="-141.287" rx="4.00002" ry="4.00002"/>
<polygon fill="#f2aa84" stroke="#f2aa84" points="786.959,-115.765 784.226,-105.145 783.836,-111.861 780.712,-107.956 780.712,-107.956 780.712,-107.956 783.836,-111.861 777.198,-110.767 786.959,-115.765 786.959,-115.765"/>
</g>
<!-- User -->
<g id="node25" class="node"><title>User</title>
<ellipse fill="none" stroke="black" cx="462.147" cy="-396.5" rx="27" ry="18"/>
<text text-anchor="middle" x="462.147" y="-392.3" font-family="Times,serif" font-size="14.00">User</text>
</g>
<!-- Warehouse -->
<g id="node27" class="node"><title>Warehouse</title>
<ellipse fill="none" stroke="black" cx="823.147" cy="-234" rx="49.3546" ry="18"/>
<text text-anchor="middle" x="823.147" y="-229.8" font-family="Times,serif" font-size="14.00">Warehouse</text>
</g>
<!-- Warehouse&#45;&gt;StockCar -->
<g id="edge30" class="edge"><title>Warehouse&#45;&gt;StockCar</title>
<path fill="none" stroke="#3e712c" d="M852.342,-212.996C863.25,-204.102 874.768,-192.751 882.147,-180 893.063,-161.138 897.731,-136.766 899.716,-118.296"/>
<ellipse fill="none" stroke="#3e712c" cx="849.176" cy="-215.475" rx="4.00002" ry="4.00002"/>
<polygon fill="#3e712c" stroke="#3e712c" points="899.729,-118.151 905.084,-108.582 900.165,-113.17 900.601,-108.189 900.601,-108.189 900.601,-108.189 900.165,-113.17 896.119,-107.797 899.729,-118.151 899.729,-118.151"/>
</g>
<!-- Warehouse&#45;&gt;StockSpare -->
<g id="edge29" class="edge"><title>Warehouse&#45;&gt;StockSpare</title>
<path fill="none" stroke="#a1125b" d="M823.147,-207.64C823.147,-202.063 823.147,-196.132 823.147,-190.476"/>
<ellipse fill="none" stroke="#a1125b" cx="823.147" cy="-211.697" rx="4" ry="4"/>
<polygon fill="#a1125b" stroke="#a1125b" points="823.147,-190.104 827.647,-180.104 823.147,-185.104 823.147,-180.104 823.147,-180.104 823.147,-180.104 823.147,-185.104 818.647,-180.104 823.147,-190.104 823.147,-190.104"/>
</g>
</g>
</svg>
