<?xml version="1.0" encoding="UTF-8" standalone="no"?>
<!DOCTYPE svg PUBLIC "-//W3C//DTD SVG 1.1//EN"
 "http://www.w3.org/Graphics/SVG/1.1/DTD/svg11.dtd">
<!-- Generated by graphviz version 2.38.0 (20140413.2041)
 -->
<!-- Title: models_diagram Pages: 1 -->
<svg width="1015pt" height="1290pt"
 viewBox="0.00 0.00 1015.48 1290.00" xmlns="http://www.w3.org/2000/svg" xmlns:xlink="http://www.w3.org/1999/xlink">
<g id="graph0" class="graph" transform="scale(1 1) rotate(0) translate(4 1286)">
<title>models_diagram</title>
<polygon fill="white" stroke="none" points="-4,4 -4,-1286 1011.48,-1286 1011.48,4 -4,4"/>
<!-- _diagram_info -->
<g id="node1" class="node"><title>_diagram_info</title>
<text text-anchor="start" x="159.817" y="-1267.6" font-family="Times,serif" font-size="13.00">Models diagram</text>
<text text-anchor="start" x="159.817" y="-1254.6" font-family="Times,serif" font-size="13.00">Date: Nov 05 2014 &#45; 11:45</text>
<text text-anchor="start" x="159.817" y="-1241.6" font-family="Times,serif" font-size="13.00">Migration version: 20141103232822</text>
<text text-anchor="start" x="159.817" y="-1228.6" font-family="Times,serif" font-size="13.00">Generated by RailRoady 1.1.2</text>
<text text-anchor="start" x="159.817" y="-1215.6" font-family="Times,serif" font-size="13.00">http://railroady.prestonlee.com</text>
</g>
<!-- Car -->
<g id="node2" class="node"><title>Car</title>
<path fill="none" stroke="black" d="M313.644,-207.5C313.644,-207.5 456.889,-207.5 456.889,-207.5 462.889,-207.5 468.889,-213.5 468.889,-219.5 468.889,-219.5 468.889,-421.5 468.889,-421.5 468.889,-427.5 462.889,-433.5 456.889,-433.5 456.889,-433.5 313.644,-433.5 313.644,-433.5 307.644,-433.5 301.644,-427.5 301.644,-421.5 301.644,-421.5 301.644,-219.5 301.644,-219.5 301.644,-213.5 307.644,-207.5 313.644,-207.5"/>
<text text-anchor="middle" x="385.266" y="-418.3" font-family="Times,serif" font-size="14.00">Car</text>
<polyline fill="none" stroke="black" points="301.644,-411.5 468.889,-411.5 "/>
<text text-anchor="start" x="309.644" y="-396.3" font-family="Times,serif" font-size="14.00">id :integer</text>
<text text-anchor="start" x="309.644" y="-382.3" font-family="Times,serif" font-size="14.00">prevaluation_id :integer</text>
<text text-anchor="start" x="309.644" y="-368.3" font-family="Times,serif" font-size="14.00">generic_car_id :integer</text>
<text text-anchor="start" x="309.644" y="-354.3" font-family="Times,serif" font-size="14.00">warehouse_id :integer</text>
<text text-anchor="start" x="309.644" y="-340.3" font-family="Times,serif" font-size="14.00">color :string</text>
<text text-anchor="start" x="309.644" y="-326.3" font-family="Times,serif" font-size="14.00">door_number :integer</text>
<text text-anchor="start" x="309.644" y="-312.3" font-family="Times,serif" font-size="14.00">serie :string</text>
<text text-anchor="start" x="309.644" y="-298.3" font-family="Times,serif" font-size="14.00">motor :string</text>
<text text-anchor="start" x="309.644" y="-284.3" font-family="Times,serif" font-size="14.00">license_plates :string</text>
<text text-anchor="start" x="309.644" y="-270.3" font-family="Times,serif" font-size="14.00">inventory_description :text</text>
<text text-anchor="start" x="309.644" y="-256.3" font-family="Times,serif" font-size="14.00">special_equipment :text</text>
<text text-anchor="start" x="309.644" y="-242.3" font-family="Times,serif" font-size="14.00">economic_number :string</text>
<text text-anchor="start" x="309.644" y="-228.3" font-family="Times,serif" font-size="14.00">created_at :datetime</text>
<text text-anchor="start" x="309.644" y="-214.3" font-family="Times,serif" font-size="14.00">updated_at :datetime</text>
</g>
<!-- CarSpareAlloy -->
<g id="node3" class="node"><title>CarSpareAlloy</title>
<path fill="none" stroke="black" d="M36.3263,-28.5C36.3263,-28.5 170.206,-28.5 170.206,-28.5 176.206,-28.5 182.206,-34.5 182.206,-40.5 182.206,-40.5 182.206,-130.5 182.206,-130.5 182.206,-136.5 176.206,-142.5 170.206,-142.5 170.206,-142.5 36.3263,-142.5 36.3263,-142.5 30.3263,-142.5 24.3263,-136.5 24.3263,-130.5 24.3263,-130.5 24.3263,-40.5 24.3263,-40.5 24.3263,-34.5 30.3263,-28.5 36.3263,-28.5"/>
<text text-anchor="middle" x="103.266" y="-127.3" font-family="Times,serif" font-size="14.00">CarSpareAlloy</text>
<polyline fill="none" stroke="black" points="24.3263,-120.5 182.206,-120.5 "/>
<text text-anchor="start" x="32.3263" y="-105.3" font-family="Times,serif" font-size="14.00">id :integer</text>
<text text-anchor="start" x="32.3263" y="-91.3" font-family="Times,serif" font-size="14.00">generic_car_id :integer</text>
<text text-anchor="start" x="32.3263" y="-77.3" font-family="Times,serif" font-size="14.00">generic_spare_id :integer</text>
<text text-anchor="start" x="32.3263" y="-63.3" font-family="Times,serif" font-size="14.00">relation :string</text>
<text text-anchor="start" x="32.3263" y="-49.3" font-family="Times,serif" font-size="14.00">created_at :datetime</text>
<text text-anchor="start" x="32.3263" y="-35.3" font-family="Times,serif" font-size="14.00">updated_at :datetime</text>
</g>
<!-- GenericCar -->
<g id="node4" class="node"><title>GenericCar</title>
<path fill="none" stroke="black" d="M82.8161,-631.5C82.8161,-631.5 237.716,-631.5 237.716,-631.5 243.716,-631.5 249.716,-637.5 249.716,-643.5 249.716,-643.5 249.716,-999.5 249.716,-999.5 249.716,-1005.5 243.716,-1011.5 237.716,-1011.5 237.716,-1011.5 82.8161,-1011.5 82.8161,-1011.5 76.8161,-1011.5 70.8161,-1005.5 70.8161,-999.5 70.8161,-999.5 70.8161,-643.5 70.8161,-643.5 70.8161,-637.5 76.8161,-631.5 82.8161,-631.5"/>
<text text-anchor="middle" x="160.266" y="-996.3" font-family="Times,serif" font-size="14.00">GenericCar</text>
<polyline fill="none" stroke="black" points="70.8161,-989.5 249.716,-989.5 "/>
<text text-anchor="start" x="78.8161" y="-974.3" font-family="Times,serif" font-size="14.00">id :integer</text>
<text text-anchor="start" x="78.8161" y="-960.3" font-family="Times,serif" font-size="14.00">brand :string</text>
<text text-anchor="start" x="78.8161" y="-946.3" font-family="Times,serif" font-size="14.00">type_of_car :string</text>
<text text-anchor="start" x="78.8161" y="-932.3" font-family="Times,serif" font-size="14.00">year :integer</text>
<text text-anchor="start" x="78.8161" y="-918.3" font-family="Times,serif" font-size="14.00">generation :string</text>
<text text-anchor="start" x="78.8161" y="-904.3" font-family="Times,serif" font-size="14.00">model :string</text>
<text text-anchor="start" x="78.8161" y="-890.3" font-family="Times,serif" font-size="14.00">doors :integer</text>
<text text-anchor="start" x="78.8161" y="-876.3" font-family="Times,serif" font-size="14.00">created_at :datetime</text>
<text text-anchor="start" x="78.8161" y="-862.3" font-family="Times,serif" font-size="14.00">updated_at :datetime</text>
<text text-anchor="start" x="78.8161" y="-848.3" font-family="Times,serif" font-size="14.00">photo1_file_name :string</text>
<text text-anchor="start" x="78.8161" y="-834.3" font-family="Times,serif" font-size="14.00">photo1_content_type :string</text>
<text text-anchor="start" x="78.8161" y="-820.3" font-family="Times,serif" font-size="14.00">photo1_file_size :integer</text>
<text text-anchor="start" x="78.8161" y="-806.3" font-family="Times,serif" font-size="14.00">photo1_updated_at :datetime</text>
<text text-anchor="start" x="78.8161" y="-792.3" font-family="Times,serif" font-size="14.00">photo2_file_name :string</text>
<text text-anchor="start" x="78.8161" y="-778.3" font-family="Times,serif" font-size="14.00">photo2_content_type :string</text>
<text text-anchor="start" x="78.8161" y="-764.3" font-family="Times,serif" font-size="14.00">photo2_file_size :integer</text>
<text text-anchor="start" x="78.8161" y="-750.3" font-family="Times,serif" font-size="14.00">photo2_updated_at :datetime</text>
<text text-anchor="start" x="78.8161" y="-736.3" font-family="Times,serif" font-size="14.00">photo3_file_name :string</text>
<text text-anchor="start" x="78.8161" y="-722.3" font-family="Times,serif" font-size="14.00">photo3_content_type :string</text>
<text text-anchor="start" x="78.8161" y="-708.3" font-family="Times,serif" font-size="14.00">photo3_file_size :integer</text>
<text text-anchor="start" x="78.8161" y="-694.3" font-family="Times,serif" font-size="14.00">photo3_updated_at :datetime</text>
<text text-anchor="start" x="78.8161" y="-680.3" font-family="Times,serif" font-size="14.00">photo4_file_name :string</text>
<text text-anchor="start" x="78.8161" y="-666.3" font-family="Times,serif" font-size="14.00">photo4_content_type :string</text>
<text text-anchor="start" x="78.8161" y="-652.3" font-family="Times,serif" font-size="14.00">photo4_file_size :integer</text>
<text text-anchor="start" x="78.8161" y="-638.3" font-family="Times,serif" font-size="14.00">photo4_updated_at :datetime</text>
</g>
<!-- GenericCar&#45;&gt;Car -->
<g id="edge3" class="edge"><title>GenericCar&#45;&gt;Car</title>
<path fill="none" stroke="#84d4e6" d="M234.121,-623.701C254.575,-573.039 277.676,-519.006 301.266,-470 305.554,-461.093 310.151,-451.984 314.905,-442.877"/>
<ellipse fill="none" stroke="#84d4e6" cx="232.616" cy="-627.44" rx="4.00001" ry="4.00001"/>
<polygon fill="#84d4e6" stroke="#84d4e6" points="315.039,-442.624 323.685,-435.879 317.372,-438.202 319.705,-433.779 319.705,-433.779 319.705,-433.779 317.372,-438.202 315.725,-431.679 315.039,-442.624 315.039,-442.624"/>
</g>
<!-- GenericCar&#45;&gt;CarSpareAlloy -->
<g id="edge4" class="edge"><title>GenericCar&#45;&gt;CarSpareAlloy</title>
<path fill="none" stroke="#ec9093" d="M139.213,-623.299C133.184,-562.629 126.977,-495.605 122.266,-434 114.781,-336.099 109.142,-222.461 106.022,-152.517"/>
<ellipse fill="none" stroke="#ec9093" cx="139.626" cy="-627.451" rx="4" ry="4"/>
<polygon fill="#ec9093" stroke="#ec9093" points="106.022,-152.512 110.076,-142.323 105.801,-147.517 105.581,-142.522 105.581,-142.522 105.581,-142.522 105.801,-147.517 101.085,-142.721 106.022,-152.512 106.022,-152.512"/>
</g>
<!-- GenericSpare -->
<g id="node5" class="node"><title>GenericSpare</title>
<path fill="none" stroke="black" d="M142.975,-249.5C142.975,-249.5 253.558,-249.5 253.558,-249.5 259.558,-249.5 265.558,-255.5 265.558,-261.5 265.558,-261.5 265.558,-379.5 265.558,-379.5 265.558,-385.5 259.558,-391.5 253.558,-391.5 253.558,-391.5 142.975,-391.5 142.975,-391.5 136.975,-391.5 130.975,-385.5 130.975,-379.5 130.975,-379.5 130.975,-261.5 130.975,-261.5 130.975,-255.5 136.975,-249.5 142.975,-249.5"/>
<text text-anchor="middle" x="198.266" y="-376.3" font-family="Times,serif" font-size="14.00">GenericSpare</text>
<polyline fill="none" stroke="black" points="130.975,-369.5 265.558,-369.5 "/>
<text text-anchor="start" x="138.975" y="-354.3" font-family="Times,serif" font-size="14.00">id :integer</text>
<text text-anchor="start" x="138.975" y="-340.3" font-family="Times,serif" font-size="14.00">brand :string</text>
<text text-anchor="start" x="138.975" y="-326.3" font-family="Times,serif" font-size="14.00">type_of_spare :string</text>
<text text-anchor="start" x="138.975" y="-312.3" font-family="Times,serif" font-size="14.00">name :string</text>
<text text-anchor="start" x="138.975" y="-298.3" font-family="Times,serif" font-size="14.00">region :string</text>
<text text-anchor="start" x="138.975" y="-284.3" font-family="Times,serif" font-size="14.00">description :text</text>
<text text-anchor="start" x="138.975" y="-270.3" font-family="Times,serif" font-size="14.00">created_at :datetime</text>
<text text-anchor="start" x="138.975" y="-256.3" font-family="Times,serif" font-size="14.00">updated_at :datetime</text>
</g>
<!-- GenericCar&#45;&gt;GenericSpare -->
<g id="edge5" class="edge"><title>GenericCar&#45;&gt;GenericSpare</title>
<path fill="none" stroke="#b2efd6" d="M175.45,-621.112C181.299,-544.305 187.651,-460.889 192.165,-401.625"/>
<polygon fill="#b2efd6" stroke="#b2efd6" points="175.419,-621.523 170.173,-631.152 175.039,-626.508 174.66,-631.494 174.66,-631.494 174.66,-631.494 175.039,-626.508 179.147,-631.836 175.419,-621.523 175.419,-621.523"/>
<polygon fill="#b2efd6" stroke="#b2efd6" points="192.169,-401.56 197.416,-391.93 192.549,-396.574 192.929,-391.588 192.929,-391.588 192.929,-391.588 192.549,-396.574 188.442,-391.247 192.169,-401.56 192.169,-401.56"/>
</g>
<!-- GenericSpare&#45;&gt;CarSpareAlloy -->
<g id="edge8" class="edge"><title>GenericSpare&#45;&gt;CarSpareAlloy</title>
<path fill="none" stroke="#cb081d" d="M166.492,-241.57C154.665,-212.561 141.371,-179.957 130.036,-152.157"/>
<ellipse fill="none" stroke="#cb081d" cx="168.124" cy="-245.572" rx="4.00001" ry="4.00001"/>
<polygon fill="#cb081d" stroke="#cb081d" points="129.89,-151.798 130.281,-140.839 128.002,-147.168 126.114,-142.538 126.114,-142.538 126.114,-142.538 128.002,-147.168 121.947,-144.237 129.89,-151.798 129.89,-151.798"/>
</g>
<!-- GenericSpare&#45;&gt;GenericSpare -->
<g id="edge7" class="edge"><title>GenericSpare&#45;&gt;GenericSpare</title>
<path fill="none" stroke="#26b56d" d="M272.229,-355.703C279.172,-348.48 283.558,-336.746 283.558,-320.5 283.558,-305.554 279.846,-294.426 273.845,-287.117"/>
<ellipse fill="none" stroke="#26b56d" cx="268.984" cy="-358.243" rx="4.00002" ry="4.00002"/>
<polygon fill="#26b56d" stroke="#26b56d" points="273.446,-286.777 268.753,-276.866 269.64,-283.534 265.834,-280.291 265.834,-280.291 265.834,-280.291 269.64,-283.534 262.916,-283.716 273.446,-286.777 273.446,-286.777"/>
</g>
<!-- Spare -->
<g id="node8" class="node"><title>Spare</title>
<path fill="none" stroke="black" d="M439.261,-0.5C439.261,-0.5 555.272,-0.5 555.272,-0.5 561.272,-0.5 567.272,-6.5 567.272,-12.5 567.272,-12.5 567.272,-158.5 567.272,-158.5 567.272,-164.5 561.272,-170.5 555.272,-170.5 555.272,-170.5 439.261,-170.5 439.261,-170.5 433.261,-170.5 427.261,-164.5 427.261,-158.5 427.261,-158.5 427.261,-12.5 427.261,-12.5 427.261,-6.5 433.261,-0.5 439.261,-0.5"/>
<text text-anchor="middle" x="497.266" y="-155.3" font-family="Times,serif" font-size="14.00">Spare</text>
<polyline fill="none" stroke="black" points="427.261,-148.5 567.272,-148.5 "/>
<text text-anchor="start" x="435.261" y="-133.3" font-family="Times,serif" font-size="14.00">id :integer</text>
<text text-anchor="start" x="435.261" y="-119.3" font-family="Times,serif" font-size="14.00">car_id :integer</text>
<text text-anchor="start" x="435.261" y="-105.3" font-family="Times,serif" font-size="14.00">warehouse_id :integer</text>
<text text-anchor="start" x="435.261" y="-91.3" font-family="Times,serif" font-size="14.00">spare_id :integer</text>
<text text-anchor="start" x="435.261" y="-77.3" font-family="Times,serif" font-size="14.00">status :string</text>
<text text-anchor="start" x="435.261" y="-63.3" font-family="Times,serif" font-size="14.00">description :text</text>
<text text-anchor="start" x="435.261" y="-49.3" font-family="Times,serif" font-size="14.00">code :string</text>
<text text-anchor="start" x="435.261" y="-35.3" font-family="Times,serif" font-size="14.00">color :string</text>
<text text-anchor="start" x="435.261" y="-21.3" font-family="Times,serif" font-size="14.00">created_at :datetime</text>
<text text-anchor="start" x="435.261" y="-7.3" font-family="Times,serif" font-size="14.00">updated_at :datetime</text>
</g>
<!-- GenericSpare&#45;&gt;Spare -->
<g id="edge9" class="edge"><title>GenericSpare&#45;&gt;Spare</title>
<path fill="none" stroke="#17d625" d="M255.925,-243.122C267.256,-230.334 279.585,-217.748 292.266,-207 330.329,-174.74 378.144,-146.082 418.019,-124.816"/>
<ellipse fill="none" stroke="#17d625" cx="253.074" cy="-246.393" rx="4.00002" ry="4.00002"/>
<polygon fill="#17d625" stroke="#17d625" points="418.077,-124.785 429.022,-124.1 422.5,-122.453 426.922,-120.12 426.922,-120.12 426.922,-120.12 422.5,-122.453 424.823,-116.14 418.077,-124.785 418.077,-124.785"/>
</g>
<!-- Insured -->
<g id="node6" class="node"><title>Insured</title>
<path fill="none" stroke="black" d="M548.206,-249.5C548.206,-249.5 674.327,-249.5 674.327,-249.5 680.327,-249.5 686.327,-255.5 686.327,-261.5 686.327,-261.5 686.327,-379.5 686.327,-379.5 686.327,-385.5 680.327,-391.5 674.327,-391.5 674.327,-391.5 548.206,-391.5 548.206,-391.5 542.206,-391.5 536.206,-385.5 536.206,-379.5 536.206,-379.5 536.206,-261.5 536.206,-261.5 536.206,-255.5 542.206,-249.5 548.206,-249.5"/>
<text text-anchor="middle" x="611.266" y="-376.3" font-family="Times,serif" font-size="14.00">Insured</text>
<polyline fill="none" stroke="black" points="536.206,-369.5 686.327,-369.5 "/>
<text text-anchor="start" x="544.206" y="-354.3" font-family="Times,serif" font-size="14.00">id :integer</text>
<text text-anchor="start" x="544.206" y="-340.3" font-family="Times,serif" font-size="14.00">prevaluation_id :integer</text>
<text text-anchor="start" x="544.206" y="-326.3" font-family="Times,serif" font-size="14.00">third :boolean</text>
<text text-anchor="start" x="544.206" y="-312.3" font-family="Times,serif" font-size="14.00">name :string</text>
<text text-anchor="start" x="544.206" y="-298.3" font-family="Times,serif" font-size="14.00">telephone :integer</text>
<text text-anchor="start" x="544.206" y="-284.3" font-family="Times,serif" font-size="14.00">email :string</text>
<text text-anchor="start" x="544.206" y="-270.3" font-family="Times,serif" font-size="14.00">created_at :datetime</text>
<text text-anchor="start" x="544.206" y="-256.3" font-family="Times,serif" font-size="14.00">updated_at :datetime</text>
</g>
<!-- Prevaluation -->
<g id="node7" class="node"><title>Prevaluation</title>
<path fill="none" stroke="black" d="M544.816,-470.5C544.816,-470.5 699.716,-470.5 699.716,-470.5 705.716,-470.5 711.716,-476.5 711.716,-482.5 711.716,-482.5 711.716,-1160.5 711.716,-1160.5 711.716,-1166.5 705.716,-1172.5 699.716,-1172.5 699.716,-1172.5 544.816,-1172.5 544.816,-1172.5 538.816,-1172.5 532.816,-1166.5 532.816,-1160.5 532.816,-1160.5 532.816,-482.5 532.816,-482.5 532.816,-476.5 538.816,-470.5 544.816,-470.5"/>
<text text-anchor="middle" x="622.266" y="-1157.3" font-family="Times,serif" font-size="14.00">Prevaluation</text>
<polyline fill="none" stroke="black" points="532.816,-1150.5 711.716,-1150.5 "/>
<text text-anchor="start" x="540.816" y="-1135.3" font-family="Times,serif" font-size="14.00">id :integer</text>
<text text-anchor="start" x="540.816" y="-1121.3" font-family="Times,serif" font-size="14.00">number :string</text>
<text text-anchor="start" x="540.816" y="-1107.3" font-family="Times,serif" font-size="14.00">policy :string</text>
<text text-anchor="start" x="540.816" y="-1093.3" font-family="Times,serif" font-size="14.00">subsection :string</text>
<text text-anchor="start" x="540.816" y="-1079.3" font-family="Times,serif" font-size="14.00">expedition_date :date</text>
<text text-anchor="start" x="540.816" y="-1065.3" font-family="Times,serif" font-size="14.00">valuation_date :date</text>
<text text-anchor="start" x="540.816" y="-1051.3" font-family="Times,serif" font-size="14.00">deductible_value :float</text>
<text text-anchor="start" x="540.816" y="-1037.3" font-family="Times,serif" font-size="14.00">commercial_value :float</text>
<text text-anchor="start" x="540.816" y="-1023.3" font-family="Times,serif" font-size="14.00">requires_crane :boolean</text>
<text text-anchor="start" x="540.816" y="-1009.3" font-family="Times,serif" font-size="14.00">collection_status :boolean</text>
<text text-anchor="start" x="540.816" y="-995.3" font-family="Times,serif" font-size="14.00">special_conditions :string</text>
<text text-anchor="start" x="540.816" y="-981.3" font-family="Times,serif" font-size="14.00">third_insured :boolean</text>
<text text-anchor="start" x="540.816" y="-967.3" font-family="Times,serif" font-size="14.00">agent_name :string</text>
<text text-anchor="start" x="540.816" y="-953.3" font-family="Times,serif" font-size="14.00">comment :text</text>
<text text-anchor="start" x="540.816" y="-939.3" font-family="Times,serif" font-size="14.00">photo1_file_name :string</text>
<text text-anchor="start" x="540.816" y="-925.3" font-family="Times,serif" font-size="14.00">photo1_content_type :string</text>
<text text-anchor="start" x="540.816" y="-911.3" font-family="Times,serif" font-size="14.00">photo1_file_size :integer</text>
<text text-anchor="start" x="540.816" y="-897.3" font-family="Times,serif" font-size="14.00">photo1_updated_at :datetime</text>
<text text-anchor="start" x="540.816" y="-883.3" font-family="Times,serif" font-size="14.00">photo2_file_name :string</text>
<text text-anchor="start" x="540.816" y="-869.3" font-family="Times,serif" font-size="14.00">photo2_content_type :string</text>
<text text-anchor="start" x="540.816" y="-855.3" font-family="Times,serif" font-size="14.00">photo2_file_size :integer</text>
<text text-anchor="start" x="540.816" y="-841.3" font-family="Times,serif" font-size="14.00">photo2_updated_at :datetime</text>
<text text-anchor="start" x="540.816" y="-827.3" font-family="Times,serif" font-size="14.00">photo3_file_name :string</text>
<text text-anchor="start" x="540.816" y="-813.3" font-family="Times,serif" font-size="14.00">photo3_content_type :string</text>
<text text-anchor="start" x="540.816" y="-799.3" font-family="Times,serif" font-size="14.00">photo3_file_size :integer</text>
<text text-anchor="start" x="540.816" y="-785.3" font-family="Times,serif" font-size="14.00">photo3_updated_at :datetime</text>
<text text-anchor="start" x="540.816" y="-771.3" font-family="Times,serif" font-size="14.00">photo4_file_name :string</text>
<text text-anchor="start" x="540.816" y="-757.3" font-family="Times,serif" font-size="14.00">photo4_content_type :string</text>
<text text-anchor="start" x="540.816" y="-743.3" font-family="Times,serif" font-size="14.00">photo4_file_size :integer</text>
<text text-anchor="start" x="540.816" y="-729.3" font-family="Times,serif" font-size="14.00">photo4_updated_at :datetime</text>
<text text-anchor="start" x="540.816" y="-715.3" font-family="Times,serif" font-size="14.00">doc1_file_name :string</text>
<text text-anchor="start" x="540.816" y="-701.3" font-family="Times,serif" font-size="14.00">doc1_content_type :string</text>
<text text-anchor="start" x="540.816" y="-687.3" font-family="Times,serif" font-size="14.00">doc1_file_size :integer</text>
<text text-anchor="start" x="540.816" y="-673.3" font-family="Times,serif" font-size="14.00">doc1_updated_at :datetime</text>
<text text-anchor="start" x="540.816" y="-659.3" font-family="Times,serif" font-size="14.00">doc2_file_name :string</text>
<text text-anchor="start" x="540.816" y="-645.3" font-family="Times,serif" font-size="14.00">doc2_content_type :string</text>
<text text-anchor="start" x="540.816" y="-631.3" font-family="Times,serif" font-size="14.00">doc2_file_size :integer</text>
<text text-anchor="start" x="540.816" y="-617.3" font-family="Times,serif" font-size="14.00">doc2_updated_at :datetime</text>
<text text-anchor="start" x="540.816" y="-603.3" font-family="Times,serif" font-size="14.00">doc3_file_name :string</text>
<text text-anchor="start" x="540.816" y="-589.3" font-family="Times,serif" font-size="14.00">doc3_content_type :string</text>
<text text-anchor="start" x="540.816" y="-575.3" font-family="Times,serif" font-size="14.00">doc3_file_size :integer</text>
<text text-anchor="start" x="540.816" y="-561.3" font-family="Times,serif" font-size="14.00">doc3_updated_at :datetime</text>
<text text-anchor="start" x="540.816" y="-547.3" font-family="Times,serif" font-size="14.00">doc4_file_name :string</text>
<text text-anchor="start" x="540.816" y="-533.3" font-family="Times,serif" font-size="14.00">doc4_content_type :string</text>
<text text-anchor="start" x="540.816" y="-519.3" font-family="Times,serif" font-size="14.00">doc4_file_size :integer</text>
<text text-anchor="start" x="540.816" y="-505.3" font-family="Times,serif" font-size="14.00">doc4_updated_at :datetime</text>
<text text-anchor="start" x="540.816" y="-491.3" font-family="Times,serif" font-size="14.00">created_at :datetime</text>
<text text-anchor="start" x="540.816" y="-477.3" font-family="Times,serif" font-size="14.00">updated_at :datetime</text>
</g>
<!-- Prevaluation&#45;&gt;Car -->
<g id="edge12" class="edge"><title>Prevaluation&#45;&gt;Car</title>
<path fill="none" stroke="#b6111c" d="M529.467,-561.43C516.01,-530.145 501.512,-499.021 486.266,-470 481.486,-460.901 476.263,-451.683 470.789,-442.527"/>
<ellipse fill="none" stroke="#b6111c" cx="531.111" cy="-565.278" rx="4.00002" ry="4.00002"/>
<polygon fill="#b6111c" stroke="#b6111c" points="470.663,-442.321 469.316,-431.438 468.067,-438.048 465.47,-433.775 465.47,-433.775 465.47,-433.775 468.067,-438.048 461.625,-436.111 470.663,-442.321 470.663,-442.321"/>
</g>
<!-- Prevaluation&#45;&gt;Insured -->
<g id="edge13" class="edge"><title>Prevaluation&#45;&gt;Insured</title>
<path fill="none" stroke="#4c263d" d="M614.366,-462.109C613.887,-440.372 613.438,-420.006 613.038,-401.888"/>
<ellipse fill="none" stroke="#4c263d" cx="614.456" cy="-466.204" rx="4" ry="4"/>
<polygon fill="#4c263d" stroke="#4c263d" points="613.036,-401.772 617.314,-391.675 612.926,-396.773 612.815,-391.774 612.815,-391.774 612.815,-391.774 612.926,-396.773 608.316,-391.874 613.036,-401.772 613.036,-401.772"/>
</g>
<!-- Valuation -->
<g id="node10" class="node"><title>Valuation</title>
<path fill="none" stroke="black" d="M756.761,-270.5C756.761,-270.5 865.772,-270.5 865.772,-270.5 871.772,-270.5 877.772,-276.5 877.772,-282.5 877.772,-282.5 877.772,-358.5 877.772,-358.5 877.772,-364.5 871.772,-370.5 865.772,-370.5 865.772,-370.5 756.761,-370.5 756.761,-370.5 750.761,-370.5 744.761,-364.5 744.761,-358.5 744.761,-358.5 744.761,-282.5 744.761,-282.5 744.761,-276.5 750.761,-270.5 756.761,-270.5"/>
<text text-anchor="middle" x="811.266" y="-355.3" font-family="Times,serif" font-size="14.00">Valuation</text>
<polyline fill="none" stroke="black" points="744.761,-348.5 877.772,-348.5 "/>
<text text-anchor="start" x="752.761" y="-333.3" font-family="Times,serif" font-size="14.00">id :integer</text>
<text text-anchor="start" x="752.761" y="-319.3" font-family="Times,serif" font-size="14.00">client_code :string</text>
<text text-anchor="start" x="752.761" y="-305.3" font-family="Times,serif" font-size="14.00">edited_by :string</text>
<text text-anchor="start" x="752.761" y="-291.3" font-family="Times,serif" font-size="14.00">created_at :datetime</text>
<text text-anchor="start" x="752.761" y="-277.3" font-family="Times,serif" font-size="14.00">updated_at :datetime</text>
</g>
<!-- Prevaluation&#45;&gt;Valuation -->
<g id="edge14" class="edge"><title>Prevaluation&#45;&gt;Valuation</title>
<path fill="none" stroke="#a42532" d="M714.889,-485.073C716.981,-479.995 719.107,-474.968 721.266,-470 735.227,-437.886 755.047,-404.342 772.536,-377.277"/>
<ellipse fill="none" stroke="#a42532" cx="713.355" cy="-488.843" rx="4.00002" ry="4.00002"/>
<ellipse fill="#a42532" stroke="#a42532" cx="774.743" cy="-373.892" rx="4.00002" ry="4.00002"/>
</g>
<!-- Spare&#45;&gt;Spare -->
<g id="edge16" class="edge"><title>Spare&#45;&gt;Spare</title>
<path fill="none" stroke="#67c435" d="M573.817,-120.463C580.846,-113.222 585.272,-101.568 585.272,-85.5 585.272,-70.3965 581.361,-59.1925 575.054,-51.8878"/>
<ellipse fill="none" stroke="#67c435" cx="570.497" cy="-123.05" rx="4.00002" ry="4.00002"/>
<polygon fill="#67c435" stroke="#67c435" points="575.039,-51.8754 570.214,-42.028 571.19,-48.6836 567.341,-45.4919 567.341,-45.4919 567.341,-45.4919 571.19,-48.6836 564.469,-48.9558 575.039,-51.8754 575.039,-51.8754"/>
</g>
<!-- User -->
<g id="node9" class="node"><title>User</title>
<path fill="none" stroke="black" d="M742.202,-743.5C742.202,-743.5 868.33,-743.5 868.33,-743.5 874.33,-743.5 880.33,-749.5 880.33,-755.5 880.33,-755.5 880.33,-887.5 880.33,-887.5 880.33,-893.5 874.33,-899.5 868.33,-899.5 868.33,-899.5 742.202,-899.5 742.202,-899.5 736.202,-899.5 730.202,-893.5 730.202,-887.5 730.202,-887.5 730.202,-755.5 730.202,-755.5 730.202,-749.5 736.202,-743.5 742.202,-743.5"/>
<text text-anchor="middle" x="805.266" y="-884.3" font-family="Times,serif" font-size="14.00">User</text>
<polyline fill="none" stroke="black" points="730.202,-877.5 880.33,-877.5 "/>
<text text-anchor="start" x="738.202" y="-862.3" font-family="Times,serif" font-size="14.00">id :integer</text>
<text text-anchor="start" x="738.202" y="-848.3" font-family="Times,serif" font-size="14.00">name :string</text>
<text text-anchor="start" x="738.202" y="-834.3" font-family="Times,serif" font-size="14.00">email :string</text>
<text text-anchor="start" x="738.202" y="-820.3" font-family="Times,serif" font-size="14.00">username :string</text>
<text text-anchor="start" x="738.202" y="-806.3" font-family="Times,serif" font-size="14.00">privileges :string</text>
<text text-anchor="start" x="738.202" y="-792.3" font-family="Times,serif" font-size="14.00">created_at :datetime</text>
<text text-anchor="start" x="738.202" y="-778.3" font-family="Times,serif" font-size="14.00">updated_at :datetime</text>
<text text-anchor="start" x="738.202" y="-764.3" font-family="Times,serif" font-size="14.00">password_digest :string</text>
<text text-anchor="start" x="738.202" y="-750.3" font-family="Times,serif" font-size="14.00">remember_token :string</text>
</g>
<!-- Warehouse -->
<g id="node11" class="node"><title>Warehouse</title>
<path fill="none" stroke="black" d="M355.761,-764.5C355.761,-764.5 464.772,-764.5 464.772,-764.5 470.772,-764.5 476.772,-770.5 476.772,-776.5 476.772,-776.5 476.772,-866.5 476.772,-866.5 476.772,-872.5 470.772,-878.5 464.772,-878.5 464.772,-878.5 355.761,-878.5 355.761,-878.5 349.761,-878.5 343.761,-872.5 343.761,-866.5 343.761,-866.5 343.761,-776.5 343.761,-776.5 343.761,-770.5 349.761,-764.5 355.761,-764.5"/>
<text text-anchor="middle" x="410.266" y="-863.3" font-family="Times,serif" font-size="14.00">Warehouse</text>
<polyline fill="none" stroke="black" points="343.761,-856.5 476.772,-856.5 "/>
<text text-anchor="start" x="351.761" y="-841.3" font-family="Times,serif" font-size="14.00">id :integer</text>
<text text-anchor="start" x="351.761" y="-827.3" font-family="Times,serif" font-size="14.00">branch :string</text>
<text text-anchor="start" x="351.761" y="-813.3" font-family="Times,serif" font-size="14.00">location :string</text>
<text text-anchor="start" x="351.761" y="-799.3" font-family="Times,serif" font-size="14.00">geolocation :string</text>
<text text-anchor="start" x="351.761" y="-785.3" font-family="Times,serif" font-size="14.00">created_at :datetime</text>
<text text-anchor="start" x="351.761" y="-771.3" font-family="Times,serif" font-size="14.00">updated_at :datetime</text>
</g>
<!-- Warehouse&#45;&gt;Car -->
<g id="edge21" class="edge"><title>Warehouse&#45;&gt;Car</title>
<path fill="none" stroke="#6271d4" d="M407.037,-756.048C403.089,-677.247 396.324,-542.212 391.38,-443.54"/>
<ellipse fill="none" stroke="#6271d4" cx="407.247" cy="-760.233" rx="4" ry="4"/>
<polygon fill="#6271d4" stroke="#6271d4" points="391.378,-443.493 395.372,-433.281 391.128,-438.5 390.878,-433.506 390.878,-433.506 390.878,-433.506 391.128,-438.5 386.383,-433.731 391.378,-443.493 391.378,-443.493"/>
</g>
<!-- Warehouse&#45;&gt;Spare -->
<g id="edge20" class="edge"><title>Warehouse&#45;&gt;Spare</title>
<path fill="none" stroke="#719121" d="M423.978,-756.352C439.745,-679.951 465.136,-548.286 478.266,-434 488.077,-348.612 492.851,-250.82 495.157,-180.775"/>
<ellipse fill="none" stroke="#719121" cx="423.106" cy="-760.563" rx="4.00001" ry="4.00001"/>
<polygon fill="#719121" stroke="#719121" points="495.161,-180.642 499.977,-170.79 495.32,-175.644 495.479,-170.647 495.479,-170.647 495.479,-170.647 495.32,-175.644 490.982,-170.503 495.161,-180.642 495.161,-180.642"/>
</g>
<!-- ActiveRecord::Base -->
<g id="node12" class="node"><title>ActiveRecord::Base</title>
<ellipse fill="none" stroke="black" cx="458.266" cy="-1245.5" rx="81.1422" ry="18"/>
<text text-anchor="middle" x="458.266" y="-1241.3" font-family="Times,serif" font-size="14.00">ActiveRecord::Base</text>
</g>
<!-- ActiveRecord::Base&#45;&gt;Car -->
<g id="edge1" class="edge"><title>ActiveRecord::Base&#45;&gt;Car</title>
<path fill="none" stroke="black" d="M411.347,-1230.66C383.623,-1219.8 350.8,-1201.62 334.266,-1173 256.118,-1037.73 308.544,-624.09 334.266,-470 336.264,-458.035 339.108,-445.743 342.443,-433.599"/>
</g>
<!-- ActiveRecord::Base&#45;&gt;CarSpareAlloy -->
<g id="edge2" class="edge"><title>ActiveRecord::Base&#45;&gt;CarSpareAlloy</title>
<path fill="none" stroke="black" d="M424.797,-1229.08C407.885,-1221.9 386.845,-1213.89 367.266,-1209 301.051,-1192.46 107.609,-1224.01 62.2663,-1173 -74.0373,-1019.66 50.6969,-343.355 91.4392,-142.765"/>
</g>
<!-- ActiveRecord::Base&#45;&gt;GenericCar -->
<g id="edge6" class="edge"><title>ActiveRecord::Base&#45;&gt;GenericCar</title>
<path fill="none" stroke="black" d="M420.757,-1229.49C404.386,-1223.04 384.932,-1215.5 367.266,-1209 321.362,-1192.11 297.023,-1208.4 263.266,-1173 221.574,-1129.28 196.648,-1069.57 181.783,-1011.83"/>
</g>
<!-- ActiveRecord::Base&#45;&gt;GenericSpare -->
<g id="edge10" class="edge"><title>ActiveRecord::Base&#45;&gt;GenericSpare</title>
<path fill="none" stroke="black" d="M420.282,-1229.42C372.233,-1210.18 295.21,-1178.68 291.266,-1173 246.689,-1108.75 274.983,-546.389 258.266,-470 252.5,-443.652 242.489,-415.95 232.279,-391.704"/>
</g>
<!-- ActiveRecord::Base&#45;&gt;Insured -->
<g id="edge11" class="edge"><title>ActiveRecord::Base&#45;&gt;Insured</title>
<path fill="none" stroke="black" d="M466.778,-1227.36C473.379,-1213.17 482.083,-1192.28 486.266,-1173 552.603,-867.212 434.198,-769.657 524.266,-470 532.437,-442.815 546.524,-415.357 561.012,-391.571"/>
</g>
<!-- ActiveRecord::Base&#45;&gt;Prevaluation -->
<g id="edge15" class="edge"><title>ActiveRecord::Base&#45;&gt;Prevaluation</title>
<path fill="none" stroke="black" d="M476.095,-1227.85C489.681,-1214.26 507.927,-1193.95 519.266,-1173 523.945,-1164.35 528.435,-1155.47 532.742,-1146.41"/>
</g>
<!-- ActiveRecord::Base&#45;&gt;Spare -->
<g id="edge17" class="edge"><title>ActiveRecord::Base&#45;&gt;Spare</title>
<path fill="none" stroke="black" d="M539.675,-1243.99C658.258,-1241.33 869.598,-1228.67 917.266,-1173 1056.96,-1009.87 1024.36,-372.319 887.266,-207 808.553,-112.084 656.67,-90.5266 567.446,-86.4546"/>
</g>
<!-- ActiveRecord::Base&#45;&gt;User -->
<g id="edge18" class="edge"><title>ActiveRecord::Base&#45;&gt;User</title>
<path fill="none" stroke="black" d="M522.84,-1234.55C591.232,-1222.73 693.032,-1201.02 720.266,-1173 791.072,-1100.15 806.269,-978.849 807.905,-899.778"/>
</g>
<!-- ActiveRecord::Base&#45;&gt;Valuation -->
<g id="edge19" class="edge"><title>ActiveRecord::Base&#45;&gt;Valuation</title>
<path fill="none" stroke="black" d="M538.934,-1243.07C651.059,-1239.19 845.245,-1224.93 889.266,-1173 939.778,-1113.42 907.972,-545.838 889.266,-470 880.549,-434.658 861.748,-398.424 844.789,-370.596"/>
</g>
<!-- ActiveRecord::Base&#45;&gt;Warehouse -->
<g id="edge22" class="edge"><title>ActiveRecord::Base&#45;&gt;Warehouse</title>
<path fill="none" stroke="black" d="M456.325,-1227.43C449.687,-1169.07 427.692,-975.701 416.673,-878.83"/>
</g>
</g>
</svg>
