<?xml version="1.0" encoding="UTF-8" standalone="no"?>
<!DOCTYPE svg PUBLIC "-//W3C//DTD SVG 1.1//EN"
 "http://www.w3.org/Graphics/SVG/1.1/DTD/svg11.dtd">
<!-- Generated by graphviz version 2.38.0 (20140413.2041)
 -->
<!-- Title: models_diagram Pages: 1 -->
<svg width="1621pt" height="441pt"
 viewBox="0.00 0.00 1620.69 441.00" xmlns="http://www.w3.org/2000/svg" xmlns:xlink="http://www.w3.org/1999/xlink">
<g id="graph0" class="graph" transform="scale(1 1) rotate(0) translate(4 437)">
<title>models_diagram</title>
<polygon fill="white" stroke="none" points="-4,4 -4,-437 1616.69,-437 1616.69,4 -4,4"/>
<!-- _diagram_info -->
<g id="node1" class="node"><title>_diagram_info</title>
<text text-anchor="start" x="8" y="-418.6" font-family="Times,serif" font-size="13.00">Models diagram</text>
<text text-anchor="start" x="8" y="-405.6" font-family="Times,serif" font-size="13.00">Date: Feb 16 2015 &#45; 23:23</text>
<text text-anchor="start" x="8" y="-392.6" font-family="Times,serif" font-size="13.00">Migration version: 20150212192743</text>
<text text-anchor="start" x="8" y="-379.6" font-family="Times,serif" font-size="13.00">Generated by RailRoady 1.3.0</text>
<text text-anchor="start" x="8" y="-366.6" font-family="Times,serif" font-size="13.00">http://railroady.prestonlee.com</text>
</g>
<!-- Brand -->
<g id="node2" class="node"><title>Brand</title>
<ellipse fill="none" stroke="black" cx="954.688" cy="-396.5" rx="31.9393" ry="18"/>
<text text-anchor="middle" x="954.688" y="-392.3" font-family="Times,serif" font-size="14.00">Brand</text>
</g>
<!-- GenericCar -->
<g id="node7" class="node"><title>GenericCar</title>
<ellipse fill="none" stroke="black" cx="473.688" cy="-306" rx="50.7224" ry="18"/>
<text text-anchor="middle" x="473.688" y="-301.8" font-family="Times,serif" font-size="14.00">GenericCar</text>
</g>
<!-- Brand&#45;&gt;GenericCar -->
<g id="edge1" class="edge"><title>Brand&#45;&gt;GenericCar</title>
<path fill="none" stroke="#fe269d" d="M916.869,-388.542C831.964,-372.92 625.967,-335.018 527.647,-316.928"/>
<ellipse fill="none" stroke="#fe269d" cx="921.028" cy="-389.307" rx="4.00001" ry="4.00001"/>
<polygon fill="#fe269d" stroke="#fe269d" points="527.459,-316.893 518.438,-310.658 522.541,-315.989 517.624,-315.084 517.624,-315.084 517.624,-315.084 522.541,-315.989 516.809,-319.51 527.459,-316.893 527.459,-316.893"/>
</g>
<!-- ModelAcronym -->
<g id="node15" class="node"><title>ModelAcronym</title>
<ellipse fill="none" stroke="black" cx="1436.69" cy="-306" rx="66.6925" ry="18"/>
<text text-anchor="middle" x="1436.69" y="-301.8" font-family="Times,serif" font-size="14.00">ModelAcronym</text>
</g>
<!-- Brand&#45;&gt;ModelAcronym -->
<g id="edge2" class="edge"><title>Brand&#45;&gt;ModelAcronym</title>
<path fill="none" stroke="#5520e1" d="M974.228,-374.298C980.523,-368.726 987.902,-363.345 995.688,-360 1145.86,-295.471 1200.34,-350.117 1361.69,-324 1367.43,-323.071 1373.39,-321.965 1379.32,-320.771"/>
<ellipse fill="none" stroke="#5520e1" cx="971.229" cy="-377.122" rx="4.00002" ry="4.00002"/>
<polygon fill="#5520e1" stroke="#5520e1" points="1379.46,-320.742 1390.17,-323.096 1384.36,-319.717 1389.25,-318.692 1389.25,-318.692 1389.25,-318.692 1384.36,-319.717 1388.33,-314.287 1379.46,-320.742 1379.46,-320.742"/>
</g>
<!-- CarLikelihood -->
<g id="node3" class="node"><title>CarLikelihood</title>
<ellipse fill="none" stroke="black" cx="307.688" cy="-162" rx="61.8649" ry="18"/>
<text text-anchor="middle" x="307.688" y="-157.8" font-family="Times,serif" font-size="14.00">CarLikelihood</text>
</g>
<!-- Generation -->
<g id="node6" class="node"><title>Generation</title>
<ellipse fill="none" stroke="black" cx="358.688" cy="-90" rx="49.286" ry="18"/>
<text text-anchor="middle" x="358.688" y="-85.8" font-family="Times,serif" font-size="14.00">Generation</text>
</g>
<!-- CarLikelihood&#45;&gt;Generation -->
<g id="edge4" class="edge"><title>CarLikelihood&#45;&gt;Generation</title>
<path fill="none" stroke="#6c9b14" d="M326.003,-135.861C330.675,-129.449 335.696,-122.557 340.368,-116.145"/>
<polygon fill="#6c9b14" stroke="#6c9b14" points="325.922,-135.973 316.396,-141.405 322.978,-140.014 320.033,-144.055 320.033,-144.055 320.033,-144.055 322.978,-140.014 323.67,-146.705 325.922,-135.973 325.922,-135.973"/>
<polygon fill="#6c9b14" stroke="#6c9b14" points="340.567,-115.871 350.093,-110.439 343.511,-111.83 346.456,-107.789 346.456,-107.789 346.456,-107.789 343.511,-111.83 342.819,-105.139 340.567,-115.871 340.567,-115.871"/>
</g>
<!-- GenericCarGeneration -->
<g id="node8" class="node"><title>GenericCarGeneration</title>
<ellipse fill="none" stroke="black" cx="358.688" cy="-18" rx="90.2944" ry="18"/>
<text text-anchor="middle" x="358.688" y="-13.8" font-family="Times,serif" font-size="14.00">GenericCarGeneration</text>
</g>
<!-- CarLikelihood&#45;&gt;GenericCarGeneration -->
<g id="edge3" class="edge"><title>CarLikelihood&#45;&gt;GenericCarGeneration</title>
<path fill="none" stroke="#2a25cb" d="M299.499,-135.838C294.944,-117.397 291.796,-92.1697 300.688,-72 305.846,-60.2987 315.005,-50.0598 324.542,-41.7816"/>
<ellipse fill="none" stroke="#2a25cb" cx="300.607" cy="-139.929" rx="4.00001" ry="4.00001"/>
<polygon fill="#2a25cb" stroke="#2a25cb" points="324.785,-41.5852 335.391,-38.7999 328.674,-38.4425 332.563,-35.2999 332.563,-35.2999 332.563,-35.2999 328.674,-38.4425 329.734,-31.7998 324.785,-41.5852 324.785,-41.5852"/>
</g>
<!-- CarType -->
<g id="node4" class="node"><title>CarType</title>
<ellipse fill="none" stroke="black" cx="265.688" cy="-396.5" rx="40.3571" ry="18"/>
<text text-anchor="middle" x="265.688" y="-392.3" font-family="Times,serif" font-size="14.00">CarType</text>
</g>
<!-- CarType&#45;&gt;CarLikelihood -->
<g id="edge5" class="edge"><title>CarType&#45;&gt;CarLikelihood</title>
<path fill="none" stroke="#e8889e" d="M243.51,-373.579C210.79,-338.5 156.916,-268.374 190.688,-216 203.583,-196.002 226.057,-183.467 247.883,-175.648"/>
<ellipse fill="none" stroke="#e8889e" cx="246.589" cy="-376.813" rx="4.00002" ry="4.00002"/>
<polygon fill="#e8889e" stroke="#e8889e" points="248,-175.609 258.906,-176.751 252.748,-174.043 257.497,-172.477 257.497,-172.477 257.497,-172.477 252.748,-174.043 256.088,-168.204 248,-175.609 248,-175.609"/>
</g>
<!-- CarType&#45;&gt;GenericCar -->
<g id="edge7" class="edge"><title>CarType&#45;&gt;GenericCar</title>
<path fill="none" stroke="#af5628" d="M303.551,-379.39C340.124,-363.829 395.348,-340.332 432.883,-324.361"/>
<polygon fill="#af5628" stroke="#af5628" points="303.375,-379.465 292.411,-379.239 298.774,-381.422 294.173,-383.38 294.173,-383.38 294.173,-383.38 298.774,-381.422 295.935,-387.521 303.375,-379.465 303.375,-379.465"/>
<polygon fill="#af5628" stroke="#af5628" points="433.294,-324.187 444.258,-324.412 437.895,-322.229 442.496,-320.271 442.496,-320.271 442.496,-320.271 437.895,-322.229 440.734,-316.131 433.294,-324.187 433.294,-324.187"/>
</g>
<!-- TypeLikelihood -->
<g id="node26" class="node"><title>TypeLikelihood</title>
<ellipse fill="none" stroke="black" cx="265.688" cy="-234" rx="66.4333" ry="18"/>
<text text-anchor="middle" x="265.688" y="-229.8" font-family="Times,serif" font-size="14.00">TypeLikelihood</text>
</g>
<!-- CarType&#45;&gt;TypeLikelihood -->
<g id="edge6" class="edge"><title>CarType&#45;&gt;TypeLikelihood</title>
<path fill="none" stroke="#fecf39" d="M265.688,-370.079C265.688,-340.675 265.688,-292.455 265.688,-262.284"/>
<ellipse fill="none" stroke="#fecf39" cx="265.688" cy="-374.324" rx="4" ry="4"/>
<polygon fill="#fecf39" stroke="#fecf39" points="265.688,-262.053 270.188,-252.053 265.688,-257.053 265.688,-252.053 265.688,-252.053 265.688,-252.053 265.688,-257.053 261.188,-252.053 265.688,-262.053 265.688,-262.053"/>
</g>
<!-- FamilyAcronym -->
<g id="node5" class="node"><title>FamilyAcronym</title>
<ellipse fill="none" stroke="black" cx="570.688" cy="-162" rx="68.6305" ry="18"/>
<text text-anchor="middle" x="570.688" y="-157.8" font-family="Times,serif" font-size="14.00">FamilyAcronym</text>
</g>
<!-- Generation&#45;&gt;GenericCarGeneration -->
<g id="edge8" class="edge"><title>Generation&#45;&gt;GenericCarGeneration</title>
<path fill="none" stroke="#e1dfec" d="M358.688,-63.6398C358.688,-58.0629 358.688,-52.1319 358.688,-46.4761"/>
<ellipse fill="none" stroke="#e1dfec" cx="358.688" cy="-67.6966" rx="4" ry="4"/>
<polygon fill="#e1dfec" stroke="#e1dfec" points="358.688,-46.1043 363.188,-36.1043 358.688,-41.1043 358.688,-36.1043 358.688,-36.1043 358.688,-36.1043 358.688,-41.1043 354.188,-36.1044 358.688,-46.1043 358.688,-46.1043"/>
</g>
<!-- GenericCar&#45;&gt;CarLikelihood -->
<g id="edge15" class="edge"><title>GenericCar&#45;&gt;CarLikelihood</title>
<path fill="none" stroke="#c15604" d="M437.385,-287.213C420.222,-277.932 399.975,-265.666 383.688,-252 361.146,-233.086 339.787,-207.09 325.486,-188.077"/>
<ellipse fill="none" stroke="#c15604" cx="440.998" cy="-289.129" rx="4.00002" ry="4.00002"/>
<polygon fill="#c15604" stroke="#c15604" points="325.375,-187.926 323.052,-177.209 322.404,-183.905 319.433,-179.883 319.433,-179.883 319.433,-179.883 322.404,-183.905 315.813,-182.557 325.375,-187.926 325.375,-187.926"/>
</g>
<!-- GenericCar&#45;&gt;Generation -->
<g id="edge13" class="edge"><title>GenericCar&#45;&gt;Generation</title>
<path fill="none" stroke="#17f089" d="M447.095,-281.999C438.159,-273.276 428.692,-262.822 421.688,-252 417.848,-246.068 385.562,-161.73 368.762,-117.558"/>
<polygon fill="#17f089" stroke="#17f089" points="447.132,-282.033 451.327,-292.165 450.772,-285.461 454.412,-288.889 454.412,-288.889 454.412,-288.889 450.772,-285.461 457.497,-285.613 447.132,-282.033 447.132,-282.033"/>
<polygon fill="#17f089" stroke="#17f089" points="368.691,-117.371 369.345,-106.424 366.915,-112.697 365.138,-108.023 365.138,-108.023 365.138,-108.023 366.915,-112.697 360.932,-109.621 368.691,-117.371 368.691,-117.371"/>
</g>
<!-- GenericCar&#45;&gt;GenericCarGeneration -->
<g id="edge12" class="edge"><title>GenericCar&#45;&gt;GenericCarGeneration</title>
<path fill="none" stroke="#06e3fb" d="M469.405,-279.605C460.2,-226.852 437.661,-107.375 416.688,-72 409.936,-60.6124 399.968,-50.2415 390.191,-41.7532"/>
<ellipse fill="none" stroke="#06e3fb" cx="470.134" cy="-283.827" rx="4.00001" ry="4.00001"/>
<polygon fill="#06e3fb" stroke="#06e3fb" points="390.168,-41.7339 385.323,-31.8963 386.313,-38.5499 382.458,-35.3659 382.458,-35.3659 382.458,-35.3659 386.313,-38.5499 379.592,-38.8356 390.168,-41.7339 390.168,-41.7339"/>
</g>
<!-- GenericCarImage -->
<g id="node9" class="node"><title>GenericCarImage</title>
<ellipse fill="none" stroke="black" cx="1022.69" cy="-234" rx="72.9135" ry="18"/>
<text text-anchor="middle" x="1022.69" y="-229.8" font-family="Times,serif" font-size="14.00">GenericCarImage</text>
</g>
<!-- GenericCar&#45;&gt;GenericCarImage -->
<g id="edge11" class="edge"><title>GenericCar&#45;&gt;GenericCarImage</title>
<path fill="none" stroke="#13b725" d="M530.633,-300.229C618.82,-292.459 793.604,-275.542 940.688,-252 947,-250.99 953.563,-249.825 960.104,-248.589"/>
<ellipse fill="none" stroke="#13b725" cx="526.615" cy="-300.581" rx="4" ry="4"/>
<polygon fill="#13b725" stroke="#13b725" points="960.51,-248.51 971.186,-251.016 965.418,-247.554 970.326,-246.599 970.326,-246.599 970.326,-246.599 965.418,-247.554 969.466,-242.182 960.51,-248.51 960.51,-248.51"/>
</g>
<!-- GenericFamily -->
<g id="node10" class="node"><title>GenericFamily</title>
<ellipse fill="none" stroke="black" cx="606.688" cy="-234" rx="63.301" ry="18"/>
<text text-anchor="middle" x="606.688" y="-229.8" font-family="Times,serif" font-size="14.00">GenericFamily</text>
</g>
<!-- GenericCar&#45;&gt;GenericFamily -->
<g id="edge16" class="edge"><title>GenericCar&#45;&gt;GenericFamily</title>
<path fill="none" stroke="#6b7545" d="M509.985,-285.896C528.183,-276.318 550.212,-264.724 568.646,-255.022"/>
<polygon fill="#6b7545" stroke="#6b7545" points="509.772,-286.008 498.827,-286.683 505.348,-288.337 500.923,-290.666 500.923,-290.666 500.923,-290.666 505.348,-288.337 503.019,-294.648 509.772,-286.008 509.772,-286.008"/>
<polygon fill="#6b7545" stroke="#6b7545" points="568.796,-254.943 579.741,-254.268 573.221,-252.614 577.645,-250.285 577.645,-250.285 577.645,-250.285 573.221,-252.614 575.55,-246.303 568.796,-254.943 568.796,-254.943"/>
</g>
<!-- GenericFittable -->
<g id="node11" class="node"><title>GenericFittable</title>
<ellipse fill="none" stroke="black" cx="537.688" cy="-90" rx="65.2217" ry="18"/>
<text text-anchor="middle" x="537.688" y="-85.8" font-family="Times,serif" font-size="14.00">GenericFittable</text>
</g>
<!-- GenericCar&#45;&gt;GenericFittable -->
<g id="edge10" class="edge"><title>GenericCar&#45;&gt;GenericFittable</title>
<path fill="none" stroke="#a38c5b" d="M472.261,-279.562C471.394,-246.805 473.192,-188.77 492.688,-144 497.337,-133.324 504.872,-123.168 512.458,-114.656"/>
<ellipse fill="none" stroke="#a38c5b" cx="472.406" cy="-283.713" rx="4" ry="4"/>
<polygon fill="#a38c5b" stroke="#a38c5b" points="512.5,-114.612 522.633,-110.42 515.929,-110.973 519.358,-107.334 519.358,-107.334 519.358,-107.334 515.929,-110.973 516.083,-104.247 512.5,-114.612 512.5,-114.612"/>
</g>
<!-- StockCar -->
<g id="node21" class="node"><title>StockCar</title>
<ellipse fill="none" stroke="black" cx="1199.69" cy="-234" rx="43.0387" ry="18"/>
<text text-anchor="middle" x="1199.69" y="-229.8" font-family="Times,serif" font-size="14.00">StockCar</text>
</g>
<!-- GenericCar&#45;&gt;StockCar -->
<g id="edge9" class="edge"><title>GenericCar&#45;&gt;StockCar</title>
<path fill="none" stroke="#710d49" d="M531.859,-301.933C643.341,-295.653 894.667,-279.55 1104.69,-252 1119.94,-249.999 1136.47,-247.247 1151.4,-244.54"/>
<ellipse fill="none" stroke="#710d49" cx="527.749" cy="-302.163" rx="4" ry="4"/>
<polygon fill="#710d49" stroke="#710d49" points="1151.62,-244.5 1162.27,-247.107 1156.53,-243.591 1161.45,-242.682 1161.45,-242.682 1161.45,-242.682 1156.53,-243.591 1160.63,-238.257 1151.62,-244.5 1151.62,-244.5"/>
</g>
<!-- GenericCar&#45;&gt;TypeLikelihood -->
<g id="edge14" class="edge"><title>GenericCar&#45;&gt;TypeLikelihood</title>
<path fill="none" stroke="#fb52f0" d="M430.337,-290.411C396.748,-279.107 350.186,-263.437 315.145,-251.644"/>
<ellipse fill="none" stroke="#fb52f0" cx="434.14" cy="-291.691" rx="4.00001" ry="4.00001"/>
<polygon fill="#fb52f0" stroke="#fb52f0" points="315.065,-251.617 307.023,-244.163 310.326,-250.023 305.587,-248.428 305.587,-248.428 305.587,-248.428 310.326,-250.023 304.152,-252.693 315.065,-251.617 315.065,-251.617"/>
</g>
<!-- GenericFamily&#45;&gt;CarLikelihood -->
<g id="edge17" class="edge"><title>GenericFamily&#45;&gt;CarLikelihood</title>
<path fill="none" stroke="#e880f0" d="M551.517,-220.084C498.337,-207.634 418.234,-188.88 364.506,-176.302"/>
<ellipse fill="none" stroke="#e880f0" cx="555.745" cy="-221.074" rx="4.00001" ry="4.00001"/>
<polygon fill="#e880f0" stroke="#e880f0" points="364.198,-176.23 355.487,-169.569 359.329,-175.09 354.461,-173.95 354.461,-173.95 354.461,-173.95 359.329,-175.09 353.435,-178.332 364.198,-176.23 364.198,-176.23"/>
</g>
<!-- GenericFamily&#45;&gt;FamilyAcronym -->
<g id="edge20" class="edge"><title>GenericFamily&#45;&gt;FamilyAcronym</title>
<path fill="none" stroke="#4518e1" d="M594.256,-208.827C591.01,-202.515 587.495,-195.681 584.196,-189.266"/>
<ellipse fill="none" stroke="#4518e1" cx="596.144" cy="-212.498" rx="4.00002" ry="4.00002"/>
<polygon fill="#4518e1" stroke="#4518e1" points="584.146,-189.168 583.574,-178.217 581.859,-184.722 579.572,-180.275 579.572,-180.275 579.572,-180.275 581.859,-184.722 575.57,-182.333 584.146,-189.168 584.146,-189.168"/>
</g>
<!-- GenericSpare -->
<g id="node12" class="node"><title>GenericSpare</title>
<ellipse fill="none" stroke="black" cx="882.688" cy="-162" rx="58.4563" ry="18"/>
<text text-anchor="middle" x="882.688" y="-157.8" font-family="Times,serif" font-size="14.00">GenericSpare</text>
</g>
<!-- GenericFamily&#45;&gt;GenericSpare -->
<g id="edge19" class="edge"><title>GenericFamily&#45;&gt;GenericSpare</title>
<path fill="none" stroke="#f49d13" d="M662.002,-218.971C710.591,-206.648 780.843,-188.83 828.954,-176.628"/>
<polygon fill="#f49d13" stroke="#f49d13" points="661.957,-218.982 651.157,-217.079 657.11,-220.212 652.264,-221.441 652.264,-221.441 652.264,-221.441 657.11,-220.212 653.37,-225.803 661.957,-218.982 661.957,-218.982"/>
<polygon fill="#f49d13" stroke="#f49d13" points="829.176,-176.572 839.975,-178.475 834.022,-175.343 838.869,-174.113 838.869,-174.113 838.869,-174.113 834.022,-175.343 837.763,-169.752 829.176,-176.572 829.176,-176.572"/>
</g>
<!-- SpareLikelihood -->
<g id="node20" class="node"><title>SpareLikelihood</title>
<ellipse fill="none" stroke="black" cx="706.688" cy="-90" rx="69.0978" ry="18"/>
<text text-anchor="middle" x="706.688" y="-85.8" font-family="Times,serif" font-size="14.00">SpareLikelihood</text>
</g>
<!-- GenericFamily&#45;&gt;SpareLikelihood -->
<g id="edge18" class="edge"><title>GenericFamily&#45;&gt;SpareLikelihood</title>
<path fill="none" stroke="#387485" d="M625.853,-209.775C633.189,-200.64 641.513,-189.968 648.688,-180 663.642,-159.222 679.431,-134.811 690.753,-116.815"/>
<ellipse fill="none" stroke="#387485" cx="623.232" cy="-213.014" rx="4.00002" ry="4.00002"/>
<polygon fill="#387485" stroke="#387485" points="690.937,-116.522 700.054,-110.429 693.588,-112.282 696.239,-108.043 696.239,-108.043 696.239,-108.043 693.588,-112.282 692.423,-105.657 690.937,-116.522 690.937,-116.522"/>
</g>
<!-- StockFamily -->
<g id="node23" class="node"><title>StockFamily</title>
<ellipse fill="none" stroke="black" cx="750.688" cy="-162" rx="55.118" ry="18"/>
<text text-anchor="middle" x="750.688" y="-157.8" font-family="Times,serif" font-size="14.00">StockFamily</text>
</g>
<!-- GenericFamily&#45;&gt;StockFamily -->
<g id="edge21" class="edge"><title>GenericFamily&#45;&gt;StockFamily</title>
<path fill="none" stroke="#31b462" d="M644.438,-214.649C665.226,-204.544 690.981,-192.024 711.927,-181.842"/>
<ellipse fill="none" stroke="#31b462" cx="640.824" cy="-216.406" rx="4.00002" ry="4.00002"/>
<polygon fill="#31b462" stroke="#31b462" points="712.184,-181.717 723.145,-181.392 716.681,-179.531 721.178,-177.345 721.178,-177.345 721.178,-177.345 716.681,-179.531 719.211,-173.298 712.184,-181.717 712.184,-181.717"/>
</g>
<!-- GenericSpare&#45;&gt;GenericCar -->
<g id="edge23" class="edge"><title>GenericSpare&#45;&gt;GenericCar</title>
<path fill="none" stroke="#9d4a08" d="M843.969,-182.092C803.469,-201.537 737.698,-231.643 678.688,-252 627.803,-269.554 568.061,-284.366 526.241,-293.83"/>
<polygon fill="#9d4a08" stroke="#9d4a08" points="844.201,-181.98 855.163,-181.684 848.703,-179.806 853.206,-177.632 853.206,-177.632 853.206,-177.632 848.703,-179.806 851.249,-173.58 844.201,-181.98 844.201,-181.98"/>
<polygon fill="#9d4a08" stroke="#9d4a08" points="526.035,-293.876 515.294,-291.67 521.156,-294.969 516.277,-296.061 516.277,-296.061 516.277,-296.061 521.156,-294.969 517.26,-300.452 526.035,-293.876 526.035,-293.876"/>
</g>
<!-- GenericSpare&#45;&gt;GenericFittable -->
<g id="edge22" class="edge"><title>GenericSpare&#45;&gt;GenericFittable</title>
<path fill="none" stroke="#37b8cb" d="M831.798,-147.949C826.037,-146.569 820.243,-145.225 814.688,-144 794.01,-139.441 674.801,-116.844 599.66,-102.667"/>
<ellipse fill="none" stroke="#37b8cb" cx="835.719" cy="-148.9" rx="4.00001" ry="4.00001"/>
<polygon fill="#37b8cb" stroke="#37b8cb" points="599.645,-102.665 590.652,-96.3891 594.732,-101.738 589.818,-100.811 589.818,-100.811 589.818,-100.811 594.732,-101.738 588.984,-105.233 599.645,-102.665 599.645,-102.665"/>
</g>
<!-- GenericSpareImage -->
<g id="node13" class="node"><title>GenericSpareImage</title>
<ellipse fill="none" stroke="black" cx="882.688" cy="-90" rx="80.1472" ry="18"/>
<text text-anchor="middle" x="882.688" y="-85.8" font-family="Times,serif" font-size="14.00">GenericSpareImage</text>
</g>
<!-- GenericSpare&#45;&gt;GenericSpareImage -->
<g id="edge26" class="edge"><title>GenericSpare&#45;&gt;GenericSpareImage</title>
<path fill="none" stroke="#28b4a0" d="M882.688,-135.64C882.688,-130.063 882.688,-124.132 882.688,-118.476"/>
<ellipse fill="none" stroke="#28b4a0" cx="882.688" cy="-139.697" rx="4" ry="4"/>
<polygon fill="#28b4a0" stroke="#28b4a0" points="882.688,-118.104 887.188,-108.104 882.688,-113.104 882.688,-108.104 882.688,-108.104 882.688,-108.104 882.688,-113.104 878.188,-108.104 882.688,-118.104 882.688,-118.104"/>
</g>
<!-- GenericSpare&#45;&gt;SpareLikelihood -->
<g id="edge24" class="edge"><title>GenericSpare&#45;&gt;SpareLikelihood</title>
<path fill="none" stroke="#901bad" d="M840.587,-144.255C813.903,-133.642 779.398,-119.919 752.099,-109.061"/>
<ellipse fill="none" stroke="#901bad" cx="844.619" cy="-145.859" rx="4.00001" ry="4.00001"/>
<polygon fill="#901bad" stroke="#901bad" points="752.061,-109.046 744.432,-101.169 747.415,-107.198 742.769,-105.35 742.769,-105.35 742.769,-105.35 747.415,-107.198 741.105,-109.532 752.061,-109.046 752.061,-109.046"/>
</g>
<!-- StockSpare -->
<g id="node24" class="node"><title>StockSpare</title>
<ellipse fill="none" stroke="black" cx="1079.69" cy="-90" rx="50.2723" ry="18"/>
<text text-anchor="middle" x="1079.69" y="-85.8" font-family="Times,serif" font-size="14.00">StockSpare</text>
</g>
<!-- GenericSpare&#45;&gt;StockSpare -->
<g id="edge25" class="edge"><title>GenericSpare&#45;&gt;StockSpare</title>
<path fill="none" stroke="#0839cb" d="M927.148,-145.202C959.569,-133.682 1003.3,-118.142 1035.63,-106.655"/>
<ellipse fill="none" stroke="#0839cb" cx="923.049" cy="-146.658" rx="4.00001" ry="4.00001"/>
<polygon fill="#0839cb" stroke="#0839cb" points="1035.85,-106.578 1046.78,-107.47 1040.56,-104.903 1045.27,-103.229 1045.27,-103.229 1045.27,-103.229 1040.56,-104.903 1043.76,-98.9891 1035.85,-106.578 1035.85,-106.578"/>
</g>
<!-- Insured -->
<g id="node14" class="node"><title>Insured</title>
<ellipse fill="none" stroke="black" cx="1297.69" cy="-234" rx="36.7576" ry="18"/>
<text text-anchor="middle" x="1297.69" y="-229.8" font-family="Times,serif" font-size="14.00">Insured</text>
</g>
<!-- MoldComponent -->
<g id="node16" class="node"><title>MoldComponent</title>
<ellipse fill="none" stroke="black" cx="1029.69" cy="-162" rx="70.5772" ry="18"/>
<text text-anchor="middle" x="1029.69" y="-157.8" font-family="Times,serif" font-size="14.00">MoldComponent</text>
</g>
<!-- MoldSpare -->
<g id="node17" class="node"><title>MoldSpare</title>
<ellipse fill="none" stroke="black" cx="882.688" cy="-234" rx="49.3119" ry="18"/>
<text text-anchor="middle" x="882.688" y="-229.8" font-family="Times,serif" font-size="14.00">MoldSpare</text>
</g>
<!-- MoldSpare&#45;&gt;GenericSpare -->
<g id="edge27" class="edge"><title>MoldSpare&#45;&gt;GenericSpare</title>
<path fill="none" stroke="#8a1775" d="M882.688,-207.64C882.688,-202.063 882.688,-196.132 882.688,-190.476"/>
<ellipse fill="none" stroke="#8a1775" cx="882.688" cy="-211.697" rx="4" ry="4"/>
<polygon fill="#8a1775" stroke="#8a1775" points="882.688,-190.104 887.188,-180.104 882.688,-185.104 882.688,-180.104 882.688,-180.104 882.688,-180.104 882.688,-185.104 878.188,-180.104 882.688,-190.104 882.688,-190.104"/>
</g>
<!-- MoldSpare&#45;&gt;MoldComponent -->
<g id="edge28" class="edge"><title>MoldSpare&#45;&gt;MoldComponent</title>
<path fill="none" stroke="#125141" d="M918.658,-215.872C939.902,-205.755 966.865,-192.916 988.899,-182.423"/>
<ellipse fill="none" stroke="#125141" cx="914.991" cy="-217.617" rx="4.00002" ry="4.00002"/>
<polygon fill="#125141" stroke="#125141" points="988.981,-182.384 999.945,-182.147 993.496,-180.234 998.01,-178.085 998.01,-178.085 998.01,-178.085 993.496,-180.234 996.075,-174.022 988.981,-182.384 988.981,-182.384"/>
</g>
<!-- Prevaluation -->
<g id="node18" class="node"><title>Prevaluation</title>
<ellipse fill="none" stroke="black" cx="1297.69" cy="-306" rx="54.6076" ry="18"/>
<text text-anchor="middle" x="1297.69" y="-301.8" font-family="Times,serif" font-size="14.00">Prevaluation</text>
</g>
<!-- Prevaluation&#45;&gt;Insured -->
<g id="edge30" class="edge"><title>Prevaluation&#45;&gt;Insured</title>
<path fill="none" stroke="#6998d2" d="M1297.69,-279.64C1297.69,-274.063 1297.69,-268.132 1297.69,-262.476"/>
<ellipse fill="none" stroke="#6998d2" cx="1297.69" cy="-283.697" rx="4" ry="4"/>
<polygon fill="#6998d2" stroke="#6998d2" points="1297.69,-262.104 1302.19,-252.104 1297.69,-257.104 1297.69,-252.104 1297.69,-252.104 1297.69,-252.104 1297.69,-257.104 1293.19,-252.104 1297.69,-262.104 1297.69,-262.104"/>
</g>
<!-- PrevaluationImage -->
<g id="node19" class="node"><title>PrevaluationImage</title>
<ellipse fill="none" stroke="black" cx="1429.69" cy="-234" rx="76.7985" ry="18"/>
<text text-anchor="middle" x="1429.69" y="-229.8" font-family="Times,serif" font-size="14.00">PrevaluationImage</text>
</g>
<!-- Prevaluation&#45;&gt;PrevaluationImage -->
<g id="edge32" class="edge"><title>Prevaluation&#45;&gt;PrevaluationImage</title>
<path fill="none" stroke="#171d8e" d="M1332.56,-286.505C1350.59,-276.945 1372.64,-265.254 1391.17,-255.428"/>
<ellipse fill="none" stroke="#171d8e" cx="1328.89" cy="-288.452" rx="4.00002" ry="4.00002"/>
<polygon fill="#171d8e" stroke="#171d8e" points="1391.39,-255.312 1402.33,-254.603 1395.8,-252.97 1400.22,-250.627 1400.22,-250.627 1400.22,-250.627 1395.8,-252.97 1398.11,-246.651 1391.39,-255.312 1391.39,-255.312"/>
</g>
<!-- Prevaluation&#45;&gt;StockCar -->
<g id="edge29" class="edge"><title>Prevaluation&#45;&gt;StockCar</title>
<path fill="none" stroke="#2b62a9" d="M1269.09,-284.572C1256.51,-275.588 1241.75,-265.046 1229.09,-255.999"/>
<ellipse fill="none" stroke="#2b62a9" cx="1272.68" cy="-287.14" rx="4.00002" ry="4.00002"/>
<polygon fill="#2b62a9" stroke="#2b62a9" points="1228.84,-255.824 1223.32,-246.35 1224.77,-252.918 1220.7,-250.011 1220.7,-250.011 1220.7,-250.011 1224.77,-252.918 1218.09,-253.673 1228.84,-255.824 1228.84,-255.824"/>
</g>
<!-- Valuation -->
<g id="node28" class="node"><title>Valuation</title>
<ellipse fill="none" stroke="black" cx="1568.69" cy="-234" rx="43.9992" ry="18"/>
<text text-anchor="middle" x="1568.69" y="-229.8" font-family="Times,serif" font-size="14.00">Valuation</text>
</g>
<!-- Prevaluation&#45;&gt;Valuation -->
<g id="edge31" class="edge"><title>Prevaluation&#45;&gt;Valuation</title>
<path fill="none" stroke="#9a4a5b" d="M1346.39,-291.676C1351.21,-290.41 1356.04,-289.166 1360.69,-288 1429.28,-270.785 1447.51,-270.816 1515.69,-252 1519.66,-250.903 1523.78,-249.7 1527.89,-248.456"/>
<ellipse fill="none" stroke="#9a4a5b" cx="1342.17" cy="-292.792" rx="4.00001" ry="4.00001"/>
<ellipse fill="#9a4a5b" stroke="#9a4a5b" cx="1531.91" cy="-247.213" rx="4.00001" ry="4.00001"/>
</g>
<!-- StockCarImage -->
<g id="node22" class="node"><title>StockCarImage</title>
<ellipse fill="none" stroke="black" cx="1221.69" cy="-162" rx="65.2304" ry="18"/>
<text text-anchor="middle" x="1221.69" y="-157.8" font-family="Times,serif" font-size="14.00">StockCarImage</text>
</g>
<!-- StockCar&#45;&gt;StockCarImage -->
<g id="edge33" class="edge"><title>StockCar&#45;&gt;StockCarImage</title>
<path fill="none" stroke="#9a26f8" d="M1207.46,-208.267C1209.32,-202.34 1211.32,-195.981 1213.22,-189.959"/>
<ellipse fill="none" stroke="#9a26f8" cx="1206.21" cy="-212.239" rx="4.00001" ry="4.00001"/>
<polygon fill="#9a26f8" stroke="#9a26f8" points="1213.26,-189.815 1220.55,-181.625 1214.76,-185.045 1216.26,-180.275 1216.26,-180.275 1216.26,-180.275 1214.76,-185.045 1211.97,-178.926 1213.26,-189.815 1213.26,-189.815"/>
</g>
<!-- StockSpareImage -->
<g id="node25" class="node"><title>StockSpareImage</title>
<ellipse fill="none" stroke="black" cx="1079.69" cy="-18" rx="72.4635" ry="18"/>
<text text-anchor="middle" x="1079.69" y="-13.8" font-family="Times,serif" font-size="14.00">StockSpareImage</text>
</g>
<!-- StockSpare&#45;&gt;StockSpareImage -->
<g id="edge34" class="edge"><title>StockSpare&#45;&gt;StockSpareImage</title>
<path fill="none" stroke="#dd5ecd" d="M1079.69,-63.6398C1079.69,-58.0629 1079.69,-52.1319 1079.69,-46.4761"/>
<ellipse fill="none" stroke="#dd5ecd" cx="1079.69" cy="-67.6966" rx="4" ry="4"/>
<polygon fill="#dd5ecd" stroke="#dd5ecd" points="1079.69,-46.1043 1084.19,-36.1043 1079.69,-41.1043 1079.69,-36.1043 1079.69,-36.1043 1079.69,-36.1043 1079.69,-41.1043 1075.19,-36.1044 1079.69,-46.1043 1079.69,-46.1043"/>
</g>
<!-- User -->
<g id="node27" class="node"><title>User</title>
<ellipse fill="none" stroke="black" cx="1031.69" cy="-396.5" rx="27" ry="18"/>
<text text-anchor="middle" x="1031.69" y="-392.3" font-family="Times,serif" font-size="14.00">User</text>
</g>
<!-- Warehouse -->
<g id="node29" class="node"><title>Warehouse</title>
<ellipse fill="none" stroke="black" cx="1151.69" cy="-306" rx="49.3546" ry="18"/>
<text text-anchor="middle" x="1151.69" y="-301.8" font-family="Times,serif" font-size="14.00">Warehouse</text>
</g>
<!-- Warehouse&#45;&gt;StockCar -->
<g id="edge36" class="edge"><title>Warehouse&#45;&gt;StockCar</title>
<path fill="none" stroke="#853472" d="M1167.59,-281.812C1172.38,-274.831 1177.65,-267.138 1182.52,-260.042"/>
<ellipse fill="none" stroke="#853472" cx="1165.33" cy="-285.112" rx="4.00002" ry="4.00002"/>
<polygon fill="#853472" stroke="#853472" points="1182.74,-259.717 1192.11,-254.015 1185.57,-255.594 1188.39,-251.47 1188.39,-251.47 1188.39,-251.47 1185.57,-255.594 1184.68,-248.925 1182.74,-259.717 1182.74,-259.717"/>
</g>
<!-- Warehouse&#45;&gt;StockSpare -->
<g id="edge35" class="edge"><title>Warehouse&#45;&gt;StockSpare</title>
<path fill="none" stroke="#2e772b" d="M1147.18,-279.571C1140.98,-247.278 1128.42,-190.201 1109.69,-144 1105.9,-134.645 1100.76,-124.897 1095.81,-116.35"/>
<ellipse fill="none" stroke="#2e772b" cx="1147.95" cy="-283.678" rx="4.00001" ry="4.00001"/>
<polygon fill="#2e772b" stroke="#2e772b" points="1095.72,-116.201 1094.44,-105.31 1093.15,-111.911 1090.58,-107.621 1090.58,-107.621 1090.58,-107.621 1093.15,-111.911 1086.72,-109.933 1095.72,-116.201 1095.72,-116.201"/>
</g>
</g>
</svg>
