<?xml version="1.0" encoding="UTF-8" standalone="no"?>
<!DOCTYPE svg PUBLIC "-//W3C//DTD SVG 1.1//EN"
 "http://www.w3.org/Graphics/SVG/1.1/DTD/svg11.dtd">
<!-- Generated by graphviz version 2.38.0 (20140413.2041)
 -->
<!-- Title: models_diagram Pages: 1 -->
<svg width="1798pt" height="1413pt"
 viewBox="0.00 0.00 1798.22 1413.00" xmlns="http://www.w3.org/2000/svg" xmlns:xlink="http://www.w3.org/1999/xlink">
<g id="graph0" class="graph" transform="scale(1 1) rotate(0) translate(4 1409)">
<title>models_diagram</title>
<polygon fill="white" stroke="none" points="-4,4 -4,-1409 1794.22,-1409 1794.22,4 -4,4"/>
<!-- _diagram_info -->
<g id="node1" class="node"><title>_diagram_info</title>
<text text-anchor="start" x="54.0281" y="-1348.6" font-family="Times,serif" font-size="13.00">Models diagram</text>
<text text-anchor="start" x="54.0281" y="-1335.6" font-family="Times,serif" font-size="13.00">Date: Mar 09 2015 &#45; 20:08</text>
<text text-anchor="start" x="54.0281" y="-1322.6" font-family="Times,serif" font-size="13.00">Migration version: 20150310020100</text>
<text text-anchor="start" x="54.0281" y="-1309.6" font-family="Times,serif" font-size="13.00">Generated by RailRoady 1.3.0</text>
<text text-anchor="start" x="54.0281" y="-1296.6" font-family="Times,serif" font-size="13.00">http://railroady.prestonlee.com</text>
</g>
<!-- Brand -->
<g id="node2" class="node"><title>Brand</title>
<path fill="none" stroke="black" d="M283.21,-1276.5C283.21,-1276.5 392.221,-1276.5 392.221,-1276.5 398.221,-1276.5 404.221,-1282.5 404.221,-1288.5 404.221,-1288.5 404.221,-1364.5 404.221,-1364.5 404.221,-1370.5 398.221,-1376.5 392.221,-1376.5 392.221,-1376.5 283.21,-1376.5 283.21,-1376.5 277.21,-1376.5 271.21,-1370.5 271.21,-1364.5 271.21,-1364.5 271.21,-1288.5 271.21,-1288.5 271.21,-1282.5 277.21,-1276.5 283.21,-1276.5"/>
<text text-anchor="middle" x="337.716" y="-1361.3" font-family="Times,serif" font-size="14.00">Brand</text>
<polyline fill="none" stroke="black" points="271.21,-1354.5 404.221,-1354.5 "/>
<text text-anchor="start" x="279.21" y="-1339.3" font-family="Times,serif" font-size="14.00">id :integer</text>
<text text-anchor="start" x="279.21" y="-1325.3" font-family="Times,serif" font-size="14.00">name :string</text>
<text text-anchor="start" x="279.21" y="-1311.3" font-family="Times,serif" font-size="14.00">acronym :string</text>
<text text-anchor="start" x="279.21" y="-1297.3" font-family="Times,serif" font-size="14.00">created_at :datetime</text>
<text text-anchor="start" x="279.21" y="-1283.3" font-family="Times,serif" font-size="14.00">updated_at :datetime</text>
</g>
<!-- ModelAcronym -->
<g id="node14" class="node"><title>ModelAcronym</title>
<path fill="none" stroke="black" d="M283.21,-1096.5C283.21,-1096.5 392.221,-1096.5 392.221,-1096.5 398.221,-1096.5 404.221,-1102.5 404.221,-1108.5 404.221,-1108.5 404.221,-1198.5 404.221,-1198.5 404.221,-1204.5 398.221,-1210.5 392.221,-1210.5 392.221,-1210.5 283.21,-1210.5 283.21,-1210.5 277.21,-1210.5 271.21,-1204.5 271.21,-1198.5 271.21,-1198.5 271.21,-1108.5 271.21,-1108.5 271.21,-1102.5 277.21,-1096.5 283.21,-1096.5"/>
<text text-anchor="middle" x="337.716" y="-1195.3" font-family="Times,serif" font-size="14.00">ModelAcronym</text>
<polyline fill="none" stroke="black" points="271.21,-1188.5 404.221,-1188.5 "/>
<text text-anchor="start" x="279.21" y="-1173.3" font-family="Times,serif" font-size="14.00">id :integer</text>
<text text-anchor="start" x="279.21" y="-1159.3" font-family="Times,serif" font-size="14.00">brand_id :integer</text>
<text text-anchor="start" x="279.21" y="-1145.3" font-family="Times,serif" font-size="14.00">initials :string</text>
<text text-anchor="start" x="279.21" y="-1131.3" font-family="Times,serif" font-size="14.00">model :string</text>
<text text-anchor="start" x="279.21" y="-1117.3" font-family="Times,serif" font-size="14.00">created_at :datetime</text>
<text text-anchor="start" x="279.21" y="-1103.3" font-family="Times,serif" font-size="14.00">updated_at :datetime</text>
</g>
<!-- Brand&#45;&gt;ModelAcronym -->
<g id="edge1" class="edge"><title>Brand&#45;&gt;ModelAcronym</title>
<path fill="none" stroke="#e9432f" d="M337.716,-1268.4C337.716,-1253.17 337.716,-1236.58 337.716,-1220.9"/>
<ellipse fill="none" stroke="#e9432f" cx="337.716" cy="-1272.5" rx="4" ry="4"/>
<polygon fill="#e9432f" stroke="#e9432f" points="337.716,-1220.74 342.216,-1210.74 337.716,-1215.74 337.716,-1210.74 337.716,-1210.74 337.716,-1210.74 337.716,-1215.74 333.216,-1210.74 337.716,-1220.74 337.716,-1220.74"/>
</g>
<!-- CarType -->
<g id="node3" class="node"><title>CarType</title>
<path fill="none" stroke="black" d="M455.21,-1103.5C455.21,-1103.5 564.221,-1103.5 564.221,-1103.5 570.221,-1103.5 576.221,-1109.5 576.221,-1115.5 576.221,-1115.5 576.221,-1191.5 576.221,-1191.5 576.221,-1197.5 570.221,-1203.5 564.221,-1203.5 564.221,-1203.5 455.21,-1203.5 455.21,-1203.5 449.21,-1203.5 443.21,-1197.5 443.21,-1191.5 443.21,-1191.5 443.21,-1115.5 443.21,-1115.5 443.21,-1109.5 449.21,-1103.5 455.21,-1103.5"/>
<text text-anchor="middle" x="509.716" y="-1188.3" font-family="Times,serif" font-size="14.00">CarType</text>
<polyline fill="none" stroke="black" points="443.21,-1181.5 576.221,-1181.5 "/>
<text text-anchor="start" x="451.21" y="-1166.3" font-family="Times,serif" font-size="14.00">id :integer</text>
<text text-anchor="start" x="451.21" y="-1152.3" font-family="Times,serif" font-size="14.00">name :string</text>
<text text-anchor="start" x="451.21" y="-1138.3" font-family="Times,serif" font-size="14.00">doors :string</text>
<text text-anchor="start" x="451.21" y="-1124.3" font-family="Times,serif" font-size="14.00">created_at :datetime</text>
<text text-anchor="start" x="451.21" y="-1110.3" font-family="Times,serif" font-size="14.00">updated_at :datetime</text>
</g>
<!-- GenericCar -->
<g id="node6" class="node"><title>GenericCar</title>
<path fill="none" stroke="black" d="M258.321,-846.5C258.321,-846.5 417.111,-846.5 417.111,-846.5 423.111,-846.5 429.111,-852.5 429.111,-858.5 429.111,-858.5 429.111,-1004.5 429.111,-1004.5 429.111,-1010.5 423.111,-1016.5 417.111,-1016.5 417.111,-1016.5 258.321,-1016.5 258.321,-1016.5 252.321,-1016.5 246.321,-1010.5 246.321,-1004.5 246.321,-1004.5 246.321,-858.5 246.321,-858.5 246.321,-852.5 252.321,-846.5 258.321,-846.5"/>
<text text-anchor="middle" x="337.716" y="-1001.3" font-family="Times,serif" font-size="14.00">GenericCar</text>
<polyline fill="none" stroke="black" points="246.321,-994.5 429.111,-994.5 "/>
<text text-anchor="start" x="254.321" y="-979.3" font-family="Times,serif" font-size="14.00">id :integer</text>
<text text-anchor="start" x="254.321" y="-965.3" font-family="Times,serif" font-size="14.00">first_generation_year :integer</text>
<text text-anchor="start" x="254.321" y="-951.3" font-family="Times,serif" font-size="14.00">last_generation_year :integer</text>
<text text-anchor="start" x="254.321" y="-937.3" font-family="Times,serif" font-size="14.00">number_of_generation :string</text>
<text text-anchor="start" x="254.321" y="-923.3" font-family="Times,serif" font-size="14.00">years :string</text>
<text text-anchor="start" x="254.321" y="-909.3" font-family="Times,serif" font-size="14.00">created_at :datetime</text>
<text text-anchor="start" x="254.321" y="-895.3" font-family="Times,serif" font-size="14.00">updated_at :datetime</text>
<text text-anchor="start" x="254.321" y="-881.3" font-family="Times,serif" font-size="14.00">gen_continues :boolean</text>
<text text-anchor="start" x="254.321" y="-867.3" font-family="Times,serif" font-size="14.00">model_acronym_id :integer</text>
<text text-anchor="start" x="254.321" y="-853.3" font-family="Times,serif" font-size="14.00">car_type_id :integer</text>
</g>
<!-- CarType&#45;&gt;GenericCar -->
<g id="edge2" class="edge"><title>CarType&#45;&gt;GenericCar</title>
<path fill="none" stroke="#dcc0dc" d="M466.336,-1097.01C449.215,-1075.12 429.079,-1049.36 409.887,-1024.81"/>
<ellipse fill="none" stroke="#dcc0dc" cx="468.866" cy="-1100.25" rx="4.00002" ry="4.00002"/>
<polygon fill="#dcc0dc" stroke="#dcc0dc" points="409.853,-1024.77 407.239,-1014.12 406.773,-1020.83 403.693,-1016.89 403.693,-1016.89 403.693,-1016.89 406.773,-1020.83 400.148,-1019.66 409.853,-1024.77 409.853,-1024.77"/>
</g>
<!-- GenericFamily -->
<g id="node9" class="node"><title>GenericFamily</title>
<path fill="none" stroke="black" d="M455.21,-575.5C455.21,-575.5 564.221,-575.5 564.221,-575.5 570.221,-575.5 576.221,-581.5 576.221,-587.5 576.221,-587.5 576.221,-719.5 576.221,-719.5 576.221,-725.5 570.221,-731.5 564.221,-731.5 564.221,-731.5 455.21,-731.5 455.21,-731.5 449.21,-731.5 443.21,-725.5 443.21,-719.5 443.21,-719.5 443.21,-587.5 443.21,-587.5 443.21,-581.5 449.21,-575.5 455.21,-575.5"/>
<text text-anchor="middle" x="509.716" y="-716.3" font-family="Times,serif" font-size="14.00">GenericFamily</text>
<polyline fill="none" stroke="black" points="443.21,-709.5 576.221,-709.5 "/>
<text text-anchor="start" x="451.21" y="-694.3" font-family="Times,serif" font-size="14.00">id :integer</text>
<text text-anchor="start" x="451.21" y="-680.3" font-family="Times,serif" font-size="14.00">name :string</text>
<text text-anchor="start" x="451.21" y="-666.3" font-family="Times,serif" font-size="14.00">description :text</text>
<text text-anchor="start" x="451.21" y="-652.3" font-family="Times,serif" font-size="14.00">created_at :datetime</text>
<text text-anchor="start" x="451.21" y="-638.3" font-family="Times,serif" font-size="14.00">updated_at :datetime</text>
<text text-anchor="start" x="451.21" y="-624.3" font-family="Times,serif" font-size="14.00">code :string</text>
<text text-anchor="start" x="451.21" y="-610.3" font-family="Times,serif" font-size="14.00">mold :boolean</text>
<text text-anchor="start" x="451.21" y="-596.3" font-family="Times,serif" font-size="14.00">father_id :integer</text>
<text text-anchor="start" x="451.21" y="-582.3" font-family="Times,serif" font-size="14.00">active :boolean</text>
</g>
<!-- CarType&#45;&gt;GenericFamily -->
<g id="edge4" class="edge"><title>CarType&#45;&gt;GenericFamily</title>
<path fill="none" stroke="#92714b" d="M509.716,-1093.33C509.716,-1006.16 509.716,-842.661 509.716,-741.716"/>
<polygon fill="#92714b" stroke="#92714b" points="509.716,-1093.39 505.216,-1103.39 509.716,-1098.39 509.716,-1103.39 509.716,-1103.39 509.716,-1103.39 509.716,-1098.39 514.216,-1103.39 509.716,-1093.39 509.716,-1093.39"/>
<polygon fill="#92714b" stroke="#92714b" points="509.716,-741.542 514.216,-731.542 509.716,-736.542 509.716,-731.542 509.716,-731.542 509.716,-731.542 509.716,-736.542 505.216,-731.542 509.716,-741.542 509.716,-741.542"/>
</g>
<!-- TypeLikelihood -->
<g id="node25" class="node"><title>TypeLikelihood</title>
<path fill="none" stroke="black" d="M769.272,-360.5C769.272,-360.5 910.159,-360.5 910.159,-360.5 916.159,-360.5 922.159,-366.5 922.159,-372.5 922.159,-372.5 922.159,-476.5 922.159,-476.5 922.159,-482.5 916.159,-488.5 910.159,-488.5 910.159,-488.5 769.272,-488.5 769.272,-488.5 763.272,-488.5 757.272,-482.5 757.272,-476.5 757.272,-476.5 757.272,-372.5 757.272,-372.5 757.272,-366.5 763.272,-360.5 769.272,-360.5"/>
<text text-anchor="middle" x="839.716" y="-473.3" font-family="Times,serif" font-size="14.00">TypeLikelihood</text>
<polyline fill="none" stroke="black" points="757.272,-466.5 922.159,-466.5 "/>
<text text-anchor="start" x="765.272" y="-451.3" font-family="Times,serif" font-size="14.00">id :integer</text>
<text text-anchor="start" x="765.272" y="-437.3" font-family="Times,serif" font-size="14.00">generic_family_id :integer</text>
<text text-anchor="start" x="765.272" y="-423.3" font-family="Times,serif" font-size="14.00">car_type_id :integer</text>
<text text-anchor="start" x="765.272" y="-409.3" font-family="Times,serif" font-size="14.00">created_at :datetime</text>
<text text-anchor="start" x="765.272" y="-395.3" font-family="Times,serif" font-size="14.00">updated_at :datetime</text>
<text text-anchor="start" x="765.272" y="-381.3" font-family="Times,serif" font-size="14.00">active :boolean</text>
<text text-anchor="start" x="765.272" y="-367.3" font-family="Times,serif" font-size="14.00">years :string</text>
</g>
<!-- CarType&#45;&gt;TypeLikelihood -->
<g id="edge3" class="edge"><title>CarType&#45;&gt;TypeLikelihood</title>
<path fill="none" stroke="#72aa13" d="M535.345,-1096.04C594.606,-965.485 741.05,-642.863 806.815,-497.982"/>
<ellipse fill="none" stroke="#72aa13" cx="533.663" cy="-1099.74" rx="4.00002" ry="4.00002"/>
<polygon fill="#72aa13" stroke="#72aa13" points="806.895,-497.806 815.126,-490.56 808.961,-493.253 811.028,-488.7 811.028,-488.7 811.028,-488.7 808.961,-493.253 806.93,-486.84 806.895,-497.806 806.895,-497.806"/>
</g>
<!-- FamilyLikelihood -->
<g id="node4" class="node"><title>FamilyLikelihood</title>
<path fill="none" stroke="black" d="M213.272,-374.5C213.272,-374.5 354.159,-374.5 354.159,-374.5 360.159,-374.5 366.159,-380.5 366.159,-386.5 366.159,-386.5 366.159,-462.5 366.159,-462.5 366.159,-468.5 360.159,-474.5 354.159,-474.5 354.159,-474.5 213.272,-474.5 213.272,-474.5 207.272,-474.5 201.272,-468.5 201.272,-462.5 201.272,-462.5 201.272,-386.5 201.272,-386.5 201.272,-380.5 207.272,-374.5 213.272,-374.5"/>
<text text-anchor="middle" x="283.716" y="-459.3" font-family="Times,serif" font-size="14.00">FamilyLikelihood</text>
<polyline fill="none" stroke="black" points="201.272,-452.5 366.159,-452.5 "/>
<text text-anchor="start" x="209.272" y="-437.3" font-family="Times,serif" font-size="14.00">id :integer</text>
<text text-anchor="start" x="209.272" y="-423.3" font-family="Times,serif" font-size="14.00">generic_car_id :integer</text>
<text text-anchor="start" x="209.272" y="-409.3" font-family="Times,serif" font-size="14.00">generic_family_id :integer</text>
<text text-anchor="start" x="209.272" y="-395.3" font-family="Times,serif" font-size="14.00">created_at :datetime</text>
<text text-anchor="start" x="209.272" y="-381.3" font-family="Times,serif" font-size="14.00">updated_at :datetime</text>
</g>
<!-- Generation -->
<g id="node5" class="node"><title>Generation</title>
<path fill="none" stroke="black" d="M88.2104,-1110.5C88.2104,-1110.5 197.221,-1110.5 197.221,-1110.5 203.221,-1110.5 209.221,-1116.5 209.221,-1122.5 209.221,-1122.5 209.221,-1184.5 209.221,-1184.5 209.221,-1190.5 203.221,-1196.5 197.221,-1196.5 197.221,-1196.5 88.2104,-1196.5 88.2104,-1196.5 82.2104,-1196.5 76.2104,-1190.5 76.2104,-1184.5 76.2104,-1184.5 76.2104,-1122.5 76.2104,-1122.5 76.2104,-1116.5 82.2104,-1110.5 88.2104,-1110.5"/>
<text text-anchor="middle" x="142.716" y="-1181.3" font-family="Times,serif" font-size="14.00">Generation</text>
<polyline fill="none" stroke="black" points="76.2104,-1174.5 209.221,-1174.5 "/>
<text text-anchor="start" x="84.2104" y="-1159.3" font-family="Times,serif" font-size="14.00">id :integer</text>
<text text-anchor="start" x="84.2104" y="-1145.3" font-family="Times,serif" font-size="14.00">year :integer</text>
<text text-anchor="start" x="84.2104" y="-1131.3" font-family="Times,serif" font-size="14.00">created_at :datetime</text>
<text text-anchor="start" x="84.2104" y="-1117.3" font-family="Times,serif" font-size="14.00">updated_at :datetime</text>
</g>
<!-- Generation&#45;&gt;GenericCar -->
<g id="edge6" class="edge"><title>Generation&#45;&gt;GenericCar</title>
<path fill="none" stroke="#044dae" d="M186.869,-1102.69C207.397,-1079.53 232.483,-1051.22 256.26,-1024.4"/>
<polygon fill="#044dae" stroke="#044dae" points="186.716,-1102.86 176.715,-1107.36 183.4,-1106.6 180.083,-1110.34 180.083,-1110.34 180.083,-1110.34 183.4,-1106.6 183.451,-1113.33 186.716,-1102.86 186.716,-1102.86"/>
<polygon fill="#044dae" stroke="#044dae" points="256.294,-1024.36 266.295,-1019.86 259.611,-1020.62 262.927,-1016.88 262.927,-1016.88 262.927,-1016.88 259.611,-1020.62 259.56,-1013.89 256.294,-1024.36 256.294,-1024.36"/>
</g>
<!-- GenericCarGeneration -->
<g id="node7" class="node"><title>GenericCarGeneration</title>
<path fill="none" stroke="black" d="M12,-603.5C12,-603.5 133.432,-603.5 133.432,-603.5 139.432,-603.5 145.432,-609.5 145.432,-615.5 145.432,-615.5 145.432,-691.5 145.432,-691.5 145.432,-697.5 139.432,-703.5 133.432,-703.5 133.432,-703.5 12,-703.5 12,-703.5 6,-703.5 0,-697.5 0,-691.5 0,-691.5 0,-615.5 0,-615.5 0,-609.5 6,-603.5 12,-603.5"/>
<text text-anchor="middle" x="72.7158" y="-688.3" font-family="Times,serif" font-size="14.00">GenericCarGeneration</text>
<polyline fill="none" stroke="black" points="0,-681.5 145.432,-681.5 "/>
<text text-anchor="start" x="8" y="-666.3" font-family="Times,serif" font-size="14.00">id :integer</text>
<text text-anchor="start" x="8" y="-652.3" font-family="Times,serif" font-size="14.00">generation_id :integer</text>
<text text-anchor="start" x="8" y="-638.3" font-family="Times,serif" font-size="14.00">created_at :datetime</text>
<text text-anchor="start" x="8" y="-624.3" font-family="Times,serif" font-size="14.00">updated_at :datetime</text>
<text text-anchor="start" x="8" y="-610.3" font-family="Times,serif" font-size="14.00">generic_car_id :integer</text>
</g>
<!-- Generation&#45;&gt;GenericCarGeneration -->
<g id="edge5" class="edge"><title>Generation&#45;&gt;GenericCarGeneration</title>
<path fill="none" stroke="#54b927" d="M135.673,-1102.39C122.681,-1009.97 95.0041,-813.065 81.0813,-714.015"/>
<ellipse fill="none" stroke="#54b927" cx="136.251" cy="-1106.51" rx="4.00001" ry="4.00001"/>
<polygon fill="#54b927" stroke="#54b927" points="81.0481,-713.778 84.1123,-703.249 80.3521,-708.827 79.6561,-703.875 79.6561,-703.875 79.6561,-703.875 80.3521,-708.827 75.1999,-704.502 81.0481,-713.778 81.0481,-713.778"/>
</g>
<!-- GenericCar&#45;&gt;FamilyLikelihood -->
<g id="edge11" class="edge"><title>GenericCar&#45;&gt;FamilyLikelihood</title>
<path fill="none" stroke="#badf19" d="M272.76,-839.166C259.977,-816.592 248.446,-791.756 241.716,-767 215.247,-669.645 224.072,-639.334 241.716,-540 245.028,-521.355 251.152,-501.762 257.719,-484.16"/>
<ellipse fill="none" stroke="#badf19" cx="274.763" cy="-842.632" rx="4.00002" ry="4.00002"/>
<polygon fill="#badf19" stroke="#badf19" points="257.805,-483.936 265.597,-476.221 259.601,-479.27 261.398,-474.604 261.398,-474.604 261.398,-474.604 259.601,-479.27 257.198,-472.987 257.805,-483.936 257.805,-483.936"/>
</g>
<!-- GenericCar&#45;&gt;GenericCarGeneration -->
<g id="edge9" class="edge"><title>GenericCar&#45;&gt;GenericCarGeneration</title>
<path fill="none" stroke="#cceeac" d="M239.568,-859.657C212.201,-837.627 183.483,-812.202 159.716,-786 139.487,-763.698 120.581,-736.285 105.594,-712.27"/>
<ellipse fill="none" stroke="#cceeac" cx="242.995" cy="-862.393" rx="4.00002" ry="4.00002"/>
<polygon fill="#cceeac" stroke="#cceeac" points="105.495,-712.109 104.088,-701.234 102.875,-707.85 100.255,-703.592 100.255,-703.592 100.255,-703.592 102.875,-707.85 96.4226,-705.95 105.495,-712.109 105.495,-712.109"/>
</g>
<!-- GenericCarImage -->
<g id="node8" class="node"><title>GenericCarImage</title>
<path fill="none" stroke="black" d="M262.607,-582.5C262.607,-582.5 412.825,-582.5 412.825,-582.5 418.825,-582.5 424.825,-588.5 424.825,-594.5 424.825,-594.5 424.825,-712.5 424.825,-712.5 424.825,-718.5 418.825,-724.5 412.825,-724.5 412.825,-724.5 262.607,-724.5 262.607,-724.5 256.607,-724.5 250.607,-718.5 250.607,-712.5 250.607,-712.5 250.607,-594.5 250.607,-594.5 250.607,-588.5 256.607,-582.5 262.607,-582.5"/>
<text text-anchor="middle" x="337.716" y="-709.3" font-family="Times,serif" font-size="14.00">GenericCarImage</text>
<polyline fill="none" stroke="black" points="250.607,-702.5 424.825,-702.5 "/>
<text text-anchor="start" x="258.607" y="-687.3" font-family="Times,serif" font-size="14.00">id :integer</text>
<text text-anchor="start" x="258.607" y="-673.3" font-family="Times,serif" font-size="14.00">generic_car_id :integer</text>
<text text-anchor="start" x="258.607" y="-659.3" font-family="Times,serif" font-size="14.00">created_at :datetime</text>
<text text-anchor="start" x="258.607" y="-645.3" font-family="Times,serif" font-size="14.00">updated_at :datetime</text>
<text text-anchor="start" x="258.607" y="-631.3" font-family="Times,serif" font-size="14.00">image_file_name :string</text>
<text text-anchor="start" x="258.607" y="-617.3" font-family="Times,serif" font-size="14.00">image_content_type :string</text>
<text text-anchor="start" x="258.607" y="-603.3" font-family="Times,serif" font-size="14.00">image_file_size :integer</text>
<text text-anchor="start" x="258.607" y="-589.3" font-family="Times,serif" font-size="14.00">image_updated_at :datetime</text>
</g>
<!-- GenericCar&#45;&gt;GenericCarImage -->
<g id="edge10" class="edge"><title>GenericCar&#45;&gt;GenericCarImage</title>
<path fill="none" stroke="#03819b" d="M337.716,-837.904C337.716,-804.592 337.716,-767.308 337.716,-735.1"/>
<ellipse fill="none" stroke="#03819b" cx="337.716" cy="-842.191" rx="4" ry="4"/>
<polygon fill="#03819b" stroke="#03819b" points="337.716,-734.833 342.216,-724.833 337.716,-729.833 337.716,-724.833 337.716,-724.833 337.716,-724.833 337.716,-729.833 333.216,-724.833 337.716,-734.833 337.716,-734.833"/>
</g>
<!-- GenericCar&#45;&gt;GenericFamily -->
<g id="edge12" class="edge"><title>GenericCar&#45;&gt;GenericFamily</title>
<path fill="none" stroke="#481050" d="M395.645,-837.543C415.238,-806.104 437.014,-771.162 456.244,-740.303"/>
<polygon fill="#481050" stroke="#481050" points="395.545,-837.704 386.437,-843.811 392.901,-841.948 390.256,-846.191 390.256,-846.191 390.256,-846.191 392.901,-841.948 394.075,-848.571 395.545,-837.704 395.545,-837.704"/>
<polygon fill="#481050" stroke="#481050" points="456.308,-740.201 465.416,-734.094 458.952,-735.957 461.597,-731.714 461.597,-731.714 461.597,-731.714 458.952,-735.957 457.778,-729.334 456.308,-740.201 456.308,-740.201"/>
</g>
<!-- GenericFittable -->
<g id="node10" class="node"><title>GenericFittable</title>
<path fill="none" stroke="black" d="M142.776,-166.5C142.776,-166.5 276.656,-166.5 276.656,-166.5 282.656,-166.5 288.656,-172.5 288.656,-178.5 288.656,-178.5 288.656,-254.5 288.656,-254.5 288.656,-260.5 282.656,-266.5 276.656,-266.5 276.656,-266.5 142.776,-266.5 142.776,-266.5 136.776,-266.5 130.776,-260.5 130.776,-254.5 130.776,-254.5 130.776,-178.5 130.776,-178.5 130.776,-172.5 136.776,-166.5 142.776,-166.5"/>
<text text-anchor="middle" x="209.716" y="-251.3" font-family="Times,serif" font-size="14.00">GenericFittable</text>
<polyline fill="none" stroke="black" points="130.776,-244.5 288.656,-244.5 "/>
<text text-anchor="start" x="138.776" y="-229.3" font-family="Times,serif" font-size="14.00">id :integer</text>
<text text-anchor="start" x="138.776" y="-215.3" font-family="Times,serif" font-size="14.00">generic_car_id :integer</text>
<text text-anchor="start" x="138.776" y="-201.3" font-family="Times,serif" font-size="14.00">generic_spare_id :integer</text>
<text text-anchor="start" x="138.776" y="-187.3" font-family="Times,serif" font-size="14.00">created_at :datetime</text>
<text text-anchor="start" x="138.776" y="-173.3" font-family="Times,serif" font-size="14.00">updated_at :datetime</text>
</g>
<!-- GenericCar&#45;&gt;GenericFittable -->
<g id="edge8" class="edge"><title>GenericCar&#45;&gt;GenericFittable</title>
<path fill="none" stroke="#cfe76f" d="M260.334,-839.64C244.796,-817.156 230.314,-792.24 220.716,-767 156.711,-598.689 181.093,-379.916 198.332,-276.543"/>
<ellipse fill="none" stroke="#cfe76f" cx="262.662" cy="-842.953" rx="4.00002" ry="4.00002"/>
<polygon fill="#cfe76f" stroke="#cfe76f" points="198.345,-276.464 204.463,-267.363 199.186,-271.535 200.027,-266.606 200.027,-266.606 200.027,-266.606 199.186,-271.535 195.591,-265.85 198.345,-276.464 198.345,-276.464"/>
</g>
<!-- StockCar -->
<g id="node20" class="node"><title>StockCar</title>
<path fill="none" stroke="black" d="M1154.09,-540.5C1154.09,-540.5 1297.34,-540.5 1297.34,-540.5 1303.34,-540.5 1309.34,-546.5 1309.34,-552.5 1309.34,-552.5 1309.34,-754.5 1309.34,-754.5 1309.34,-760.5 1303.34,-766.5 1297.34,-766.5 1297.34,-766.5 1154.09,-766.5 1154.09,-766.5 1148.09,-766.5 1142.09,-760.5 1142.09,-754.5 1142.09,-754.5 1142.09,-552.5 1142.09,-552.5 1142.09,-546.5 1148.09,-540.5 1154.09,-540.5"/>
<text text-anchor="middle" x="1225.72" y="-751.3" font-family="Times,serif" font-size="14.00">StockCar</text>
<polyline fill="none" stroke="black" points="1142.09,-744.5 1309.34,-744.5 "/>
<text text-anchor="start" x="1150.09" y="-729.3" font-family="Times,serif" font-size="14.00">id :integer</text>
<text text-anchor="start" x="1150.09" y="-715.3" font-family="Times,serif" font-size="14.00">prevaluation_id :integer</text>
<text text-anchor="start" x="1150.09" y="-701.3" font-family="Times,serif" font-size="14.00">generic_car_id :integer</text>
<text text-anchor="start" x="1150.09" y="-687.3" font-family="Times,serif" font-size="14.00">warehouse_id :integer</text>
<text text-anchor="start" x="1150.09" y="-673.3" font-family="Times,serif" font-size="14.00">color :string</text>
<text text-anchor="start" x="1150.09" y="-659.3" font-family="Times,serif" font-size="14.00">door_number :integer</text>
<text text-anchor="start" x="1150.09" y="-645.3" font-family="Times,serif" font-size="14.00">serie :string</text>
<text text-anchor="start" x="1150.09" y="-631.3" font-family="Times,serif" font-size="14.00">motor :string</text>
<text text-anchor="start" x="1150.09" y="-617.3" font-family="Times,serif" font-size="14.00">license_plates :string</text>
<text text-anchor="start" x="1150.09" y="-603.3" font-family="Times,serif" font-size="14.00">inventory_description :text</text>
<text text-anchor="start" x="1150.09" y="-589.3" font-family="Times,serif" font-size="14.00">special_equipment :text</text>
<text text-anchor="start" x="1150.09" y="-575.3" font-family="Times,serif" font-size="14.00">economic_number :string</text>
<text text-anchor="start" x="1150.09" y="-561.3" font-family="Times,serif" font-size="14.00">created_at :datetime</text>
<text text-anchor="start" x="1150.09" y="-547.3" font-family="Times,serif" font-size="14.00">updated_at :datetime</text>
</g>
<!-- GenericCar&#45;&gt;StockCar -->
<g id="edge7" class="edge"><title>GenericCar&#45;&gt;StockCar</title>
<path fill="none" stroke="#e6b687" d="M437.313,-916.826C575.215,-895.745 830.412,-848.922 1034.72,-767 1068.2,-753.573 1102.78,-734.893 1133.15,-716.609"/>
<ellipse fill="none" stroke="#e6b687" cx="433.168" cy="-917.455" rx="4.00001" ry="4.00001"/>
<polygon fill="#e6b687" stroke="#e6b687" points="1133.48,-716.411 1144.36,-715.055 1137.75,-713.811 1142.02,-711.211 1142.02,-711.211 1142.02,-711.211 1137.75,-713.811 1139.68,-707.367 1133.48,-716.411 1133.48,-716.411"/>
</g>
<!-- GenericFamily&#45;&gt;FamilyLikelihood -->
<g id="edge18" class="edge"><title>GenericFamily&#45;&gt;FamilyLikelihood</title>
<path fill="none" stroke="#c1676b" d="M462.671,-568.884C454.069,-558.15 444.388,-548.1 433.716,-540 413.564,-524.706 401.218,-535.328 379.716,-522 362.44,-511.292 345.937,-496.887 331.637,-482.477"/>
<ellipse fill="none" stroke="#c1676b" cx="465.164" cy="-572.109" rx="4.00002" ry="4.00002"/>
<polygon fill="#c1676b" stroke="#c1676b" points="331.319,-482.149 327.601,-471.832 327.843,-478.555 324.367,-474.961 324.367,-474.961 324.367,-474.961 327.843,-478.555 321.132,-478.09 331.319,-482.149 331.319,-482.149"/>
</g>
<!-- GenericFamily&#45;&gt;GenericFamily -->
<g id="edge13" class="edge"><title>GenericFamily&#45;&gt;GenericFamily</title>
<path fill="none" stroke="#9daaa8" d="M584.003,-672.732C590.297,-668.62 594.221,-662.209 594.221,-653.5 594.221,-645.532 590.937,-639.488 585.557,-635.368"/>
<ellipse fill="none" stroke="#9daaa8" cx="579.945" cy="-674.611" rx="4.00002" ry="4.00002"/>
<polygon fill="#9daaa8" stroke="#9daaa8" points="585.245,-635.21 578.342,-626.69 580.78,-632.959 576.316,-630.708 576.316,-630.708 576.316,-630.708 580.78,-632.959 574.29,-634.726 585.245,-635.21 585.245,-635.21"/>
<text text-anchor="middle" x="610.942" y="-649.3" font-family="Times,serif" font-size="14.00">childs</text>
</g>
<!-- GenericSpare -->
<g id="node11" class="node"><title>GenericSpare</title>
<path fill="none" stroke="black" d="M616.424,-346.5C616.424,-346.5 727.007,-346.5 727.007,-346.5 733.007,-346.5 739.007,-352.5 739.007,-358.5 739.007,-358.5 739.007,-490.5 739.007,-490.5 739.007,-496.5 733.007,-502.5 727.007,-502.5 727.007,-502.5 616.424,-502.5 616.424,-502.5 610.424,-502.5 604.424,-496.5 604.424,-490.5 604.424,-490.5 604.424,-358.5 604.424,-358.5 604.424,-352.5 610.424,-346.5 616.424,-346.5"/>
<text text-anchor="middle" x="671.716" y="-487.3" font-family="Times,serif" font-size="14.00">GenericSpare</text>
<polyline fill="none" stroke="black" points="604.424,-480.5 739.007,-480.5 "/>
<text text-anchor="start" x="612.424" y="-465.3" font-family="Times,serif" font-size="14.00">id :integer</text>
<text text-anchor="start" x="612.424" y="-451.3" font-family="Times,serif" font-size="14.00">brand :string</text>
<text text-anchor="start" x="612.424" y="-437.3" font-family="Times,serif" font-size="14.00">type_of_spare :string</text>
<text text-anchor="start" x="612.424" y="-423.3" font-family="Times,serif" font-size="14.00">name :string</text>
<text text-anchor="start" x="612.424" y="-409.3" font-family="Times,serif" font-size="14.00">region :string</text>
<text text-anchor="start" x="612.424" y="-395.3" font-family="Times,serif" font-size="14.00">description :text</text>
<text text-anchor="start" x="612.424" y="-381.3" font-family="Times,serif" font-size="14.00">code :string</text>
<text text-anchor="start" x="612.424" y="-367.3" font-family="Times,serif" font-size="14.00">created_at :datetime</text>
<text text-anchor="start" x="612.424" y="-353.3" font-family="Times,serif" font-size="14.00">updated_at :datetime</text>
</g>
<!-- GenericFamily&#45;&gt;GenericSpare -->
<g id="edge15" class="edge"><title>GenericFamily&#45;&gt;GenericSpare</title>
<path fill="none" stroke="#14ba49" d="M570.719,-567.02C583.76,-548.747 597.538,-529.44 610.584,-511.16"/>
<polygon fill="#14ba49" stroke="#14ba49" points="570.597,-567.192 561.125,-572.717 567.692,-571.262 564.788,-575.331 564.788,-575.331 564.788,-575.331 567.692,-571.262 568.451,-577.945 570.597,-567.192 570.597,-567.192"/>
<polygon fill="#14ba49" stroke="#14ba49" points="610.712,-510.98 620.184,-505.455 613.617,-506.911 616.521,-502.841 616.521,-502.841 616.521,-502.841 613.617,-506.911 612.858,-500.227 610.712,-510.98 610.712,-510.98"/>
</g>
<!-- SpareLikelihood -->
<g id="node19" class="node"><title>SpareLikelihood</title>
<path fill="none" stroke="black" d="M389.272,-166.5C389.272,-166.5 530.159,-166.5 530.159,-166.5 536.159,-166.5 542.159,-172.5 542.159,-178.5 542.159,-178.5 542.159,-254.5 542.159,-254.5 542.159,-260.5 536.159,-266.5 530.159,-266.5 530.159,-266.5 389.272,-266.5 389.272,-266.5 383.272,-266.5 377.272,-260.5 377.272,-254.5 377.272,-254.5 377.272,-178.5 377.272,-178.5 377.272,-172.5 383.272,-166.5 389.272,-166.5"/>
<text text-anchor="middle" x="459.716" y="-251.3" font-family="Times,serif" font-size="14.00">SpareLikelihood</text>
<polyline fill="none" stroke="black" points="377.272,-244.5 542.159,-244.5 "/>
<text text-anchor="start" x="385.272" y="-229.3" font-family="Times,serif" font-size="14.00">id :integer</text>
<text text-anchor="start" x="385.272" y="-215.3" font-family="Times,serif" font-size="14.00">generic_spare_id :integer</text>
<text text-anchor="start" x="385.272" y="-201.3" font-family="Times,serif" font-size="14.00">generic_family_id :integer</text>
<text text-anchor="start" x="385.272" y="-187.3" font-family="Times,serif" font-size="14.00">created_at :datetime</text>
<text text-anchor="start" x="385.272" y="-173.3" font-family="Times,serif" font-size="14.00">updated_at :datetime</text>
</g>
<!-- GenericFamily&#45;&gt;SpareLikelihood -->
<g id="edge14" class="edge"><title>GenericFamily&#45;&gt;SpareLikelihood</title>
<path fill="none" stroke="#f02336" d="M452.486,-568.658C432.822,-539.029 415.094,-511.033 412.716,-503 392.911,-436.092 400.545,-414.708 412.716,-346 416.885,-322.467 425.036,-297.583 433.396,-276.046"/>
<ellipse fill="none" stroke="#f02336" cx="454.759" cy="-572.071" rx="4.00002" ry="4.00002"/>
<polygon fill="#f02336" stroke="#f02336" points="433.41,-276.01 441.29,-268.384 435.259,-271.365 437.109,-266.719 437.109,-266.719 437.109,-266.719 435.259,-271.365 432.928,-265.055 433.41,-276.01 433.41,-276.01"/>
</g>
<!-- StockFamily -->
<g id="node22" class="node"><title>StockFamily</title>
<path fill="none" stroke="black" d="M433.272,-381.5C433.272,-381.5 574.159,-381.5 574.159,-381.5 580.159,-381.5 586.159,-387.5 586.159,-393.5 586.159,-393.5 586.159,-455.5 586.159,-455.5 586.159,-461.5 580.159,-467.5 574.159,-467.5 574.159,-467.5 433.272,-467.5 433.272,-467.5 427.272,-467.5 421.272,-461.5 421.272,-455.5 421.272,-455.5 421.272,-393.5 421.272,-393.5 421.272,-387.5 427.272,-381.5 433.272,-381.5"/>
<text text-anchor="middle" x="503.716" y="-452.3" font-family="Times,serif" font-size="14.00">StockFamily</text>
<polyline fill="none" stroke="black" points="421.272,-445.5 586.159,-445.5 "/>
<text text-anchor="start" x="429.272" y="-430.3" font-family="Times,serif" font-size="14.00">id :integer</text>
<text text-anchor="start" x="429.272" y="-416.3" font-family="Times,serif" font-size="14.00">generic_family_id :integer</text>
<text text-anchor="start" x="429.272" y="-402.3" font-family="Times,serif" font-size="14.00">created_at :datetime</text>
<text text-anchor="start" x="429.272" y="-388.3" font-family="Times,serif" font-size="14.00">updated_at :datetime</text>
</g>
<!-- GenericFamily&#45;&gt;StockFamily -->
<g id="edge16" class="edge"><title>GenericFamily&#45;&gt;StockFamily</title>
<path fill="none" stroke="#114453" d="M507.462,-567.235C506.669,-537.236 505.802,-504.428 505.102,-477.938"/>
<ellipse fill="none" stroke="#114453" cx="507.57" cy="-571.333" rx="4" ry="4"/>
<polygon fill="#114453" stroke="#114453" points="505.097,-477.74 509.331,-467.625 504.965,-472.742 504.832,-467.744 504.832,-467.744 504.832,-467.744 504.965,-472.742 500.334,-467.863 505.097,-477.74 505.097,-477.74"/>
</g>
<!-- GenericFamily&#45;&gt;TypeLikelihood -->
<g id="edge17" class="edge"><title>GenericFamily&#45;&gt;TypeLikelihood</title>
<path fill="none" stroke="#371945" d="M583.19,-609.969C631.132,-581.346 694.465,-541.864 747.716,-503 751.324,-500.366 754.972,-497.632 758.627,-494.832"/>
<ellipse fill="none" stroke="#371945" cx="579.668" cy="-612.066" rx="4.00002" ry="4.00002"/>
<polygon fill="#371945" stroke="#371945" points="758.735,-494.748 769.391,-492.163 762.682,-491.679 766.629,-488.61 766.629,-488.61 766.629,-488.61 762.682,-491.679 763.867,-485.058 758.735,-494.748 758.735,-494.748"/>
</g>
<!-- GenericSpare&#45;&gt;GenericCar -->
<g id="edge20" class="edge"><title>GenericSpare&#45;&gt;GenericCar</title>
<path fill="none" stroke="#3b2345" d="M684.021,-513.032C689.732,-586.827 686.473,-692.082 636.716,-767 591.166,-835.582 506.788,-877.915 439.254,-902.272"/>
<polygon fill="#3b2345" stroke="#3b2345" points="684.001,-512.799 687.644,-502.455 683.58,-507.816 683.16,-502.834 683.16,-502.834 683.16,-502.834 683.58,-507.816 678.675,-503.213 684.001,-512.799 684.001,-512.799"/>
<polygon fill="#3b2345" stroke="#3b2345" points="438.85,-902.414 427.923,-901.491 434.134,-904.075 429.418,-905.736 429.418,-905.736 429.418,-905.736 434.134,-904.075 430.913,-909.98 438.85,-902.414 438.85,-902.414"/>
</g>
<!-- GenericSpare&#45;&gt;GenericFittable -->
<g id="edge19" class="edge"><title>GenericSpare&#45;&gt;GenericFittable</title>
<path fill="none" stroke="#38db5c" d="M597.109,-347.271C596.315,-346.836 595.517,-346.412 594.716,-346 504.223,-299.41 464.595,-343.157 368.716,-309 342.263,-299.576 315.17,-285.789 291.017,-271.763"/>
<ellipse fill="none" stroke="#38db5c" cx="600.724" cy="-349.417" rx="4.00002" ry="4.00002"/>
<polygon fill="#38db5c" stroke="#38db5c" points="290.869,-271.676 284.545,-262.717 286.563,-269.134 282.258,-266.593 282.258,-266.593 282.258,-266.593 286.563,-269.134 279.97,-270.468 290.869,-271.676 290.869,-271.676"/>
</g>
<!-- GenericSpareImage -->
<g id="node12" class="node"><title>GenericSpareImage</title>
<path fill="none" stroke="black" d="M608.266,-173.5C608.266,-173.5 735.166,-173.5 735.166,-173.5 741.166,-173.5 747.166,-179.5 747.166,-185.5 747.166,-185.5 747.166,-247.5 747.166,-247.5 747.166,-253.5 741.166,-259.5 735.166,-259.5 735.166,-259.5 608.266,-259.5 608.266,-259.5 602.266,-259.5 596.266,-253.5 596.266,-247.5 596.266,-247.5 596.266,-185.5 596.266,-185.5 596.266,-179.5 602.266,-173.5 608.266,-173.5"/>
<text text-anchor="middle" x="671.716" y="-244.3" font-family="Times,serif" font-size="14.00">GenericSpareImage</text>
<polyline fill="none" stroke="black" points="596.266,-237.5 747.166,-237.5 "/>
<text text-anchor="start" x="604.266" y="-222.3" font-family="Times,serif" font-size="14.00">id :integer</text>
<text text-anchor="start" x="604.266" y="-208.3" font-family="Times,serif" font-size="14.00">generic_spare_id :string</text>
<text text-anchor="start" x="604.266" y="-194.3" font-family="Times,serif" font-size="14.00">created_at :datetime</text>
<text text-anchor="start" x="604.266" y="-180.3" font-family="Times,serif" font-size="14.00">updated_at :datetime</text>
</g>
<!-- GenericSpare&#45;&gt;GenericSpareImage -->
<g id="edge23" class="edge"><title>GenericSpare&#45;&gt;GenericSpareImage</title>
<path fill="none" stroke="#dfe613" d="M671.716,-337.885C671.716,-314.777 671.716,-290.466 671.716,-269.788"/>
<ellipse fill="none" stroke="#dfe613" cx="671.716" cy="-342.207" rx="4" ry="4"/>
<polygon fill="#dfe613" stroke="#dfe613" points="671.716,-269.642 676.216,-259.642 671.716,-264.642 671.716,-259.642 671.716,-259.642 671.716,-259.642 671.716,-264.642 667.216,-259.642 671.716,-269.642 671.716,-269.642"/>
</g>
<!-- GenericSpare&#45;&gt;SpareLikelihood -->
<g id="edge21" class="edge"><title>GenericSpare&#45;&gt;SpareLikelihood</title>
<path fill="none" stroke="#10a0df" d="M598.247,-349.463C597.063,-348.299 595.885,-347.144 594.716,-346 570.303,-322.105 543.066,-296.064 519.486,-273.711"/>
<ellipse fill="none" stroke="#10a0df" cx="601.368" cy="-352.54" rx="4.00002" ry="4.00002"/>
<polygon fill="#10a0df" stroke="#10a0df" points="519.228,-273.466 515.061,-263.323 515.597,-270.028 511.967,-266.59 511.967,-266.59 511.967,-266.59 515.597,-270.028 508.873,-269.858 519.228,-273.466 519.228,-273.466"/>
</g>
<!-- StockSpare -->
<g id="node23" class="node"><title>StockSpare</title>
<path fill="none" stroke="black" d="M911.776,-124.5C911.776,-124.5 1045.66,-124.5 1045.66,-124.5 1051.66,-124.5 1057.66,-130.5 1057.66,-136.5 1057.66,-136.5 1057.66,-296.5 1057.66,-296.5 1057.66,-302.5 1051.66,-308.5 1045.66,-308.5 1045.66,-308.5 911.776,-308.5 911.776,-308.5 905.776,-308.5 899.776,-302.5 899.776,-296.5 899.776,-296.5 899.776,-136.5 899.776,-136.5 899.776,-130.5 905.776,-124.5 911.776,-124.5"/>
<text text-anchor="middle" x="978.716" y="-293.3" font-family="Times,serif" font-size="14.00">StockSpare</text>
<polyline fill="none" stroke="black" points="899.776,-286.5 1057.66,-286.5 "/>
<text text-anchor="start" x="907.776" y="-271.3" font-family="Times,serif" font-size="14.00">id :integer</text>
<text text-anchor="start" x="907.776" y="-257.3" font-family="Times,serif" font-size="14.00">car_id :integer</text>
<text text-anchor="start" x="907.776" y="-243.3" font-family="Times,serif" font-size="14.00">warehouse_id :integer</text>
<text text-anchor="start" x="907.776" y="-229.3" font-family="Times,serif" font-size="14.00">generic_spare_id :integer</text>
<text text-anchor="start" x="907.776" y="-215.3" font-family="Times,serif" font-size="14.00">status :string</text>
<text text-anchor="start" x="907.776" y="-201.3" font-family="Times,serif" font-size="14.00">description :text</text>
<text text-anchor="start" x="907.776" y="-187.3" font-family="Times,serif" font-size="14.00">code :string</text>
<text text-anchor="start" x="907.776" y="-173.3" font-family="Times,serif" font-size="14.00">color :string</text>
<text text-anchor="start" x="907.776" y="-159.3" font-family="Times,serif" font-size="14.00">created_at :datetime</text>
<text text-anchor="start" x="907.776" y="-145.3" font-family="Times,serif" font-size="14.00">updated_at :datetime</text>
<text text-anchor="start" x="907.776" y="-131.3" font-family="Times,serif" font-size="14.00">stock_family_id :integer</text>
</g>
<!-- GenericSpare&#45;&gt;StockSpare -->
<g id="edge22" class="edge"><title>GenericSpare&#45;&gt;StockSpare</title>
<path fill="none" stroke="#41bf2c" d="M745.445,-348.526C746.535,-347.67 747.625,-346.828 748.716,-346 792.692,-312.634 846.321,-282.169 890.729,-259.285"/>
<ellipse fill="none" stroke="#41bf2c" cx="742.333" cy="-351.047" rx="4.00002" ry="4.00002"/>
<polygon fill="#41bf2c" stroke="#41bf2c" points="890.865,-259.216 901.817,-258.672 895.317,-256.94 899.769,-254.665 899.769,-254.665 899.769,-254.665 895.317,-256.94 897.721,-250.658 890.865,-259.216 890.865,-259.216"/>
</g>
<!-- Insured -->
<g id="node13" class="node"><title>Insured</title>
<path fill="none" stroke="black" d="M1339.66,-582.5C1339.66,-582.5 1465.78,-582.5 1465.78,-582.5 1471.78,-582.5 1477.78,-588.5 1477.78,-594.5 1477.78,-594.5 1477.78,-712.5 1477.78,-712.5 1477.78,-718.5 1471.78,-724.5 1465.78,-724.5 1465.78,-724.5 1339.66,-724.5 1339.66,-724.5 1333.66,-724.5 1327.66,-718.5 1327.66,-712.5 1327.66,-712.5 1327.66,-594.5 1327.66,-594.5 1327.66,-588.5 1333.66,-582.5 1339.66,-582.5"/>
<text text-anchor="middle" x="1402.72" y="-709.3" font-family="Times,serif" font-size="14.00">Insured</text>
<polyline fill="none" stroke="black" points="1327.66,-702.5 1477.78,-702.5 "/>
<text text-anchor="start" x="1335.66" y="-687.3" font-family="Times,serif" font-size="14.00">id :integer</text>
<text text-anchor="start" x="1335.66" y="-673.3" font-family="Times,serif" font-size="14.00">prevaluation_id :integer</text>
<text text-anchor="start" x="1335.66" y="-659.3" font-family="Times,serif" font-size="14.00">third :boolean</text>
<text text-anchor="start" x="1335.66" y="-645.3" font-family="Times,serif" font-size="14.00">name :string</text>
<text text-anchor="start" x="1335.66" y="-631.3" font-family="Times,serif" font-size="14.00">telephone :integer</text>
<text text-anchor="start" x="1335.66" y="-617.3" font-family="Times,serif" font-size="14.00">email :string</text>
<text text-anchor="start" x="1335.66" y="-603.3" font-family="Times,serif" font-size="14.00">created_at :datetime</text>
<text text-anchor="start" x="1335.66" y="-589.3" font-family="Times,serif" font-size="14.00">updated_at :datetime</text>
</g>
<!-- ModelAcronym&#45;&gt;GenericCar -->
<g id="edge24" class="edge"><title>ModelAcronym&#45;&gt;GenericCar</title>
<path fill="none" stroke="#6d683b" d="M337.716,-1088.32C337.716,-1069.1 337.716,-1047.6 337.716,-1026.86"/>
<ellipse fill="none" stroke="#6d683b" cx="337.716" cy="-1092.42" rx="4" ry="4"/>
<polygon fill="#6d683b" stroke="#6d683b" points="337.716,-1026.75 342.216,-1016.75 337.716,-1021.75 337.716,-1016.75 337.716,-1016.75 337.716,-1016.75 337.716,-1021.75 333.216,-1016.75 337.716,-1026.75 337.716,-1026.75"/>
</g>
<!-- MoldComponent -->
<g id="node15" class="node"><title>MoldComponent</title>
<path fill="none" stroke="black" d="M951.983,-374.5C951.983,-374.5 1073.45,-374.5 1073.45,-374.5 1079.45,-374.5 1085.45,-380.5 1085.45,-386.5 1085.45,-386.5 1085.45,-462.5 1085.45,-462.5 1085.45,-468.5 1079.45,-474.5 1073.45,-474.5 1073.45,-474.5 951.983,-474.5 951.983,-474.5 945.983,-474.5 939.983,-468.5 939.983,-462.5 939.983,-462.5 939.983,-386.5 939.983,-386.5 939.983,-380.5 945.983,-374.5 951.983,-374.5"/>
<text text-anchor="middle" x="1012.72" y="-459.3" font-family="Times,serif" font-size="14.00">MoldComponent</text>
<polyline fill="none" stroke="black" points="939.983,-452.5 1085.45,-452.5 "/>
<text text-anchor="start" x="947.983" y="-437.3" font-family="Times,serif" font-size="14.00">id :integer</text>
<text text-anchor="start" x="947.983" y="-423.3" font-family="Times,serif" font-size="14.00">name :string</text>
<text text-anchor="start" x="947.983" y="-409.3" font-family="Times,serif" font-size="14.00">mold_spare_id :integer</text>
<text text-anchor="start" x="947.983" y="-395.3" font-family="Times,serif" font-size="14.00">created_at :datetime</text>
<text text-anchor="start" x="947.983" y="-381.3" font-family="Times,serif" font-size="14.00">updated_at :datetime</text>
</g>
<!-- MoldSpare -->
<g id="node16" class="node"><title>MoldSpare</title>
<path fill="none" stroke="black" d="M904.21,-589.5C904.21,-589.5 1013.22,-589.5 1013.22,-589.5 1019.22,-589.5 1025.22,-595.5 1025.22,-601.5 1025.22,-601.5 1025.22,-705.5 1025.22,-705.5 1025.22,-711.5 1019.22,-717.5 1013.22,-717.5 1013.22,-717.5 904.21,-717.5 904.21,-717.5 898.21,-717.5 892.21,-711.5 892.21,-705.5 892.21,-705.5 892.21,-601.5 892.21,-601.5 892.21,-595.5 898.21,-589.5 904.21,-589.5"/>
<text text-anchor="middle" x="958.716" y="-702.3" font-family="Times,serif" font-size="14.00">MoldSpare</text>
<polyline fill="none" stroke="black" points="892.21,-695.5 1025.22,-695.5 "/>
<text text-anchor="start" x="900.21" y="-680.3" font-family="Times,serif" font-size="14.00">id :integer</text>
<text text-anchor="start" x="900.21" y="-666.3" font-family="Times,serif" font-size="14.00">name :string</text>
<text text-anchor="start" x="900.21" y="-652.3" font-family="Times,serif" font-size="14.00">comment :string</text>
<text text-anchor="start" x="900.21" y="-638.3" font-family="Times,serif" font-size="14.00">mold_type :string</text>
<text text-anchor="start" x="900.21" y="-624.3" font-family="Times,serif" font-size="14.00">code :string</text>
<text text-anchor="start" x="900.21" y="-610.3" font-family="Times,serif" font-size="14.00">created_at :datetime</text>
<text text-anchor="start" x="900.21" y="-596.3" font-family="Times,serif" font-size="14.00">updated_at :datetime</text>
</g>
<!-- MoldSpare&#45;&gt;GenericSpare -->
<g id="edge25" class="edge"><title>MoldSpare&#45;&gt;GenericSpare</title>
<path fill="none" stroke="#83aa9c" d="M884.969,-604.529C843.632,-576.539 791.869,-539.617 748.716,-503 748.119,-502.494 747.522,-501.984 746.924,-501.47"/>
<ellipse fill="none" stroke="#83aa9c" cx="888.457" cy="-606.882" rx="4.00002" ry="4.00002"/>
<polygon fill="#83aa9c" stroke="#83aa9c" points="746.64,-501.22 742.106,-491.236 742.886,-497.917 739.133,-494.614 739.133,-494.614 739.133,-494.614 742.886,-497.917 736.16,-497.993 746.64,-501.22 746.64,-501.22"/>
</g>
<!-- MoldSpare&#45;&gt;MoldComponent -->
<g id="edge26" class="edge"><title>MoldSpare&#45;&gt;MoldComponent</title>
<path fill="none" stroke="#58d33a" d="M975.707,-581.073C983.101,-549.991 991.661,-514.007 998.686,-484.479"/>
<ellipse fill="none" stroke="#58d33a" cx="974.684" cy="-585.376" rx="4.00001" ry="4.00001"/>
<polygon fill="#58d33a" stroke="#58d33a" points="998.691,-484.458 1005.38,-475.771 999.848,-479.594 1001,-474.729 1001,-474.729 1001,-474.729 999.848,-479.594 996.627,-473.688 998.691,-484.458 998.691,-484.458"/>
</g>
<!-- Prevaluation -->
<g id="node17" class="node"><title>Prevaluation</title>
<path fill="none" stroke="black" d="M1416.82,-804.5C1416.82,-804.5 1554.61,-804.5 1554.61,-804.5 1560.61,-804.5 1566.61,-810.5 1566.61,-816.5 1566.61,-816.5 1566.61,-1046.5 1566.61,-1046.5 1566.61,-1052.5 1560.61,-1058.5 1554.61,-1058.5 1554.61,-1058.5 1416.82,-1058.5 1416.82,-1058.5 1410.82,-1058.5 1404.82,-1052.5 1404.82,-1046.5 1404.82,-1046.5 1404.82,-816.5 1404.82,-816.5 1404.82,-810.5 1410.82,-804.5 1416.82,-804.5"/>
<text text-anchor="middle" x="1485.72" y="-1043.3" font-family="Times,serif" font-size="14.00">Prevaluation</text>
<polyline fill="none" stroke="black" points="1404.82,-1036.5 1566.61,-1036.5 "/>
<text text-anchor="start" x="1412.82" y="-1021.3" font-family="Times,serif" font-size="14.00">id :integer</text>
<text text-anchor="start" x="1412.82" y="-1007.3" font-family="Times,serif" font-size="14.00">number :string</text>
<text text-anchor="start" x="1412.82" y="-993.3" font-family="Times,serif" font-size="14.00">policy :string</text>
<text text-anchor="start" x="1412.82" y="-979.3" font-family="Times,serif" font-size="14.00">subsection :string</text>
<text text-anchor="start" x="1412.82" y="-965.3" font-family="Times,serif" font-size="14.00">expedition_date :date</text>
<text text-anchor="start" x="1412.82" y="-951.3" font-family="Times,serif" font-size="14.00">valuation_date :date</text>
<text text-anchor="start" x="1412.82" y="-937.3" font-family="Times,serif" font-size="14.00">deductible_value :float</text>
<text text-anchor="start" x="1412.82" y="-923.3" font-family="Times,serif" font-size="14.00">commercial_value :float</text>
<text text-anchor="start" x="1412.82" y="-909.3" font-family="Times,serif" font-size="14.00">requires_crane :boolean</text>
<text text-anchor="start" x="1412.82" y="-895.3" font-family="Times,serif" font-size="14.00">collection_status :boolean</text>
<text text-anchor="start" x="1412.82" y="-881.3" font-family="Times,serif" font-size="14.00">special_conditions :string</text>
<text text-anchor="start" x="1412.82" y="-867.3" font-family="Times,serif" font-size="14.00">third_insured :boolean</text>
<text text-anchor="start" x="1412.82" y="-853.3" font-family="Times,serif" font-size="14.00">agent_name :string</text>
<text text-anchor="start" x="1412.82" y="-839.3" font-family="Times,serif" font-size="14.00">comment :text</text>
<text text-anchor="start" x="1412.82" y="-825.3" font-family="Times,serif" font-size="14.00">created_at :datetime</text>
<text text-anchor="start" x="1412.82" y="-811.3" font-family="Times,serif" font-size="14.00">updated_at :datetime</text>
</g>
<!-- Prevaluation&#45;&gt;Insured -->
<g id="edge28" class="edge"><title>Prevaluation&#45;&gt;Insured</title>
<path fill="none" stroke="#29b8ec" d="M1445.42,-796.495C1439.01,-775.196 1432.57,-753.77 1426.7,-734.249"/>
<ellipse fill="none" stroke="#29b8ec" cx="1446.59" cy="-800.382" rx="4.00001" ry="4.00001"/>
<polygon fill="#29b8ec" stroke="#29b8ec" points="1426.65,-734.104 1428.08,-723.232 1425.21,-729.316 1423.77,-724.528 1423.77,-724.528 1423.77,-724.528 1425.21,-729.316 1419.47,-725.824 1426.65,-734.104 1426.65,-734.104"/>
</g>
<!-- PrevaluationImage -->
<g id="node18" class="node"><title>PrevaluationImage</title>
<path fill="none" stroke="black" d="M1508.15,-610.5C1508.15,-610.5 1627.29,-610.5 1627.29,-610.5 1633.29,-610.5 1639.29,-616.5 1639.29,-622.5 1639.29,-622.5 1639.29,-684.5 1639.29,-684.5 1639.29,-690.5 1633.29,-696.5 1627.29,-696.5 1627.29,-696.5 1508.15,-696.5 1508.15,-696.5 1502.15,-696.5 1496.15,-690.5 1496.15,-684.5 1496.15,-684.5 1496.15,-622.5 1496.15,-622.5 1496.15,-616.5 1502.15,-610.5 1508.15,-610.5"/>
<text text-anchor="middle" x="1567.72" y="-681.3" font-family="Times,serif" font-size="14.00">PrevaluationImage</text>
<polyline fill="none" stroke="black" points="1496.15,-674.5 1639.29,-674.5 "/>
<text text-anchor="start" x="1504.15" y="-659.3" font-family="Times,serif" font-size="14.00">id :integer</text>
<text text-anchor="start" x="1504.15" y="-645.3" font-family="Times,serif" font-size="14.00">prevaluation_id :string</text>
<text text-anchor="start" x="1504.15" y="-631.3" font-family="Times,serif" font-size="14.00">created_at :datetime</text>
<text text-anchor="start" x="1504.15" y="-617.3" font-family="Times,serif" font-size="14.00">updated_at :datetime</text>
</g>
<!-- Prevaluation&#45;&gt;PrevaluationImage -->
<g id="edge30" class="edge"><title>Prevaluation&#45;&gt;PrevaluationImage</title>
<path fill="none" stroke="#608a0f" d="M1525.53,-796.48C1535.05,-764.451 1544.65,-732.137 1552.28,-706.445"/>
<ellipse fill="none" stroke="#608a0f" cx="1524.38" cy="-800.378" rx="4.00001" ry="4.00001"/>
<polygon fill="#608a0f" stroke="#608a0f" points="1552.37,-706.166 1559.53,-697.861 1553.79,-701.373 1555.21,-696.58 1555.21,-696.58 1555.21,-696.58 1553.79,-701.373 1550.9,-695.298 1552.37,-706.166 1552.37,-706.166"/>
</g>
<!-- Prevaluation&#45;&gt;StockCar -->
<g id="edge27" class="edge"><title>Prevaluation&#45;&gt;StockCar</title>
<path fill="none" stroke="#e99055" d="M1398.66,-848.649C1372.39,-823.059 1343.86,-794.354 1318.72,-767 1317.85,-766.056 1316.98,-765.105 1316.11,-764.147"/>
<ellipse fill="none" stroke="#e99055" cx="1401.71" cy="-851.612" rx="4.00002" ry="4.00002"/>
<polygon fill="#e99055" stroke="#e99055" points="1316.09,-764.131 1312.74,-753.69 1312.74,-760.417 1309.4,-756.703 1309.4,-756.703 1309.4,-756.703 1312.74,-760.417 1306.05,-759.715 1316.09,-764.131 1316.09,-764.131"/>
</g>
<!-- Valuation -->
<g id="node27" class="node"><title>Valuation</title>
<path fill="none" stroke="black" d="M1669.21,-603.5C1669.21,-603.5 1778.22,-603.5 1778.22,-603.5 1784.22,-603.5 1790.22,-609.5 1790.22,-615.5 1790.22,-615.5 1790.22,-691.5 1790.22,-691.5 1790.22,-697.5 1784.22,-703.5 1778.22,-703.5 1778.22,-703.5 1669.21,-703.5 1669.21,-703.5 1663.21,-703.5 1657.21,-697.5 1657.21,-691.5 1657.21,-691.5 1657.21,-615.5 1657.21,-615.5 1657.21,-609.5 1663.21,-603.5 1669.21,-603.5"/>
<text text-anchor="middle" x="1723.72" y="-688.3" font-family="Times,serif" font-size="14.00">Valuation</text>
<polyline fill="none" stroke="black" points="1657.21,-681.5 1790.22,-681.5 "/>
<text text-anchor="start" x="1665.21" y="-666.3" font-family="Times,serif" font-size="14.00">id :integer</text>
<text text-anchor="start" x="1665.21" y="-652.3" font-family="Times,serif" font-size="14.00">client_code :string</text>
<text text-anchor="start" x="1665.21" y="-638.3" font-family="Times,serif" font-size="14.00">edited_by :string</text>
<text text-anchor="start" x="1665.21" y="-624.3" font-family="Times,serif" font-size="14.00">created_at :datetime</text>
<text text-anchor="start" x="1665.21" y="-610.3" font-family="Times,serif" font-size="14.00">updated_at :datetime</text>
</g>
<!-- Prevaluation&#45;&gt;Valuation -->
<g id="edge29" class="edge"><title>Prevaluation&#45;&gt;Valuation</title>
<path fill="none" stroke="#138736" d="M1572.69,-849.558C1598.27,-824.112 1625.59,-795.259 1648.72,-767 1663.15,-749.366 1677.42,-728.929 1689.58,-710.349"/>
<ellipse fill="none" stroke="#138736" cx="1569.76" cy="-852.458" rx="4.00002" ry="4.00002"/>
<ellipse fill="#138736" stroke="#138736" cx="1691.78" cy="-706.953" rx="4.00002" ry="4.00002"/>
</g>
<!-- StockCarImage -->
<g id="node21" class="node"><title>StockCarImage</title>
<path fill="none" stroke="black" d="M1170.82,-381.5C1170.82,-381.5 1280.61,-381.5 1280.61,-381.5 1286.61,-381.5 1292.61,-387.5 1292.61,-393.5 1292.61,-393.5 1292.61,-455.5 1292.61,-455.5 1292.61,-461.5 1286.61,-467.5 1280.61,-467.5 1280.61,-467.5 1170.82,-467.5 1170.82,-467.5 1164.82,-467.5 1158.82,-461.5 1158.82,-455.5 1158.82,-455.5 1158.82,-393.5 1158.82,-393.5 1158.82,-387.5 1164.82,-381.5 1170.82,-381.5"/>
<text text-anchor="middle" x="1225.72" y="-452.3" font-family="Times,serif" font-size="14.00">StockCarImage</text>
<polyline fill="none" stroke="black" points="1158.82,-445.5 1292.61,-445.5 "/>
<text text-anchor="start" x="1166.82" y="-430.3" font-family="Times,serif" font-size="14.00">id :integer</text>
<text text-anchor="start" x="1166.82" y="-416.3" font-family="Times,serif" font-size="14.00">stock_car_id :integer</text>
<text text-anchor="start" x="1166.82" y="-402.3" font-family="Times,serif" font-size="14.00">created_at :datetime</text>
<text text-anchor="start" x="1166.82" y="-388.3" font-family="Times,serif" font-size="14.00">updated_at :datetime</text>
</g>
<!-- StockCar&#45;&gt;StockCarImage -->
<g id="edge31" class="edge"><title>StockCar&#45;&gt;StockCarImage</title>
<path fill="none" stroke="#8bf227" d="M1225.72,-532.134C1225.72,-513.148 1225.72,-494.419 1225.72,-478.083"/>
<ellipse fill="none" stroke="#8bf227" cx="1225.72" cy="-536.33" rx="4" ry="4"/>
<polygon fill="#8bf227" stroke="#8bf227" points="1225.72,-477.715 1230.22,-467.715 1225.72,-472.715 1225.72,-467.715 1225.72,-467.715 1225.72,-467.715 1225.72,-472.715 1221.22,-467.715 1225.72,-477.715 1225.72,-477.715"/>
</g>
<!-- StockSpareImage -->
<g id="node24" class="node"><title>StockSpareImage</title>
<path fill="none" stroke="black" d="M917.597,-0.5C917.597,-0.5 1039.83,-0.5 1039.83,-0.5 1045.83,-0.5 1051.83,-6.5 1051.83,-12.5 1051.83,-12.5 1051.83,-74.5 1051.83,-74.5 1051.83,-80.5 1045.83,-86.5 1039.83,-86.5 1039.83,-86.5 917.597,-86.5 917.597,-86.5 911.597,-86.5 905.597,-80.5 905.597,-74.5 905.597,-74.5 905.597,-12.5 905.597,-12.5 905.597,-6.5 911.597,-0.5 917.597,-0.5"/>
<text text-anchor="middle" x="978.716" y="-71.3" font-family="Times,serif" font-size="14.00">StockSpareImage</text>
<polyline fill="none" stroke="black" points="905.597,-64.5 1051.83,-64.5 "/>
<text text-anchor="start" x="913.597" y="-49.3" font-family="Times,serif" font-size="14.00">id :integer</text>
<text text-anchor="start" x="913.597" y="-35.3" font-family="Times,serif" font-size="14.00">stock_spare_id :integer</text>
<text text-anchor="start" x="913.597" y="-21.3" font-family="Times,serif" font-size="14.00">created_at :datetime</text>
<text text-anchor="start" x="913.597" y="-7.3" font-family="Times,serif" font-size="14.00">updated_at :datetime</text>
</g>
<!-- StockSpare&#45;&gt;StockSpareImage -->
<g id="edge32" class="edge"><title>StockSpare&#45;&gt;StockSpareImage</title>
<path fill="none" stroke="#f13fc7" d="M978.716,-116.457C978.716,-109.761 978.716,-103.179 978.716,-96.8812"/>
<ellipse fill="none" stroke="#f13fc7" cx="978.716" cy="-120.493" rx="4" ry="4"/>
<polygon fill="#f13fc7" stroke="#f13fc7" points="978.716,-96.5794 983.216,-86.5794 978.716,-91.5794 978.716,-86.5794 978.716,-86.5794 978.716,-86.5794 978.716,-91.5794 974.216,-86.5795 978.716,-96.5794 978.716,-96.5794"/>
</g>
<!-- User -->
<g id="node26" class="node"><title>User</title>
<path fill="none" stroke="black" d="M434.652,-1248.5C434.652,-1248.5 560.78,-1248.5 560.78,-1248.5 566.78,-1248.5 572.78,-1254.5 572.78,-1260.5 572.78,-1260.5 572.78,-1392.5 572.78,-1392.5 572.78,-1398.5 566.78,-1404.5 560.78,-1404.5 560.78,-1404.5 434.652,-1404.5 434.652,-1404.5 428.652,-1404.5 422.652,-1398.5 422.652,-1392.5 422.652,-1392.5 422.652,-1260.5 422.652,-1260.5 422.652,-1254.5 428.652,-1248.5 434.652,-1248.5"/>
<text text-anchor="middle" x="497.716" y="-1389.3" font-family="Times,serif" font-size="14.00">User</text>
<polyline fill="none" stroke="black" points="422.652,-1382.5 572.78,-1382.5 "/>
<text text-anchor="start" x="430.652" y="-1367.3" font-family="Times,serif" font-size="14.00">id :integer</text>
<text text-anchor="start" x="430.652" y="-1353.3" font-family="Times,serif" font-size="14.00">name :string</text>
<text text-anchor="start" x="430.652" y="-1339.3" font-family="Times,serif" font-size="14.00">email :string</text>
<text text-anchor="start" x="430.652" y="-1325.3" font-family="Times,serif" font-size="14.00">username :string</text>
<text text-anchor="start" x="430.652" y="-1311.3" font-family="Times,serif" font-size="14.00">privileges :string</text>
<text text-anchor="start" x="430.652" y="-1297.3" font-family="Times,serif" font-size="14.00">created_at :datetime</text>
<text text-anchor="start" x="430.652" y="-1283.3" font-family="Times,serif" font-size="14.00">updated_at :datetime</text>
<text text-anchor="start" x="430.652" y="-1269.3" font-family="Times,serif" font-size="14.00">password_digest :string</text>
<text text-anchor="start" x="430.652" y="-1255.3" font-family="Times,serif" font-size="14.00">remember_token :string</text>
</g>
<!-- Warehouse -->
<g id="node28" class="node"><title>Warehouse</title>
<path fill="none" stroke="black" d="M1101.21,-874.5C1101.21,-874.5 1210.22,-874.5 1210.22,-874.5 1216.22,-874.5 1222.22,-880.5 1222.22,-886.5 1222.22,-886.5 1222.22,-976.5 1222.22,-976.5 1222.22,-982.5 1216.22,-988.5 1210.22,-988.5 1210.22,-988.5 1101.21,-988.5 1101.21,-988.5 1095.21,-988.5 1089.21,-982.5 1089.21,-976.5 1089.21,-976.5 1089.21,-886.5 1089.21,-886.5 1089.21,-880.5 1095.21,-874.5 1101.21,-874.5"/>
<text text-anchor="middle" x="1155.72" y="-973.3" font-family="Times,serif" font-size="14.00">Warehouse</text>
<polyline fill="none" stroke="black" points="1089.21,-966.5 1222.22,-966.5 "/>
<text text-anchor="start" x="1097.21" y="-951.3" font-family="Times,serif" font-size="14.00">id :integer</text>
<text text-anchor="start" x="1097.21" y="-937.3" font-family="Times,serif" font-size="14.00">branch :string</text>
<text text-anchor="start" x="1097.21" y="-923.3" font-family="Times,serif" font-size="14.00">location :string</text>
<text text-anchor="start" x="1097.21" y="-909.3" font-family="Times,serif" font-size="14.00">geolocation :string</text>
<text text-anchor="start" x="1097.21" y="-895.3" font-family="Times,serif" font-size="14.00">created_at :datetime</text>
<text text-anchor="start" x="1097.21" y="-881.3" font-family="Times,serif" font-size="14.00">updated_at :datetime</text>
</g>
<!-- Warehouse&#45;&gt;StockCar -->
<g id="edge34" class="edge"><title>Warehouse&#45;&gt;StockCar</title>
<path fill="none" stroke="#74efe4" d="M1171.94,-866.525C1178.73,-839.764 1186.85,-807.728 1194.71,-776.762"/>
<ellipse fill="none" stroke="#74efe4" cx="1170.95" cy="-870.437" rx="4.00001" ry="4.00001"/>
<polygon fill="#74efe4" stroke="#74efe4" points="1194.79,-776.447 1201.61,-767.86 1196.02,-771.6 1197.25,-766.754 1197.25,-766.754 1197.25,-766.754 1196.02,-771.6 1192.88,-765.648 1194.79,-776.447 1194.79,-776.447"/>
</g>
<!-- Warehouse&#45;&gt;StockSpare -->
<g id="edge33" class="edge"><title>Warehouse&#45;&gt;StockSpare</title>
<path fill="none" stroke="#e7f08d" d="M1145.88,-865.918C1141.49,-835.887 1136.49,-799.666 1132.72,-767 1121.95,-673.683 1132.35,-432.069 1094.72,-346 1087.13,-328.647 1076.25,-312.051 1064.16,-296.891"/>
<ellipse fill="none" stroke="#e7f08d" cx="1146.51" cy="-870.258" rx="4.00001" ry="4.00001"/>
<polygon fill="#e7f08d" stroke="#e7f08d" points="1064.09,-296.814 1061.2,-286.235 1060.91,-292.956 1057.73,-289.097 1057.73,-289.097 1057.73,-289.097 1060.91,-292.956 1054.26,-291.959 1064.09,-296.814 1064.09,-296.814"/>
</g>
</g>
</svg>
