<?xml version="1.0" encoding="UTF-8" standalone="no"?>
<!DOCTYPE svg PUBLIC "-//W3C//DTD SVG 1.1//EN"
 "http://www.w3.org/Graphics/SVG/1.1/DTD/svg11.dtd">
<!-- Generated by graphviz version 2.38.0 (20140413.2041)
 -->
<!-- Title: models_diagram Pages: 1 -->
<svg width="1620pt" height="441pt"
 viewBox="0.00 0.00 1619.69 441.00" xmlns="http://www.w3.org/2000/svg" xmlns:xlink="http://www.w3.org/1999/xlink">
<g id="graph0" class="graph" transform="scale(1 1) rotate(0) translate(4 437)">
<title>models_diagram</title>
<polygon fill="white" stroke="none" points="-4,4 -4,-437 1615.69,-437 1615.69,4 -4,4"/>
<!-- _diagram_info -->
<g id="node1" class="node"><title>_diagram_info</title>
<text text-anchor="start" x="8" y="-418.6" font-family="Times,serif" font-size="13.00">Models diagram</text>
<text text-anchor="start" x="8" y="-405.6" font-family="Times,serif" font-size="13.00">Date: Feb 16 2015 &#45; 23:55</text>
<text text-anchor="start" x="8" y="-392.6" font-family="Times,serif" font-size="13.00">Migration version: 20150212192743</text>
<text text-anchor="start" x="8" y="-379.6" font-family="Times,serif" font-size="13.00">Generated by RailRoady 1.3.0</text>
<text text-anchor="start" x="8" y="-366.6" font-family="Times,serif" font-size="13.00">http://railroady.prestonlee.com</text>
</g>
<!-- Brand -->
<g id="node2" class="node"><title>Brand</title>
<ellipse fill="none" stroke="black" cx="944.688" cy="-396.5" rx="31.9393" ry="18"/>
<text text-anchor="middle" x="944.688" y="-392.3" font-family="Times,serif" font-size="14.00">Brand</text>
</g>
<!-- GenericCar -->
<g id="node7" class="node"><title>GenericCar</title>
<ellipse fill="none" stroke="black" cx="454.688" cy="-306" rx="50.7224" ry="18"/>
<text text-anchor="middle" x="454.688" y="-301.8" font-family="Times,serif" font-size="14.00">GenericCar</text>
</g>
<!-- Brand&#45;&gt;GenericCar -->
<g id="edge1" class="edge"><title>Brand&#45;&gt;GenericCar</title>
<path fill="none" stroke="#5a42bb" d="M906.808,-388.658C820.446,-373.06 608.729,-334.822 508.704,-316.756"/>
<ellipse fill="none" stroke="#5a42bb" cx="910.837" cy="-389.386" rx="4.00001" ry="4.00001"/>
<polygon fill="#5a42bb" stroke="#5a42bb" points="508.644,-316.745 499.603,-310.539 503.724,-315.857 498.803,-314.968 498.803,-314.968 498.803,-314.968 503.724,-315.857 498.004,-319.396 508.644,-316.745 508.644,-316.745"/>
</g>
<!-- ModelAcronym -->
<g id="node14" class="node"><title>ModelAcronym</title>
<ellipse fill="none" stroke="black" cx="1435.69" cy="-306" rx="66.6925" ry="18"/>
<text text-anchor="middle" x="1435.69" y="-301.8" font-family="Times,serif" font-size="14.00">ModelAcronym</text>
</g>
<!-- Brand&#45;&gt;ModelAcronym -->
<g id="edge2" class="edge"><title>Brand&#45;&gt;ModelAcronym</title>
<path fill="none" stroke="#e55a52" d="M964.223,-374.286C970.518,-368.714 977.898,-363.336 985.688,-360 1139.6,-294.08 1195.37,-350.56 1360.69,-324 1366.43,-323.077 1372.39,-321.977 1378.33,-320.785"/>
<ellipse fill="none" stroke="#e55a52" cx="961.225" cy="-377.111" rx="4.00002" ry="4.00002"/>
<polygon fill="#e55a52" stroke="#e55a52" points="1378.47,-320.756 1389.18,-323.113 1383.36,-319.732 1388.25,-318.709 1388.25,-318.709 1388.25,-318.709 1383.36,-319.732 1387.33,-314.304 1378.47,-320.756 1378.47,-320.756"/>
</g>
<!-- CarLikelihood -->
<g id="node3" class="node"><title>CarLikelihood</title>
<ellipse fill="none" stroke="black" cx="307.688" cy="-162" rx="61.8649" ry="18"/>
<text text-anchor="middle" x="307.688" y="-157.8" font-family="Times,serif" font-size="14.00">CarLikelihood</text>
</g>
<!-- Generation -->
<g id="node6" class="node"><title>Generation</title>
<ellipse fill="none" stroke="black" cx="358.688" cy="-90" rx="49.286" ry="18"/>
<text text-anchor="middle" x="358.688" y="-85.8" font-family="Times,serif" font-size="14.00">Generation</text>
</g>
<!-- CarLikelihood&#45;&gt;Generation -->
<g id="edge4" class="edge"><title>CarLikelihood&#45;&gt;Generation</title>
<path fill="none" stroke="#cf4cab" d="M326.003,-135.861C330.675,-129.449 335.696,-122.557 340.368,-116.145"/>
<polygon fill="#cf4cab" stroke="#cf4cab" points="325.922,-135.973 316.396,-141.405 322.978,-140.014 320.033,-144.055 320.033,-144.055 320.033,-144.055 322.978,-140.014 323.67,-146.705 325.922,-135.973 325.922,-135.973"/>
<polygon fill="#cf4cab" stroke="#cf4cab" points="340.567,-115.871 350.093,-110.439 343.511,-111.83 346.456,-107.789 346.456,-107.789 346.456,-107.789 343.511,-111.83 342.819,-105.139 340.567,-115.871 340.567,-115.871"/>
</g>
<!-- GenericCarGeneration -->
<g id="node8" class="node"><title>GenericCarGeneration</title>
<ellipse fill="none" stroke="black" cx="358.688" cy="-18" rx="90.2944" ry="18"/>
<text text-anchor="middle" x="358.688" y="-13.8" font-family="Times,serif" font-size="14.00">GenericCarGeneration</text>
</g>
<!-- CarLikelihood&#45;&gt;GenericCarGeneration -->
<g id="edge3" class="edge"><title>CarLikelihood&#45;&gt;GenericCarGeneration</title>
<path fill="none" stroke="#9eb632" d="M299.499,-135.838C294.944,-117.397 291.796,-92.1697 300.688,-72 305.846,-60.2987 315.005,-50.0598 324.542,-41.7816"/>
<ellipse fill="none" stroke="#9eb632" cx="300.607" cy="-139.929" rx="4.00001" ry="4.00001"/>
<polygon fill="#9eb632" stroke="#9eb632" points="324.785,-41.5852 335.391,-38.7999 328.674,-38.4425 332.563,-35.2999 332.563,-35.2999 332.563,-35.2999 328.674,-38.4425 329.734,-31.7998 324.785,-41.5852 324.785,-41.5852"/>
</g>
<!-- CarType -->
<g id="node4" class="node"><title>CarType</title>
<ellipse fill="none" stroke="black" cx="265.688" cy="-396.5" rx="40.3571" ry="18"/>
<text text-anchor="middle" x="265.688" y="-392.3" font-family="Times,serif" font-size="14.00">CarType</text>
</g>
<!-- CarType&#45;&gt;CarLikelihood -->
<g id="edge5" class="edge"><title>CarType&#45;&gt;CarLikelihood</title>
<path fill="none" stroke="#a3edac" d="M243.51,-373.579C210.79,-338.5 156.916,-268.374 190.688,-216 203.583,-196.002 226.057,-183.467 247.883,-175.648"/>
<ellipse fill="none" stroke="#a3edac" cx="246.589" cy="-376.813" rx="4.00002" ry="4.00002"/>
<polygon fill="#a3edac" stroke="#a3edac" points="248,-175.609 258.906,-176.751 252.748,-174.043 257.497,-172.477 257.497,-172.477 257.497,-172.477 252.748,-174.043 256.088,-168.204 248,-175.609 248,-175.609"/>
</g>
<!-- CarType&#45;&gt;GenericCar -->
<g id="edge7" class="edge"><title>CarType&#45;&gt;GenericCar</title>
<path fill="none" stroke="#332ce4" d="M301.903,-378.542C334.506,-363.276 382.295,-340.898 415.72,-325.247"/>
<polygon fill="#332ce4" stroke="#332ce4" points="301.823,-378.579 290.859,-378.745 297.295,-380.7 292.767,-382.82 292.767,-382.82 292.767,-382.82 297.295,-380.7 294.675,-386.895 301.823,-378.579 301.823,-378.579"/>
<polygon fill="#332ce4" stroke="#332ce4" points="416.113,-325.063 427.078,-324.897 420.641,-322.942 425.169,-320.822 425.169,-320.822 425.169,-320.822 420.641,-322.942 423.261,-316.747 416.113,-325.063 416.113,-325.063"/>
</g>
<!-- TypeLikelihood -->
<g id="node25" class="node"><title>TypeLikelihood</title>
<ellipse fill="none" stroke="black" cx="265.688" cy="-234" rx="66.4333" ry="18"/>
<text text-anchor="middle" x="265.688" y="-229.8" font-family="Times,serif" font-size="14.00">TypeLikelihood</text>
</g>
<!-- CarType&#45;&gt;TypeLikelihood -->
<g id="edge6" class="edge"><title>CarType&#45;&gt;TypeLikelihood</title>
<path fill="none" stroke="#fae531" d="M265.688,-370.079C265.688,-340.675 265.688,-292.455 265.688,-262.284"/>
<ellipse fill="none" stroke="#fae531" cx="265.688" cy="-374.324" rx="4" ry="4"/>
<polygon fill="#fae531" stroke="#fae531" points="265.688,-262.053 270.188,-252.053 265.688,-257.053 265.688,-252.053 265.688,-252.053 265.688,-252.053 265.688,-257.053 261.188,-252.053 265.688,-262.053 265.688,-262.053"/>
</g>
<!-- FamilyAcronym -->
<g id="node5" class="node"><title>FamilyAcronym</title>
<ellipse fill="none" stroke="black" cx="698.688" cy="-162" rx="68.6305" ry="18"/>
<text text-anchor="middle" x="698.688" y="-157.8" font-family="Times,serif" font-size="14.00">FamilyAcronym</text>
</g>
<!-- Generation&#45;&gt;GenericCarGeneration -->
<g id="edge8" class="edge"><title>Generation&#45;&gt;GenericCarGeneration</title>
<path fill="none" stroke="#36113f" d="M358.688,-63.6398C358.688,-58.0629 358.688,-52.1319 358.688,-46.4761"/>
<ellipse fill="none" stroke="#36113f" cx="358.688" cy="-67.6966" rx="4" ry="4"/>
<polygon fill="#36113f" stroke="#36113f" points="358.688,-46.1043 363.188,-36.1043 358.688,-41.1043 358.688,-36.1043 358.688,-36.1043 358.688,-36.1043 358.688,-41.1043 354.188,-36.1044 358.688,-46.1043 358.688,-46.1043"/>
</g>
<!-- GenericCar&#45;&gt;CarLikelihood -->
<g id="edge14" class="edge"><title>GenericCar&#45;&gt;CarLikelihood</title>
<path fill="none" stroke="#4abf27" d="M424.942,-285.049C411.765,-275.654 396.403,-263.909 383.688,-252 362.339,-232.006 340.969,-206.356 326.351,-187.733"/>
<ellipse fill="none" stroke="#4abf27" cx="428.336" cy="-287.436" rx="4.00002" ry="4.00002"/>
<polygon fill="#4abf27" stroke="#4abf27" points="326.263,-187.619 323.691,-176.959 323.199,-183.668 320.135,-179.717 320.135,-179.717 320.135,-179.717 323.199,-183.668 316.579,-182.475 326.263,-187.619 326.263,-187.619"/>
</g>
<!-- GenericCar&#45;&gt;Generation -->
<g id="edge12" class="edge"><title>GenericCar&#45;&gt;Generation</title>
<path fill="none" stroke="#435bd0" d="M437.679,-279.799C432.219,-271.178 426.377,-261.348 421.688,-252 415.411,-239.488 384.83,-159.721 368.697,-117.359"/>
<polygon fill="#435bd0" stroke="#435bd0" points="437.731,-279.88 439.389,-290.72 440.449,-284.077 443.166,-288.275 443.166,-288.275 443.166,-288.275 440.449,-284.077 446.943,-285.829 437.731,-279.88 437.731,-279.88"/>
<polygon fill="#435bd0" stroke="#435bd0" points="368.672,-117.293 369.322,-106.346 366.894,-112.619 365.116,-107.946 365.116,-107.946 365.116,-107.946 366.894,-112.619 360.91,-109.546 368.672,-117.293 368.672,-117.293"/>
</g>
<!-- GenericCar&#45;&gt;GenericCarGeneration -->
<g id="edge11" class="edge"><title>GenericCar&#45;&gt;GenericCarGeneration</title>
<path fill="none" stroke="#0c078c" d="M452.66,-279.64C448.109,-226.953 435.951,-107.596 416.688,-72 410.5,-60.566 400.88,-50.2993 391.241,-41.9157"/>
<ellipse fill="none" stroke="#0c078c" cx="453.012" cy="-283.807" rx="4" ry="4"/>
<polygon fill="#0c078c" stroke="#0c078c" points="390.947,-41.6742 386.069,-31.8528 387.081,-38.5031 383.215,-35.3321 383.215,-35.3321 383.215,-35.3321 387.081,-38.5031 380.361,-38.8113 390.947,-41.6742 390.947,-41.6742"/>
</g>
<!-- GenericFamily -->
<g id="node9" class="node"><title>GenericFamily</title>
<ellipse fill="none" stroke="black" cx="631.688" cy="-234" rx="63.301" ry="18"/>
<text text-anchor="middle" x="631.688" y="-229.8" font-family="Times,serif" font-size="14.00">GenericFamily</text>
</g>
<!-- GenericCar&#45;&gt;GenericFamily -->
<g id="edge15" class="edge"><title>GenericCar&#45;&gt;GenericFamily</title>
<path fill="none" stroke="#44519d" d="M497.023,-288.257C524.128,-277.538 559.256,-263.645 586.838,-252.737"/>
<polygon fill="#44519d" stroke="#44519d" points="496.864,-288.32 485.91,-287.813 492.215,-290.159 487.565,-291.998 487.565,-291.998 487.565,-291.998 492.215,-290.159 489.22,-296.182 496.864,-288.32 496.864,-288.32"/>
<polygon fill="#44519d" stroke="#44519d" points="586.955,-252.691 597.909,-253.198 591.604,-250.852 596.254,-249.013 596.254,-249.013 596.254,-249.013 591.604,-250.852 594.599,-244.829 586.955,-252.691 586.955,-252.691"/>
</g>
<!-- GenericFittable -->
<g id="node10" class="node"><title>GenericFittable</title>
<ellipse fill="none" stroke="black" cx="586.688" cy="-90" rx="65.2217" ry="18"/>
<text text-anchor="middle" x="586.688" y="-85.8" font-family="Times,serif" font-size="14.00">GenericFittable</text>
</g>
<!-- GenericCar&#45;&gt;GenericFittable -->
<g id="edge10" class="edge"><title>GenericCar&#45;&gt;GenericFittable</title>
<path fill="none" stroke="#c66211" d="M454.593,-279.809C455.704,-245.724 462.223,-184.528 492.688,-144 504.181,-128.711 521.457,-117.187 538.076,-108.857"/>
<ellipse fill="none" stroke="#c66211" cx="454.504" cy="-283.862" rx="4" ry="4"/>
<polygon fill="#c66211" stroke="#c66211" points="538.155,-108.82 549.119,-108.624 542.678,-106.687 547.2,-104.554 547.2,-104.554 547.2,-104.554 542.678,-106.687 545.28,-100.484 538.155,-108.82 538.155,-108.82"/>
</g>
<!-- StockCar -->
<g id="node20" class="node"><title>StockCar</title>
<ellipse fill="none" stroke="black" cx="1198.69" cy="-234" rx="43.0387" ry="18"/>
<text text-anchor="middle" x="1198.69" y="-229.8" font-family="Times,serif" font-size="14.00">StockCar</text>
</g>
<!-- GenericCar&#45;&gt;StockCar -->
<g id="edge9" class="edge"><title>GenericCar&#45;&gt;StockCar</title>
<path fill="none" stroke="#2a20c1" d="M511.535,-299.651C651.77,-286.457 1012.57,-252.511 1147.1,-239.853"/>
<ellipse fill="none" stroke="#2a20c1" cx="507.199" cy="-300.059" rx="4" ry="4"/>
<polygon fill="#2a20c1" stroke="#2a20c1" points="1147.19,-239.845 1157.57,-243.389 1152.17,-239.377 1157.15,-238.908 1157.15,-238.908 1157.15,-238.908 1152.17,-239.377 1156.73,-234.428 1147.19,-239.845 1147.19,-239.845"/>
</g>
<!-- GenericCar&#45;&gt;TypeLikelihood -->
<g id="edge13" class="edge"><title>GenericCar&#45;&gt;TypeLikelihood</title>
<path fill="none" stroke="#4c38f2" d="M413.276,-289.662C383.716,-278.714 343.898,-263.967 313.07,-252.549"/>
<ellipse fill="none" stroke="#4c38f2" cx="417.147" cy="-291.096" rx="4.00001" ry="4.00001"/>
<polygon fill="#4c38f2" stroke="#4c38f2" points="312.778,-252.441 304.964,-244.748 308.09,-250.704 303.401,-248.968 303.401,-248.968 303.401,-248.968 308.09,-250.704 301.838,-253.188 312.778,-252.441 312.778,-252.441"/>
</g>
<!-- GenericFamily&#45;&gt;CarLikelihood -->
<g id="edge16" class="edge"><title>GenericFamily&#45;&gt;CarLikelihood</title>
<path fill="none" stroke="#7c0bbf" d="M574.679,-220.683C515.877,-207.979 424.654,-188.271 365.543,-175.5"/>
<ellipse fill="none" stroke="#7c0bbf" cx="578.921" cy="-221.6" rx="4.00001" ry="4.00001"/>
<polygon fill="#7c0bbf" stroke="#7c0bbf" points="365.394,-175.467 356.57,-168.957 360.507,-174.412 355.619,-173.356 355.619,-173.356 355.619,-173.356 360.507,-174.412 354.669,-177.754 365.394,-175.467 365.394,-175.467"/>
</g>
<!-- GenericFamily&#45;&gt;FamilyAcronym -->
<g id="edge19" class="edge"><title>GenericFamily&#45;&gt;FamilyAcronym</title>
<path fill="none" stroke="#a8c388" d="M653.248,-210.474C660.36,-203.044 668.299,-194.75 675.526,-187.199"/>
<ellipse fill="none" stroke="#a8c388" cx="650.332" cy="-213.521" rx="4.00002" ry="4.00002"/>
<polygon fill="#a8c388" stroke="#a8c388" points="675.544,-187.18 685.709,-183.068 679.001,-183.568 682.458,-179.956 682.458,-179.956 682.458,-179.956 679.001,-183.568 679.207,-176.845 675.544,-187.18 675.544,-187.18"/>
</g>
<!-- GenericSpare -->
<g id="node11" class="node"><title>GenericSpare</title>
<ellipse fill="none" stroke="black" cx="881.688" cy="-162" rx="58.4563" ry="18"/>
<text text-anchor="middle" x="881.688" y="-157.8" font-family="Times,serif" font-size="14.00">GenericSpare</text>
</g>
<!-- GenericFamily&#45;&gt;GenericSpare -->
<g id="edge18" class="edge"><title>GenericFamily&#45;&gt;GenericSpare</title>
<path fill="none" stroke="#c27bc0" d="M684.791,-218.131C727.608,-206.142 787.477,-189.379 829.931,-177.492"/>
<polygon fill="#c27bc0" stroke="#c27bc0" points="684.579,-218.19 673.736,-216.554 679.764,-219.539 674.949,-220.887 674.949,-220.887 674.949,-220.887 679.764,-219.539 676.162,-225.22 684.579,-218.19 684.579,-218.19"/>
<polygon fill="#c27bc0" stroke="#c27bc0" points="830.158,-177.428 841.001,-179.065 834.973,-176.08 839.788,-174.732 839.788,-174.732 839.788,-174.732 834.973,-176.08 838.574,-170.399 830.158,-177.428 830.158,-177.428"/>
</g>
<!-- SpareLikelihood -->
<g id="node19" class="node"><title>SpareLikelihood</title>
<ellipse fill="none" stroke="black" cx="795.688" cy="-90" rx="69.0978" ry="18"/>
<text text-anchor="middle" x="795.688" y="-85.8" font-family="Times,serif" font-size="14.00">SpareLikelihood</text>
</g>
<!-- GenericFamily&#45;&gt;SpareLikelihood -->
<g id="edge17" class="edge"><title>GenericFamily&#45;&gt;SpareLikelihood</title>
<path fill="none" stroke="#3abe3a" d="M685.439,-219.227C721.376,-208.958 764.267,-194.295 776.688,-180 791.377,-163.094 795.624,-137.623 796.49,-118.256"/>
<ellipse fill="none" stroke="#3abe3a" cx="681.272" cy="-220.397" rx="4.00001" ry="4.00001"/>
<polygon fill="#3abe3a" stroke="#3abe3a" points="796.49,-118.215 801.167,-108.297 796.579,-113.216 796.667,-108.217 796.667,-108.217 796.667,-108.217 796.579,-113.216 792.168,-108.137 796.49,-118.215 796.49,-118.215"/>
</g>
<!-- StockFamily -->
<g id="node22" class="node"><title>StockFamily</title>
<ellipse fill="none" stroke="black" cx="556.688" cy="-162" rx="55.118" ry="18"/>
<text text-anchor="middle" x="556.688" y="-157.8" font-family="Times,serif" font-size="14.00">StockFamily</text>
</g>
<!-- GenericFamily&#45;&gt;StockFamily -->
<g id="edge20" class="edge"><title>GenericFamily&#45;&gt;StockFamily</title>
<path fill="none" stroke="#303c34" d="M608.02,-210.91C599.596,-203.048 590.089,-194.174 581.566,-186.22"/>
<ellipse fill="none" stroke="#303c34" cx="610.99" cy="-213.682" rx="4.00002" ry="4.00002"/>
<polygon fill="#303c34" stroke="#303c34" points="581.386,-186.052 577.146,-175.939 577.731,-182.64 574.075,-179.228 574.075,-179.228 574.075,-179.228 577.731,-182.64 571.005,-182.518 581.386,-186.052 581.386,-186.052"/>
</g>
<!-- GenericSpare&#45;&gt;GenericCar -->
<g id="edge22" class="edge"><title>GenericSpare&#45;&gt;GenericCar</title>
<path fill="none" stroke="#6542d2" d="M847.501,-183.386C812.483,-203.467 755.925,-233.716 703.688,-252 639.549,-274.449 562.637,-289.05 511.429,-297.133"/>
<polygon fill="#6542d2" stroke="#6542d2" points="847.7,-183.271 858.609,-182.156 852.027,-180.766 856.355,-178.262 856.355,-178.262 856.355,-178.262 852.027,-180.766 854.101,-174.367 847.7,-183.271 847.7,-183.271"/>
<polygon fill="#6542d2" stroke="#6542d2" points="511.424,-297.133 500.854,-294.216 506.483,-297.898 501.542,-298.663 501.542,-298.663 501.542,-298.663 506.483,-297.898 502.23,-303.11 511.424,-297.133 511.424,-297.133"/>
</g>
<!-- GenericSpare&#45;&gt;GenericFittable -->
<g id="edge21" class="edge"><title>GenericSpare&#45;&gt;GenericFittable</title>
<path fill="none" stroke="#a30021" d="M828.961,-148.489C777.046,-136.17 697.961,-117.404 644.39,-104.692"/>
<ellipse fill="none" stroke="#a30021" cx="832.992" cy="-149.445" rx="4.00001" ry="4.00001"/>
<polygon fill="#a30021" stroke="#a30021" points="644.094,-104.622 635.403,-97.9345 639.229,-103.467 634.364,-102.313 634.364,-102.313 634.364,-102.313 639.229,-103.467 633.325,-106.691 644.094,-104.622 644.094,-104.622"/>
</g>
<!-- GenericSpareImage -->
<g id="node12" class="node"><title>GenericSpareImage</title>
<ellipse fill="none" stroke="black" cx="962.688" cy="-90" rx="80.1472" ry="18"/>
<text text-anchor="middle" x="962.688" y="-85.8" font-family="Times,serif" font-size="14.00">GenericSpareImage</text>
</g>
<!-- GenericSpare&#45;&gt;GenericSpareImage -->
<g id="edge25" class="edge"><title>GenericSpare&#45;&gt;GenericSpareImage</title>
<path fill="none" stroke="#b51081" d="M906.795,-139.303C915.932,-131.406 926.297,-122.449 935.598,-114.411"/>
<ellipse fill="none" stroke="#b51081" cx="903.501" cy="-142.149" rx="4.00002" ry="4.00002"/>
<polygon fill="#b51081" stroke="#b51081" points="935.874,-114.172 946.383,-111.038 939.657,-110.903 943.441,-107.633 943.441,-107.633 943.441,-107.633 939.657,-110.903 940.498,-104.229 935.874,-114.172 935.874,-114.172"/>
</g>
<!-- GenericSpare&#45;&gt;SpareLikelihood -->
<g id="edge23" class="edge"><title>GenericSpare&#45;&gt;SpareLikelihood</title>
<path fill="none" stroke="#a6678a" d="M855.331,-139.547C845.298,-131.38 833.836,-122.051 823.658,-113.767"/>
<ellipse fill="none" stroke="#a6678a" cx="858.639" cy="-142.24" rx="4.00002" ry="4.00002"/>
<polygon fill="#a6678a" stroke="#a6678a" points="823.579,-113.703 818.665,-103.9 819.702,-110.546 815.824,-107.39 815.824,-107.39 815.824,-107.39 819.702,-110.546 812.983,-110.88 823.579,-113.703 823.579,-113.703"/>
</g>
<!-- StockSpare -->
<g id="node23" class="node"><title>StockSpare</title>
<ellipse fill="none" stroke="black" cx="1119.69" cy="-90" rx="50.2723" ry="18"/>
<text text-anchor="middle" x="1119.69" y="-85.8" font-family="Times,serif" font-size="14.00">StockSpare</text>
</g>
<!-- GenericSpare&#45;&gt;StockSpare -->
<g id="edge24" class="edge"><title>GenericSpare&#45;&gt;StockSpare</title>
<path fill="none" stroke="#354772" d="M930.18,-146.738C971.647,-134.542 1030.98,-117.091 1072.16,-104.978"/>
<ellipse fill="none" stroke="#354772" cx="926.168" cy="-147.917" rx="4.00001" ry="4.00001"/>
<polygon fill="#354772" stroke="#354772" points="1072.37,-104.918 1083.23,-106.413 1077.16,-103.507 1081.96,-102.096 1081.96,-102.096 1081.96,-102.096 1077.16,-103.507 1080.69,-97.7789 1072.37,-104.918 1072.37,-104.918"/>
</g>
<!-- Insured -->
<g id="node13" class="node"><title>Insured</title>
<ellipse fill="none" stroke="black" cx="1296.69" cy="-234" rx="36.7576" ry="18"/>
<text text-anchor="middle" x="1296.69" y="-229.8" font-family="Times,serif" font-size="14.00">Insured</text>
</g>
<!-- MoldComponent -->
<g id="node15" class="node"><title>MoldComponent</title>
<ellipse fill="none" stroke="black" cx="1028.69" cy="-162" rx="70.5772" ry="18"/>
<text text-anchor="middle" x="1028.69" y="-157.8" font-family="Times,serif" font-size="14.00">MoldComponent</text>
</g>
<!-- MoldSpare -->
<g id="node16" class="node"><title>MoldSpare</title>
<ellipse fill="none" stroke="black" cx="954.688" cy="-234" rx="49.3119" ry="18"/>
<text text-anchor="middle" x="954.688" y="-229.8" font-family="Times,serif" font-size="14.00">MoldSpare</text>
</g>
<!-- MoldSpare&#45;&gt;GenericSpare -->
<g id="edge26" class="edge"><title>MoldSpare&#45;&gt;GenericSpare</title>
<path fill="none" stroke="#fbbd7e" d="M931.719,-210.975C923.555,-203.146 914.338,-194.309 906.061,-186.371"/>
<ellipse fill="none" stroke="#fbbd7e" cx="934.869" cy="-213.996" rx="4.00002" ry="4.00002"/>
<polygon fill="#fbbd7e" stroke="#fbbd7e" points="905.998,-186.311 901.895,-176.142 902.389,-182.85 898.78,-179.39 898.78,-179.39 898.78,-179.39 902.389,-182.85 895.665,-182.638 905.998,-186.311 905.998,-186.311"/>
</g>
<!-- MoldSpare&#45;&gt;MoldComponent -->
<g id="edge27" class="edge"><title>MoldSpare&#45;&gt;MoldComponent</title>
<path fill="none" stroke="#959c3e" d="M977.925,-211.019C986.138,-203.25 995.406,-194.483 1003.75,-186.587"/>
<ellipse fill="none" stroke="#959c3e" cx="974.757" cy="-214.016" rx="4.00002" ry="4.00002"/>
<polygon fill="#959c3e" stroke="#959c3e" points="1003.84,-186.505 1014.2,-182.903 1007.47,-183.069 1011.1,-179.633 1011.1,-179.633 1011.1,-179.633 1007.47,-183.069 1008.01,-176.364 1003.84,-186.505 1003.84,-186.505"/>
</g>
<!-- Prevaluation -->
<g id="node17" class="node"><title>Prevaluation</title>
<ellipse fill="none" stroke="black" cx="1296.69" cy="-306" rx="54.6076" ry="18"/>
<text text-anchor="middle" x="1296.69" y="-301.8" font-family="Times,serif" font-size="14.00">Prevaluation</text>
</g>
<!-- Prevaluation&#45;&gt;Insured -->
<g id="edge29" class="edge"><title>Prevaluation&#45;&gt;Insured</title>
<path fill="none" stroke="#bb8ccb" d="M1296.69,-279.64C1296.69,-274.063 1296.69,-268.132 1296.69,-262.476"/>
<ellipse fill="none" stroke="#bb8ccb" cx="1296.69" cy="-283.697" rx="4" ry="4"/>
<polygon fill="#bb8ccb" stroke="#bb8ccb" points="1296.69,-262.104 1301.19,-252.104 1296.69,-257.104 1296.69,-252.104 1296.69,-252.104 1296.69,-252.104 1296.69,-257.104 1292.19,-252.104 1296.69,-262.104 1296.69,-262.104"/>
</g>
<!-- PrevaluationImage -->
<g id="node18" class="node"><title>PrevaluationImage</title>
<ellipse fill="none" stroke="black" cx="1428.69" cy="-234" rx="76.7985" ry="18"/>
<text text-anchor="middle" x="1428.69" y="-229.8" font-family="Times,serif" font-size="14.00">PrevaluationImage</text>
</g>
<!-- Prevaluation&#45;&gt;PrevaluationImage -->
<g id="edge31" class="edge"><title>Prevaluation&#45;&gt;PrevaluationImage</title>
<path fill="none" stroke="#addee0" d="M1331.56,-286.505C1349.59,-276.945 1371.64,-265.254 1390.17,-255.428"/>
<ellipse fill="none" stroke="#addee0" cx="1327.89" cy="-288.452" rx="4.00002" ry="4.00002"/>
<polygon fill="#addee0" stroke="#addee0" points="1390.39,-255.312 1401.33,-254.603 1394.8,-252.97 1399.22,-250.627 1399.22,-250.627 1399.22,-250.627 1394.8,-252.97 1397.11,-246.651 1390.39,-255.312 1390.39,-255.312"/>
</g>
<!-- Prevaluation&#45;&gt;StockCar -->
<g id="edge28" class="edge"><title>Prevaluation&#45;&gt;StockCar</title>
<path fill="none" stroke="#23b3bf" d="M1268.09,-284.572C1255.51,-275.588 1240.75,-265.046 1228.09,-255.999"/>
<ellipse fill="none" stroke="#23b3bf" cx="1271.68" cy="-287.14" rx="4.00002" ry="4.00002"/>
<polygon fill="#23b3bf" stroke="#23b3bf" points="1227.84,-255.824 1222.32,-246.35 1223.77,-252.918 1219.7,-250.011 1219.7,-250.011 1219.7,-250.011 1223.77,-252.918 1217.09,-253.673 1227.84,-255.824 1227.84,-255.824"/>
</g>
<!-- Valuation -->
<g id="node27" class="node"><title>Valuation</title>
<ellipse fill="none" stroke="black" cx="1567.69" cy="-234" rx="43.9992" ry="18"/>
<text text-anchor="middle" x="1567.69" y="-229.8" font-family="Times,serif" font-size="14.00">Valuation</text>
</g>
<!-- Prevaluation&#45;&gt;Valuation -->
<g id="edge30" class="edge"><title>Prevaluation&#45;&gt;Valuation</title>
<path fill="none" stroke="#0a8834" d="M1345.39,-291.676C1350.21,-290.41 1355.04,-289.166 1359.69,-288 1428.28,-270.785 1446.51,-270.816 1514.69,-252 1518.66,-250.903 1522.78,-249.7 1526.89,-248.456"/>
<ellipse fill="none" stroke="#0a8834" cx="1341.17" cy="-292.792" rx="4.00001" ry="4.00001"/>
<ellipse fill="#0a8834" stroke="#0a8834" cx="1530.91" cy="-247.213" rx="4.00001" ry="4.00001"/>
</g>
<!-- StockCarImage -->
<g id="node21" class="node"><title>StockCarImage</title>
<ellipse fill="none" stroke="black" cx="1220.69" cy="-162" rx="65.2304" ry="18"/>
<text text-anchor="middle" x="1220.69" y="-157.8" font-family="Times,serif" font-size="14.00">StockCarImage</text>
</g>
<!-- StockCar&#45;&gt;StockCarImage -->
<g id="edge32" class="edge"><title>StockCar&#45;&gt;StockCarImage</title>
<path fill="none" stroke="#98ac75" d="M1206.46,-208.267C1208.32,-202.34 1210.32,-195.981 1212.22,-189.959"/>
<ellipse fill="none" stroke="#98ac75" cx="1205.21" cy="-212.239" rx="4.00001" ry="4.00001"/>
<polygon fill="#98ac75" stroke="#98ac75" points="1212.26,-189.815 1219.55,-181.625 1213.76,-185.045 1215.26,-180.275 1215.26,-180.275 1215.26,-180.275 1213.76,-185.045 1210.97,-178.926 1212.26,-189.815 1212.26,-189.815"/>
</g>
<!-- StockSpareImage -->
<g id="node24" class="node"><title>StockSpareImage</title>
<ellipse fill="none" stroke="black" cx="1119.69" cy="-18" rx="72.4635" ry="18"/>
<text text-anchor="middle" x="1119.69" y="-13.8" font-family="Times,serif" font-size="14.00">StockSpareImage</text>
</g>
<!-- StockSpare&#45;&gt;StockSpareImage -->
<g id="edge33" class="edge"><title>StockSpare&#45;&gt;StockSpareImage</title>
<path fill="none" stroke="#dfbafd" d="M1119.69,-63.6398C1119.69,-58.0629 1119.69,-52.1319 1119.69,-46.4761"/>
<ellipse fill="none" stroke="#dfbafd" cx="1119.69" cy="-67.6966" rx="4" ry="4"/>
<polygon fill="#dfbafd" stroke="#dfbafd" points="1119.69,-46.1043 1124.19,-36.1043 1119.69,-41.1043 1119.69,-36.1043 1119.69,-36.1043 1119.69,-36.1043 1119.69,-41.1043 1115.19,-36.1044 1119.69,-46.1043 1119.69,-46.1043"/>
</g>
<!-- User -->
<g id="node26" class="node"><title>User</title>
<ellipse fill="none" stroke="black" cx="1021.69" cy="-396.5" rx="27" ry="18"/>
<text text-anchor="middle" x="1021.69" y="-392.3" font-family="Times,serif" font-size="14.00">User</text>
</g>
<!-- Warehouse -->
<g id="node28" class="node"><title>Warehouse</title>
<ellipse fill="none" stroke="black" cx="1150.69" cy="-306" rx="49.3546" ry="18"/>
<text text-anchor="middle" x="1150.69" y="-301.8" font-family="Times,serif" font-size="14.00">Warehouse</text>
</g>
<!-- Warehouse&#45;&gt;StockCar -->
<g id="edge35" class="edge"><title>Warehouse&#45;&gt;StockCar</title>
<path fill="none" stroke="#8872fc" d="M1166.59,-281.812C1171.38,-274.831 1176.65,-267.138 1181.52,-260.042"/>
<ellipse fill="none" stroke="#8872fc" cx="1164.33" cy="-285.112" rx="4.00002" ry="4.00002"/>
<polygon fill="#8872fc" stroke="#8872fc" points="1181.74,-259.717 1191.11,-254.015 1184.57,-255.594 1187.39,-251.47 1187.39,-251.47 1187.39,-251.47 1184.57,-255.594 1183.68,-248.925 1181.74,-259.717 1181.74,-259.717"/>
</g>
<!-- Warehouse&#45;&gt;StockSpare -->
<g id="edge34" class="edge"><title>Warehouse&#45;&gt;StockSpare</title>
<path fill="none" stroke="#79e1c1" d="M1147.02,-279.67C1141.14,-239.116 1129.68,-159.949 1123.63,-118.227"/>
<ellipse fill="none" stroke="#79e1c1" cx="1147.63" cy="-283.891" rx="4.00001" ry="4.00001"/>
<polygon fill="#79e1c1" stroke="#79e1c1" points="1123.62,-118.129 1126.64,-107.587 1122.9,-113.181 1122.18,-108.232 1122.18,-108.232 1122.18,-108.232 1122.9,-113.181 1117.73,-108.878 1123.62,-118.129 1123.62,-118.129"/>
</g>
</g>
</svg>
