<?xml version="1.0" encoding="UTF-8" standalone="no"?>
<!DOCTYPE svg PUBLIC "-//W3C//DTD SVG 1.1//EN"
 "http://www.w3.org/Graphics/SVG/1.1/DTD/svg11.dtd">
<!-- Generated by graphviz version 2.38.0 (20140413.2041)
 -->
<!-- Title: models_diagram Pages: 1 -->
<svg width="656pt" height="297pt"
 viewBox="0.00 0.00 656.23 297.00" xmlns="http://www.w3.org/2000/svg" xmlns:xlink="http://www.w3.org/1999/xlink">
<g id="graph0" class="graph" transform="scale(1 1) rotate(0) translate(4 293)">
<title>models_diagram</title>
<polygon fill="white" stroke="none" points="-4,4 -4,-293 652.228,-293 652.228,4 -4,4"/>
<!-- _diagram_info -->
<g id="node1" class="node"><title>_diagram_info</title>
<text text-anchor="start" x="114.54" y="-274.6" font-family="Times,serif" font-size="13.00">Models diagram</text>
<text text-anchor="start" x="114.54" y="-261.6" font-family="Times,serif" font-size="13.00">Date: Sep 17 2014 &#45; 13:06</text>
<text text-anchor="start" x="114.54" y="-248.6" font-family="Times,serif" font-size="13.00">Migration version: 20140913200623</text>
<text text-anchor="start" x="114.54" y="-235.6" font-family="Times,serif" font-size="13.00">Generated by RailRoady 1.1.2</text>
<text text-anchor="start" x="114.54" y="-222.6" font-family="Times,serif" font-size="13.00">http://railroady.prestonlee.com</text>
</g>
<!-- Car -->
<g id="node2" class="node"><title>Car</title>
<ellipse fill="none" stroke="black" cx="208.228" cy="-90" rx="27" ry="18"/>
<text text-anchor="middle" x="208.228" y="-85.8" font-family="Times,serif" font-size="14.00">Car</text>
</g>
<!-- CarSpareAlloy -->
<g id="node3" class="node"><title>CarSpareAlloy</title>
<ellipse fill="none" stroke="black" cx="144.228" cy="-18" rx="63.3097" ry="18"/>
<text text-anchor="middle" x="144.228" y="-13.8" font-family="Times,serif" font-size="14.00">CarSpareAlloy</text>
</g>
<!-- GenericCar -->
<g id="node4" class="node"><title>GenericCar</title>
<ellipse fill="none" stroke="black" cx="129.228" cy="-162" rx="50.7224" ry="18"/>
<text text-anchor="middle" x="129.228" y="-157.8" font-family="Times,serif" font-size="14.00">GenericCar</text>
</g>
<!-- GenericCar&#45;&gt;Car -->
<g id="edge3" class="edge"><title>GenericCar&#45;&gt;Car</title>
<path fill="none" stroke="#cbd6cb" d="M153.181,-139.776C163.248,-130.856 174.917,-120.516 184.914,-111.657"/>
<ellipse fill="none" stroke="#cbd6cb" cx="150.148" cy="-142.463" rx="4.00002" ry="4.00002"/>
<polygon fill="#cbd6cb" stroke="#cbd6cb" points="185.026,-111.558 195.495,-108.295 188.768,-108.242 192.511,-104.927 192.511,-104.927 192.511,-104.927 188.768,-108.242 189.526,-101.558 185.026,-111.558 185.026,-111.558"/>
</g>
<!-- GenericCar&#45;&gt;CarSpareAlloy -->
<g id="edge4" class="edge"><title>GenericCar&#45;&gt;CarSpareAlloy</title>
<path fill="none" stroke="#44994d" d="M131.915,-135.558C134.568,-110.444 138.612,-72.164 141.334,-46.3932"/>
<ellipse fill="none" stroke="#44994d" cx="131.457" cy="-139.894" rx="4" ry="4"/>
<polygon fill="#44994d" stroke="#44994d" points="141.361,-46.1339 146.887,-36.662 141.887,-41.1616 142.412,-36.1893 142.412,-36.1893 142.412,-36.1893 141.887,-41.1616 137.937,-35.7165 141.361,-46.1339 141.361,-46.1339"/>
</g>
<!-- GenericSpare -->
<g id="node5" class="node"><title>GenericSpare</title>
<ellipse fill="none" stroke="black" cx="58.2277" cy="-90" rx="58.4563" ry="18"/>
<text text-anchor="middle" x="58.2277" y="-85.8" font-family="Times,serif" font-size="14.00">GenericSpare</text>
</g>
<!-- GenericCar&#45;&gt;GenericSpare -->
<g id="edge5" class="edge"><title>GenericCar&#45;&gt;GenericSpare</title>
<path fill="none" stroke="#039939" d="M105.479,-137.585C98.0116,-130.224 89.7628,-122.091 82.2753,-114.709"/>
<polygon fill="#039939" stroke="#039939" points="105.639,-137.744 109.601,-147.969 109.2,-141.254 112.76,-144.765 112.76,-144.765 112.76,-144.765 109.2,-141.254 115.92,-141.56 105.639,-137.744 105.639,-137.744"/>
<polygon fill="#039939" stroke="#039939" points="82.2198,-114.654 78.2581,-104.429 78.6593,-111.144 75.0987,-107.633 75.0987,-107.633 75.0987,-107.633 78.6593,-111.144 71.9394,-110.838 82.2198,-114.654 82.2198,-114.654"/>
</g>
<!-- GenericSpare&#45;&gt;CarSpareAlloy -->
<g id="edge7" class="edge"><title>GenericSpare&#45;&gt;CarSpareAlloy</title>
<path fill="none" stroke="#5c0609" d="M84.6324,-67.5078C94.742,-59.2791 106.297,-49.8736 116.525,-41.5488"/>
<ellipse fill="none" stroke="#5c0609" cx="81.2763" cy="-70.2395" rx="4.00002" ry="4.00002"/>
<polygon fill="#5c0609" stroke="#5c0609" points="116.634,-41.4601 127.23,-38.6373 120.512,-38.3037 124.39,-35.1473 124.39,-35.1473 124.39,-35.1473 120.512,-38.3037 121.549,-31.6573 116.634,-41.4601 116.634,-41.4601"/>
</g>
<!-- Insured -->
<g id="node6" class="node"><title>Insured</title>
<ellipse fill="none" stroke="black" cx="333.228" cy="-90" rx="36.7576" ry="18"/>
<text text-anchor="middle" x="333.228" y="-85.8" font-family="Times,serif" font-size="14.00">Insured</text>
</g>
<!-- Prevaluation -->
<g id="node7" class="node"><title>Prevaluation</title>
<ellipse fill="none" stroke="black" cx="291.228" cy="-162" rx="54.6076" ry="18"/>
<text text-anchor="middle" x="291.228" y="-157.8" font-family="Times,serif" font-size="14.00">Prevaluation</text>
</g>
<!-- Prevaluation&#45;&gt;Car -->
<g id="edge10" class="edge"><title>Prevaluation&#45;&gt;Car</title>
<path fill="none" stroke="#d2fa34" d="M265.603,-139.389C254.968,-130.42 242.696,-120.07 232.237,-111.249"/>
<ellipse fill="none" stroke="#d2fa34" cx="268.919" cy="-142.186" rx="4.00002" ry="4.00002"/>
<polygon fill="#d2fa34" stroke="#d2fa34" points="231.949,-111.006 227.206,-101.119 228.127,-107.782 224.305,-104.559 224.305,-104.559 224.305,-104.559 228.127,-107.782 221.404,-107.999 231.949,-111.006 231.949,-111.006"/>
</g>
<!-- Prevaluation&#45;&gt;Insured -->
<g id="edge11" class="edge"><title>Prevaluation&#45;&gt;Insured</title>
<path fill="none" stroke="#190c0a" d="M305.629,-136.998C309.595,-130.387 313.911,-123.194 317.927,-116.502"/>
<ellipse fill="none" stroke="#190c0a" cx="303.453" cy="-140.625" rx="4.00002" ry="4.00002"/>
<polygon fill="#190c0a" stroke="#190c0a" points="318.009,-116.364 327.013,-110.104 320.582,-112.076 323.154,-107.789 323.154,-107.789 323.154,-107.789 320.582,-112.076 319.296,-105.474 318.009,-116.364 318.009,-116.364"/>
</g>
<!-- Spare -->
<g id="node8" class="node"><title>Spare</title>
<ellipse fill="none" stroke="black" cx="461.228" cy="-90" rx="30.4862" ry="18"/>
<text text-anchor="middle" x="461.228" y="-85.8" font-family="Times,serif" font-size="14.00">Spare</text>
</g>
<!-- User -->
<g id="node9" class="node"><title>User</title>
<ellipse fill="none" stroke="black" cx="621.228" cy="-162" rx="27" ry="18"/>
<text text-anchor="middle" x="621.228" y="-157.8" font-family="Times,serif" font-size="14.00">User</text>
</g>
<!-- Warehouse -->
<g id="node10" class="node"><title>Warehouse</title>
<ellipse fill="none" stroke="black" cx="413.228" cy="-162" rx="49.3546" ry="18"/>
<text text-anchor="middle" x="413.228" y="-157.8" font-family="Times,serif" font-size="14.00">Warehouse</text>
</g>
<!-- Warehouse&#45;&gt;Car -->
<g id="edge16" class="edge"><title>Warehouse&#45;&gt;Car</title>
<path fill="none" stroke="#b54fe5" d="M370.835,-146.524C332.457,-133.42 276.694,-114.379 241.458,-102.347"/>
<ellipse fill="none" stroke="#b54fe5" cx="374.667" cy="-147.833" rx="4.00001" ry="4.00001"/>
<polygon fill="#b54fe5" stroke="#b54fe5" points="241.123,-102.233 233.114,-94.7425 236.391,-100.617 231.66,-99.0011 231.66,-99.0011 231.66,-99.0011 236.391,-100.617 230.205,-103.26 241.123,-102.233 241.123,-102.233"/>
</g>
<!-- Warehouse&#45;&gt;Spare -->
<g id="edge15" class="edge"><title>Warehouse&#45;&gt;Spare</title>
<path fill="none" stroke="#a82167" d="M429.196,-137.713C434.058,-130.623 439.416,-122.808 444.337,-115.633"/>
<ellipse fill="none" stroke="#a82167" cx="426.865" cy="-141.112" rx="4.00002" ry="4.00002"/>
<polygon fill="#a82167" stroke="#a82167" points="444.609,-115.235 453.976,-109.533 447.437,-111.112 450.264,-106.988 450.264,-106.988 450.264,-106.988 447.437,-111.112 446.553,-104.443 444.609,-115.235 444.609,-115.235"/>
</g>
<!-- ActiveRecord::Base -->
<g id="node11" class="node"><title>ActiveRecord::Base</title>
<ellipse fill="none" stroke="black" cx="413.228" cy="-252.5" rx="81.1422" ry="18"/>
<text text-anchor="middle" x="413.228" y="-248.3" font-family="Times,serif" font-size="14.00">ActiveRecord::Base</text>
</g>
<!-- ActiveRecord::Base&#45;&gt;Car -->
<g id="edge1" class="edge"><title>ActiveRecord::Base&#45;&gt;Car</title>
<path fill="none" stroke="black" d="M375.625,-236.504C359.514,-230.121 340.472,-222.634 323.228,-216 280.698,-199.639 256.971,-214.522 227.228,-180 209.902,-159.891 207.134,-127.846 207.278,-108.191"/>
</g>
<!-- ActiveRecord::Base&#45;&gt;CarSpareAlloy -->
<g id="edge2" class="edge"><title>ActiveRecord::Base&#45;&gt;CarSpareAlloy</title>
<path fill="none" stroke="black" d="M452.546,-236.635C476.817,-225.166 505.957,-206.699 520.228,-180 543.239,-136.948 536.805,-104.329 500.228,-72 457.855,-34.5493 297.438,-23.5619 207.081,-20.3384"/>
</g>
<!-- ActiveRecord::Base&#45;&gt;GenericCar -->
<g id="edge6" class="edge"><title>ActiveRecord::Base&#45;&gt;GenericCar</title>
<path fill="none" stroke="black" d="M377.212,-236.253C360.883,-229.611 341.237,-221.992 323.228,-216 308.527,-211.109 220.947,-187.521 168.618,-173.514"/>
</g>
<!-- ActiveRecord::Base&#45;&gt;GenericSpare -->
<g id="edge8" class="edge"><title>ActiveRecord::Base&#45;&gt;GenericSpare</title>
<path fill="none" stroke="black" d="M379.67,-236.087C363.009,-229 342.39,-221.062 323.228,-216 268.11,-201.441 109.178,-220.669 69.2277,-180 50.6801,-161.119 51.9152,-128.067 54.8383,-107.991"/>
</g>
<!-- ActiveRecord::Base&#45;&gt;Insured -->
<g id="edge9" class="edge"><title>ActiveRecord::Base&#45;&gt;Insured</title>
<path fill="none" stroke="black" d="M433.7,-234.838C457.82,-213.145 492.125,-174.411 471.228,-144 458.873,-126.021 402.072,-108.548 365.303,-98.838"/>
</g>
<!-- ActiveRecord::Base&#45;&gt;Prevaluation -->
<g id="edge12" class="edge"><title>ActiveRecord::Base&#45;&gt;Prevaluation</title>
<path fill="none" stroke="black" d="M390.566,-235.061C368.378,-218.965 334.807,-194.613 312.948,-178.756"/>
</g>
<!-- ActiveRecord::Base&#45;&gt;Spare -->
<g id="edge13" class="edge"><title>ActiveRecord::Base&#45;&gt;Spare</title>
<path fill="none" stroke="black" d="M445.681,-235.826C466.611,-223.766 492.107,-204.937 504.228,-180 511.222,-165.61 509.576,-159.08 504.228,-144 498.921,-129.036 487.388,-115.216 477.601,-105.442"/>
</g>
<!-- ActiveRecord::Base&#45;&gt;User -->
<g id="edge14" class="edge"><title>ActiveRecord::Base&#45;&gt;User</title>
<path fill="none" stroke="black" d="M448.984,-236.286C492.077,-217.951 563.157,-187.708 599.038,-172.441"/>
</g>
<!-- ActiveRecord::Base&#45;&gt;Warehouse -->
<g id="edge17" class="edge"><title>ActiveRecord::Base&#45;&gt;Warehouse</title>
<path fill="none" stroke="black" d="M413.228,-234.436C413.228,-218.765 413.228,-195.666 413.228,-180.011"/>
</g>
</g>
</svg>
