<?xml version="1.0" encoding="UTF-8" standalone="no"?>
<!DOCTYPE svg PUBLIC "-//W3C//DTD SVG 1.1//EN"
 "http://www.w3.org/Graphics/SVG/1.1/DTD/svg11.dtd">
<!-- Generated by graphviz version 2.38.0 (20140413.2041)
 -->
<!-- Title: models_diagram Pages: 1 -->
<svg width="1367pt" height="1374pt"
 viewBox="0.00 0.00 1367.12 1374.00" xmlns="http://www.w3.org/2000/svg" xmlns:xlink="http://www.w3.org/1999/xlink">
<g id="graph0" class="graph" transform="scale(1 1) rotate(0) translate(4 1370)">
<title>models_diagram</title>
<polygon fill="white" stroke="none" points="-4,4 -4,-1370 1363.12,-1370 1363.12,4 -4,4"/>
<!-- _diagram_info -->
<g id="node1" class="node"><title>_diagram_info</title>
<text text-anchor="start" x="658.611" y="-1309.6" font-family="Times,serif" font-size="13.00">Models diagram</text>
<text text-anchor="start" x="658.611" y="-1296.6" font-family="Times,serif" font-size="13.00">Date: Feb 03 2015 &#45; 18:37</text>
<text text-anchor="start" x="658.611" y="-1283.6" font-family="Times,serif" font-size="13.00">Migration version: 20150113013129</text>
<text text-anchor="start" x="658.611" y="-1270.6" font-family="Times,serif" font-size="13.00">Generated by RailRoady 1.3.0</text>
<text text-anchor="start" x="658.611" y="-1257.6" font-family="Times,serif" font-size="13.00">http://railroady.prestonlee.com</text>
</g>
<!-- Brand -->
<g id="node2" class="node"><title>Brand</title>
<path fill="none" stroke="black" d="M1069.56,-1237.5C1069.56,-1237.5 1178.57,-1237.5 1178.57,-1237.5 1184.57,-1237.5 1190.57,-1243.5 1190.57,-1249.5 1190.57,-1249.5 1190.57,-1325.5 1190.57,-1325.5 1190.57,-1331.5 1184.57,-1337.5 1178.57,-1337.5 1178.57,-1337.5 1069.56,-1337.5 1069.56,-1337.5 1063.56,-1337.5 1057.56,-1331.5 1057.56,-1325.5 1057.56,-1325.5 1057.56,-1249.5 1057.56,-1249.5 1057.56,-1243.5 1063.56,-1237.5 1069.56,-1237.5"/>
<text text-anchor="middle" x="1124.06" y="-1322.3" font-family="Times,serif" font-size="14.00">Brand</text>
<polyline fill="none" stroke="black" points="1057.56,-1315.5 1190.57,-1315.5 "/>
<text text-anchor="start" x="1065.56" y="-1300.3" font-family="Times,serif" font-size="14.00">id :integer</text>
<text text-anchor="start" x="1065.56" y="-1286.3" font-family="Times,serif" font-size="14.00">name :string</text>
<text text-anchor="start" x="1065.56" y="-1272.3" font-family="Times,serif" font-size="14.00">acronym :string</text>
<text text-anchor="start" x="1065.56" y="-1258.3" font-family="Times,serif" font-size="14.00">created_at :datetime</text>
<text text-anchor="start" x="1065.56" y="-1244.3" font-family="Times,serif" font-size="14.00">updated_at :datetime</text>
</g>
<!-- GenericCar -->
<g id="node6" class="node"><title>GenericCar</title>
<path fill="none" stroke="black" d="M846.666,-715.5C846.666,-715.5 1005.46,-715.5 1005.46,-715.5 1011.46,-715.5 1017.46,-721.5 1017.46,-727.5 1017.46,-727.5 1017.46,-915.5 1017.46,-915.5 1017.46,-921.5 1011.46,-927.5 1005.46,-927.5 1005.46,-927.5 846.666,-927.5 846.666,-927.5 840.666,-927.5 834.666,-921.5 834.666,-915.5 834.666,-915.5 834.666,-727.5 834.666,-727.5 834.666,-721.5 840.666,-715.5 846.666,-715.5"/>
<text text-anchor="middle" x="926.061" y="-912.3" font-family="Times,serif" font-size="14.00">GenericCar</text>
<polyline fill="none" stroke="black" points="834.666,-905.5 1017.46,-905.5 "/>
<text text-anchor="start" x="842.666" y="-890.3" font-family="Times,serif" font-size="14.00">id :integer</text>
<text text-anchor="start" x="842.666" y="-876.3" font-family="Times,serif" font-size="14.00">brand_id :string</text>
<text text-anchor="start" x="842.666" y="-862.3" font-family="Times,serif" font-size="14.00">type_of_car :string</text>
<text text-anchor="start" x="842.666" y="-848.3" font-family="Times,serif" font-size="14.00">year :integer</text>
<text text-anchor="start" x="842.666" y="-834.3" font-family="Times,serif" font-size="14.00">model :string</text>
<text text-anchor="start" x="842.666" y="-820.3" font-family="Times,serif" font-size="14.00">doors :integer</text>
<text text-anchor="start" x="842.666" y="-806.3" font-family="Times,serif" font-size="14.00">first_generation_year :integer</text>
<text text-anchor="start" x="842.666" y="-792.3" font-family="Times,serif" font-size="14.00">last_generation_year :integer</text>
<text text-anchor="start" x="842.666" y="-778.3" font-family="Times,serif" font-size="14.00">code :string</text>
<text text-anchor="start" x="842.666" y="-764.3" font-family="Times,serif" font-size="14.00">gen_continues :boolean</text>
<text text-anchor="start" x="842.666" y="-750.3" font-family="Times,serif" font-size="14.00">number_of_generation :string</text>
<text text-anchor="start" x="842.666" y="-736.3" font-family="Times,serif" font-size="14.00">created_at :datetime</text>
<text text-anchor="start" x="842.666" y="-722.3" font-family="Times,serif" font-size="14.00">updated_at :datetime</text>
</g>
<!-- Brand&#45;&gt;GenericCar -->
<g id="edge1" class="edge"><title>Brand&#45;&gt;GenericCar</title>
<path fill="none" stroke="#86722f" d="M1092.77,-1230.3C1083.13,-1212.22 1072.77,-1191.95 1064.06,-1173 1028.53,-1095.67 993.465,-1006.39 967.571,-937.294"/>
<ellipse fill="none" stroke="#86722f" cx="1094.67" cy="-1233.85" rx="4.00002" ry="4.00002"/>
<polygon fill="#86722f" stroke="#86722f" points="967.479,-937.048 968.194,-926.106 965.729,-932.365 963.979,-927.681 963.979,-927.681 963.979,-927.681 965.729,-932.365 959.764,-929.256 967.479,-937.048 967.479,-937.048"/>
</g>
<!-- ModelAcronym -->
<g id="node11" class="node"><title>ModelAcronym</title>
<path fill="none" stroke="black" d="M1085.56,-764.5C1085.56,-764.5 1194.57,-764.5 1194.57,-764.5 1200.57,-764.5 1206.57,-770.5 1206.57,-776.5 1206.57,-776.5 1206.57,-866.5 1206.57,-866.5 1206.57,-872.5 1200.57,-878.5 1194.57,-878.5 1194.57,-878.5 1085.56,-878.5 1085.56,-878.5 1079.56,-878.5 1073.56,-872.5 1073.56,-866.5 1073.56,-866.5 1073.56,-776.5 1073.56,-776.5 1073.56,-770.5 1079.56,-764.5 1085.56,-764.5"/>
<text text-anchor="middle" x="1140.06" y="-863.3" font-family="Times,serif" font-size="14.00">ModelAcronym</text>
<polyline fill="none" stroke="black" points="1073.56,-856.5 1206.57,-856.5 "/>
<text text-anchor="start" x="1081.56" y="-841.3" font-family="Times,serif" font-size="14.00">id :integer</text>
<text text-anchor="start" x="1081.56" y="-827.3" font-family="Times,serif" font-size="14.00">brand_id :integer</text>
<text text-anchor="start" x="1081.56" y="-813.3" font-family="Times,serif" font-size="14.00">initials :string</text>
<text text-anchor="start" x="1081.56" y="-799.3" font-family="Times,serif" font-size="14.00">model :string</text>
<text text-anchor="start" x="1081.56" y="-785.3" font-family="Times,serif" font-size="14.00">created_at :datetime</text>
<text text-anchor="start" x="1081.56" y="-771.3" font-family="Times,serif" font-size="14.00">updated_at :datetime</text>
</g>
<!-- Brand&#45;&gt;ModelAcronym -->
<g id="edge2" class="edge"><title>Brand&#45;&gt;ModelAcronym</title>
<path fill="none" stroke="#b13be9" d="M1126.04,-1229.14C1129.01,-1142.91 1134.62,-980.266 1137.77,-888.975"/>
<ellipse fill="none" stroke="#b13be9" cx="1125.9" cy="-1233.29" rx="4" ry="4"/>
<polygon fill="#b13be9" stroke="#b13be9" points="1137.78,-888.741 1142.62,-878.902 1137.95,-883.744 1138.12,-878.747 1138.12,-878.747 1138.12,-878.747 1137.95,-883.744 1133.62,-878.592 1137.78,-888.741 1137.78,-888.741"/>
</g>
<!-- Car -->
<g id="node3" class="node"><title>Car</title>
<path fill="none" stroke="black" d="M331.438,-207.5C331.438,-207.5 474.683,-207.5 474.683,-207.5 480.683,-207.5 486.683,-213.5 486.683,-219.5 486.683,-219.5 486.683,-421.5 486.683,-421.5 486.683,-427.5 480.683,-433.5 474.683,-433.5 474.683,-433.5 331.438,-433.5 331.438,-433.5 325.438,-433.5 319.438,-427.5 319.438,-421.5 319.438,-421.5 319.438,-219.5 319.438,-219.5 319.438,-213.5 325.438,-207.5 331.438,-207.5"/>
<text text-anchor="middle" x="403.061" y="-418.3" font-family="Times,serif" font-size="14.00">Car</text>
<polyline fill="none" stroke="black" points="319.438,-411.5 486.683,-411.5 "/>
<text text-anchor="start" x="327.438" y="-396.3" font-family="Times,serif" font-size="14.00">id :integer</text>
<text text-anchor="start" x="327.438" y="-382.3" font-family="Times,serif" font-size="14.00">prevaluation_id :integer</text>
<text text-anchor="start" x="327.438" y="-368.3" font-family="Times,serif" font-size="14.00">generic_car_id :integer</text>
<text text-anchor="start" x="327.438" y="-354.3" font-family="Times,serif" font-size="14.00">warehouse_id :integer</text>
<text text-anchor="start" x="327.438" y="-340.3" font-family="Times,serif" font-size="14.00">color :string</text>
<text text-anchor="start" x="327.438" y="-326.3" font-family="Times,serif" font-size="14.00">door_number :integer</text>
<text text-anchor="start" x="327.438" y="-312.3" font-family="Times,serif" font-size="14.00">serie :string</text>
<text text-anchor="start" x="327.438" y="-298.3" font-family="Times,serif" font-size="14.00">motor :string</text>
<text text-anchor="start" x="327.438" y="-284.3" font-family="Times,serif" font-size="14.00">license_plates :string</text>
<text text-anchor="start" x="327.438" y="-270.3" font-family="Times,serif" font-size="14.00">inventory_description :text</text>
<text text-anchor="start" x="327.438" y="-256.3" font-family="Times,serif" font-size="14.00">special_equipment :text</text>
<text text-anchor="start" x="327.438" y="-242.3" font-family="Times,serif" font-size="14.00">economic_number :string</text>
<text text-anchor="start" x="327.438" y="-228.3" font-family="Times,serif" font-size="14.00">created_at :datetime</text>
<text text-anchor="start" x="327.438" y="-214.3" font-family="Times,serif" font-size="14.00">updated_at :datetime</text>
</g>
<!-- CarSpareAlloy -->
<g id="node4" class="node"><title>CarSpareAlloy</title>
<path fill="none" stroke="black" d="M754.121,-28.5C754.121,-28.5 888,-28.5 888,-28.5 894,-28.5 900,-34.5 900,-40.5 900,-40.5 900,-130.5 900,-130.5 900,-136.5 894,-142.5 888,-142.5 888,-142.5 754.121,-142.5 754.121,-142.5 748.121,-142.5 742.121,-136.5 742.121,-130.5 742.121,-130.5 742.121,-40.5 742.121,-40.5 742.121,-34.5 748.121,-28.5 754.121,-28.5"/>
<text text-anchor="middle" x="821.061" y="-127.3" font-family="Times,serif" font-size="14.00">CarSpareAlloy</text>
<polyline fill="none" stroke="black" points="742.121,-120.5 900,-120.5 "/>
<text text-anchor="start" x="750.121" y="-105.3" font-family="Times,serif" font-size="14.00">id :integer</text>
<text text-anchor="start" x="750.121" y="-91.3" font-family="Times,serif" font-size="14.00">generic_car_id :integer</text>
<text text-anchor="start" x="750.121" y="-77.3" font-family="Times,serif" font-size="14.00">generic_spare_id :integer</text>
<text text-anchor="start" x="750.121" y="-63.3" font-family="Times,serif" font-size="14.00">relation :string</text>
<text text-anchor="start" x="750.121" y="-49.3" font-family="Times,serif" font-size="14.00">created_at :datetime</text>
<text text-anchor="start" x="750.121" y="-35.3" font-family="Times,serif" font-size="14.00">updated_at :datetime</text>
</g>
<!-- Generation -->
<g id="node5" class="node"><title>Generation</title>
<path fill="none" stroke="black" d="M887.555,-1244.5C887.555,-1244.5 996.566,-1244.5 996.566,-1244.5 1002.57,-1244.5 1008.57,-1250.5 1008.57,-1256.5 1008.57,-1256.5 1008.57,-1318.5 1008.57,-1318.5 1008.57,-1324.5 1002.57,-1330.5 996.566,-1330.5 996.566,-1330.5 887.555,-1330.5 887.555,-1330.5 881.555,-1330.5 875.555,-1324.5 875.555,-1318.5 875.555,-1318.5 875.555,-1256.5 875.555,-1256.5 875.555,-1250.5 881.555,-1244.5 887.555,-1244.5"/>
<text text-anchor="middle" x="942.061" y="-1315.3" font-family="Times,serif" font-size="14.00">Generation</text>
<polyline fill="none" stroke="black" points="875.555,-1308.5 1008.57,-1308.5 "/>
<text text-anchor="start" x="883.555" y="-1293.3" font-family="Times,serif" font-size="14.00">id :integer</text>
<text text-anchor="start" x="883.555" y="-1279.3" font-family="Times,serif" font-size="14.00">year :integer</text>
<text text-anchor="start" x="883.555" y="-1265.3" font-family="Times,serif" font-size="14.00">created_at :datetime</text>
<text text-anchor="start" x="883.555" y="-1251.3" font-family="Times,serif" font-size="14.00">updated_at :datetime</text>
</g>
<!-- Generation&#45;&gt;GenericCar -->
<g id="edge3" class="edge"><title>Generation&#45;&gt;GenericCar</title>
<path fill="none" stroke="#1c6186" d="M940.253,-1234.07C937.788,-1162.58 933.306,-1032.61 930.036,-937.793"/>
<polygon fill="#1c6186" stroke="#1c6186" points="940.254,-1234.1 936.101,-1244.25 940.426,-1239.1 940.598,-1244.09 940.598,-1244.09 940.598,-1244.09 940.426,-1239.1 945.096,-1243.94 940.254,-1234.1 940.254,-1234.1"/>
<polygon fill="#1c6186" stroke="#1c6186" points="930.028,-937.568 934.181,-927.418 929.856,-932.571 929.684,-927.574 929.684,-927.574 929.684,-927.574 929.856,-932.571 925.186,-927.729 930.028,-937.568 930.028,-937.568"/>
</g>
<!-- GenericCarGeneration -->
<g id="node7" class="node"><title>GenericCarGeneration</title>
<path fill="none" stroke="black" d="M1099.34,-270.5C1099.34,-270.5 1220.78,-270.5 1220.78,-270.5 1226.78,-270.5 1232.78,-276.5 1232.78,-282.5 1232.78,-282.5 1232.78,-358.5 1232.78,-358.5 1232.78,-364.5 1226.78,-370.5 1220.78,-370.5 1220.78,-370.5 1099.34,-370.5 1099.34,-370.5 1093.34,-370.5 1087.34,-364.5 1087.34,-358.5 1087.34,-358.5 1087.34,-282.5 1087.34,-282.5 1087.34,-276.5 1093.34,-270.5 1099.34,-270.5"/>
<text text-anchor="middle" x="1160.06" y="-355.3" font-family="Times,serif" font-size="14.00">GenericCarGeneration</text>
<polyline fill="none" stroke="black" points="1087.34,-348.5 1232.78,-348.5 "/>
<text text-anchor="start" x="1095.34" y="-333.3" font-family="Times,serif" font-size="14.00">id :integer</text>
<text text-anchor="start" x="1095.34" y="-319.3" font-family="Times,serif" font-size="14.00">generic_car_id :integer</text>
<text text-anchor="start" x="1095.34" y="-305.3" font-family="Times,serif" font-size="14.00">generation_id :integer</text>
<text text-anchor="start" x="1095.34" y="-291.3" font-family="Times,serif" font-size="14.00">created_at :datetime</text>
<text text-anchor="start" x="1095.34" y="-277.3" font-family="Times,serif" font-size="14.00">updated_at :datetime</text>
</g>
<!-- Generation&#45;&gt;GenericCarGeneration -->
<g id="edge4" class="edge"><title>Generation&#45;&gt;GenericCarGeneration</title>
<path fill="none" stroke="#b40163" d="M987.498,-1238.22C1002.54,-1219.31 1017.59,-1196.52 1026.06,-1173 1132.05,-878.597 967.433,-767.607 1064.06,-470 1074.63,-437.461 1094.18,-405.111 1112.9,-378.952"/>
<ellipse fill="none" stroke="#b40163" cx="984.93" cy="-1241.38" rx="4.00002" ry="4.00002"/>
<polygon fill="#b40163" stroke="#b40163" points="1113.04,-378.76 1122.57,-373.337 1115.99,-374.722 1118.94,-370.683 1118.94,-370.683 1118.94,-370.683 1115.99,-374.722 1115.31,-368.03 1113.04,-378.76 1113.04,-378.76"/>
</g>
<!-- GenericCar&#45;&gt;Car -->
<g id="edge5" class="edge"><title>GenericCar&#45;&gt;Car</title>
<path fill="none" stroke="#8d8b20" d="M891.762,-707.635C861.829,-628.707 810.38,-527.496 730.061,-470 658.043,-418.446 613.98,-472.174 534.061,-434 520.635,-427.587 507.492,-419.433 495.026,-410.453"/>
<ellipse fill="none" stroke="#8d8b20" cx="893.191" cy="-711.455" rx="4.00001" ry="4.00001"/>
<polygon fill="#8d8b20" stroke="#8d8b20" points="494.963,-410.407 489.619,-400.831 490.949,-407.425 486.936,-404.443 486.936,-404.443 486.936,-404.443 490.949,-407.425 484.252,-408.056 494.963,-410.407 494.963,-410.407"/>
</g>
<!-- GenericCar&#45;&gt;CarSpareAlloy -->
<g id="edge6" class="edge"><title>GenericCar&#45;&gt;CarSpareAlloy</title>
<path fill="none" stroke="#900e40" d="M915.918,-707.452C903.937,-583.917 881.574,-380.461 850.061,-207 846.845,-189.302 842.638,-170.314 838.429,-152.765"/>
<ellipse fill="none" stroke="#900e40" cx="916.307" cy="-711.491" rx="4" ry="4"/>
<polygon fill="#900e40" stroke="#900e40" points="838.324,-152.336 840.33,-141.555 837.141,-147.478 835.958,-142.62 835.958,-142.62 835.958,-142.62 837.141,-147.478 831.586,-143.684 838.324,-152.336 838.324,-152.336"/>
</g>
<!-- GenericCar&#45;&gt;GenericCarGeneration -->
<g id="edge9" class="edge"><title>GenericCar&#45;&gt;GenericCarGeneration</title>
<path fill="none" stroke="#6f1a3c" d="M941.51,-707.429C955.688,-634.632 982.234,-540.744 1031.06,-470 1046.01,-448.345 1059.68,-452.826 1078.06,-434 1094.24,-417.43 1109.8,-397.502 1122.93,-379.052"/>
<ellipse fill="none" stroke="#6f1a3c" cx="940.759" cy="-711.371" rx="4.00001" ry="4.00001"/>
<polygon fill="#6f1a3c" stroke="#6f1a3c" points="1123.05,-378.885 1132.47,-373.279 1125.92,-374.791 1128.79,-370.697 1128.79,-370.697 1128.79,-370.697 1125.92,-374.791 1125.1,-368.114 1123.05,-378.885 1123.05,-378.885"/>
</g>
<!-- GenericImage -->
<g id="node8" class="node"><title>GenericImage</title>
<path fill="none" stroke="black" d="M909.11,-249.5C909.11,-249.5 1057.01,-249.5 1057.01,-249.5 1063.01,-249.5 1069.01,-255.5 1069.01,-261.5 1069.01,-261.5 1069.01,-379.5 1069.01,-379.5 1069.01,-385.5 1063.01,-391.5 1057.01,-391.5 1057.01,-391.5 909.11,-391.5 909.11,-391.5 903.11,-391.5 897.11,-385.5 897.11,-379.5 897.11,-379.5 897.11,-261.5 897.11,-261.5 897.11,-255.5 903.11,-249.5 909.11,-249.5"/>
<text text-anchor="middle" x="983.061" y="-376.3" font-family="Times,serif" font-size="14.00">GenericImage</text>
<polyline fill="none" stroke="black" points="897.11,-369.5 1069.01,-369.5 "/>
<text text-anchor="start" x="905.11" y="-354.3" font-family="Times,serif" font-size="14.00">id :integer</text>
<text text-anchor="start" x="905.11" y="-340.3" font-family="Times,serif" font-size="14.00">generic_id :integer</text>
<text text-anchor="start" x="905.11" y="-326.3" font-family="Times,serif" font-size="14.00">created_at :datetime</text>
<text text-anchor="start" x="905.11" y="-312.3" font-family="Times,serif" font-size="14.00">updated_at :datetime</text>
<text text-anchor="start" x="905.11" y="-298.3" font-family="Times,serif" font-size="14.00">photo_file_name :string</text>
<text text-anchor="start" x="905.11" y="-284.3" font-family="Times,serif" font-size="14.00">photo_content_type :string</text>
<text text-anchor="start" x="905.11" y="-270.3" font-family="Times,serif" font-size="14.00">photo_file_size :integer</text>
<text text-anchor="start" x="905.11" y="-256.3" font-family="Times,serif" font-size="14.00">photo_updated_at :datetime</text>
</g>
<!-- GenericCar&#45;&gt;GenericImage -->
<g id="edge7" class="edge"><title>GenericCar&#45;&gt;GenericImage</title>
<path fill="none" stroke="#0d0fc2" d="M939.003,-707.2C949.639,-614.082 964.445,-484.47 973.891,-401.773"/>
<ellipse fill="none" stroke="#0d0fc2" cx="938.533" cy="-711.311" rx="4.00001" ry="4.00001"/>
<polygon fill="#0d0fc2" stroke="#0d0fc2" points="973.909,-401.612 979.515,-392.187 974.477,-396.644 975.044,-391.676 975.044,-391.676 975.044,-391.676 974.477,-396.644 970.574,-391.165 973.909,-401.612 973.909,-401.612"/>
</g>
<!-- GenericSpare -->
<g id="node9" class="node"><title>GenericSpare</title>
<path fill="none" stroke="black" d="M718.769,-235.5C718.769,-235.5 829.352,-235.5 829.352,-235.5 835.352,-235.5 841.352,-241.5 841.352,-247.5 841.352,-247.5 841.352,-393.5 841.352,-393.5 841.352,-399.5 835.352,-405.5 829.352,-405.5 829.352,-405.5 718.769,-405.5 718.769,-405.5 712.769,-405.5 706.769,-399.5 706.769,-393.5 706.769,-393.5 706.769,-247.5 706.769,-247.5 706.769,-241.5 712.769,-235.5 718.769,-235.5"/>
<text text-anchor="middle" x="774.061" y="-390.3" font-family="Times,serif" font-size="14.00">GenericSpare</text>
<polyline fill="none" stroke="black" points="706.769,-383.5 841.352,-383.5 "/>
<text text-anchor="start" x="714.769" y="-368.3" font-family="Times,serif" font-size="14.00">id :integer</text>
<text text-anchor="start" x="714.769" y="-354.3" font-family="Times,serif" font-size="14.00">brand :string</text>
<text text-anchor="start" x="714.769" y="-340.3" font-family="Times,serif" font-size="14.00">type_of_spare :string</text>
<text text-anchor="start" x="714.769" y="-326.3" font-family="Times,serif" font-size="14.00">name :string</text>
<text text-anchor="start" x="714.769" y="-312.3" font-family="Times,serif" font-size="14.00">region :string</text>
<text text-anchor="start" x="714.769" y="-298.3" font-family="Times,serif" font-size="14.00">description :text</text>
<text text-anchor="start" x="714.769" y="-284.3" font-family="Times,serif" font-size="14.00">family_id :integer</text>
<text text-anchor="start" x="714.769" y="-270.3" font-family="Times,serif" font-size="14.00">code :string</text>
<text text-anchor="start" x="714.769" y="-256.3" font-family="Times,serif" font-size="14.00">created_at :datetime</text>
<text text-anchor="start" x="714.769" y="-242.3" font-family="Times,serif" font-size="14.00">updated_at :datetime</text>
</g>
<!-- GenericCar&#45;&gt;GenericSpare -->
<g id="edge8" class="edge"><title>GenericCar&#45;&gt;GenericSpare</title>
<path fill="none" stroke="#168273" d="M891.089,-705.692C864.246,-617.571 827.653,-497.437 802.572,-415.1"/>
<polygon fill="#168273" stroke="#168273" points="891.097,-705.719 889.706,-716.596 892.554,-710.502 894.011,-715.285 894.011,-715.285 894.011,-715.285 892.554,-710.502 898.316,-713.973 891.097,-705.719 891.097,-705.719"/>
<polygon fill="#168273" stroke="#168273" points="802.562,-415.068 803.953,-404.191 801.105,-410.285 799.648,-405.502 799.648,-405.502 799.648,-405.502 801.105,-410.285 795.344,-406.814 802.562,-415.068 802.562,-415.068"/>
</g>
<!-- GenericSpare&#45;&gt;CarSpareAlloy -->
<g id="edge10" class="edge"><title>GenericSpare&#45;&gt;CarSpareAlloy</title>
<path fill="none" stroke="#deae85" d="M792.642,-227.384C797.662,-202.498 802.995,-176.058 807.669,-152.885"/>
<ellipse fill="none" stroke="#deae85" cx="791.82" cy="-231.461" rx="4.00001" ry="4.00001"/>
<polygon fill="#deae85" stroke="#deae85" points="807.721,-152.631 814.109,-143.718 808.709,-147.73 809.698,-142.829 809.698,-142.829 809.698,-142.829 808.709,-147.73 805.287,-141.939 807.721,-152.631 807.721,-152.631"/>
</g>
<!-- Spare -->
<g id="node15" class="node"><title>Spare</title>
<path fill="none" stroke="black" d="M550.055,-0.5C550.055,-0.5 666.066,-0.5 666.066,-0.5 672.066,-0.5 678.066,-6.5 678.066,-12.5 678.066,-12.5 678.066,-158.5 678.066,-158.5 678.066,-164.5 672.066,-170.5 666.066,-170.5 666.066,-170.5 550.055,-170.5 550.055,-170.5 544.055,-170.5 538.055,-164.5 538.055,-158.5 538.055,-158.5 538.055,-12.5 538.055,-12.5 538.055,-6.5 544.055,-0.5 550.055,-0.5"/>
<text text-anchor="middle" x="608.061" y="-155.3" font-family="Times,serif" font-size="14.00">Spare</text>
<polyline fill="none" stroke="black" points="538.055,-148.5 678.066,-148.5 "/>
<text text-anchor="start" x="546.055" y="-133.3" font-family="Times,serif" font-size="14.00">id :integer</text>
<text text-anchor="start" x="546.055" y="-119.3" font-family="Times,serif" font-size="14.00">car_id :integer</text>
<text text-anchor="start" x="546.055" y="-105.3" font-family="Times,serif" font-size="14.00">warehouse_id :integer</text>
<text text-anchor="start" x="546.055" y="-91.3" font-family="Times,serif" font-size="14.00">spare_id :integer</text>
<text text-anchor="start" x="546.055" y="-77.3" font-family="Times,serif" font-size="14.00">status :string</text>
<text text-anchor="start" x="546.055" y="-63.3" font-family="Times,serif" font-size="14.00">description :text</text>
<text text-anchor="start" x="546.055" y="-49.3" font-family="Times,serif" font-size="14.00">code :string</text>
<text text-anchor="start" x="546.055" y="-35.3" font-family="Times,serif" font-size="14.00">color :string</text>
<text text-anchor="start" x="546.055" y="-21.3" font-family="Times,serif" font-size="14.00">created_at :datetime</text>
<text text-anchor="start" x="546.055" y="-7.3" font-family="Times,serif" font-size="14.00">updated_at :datetime</text>
</g>
<!-- GenericSpare&#45;&gt;Spare -->
<g id="edge11" class="edge"><title>GenericSpare&#45;&gt;Spare</title>
<path fill="none" stroke="#eb3e8d" d="M713.19,-228.595C708.114,-221.26 703.026,-213.987 698.061,-207 691.568,-197.864 684.722,-188.403 677.824,-178.984"/>
<ellipse fill="none" stroke="#eb3e8d" cx="715.574" cy="-232.051" rx="4.00002" ry="4.00002"/>
<polygon fill="#eb3e8d" stroke="#eb3e8d" points="677.678,-178.785 675.383,-168.062 674.718,-174.756 671.757,-170.727 671.757,-170.727 671.757,-170.727 674.718,-174.756 668.131,-173.391 677.678,-178.785 677.678,-178.785"/>
</g>
<!-- Insured -->
<g id="node10" class="node"><title>Insured</title>
<path fill="none" stroke="black" d="M12,-249.5C12,-249.5 138.121,-249.5 138.121,-249.5 144.121,-249.5 150.121,-255.5 150.121,-261.5 150.121,-261.5 150.121,-379.5 150.121,-379.5 150.121,-385.5 144.121,-391.5 138.121,-391.5 138.121,-391.5 12,-391.5 12,-391.5 6,-391.5 0,-385.5 0,-379.5 0,-379.5 0,-261.5 0,-261.5 0,-255.5 6,-249.5 12,-249.5"/>
<text text-anchor="middle" x="75.0605" y="-376.3" font-family="Times,serif" font-size="14.00">Insured</text>
<polyline fill="none" stroke="black" points="0,-369.5 150.121,-369.5 "/>
<text text-anchor="start" x="8" y="-354.3" font-family="Times,serif" font-size="14.00">id :integer</text>
<text text-anchor="start" x="8" y="-340.3" font-family="Times,serif" font-size="14.00">prevaluation_id :integer</text>
<text text-anchor="start" x="8" y="-326.3" font-family="Times,serif" font-size="14.00">third :boolean</text>
<text text-anchor="start" x="8" y="-312.3" font-family="Times,serif" font-size="14.00">name :string</text>
<text text-anchor="start" x="8" y="-298.3" font-family="Times,serif" font-size="14.00">telephone :integer</text>
<text text-anchor="start" x="8" y="-284.3" font-family="Times,serif" font-size="14.00">email :string</text>
<text text-anchor="start" x="8" y="-270.3" font-family="Times,serif" font-size="14.00">created_at :datetime</text>
<text text-anchor="start" x="8" y="-256.3" font-family="Times,serif" font-size="14.00">updated_at :datetime</text>
</g>
<!-- MoldComponent -->
<g id="node12" class="node"><title>MoldComponent</title>
<path fill="none" stroke="black" d="M555.328,-270.5C555.328,-270.5 676.793,-270.5 676.793,-270.5 682.793,-270.5 688.793,-276.5 688.793,-282.5 688.793,-282.5 688.793,-358.5 688.793,-358.5 688.793,-364.5 682.793,-370.5 676.793,-370.5 676.793,-370.5 555.328,-370.5 555.328,-370.5 549.328,-370.5 543.328,-364.5 543.328,-358.5 543.328,-358.5 543.328,-282.5 543.328,-282.5 543.328,-276.5 549.328,-270.5 555.328,-270.5"/>
<text text-anchor="middle" x="616.061" y="-355.3" font-family="Times,serif" font-size="14.00">MoldComponent</text>
<polyline fill="none" stroke="black" points="543.328,-348.5 688.793,-348.5 "/>
<text text-anchor="start" x="551.328" y="-333.3" font-family="Times,serif" font-size="14.00">id :integer</text>
<text text-anchor="start" x="551.328" y="-319.3" font-family="Times,serif" font-size="14.00">name :string</text>
<text text-anchor="start" x="551.328" y="-305.3" font-family="Times,serif" font-size="14.00">mold_spare_id :integer</text>
<text text-anchor="start" x="551.328" y="-291.3" font-family="Times,serif" font-size="14.00">created_at :datetime</text>
<text text-anchor="start" x="551.328" y="-277.3" font-family="Times,serif" font-size="14.00">updated_at :datetime</text>
</g>
<!-- MoldSpare -->
<g id="node13" class="node"><title>MoldSpare</title>
<path fill="none" stroke="black" d="M599.555,-750.5C599.555,-750.5 708.566,-750.5 708.566,-750.5 714.566,-750.5 720.566,-756.5 720.566,-762.5 720.566,-762.5 720.566,-880.5 720.566,-880.5 720.566,-886.5 714.566,-892.5 708.566,-892.5 708.566,-892.5 599.555,-892.5 599.555,-892.5 593.555,-892.5 587.555,-886.5 587.555,-880.5 587.555,-880.5 587.555,-762.5 587.555,-762.5 587.555,-756.5 593.555,-750.5 599.555,-750.5"/>
<text text-anchor="middle" x="654.061" y="-877.3" font-family="Times,serif" font-size="14.00">MoldSpare</text>
<polyline fill="none" stroke="black" points="587.555,-870.5 720.566,-870.5 "/>
<text text-anchor="start" x="595.555" y="-855.3" font-family="Times,serif" font-size="14.00">id :integer</text>
<text text-anchor="start" x="595.555" y="-841.3" font-family="Times,serif" font-size="14.00">name :string</text>
<text text-anchor="start" x="595.555" y="-827.3" font-family="Times,serif" font-size="14.00">comment :string</text>
<text text-anchor="start" x="595.555" y="-813.3" font-family="Times,serif" font-size="14.00">comment2 :string</text>
<text text-anchor="start" x="595.555" y="-799.3" font-family="Times,serif" font-size="14.00">mold_type :string</text>
<text text-anchor="start" x="595.555" y="-785.3" font-family="Times,serif" font-size="14.00">code :string</text>
<text text-anchor="start" x="595.555" y="-771.3" font-family="Times,serif" font-size="14.00">created_at :datetime</text>
<text text-anchor="start" x="595.555" y="-757.3" font-family="Times,serif" font-size="14.00">updated_at :datetime</text>
</g>
<!-- MoldSpare&#45;&gt;GenericSpare -->
<g id="edge12" class="edge"><title>MoldSpare&#45;&gt;GenericSpare</title>
<path fill="none" stroke="#dbfe2f" d="M672.822,-742.484C694.068,-654.137 728.677,-510.218 751.41,-415.687"/>
<ellipse fill="none" stroke="#dbfe2f" cx="671.871" cy="-746.438" rx="4.00001" ry="4.00001"/>
<polygon fill="#dbfe2f" stroke="#dbfe2f" points="751.44,-415.564 758.153,-406.894 752.609,-410.703 753.778,-405.841 753.778,-405.841 753.778,-405.841 752.609,-410.703 749.403,-404.789 751.44,-415.564 751.44,-415.564"/>
</g>
<!-- MoldSpare&#45;&gt;MoldComponent -->
<g id="edge13" class="edge"><title>MoldSpare&#45;&gt;MoldComponent</title>
<path fill="none" stroke="#29688e" d="M648.086,-742.041C640.451,-641.79 627.408,-470.507 620.56,-380.591"/>
<ellipse fill="none" stroke="#29688e" cx="648.413" cy="-746.339" rx="4" ry="4"/>
<polygon fill="#29688e" stroke="#29688e" points="620.556,-380.537 624.284,-370.224 620.177,-375.552 619.797,-370.566 619.797,-370.566 619.797,-370.566 620.177,-375.552 615.31,-370.908 620.556,-380.537 620.556,-380.537"/>
</g>
<!-- Prevaluation -->
<g id="node14" class="node"><title>Prevaluation</title>
<path fill="none" stroke="black" d="M157.61,-470.5C157.61,-470.5 312.511,-470.5 312.511,-470.5 318.511,-470.5 324.511,-476.5 324.511,-482.5 324.511,-482.5 324.511,-1160.5 324.511,-1160.5 324.511,-1166.5 318.511,-1172.5 312.511,-1172.5 312.511,-1172.5 157.61,-1172.5 157.61,-1172.5 151.61,-1172.5 145.61,-1166.5 145.61,-1160.5 145.61,-1160.5 145.61,-482.5 145.61,-482.5 145.61,-476.5 151.61,-470.5 157.61,-470.5"/>
<text text-anchor="middle" x="235.061" y="-1157.3" font-family="Times,serif" font-size="14.00">Prevaluation</text>
<polyline fill="none" stroke="black" points="145.61,-1150.5 324.511,-1150.5 "/>
<text text-anchor="start" x="153.61" y="-1135.3" font-family="Times,serif" font-size="14.00">id :integer</text>
<text text-anchor="start" x="153.61" y="-1121.3" font-family="Times,serif" font-size="14.00">number :string</text>
<text text-anchor="start" x="153.61" y="-1107.3" font-family="Times,serif" font-size="14.00">policy :string</text>
<text text-anchor="start" x="153.61" y="-1093.3" font-family="Times,serif" font-size="14.00">subsection :string</text>
<text text-anchor="start" x="153.61" y="-1079.3" font-family="Times,serif" font-size="14.00">expedition_date :date</text>
<text text-anchor="start" x="153.61" y="-1065.3" font-family="Times,serif" font-size="14.00">valuation_date :date</text>
<text text-anchor="start" x="153.61" y="-1051.3" font-family="Times,serif" font-size="14.00">deductible_value :float</text>
<text text-anchor="start" x="153.61" y="-1037.3" font-family="Times,serif" font-size="14.00">commercial_value :float</text>
<text text-anchor="start" x="153.61" y="-1023.3" font-family="Times,serif" font-size="14.00">requires_crane :boolean</text>
<text text-anchor="start" x="153.61" y="-1009.3" font-family="Times,serif" font-size="14.00">collection_status :boolean</text>
<text text-anchor="start" x="153.61" y="-995.3" font-family="Times,serif" font-size="14.00">special_conditions :string</text>
<text text-anchor="start" x="153.61" y="-981.3" font-family="Times,serif" font-size="14.00">third_insured :boolean</text>
<text text-anchor="start" x="153.61" y="-967.3" font-family="Times,serif" font-size="14.00">agent_name :string</text>
<text text-anchor="start" x="153.61" y="-953.3" font-family="Times,serif" font-size="14.00">comment :text</text>
<text text-anchor="start" x="153.61" y="-939.3" font-family="Times,serif" font-size="14.00">photo1_file_name :string</text>
<text text-anchor="start" x="153.61" y="-925.3" font-family="Times,serif" font-size="14.00">photo1_content_type :string</text>
<text text-anchor="start" x="153.61" y="-911.3" font-family="Times,serif" font-size="14.00">photo1_file_size :integer</text>
<text text-anchor="start" x="153.61" y="-897.3" font-family="Times,serif" font-size="14.00">photo1_updated_at :datetime</text>
<text text-anchor="start" x="153.61" y="-883.3" font-family="Times,serif" font-size="14.00">photo2_file_name :string</text>
<text text-anchor="start" x="153.61" y="-869.3" font-family="Times,serif" font-size="14.00">photo2_content_type :string</text>
<text text-anchor="start" x="153.61" y="-855.3" font-family="Times,serif" font-size="14.00">photo2_file_size :integer</text>
<text text-anchor="start" x="153.61" y="-841.3" font-family="Times,serif" font-size="14.00">photo2_updated_at :datetime</text>
<text text-anchor="start" x="153.61" y="-827.3" font-family="Times,serif" font-size="14.00">photo3_file_name :string</text>
<text text-anchor="start" x="153.61" y="-813.3" font-family="Times,serif" font-size="14.00">photo3_content_type :string</text>
<text text-anchor="start" x="153.61" y="-799.3" font-family="Times,serif" font-size="14.00">photo3_file_size :integer</text>
<text text-anchor="start" x="153.61" y="-785.3" font-family="Times,serif" font-size="14.00">photo3_updated_at :datetime</text>
<text text-anchor="start" x="153.61" y="-771.3" font-family="Times,serif" font-size="14.00">photo4_file_name :string</text>
<text text-anchor="start" x="153.61" y="-757.3" font-family="Times,serif" font-size="14.00">photo4_content_type :string</text>
<text text-anchor="start" x="153.61" y="-743.3" font-family="Times,serif" font-size="14.00">photo4_file_size :integer</text>
<text text-anchor="start" x="153.61" y="-729.3" font-family="Times,serif" font-size="14.00">photo4_updated_at :datetime</text>
<text text-anchor="start" x="153.61" y="-715.3" font-family="Times,serif" font-size="14.00">doc1_file_name :string</text>
<text text-anchor="start" x="153.61" y="-701.3" font-family="Times,serif" font-size="14.00">doc1_content_type :string</text>
<text text-anchor="start" x="153.61" y="-687.3" font-family="Times,serif" font-size="14.00">doc1_file_size :integer</text>
<text text-anchor="start" x="153.61" y="-673.3" font-family="Times,serif" font-size="14.00">doc1_updated_at :datetime</text>
<text text-anchor="start" x="153.61" y="-659.3" font-family="Times,serif" font-size="14.00">doc2_file_name :string</text>
<text text-anchor="start" x="153.61" y="-645.3" font-family="Times,serif" font-size="14.00">doc2_content_type :string</text>
<text text-anchor="start" x="153.61" y="-631.3" font-family="Times,serif" font-size="14.00">doc2_file_size :integer</text>
<text text-anchor="start" x="153.61" y="-617.3" font-family="Times,serif" font-size="14.00">doc2_updated_at :datetime</text>
<text text-anchor="start" x="153.61" y="-603.3" font-family="Times,serif" font-size="14.00">doc3_file_name :string</text>
<text text-anchor="start" x="153.61" y="-589.3" font-family="Times,serif" font-size="14.00">doc3_content_type :string</text>
<text text-anchor="start" x="153.61" y="-575.3" font-family="Times,serif" font-size="14.00">doc3_file_size :integer</text>
<text text-anchor="start" x="153.61" y="-561.3" font-family="Times,serif" font-size="14.00">doc3_updated_at :datetime</text>
<text text-anchor="start" x="153.61" y="-547.3" font-family="Times,serif" font-size="14.00">doc4_file_name :string</text>
<text text-anchor="start" x="153.61" y="-533.3" font-family="Times,serif" font-size="14.00">doc4_content_type :string</text>
<text text-anchor="start" x="153.61" y="-519.3" font-family="Times,serif" font-size="14.00">doc4_file_size :integer</text>
<text text-anchor="start" x="153.61" y="-505.3" font-family="Times,serif" font-size="14.00">doc4_updated_at :datetime</text>
<text text-anchor="start" x="153.61" y="-491.3" font-family="Times,serif" font-size="14.00">created_at :datetime</text>
<text text-anchor="start" x="153.61" y="-477.3" font-family="Times,serif" font-size="14.00">updated_at :datetime</text>
</g>
<!-- Prevaluation&#45;&gt;Car -->
<g id="edge14" class="edge"><title>Prevaluation&#45;&gt;Car</title>
<path fill="none" stroke="#6647ed" d="M327.284,-546.574C339.459,-510.412 351.401,-474.941 362.074,-443.239"/>
<ellipse fill="none" stroke="#6647ed" cx="325.87" cy="-550.773" rx="4.00001" ry="4.00001"/>
<polygon fill="#6647ed" stroke="#6647ed" points="362.154,-443.002 369.609,-434.961 363.749,-438.264 365.345,-433.525 365.345,-433.525 365.345,-433.525 363.749,-438.264 361.08,-432.089 362.154,-443.002 362.154,-443.002"/>
</g>
<!-- Prevaluation&#45;&gt;Insured -->
<g id="edge15" class="edge"><title>Prevaluation&#45;&gt;Insured</title>
<path fill="none" stroke="#3dbbda" d="M143.079,-533.633C127.5,-485.046 112.542,-438.394 100.639,-401.272"/>
<ellipse fill="none" stroke="#3dbbda" cx="144.367" cy="-537.649" rx="4.00001" ry="4.00001"/>
<polygon fill="#3dbbda" stroke="#3dbbda" points="100.576,-401.077 101.808,-390.18 99.0495,-396.315 97.5228,-391.554 97.5228,-391.554 97.5228,-391.554 99.0495,-396.315 93.2377,-392.928 100.576,-401.077 100.576,-401.077"/>
</g>
<!-- Valuation -->
<g id="node17" class="node"><title>Valuation</title>
<path fill="none" stroke="black" d="M180.555,-270.5C180.555,-270.5 289.566,-270.5 289.566,-270.5 295.566,-270.5 301.566,-276.5 301.566,-282.5 301.566,-282.5 301.566,-358.5 301.566,-358.5 301.566,-364.5 295.566,-370.5 289.566,-370.5 289.566,-370.5 180.555,-370.5 180.555,-370.5 174.555,-370.5 168.555,-364.5 168.555,-358.5 168.555,-358.5 168.555,-282.5 168.555,-282.5 168.555,-276.5 174.555,-270.5 180.555,-270.5"/>
<text text-anchor="middle" x="235.061" y="-355.3" font-family="Times,serif" font-size="14.00">Valuation</text>
<polyline fill="none" stroke="black" points="168.555,-348.5 301.566,-348.5 "/>
<text text-anchor="start" x="176.555" y="-333.3" font-family="Times,serif" font-size="14.00">id :integer</text>
<text text-anchor="start" x="176.555" y="-319.3" font-family="Times,serif" font-size="14.00">client_code :string</text>
<text text-anchor="start" x="176.555" y="-305.3" font-family="Times,serif" font-size="14.00">edited_by :string</text>
<text text-anchor="start" x="176.555" y="-291.3" font-family="Times,serif" font-size="14.00">created_at :datetime</text>
<text text-anchor="start" x="176.555" y="-277.3" font-family="Times,serif" font-size="14.00">updated_at :datetime</text>
</g>
<!-- Prevaluation&#45;&gt;Valuation -->
<g id="edge16" class="edge"><title>Prevaluation&#45;&gt;Valuation</title>
<path fill="none" stroke="#cee068" d="M235.061,-462.121C235.061,-430.634 235.061,-402.024 235.061,-378.955"/>
<ellipse fill="none" stroke="#cee068" cx="235.061" cy="-466.203" rx="4" ry="4"/>
<ellipse fill="#cee068" stroke="#cee068" cx="235.061" cy="-374.711" rx="4" ry="4"/>
</g>
<!-- User -->
<g id="node16" class="node"><title>User</title>
<path fill="none" stroke="black" d="M1221,-1209.5C1221,-1209.5 1347.12,-1209.5 1347.12,-1209.5 1353.12,-1209.5 1359.12,-1215.5 1359.12,-1221.5 1359.12,-1221.5 1359.12,-1353.5 1359.12,-1353.5 1359.12,-1359.5 1353.12,-1365.5 1347.12,-1365.5 1347.12,-1365.5 1221,-1365.5 1221,-1365.5 1215,-1365.5 1209,-1359.5 1209,-1353.5 1209,-1353.5 1209,-1221.5 1209,-1221.5 1209,-1215.5 1215,-1209.5 1221,-1209.5"/>
<text text-anchor="middle" x="1284.06" y="-1350.3" font-family="Times,serif" font-size="14.00">User</text>
<polyline fill="none" stroke="black" points="1209,-1343.5 1359.12,-1343.5 "/>
<text text-anchor="start" x="1217" y="-1328.3" font-family="Times,serif" font-size="14.00">id :integer</text>
<text text-anchor="start" x="1217" y="-1314.3" font-family="Times,serif" font-size="14.00">name :string</text>
<text text-anchor="start" x="1217" y="-1300.3" font-family="Times,serif" font-size="14.00">email :string</text>
<text text-anchor="start" x="1217" y="-1286.3" font-family="Times,serif" font-size="14.00">username :string</text>
<text text-anchor="start" x="1217" y="-1272.3" font-family="Times,serif" font-size="14.00">privileges :string</text>
<text text-anchor="start" x="1217" y="-1258.3" font-family="Times,serif" font-size="14.00">created_at :datetime</text>
<text text-anchor="start" x="1217" y="-1244.3" font-family="Times,serif" font-size="14.00">updated_at :datetime</text>
<text text-anchor="start" x="1217" y="-1230.3" font-family="Times,serif" font-size="14.00">password_digest :string</text>
<text text-anchor="start" x="1217" y="-1216.3" font-family="Times,serif" font-size="14.00">remember_token :string</text>
</g>
<!-- Warehouse -->
<g id="node18" class="node"><title>Warehouse</title>
<path fill="none" stroke="black" d="M382.555,-764.5C382.555,-764.5 491.566,-764.5 491.566,-764.5 497.566,-764.5 503.566,-770.5 503.566,-776.5 503.566,-776.5 503.566,-866.5 503.566,-866.5 503.566,-872.5 497.566,-878.5 491.566,-878.5 491.566,-878.5 382.555,-878.5 382.555,-878.5 376.555,-878.5 370.555,-872.5 370.555,-866.5 370.555,-866.5 370.555,-776.5 370.555,-776.5 370.555,-770.5 376.555,-764.5 382.555,-764.5"/>
<text text-anchor="middle" x="437.061" y="-863.3" font-family="Times,serif" font-size="14.00">Warehouse</text>
<polyline fill="none" stroke="black" points="370.555,-856.5 503.566,-856.5 "/>
<text text-anchor="start" x="378.555" y="-841.3" font-family="Times,serif" font-size="14.00">id :integer</text>
<text text-anchor="start" x="378.555" y="-827.3" font-family="Times,serif" font-size="14.00">branch :string</text>
<text text-anchor="start" x="378.555" y="-813.3" font-family="Times,serif" font-size="14.00">location :string</text>
<text text-anchor="start" x="378.555" y="-799.3" font-family="Times,serif" font-size="14.00">geolocation :string</text>
<text text-anchor="start" x="378.555" y="-785.3" font-family="Times,serif" font-size="14.00">created_at :datetime</text>
<text text-anchor="start" x="378.555" y="-771.3" font-family="Times,serif" font-size="14.00">updated_at :datetime</text>
</g>
<!-- Warehouse&#45;&gt;Car -->
<g id="edge18" class="edge"><title>Warehouse&#45;&gt;Car</title>
<path fill="none" stroke="#3cbae0" d="M432.669,-756.048C427.3,-677.247 418.099,-542.212 411.376,-443.54"/>
<ellipse fill="none" stroke="#3cbae0" cx="432.954" cy="-760.238" rx="4" ry="4"/>
<polygon fill="#3cbae0" stroke="#3cbae0" points="411.372,-443.483 415.182,-433.2 411.032,-438.494 410.692,-433.506 410.692,-433.506 410.692,-433.506 411.032,-438.494 406.203,-433.812 411.372,-443.483 411.372,-443.483"/>
</g>
<!-- Warehouse&#45;&gt;Spare -->
<g id="edge17" class="edge"><title>Warehouse&#45;&gt;Spare</title>
<path fill="none" stroke="#78ee3a" d="M446.86,-756.385C470.544,-601.726 529.298,-219.896 534.061,-207 537.441,-197.846 541.556,-188.629 546.096,-179.59"/>
<ellipse fill="none" stroke="#78ee3a" cx="446.229" cy="-760.511" rx="4.00001" ry="4.00001"/>
<polygon fill="#78ee3a" stroke="#78ee3a" points="546.148,-179.489 554.757,-172.697 548.457,-175.054 550.766,-170.619 550.766,-170.619 550.766,-170.619 548.457,-175.054 546.774,-168.541 546.148,-179.489 546.148,-179.489"/>
</g>
</g>
</svg>
